G04*
G04 #@! TF.GenerationSoftware,Altium Limited,Altium Designer,18.0.11 (651)*
G04*
G04 Layer_Physical_Order=4*
G04 Layer_Color=16711680*
%FSLAX25Y25*%
%MOIN*%
G70*
G01*
G75*
%ADD38C,0.00800*%
%ADD42C,0.06299*%
%ADD43C,0.05906*%
%ADD44C,0.02200*%
%ADD45C,0.02410*%
%ADD46C,0.01968*%
%ADD47C,0.02400*%
%ADD48C,0.02800*%
G36*
X-2330Y2690D02*
X-2534Y2534D01*
X-3103Y1792D01*
X-3461Y927D01*
X-3583Y0D01*
X-3461Y-927D01*
X-3103Y-1792D01*
X-2534Y-2534D01*
X-1792Y-3103D01*
X-927Y-3461D01*
X0Y-3583D01*
X927Y-3461D01*
X1792Y-3103D01*
X2534Y-2534D01*
X2691Y-2330D01*
X3190Y-2499D01*
Y-6900D01*
X2691Y-7082D01*
X1993Y-6547D01*
X1032Y-6149D01*
X750Y-6112D01*
Y-10000D01*
Y-13888D01*
X1032Y-13851D01*
X1993Y-13453D01*
X2691Y-12918D01*
X3190Y-13100D01*
Y-14251D01*
X3190Y-14751D01*
X-7711Y-14751D01*
X-7886Y-14823D01*
X-8071Y-14860D01*
X-8257Y-14984D01*
X-8705Y-15073D01*
X-9154Y-14984D01*
X-9340Y-14860D01*
X-9526Y-14823D01*
X-9701Y-14751D01*
X-19420Y-14751D01*
X-19656Y-14310D01*
X-19584Y-14202D01*
X-19444Y-13500D01*
X-19584Y-12798D01*
X-19982Y-12202D01*
X-20577Y-11804D01*
X-21279Y-11665D01*
X-21982Y-11804D01*
X-22577Y-12202D01*
X-22975Y-12798D01*
X-23115Y-13500D01*
X-22975Y-14202D01*
X-22903Y-14310D01*
X-23139Y-14751D01*
X-35297Y-14751D01*
X-35668Y-14352D01*
X-35614Y-13861D01*
X-35411Y-13726D01*
X-35035Y-13163D01*
X-34903Y-12500D01*
X-35035Y-11837D01*
X-35411Y-11274D01*
X-35974Y-10899D01*
X-36637Y-10767D01*
X-36869Y-10813D01*
X-37256Y-10496D01*
Y-9504D01*
X-36869Y-9187D01*
X-36637Y-9233D01*
X-35974Y-9101D01*
X-35411Y-8726D01*
X-35035Y-8163D01*
X-34903Y-7500D01*
X-35035Y-6837D01*
X-35411Y-6274D01*
X-35974Y-5899D01*
X-36637Y-5767D01*
X-36869Y-5813D01*
X-37256Y-5496D01*
X-37256Y-4504D01*
X-36870Y-4187D01*
X-36637Y-4233D01*
X-35974Y-4101D01*
X-35411Y-3726D01*
X-35035Y-3163D01*
X-34903Y-2500D01*
X-35035Y-1837D01*
X-35411Y-1274D01*
X-35974Y-899D01*
X-36637Y-767D01*
X-37300Y-899D01*
X-37862Y-1274D01*
X-38025Y-1518D01*
X-38660Y-1590D01*
X-42940Y2690D01*
X-42733Y3190D01*
X-38252D01*
X-37985Y2690D01*
X-38070Y2563D01*
X-38202Y1900D01*
X-38070Y1237D01*
X-37694Y674D01*
X-37132Y299D01*
X-36468Y167D01*
X-35805Y299D01*
X-35243Y674D01*
X-34867Y1237D01*
X-34735Y1900D01*
X-34867Y2563D01*
X-34952Y2690D01*
X-34685Y3190D01*
X-31848D01*
X-31612Y2750D01*
X-31670Y2663D01*
X-31802Y2000D01*
X-31670Y1337D01*
X-31294Y774D01*
X-30732Y399D01*
X-30068Y267D01*
X-29405Y399D01*
X-28843Y774D01*
X-28467Y1337D01*
X-28335Y2000D01*
X-28467Y2663D01*
X-28525Y2750D01*
X-28289Y3190D01*
X-2499D01*
X-2330Y2690D01*
D02*
G37*
G36*
X-69952D02*
X-70665Y1978D01*
X-70855Y1519D01*
X-70855Y-6471D01*
X-70947Y-6610D01*
X-71025Y-7000D01*
Y-18774D01*
X-70947Y-19164D01*
X-70727Y-19495D01*
X-65932Y-24290D01*
X-66106Y-24771D01*
X-66136Y-24792D01*
X-66768Y-24667D01*
X-67432Y-24799D01*
X-67994Y-25174D01*
X-68370Y-25737D01*
X-68502Y-26400D01*
X-68370Y-27063D01*
X-67994Y-27626D01*
X-67788Y-27763D01*
Y-31978D01*
X-76198Y-40388D01*
X-76337Y-40295D01*
X-77000Y-40163D01*
X-77663Y-40295D01*
X-78226Y-40671D01*
X-78601Y-41234D01*
X-78733Y-41897D01*
X-78601Y-42560D01*
X-78226Y-43122D01*
X-77663Y-43498D01*
X-77000Y-43630D01*
X-76337Y-43498D01*
X-75774Y-43122D01*
X-75399Y-42560D01*
X-75377Y-42450D01*
X-66047Y-33121D01*
X-66020Y-33079D01*
X-65520Y-33231D01*
Y-34790D01*
X-65726Y-34928D01*
X-66101Y-35490D01*
X-66233Y-36154D01*
X-66101Y-36817D01*
X-65726Y-37379D01*
X-65163Y-37755D01*
X-64500Y-37887D01*
X-63837Y-37755D01*
X-63274Y-37379D01*
X-62899Y-36817D01*
X-62767Y-36154D01*
X-62899Y-35490D01*
X-63274Y-34928D01*
X-63480Y-34790D01*
Y-24988D01*
X-63019Y-24797D01*
X-52456Y-35359D01*
X-51997Y-35549D01*
X-38178D01*
X-37943Y-36049D01*
X-38372Y-36608D01*
X-38730Y-37473D01*
X-38852Y-38400D01*
X-38730Y-39327D01*
X-38372Y-40192D01*
X-37802Y-40934D01*
X-37060Y-41503D01*
X-36196Y-41861D01*
X-35268Y-41983D01*
X-34341Y-41861D01*
X-33477Y-41503D01*
X-32735Y-40934D01*
X-32165Y-40192D01*
X-31807Y-39327D01*
X-31685Y-38400D01*
X-31807Y-37473D01*
X-32165Y-36608D01*
X-32594Y-36049D01*
X-32359Y-35549D01*
X-28694D01*
X-28447Y-36049D01*
X-28721Y-36407D01*
X-29119Y-37368D01*
X-29157Y-37650D01*
X-21380D01*
X-21417Y-37368D01*
X-21816Y-36407D01*
X-22090Y-36049D01*
X-21843Y-35549D01*
X-16193D01*
X-16002Y-36011D01*
X-62141Y-82151D01*
X-65824D01*
X-66283Y-82341D01*
X-66680Y-82738D01*
X-67180Y-82531D01*
Y-71963D01*
X-66974Y-71826D01*
X-66599Y-71263D01*
X-66467Y-70600D01*
X-66599Y-69937D01*
X-66944Y-69420D01*
X-66892Y-69204D01*
X-66755Y-68920D01*
X-64100D01*
X-63710Y-68842D01*
X-63379Y-68621D01*
X-60678Y-65920D01*
X-51730D01*
X-51726Y-65926D01*
X-51163Y-66301D01*
X-50500Y-66433D01*
X-49837Y-66301D01*
X-49274Y-65926D01*
X-48899Y-65363D01*
X-48767Y-64700D01*
X-48899Y-64037D01*
X-49274Y-63474D01*
X-49837Y-63099D01*
X-50500Y-62967D01*
X-50918Y-62540D01*
X-50999Y-62137D01*
X-51374Y-61574D01*
X-51937Y-61199D01*
X-52340Y-61118D01*
X-52767Y-60700D01*
X-52899Y-60037D01*
X-53274Y-59474D01*
X-53837Y-59099D01*
X-54500Y-58967D01*
X-55163Y-59099D01*
X-55726Y-59474D01*
X-55897Y-59730D01*
X-106103D01*
X-106274Y-59474D01*
X-106837Y-59099D01*
X-107441Y-58978D01*
X-107600Y-58759D01*
X-107724Y-58501D01*
X-107699Y-58463D01*
X-107567Y-57800D01*
X-107699Y-57137D01*
X-108074Y-56574D01*
X-108637Y-56199D01*
X-109300Y-56067D01*
X-109963Y-56199D01*
X-110526Y-56574D01*
X-110775Y-56948D01*
X-111275Y-56796D01*
Y-40844D01*
X-100788Y-30356D01*
X-100400Y-30433D01*
X-99737Y-30301D01*
X-99174Y-29926D01*
X-98743Y-30181D01*
X-98263Y-30501D01*
X-97600Y-30633D01*
X-96937Y-30501D01*
X-96374Y-30126D01*
X-95999Y-29563D01*
X-95867Y-28900D01*
X-95999Y-28237D01*
X-96374Y-27674D01*
X-96937Y-27299D01*
X-97109Y-27264D01*
X-97279Y-27009D01*
X-98409Y-25879D01*
X-98740Y-25658D01*
X-99110Y-25584D01*
X-99142Y-25531D01*
X-99256Y-25080D01*
X-98874Y-24826D01*
X-98499Y-24263D01*
X-98367Y-23600D01*
X-98499Y-22937D01*
X-98874Y-22374D01*
X-99437Y-21999D01*
X-100100Y-21867D01*
X-100763Y-21999D01*
X-101326Y-22374D01*
X-101701Y-22937D01*
X-101833Y-23600D01*
X-101701Y-24263D01*
X-101326Y-24826D01*
X-100944Y-25080D01*
X-101096Y-25580D01*
X-101270D01*
X-101660Y-25658D01*
X-101991Y-25879D01*
X-114416Y-38304D01*
X-114637Y-38635D01*
X-114715Y-39025D01*
Y-69056D01*
X-114637Y-69446D01*
X-114416Y-69777D01*
X-101391Y-82802D01*
X-101439Y-83046D01*
X-101307Y-83709D01*
X-100931Y-84271D01*
X-100369Y-84647D01*
X-99705Y-84779D01*
X-99042Y-84647D01*
X-98680Y-84405D01*
X-98249Y-84343D01*
X-97982Y-84425D01*
X-97569Y-84701D01*
X-96905Y-84833D01*
X-96242Y-84701D01*
X-95680Y-84326D01*
X-95304Y-83763D01*
X-95172Y-83100D01*
X-95304Y-82437D01*
X-95680Y-81874D01*
X-96242Y-81499D01*
X-96905Y-81367D01*
X-96961Y-81378D01*
X-111275Y-67064D01*
Y-66249D01*
X-110834Y-66013D01*
X-110704Y-66100D01*
X-110000Y-66240D01*
X-109296Y-66100D01*
X-108699Y-65701D01*
X-108510Y-65420D01*
X-87722D01*
X-84521Y-68621D01*
X-84190Y-68842D01*
X-83800Y-68920D01*
X-69645D01*
X-69508Y-69204D01*
X-69456Y-69420D01*
X-69801Y-69937D01*
X-69933Y-70600D01*
X-69801Y-71263D01*
X-69426Y-71826D01*
X-69220Y-71963D01*
Y-90893D01*
X-69288Y-91237D01*
X-69210Y-91627D01*
X-68989Y-91958D01*
X-67329Y-93619D01*
X-67355Y-93682D01*
X-67355Y-101900D01*
X-67355Y-101900D01*
X-67355Y-101900D01*
X-67273Y-102098D01*
X-67165Y-102359D01*
X-67165Y-102359D01*
X-67165Y-102359D01*
X-66795Y-102728D01*
X-66987Y-103190D01*
X-137501D01*
X-137670Y-102690D01*
X-137466Y-102534D01*
X-136897Y-101792D01*
X-136539Y-100927D01*
X-136417Y-100000D01*
X-136539Y-99073D01*
X-136897Y-98208D01*
X-137466Y-97466D01*
X-138208Y-96897D01*
X-139073Y-96539D01*
X-140000Y-96417D01*
X-140927Y-96539D01*
X-141792Y-96897D01*
X-142534Y-97466D01*
X-142691Y-97670D01*
X-143191Y-97500D01*
Y-92500D01*
X-142691Y-92330D01*
X-142534Y-92534D01*
X-141792Y-93103D01*
X-140927Y-93461D01*
X-140000Y-93583D01*
X-139073Y-93461D01*
X-138208Y-93103D01*
X-137466Y-92534D01*
X-136897Y-91792D01*
X-136539Y-90927D01*
X-136417Y-90000D01*
X-136539Y-89073D01*
X-136897Y-88208D01*
X-137466Y-87466D01*
X-138208Y-86897D01*
X-139073Y-86539D01*
X-140000Y-86417D01*
X-140927Y-86539D01*
X-141792Y-86897D01*
X-142534Y-87466D01*
X-142691Y-87670D01*
X-143191Y-87501D01*
Y-82499D01*
X-142691Y-82330D01*
X-142534Y-82534D01*
X-141792Y-83103D01*
X-140927Y-83461D01*
X-140000Y-83583D01*
X-139073Y-83461D01*
X-138208Y-83103D01*
X-137466Y-82534D01*
X-136897Y-81792D01*
X-136539Y-80927D01*
X-136417Y-80000D01*
X-136539Y-79073D01*
X-136858Y-78300D01*
X-132678Y-74120D01*
X-129263D01*
X-129126Y-74326D01*
X-128563Y-74701D01*
X-127900Y-74833D01*
X-127237Y-74701D01*
X-126674Y-74326D01*
X-126299Y-73763D01*
X-126167Y-73100D01*
X-126299Y-72437D01*
X-126674Y-71874D01*
X-126836Y-71767D01*
Y-71337D01*
X-126765Y-71212D01*
X-126399Y-70663D01*
X-126267Y-70000D01*
X-126399Y-69337D01*
X-126774Y-68774D01*
X-127009Y-68617D01*
Y-68016D01*
X-126874Y-67926D01*
X-126499Y-67363D01*
X-126367Y-66700D01*
X-126499Y-66037D01*
X-126874Y-65474D01*
X-127437Y-65099D01*
X-128100Y-64967D01*
X-128763Y-65099D01*
X-129326Y-65474D01*
X-129463Y-65680D01*
X-132878D01*
X-136858Y-61700D01*
X-136539Y-60927D01*
X-136417Y-60000D01*
X-136539Y-59073D01*
X-136897Y-58208D01*
X-137466Y-57466D01*
X-138208Y-56897D01*
X-139073Y-56539D01*
X-140000Y-56417D01*
X-140927Y-56539D01*
X-141792Y-56897D01*
X-142534Y-57466D01*
X-142691Y-57670D01*
X-143191Y-57501D01*
Y-52499D01*
X-142691Y-52330D01*
X-142534Y-52534D01*
X-141792Y-53103D01*
X-140927Y-53461D01*
X-140000Y-53583D01*
X-139073Y-53461D01*
X-138208Y-53103D01*
X-137466Y-52534D01*
X-136897Y-51792D01*
X-136539Y-50927D01*
X-136417Y-50000D01*
X-136539Y-49073D01*
X-136897Y-48208D01*
X-137466Y-47466D01*
X-138208Y-46897D01*
X-139073Y-46539D01*
X-140000Y-46417D01*
X-140927Y-46539D01*
X-141792Y-46897D01*
X-142534Y-47466D01*
X-142691Y-47670D01*
X-143191Y-47501D01*
Y-42499D01*
X-142691Y-42330D01*
X-142534Y-42534D01*
X-141792Y-43103D01*
X-140927Y-43461D01*
X-140000Y-43583D01*
X-139073Y-43461D01*
X-138208Y-43103D01*
X-137466Y-42534D01*
X-136897Y-41792D01*
X-136539Y-40927D01*
X-136417Y-40000D01*
X-136539Y-39073D01*
X-136897Y-38208D01*
X-137466Y-37466D01*
X-138208Y-36897D01*
X-139073Y-36539D01*
X-140000Y-36417D01*
X-140927Y-36539D01*
X-141792Y-36897D01*
X-142534Y-37466D01*
X-142691Y-37670D01*
X-143191Y-37501D01*
X-143191Y-32499D01*
X-142691Y-32330D01*
X-142534Y-32534D01*
X-141792Y-33103D01*
X-140927Y-33461D01*
X-140000Y-33583D01*
X-139073Y-33461D01*
X-138208Y-33103D01*
X-137466Y-32534D01*
X-136897Y-31792D01*
X-136539Y-30927D01*
X-136417Y-30000D01*
X-136539Y-29073D01*
X-136897Y-28208D01*
X-137466Y-27466D01*
X-138208Y-26897D01*
X-139073Y-26539D01*
X-140000Y-26417D01*
X-140927Y-26539D01*
X-141792Y-26897D01*
X-142534Y-27466D01*
X-142691Y-27670D01*
X-143191Y-27501D01*
Y-22499D01*
X-142691Y-22330D01*
X-142534Y-22534D01*
X-141792Y-23103D01*
X-140927Y-23461D01*
X-140000Y-23583D01*
X-139073Y-23461D01*
X-138208Y-23103D01*
X-137466Y-22534D01*
X-136897Y-21792D01*
X-136539Y-20927D01*
X-136417Y-20000D01*
X-136539Y-19073D01*
X-136897Y-18208D01*
X-137466Y-17466D01*
X-138208Y-16897D01*
X-139073Y-16539D01*
X-140000Y-16417D01*
X-140927Y-16539D01*
X-141792Y-16897D01*
X-142534Y-17466D01*
X-142691Y-17670D01*
X-143191Y-17501D01*
Y-13100D01*
X-142691Y-12918D01*
X-141993Y-13453D01*
X-141032Y-13851D01*
X-140750Y-13888D01*
Y-10000D01*
Y-6112D01*
X-141032Y-6149D01*
X-141993Y-6547D01*
X-142691Y-7082D01*
X-143191Y-6900D01*
Y-2499D01*
X-142691Y-2330D01*
X-142534Y-2534D01*
X-141792Y-3103D01*
X-140927Y-3461D01*
X-140000Y-3583D01*
X-139073Y-3461D01*
X-138208Y-3103D01*
X-137466Y-2534D01*
X-136897Y-1792D01*
X-136539Y-927D01*
X-136417Y0D01*
X-136539Y927D01*
X-136897Y1792D01*
X-137466Y2534D01*
X-137670Y2690D01*
X-137501Y3190D01*
X-70159D01*
X-69952Y2690D01*
D02*
G37*
G36*
X-47905Y2400D02*
X-47905Y2400D01*
X-43568Y2400D01*
X-38296Y-2873D01*
X-38238Y-3163D01*
X-37905Y-3661D01*
X-37905Y-6339D01*
X-38238Y-6837D01*
X-38370Y-7500D01*
X-38238Y-8163D01*
X-37905Y-8661D01*
Y-11339D01*
X-38238Y-11837D01*
X-38370Y-12500D01*
X-38238Y-13163D01*
X-37862Y-13726D01*
X-37300Y-14101D01*
X-36964Y-14168D01*
X-35732Y-15400D01*
X-9701Y-15400D01*
X-9408Y-15596D01*
X-8705Y-15735D01*
X-8003Y-15596D01*
X-7711Y-15400D01*
X3190Y-15400D01*
Y-24400D01*
X-22810D01*
X-23103Y-24204D01*
X-23806Y-24065D01*
X-24508Y-24204D01*
X-24801Y-24400D01*
X-39999D01*
X-46256Y-18143D01*
Y-15070D01*
Y-8600D01*
X-46352Y-8370D01*
X-46446Y-8141D01*
X-47197Y-7390D01*
X-47197Y-7390D01*
X-47197Y-7390D01*
X-47413Y-7301D01*
X-47506Y-7262D01*
Y-7200D01*
X-69705Y-7200D01*
X-70205Y-6700D01*
X-70205Y1519D01*
X-69324Y2400D01*
X-47905Y2400D01*
D02*
G37*
G36*
X-47656Y-7849D02*
X-46905Y-8600D01*
Y-15070D01*
D01*
Y-18412D01*
X-40268Y-25049D01*
X-25958D01*
X-25571Y-25549D01*
X-25641Y-25900D01*
X-25501Y-26602D01*
X-25103Y-27198D01*
X-24508Y-27596D01*
X-23806Y-27735D01*
X-23103Y-27596D01*
X-22508Y-27198D01*
X-22110Y-26602D01*
X-21970Y-25900D01*
X-22040Y-25549D01*
X-21653Y-25049D01*
X3190D01*
Y-34900D01*
X-24635D01*
X-25268Y-34817D01*
X-25902Y-34900D01*
X-34635D01*
X-35268Y-34817D01*
X-35902Y-34900D01*
X-51997D01*
X-68986Y-17911D01*
Y-17600D01*
Y-16587D01*
D01*
Y-7849D01*
X-47656Y-7849D01*
D02*
G37*
G36*
X3190Y-45954D02*
Y-54600D01*
X-6968Y-54600D01*
X-33712Y-81344D01*
X-34057Y-81574D01*
X-34288Y-81919D01*
X-34400Y-82032D01*
Y-82088D01*
X-34433Y-82137D01*
X-34565Y-82800D01*
X-34433Y-83463D01*
X-34400Y-83512D01*
X-34400Y-86935D01*
X-34401Y-86937D01*
X-34533Y-87600D01*
X-34401Y-88263D01*
X-34400Y-88265D01*
X-34400Y-91935D01*
X-34401Y-91937D01*
X-34533Y-92600D01*
X-34445Y-93045D01*
X-44300Y-102900D01*
X-60115Y-102900D01*
X-60156Y-102800D01*
X-65806Y-102800D01*
X-66706Y-101900D01*
X-66705Y-93682D01*
X-66124Y-93100D01*
X-50968D01*
X-50918Y-93049D01*
X-50768D01*
X-50309Y-92859D01*
X-43540Y-86090D01*
X-43540Y-86090D01*
X-43540D01*
X-43350Y-85631D01*
X-43350Y-85631D01*
X-43350Y-85631D01*
X-43350Y-83206D01*
X-43351Y-83205D01*
Y-78482D01*
X-10469Y-45600D01*
X2837Y-45600D01*
X3190Y-45954D01*
D02*
G37*
G36*
Y-55249D02*
Y-56900D01*
X2690Y-57082D01*
X1993Y-56547D01*
X1032Y-56149D01*
X750Y-56112D01*
Y-60000D01*
Y-63888D01*
X1032Y-63851D01*
X1993Y-63453D01*
X2690Y-62918D01*
X3190Y-63100D01*
Y-66900D01*
X2690Y-67082D01*
X1993Y-66547D01*
X1032Y-66149D01*
X750Y-66112D01*
Y-70000D01*
Y-73888D01*
X1032Y-73851D01*
X1993Y-73453D01*
X2690Y-72918D01*
X3190Y-73100D01*
X3190Y-77500D01*
X2690Y-77670D01*
X2534Y-77466D01*
X1792Y-76897D01*
X927Y-76539D01*
X0Y-76417D01*
X-927Y-76539D01*
X-1792Y-76897D01*
X-2534Y-77466D01*
X-3103Y-78208D01*
X-3461Y-79073D01*
X-3583Y-80000D01*
X-3461Y-80927D01*
X-3103Y-81792D01*
X-2534Y-82534D01*
X-1792Y-83103D01*
X-927Y-83461D01*
X0Y-83583D01*
X927Y-83461D01*
X1792Y-83103D01*
X2534Y-82534D01*
X2690Y-82330D01*
X3190Y-82499D01*
Y-87501D01*
X2690Y-87670D01*
X2534Y-87466D01*
X1792Y-86897D01*
X927Y-86539D01*
X0Y-86417D01*
X-927Y-86539D01*
X-1792Y-86897D01*
X-2534Y-87466D01*
X-3103Y-88208D01*
X-3461Y-89073D01*
X-3583Y-90000D01*
X-3461Y-90927D01*
X-3103Y-91792D01*
X-2534Y-92534D01*
X-1792Y-93103D01*
X-927Y-93461D01*
X0Y-93583D01*
X927Y-93461D01*
X1792Y-93103D01*
X2534Y-92534D01*
X2690Y-92330D01*
X3190Y-92500D01*
X3190Y-97500D01*
X2690Y-97670D01*
X2534Y-97466D01*
X1792Y-96897D01*
X927Y-96539D01*
X0Y-96417D01*
X-927Y-96539D01*
X-1792Y-96897D01*
X-2534Y-97466D01*
X-3103Y-98208D01*
X-3461Y-99073D01*
X-3583Y-100000D01*
X-3461Y-100927D01*
X-3103Y-101792D01*
X-2534Y-102534D01*
X-2330Y-102690D01*
X-2499Y-103190D01*
X-24785D01*
X-25052Y-102690D01*
X-24967Y-102563D01*
X-24835Y-101900D01*
X-24967Y-101237D01*
X-25343Y-100674D01*
X-25905Y-100299D01*
X-26568Y-100167D01*
X-27232Y-100299D01*
X-27794Y-100674D01*
X-28170Y-101237D01*
X-28302Y-101900D01*
X-28170Y-102563D01*
X-28085Y-102690D01*
X-28352Y-103190D01*
X-31189D01*
X-31425Y-102750D01*
X-31367Y-102663D01*
X-31235Y-102000D01*
X-31367Y-101337D01*
X-31743Y-100774D01*
X-32305Y-100399D01*
X-32968Y-100267D01*
X-33632Y-100399D01*
X-34194Y-100774D01*
X-34570Y-101337D01*
X-34702Y-102000D01*
X-34570Y-102663D01*
X-34512Y-102750D01*
X-34748Y-103190D01*
X-43019D01*
X-43210Y-102728D01*
X-34282Y-93800D01*
X-34026Y-93826D01*
X-33463Y-94201D01*
X-32800Y-94333D01*
X-32137Y-94201D01*
X-31574Y-93826D01*
X-31199Y-93263D01*
X-31067Y-92600D01*
X-31199Y-91937D01*
X-31574Y-91374D01*
X-32137Y-90999D01*
X-32800Y-90867D01*
X-33251Y-90956D01*
X-33751Y-90635D01*
X-33751Y-89565D01*
X-33251Y-89244D01*
X-32800Y-89333D01*
X-32137Y-89201D01*
X-31574Y-88826D01*
X-31199Y-88263D01*
X-31067Y-87600D01*
X-31199Y-86937D01*
X-31574Y-86374D01*
X-32137Y-85999D01*
X-32800Y-85867D01*
X-33251Y-85956D01*
X-33751Y-85635D01*
X-33751Y-84786D01*
X-33251Y-84450D01*
X-32832Y-84533D01*
X-32168Y-84401D01*
X-31606Y-84026D01*
X-31230Y-83463D01*
X-31098Y-82800D01*
X-31230Y-82137D01*
X-31606Y-81574D01*
X-32032Y-81289D01*
X-32176Y-80726D01*
X-6699Y-55249D01*
X3190Y-55249D01*
D02*
G37*
G36*
Y-44951D02*
X-10737D01*
X-44000Y-78213D01*
Y-83205D01*
X-44000Y-83206D01*
X-44000Y-85631D01*
X-50768Y-92400D01*
X-65664D01*
X-66706Y-91358D01*
X-66705Y-83681D01*
X-65824Y-82800D01*
X-65171D01*
D01*
X-61872D01*
X-14622Y-35549D01*
X3190D01*
X3190Y-44951D01*
D02*
G37*
%LPC*%
G36*
X-21279Y1535D02*
X-21982Y1396D01*
X-22577Y998D01*
X-22975Y402D01*
X-23115Y-300D01*
X-22975Y-1002D01*
X-22577Y-1598D01*
X-21982Y-1996D01*
X-21279Y-2135D01*
X-20577Y-1996D01*
X-19982Y-1598D01*
X-19584Y-1002D01*
X-19444Y-300D01*
X-19584Y402D01*
X-19982Y998D01*
X-20577Y1396D01*
X-21279Y1535D01*
D02*
G37*
G36*
X-30237Y-667D02*
X-30900Y-799D01*
X-31462Y-1174D01*
X-31838Y-1737D01*
X-31970Y-2400D01*
X-31838Y-3063D01*
X-31462Y-3626D01*
X-30900Y-4001D01*
X-30237Y-4133D01*
X-29574Y-4001D01*
X-29011Y-3626D01*
X-28635Y-3063D01*
X-28504Y-2400D01*
X-28635Y-1737D01*
X-29011Y-1174D01*
X-29574Y-799D01*
X-30237Y-667D01*
D02*
G37*
G36*
X-21279Y-2665D02*
X-21982Y-2804D01*
X-22577Y-3202D01*
X-22975Y-3798D01*
X-23115Y-4500D01*
X-22975Y-5202D01*
X-22577Y-5798D01*
X-21982Y-6196D01*
X-21279Y-6335D01*
X-20577Y-6196D01*
X-19982Y-5798D01*
X-19584Y-5202D01*
X-19444Y-4500D01*
X-19584Y-3798D01*
X-19982Y-3202D01*
X-20577Y-2804D01*
X-21279Y-2665D01*
D02*
G37*
G36*
X-30237Y-5667D02*
X-30900Y-5799D01*
X-31462Y-6174D01*
X-31838Y-6737D01*
X-31970Y-7400D01*
X-31838Y-8063D01*
X-31462Y-8626D01*
X-30900Y-9001D01*
X-30237Y-9133D01*
X-29574Y-9001D01*
X-29011Y-8626D01*
X-28635Y-8063D01*
X-28504Y-7400D01*
X-28635Y-6737D01*
X-29011Y-6174D01*
X-29574Y-5799D01*
X-30237Y-5667D01*
D02*
G37*
G36*
X-750Y-6112D02*
X-1032Y-6149D01*
X-1993Y-6547D01*
X-2819Y-7181D01*
X-3453Y-8007D01*
X-3851Y-8968D01*
X-3888Y-9250D01*
X-750D01*
Y-6112D01*
D02*
G37*
G36*
X-21279Y-7465D02*
X-21982Y-7604D01*
X-22577Y-8002D01*
X-22975Y-8598D01*
X-23115Y-9300D01*
X-22975Y-10002D01*
X-22577Y-10598D01*
X-21982Y-10995D01*
X-21279Y-11135D01*
X-20577Y-10995D01*
X-19982Y-10598D01*
X-19584Y-10002D01*
X-19444Y-9300D01*
X-19584Y-8598D01*
X-19982Y-8002D01*
X-20577Y-7604D01*
X-21279Y-7465D01*
D02*
G37*
G36*
X-750Y-10750D02*
X-3888D01*
X-3851Y-11032D01*
X-3453Y-11993D01*
X-2819Y-12819D01*
X-1993Y-13453D01*
X-1032Y-13851D01*
X-750Y-13888D01*
Y-10750D01*
D02*
G37*
G36*
X-30237Y-10667D02*
X-30900Y-10799D01*
X-31462Y-11174D01*
X-31838Y-11737D01*
X-31970Y-12400D01*
X-31838Y-13063D01*
X-31462Y-13626D01*
X-30900Y-14001D01*
X-30237Y-14133D01*
X-29574Y-14001D01*
X-29011Y-13626D01*
X-28635Y-13063D01*
X-28504Y-12400D01*
X-28635Y-11737D01*
X-29011Y-11174D01*
X-29574Y-10799D01*
X-30237Y-10667D01*
D02*
G37*
G36*
X-139250Y-6112D02*
Y-9250D01*
X-136112D01*
X-136149Y-8968D01*
X-136547Y-8007D01*
X-137181Y-7181D01*
X-138007Y-6547D01*
X-138968Y-6149D01*
X-139250Y-6112D01*
D02*
G37*
G36*
X-136112Y-10750D02*
X-139250D01*
Y-13888D01*
X-138968Y-13851D01*
X-138007Y-13453D01*
X-137181Y-12819D01*
X-136547Y-11993D01*
X-136149Y-11032D01*
X-136112Y-10750D01*
D02*
G37*
G36*
X-126400Y-12067D02*
X-127063Y-12199D01*
X-127626Y-12574D01*
X-128001Y-13137D01*
X-128133Y-13800D01*
X-128001Y-14463D01*
X-127626Y-15026D01*
X-127063Y-15401D01*
X-126400Y-15533D01*
X-125737Y-15401D01*
X-125174Y-15026D01*
X-124799Y-14463D01*
X-124667Y-13800D01*
X-124799Y-13137D01*
X-125174Y-12574D01*
X-125737Y-12199D01*
X-126400Y-12067D01*
D02*
G37*
G36*
X-78405Y-14867D02*
X-79069Y-14999D01*
X-79631Y-15374D01*
X-80007Y-15937D01*
X-80139Y-16600D01*
X-80090Y-16843D01*
X-85627Y-22379D01*
X-85848Y-22710D01*
X-85925Y-23100D01*
Y-38737D01*
X-86131Y-38874D01*
X-86507Y-39437D01*
X-86639Y-40100D01*
X-86507Y-40763D01*
X-86131Y-41326D01*
X-85569Y-41701D01*
X-84905Y-41833D01*
X-84242Y-41701D01*
X-83680Y-41326D01*
X-83304Y-40763D01*
X-83172Y-40100D01*
X-83304Y-39437D01*
X-83680Y-38874D01*
X-83886Y-38737D01*
Y-23522D01*
X-78649Y-18285D01*
X-78405Y-18333D01*
X-77742Y-18201D01*
X-77180Y-17826D01*
X-76804Y-17263D01*
X-76672Y-16600D01*
X-76804Y-15937D01*
X-77180Y-15374D01*
X-77742Y-14999D01*
X-78405Y-14867D01*
D02*
G37*
G36*
X-91505Y-25761D02*
X-92286Y-25916D01*
X-92947Y-26358D01*
X-93389Y-27020D01*
X-93545Y-27800D01*
X-93389Y-28580D01*
X-92947Y-29242D01*
X-92286Y-29684D01*
X-91505Y-29839D01*
X-90725Y-29684D01*
X-90064Y-29242D01*
X-89622Y-28580D01*
X-89466Y-27800D01*
X-89622Y-27020D01*
X-90064Y-26358D01*
X-90725Y-25916D01*
X-91505Y-25761D01*
D02*
G37*
G36*
X-21380Y-39150D02*
X-24518D01*
Y-42288D01*
X-24237Y-42251D01*
X-23275Y-41853D01*
X-22449Y-41219D01*
X-21816Y-40393D01*
X-21417Y-39432D01*
X-21380Y-39150D01*
D02*
G37*
G36*
X-26018D02*
X-29157D01*
X-29119Y-39432D01*
X-28721Y-40393D01*
X-28087Y-41219D01*
X-27262Y-41853D01*
X-26300Y-42251D01*
X-26018Y-42288D01*
Y-39150D01*
D02*
G37*
G36*
X-122800Y-55267D02*
X-123463Y-55399D01*
X-124026Y-55774D01*
X-124401Y-56337D01*
X-124533Y-57000D01*
X-124401Y-57663D01*
X-124026Y-58226D01*
X-123463Y-58601D01*
X-122800Y-58733D01*
X-122137Y-58601D01*
X-121574Y-58226D01*
X-121199Y-57663D01*
X-121067Y-57000D01*
X-121199Y-56337D01*
X-121574Y-55774D01*
X-122137Y-55399D01*
X-122800Y-55267D01*
D02*
G37*
G36*
X-92106Y-67361D02*
X-92886Y-67516D01*
X-93547Y-67958D01*
X-93989Y-68620D01*
X-94145Y-69400D01*
X-93989Y-70180D01*
X-93547Y-70842D01*
X-92886Y-71284D01*
X-92106Y-71439D01*
X-91325Y-71284D01*
X-90664Y-70842D01*
X-90222Y-70180D01*
X-90066Y-69400D01*
X-90222Y-68620D01*
X-90664Y-67958D01*
X-91325Y-67516D01*
X-92106Y-67361D01*
D02*
G37*
G36*
X-115900Y-76867D02*
X-116563Y-76999D01*
X-117126Y-77374D01*
X-117501Y-77937D01*
X-117633Y-78600D01*
X-117501Y-79263D01*
X-117126Y-79826D01*
X-116563Y-80201D01*
X-115900Y-80333D01*
X-115237Y-80201D01*
X-114674Y-79826D01*
X-114299Y-79263D01*
X-114167Y-78600D01*
X-114299Y-77937D01*
X-114674Y-77374D01*
X-115237Y-76999D01*
X-115900Y-76867D01*
D02*
G37*
G36*
X-750Y-56112D02*
X-1032Y-56149D01*
X-1993Y-56547D01*
X-2819Y-57181D01*
X-3453Y-58007D01*
X-3851Y-58968D01*
X-3888Y-59250D01*
X-750D01*
Y-56112D01*
D02*
G37*
G36*
Y-60750D02*
X-3888D01*
X-3851Y-61032D01*
X-3453Y-61993D01*
X-2819Y-62819D01*
X-1993Y-63453D01*
X-1032Y-63851D01*
X-750Y-63888D01*
Y-60750D01*
D02*
G37*
G36*
Y-66112D02*
X-1032Y-66149D01*
X-1993Y-66547D01*
X-2819Y-67181D01*
X-3453Y-68007D01*
X-3851Y-68968D01*
X-3888Y-69250D01*
X-750D01*
Y-66112D01*
D02*
G37*
G36*
Y-70750D02*
X-3888D01*
X-3851Y-71032D01*
X-3453Y-71993D01*
X-2819Y-72819D01*
X-1993Y-73453D01*
X-1032Y-73851D01*
X-750Y-73888D01*
Y-70750D01*
D02*
G37*
G36*
X-26432Y-80967D02*
X-27095Y-81099D01*
X-27657Y-81474D01*
X-28033Y-82037D01*
X-28165Y-82700D01*
X-28033Y-83363D01*
X-27657Y-83926D01*
X-27095Y-84301D01*
X-26432Y-84433D01*
X-25768Y-84301D01*
X-25206Y-83926D01*
X-24830Y-83363D01*
X-24698Y-82700D01*
X-24830Y-82037D01*
X-25206Y-81474D01*
X-25768Y-81099D01*
X-26432Y-80967D01*
D02*
G37*
G36*
X-26400Y-85767D02*
X-27063Y-85899D01*
X-27626Y-86274D01*
X-28001Y-86837D01*
X-28133Y-87500D01*
X-28001Y-88163D01*
X-27626Y-88726D01*
X-27063Y-89101D01*
X-26400Y-89233D01*
X-25737Y-89101D01*
X-25174Y-88726D01*
X-24799Y-88163D01*
X-24667Y-87500D01*
X-24799Y-86837D01*
X-25174Y-86274D01*
X-25737Y-85899D01*
X-26400Y-85767D01*
D02*
G37*
G36*
Y-90767D02*
X-27063Y-90899D01*
X-27626Y-91274D01*
X-28001Y-91837D01*
X-28133Y-92500D01*
X-28001Y-93163D01*
X-27626Y-93726D01*
X-27063Y-94101D01*
X-26400Y-94233D01*
X-25737Y-94101D01*
X-25174Y-93726D01*
X-24799Y-93163D01*
X-24667Y-92500D01*
X-24799Y-91837D01*
X-25174Y-91274D01*
X-25737Y-90899D01*
X-26400Y-90767D01*
D02*
G37*
G36*
Y-95767D02*
X-27063Y-95899D01*
X-27626Y-96274D01*
X-28001Y-96837D01*
X-28133Y-97500D01*
X-28001Y-98163D01*
X-27626Y-98726D01*
X-27063Y-99101D01*
X-26400Y-99233D01*
X-25737Y-99101D01*
X-25174Y-98726D01*
X-24799Y-98163D01*
X-24667Y-97500D01*
X-24799Y-96837D01*
X-25174Y-96274D01*
X-25737Y-95899D01*
X-26400Y-95767D01*
D02*
G37*
G36*
X-32800Y-95867D02*
X-33463Y-95999D01*
X-34026Y-96374D01*
X-34401Y-96937D01*
X-34533Y-97600D01*
X-34401Y-98263D01*
X-34026Y-98826D01*
X-33463Y-99201D01*
X-32800Y-99333D01*
X-32137Y-99201D01*
X-31574Y-98826D01*
X-31199Y-98263D01*
X-31067Y-97600D01*
X-31199Y-96937D01*
X-31574Y-96374D01*
X-32137Y-95999D01*
X-32800Y-95867D01*
D02*
G37*
%LPD*%
D38*
X-109700Y-61582D02*
X-108482Y-62800D01*
X-109700Y-61582D02*
Y-58579D01*
X-108482Y-62800D02*
X-52600D01*
X-83800Y-64900D02*
Y-64794D01*
X-83700Y-64694D01*
X-83605Y-64600D01*
X-87300Y-64400D02*
X-83800Y-67900D01*
X-64100D01*
X-83605Y-64600D02*
X-82406Y-65800D01*
X-76265Y-41897D02*
X-66768Y-32400D01*
X-77000Y-41897D02*
X-76265D01*
X-107550Y-60750D02*
X-54550D01*
X-54500Y-60700D01*
X-61100Y-64900D02*
X-50700D01*
X-50500Y-64700D01*
X-112295Y-40421D02*
X-100574Y-28700D01*
X-112295Y-67486D02*
Y-40421D01*
X-113695Y-39025D02*
X-101270Y-26600D01*
X-113695Y-69056D02*
Y-39025D01*
X-112295Y-67486D02*
X-96905Y-82876D01*
X-113695Y-69056D02*
X-99705Y-83046D01*
X-101270Y-26600D02*
X-99130D01*
X-107550Y-60750D02*
X-107500Y-60700D01*
X-110000Y-64400D02*
X-87300D01*
X-100574Y-28700D02*
X-100400D01*
X-99130Y-26600D02*
X-98000Y-27730D01*
X-97600Y-28900D02*
Y-28521D01*
X-98000Y-28121D02*
X-97600Y-28521D01*
X-98000Y-28121D02*
Y-27730D01*
X-133100Y-73100D02*
X-127900D01*
X-140000Y-80000D02*
X-133100Y-73100D01*
X-133300Y-66700D02*
X-128100D01*
X-140000Y-60000D02*
X-133300Y-66700D01*
X-64100Y-67900D02*
X-61100Y-64900D01*
X-109700Y-58579D02*
X-109300Y-58179D01*
Y-57800D01*
X-82406Y-65800D02*
X-65700D01*
X-68200Y-91169D02*
Y-70600D01*
X-68268Y-91237D02*
X-68200Y-91169D01*
X-68268Y-91237D02*
X-64406Y-95100D01*
X-140000Y-70000D02*
X-128000D01*
X-66768Y-32400D02*
Y-26400D01*
X-64500Y-36154D02*
Y-24280D01*
X-70006Y-18774D02*
X-64500Y-24280D01*
X-96905Y-83100D02*
Y-82876D01*
X-84905Y-40100D02*
Y-23100D01*
X-78405Y-16600D01*
X-70006Y-18774D02*
Y-7000D01*
X-67905Y-4900D01*
D42*
X0Y-50000D02*
D03*
Y-40000D02*
D03*
Y-30000D02*
D03*
Y-20000D02*
D03*
D43*
X-140000Y-60000D02*
D03*
Y-100000D02*
D03*
Y-90000D02*
D03*
Y-80000D02*
D03*
Y-70000D02*
D03*
Y-20000D02*
D03*
Y-30000D02*
D03*
Y-40000D02*
D03*
Y-50000D02*
D03*
X0Y-80000D02*
D03*
Y-100000D02*
D03*
Y-90000D02*
D03*
X-140000Y0D02*
D03*
Y-10000D02*
D03*
X0Y0D02*
D03*
Y-10000D02*
D03*
Y-60000D02*
D03*
Y-70000D02*
D03*
X-35268Y-38400D02*
D03*
X-25268D02*
D03*
D44*
X-83800Y-64900D02*
D03*
X-77000Y-41897D02*
D03*
X-54500Y-60700D02*
D03*
X-52600Y-62800D02*
D03*
X-50500Y-64700D02*
D03*
X-107500Y-60700D02*
D03*
X-100400Y-28700D02*
D03*
X-100100Y-23600D02*
D03*
X-97600Y-28900D02*
D03*
X-30237Y-12400D02*
D03*
Y-7400D02*
D03*
Y-2400D02*
D03*
X-36637Y-2500D02*
D03*
Y-7500D02*
D03*
Y-12500D02*
D03*
X-30068Y2000D02*
D03*
X-36468Y1900D02*
D03*
X-26568Y-101900D02*
D03*
X-32968Y-102000D02*
D03*
X-32832Y-82800D02*
D03*
X-26432Y-82700D02*
D03*
X-127900Y-73100D02*
D03*
X-128100Y-66700D02*
D03*
X-126400Y-13800D02*
D03*
X-122800Y-57000D02*
D03*
X-65700Y-65800D02*
D03*
X-109300Y-57800D02*
D03*
X-68200Y-70600D02*
D03*
X-128000Y-70000D02*
D03*
X-115900Y-78600D02*
D03*
X-66768Y-26400D02*
D03*
X-64500Y-36154D02*
D03*
X-84905Y-40100D02*
D03*
X-78405Y-16600D02*
D03*
X-100000Y-18300D02*
D03*
X-99705Y-83046D02*
D03*
X-96905Y-83100D02*
D03*
X-85905Y-17700D02*
D03*
X-67905Y-9900D02*
D03*
Y-14900D02*
D03*
X-58631D02*
D03*
Y-9900D02*
D03*
Y-4900D02*
D03*
Y100D02*
D03*
X-67905D02*
D03*
Y-4900D02*
D03*
X-49244Y-14900D02*
D03*
Y-9900D02*
D03*
X-49301Y100D02*
D03*
X-45801Y-85100D02*
D03*
X-45744Y-95100D02*
D03*
X-64406Y-90100D02*
D03*
Y-85100D02*
D03*
X-55131D02*
D03*
Y-90100D02*
D03*
Y-95100D02*
D03*
Y-100100D02*
D03*
X-64406D02*
D03*
Y-95100D02*
D03*
X-26400Y-87500D02*
D03*
Y-92500D02*
D03*
Y-97500D02*
D03*
X-32800Y-97600D02*
D03*
Y-92600D02*
D03*
Y-87600D02*
D03*
D45*
X-141800Y-24800D02*
D03*
X-130300Y-34800D02*
D03*
X-141500Y-84800D02*
D03*
X-130400Y-46400D02*
D03*
X-73700Y-8200D02*
D03*
X-71200Y-88000D02*
D03*
X-72800Y1500D02*
D03*
X-40200Y1900D02*
D03*
X-37700Y-101900D02*
D03*
X-71200Y-100000D02*
D03*
X-49500Y-67600D02*
D03*
X-124700Y-75400D02*
D03*
X-126000Y-4000D02*
D03*
X-29877Y-42473D02*
D03*
X-33627Y-49973D02*
D03*
X-44877Y-42473D02*
D03*
X-41127Y-49973D02*
D03*
X-44877Y-57473D02*
D03*
X-52377Y-42473D02*
D03*
X-48627Y-49973D02*
D03*
X-59877Y-42473D02*
D03*
X-56127Y-49973D02*
D03*
X-63627D02*
D03*
X-7700Y-100100D02*
D03*
X-16100Y-78500D02*
D03*
X-20800Y-101200D02*
D03*
X-134400Y-101300D02*
D03*
X-110000Y-64400D02*
D03*
X-115900D02*
D03*
D46*
X-92711Y-40125D02*
D03*
X-88380D02*
D03*
X-105703Y-57448D02*
D03*
X-97042D02*
D03*
X-92711D02*
D03*
X-88380D02*
D03*
X-101372D02*
D03*
X-88380Y-44456D02*
D03*
Y-48787D02*
D03*
Y-53117D02*
D03*
X-92711Y-44456D02*
D03*
Y-48787D02*
D03*
Y-53117D02*
D03*
X-97042Y-40125D02*
D03*
Y-44456D02*
D03*
Y-48787D02*
D03*
Y-53117D02*
D03*
X-101372Y-40125D02*
D03*
Y-44456D02*
D03*
Y-48787D02*
D03*
Y-53117D02*
D03*
X-105703Y-40125D02*
D03*
Y-44456D02*
D03*
Y-48787D02*
D03*
Y-53117D02*
D03*
D47*
X-110500Y-81500D02*
D03*
X-92567Y-80546D02*
D03*
X-111805Y-87700D02*
D03*
X-109306Y-17200D02*
D03*
X-23806Y-25900D02*
D03*
X-8705Y-700D02*
D03*
Y-4900D02*
D03*
X-8705Y-13900D02*
D03*
Y-9700D02*
D03*
X-108400Y-28100D02*
D03*
X-119600Y-32000D02*
D03*
X-21279Y-9300D02*
D03*
Y-13500D02*
D03*
X-21279Y-4500D02*
D03*
Y-300D02*
D03*
X-72700Y-27000D02*
D03*
X-78268Y-12400D02*
D03*
D48*
X-92106Y-69400D02*
D03*
X-123200Y-51200D02*
D03*
X-91505Y-27800D02*
D03*
X-108405Y-500D02*
D03*
Y-5500D02*
D03*
X-112406D02*
D03*
Y-500D02*
D03*
X-108905Y-95100D02*
D03*
Y-100100D02*
D03*
X-104905D02*
D03*
Y-95100D02*
D03*
M02*
