G04*
G04 #@! TF.GenerationSoftware,Altium Limited,Altium Designer,18.0.11 (651)*
G04*
G04 Layer_Physical_Order=3*
G04 Layer_Color=16440176*
%FSLAX25Y25*%
%MOIN*%
G70*
G01*
G75*
%ADD40C,0.01000*%
%ADD41C,0.02000*%
%ADD43C,0.05906*%
%ADD44C,0.02200*%
%ADD45C,0.02410*%
%ADD46C,0.01968*%
%ADD47C,0.02400*%
%ADD48C,0.02800*%
%ADD49C,0.02500*%
G36*
X-81749Y-25914D02*
X-90737D01*
X-91505Y-25761D01*
X-92286Y-25916D01*
X-92947Y-26358D01*
X-93389Y-27020D01*
X-93545Y-27800D01*
X-93389Y-28580D01*
X-92947Y-29242D01*
X-92286Y-29684D01*
X-91505Y-29839D01*
X-90737Y-29686D01*
X-81749D01*
X-81749Y-63668D01*
X-82249Y-63819D01*
X-82480Y-63474D01*
X-83042Y-63099D01*
X-83706Y-62967D01*
X-84369Y-63099D01*
X-84931Y-63474D01*
X-85307Y-64037D01*
X-85439Y-64700D01*
X-85307Y-65363D01*
X-84931Y-65926D01*
X-84369Y-66301D01*
X-83706Y-66433D01*
X-83042Y-66301D01*
X-82480Y-65926D01*
X-82249Y-65581D01*
X-81749Y-65732D01*
Y-67514D01*
X-91337D01*
X-92106Y-67361D01*
X-92886Y-67516D01*
X-93547Y-67958D01*
X-93989Y-68620D01*
X-94145Y-69400D01*
X-93989Y-70180D01*
X-93547Y-70842D01*
X-92886Y-71284D01*
X-92106Y-71439D01*
X-91337Y-71286D01*
X-81749D01*
X-81749Y-103190D01*
X-137501D01*
X-137670Y-102690D01*
X-137466Y-102534D01*
X-136897Y-101792D01*
X-136539Y-100927D01*
X-136417Y-100000D01*
X-136539Y-99073D01*
X-136897Y-98208D01*
X-137466Y-97466D01*
X-138208Y-96897D01*
X-139073Y-96539D01*
X-140000Y-96417D01*
X-140927Y-96539D01*
X-141792Y-96897D01*
X-142534Y-97466D01*
X-142691Y-97670D01*
X-143191Y-97500D01*
Y-92500D01*
X-142691Y-92330D01*
X-142534Y-92534D01*
X-141792Y-93103D01*
X-140927Y-93461D01*
X-140000Y-93583D01*
X-139073Y-93461D01*
X-138208Y-93103D01*
X-137466Y-92534D01*
X-136897Y-91792D01*
X-136539Y-90927D01*
X-136417Y-90000D01*
X-136539Y-89073D01*
X-136897Y-88208D01*
X-137466Y-87466D01*
X-138208Y-86897D01*
X-139073Y-86539D01*
X-140000Y-86417D01*
X-140927Y-86539D01*
X-141792Y-86897D01*
X-142534Y-87466D01*
X-142691Y-87670D01*
X-143191Y-87501D01*
Y-82499D01*
X-142691Y-82330D01*
X-142534Y-82534D01*
X-141792Y-83103D01*
X-140927Y-83461D01*
X-140000Y-83583D01*
X-139073Y-83461D01*
X-138208Y-83103D01*
X-137466Y-82534D01*
X-136897Y-81792D01*
X-136539Y-80927D01*
X-136417Y-80000D01*
X-136539Y-79073D01*
X-136897Y-78208D01*
X-137466Y-77466D01*
X-138208Y-76897D01*
X-139073Y-76539D01*
X-140000Y-76417D01*
X-140927Y-76539D01*
X-141792Y-76897D01*
X-142534Y-77466D01*
X-142691Y-77670D01*
X-143191Y-77500D01*
Y-72499D01*
X-142691Y-72330D01*
X-142534Y-72534D01*
X-141792Y-73103D01*
X-140927Y-73461D01*
X-140000Y-73583D01*
X-139073Y-73461D01*
X-138208Y-73103D01*
X-137466Y-72534D01*
X-136897Y-71792D01*
X-136539Y-70927D01*
X-136417Y-70000D01*
X-136539Y-69073D01*
X-136897Y-68208D01*
X-137466Y-67466D01*
X-138208Y-66897D01*
X-139073Y-66539D01*
X-140000Y-66417D01*
X-140927Y-66539D01*
X-141792Y-66897D01*
X-142534Y-67466D01*
X-142691Y-67670D01*
X-143191Y-67501D01*
X-143191Y-62499D01*
X-142691Y-62330D01*
X-142534Y-62534D01*
X-141792Y-63103D01*
X-140927Y-63461D01*
X-140000Y-63583D01*
X-139073Y-63461D01*
X-138208Y-63103D01*
X-137466Y-62534D01*
X-136897Y-61792D01*
X-136539Y-60927D01*
X-136417Y-60000D01*
X-136539Y-59073D01*
X-136897Y-58208D01*
X-137466Y-57466D01*
X-138208Y-56897D01*
X-139073Y-56539D01*
X-140000Y-56417D01*
X-140927Y-56539D01*
X-141792Y-56897D01*
X-142534Y-57466D01*
X-142691Y-57670D01*
X-143191Y-57501D01*
Y-52499D01*
X-142691Y-52330D01*
X-142534Y-52534D01*
X-141792Y-53103D01*
X-140927Y-53461D01*
X-140000Y-53583D01*
X-139073Y-53461D01*
X-138208Y-53103D01*
X-137466Y-52534D01*
X-136897Y-51792D01*
X-136539Y-50927D01*
X-136417Y-50000D01*
X-136539Y-49073D01*
X-136897Y-48208D01*
X-137466Y-47466D01*
X-138208Y-46897D01*
X-139073Y-46539D01*
X-140000Y-46417D01*
X-140927Y-46539D01*
X-141792Y-46897D01*
X-142534Y-47466D01*
X-142691Y-47670D01*
X-143191Y-47501D01*
Y-42499D01*
X-142691Y-42330D01*
X-142534Y-42534D01*
X-141792Y-43103D01*
X-140927Y-43461D01*
X-140000Y-43583D01*
X-139073Y-43461D01*
X-138208Y-43103D01*
X-137466Y-42534D01*
X-136897Y-41792D01*
X-136539Y-40927D01*
X-136417Y-40000D01*
X-136539Y-39073D01*
X-136897Y-38208D01*
X-137466Y-37466D01*
X-138208Y-36897D01*
X-139073Y-36539D01*
X-140000Y-36417D01*
X-140927Y-36539D01*
X-141792Y-36897D01*
X-142534Y-37466D01*
X-142691Y-37670D01*
X-143191Y-37501D01*
X-143191Y-32499D01*
X-142691Y-32330D01*
X-142534Y-32534D01*
X-141792Y-33103D01*
X-140927Y-33461D01*
X-140000Y-33583D01*
X-139073Y-33461D01*
X-138208Y-33103D01*
X-137466Y-32534D01*
X-136897Y-31792D01*
X-136539Y-30927D01*
X-136417Y-30000D01*
X-136539Y-29073D01*
X-136897Y-28208D01*
X-137466Y-27466D01*
X-138208Y-26897D01*
X-139073Y-26539D01*
X-140000Y-26417D01*
X-140927Y-26539D01*
X-141792Y-26897D01*
X-142534Y-27466D01*
X-142691Y-27670D01*
X-143191Y-27501D01*
Y-22499D01*
X-142691Y-22330D01*
X-142534Y-22534D01*
X-141792Y-23103D01*
X-140927Y-23461D01*
X-140000Y-23583D01*
X-139073Y-23461D01*
X-138208Y-23103D01*
X-137466Y-22534D01*
X-136897Y-21792D01*
X-136539Y-20927D01*
X-136417Y-20000D01*
X-136539Y-19073D01*
X-136897Y-18208D01*
X-137466Y-17466D01*
X-138208Y-16897D01*
X-139073Y-16539D01*
X-140000Y-16417D01*
X-140927Y-16539D01*
X-141792Y-16897D01*
X-142534Y-17466D01*
X-142691Y-17670D01*
X-143191Y-17501D01*
Y-13100D01*
X-142691Y-12918D01*
X-141993Y-13453D01*
X-141032Y-13851D01*
X-140750Y-13888D01*
Y-10000D01*
X-140000D01*
D01*
X-140750D01*
Y-6112D01*
X-141032Y-6149D01*
X-141993Y-6547D01*
X-142691Y-7082D01*
X-143191Y-6900D01*
Y-2499D01*
X-142691Y-2330D01*
X-142534Y-2534D01*
X-141792Y-3103D01*
X-140927Y-3461D01*
X-140000Y-3583D01*
X-139073Y-3461D01*
X-138208Y-3103D01*
X-137466Y-2534D01*
X-136970Y-1887D01*
X-136577Y-1818D01*
X-136373Y-1834D01*
X-128031Y-10176D01*
Y-13287D01*
X-128133Y-13800D01*
X-128031Y-14312D01*
Y-53400D01*
X-127907Y-54024D01*
X-127553Y-54554D01*
X-124316Y-57791D01*
X-124026Y-58226D01*
X-123463Y-58601D01*
X-122800Y-58733D01*
X-122137Y-58601D01*
X-121574Y-58226D01*
X-121199Y-57663D01*
X-121067Y-57000D01*
X-121199Y-56337D01*
X-121574Y-55774D01*
X-122009Y-55484D01*
X-124769Y-52724D01*
Y-14312D01*
X-124667Y-13800D01*
X-124769Y-13287D01*
Y-9500D01*
X-124893Y-8876D01*
X-125247Y-8347D01*
X-134747Y1154D01*
X-135276Y1507D01*
X-135900Y1631D01*
X-136830D01*
X-136897Y1792D01*
X-137466Y2534D01*
X-137670Y2690D01*
X-137501Y3190D01*
X-81749D01*
X-81749Y-25914D01*
D02*
G37*
G36*
X1887Y3053D02*
X2586Y2586D01*
X3053Y1887D01*
X3204Y1129D01*
X3190Y1063D01*
X3190Y-7501D01*
X2691Y-7670D01*
X2534Y-7466D01*
X1792Y-6897D01*
X927Y-6539D01*
X0Y-6417D01*
X-927Y-6539D01*
X-1792Y-6897D01*
X-2534Y-7466D01*
X-3103Y-8208D01*
X-3461Y-9072D01*
X-3583Y-10000D01*
X-3461Y-10927D01*
X-3103Y-11792D01*
X-2534Y-12534D01*
X-1792Y-13103D01*
X-927Y-13461D01*
X0Y-13583D01*
X927Y-13461D01*
X1792Y-13103D01*
X2534Y-12534D01*
X2691Y-12330D01*
X3190Y-12500D01*
Y-17221D01*
X2717Y-17381D01*
X2674Y-17326D01*
X1891Y-16725D01*
X979Y-16347D01*
X0Y-16218D01*
X-979Y-16347D01*
X-1891Y-16725D01*
X-2674Y-17326D01*
X-3275Y-18109D01*
X-3653Y-19021D01*
X-3782Y-20000D01*
X-3653Y-20979D01*
X-3275Y-21891D01*
X-2674Y-22674D01*
X-1891Y-23275D01*
X-979Y-23653D01*
X0Y-23782D01*
X979Y-23653D01*
X1891Y-23275D01*
X2674Y-22674D01*
X2717Y-22618D01*
X3190Y-22779D01*
X3190Y-27221D01*
X2717Y-27382D01*
X2674Y-27326D01*
X1891Y-26725D01*
X979Y-26347D01*
X0Y-26218D01*
X-979Y-26347D01*
X-1891Y-26725D01*
X-2674Y-27326D01*
X-3275Y-28109D01*
X-3653Y-29021D01*
X-3782Y-30000D01*
X-3653Y-30979D01*
X-3275Y-31891D01*
X-2674Y-32674D01*
X-1891Y-33275D01*
X-979Y-33653D01*
X0Y-33782D01*
X979Y-33653D01*
X1891Y-33275D01*
X2674Y-32674D01*
X2717Y-32618D01*
X3190Y-32779D01*
Y-37221D01*
X2717Y-37382D01*
X2674Y-37326D01*
X1891Y-36725D01*
X979Y-36347D01*
X0Y-36218D01*
X-979Y-36347D01*
X-1891Y-36725D01*
X-2674Y-37326D01*
X-3275Y-38109D01*
X-3653Y-39021D01*
X-3782Y-40000D01*
X-3653Y-40979D01*
X-3275Y-41891D01*
X-2674Y-42674D01*
X-1891Y-43275D01*
X-979Y-43653D01*
X0Y-43782D01*
X979Y-43653D01*
X1891Y-43275D01*
X2674Y-42674D01*
X2717Y-42619D01*
X3190Y-42779D01*
Y-47221D01*
X2717Y-47381D01*
X2674Y-47326D01*
X1891Y-46725D01*
X979Y-46347D01*
X0Y-46218D01*
X-979Y-46347D01*
X-1891Y-46725D01*
X-2674Y-47326D01*
X-3275Y-48109D01*
X-3653Y-49021D01*
X-3782Y-50000D01*
X-3653Y-50979D01*
X-3275Y-51891D01*
X-2674Y-52674D01*
X-1891Y-53275D01*
X-979Y-53653D01*
X0Y-53782D01*
X979Y-53653D01*
X1891Y-53275D01*
X2674Y-52674D01*
X2717Y-52619D01*
X3190Y-52779D01*
Y-57500D01*
X2690Y-57670D01*
X2534Y-57466D01*
X1792Y-56897D01*
X927Y-56539D01*
X0Y-56417D01*
X-927Y-56539D01*
X-1792Y-56897D01*
X-2534Y-57466D01*
X-3103Y-58208D01*
X-3461Y-59073D01*
X-3583Y-60000D01*
X-3461Y-60927D01*
X-3103Y-61792D01*
X-2534Y-62534D01*
X-1792Y-63103D01*
X-927Y-63461D01*
X0Y-63583D01*
X927Y-63461D01*
X1792Y-63103D01*
X2534Y-62534D01*
X2690Y-62330D01*
X3190Y-62499D01*
Y-67501D01*
X2690Y-67670D01*
X2534Y-67466D01*
X1792Y-66897D01*
X927Y-66539D01*
X0Y-66417D01*
X-927Y-66539D01*
X-1792Y-66897D01*
X-2534Y-67466D01*
X-3103Y-68208D01*
X-3461Y-69073D01*
X-3583Y-70000D01*
X-3461Y-70927D01*
X-3103Y-71792D01*
X-2534Y-72534D01*
X-1792Y-73103D01*
X-927Y-73461D01*
X0Y-73583D01*
X927Y-73461D01*
X1792Y-73103D01*
X2534Y-72534D01*
X2690Y-72330D01*
X3190Y-72500D01*
X3190Y-77500D01*
X2690Y-77670D01*
X2534Y-77466D01*
X1792Y-76897D01*
X927Y-76539D01*
X0Y-76417D01*
X-927Y-76539D01*
X-1792Y-76897D01*
X-2534Y-77466D01*
X-3103Y-78208D01*
X-3461Y-79073D01*
X-3583Y-80000D01*
X-3461Y-80927D01*
X-3103Y-81792D01*
X-2534Y-82534D01*
X-1792Y-83103D01*
X-927Y-83461D01*
X0Y-83583D01*
X927Y-83461D01*
X1792Y-83103D01*
X2534Y-82534D01*
X2690Y-82330D01*
X3190Y-82499D01*
Y-87501D01*
X2690Y-87670D01*
X2534Y-87466D01*
X1792Y-86897D01*
X927Y-86539D01*
X0Y-86417D01*
X-927Y-86539D01*
X-1792Y-86897D01*
X-2534Y-87466D01*
X-3103Y-88208D01*
X-3461Y-89073D01*
X-3583Y-90000D01*
X-3461Y-90927D01*
X-3103Y-91792D01*
X-2534Y-92534D01*
X-1792Y-93103D01*
X-927Y-93461D01*
X0Y-93583D01*
X927Y-93461D01*
X1792Y-93103D01*
X2534Y-92534D01*
X2690Y-92330D01*
X3190Y-92500D01*
X3190Y-97500D01*
X2690Y-97670D01*
X2534Y-97466D01*
X1792Y-96897D01*
X927Y-96539D01*
X0Y-96417D01*
X-927Y-96539D01*
X-1792Y-96897D01*
X-2534Y-97466D01*
X-3103Y-98208D01*
X-3461Y-99073D01*
X-3583Y-100000D01*
X-3461Y-100927D01*
X-3103Y-101792D01*
X-2534Y-102534D01*
X-2330Y-102690D01*
X-2499Y-103190D01*
X-19630D01*
X-19782Y-102690D01*
X-19499Y-102501D01*
X-19100Y-101904D01*
X-18960Y-101200D01*
X-19100Y-100496D01*
X-19499Y-99899D01*
X-20096Y-99500D01*
X-20800Y-99360D01*
X-21504Y-99500D01*
X-22101Y-99899D01*
X-22500Y-100496D01*
X-22640Y-101200D01*
X-22500Y-101904D01*
X-22101Y-102501D01*
X-21818Y-102690D01*
X-21970Y-103190D01*
X-35861D01*
X-36097Y-102750D01*
X-36000Y-102604D01*
X-35860Y-101900D01*
X-36000Y-101196D01*
X-36399Y-100599D01*
X-36996Y-100200D01*
X-37700Y-100060D01*
X-38404Y-100200D01*
X-39001Y-100599D01*
X-39400Y-101196D01*
X-39540Y-101900D01*
X-39400Y-102604D01*
X-39303Y-102750D01*
X-39539Y-103190D01*
X-81100D01*
X-81100Y3190D01*
X-74351D01*
X-74175Y2690D01*
X-74500Y2204D01*
X-74640Y1500D01*
X-74500Y796D01*
X-74101Y199D01*
X-73504Y-200D01*
X-72800Y-340D01*
X-72096Y-200D01*
X-71499Y199D01*
X-71100Y796D01*
X-70960Y1500D01*
X-71100Y2204D01*
X-71425Y2690D01*
X-71250Y3190D01*
X-42039D01*
X-41803Y2750D01*
X-41900Y2604D01*
X-42040Y1900D01*
X-41900Y1196D01*
X-41501Y599D01*
X-40904Y200D01*
X-40200Y60D01*
X-39496Y200D01*
X-38899Y599D01*
X-38500Y1196D01*
X-38360Y1900D01*
X-38500Y2604D01*
X-38597Y2750D01*
X-38361Y3190D01*
X1063D01*
X1129Y3204D01*
X1887Y3053D01*
D02*
G37*
%LPC*%
G36*
X-139250Y-6112D02*
Y-9250D01*
X-136112D01*
X-136149Y-8968D01*
X-136547Y-8007D01*
X-137181Y-7181D01*
X-138007Y-6547D01*
X-138968Y-6149D01*
X-139250Y-6112D01*
D02*
G37*
G36*
X-136112Y-10750D02*
X-139250D01*
Y-13888D01*
X-138968Y-13851D01*
X-138007Y-13453D01*
X-137181Y-12819D01*
X-136547Y-11993D01*
X-136149Y-11032D01*
X-136112Y-10750D01*
D02*
G37*
G36*
X-100100Y-21867D02*
X-100763Y-21999D01*
X-101326Y-22374D01*
X-101701Y-22937D01*
X-101833Y-23600D01*
X-101809Y-23723D01*
X-113493Y-35407D01*
X-113736Y-35771D01*
X-113822Y-36200D01*
X-113822Y-36200D01*
Y-74935D01*
X-115777Y-76891D01*
X-115900Y-76867D01*
X-116563Y-76999D01*
X-117126Y-77374D01*
X-117501Y-77937D01*
X-117633Y-78600D01*
X-117501Y-79263D01*
X-117126Y-79826D01*
X-116563Y-80201D01*
X-115900Y-80333D01*
X-115237Y-80201D01*
X-114674Y-79826D01*
X-114299Y-79263D01*
X-114167Y-78600D01*
X-114191Y-78477D01*
X-111907Y-76193D01*
X-111907Y-76193D01*
X-111664Y-75829D01*
X-111578Y-75400D01*
Y-66118D01*
X-111078Y-65850D01*
X-110704Y-66100D01*
X-110000Y-66240D01*
X-109296Y-66100D01*
X-108699Y-65701D01*
X-108300Y-65104D01*
X-108160Y-64400D01*
X-108300Y-63696D01*
X-108699Y-63099D01*
X-109296Y-62700D01*
X-110000Y-62560D01*
X-110704Y-62700D01*
X-111078Y-62950D01*
X-111578Y-62682D01*
Y-36665D01*
X-100223Y-25309D01*
X-100100Y-25333D01*
X-99437Y-25201D01*
X-98874Y-24826D01*
X-98499Y-24263D01*
X-98367Y-23600D01*
X-98499Y-22937D01*
X-98874Y-22374D01*
X-99437Y-21999D01*
X-100100Y-21867D01*
D02*
G37*
G36*
X-100400Y-26967D02*
X-101063Y-27099D01*
X-101626Y-27474D01*
X-102001Y-28037D01*
X-102133Y-28700D01*
X-102001Y-29363D01*
X-101626Y-29926D01*
X-101063Y-30301D01*
X-100400Y-30433D01*
X-99737Y-30301D01*
X-99174Y-29926D01*
X-98743Y-30181D01*
X-98263Y-30501D01*
X-97600Y-30633D01*
X-96937Y-30501D01*
X-96374Y-30126D01*
X-95999Y-29563D01*
X-95867Y-28900D01*
X-95999Y-28237D01*
X-96374Y-27674D01*
X-96937Y-27299D01*
X-97600Y-27167D01*
X-98263Y-27299D01*
X-98826Y-27674D01*
X-99257Y-27419D01*
X-99737Y-27099D01*
X-100400Y-26967D01*
D02*
G37*
G36*
X-84905Y-38367D02*
X-85569Y-38499D01*
X-86131Y-38874D01*
X-86507Y-39437D01*
X-86639Y-40100D01*
X-86507Y-40763D01*
X-86131Y-41326D01*
X-85569Y-41701D01*
X-84905Y-41833D01*
X-84242Y-41701D01*
X-83680Y-41326D01*
X-83304Y-40763D01*
X-83172Y-40100D01*
X-83304Y-39437D01*
X-83680Y-38874D01*
X-84242Y-38499D01*
X-84905Y-38367D01*
D02*
G37*
G36*
X-109300Y-56067D02*
X-109963Y-56199D01*
X-110526Y-56574D01*
X-110901Y-57137D01*
X-111033Y-57800D01*
X-110901Y-58463D01*
X-110526Y-59026D01*
X-109963Y-59401D01*
X-109359Y-59522D01*
X-109200Y-59741D01*
X-109076Y-59999D01*
X-109101Y-60037D01*
X-109233Y-60700D01*
X-109101Y-61363D01*
X-108726Y-61926D01*
X-108163Y-62301D01*
X-107500Y-62433D01*
X-106837Y-62301D01*
X-106274Y-61926D01*
X-105899Y-61363D01*
X-105767Y-60700D01*
X-105899Y-60037D01*
X-106274Y-59474D01*
X-106837Y-59099D01*
X-107441Y-58978D01*
X-107600Y-58759D01*
X-107724Y-58501D01*
X-107699Y-58463D01*
X-107567Y-57800D01*
X-107699Y-57137D01*
X-108074Y-56574D01*
X-108637Y-56199D01*
X-109300Y-56067D01*
D02*
G37*
G36*
X-128100Y-64967D02*
X-128763Y-65099D01*
X-129326Y-65474D01*
X-129701Y-66037D01*
X-129833Y-66700D01*
X-129701Y-67363D01*
X-129326Y-67926D01*
X-129090Y-68083D01*
Y-68684D01*
X-129226Y-68774D01*
X-129601Y-69337D01*
X-129733Y-70000D01*
X-129601Y-70663D01*
X-129226Y-71226D01*
X-129064Y-71333D01*
Y-71763D01*
X-129135Y-71888D01*
X-129501Y-72437D01*
X-129633Y-73100D01*
X-129501Y-73763D01*
X-129126Y-74326D01*
X-128563Y-74701D01*
X-127900Y-74833D01*
X-127237Y-74701D01*
X-126674Y-74326D01*
X-126299Y-73763D01*
X-126167Y-73100D01*
X-126299Y-72437D01*
X-126674Y-71874D01*
X-126836Y-71767D01*
Y-71337D01*
X-126765Y-71212D01*
X-126399Y-70663D01*
X-126267Y-70000D01*
X-126399Y-69337D01*
X-126774Y-68774D01*
X-127009Y-68617D01*
Y-68016D01*
X-126874Y-67926D01*
X-126499Y-67363D01*
X-126367Y-66700D01*
X-126499Y-66037D01*
X-126874Y-65474D01*
X-127437Y-65099D01*
X-128100Y-64967D01*
D02*
G37*
G36*
X-99705Y-81312D02*
X-100369Y-81444D01*
X-100931Y-81820D01*
X-101307Y-82382D01*
X-101439Y-83046D01*
X-101307Y-83709D01*
X-100931Y-84271D01*
X-100369Y-84647D01*
X-99705Y-84779D01*
X-99042Y-84647D01*
X-98680Y-84405D01*
X-98249Y-84343D01*
X-97982Y-84425D01*
X-97569Y-84701D01*
X-96905Y-84833D01*
X-96242Y-84701D01*
X-95680Y-84326D01*
X-95304Y-83763D01*
X-95172Y-83100D01*
X-95304Y-82437D01*
X-95680Y-81874D01*
X-96242Y-81499D01*
X-96905Y-81367D01*
X-97569Y-81499D01*
X-97931Y-81741D01*
X-98362Y-81803D01*
X-98629Y-81720D01*
X-99042Y-81444D01*
X-99705Y-81312D01*
D02*
G37*
G36*
X-49301Y1833D02*
X-49964Y1701D01*
X-50526Y1326D01*
X-50902Y763D01*
X-51034Y100D01*
X-50902Y-563D01*
X-50526Y-1126D01*
X-49964Y-1501D01*
X-49301Y-1633D01*
X-48637Y-1501D01*
X-48075Y-1126D01*
X-47699Y-563D01*
X-47567Y100D01*
X-47699Y763D01*
X-48075Y1326D01*
X-48637Y1701D01*
X-49301Y1833D01*
D02*
G37*
G36*
X-58631D02*
X-59295Y1701D01*
X-59857Y1326D01*
X-60233Y763D01*
X-60365Y100D01*
X-60233Y-563D01*
X-59857Y-1126D01*
X-59295Y-1501D01*
X-58631Y-1633D01*
X-57968Y-1501D01*
X-57406Y-1126D01*
X-57030Y-563D01*
X-56898Y100D01*
X-57030Y763D01*
X-57406Y1326D01*
X-57968Y1701D01*
X-58631Y1833D01*
D02*
G37*
G36*
X-67905D02*
X-68569Y1701D01*
X-69131Y1326D01*
X-69507Y763D01*
X-69639Y100D01*
X-69507Y-563D01*
X-69131Y-1126D01*
X-68569Y-1501D01*
X-67905Y-1633D01*
X-67242Y-1501D01*
X-66680Y-1126D01*
X-66304Y-563D01*
X-66172Y100D01*
X-66304Y763D01*
X-66680Y1326D01*
X-67242Y1701D01*
X-67905Y1833D01*
D02*
G37*
G36*
X-8705Y1135D02*
X-9408Y996D01*
X-10003Y598D01*
X-10401Y2D01*
X-10541Y-700D01*
X-10401Y-1402D01*
X-10003Y-1998D01*
X-9408Y-2396D01*
X-8705Y-2535D01*
X-8003Y-2396D01*
X-7408Y-1998D01*
X-7010Y-1402D01*
X-6870Y-700D01*
X-7010Y2D01*
X-7408Y598D01*
X-8003Y996D01*
X-8705Y1135D01*
D02*
G37*
G36*
X-58631Y-3167D02*
X-59295Y-3299D01*
X-59857Y-3674D01*
X-60233Y-4237D01*
X-60365Y-4900D01*
X-60233Y-5563D01*
X-59857Y-6126D01*
X-59295Y-6501D01*
X-58631Y-6633D01*
X-57968Y-6501D01*
X-57406Y-6126D01*
X-57030Y-5563D01*
X-56898Y-4900D01*
X-57030Y-4237D01*
X-57406Y-3674D01*
X-57968Y-3299D01*
X-58631Y-3167D01*
D02*
G37*
G36*
X-67905D02*
X-68569Y-3299D01*
X-69131Y-3674D01*
X-69507Y-4237D01*
X-69639Y-4900D01*
X-69507Y-5563D01*
X-69131Y-6126D01*
X-68569Y-6501D01*
X-67905Y-6633D01*
X-67242Y-6501D01*
X-66680Y-6126D01*
X-66304Y-5563D01*
X-66172Y-4900D01*
X-66304Y-4237D01*
X-66680Y-3674D01*
X-67242Y-3299D01*
X-67905Y-3167D01*
D02*
G37*
G36*
X-8705Y-3065D02*
X-9408Y-3204D01*
X-10003Y-3602D01*
X-10401Y-4198D01*
X-10541Y-4900D01*
X-10401Y-5602D01*
X-10003Y-6198D01*
X-9408Y-6596D01*
X-8705Y-6735D01*
X-8003Y-6596D01*
X-7408Y-6198D01*
X-7010Y-5602D01*
X-6870Y-4900D01*
X-7010Y-4198D01*
X-7408Y-3602D01*
X-8003Y-3204D01*
X-8705Y-3065D01*
D02*
G37*
G36*
X-73700Y-6360D02*
X-74404Y-6500D01*
X-75001Y-6899D01*
X-75400Y-7496D01*
X-75540Y-8200D01*
X-75400Y-8904D01*
X-75001Y-9501D01*
X-74404Y-9900D01*
X-73700Y-10040D01*
X-72996Y-9900D01*
X-72399Y-9501D01*
X-72000Y-8904D01*
X-71860Y-8200D01*
X-72000Y-7496D01*
X-72399Y-6899D01*
X-72996Y-6500D01*
X-73700Y-6360D01*
D02*
G37*
G36*
X-8705Y-7865D02*
X-9408Y-8004D01*
X-10003Y-8402D01*
X-10401Y-8998D01*
X-10541Y-9700D01*
X-10401Y-10402D01*
X-10003Y-10998D01*
X-9408Y-11395D01*
X-8705Y-11535D01*
X-8003Y-11395D01*
X-7408Y-10998D01*
X-7010Y-10402D01*
X-6870Y-9700D01*
X-7010Y-8998D01*
X-7408Y-8402D01*
X-8003Y-8004D01*
X-8705Y-7865D01*
D02*
G37*
G36*
X-49244Y-8167D02*
X-49907Y-8299D01*
X-50470Y-8674D01*
X-50845Y-9237D01*
X-50977Y-9900D01*
X-50845Y-10563D01*
X-50470Y-11126D01*
X-49907Y-11501D01*
X-49244Y-11633D01*
X-48581Y-11501D01*
X-48019Y-11126D01*
X-47643Y-10563D01*
X-47511Y-9900D01*
X-47643Y-9237D01*
X-48019Y-8674D01*
X-48581Y-8299D01*
X-49244Y-8167D01*
D02*
G37*
G36*
X-58631D02*
X-59295Y-8299D01*
X-59857Y-8674D01*
X-60233Y-9237D01*
X-60365Y-9900D01*
X-60233Y-10563D01*
X-59857Y-11126D01*
X-59295Y-11501D01*
X-58631Y-11633D01*
X-57968Y-11501D01*
X-57406Y-11126D01*
X-57030Y-10563D01*
X-56898Y-9900D01*
X-57030Y-9237D01*
X-57406Y-8674D01*
X-57968Y-8299D01*
X-58631Y-8167D01*
D02*
G37*
G36*
X-67905D02*
X-68569Y-8299D01*
X-69131Y-8674D01*
X-69507Y-9237D01*
X-69639Y-9900D01*
X-69507Y-10563D01*
X-69131Y-11126D01*
X-68569Y-11501D01*
X-67905Y-11633D01*
X-67242Y-11501D01*
X-66680Y-11126D01*
X-66304Y-10563D01*
X-66172Y-9900D01*
X-66304Y-9237D01*
X-66680Y-8674D01*
X-67242Y-8299D01*
X-67905Y-8167D01*
D02*
G37*
G36*
X-78268Y-10565D02*
X-78971Y-10704D01*
X-79566Y-11102D01*
X-79964Y-11698D01*
X-80104Y-12400D01*
X-79964Y-13102D01*
X-79566Y-13698D01*
X-78971Y-14096D01*
X-78268Y-14235D01*
X-77566Y-14096D01*
X-76971Y-13698D01*
X-76573Y-13102D01*
X-76433Y-12400D01*
X-76573Y-11698D01*
X-76971Y-11102D01*
X-77566Y-10704D01*
X-78268Y-10565D01*
D02*
G37*
G36*
X-8705Y-12065D02*
X-9408Y-12204D01*
X-10003Y-12602D01*
X-10401Y-13198D01*
X-10541Y-13900D01*
X-10401Y-14602D01*
X-10003Y-15198D01*
X-9408Y-15596D01*
X-8705Y-15735D01*
X-8003Y-15596D01*
X-7408Y-15198D01*
X-7010Y-14602D01*
X-6870Y-13900D01*
X-7010Y-13198D01*
X-7408Y-12602D01*
X-8003Y-12204D01*
X-8705Y-12065D01*
D02*
G37*
G36*
X-49244Y-13167D02*
X-49907Y-13299D01*
X-50470Y-13674D01*
X-50845Y-14237D01*
X-50977Y-14900D01*
X-50845Y-15563D01*
X-50470Y-16126D01*
X-49907Y-16501D01*
X-49244Y-16633D01*
X-48581Y-16501D01*
X-48019Y-16126D01*
X-47643Y-15563D01*
X-47511Y-14900D01*
X-47643Y-14237D01*
X-48019Y-13674D01*
X-48581Y-13299D01*
X-49244Y-13167D01*
D02*
G37*
G36*
X-58631D02*
X-59295Y-13299D01*
X-59857Y-13674D01*
X-60233Y-14237D01*
X-60365Y-14900D01*
X-60233Y-15563D01*
X-59857Y-16126D01*
X-59295Y-16501D01*
X-58631Y-16633D01*
X-57968Y-16501D01*
X-57406Y-16126D01*
X-57030Y-15563D01*
X-56898Y-14900D01*
X-57030Y-14237D01*
X-57406Y-13674D01*
X-57968Y-13299D01*
X-58631Y-13167D01*
D02*
G37*
G36*
X-67905D02*
X-68569Y-13299D01*
X-69131Y-13674D01*
X-69507Y-14237D01*
X-69639Y-14900D01*
X-69507Y-15563D01*
X-69131Y-16126D01*
X-68569Y-16501D01*
X-67905Y-16633D01*
X-67242Y-16501D01*
X-66680Y-16126D01*
X-66304Y-15563D01*
X-66172Y-14900D01*
X-66304Y-14237D01*
X-66680Y-13674D01*
X-67242Y-13299D01*
X-67905Y-13167D01*
D02*
G37*
G36*
X-78405Y-14867D02*
X-79069Y-14999D01*
X-79631Y-15374D01*
X-80007Y-15937D01*
X-80139Y-16600D01*
X-80007Y-17263D01*
X-79631Y-17826D01*
X-79069Y-18201D01*
X-78405Y-18333D01*
X-77742Y-18201D01*
X-77180Y-17826D01*
X-76804Y-17263D01*
X-76672Y-16600D01*
X-76804Y-15937D01*
X-77180Y-15374D01*
X-77742Y-14999D01*
X-78405Y-14867D01*
D02*
G37*
G36*
X-23806Y-24065D02*
X-24508Y-24204D01*
X-25103Y-24602D01*
X-25501Y-25198D01*
X-25641Y-25900D01*
X-25501Y-26602D01*
X-25103Y-27198D01*
X-24508Y-27596D01*
X-23806Y-27735D01*
X-23103Y-27596D01*
X-22508Y-27198D01*
X-22110Y-26602D01*
X-21970Y-25900D01*
X-22110Y-25198D01*
X-22508Y-24602D01*
X-23103Y-24204D01*
X-23806Y-24065D01*
D02*
G37*
G36*
X-66768Y-24667D02*
X-67432Y-24799D01*
X-67994Y-25174D01*
X-68370Y-25737D01*
X-68502Y-26400D01*
X-68370Y-27063D01*
X-67994Y-27626D01*
X-67432Y-28001D01*
X-66768Y-28133D01*
X-66105Y-28001D01*
X-65543Y-27626D01*
X-65167Y-27063D01*
X-65035Y-26400D01*
X-65167Y-25737D01*
X-65543Y-25174D01*
X-66105Y-24799D01*
X-66768Y-24667D01*
D02*
G37*
G36*
X-72700Y-25165D02*
X-73402Y-25304D01*
X-73998Y-25702D01*
X-74396Y-26298D01*
X-74535Y-27000D01*
X-74396Y-27702D01*
X-73998Y-28298D01*
X-73402Y-28696D01*
X-72700Y-28835D01*
X-71998Y-28696D01*
X-71402Y-28298D01*
X-71004Y-27702D01*
X-70865Y-27000D01*
X-71004Y-26298D01*
X-71402Y-25702D01*
X-71998Y-25304D01*
X-72700Y-25165D01*
D02*
G37*
G36*
X-64500Y-34420D02*
X-65163Y-34552D01*
X-65726Y-34928D01*
X-66101Y-35490D01*
X-66233Y-36154D01*
X-66101Y-36817D01*
X-65726Y-37379D01*
X-65163Y-37755D01*
X-64500Y-37887D01*
X-63837Y-37755D01*
X-63274Y-37379D01*
X-62899Y-36817D01*
X-62767Y-36154D01*
X-62899Y-35490D01*
X-63274Y-34928D01*
X-63837Y-34552D01*
X-64500Y-34420D01*
D02*
G37*
G36*
X-25268Y-34817D02*
X-26196Y-34939D01*
X-27060Y-35297D01*
X-27802Y-35866D01*
X-28372Y-36608D01*
X-28730Y-37473D01*
X-28852Y-38400D01*
X-28730Y-39327D01*
X-28372Y-40192D01*
X-27802Y-40934D01*
X-27060Y-41503D01*
X-26196Y-41861D01*
X-25268Y-41983D01*
X-24341Y-41861D01*
X-23477Y-41503D01*
X-22735Y-40934D01*
X-22165Y-40192D01*
X-21807Y-39327D01*
X-21685Y-38400D01*
X-21807Y-37473D01*
X-22165Y-36608D01*
X-22735Y-35866D01*
X-23477Y-35297D01*
X-24341Y-34939D01*
X-25268Y-34817D01*
D02*
G37*
G36*
X-77000Y-40163D02*
X-77663Y-40295D01*
X-78226Y-40671D01*
X-78601Y-41234D01*
X-78733Y-41897D01*
X-78601Y-42560D01*
X-78226Y-43122D01*
X-77663Y-43498D01*
X-77000Y-43630D01*
X-76337Y-43498D01*
X-75774Y-43122D01*
X-75399Y-42560D01*
X-75267Y-41897D01*
X-75399Y-41234D01*
X-75774Y-40671D01*
X-76337Y-40295D01*
X-77000Y-40163D01*
D02*
G37*
G36*
X-29877Y-40632D02*
X-30581Y-40772D01*
X-31178Y-41171D01*
X-31577Y-41768D01*
X-31717Y-42473D01*
X-31577Y-43177D01*
X-31178Y-43774D01*
X-30581Y-44173D01*
X-29877Y-44313D01*
X-29173Y-44173D01*
X-28576Y-43774D01*
X-28177Y-43177D01*
X-28037Y-42473D01*
X-28177Y-41768D01*
X-28576Y-41171D01*
X-29173Y-40772D01*
X-29877Y-40632D01*
D02*
G37*
G36*
X-44877D02*
X-45581Y-40772D01*
X-46178Y-41171D01*
X-46577Y-41768D01*
X-46717Y-42473D01*
X-46577Y-43177D01*
X-46178Y-43774D01*
X-45581Y-44173D01*
X-44877Y-44313D01*
X-44173Y-44173D01*
X-43576Y-43774D01*
X-43177Y-43177D01*
X-43037Y-42473D01*
X-43177Y-41768D01*
X-43576Y-41171D01*
X-44173Y-40772D01*
X-44877Y-40632D01*
D02*
G37*
G36*
X-52377D02*
X-53081Y-40772D01*
X-53678Y-41171D01*
X-54077Y-41768D01*
X-54217Y-42473D01*
X-54077Y-43177D01*
X-53678Y-43774D01*
X-53081Y-44173D01*
X-52377Y-44313D01*
X-51673Y-44173D01*
X-51076Y-43774D01*
X-50677Y-43177D01*
X-50537Y-42473D01*
X-50677Y-41768D01*
X-51076Y-41171D01*
X-51673Y-40772D01*
X-52377Y-40632D01*
D02*
G37*
G36*
X-59877D02*
X-60581Y-40772D01*
X-61178Y-41171D01*
X-61577Y-41768D01*
X-61717Y-42473D01*
X-61577Y-43177D01*
X-61178Y-43774D01*
X-60581Y-44173D01*
X-59877Y-44313D01*
X-59173Y-44173D01*
X-58576Y-43774D01*
X-58177Y-43177D01*
X-58037Y-42473D01*
X-58177Y-41768D01*
X-58576Y-41171D01*
X-59173Y-40772D01*
X-59877Y-40632D01*
D02*
G37*
G36*
X-33627Y-48132D02*
X-34331Y-48272D01*
X-34928Y-48671D01*
X-35327Y-49268D01*
X-35467Y-49973D01*
X-35327Y-50677D01*
X-34928Y-51274D01*
X-34331Y-51673D01*
X-33627Y-51813D01*
X-32923Y-51673D01*
X-32326Y-51274D01*
X-31927Y-50677D01*
X-31787Y-49973D01*
X-31927Y-49268D01*
X-32326Y-48671D01*
X-32923Y-48272D01*
X-33627Y-48132D01*
D02*
G37*
G36*
X-41127D02*
X-41831Y-48272D01*
X-42428Y-48671D01*
X-42827Y-49268D01*
X-42967Y-49973D01*
X-42827Y-50677D01*
X-42428Y-51274D01*
X-41831Y-51673D01*
X-41127Y-51813D01*
X-40423Y-51673D01*
X-39826Y-51274D01*
X-39427Y-50677D01*
X-39287Y-49973D01*
X-39427Y-49268D01*
X-39826Y-48671D01*
X-40423Y-48272D01*
X-41127Y-48132D01*
D02*
G37*
G36*
X-48627D02*
X-49331Y-48272D01*
X-49928Y-48671D01*
X-50327Y-49268D01*
X-50467Y-49973D01*
X-50327Y-50677D01*
X-49928Y-51274D01*
X-49331Y-51673D01*
X-48627Y-51813D01*
X-47923Y-51673D01*
X-47326Y-51274D01*
X-46927Y-50677D01*
X-46787Y-49973D01*
X-46927Y-49268D01*
X-47326Y-48671D01*
X-47923Y-48272D01*
X-48627Y-48132D01*
D02*
G37*
G36*
X-56127D02*
X-56831Y-48272D01*
X-57428Y-48671D01*
X-57827Y-49268D01*
X-57967Y-49973D01*
X-57827Y-50677D01*
X-57428Y-51274D01*
X-56831Y-51673D01*
X-56127Y-51813D01*
X-55423Y-51673D01*
X-54826Y-51274D01*
X-54427Y-50677D01*
X-54287Y-49973D01*
X-54427Y-49268D01*
X-54826Y-48671D01*
X-55423Y-48272D01*
X-56127Y-48132D01*
D02*
G37*
G36*
X-63627D02*
X-64331Y-48272D01*
X-64928Y-48671D01*
X-65327Y-49268D01*
X-65467Y-49973D01*
X-65327Y-50677D01*
X-64928Y-51274D01*
X-64331Y-51673D01*
X-63627Y-51813D01*
X-62923Y-51673D01*
X-62326Y-51274D01*
X-61927Y-50677D01*
X-61787Y-49973D01*
X-61927Y-49268D01*
X-62326Y-48671D01*
X-62923Y-48272D01*
X-63627Y-48132D01*
D02*
G37*
G36*
X-44877Y-55632D02*
X-45581Y-55772D01*
X-46178Y-56171D01*
X-46577Y-56768D01*
X-46717Y-57473D01*
X-46577Y-58177D01*
X-46178Y-58774D01*
X-45581Y-59173D01*
X-44877Y-59313D01*
X-44173Y-59173D01*
X-43576Y-58774D01*
X-43177Y-58177D01*
X-43037Y-57473D01*
X-43177Y-56768D01*
X-43576Y-56171D01*
X-44173Y-55772D01*
X-44877Y-55632D01*
D02*
G37*
G36*
X-65700Y-64067D02*
X-66363Y-64199D01*
X-66926Y-64574D01*
X-67301Y-65137D01*
X-67433Y-65800D01*
X-67301Y-66463D01*
X-66926Y-67026D01*
X-66363Y-67401D01*
X-65700Y-67533D01*
X-65037Y-67401D01*
X-64474Y-67026D01*
X-64099Y-66463D01*
X-63967Y-65800D01*
X-64099Y-65137D01*
X-64474Y-64574D01*
X-65037Y-64199D01*
X-65700Y-64067D01*
D02*
G37*
G36*
X-54500Y-58967D02*
X-55163Y-59099D01*
X-55726Y-59474D01*
X-56101Y-60037D01*
X-56233Y-60700D01*
X-56101Y-61363D01*
X-55726Y-61926D01*
X-55163Y-62301D01*
X-54760Y-62382D01*
X-54333Y-62800D01*
X-54201Y-63463D01*
X-53826Y-64026D01*
X-53263Y-64401D01*
X-52600Y-64533D01*
X-52182Y-64960D01*
X-52101Y-65363D01*
X-51726Y-65926D01*
X-51330Y-66190D01*
X-51123Y-66780D01*
X-51200Y-66896D01*
X-51340Y-67600D01*
X-51200Y-68304D01*
X-50801Y-68901D01*
X-50204Y-69300D01*
X-49500Y-69440D01*
X-48796Y-69300D01*
X-48199Y-68901D01*
X-47800Y-68304D01*
X-47660Y-67600D01*
X-47800Y-66896D01*
X-48199Y-66299D01*
X-48796Y-65900D01*
X-48972Y-65474D01*
X-48899Y-65363D01*
X-48767Y-64700D01*
X-48899Y-64037D01*
X-49274Y-63474D01*
X-49837Y-63099D01*
X-50500Y-62967D01*
X-50918Y-62540D01*
X-50999Y-62137D01*
X-51374Y-61574D01*
X-51937Y-61199D01*
X-52340Y-61118D01*
X-52767Y-60700D01*
X-52899Y-60037D01*
X-53274Y-59474D01*
X-53837Y-59099D01*
X-54500Y-58967D01*
D02*
G37*
G36*
X-68200Y-68867D02*
X-68863Y-68999D01*
X-69426Y-69374D01*
X-69801Y-69937D01*
X-69933Y-70600D01*
X-69801Y-71263D01*
X-69426Y-71826D01*
X-68863Y-72201D01*
X-68200Y-72333D01*
X-67537Y-72201D01*
X-66974Y-71826D01*
X-66599Y-71263D01*
X-66467Y-70600D01*
X-66599Y-69937D01*
X-66974Y-69374D01*
X-67537Y-68999D01*
X-68200Y-68867D01*
D02*
G37*
G36*
X-16100Y-76660D02*
X-16804Y-76800D01*
X-17401Y-77199D01*
X-17800Y-77796D01*
X-17940Y-78500D01*
X-17800Y-79204D01*
X-17401Y-79801D01*
X-16804Y-80200D01*
X-16100Y-80340D01*
X-15396Y-80200D01*
X-14799Y-79801D01*
X-14400Y-79204D01*
X-14260Y-78500D01*
X-14400Y-77796D01*
X-14799Y-77199D01*
X-15396Y-76800D01*
X-16100Y-76660D01*
D02*
G37*
G36*
X-45801Y-83367D02*
X-46464Y-83499D01*
X-47026Y-83874D01*
X-47402Y-84437D01*
X-47534Y-85100D01*
X-47402Y-85763D01*
X-47026Y-86326D01*
X-46464Y-86701D01*
X-45801Y-86833D01*
X-45137Y-86701D01*
X-44575Y-86326D01*
X-44199Y-85763D01*
X-44067Y-85100D01*
X-44199Y-84437D01*
X-44575Y-83874D01*
X-45137Y-83499D01*
X-45801Y-83367D01*
D02*
G37*
G36*
X-55131D02*
X-55795Y-83499D01*
X-56357Y-83874D01*
X-56733Y-84437D01*
X-56865Y-85100D01*
X-56733Y-85763D01*
X-56357Y-86326D01*
X-55795Y-86701D01*
X-55131Y-86833D01*
X-54468Y-86701D01*
X-53906Y-86326D01*
X-53530Y-85763D01*
X-53398Y-85100D01*
X-53530Y-84437D01*
X-53906Y-83874D01*
X-54468Y-83499D01*
X-55131Y-83367D01*
D02*
G37*
G36*
X-64406D02*
X-65069Y-83499D01*
X-65631Y-83874D01*
X-66007Y-84437D01*
X-66139Y-85100D01*
X-66007Y-85763D01*
X-65631Y-86326D01*
X-65069Y-86701D01*
X-64406Y-86833D01*
X-63742Y-86701D01*
X-63180Y-86326D01*
X-62804Y-85763D01*
X-62672Y-85100D01*
X-62804Y-84437D01*
X-63180Y-83874D01*
X-63742Y-83499D01*
X-64406Y-83367D01*
D02*
G37*
G36*
X-71200Y-86160D02*
X-71904Y-86300D01*
X-72501Y-86699D01*
X-72900Y-87296D01*
X-73040Y-88000D01*
X-72900Y-88704D01*
X-72501Y-89301D01*
X-71904Y-89700D01*
X-71200Y-89840D01*
X-70496Y-89700D01*
X-69899Y-89301D01*
X-69500Y-88704D01*
X-69360Y-88000D01*
X-69500Y-87296D01*
X-69899Y-86699D01*
X-70496Y-86300D01*
X-71200Y-86160D01*
D02*
G37*
G36*
X-55131Y-88367D02*
X-55795Y-88499D01*
X-56357Y-88874D01*
X-56733Y-89437D01*
X-56865Y-90100D01*
X-56733Y-90763D01*
X-56357Y-91326D01*
X-55795Y-91701D01*
X-55131Y-91833D01*
X-54468Y-91701D01*
X-53906Y-91326D01*
X-53530Y-90763D01*
X-53398Y-90100D01*
X-53530Y-89437D01*
X-53906Y-88874D01*
X-54468Y-88499D01*
X-55131Y-88367D01*
D02*
G37*
G36*
X-64406D02*
X-65069Y-88499D01*
X-65631Y-88874D01*
X-66007Y-89437D01*
X-66139Y-90100D01*
X-66007Y-90763D01*
X-65631Y-91326D01*
X-65069Y-91701D01*
X-64406Y-91833D01*
X-63742Y-91701D01*
X-63180Y-91326D01*
X-62804Y-90763D01*
X-62672Y-90100D01*
X-62804Y-89437D01*
X-63180Y-88874D01*
X-63742Y-88499D01*
X-64406Y-88367D01*
D02*
G37*
G36*
X-45744Y-93367D02*
X-46407Y-93499D01*
X-46970Y-93874D01*
X-47345Y-94437D01*
X-47477Y-95100D01*
X-47345Y-95763D01*
X-46970Y-96326D01*
X-46407Y-96701D01*
X-45744Y-96833D01*
X-45081Y-96701D01*
X-44519Y-96326D01*
X-44143Y-95763D01*
X-44011Y-95100D01*
X-44143Y-94437D01*
X-44519Y-93874D01*
X-45081Y-93499D01*
X-45744Y-93367D01*
D02*
G37*
G36*
X-55131D02*
X-55795Y-93499D01*
X-56357Y-93874D01*
X-56733Y-94437D01*
X-56865Y-95100D01*
X-56733Y-95763D01*
X-56357Y-96326D01*
X-55795Y-96701D01*
X-55131Y-96833D01*
X-54468Y-96701D01*
X-53906Y-96326D01*
X-53530Y-95763D01*
X-53398Y-95100D01*
X-53530Y-94437D01*
X-53906Y-93874D01*
X-54468Y-93499D01*
X-55131Y-93367D01*
D02*
G37*
G36*
X-64406D02*
X-65069Y-93499D01*
X-65631Y-93874D01*
X-66007Y-94437D01*
X-66139Y-95100D01*
X-66007Y-95763D01*
X-65631Y-96326D01*
X-65069Y-96701D01*
X-64406Y-96833D01*
X-63742Y-96701D01*
X-63180Y-96326D01*
X-62804Y-95763D01*
X-62672Y-95100D01*
X-62804Y-94437D01*
X-63180Y-93874D01*
X-63742Y-93499D01*
X-64406Y-93367D01*
D02*
G37*
G36*
X-55131Y-98367D02*
X-55795Y-98499D01*
X-56357Y-98874D01*
X-56733Y-99437D01*
X-56865Y-100100D01*
X-56733Y-100763D01*
X-56357Y-101326D01*
X-55795Y-101701D01*
X-55131Y-101833D01*
X-54468Y-101701D01*
X-53906Y-101326D01*
X-53530Y-100763D01*
X-53398Y-100100D01*
X-53530Y-99437D01*
X-53906Y-98874D01*
X-54468Y-98499D01*
X-55131Y-98367D01*
D02*
G37*
G36*
X-64406D02*
X-65069Y-98499D01*
X-65631Y-98874D01*
X-66007Y-99437D01*
X-66139Y-100100D01*
X-66007Y-100763D01*
X-65631Y-101326D01*
X-65069Y-101701D01*
X-64406Y-101833D01*
X-63742Y-101701D01*
X-63180Y-101326D01*
X-62804Y-100763D01*
X-62672Y-100100D01*
X-62804Y-99437D01*
X-63180Y-98874D01*
X-63742Y-98499D01*
X-64406Y-98367D01*
D02*
G37*
G36*
X-71200Y-98160D02*
X-71904Y-98300D01*
X-72501Y-98699D01*
X-72900Y-99296D01*
X-73040Y-100000D01*
X-72900Y-100704D01*
X-72501Y-101301D01*
X-71904Y-101700D01*
X-71200Y-101840D01*
X-70496Y-101700D01*
X-69899Y-101301D01*
X-69500Y-100704D01*
X-69360Y-100000D01*
X-69500Y-99296D01*
X-69899Y-98699D01*
X-70496Y-98300D01*
X-71200Y-98160D01*
D02*
G37*
G36*
X-7700Y-98260D02*
X-8404Y-98400D01*
X-9001Y-98799D01*
X-9400Y-99396D01*
X-9540Y-100100D01*
X-9400Y-100804D01*
X-9001Y-101401D01*
X-8404Y-101800D01*
X-7700Y-101940D01*
X-6996Y-101800D01*
X-6399Y-101401D01*
X-6000Y-100804D01*
X-5860Y-100100D01*
X-6000Y-99396D01*
X-6399Y-98799D01*
X-6996Y-98400D01*
X-7700Y-98260D01*
D02*
G37*
%LPD*%
D40*
X-112700Y-36200D02*
X-100100Y-23600D01*
X-112700Y-75400D02*
Y-36200D01*
X-115900Y-78600D02*
X-112700Y-75400D01*
D41*
X-126400Y-13800D02*
Y-9500D01*
Y-53400D02*
Y-13800D01*
X-135900Y0D02*
X-126400Y-9500D01*
Y-53400D02*
X-122800Y-57000D01*
X-140000Y0D02*
X-135900D01*
D43*
X-140000D02*
D03*
Y-10000D02*
D03*
X0Y0D02*
D03*
X-35268Y-38400D02*
D03*
D44*
X-100100Y-23600D02*
D03*
X-30237Y-12400D02*
D03*
Y-7400D02*
D03*
Y-2400D02*
D03*
X-36637Y-2500D02*
D03*
Y-7500D02*
D03*
Y-12500D02*
D03*
X-30068Y2000D02*
D03*
X-36468Y1900D02*
D03*
X-26568Y-101900D02*
D03*
X-32968Y-102000D02*
D03*
X-32832Y-82800D02*
D03*
X-26432Y-82700D02*
D03*
X-126400Y-13800D02*
D03*
X-122800Y-57000D02*
D03*
X-115900Y-78600D02*
D03*
X-100000Y-18300D02*
D03*
X-85905Y-17700D02*
D03*
X-26400Y-87500D02*
D03*
Y-92500D02*
D03*
Y-97500D02*
D03*
X-32800Y-97600D02*
D03*
Y-92600D02*
D03*
Y-87600D02*
D03*
D45*
X-141800Y-24800D02*
D03*
X-130300Y-34800D02*
D03*
X-141500Y-84800D02*
D03*
X-130400Y-46400D02*
D03*
X-124700Y-75400D02*
D03*
X-126000Y-4000D02*
D03*
X-134400Y-101300D02*
D03*
X-115900Y-64400D02*
D03*
D46*
X-92711Y-40125D02*
D03*
X-88380D02*
D03*
X-105703Y-57448D02*
D03*
X-97042D02*
D03*
X-92711D02*
D03*
X-88380D02*
D03*
X-101372D02*
D03*
X-88380Y-44456D02*
D03*
Y-48787D02*
D03*
Y-53117D02*
D03*
X-92711Y-44456D02*
D03*
Y-48787D02*
D03*
Y-53117D02*
D03*
X-97042Y-40125D02*
D03*
Y-44456D02*
D03*
Y-48787D02*
D03*
Y-53117D02*
D03*
X-101372Y-40125D02*
D03*
Y-44456D02*
D03*
Y-48787D02*
D03*
Y-53117D02*
D03*
X-105703Y-40125D02*
D03*
Y-44456D02*
D03*
Y-48787D02*
D03*
Y-53117D02*
D03*
D47*
X-110500Y-81500D02*
D03*
X-92567Y-80546D02*
D03*
X-111805Y-87700D02*
D03*
X-109306Y-17200D02*
D03*
X-108400Y-28100D02*
D03*
X-119600Y-32000D02*
D03*
X-21279Y-9300D02*
D03*
Y-13500D02*
D03*
X-21279Y-4500D02*
D03*
Y-300D02*
D03*
D48*
X-92106Y-69400D02*
D03*
X-123200Y-51200D02*
D03*
X-91505Y-27800D02*
D03*
X-108405Y-500D02*
D03*
Y-5500D02*
D03*
X-112406D02*
D03*
Y-500D02*
D03*
X-108905Y-95100D02*
D03*
Y-100100D02*
D03*
X-104905D02*
D03*
Y-95100D02*
D03*
D49*
X-92106Y-69400D02*
X-79800D01*
X-91505Y-27800D02*
X-79800D01*
M02*
