G04*
G04 #@! TF.GenerationSoftware,Altium Limited,Altium Designer,18.0.11 (651)*
G04*
G04 Layer_Color=65535*
%FSLAX25Y25*%
%MOIN*%
G70*
G01*
G75*
%ADD10C,0.00551*%
%ADD11C,0.00984*%
%ADD12C,0.02362*%
%ADD13C,0.00787*%
%ADD14C,0.01181*%
%ADD15C,0.00700*%
%ADD16C,0.00500*%
G36*
X-29268Y-38400D02*
Y-29456D01*
X-28450Y-29547D01*
X-26874Y-30024D01*
X-25411Y-30779D01*
X-24109Y-31786D01*
X-23011Y-33014D01*
X-22155Y-34420D01*
X-21567Y-35958D01*
X-21268Y-37577D01*
X-21268Y-38400D01*
X-21268Y-38400D01*
X-21268Y-39223D01*
X-21567Y-40842D01*
X-22155Y-42380D01*
X-23011Y-43786D01*
X-24109Y-45014D01*
X-25411Y-46021D01*
X-26874Y-46776D01*
X-28450Y-47253D01*
X-29268Y-47344D01*
X-29268D01*
X-29268Y-38400D01*
X-28768Y-38400D01*
X-28752Y-38743D01*
X-28618Y-39416D01*
X-28355Y-40050D01*
X-27974Y-40620D01*
X-27489Y-41105D01*
X-26918Y-41487D01*
X-26284Y-41749D01*
X-25611Y-41883D01*
X-25268Y-41900D01*
X-24925Y-41883D01*
X-24252Y-41749D01*
X-23618Y-41487D01*
X-23048Y-41105D01*
X-22563Y-40620D01*
X-22182Y-40050D01*
X-21919Y-39416D01*
X-21785Y-38743D01*
X-21768Y-38400D01*
X-21785Y-38057D01*
X-21919Y-37384D01*
X-22182Y-36750D01*
X-22563Y-36180D01*
X-23048Y-35695D01*
X-23618Y-35313D01*
X-24252Y-35051D01*
X-24925Y-34917D01*
X-25268Y-34900D01*
X-25611Y-34917D01*
X-26284Y-35051D01*
X-26918Y-35313D01*
X-27489Y-35695D01*
X-27974Y-36180D01*
X-28355Y-36750D01*
X-28618Y-37384D01*
X-28752Y-38057D01*
X-28768Y-38400D01*
D01*
X-29268Y-38400D01*
D02*
G37*
D10*
X-21254Y-38400D02*
G03*
X-21254Y-38400I-9014J0D01*
G01*
D11*
X-82868Y-32645D02*
G03*
X-82868Y-32645I-492J0D01*
G01*
X-49946Y-81852D02*
G03*
X-49946Y-81852I-492J0D01*
G01*
X-79946Y-81852D02*
G03*
X-79946Y-81852I-492J0D01*
G01*
X-53446Y3348D02*
G03*
X-53446Y3348I-492J0D01*
G01*
X-83446D02*
G03*
X-83446Y3348I-492J0D01*
G01*
D12*
X-41284Y-86695D02*
G03*
X-41284Y-86695I-1181J0D01*
G01*
X-71284Y-86695D02*
G03*
X-71284Y-86695I-1181J0D01*
G01*
X-44784Y-1495D02*
G03*
X-44784Y-1495I-1181J0D01*
G01*
X-74784D02*
G03*
X-74784Y-1495I-1181J0D01*
G01*
D13*
X-5000Y-15000D02*
X5000D01*
Y-55000D02*
Y-15000D01*
X-5000Y-55000D02*
Y-15000D01*
Y-55000D02*
X5000D01*
X-135000Y-105000D02*
Y-55000D01*
X-145000D02*
X-135000D01*
X-145000Y-105000D02*
Y-55000D01*
Y-105000D02*
X-135000D01*
X-145000Y-55000D02*
X-135000D01*
X-145000D02*
Y-15000D01*
X-135000Y-55000D02*
Y-15000D01*
X-145000D02*
X-135000D01*
X-5000Y-75000D02*
X5000D01*
X-5000Y-105000D02*
Y-75000D01*
Y-105000D02*
X5000D01*
Y-75000D01*
X-135000Y-15000D02*
Y5000D01*
X-145000Y-15000D02*
X-135000D01*
X-145000D02*
Y5000D01*
X-135000D01*
X5000Y-15000D02*
Y5000D01*
X-5000Y-15000D02*
X5000D01*
X-5000D02*
Y5000D01*
X5000D01*
Y-75000D02*
Y-55000D01*
X-5000Y-75000D02*
X5000D01*
X-5000D02*
Y-55000D01*
X5000D01*
X-109246Y-36582D02*
X-84837D01*
X-109246Y-60991D02*
X-84837D01*
Y-36582D01*
X-109246Y-60991D02*
Y-36582D01*
X-46402Y-102443D02*
X-33804D01*
X-46402Y-82758D02*
X-33804D01*
Y-102443D02*
Y-82758D01*
X-46402Y-102443D02*
Y-82758D01*
X-76402Y-102443D02*
X-63804D01*
X-76402Y-82758D02*
X-63804D01*
Y-102443D02*
Y-82758D01*
X-76402Y-102443D02*
Y-82758D01*
X-49902Y-17243D02*
X-37304D01*
X-49902Y2442D02*
X-37304D01*
Y-17243D02*
Y2442D01*
X-49902Y-17243D02*
Y2442D01*
X-79902Y-17243D02*
X-67304D01*
X-79902Y2442D02*
X-67304D01*
Y-17243D02*
Y2442D01*
X-79902Y-17243D02*
Y2442D01*
D14*
X-37768Y-50400D02*
X-32768D01*
X-35268Y-52900D02*
Y-47900D01*
X-25268Y-52900D02*
Y-47900D01*
D15*
X-52999Y-55831D02*
X-50666D01*
X-49500Y-54665D01*
X-50666Y-53499D01*
X-52999D01*
X-49500Y-52333D02*
Y-51166D01*
Y-51749D01*
X-52999D01*
X-52416Y-52333D01*
X-49500Y-49417D02*
X-50083D01*
Y-48834D01*
X-49500D01*
Y-49417D01*
X-52416Y-46501D02*
X-52999Y-45918D01*
Y-44752D01*
X-52416Y-44168D01*
X-50083D01*
X-49500Y-44752D01*
Y-45918D01*
X-50083Y-46501D01*
X-52416D01*
X-59173Y-68369D02*
Y-66036D01*
Y-67203D01*
X-55674D01*
Y-64870D02*
X-59173D01*
X-58007Y-63704D01*
X-59173Y-62538D01*
X-55674D01*
X-58590Y-59039D02*
X-59173Y-59622D01*
Y-60788D01*
X-58590Y-61371D01*
X-56257D01*
X-55674Y-60788D01*
Y-59622D01*
X-56257Y-59039D01*
X-55674Y-55540D02*
Y-57872D01*
X-58007Y-55540D01*
X-58590D01*
X-59173Y-56123D01*
Y-57289D01*
X-58590Y-57872D01*
X-55674Y-54374D02*
Y-53207D01*
Y-53790D01*
X-59173D01*
X-58590Y-54374D01*
X-59173Y-49125D02*
X-58590Y-50292D01*
X-57424Y-51458D01*
X-56257D01*
X-55674Y-50875D01*
Y-49708D01*
X-56257Y-49125D01*
X-56840D01*
X-57424Y-49708D01*
Y-51458D01*
X-58590Y-47959D02*
X-59173Y-47376D01*
Y-46210D01*
X-58590Y-45626D01*
X-56257D01*
X-55674Y-46210D01*
Y-47376D01*
X-56257Y-47959D01*
X-58590D01*
X-57424Y-44460D02*
Y-42127D01*
X-59173Y-40961D02*
X-55674D01*
Y-39212D01*
X-56257Y-38629D01*
X-56840D01*
X-57424Y-39212D01*
Y-40961D01*
Y-39212D01*
X-58007Y-38629D01*
X-58590D01*
X-59173Y-39212D01*
Y-40961D01*
Y-35713D02*
Y-36879D01*
X-58590Y-37462D01*
X-56257D01*
X-55674Y-36879D01*
Y-35713D01*
X-56257Y-35130D01*
X-58590D01*
X-59173Y-35713D01*
Y-33964D02*
X-55674D01*
Y-32214D01*
X-56257Y-31631D01*
X-56840D01*
X-57424Y-32214D01*
Y-33964D01*
Y-32214D01*
X-58007Y-31631D01*
X-58590D01*
X-59173Y-32214D01*
Y-33964D01*
X-14397Y-68667D02*
X-15064Y-68001D01*
X-16397D01*
X-17063Y-68667D01*
Y-71333D01*
X-16397Y-71999D01*
X-15064D01*
X-14397Y-71333D01*
Y-70000D01*
X-15730D01*
X-13065Y-71999D02*
Y-68001D01*
X-10399Y-71999D01*
Y-68001D01*
X-9066D02*
Y-71999D01*
X-7067D01*
X-6400Y-71333D01*
Y-68667D01*
X-7067Y-68001D01*
X-9066D01*
X-132500Y-61301D02*
Y-65299D01*
X-130501D01*
X-129834Y-64633D01*
Y-61967D01*
X-130501Y-61301D01*
X-132500D01*
X-128501D02*
X-127168D01*
X-127835D01*
Y-65299D01*
X-128501D01*
X-127168D01*
X-125169D02*
Y-62634D01*
X-123836Y-61301D01*
X-122503Y-62634D01*
Y-65299D01*
Y-63300D01*
X-125169D01*
X-118505Y-61967D02*
X-119171Y-61301D01*
X-120504D01*
X-121170Y-61967D01*
Y-64633D01*
X-120504Y-65299D01*
X-119171D01*
X-118505Y-64633D01*
Y-63300D01*
X-119837D01*
X-117172Y-61967D02*
X-116505Y-61301D01*
X-115172D01*
X-114506Y-61967D01*
Y-64633D01*
X-115172Y-65299D01*
X-116505D01*
X-117172Y-64633D01*
Y-61967D01*
X-132416Y1999D02*
Y-667D01*
X-131083Y-1999D01*
X-129750Y-667D01*
Y1999D01*
X-125751Y1333D02*
X-126418Y1999D01*
X-127751D01*
X-128417Y1333D01*
Y-1333D01*
X-127751Y-1999D01*
X-126418D01*
X-125751Y-1333D01*
X-121753Y1333D02*
X-122419Y1999D01*
X-123752D01*
X-124418Y1333D01*
Y-1333D01*
X-123752Y-1999D01*
X-122419D01*
X-121753Y-1333D01*
X-120420Y-2666D02*
X-117754D01*
X-116421Y1999D02*
X-115088D01*
X-115754D01*
Y-1999D01*
X-116421D01*
X-115088D01*
X-111089Y1999D02*
X-112422D01*
X-113089Y1333D01*
Y-1333D01*
X-112422Y-1999D01*
X-111089D01*
X-110423Y-1333D01*
Y1333D01*
X-111089Y1999D01*
X-129734Y-8667D02*
X-130401Y-8001D01*
X-131734D01*
X-132400Y-8667D01*
Y-11333D01*
X-131734Y-11999D01*
X-130401D01*
X-129734Y-11333D01*
Y-10000D01*
X-131067D01*
X-128401Y-11999D02*
Y-8001D01*
X-125735Y-11999D01*
Y-8001D01*
X-124403D02*
Y-11999D01*
X-122403D01*
X-121737Y-11333D01*
Y-8667D01*
X-122403Y-8001D01*
X-124403D01*
X-129834Y-18667D02*
X-130501Y-18001D01*
X-131834D01*
X-132500Y-18667D01*
Y-21333D01*
X-131834Y-21999D01*
X-130501D01*
X-129834Y-21333D01*
X-125836Y-18667D02*
X-126502Y-18001D01*
X-127835D01*
X-128501Y-18667D01*
Y-19333D01*
X-127835Y-20000D01*
X-126502D01*
X-125836Y-20666D01*
Y-21333D01*
X-126502Y-21999D01*
X-127835D01*
X-128501Y-21333D01*
X-124503Y-21999D02*
Y-18001D01*
X-121837Y-21999D01*
Y-18001D01*
X-129834Y-38667D02*
X-130501Y-38001D01*
X-131834D01*
X-132500Y-38667D01*
Y-39334D01*
X-131834Y-40000D01*
X-130501D01*
X-129834Y-40666D01*
Y-41333D01*
X-130501Y-41999D01*
X-131834D01*
X-132500Y-41333D01*
X-128501Y-38001D02*
Y-41999D01*
X-126502D01*
X-125836Y-41333D01*
Y-38667D01*
X-126502Y-38001D01*
X-128501D01*
X-124503D02*
X-123170D01*
X-123836D01*
Y-41999D01*
X-124503D01*
X-123170D01*
X-130167Y-49084D02*
X-130751Y-48500D01*
X-131917D01*
X-132500Y-49084D01*
Y-49667D01*
X-131917Y-50250D01*
X-130751D01*
X-130167Y-50833D01*
Y-51416D01*
X-130751Y-51999D01*
X-131917D01*
X-132500Y-51416D01*
X-129001Y-48500D02*
Y-51999D01*
X-127252D01*
X-126669Y-51416D01*
Y-49084D01*
X-127252Y-48500D01*
X-129001D01*
X-123753D02*
X-124919D01*
X-125502Y-49084D01*
Y-51416D01*
X-124919Y-51999D01*
X-123753D01*
X-123170Y-51416D01*
Y-49084D01*
X-123753Y-48500D01*
X-129834Y-28667D02*
X-130501Y-28001D01*
X-131834D01*
X-132500Y-28667D01*
Y-29334D01*
X-131834Y-30000D01*
X-130501D01*
X-129834Y-30666D01*
Y-31333D01*
X-130501Y-31999D01*
X-131834D01*
X-132500Y-31333D01*
X-125836Y-28667D02*
X-126502Y-28001D01*
X-127835D01*
X-128501Y-28667D01*
Y-31333D01*
X-127835Y-31999D01*
X-126502D01*
X-125836Y-31333D01*
X-124503Y-28001D02*
Y-31999D01*
Y-30666D01*
X-121837Y-28001D01*
X-123836Y-30000D01*
X-121837Y-31999D01*
X-132700Y-78701D02*
Y-82200D01*
X-130951D01*
X-130367Y-81617D01*
Y-79284D01*
X-130951Y-78701D01*
X-132700D01*
X-129201Y-82200D02*
Y-78701D01*
X-127452D01*
X-126869Y-79284D01*
Y-80451D01*
X-127452Y-81034D01*
X-129201D01*
X-128035D02*
X-126869Y-82200D01*
X-125702Y-78701D02*
Y-81034D01*
X-124536Y-82200D01*
X-123370Y-81034D01*
Y-78701D01*
X-122203Y-82783D02*
X-119871D01*
X-116372Y-78701D02*
X-118704D01*
Y-82200D01*
X-116372D01*
X-118704Y-80451D02*
X-117538D01*
X-115206Y-82200D02*
Y-78701D01*
X-112873Y-82200D01*
Y-78701D01*
X-111707Y-82200D02*
Y-78701D01*
X-109374Y-82200D01*
Y-78701D01*
X-132500Y-98001D02*
Y-101999D01*
X-130501D01*
X-129834Y-101333D01*
Y-98667D01*
X-130501Y-98001D01*
X-132500D01*
X-128501D02*
X-127168D01*
X-127835D01*
Y-101999D01*
X-128501D01*
X-127168D01*
X-125169D02*
Y-98001D01*
X-123170D01*
X-122503Y-98667D01*
Y-100000D01*
X-123170Y-100666D01*
X-125169D01*
X-123836D02*
X-122503Y-101999D01*
X-129834Y-88667D02*
X-130501Y-88001D01*
X-131834D01*
X-132500Y-88667D01*
Y-89334D01*
X-131834Y-90000D01*
X-130501D01*
X-129834Y-90666D01*
Y-91333D01*
X-130501Y-91999D01*
X-131834D01*
X-132500Y-91333D01*
X-128501Y-88001D02*
X-125836D01*
X-127168D01*
Y-91999D01*
X-121837Y-88001D02*
X-124503D01*
Y-91999D01*
X-121837D01*
X-124503Y-90000D02*
X-123170D01*
X-120504Y-91999D02*
Y-88001D01*
X-118505D01*
X-117838Y-88667D01*
Y-90000D01*
X-118505Y-90666D01*
X-120504D01*
X-15767Y-51999D02*
Y-49334D01*
X-14434Y-48001D01*
X-13101Y-49334D01*
Y-51999D01*
Y-50000D01*
X-15767D01*
X-11768Y-51999D02*
X-10435D01*
X-11102D01*
Y-48001D01*
X-11768Y-48667D01*
X-17100Y-41999D02*
Y-39334D01*
X-15767Y-38001D01*
X-14434Y-39334D01*
Y-41999D01*
Y-40000D01*
X-17100D01*
X-10435Y-41999D02*
X-13101D01*
X-10435Y-39334D01*
Y-38667D01*
X-11102Y-38001D01*
X-12435D01*
X-13101Y-38667D01*
X-14397Y-58667D02*
X-15064Y-58001D01*
X-16397D01*
X-17063Y-58667D01*
Y-61333D01*
X-16397Y-61999D01*
X-15064D01*
X-14397Y-61333D01*
Y-60000D01*
X-15730D01*
X-13065Y-61999D02*
Y-58001D01*
X-10399Y-61999D01*
Y-58001D01*
X-9066D02*
Y-61999D01*
X-7067D01*
X-6400Y-61333D01*
Y-58667D01*
X-7067Y-58001D01*
X-9066D01*
X-17100Y-18001D02*
Y-21999D01*
X-15101D01*
X-14434Y-21333D01*
Y-20666D01*
X-15101Y-20000D01*
X-17100D01*
X-15101D01*
X-14434Y-19333D01*
Y-18667D01*
X-15101Y-18001D01*
X-17100D01*
X-10435Y-21999D02*
X-13101D01*
X-10435Y-19333D01*
Y-18667D01*
X-11102Y-18001D01*
X-12435D01*
X-13101Y-18667D01*
X-15767Y-28001D02*
Y-31999D01*
X-13768D01*
X-13101Y-31333D01*
Y-30666D01*
X-13768Y-30000D01*
X-15767D01*
X-13768D01*
X-13101Y-29334D01*
Y-28667D01*
X-13768Y-28001D01*
X-15767D01*
X-11768Y-31999D02*
X-10435D01*
X-11102D01*
Y-28001D01*
X-11768Y-28667D01*
X-132500Y-68001D02*
Y-71999D01*
X-130501D01*
X-129834Y-71333D01*
Y-68667D01*
X-130501Y-68001D01*
X-132500D01*
X-128501D02*
X-127168D01*
X-127835D01*
Y-71999D01*
X-128501D01*
X-127168D01*
X-125169D02*
Y-69334D01*
X-123836Y-68001D01*
X-122503Y-69334D01*
Y-71999D01*
Y-70000D01*
X-125169D01*
X-118505Y-68667D02*
X-119171Y-68001D01*
X-120504D01*
X-121170Y-68667D01*
Y-71333D01*
X-120504Y-71999D01*
X-119171D01*
X-118505Y-71333D01*
Y-70000D01*
X-119837D01*
X-117172Y-71999D02*
X-115839D01*
X-116505D01*
Y-68001D01*
X-117172Y-68667D01*
X-20395Y-82001D02*
Y-85999D01*
X-18396D01*
X-17730Y-85333D01*
Y-82667D01*
X-18396Y-82001D01*
X-20395D01*
X-13731Y-82667D02*
X-14397Y-82001D01*
X-15730D01*
X-16397Y-82667D01*
Y-85333D01*
X-15730Y-85999D01*
X-14397D01*
X-13731Y-85333D01*
X-12398Y-82001D02*
X-11065D01*
X-11732D01*
Y-85999D01*
X-12398D01*
X-11065D01*
X-9066D02*
Y-82001D01*
X-6400Y-85999D01*
Y-82001D01*
X-21062Y-90001D02*
Y-93999D01*
X-19063D01*
X-18396Y-93333D01*
Y-90667D01*
X-19063Y-90001D01*
X-21062D01*
X-14397Y-90667D02*
X-15064Y-90001D01*
X-16397D01*
X-17063Y-90667D01*
Y-93333D01*
X-16397Y-93999D01*
X-15064D01*
X-14397Y-93333D01*
X-10399Y-90001D02*
X-13065D01*
Y-93999D01*
X-10399D01*
X-13065Y-92000D02*
X-11732D01*
X-9066Y-93999D02*
Y-90001D01*
X-6400Y-93999D01*
Y-90001D01*
X-17063Y-98001D02*
Y-101999D01*
X-15064D01*
X-14397Y-101333D01*
Y-98667D01*
X-15064Y-98001D01*
X-17063D01*
X-10399Y-98667D02*
X-11065Y-98001D01*
X-12398D01*
X-13065Y-98667D01*
Y-101333D01*
X-12398Y-101999D01*
X-11065D01*
X-10399Y-101333D01*
X-7067Y-98001D02*
X-8399D01*
X-9066Y-98667D01*
Y-101333D01*
X-8399Y-101999D01*
X-7067D01*
X-6400Y-101333D01*
Y-98667D01*
X-7067Y-98001D01*
D16*
X-9166Y-12133D02*
X-9699Y-12666D01*
Y-13732D01*
X-9166Y-14265D01*
X-7033D01*
X-6500Y-13732D01*
Y-12666D01*
X-7033Y-12133D01*
X-8100D01*
Y-13199D01*
X-6500Y-11066D02*
X-9699D01*
X-6500Y-8934D01*
X-9699D01*
Y-7867D02*
X-6500D01*
Y-6268D01*
X-7033Y-5735D01*
X-9166D01*
X-9699Y-6268D01*
Y-7867D01*
Y-2666D02*
X-7566D01*
X-6500Y-1599D01*
X-7566Y-533D01*
X-9699D01*
X-9166Y2666D02*
X-9699Y2133D01*
Y1066D01*
X-9166Y533D01*
X-8633D01*
X-8100Y1066D01*
Y2133D01*
X-7566Y2666D01*
X-7033D01*
X-6500Y2133D01*
Y1066D01*
X-7033Y533D01*
M02*
