G04*
G04 #@! TF.GenerationSoftware,Altium Limited,Altium Designer,18.0.11 (651)*
G04*
G04 Layer_Color=32896*
%FSLAX25Y25*%
%MOIN*%
G70*
G01*
G75*
%ADD13C,0.00787*%
%ADD15C,0.00700*%
%ADD38C,0.00800*%
G36*
X-71604Y-92043D02*
X-71516Y-92048D01*
X-71343Y-92076D01*
X-71199Y-92120D01*
X-71133Y-92143D01*
X-71071Y-92170D01*
X-71016Y-92193D01*
X-70972Y-92220D01*
X-70927Y-92243D01*
X-70894Y-92259D01*
X-70866Y-92281D01*
X-70850Y-92292D01*
X-70838Y-92298D01*
X-70833Y-92304D01*
X-70772Y-92359D01*
X-70716Y-92415D01*
X-70666Y-92481D01*
X-70622Y-92553D01*
X-70555Y-92698D01*
X-70500Y-92836D01*
X-70483Y-92909D01*
X-70467Y-92970D01*
X-70450Y-93025D01*
X-70444Y-93075D01*
X-70433Y-93120D01*
Y-93147D01*
X-70428Y-93169D01*
Y-93175D01*
X-71160Y-93247D01*
X-71171Y-93136D01*
X-71194Y-93042D01*
X-71216Y-92958D01*
X-71244Y-92897D01*
X-71266Y-92848D01*
X-71288Y-92814D01*
X-71305Y-92792D01*
X-71310Y-92787D01*
X-71366Y-92742D01*
X-71427Y-92709D01*
X-71488Y-92681D01*
X-71549Y-92664D01*
X-71599Y-92653D01*
X-71643Y-92648D01*
X-71682D01*
X-71765Y-92653D01*
X-71837Y-92670D01*
X-71899Y-92692D01*
X-71954Y-92714D01*
X-71993Y-92737D01*
X-72026Y-92759D01*
X-72043Y-92775D01*
X-72048Y-92781D01*
X-72093Y-92836D01*
X-72126Y-92897D01*
X-72148Y-92958D01*
X-72165Y-93020D01*
X-72176Y-93075D01*
X-72181Y-93125D01*
Y-93153D01*
Y-93158D01*
Y-93164D01*
X-72176Y-93247D01*
X-72159Y-93325D01*
X-72132Y-93402D01*
X-72104Y-93469D01*
X-72076Y-93530D01*
X-72048Y-93575D01*
X-72032Y-93602D01*
X-72026Y-93613D01*
X-72004Y-93647D01*
X-71971Y-93686D01*
X-71926Y-93735D01*
X-71882Y-93780D01*
X-71782Y-93885D01*
X-71682Y-93991D01*
X-71582Y-94091D01*
X-71538Y-94135D01*
X-71493Y-94168D01*
X-71460Y-94202D01*
X-71438Y-94224D01*
X-71421Y-94241D01*
X-71416Y-94246D01*
X-71305Y-94352D01*
X-71205Y-94451D01*
X-71110Y-94546D01*
X-71027Y-94629D01*
X-70949Y-94712D01*
X-70883Y-94790D01*
X-70822Y-94857D01*
X-70772Y-94923D01*
X-70727Y-94979D01*
X-70689Y-95029D01*
X-70655Y-95068D01*
X-70633Y-95106D01*
X-70611Y-95129D01*
X-70600Y-95151D01*
X-70589Y-95162D01*
Y-95167D01*
X-70517Y-95295D01*
X-70461Y-95428D01*
X-70417Y-95550D01*
X-70383Y-95661D01*
X-70361Y-95761D01*
X-70356Y-95800D01*
X-70350Y-95833D01*
X-70345Y-95861D01*
X-70339Y-95883D01*
Y-95894D01*
Y-95900D01*
X-72920D01*
Y-95217D01*
X-71455D01*
X-71499Y-95145D01*
X-71549Y-95084D01*
X-71571Y-95056D01*
X-71588Y-95034D01*
X-71599Y-95023D01*
X-71604Y-95018D01*
X-71627Y-94995D01*
X-71649Y-94968D01*
X-71715Y-94907D01*
X-71788Y-94834D01*
X-71860Y-94762D01*
X-71932Y-94696D01*
X-71993Y-94640D01*
X-72015Y-94618D01*
X-72032Y-94601D01*
X-72043Y-94596D01*
X-72048Y-94590D01*
X-72170Y-94474D01*
X-72270Y-94379D01*
X-72354Y-94291D01*
X-72420Y-94224D01*
X-72470Y-94168D01*
X-72503Y-94130D01*
X-72526Y-94102D01*
X-72531Y-94096D01*
X-72603Y-94002D01*
X-72664Y-93913D01*
X-72714Y-93830D01*
X-72753Y-93758D01*
X-72786Y-93697D01*
X-72809Y-93647D01*
X-72820Y-93619D01*
X-72825Y-93608D01*
X-72859Y-93519D01*
X-72881Y-93430D01*
X-72897Y-93347D01*
X-72909Y-93269D01*
X-72914Y-93208D01*
X-72920Y-93158D01*
Y-93125D01*
Y-93114D01*
X-72914Y-93031D01*
X-72903Y-92947D01*
X-72892Y-92870D01*
X-72870Y-92798D01*
X-72814Y-92670D01*
X-72759Y-92559D01*
X-72725Y-92509D01*
X-72698Y-92470D01*
X-72670Y-92431D01*
X-72642Y-92404D01*
X-72620Y-92381D01*
X-72609Y-92359D01*
X-72598Y-92354D01*
X-72592Y-92348D01*
X-72531Y-92292D01*
X-72459Y-92243D01*
X-72392Y-92204D01*
X-72315Y-92170D01*
X-72170Y-92115D01*
X-72026Y-92076D01*
X-71960Y-92065D01*
X-71899Y-92054D01*
X-71843Y-92048D01*
X-71793Y-92043D01*
X-71754Y-92037D01*
X-71699D01*
X-71604Y-92043D01*
D02*
G37*
G36*
X-40152Y-95900D02*
X-40891D01*
Y-94507D01*
X-40896Y-94385D01*
X-40902Y-94279D01*
X-40913Y-94185D01*
X-40924Y-94113D01*
X-40935Y-94052D01*
X-40946Y-94013D01*
X-40957Y-93985D01*
Y-93980D01*
X-40985Y-93919D01*
X-41018Y-93863D01*
X-41052Y-93819D01*
X-41090Y-93780D01*
X-41118Y-93752D01*
X-41146Y-93730D01*
X-41163Y-93719D01*
X-41168Y-93713D01*
X-41224Y-93680D01*
X-41279Y-93658D01*
X-41335Y-93641D01*
X-41385Y-93630D01*
X-41429Y-93625D01*
X-41462Y-93619D01*
X-41496D01*
X-41551Y-93625D01*
X-41607Y-93630D01*
X-41651Y-93641D01*
X-41690Y-93652D01*
X-41718Y-93669D01*
X-41745Y-93680D01*
X-41756Y-93686D01*
X-41762Y-93691D01*
X-41801Y-93719D01*
X-41829Y-93752D01*
X-41879Y-93813D01*
X-41890Y-93841D01*
X-41901Y-93858D01*
X-41912Y-93874D01*
Y-93880D01*
X-41917Y-93908D01*
X-41928Y-93935D01*
X-41940Y-94013D01*
X-41945Y-94107D01*
X-41951Y-94202D01*
X-41956Y-94291D01*
Y-94329D01*
Y-94363D01*
Y-94396D01*
Y-94418D01*
Y-94429D01*
Y-94435D01*
Y-95900D01*
X-42694D01*
Y-94268D01*
Y-94135D01*
X-42689Y-94024D01*
X-42683Y-93930D01*
X-42678Y-93852D01*
X-42667Y-93797D01*
X-42661Y-93752D01*
X-42656Y-93724D01*
Y-93719D01*
X-42639Y-93652D01*
X-42617Y-93591D01*
X-42595Y-93536D01*
X-42567Y-93486D01*
X-42544Y-93447D01*
X-42528Y-93419D01*
X-42517Y-93397D01*
X-42511Y-93391D01*
X-42467Y-93341D01*
X-42417Y-93291D01*
X-42367Y-93253D01*
X-42317Y-93219D01*
X-42273Y-93192D01*
X-42234Y-93169D01*
X-42211Y-93158D01*
X-42200Y-93153D01*
X-42123Y-93119D01*
X-42039Y-93097D01*
X-41967Y-93075D01*
X-41895Y-93064D01*
X-41834Y-93058D01*
X-41784Y-93053D01*
X-41740D01*
X-41651Y-93058D01*
X-41562Y-93069D01*
X-41479Y-93092D01*
X-41401Y-93119D01*
X-41257Y-93186D01*
X-41190Y-93225D01*
X-41129Y-93264D01*
X-41079Y-93308D01*
X-41029Y-93347D01*
X-40990Y-93380D01*
X-40952Y-93414D01*
X-40929Y-93441D01*
X-40907Y-93463D01*
X-40896Y-93475D01*
X-40891Y-93480D01*
Y-92059D01*
X-40152D01*
Y-95900D01*
D02*
G37*
G36*
X-67447Y-93852D02*
X-68186D01*
Y-93114D01*
X-67447D01*
Y-93852D01*
D02*
G37*
G36*
X-44337Y-93064D02*
X-44248Y-93069D01*
X-44171Y-93086D01*
X-44093Y-93097D01*
X-44026Y-93114D01*
X-43965Y-93136D01*
X-43910Y-93153D01*
X-43865Y-93169D01*
X-43821Y-93192D01*
X-43788Y-93208D01*
X-43754Y-93219D01*
X-43732Y-93236D01*
X-43716Y-93242D01*
X-43710Y-93253D01*
X-43705D01*
X-43610Y-93336D01*
X-43532Y-93430D01*
X-43466Y-93530D01*
X-43410Y-93625D01*
X-43371Y-93713D01*
X-43355Y-93752D01*
X-43344Y-93786D01*
X-43333Y-93813D01*
X-43327Y-93835D01*
X-43321Y-93846D01*
Y-93852D01*
X-43982Y-93974D01*
X-44010Y-93908D01*
X-44038Y-93852D01*
X-44065Y-93802D01*
X-44098Y-93763D01*
X-44121Y-93735D01*
X-44143Y-93719D01*
X-44154Y-93708D01*
X-44160Y-93702D01*
X-44204Y-93674D01*
X-44254Y-93652D01*
X-44309Y-93641D01*
X-44359Y-93630D01*
X-44404Y-93625D01*
X-44437Y-93619D01*
X-44470D01*
X-44570Y-93625D01*
X-44653Y-93636D01*
X-44720Y-93647D01*
X-44776Y-93663D01*
X-44815Y-93686D01*
X-44842Y-93697D01*
X-44859Y-93708D01*
X-44864Y-93713D01*
X-44903Y-93752D01*
X-44931Y-93797D01*
X-44948Y-93846D01*
X-44964Y-93897D01*
X-44970Y-93946D01*
X-44975Y-93985D01*
Y-94007D01*
Y-94019D01*
Y-94091D01*
X-44937Y-94107D01*
X-44887Y-94124D01*
X-44781Y-94157D01*
X-44659Y-94185D01*
X-44543Y-94213D01*
X-44431Y-94240D01*
X-44382Y-94252D01*
X-44337Y-94257D01*
X-44304Y-94263D01*
X-44276Y-94268D01*
X-44260Y-94274D01*
X-44254D01*
X-44121Y-94302D01*
X-43999Y-94329D01*
X-43899Y-94357D01*
X-43815Y-94385D01*
X-43749Y-94413D01*
X-43705Y-94429D01*
X-43677Y-94440D01*
X-43666Y-94446D01*
X-43593Y-94485D01*
X-43532Y-94529D01*
X-43477Y-94579D01*
X-43438Y-94624D01*
X-43399Y-94662D01*
X-43377Y-94696D01*
X-43360Y-94718D01*
X-43355Y-94729D01*
X-43316Y-94801D01*
X-43288Y-94873D01*
X-43272Y-94940D01*
X-43260Y-95006D01*
X-43249Y-95062D01*
X-43244Y-95106D01*
Y-95134D01*
Y-95145D01*
X-43249Y-95212D01*
X-43255Y-95273D01*
X-43283Y-95389D01*
X-43321Y-95489D01*
X-43366Y-95573D01*
X-43410Y-95639D01*
X-43449Y-95689D01*
X-43477Y-95722D01*
X-43488Y-95728D01*
Y-95733D01*
X-43588Y-95811D01*
X-43699Y-95867D01*
X-43810Y-95906D01*
X-43921Y-95933D01*
X-44015Y-95950D01*
X-44060Y-95955D01*
X-44093D01*
X-44126Y-95961D01*
X-44165D01*
X-44254Y-95955D01*
X-44343Y-95944D01*
X-44420Y-95933D01*
X-44487Y-95917D01*
X-44543Y-95900D01*
X-44587Y-95883D01*
X-44615Y-95878D01*
X-44626Y-95872D01*
X-44704Y-95833D01*
X-44781Y-95795D01*
X-44848Y-95745D01*
X-44909Y-95700D01*
X-44959Y-95661D01*
X-44998Y-95628D01*
X-45020Y-95606D01*
X-45031Y-95600D01*
X-45037Y-95622D01*
X-45048Y-95650D01*
X-45053Y-95673D01*
X-45059Y-95678D01*
Y-95684D01*
X-45075Y-95733D01*
X-45086Y-95778D01*
X-45098Y-95817D01*
X-45109Y-95845D01*
X-45120Y-95867D01*
X-45125Y-95889D01*
X-45131Y-95894D01*
Y-95900D01*
X-45858D01*
X-45825Y-95828D01*
X-45797Y-95761D01*
X-45775Y-95700D01*
X-45752Y-95645D01*
X-45741Y-95600D01*
X-45730Y-95561D01*
X-45725Y-95539D01*
Y-95534D01*
X-45714Y-95461D01*
X-45708Y-95373D01*
X-45697Y-95284D01*
Y-95195D01*
X-45691Y-95117D01*
Y-95051D01*
Y-95023D01*
Y-95006D01*
Y-94995D01*
Y-94990D01*
X-45702Y-94130D01*
Y-94041D01*
X-45697Y-93963D01*
X-45691Y-93891D01*
X-45686Y-93824D01*
X-45680Y-93763D01*
X-45669Y-93708D01*
X-45664Y-93658D01*
X-45652Y-93619D01*
X-45641Y-93580D01*
X-45636Y-93552D01*
X-45619Y-93502D01*
X-45608Y-93480D01*
X-45603Y-93469D01*
X-45558Y-93408D01*
X-45508Y-93347D01*
X-45453Y-93297D01*
X-45392Y-93253D01*
X-45342Y-93219D01*
X-45297Y-93197D01*
X-45270Y-93181D01*
X-45264Y-93175D01*
X-45259D01*
X-45208Y-93153D01*
X-45159Y-93136D01*
X-45042Y-93103D01*
X-44920Y-93081D01*
X-44803Y-93069D01*
X-44692Y-93058D01*
X-44648D01*
X-44609Y-93053D01*
X-44426D01*
X-44337Y-93064D01*
D02*
G37*
G36*
X-59256Y-95900D02*
X-59971D01*
Y-92881D01*
X-60726Y-95900D01*
X-61476D01*
X-62230Y-92881D01*
X-62236Y-95900D01*
X-62952D01*
Y-92059D01*
X-61786D01*
X-61104Y-94685D01*
X-60416Y-92059D01*
X-59256D01*
Y-95900D01*
D02*
G37*
G36*
X-50370Y-93058D02*
X-50276Y-93069D01*
X-50181Y-93092D01*
X-50098Y-93114D01*
X-50015Y-93142D01*
X-49943Y-93175D01*
X-49870Y-93214D01*
X-49810Y-93247D01*
X-49754Y-93286D01*
X-49704Y-93325D01*
X-49660Y-93358D01*
X-49626Y-93386D01*
X-49599Y-93408D01*
X-49576Y-93430D01*
X-49565Y-93441D01*
X-49560Y-93447D01*
X-49499Y-93525D01*
X-49443Y-93608D01*
X-49393Y-93691D01*
X-49349Y-93780D01*
X-49316Y-93874D01*
X-49288Y-93963D01*
X-49243Y-94135D01*
X-49227Y-94218D01*
X-49216Y-94291D01*
X-49210Y-94357D01*
X-49204Y-94413D01*
X-49199Y-94463D01*
Y-94501D01*
Y-94524D01*
Y-94529D01*
X-49204Y-94635D01*
X-49210Y-94740D01*
X-49227Y-94834D01*
X-49243Y-94923D01*
X-49260Y-95012D01*
X-49288Y-95090D01*
X-49310Y-95162D01*
X-49338Y-95228D01*
X-49360Y-95289D01*
X-49388Y-95339D01*
X-49410Y-95384D01*
X-49426Y-95423D01*
X-49449Y-95451D01*
X-49460Y-95473D01*
X-49465Y-95484D01*
X-49471Y-95489D01*
X-49543Y-95573D01*
X-49615Y-95645D01*
X-49698Y-95706D01*
X-49787Y-95761D01*
X-49876Y-95806D01*
X-49965Y-95845D01*
X-50054Y-95878D01*
X-50143Y-95900D01*
X-50220Y-95922D01*
X-50298Y-95933D01*
X-50370Y-95944D01*
X-50431Y-95955D01*
X-50481D01*
X-50514Y-95961D01*
X-50548D01*
X-50709Y-95950D01*
X-50858Y-95928D01*
X-50986Y-95894D01*
X-51097Y-95856D01*
X-51147Y-95833D01*
X-51186Y-95817D01*
X-51225Y-95800D01*
X-51253Y-95784D01*
X-51275Y-95767D01*
X-51297Y-95761D01*
X-51302Y-95750D01*
X-51308D01*
X-51413Y-95661D01*
X-51508Y-95567D01*
X-51586Y-95461D01*
X-51647Y-95362D01*
X-51696Y-95273D01*
X-51713Y-95234D01*
X-51730Y-95201D01*
X-51741Y-95173D01*
X-51752Y-95151D01*
X-51758Y-95140D01*
Y-95134D01*
X-51025Y-95012D01*
X-50997Y-95084D01*
X-50969Y-95151D01*
X-50942Y-95201D01*
X-50908Y-95245D01*
X-50886Y-95278D01*
X-50864Y-95301D01*
X-50847Y-95312D01*
X-50842Y-95317D01*
X-50797Y-95350D01*
X-50747Y-95373D01*
X-50697Y-95389D01*
X-50653Y-95401D01*
X-50614Y-95406D01*
X-50581Y-95412D01*
X-50553D01*
X-50464Y-95406D01*
X-50381Y-95384D01*
X-50303Y-95356D01*
X-50242Y-95323D01*
X-50192Y-95289D01*
X-50159Y-95262D01*
X-50131Y-95240D01*
X-50126Y-95234D01*
X-50070Y-95162D01*
X-50032Y-95079D01*
X-49998Y-94990D01*
X-49976Y-94912D01*
X-49965Y-94834D01*
X-49959Y-94779D01*
X-49954Y-94757D01*
Y-94740D01*
Y-94729D01*
Y-94723D01*
X-51796D01*
Y-94568D01*
X-51785Y-94429D01*
X-51769Y-94296D01*
X-51746Y-94174D01*
X-51719Y-94057D01*
X-51691Y-93958D01*
X-51658Y-93863D01*
X-51624Y-93780D01*
X-51591Y-93708D01*
X-51558Y-93641D01*
X-51530Y-93591D01*
X-51502Y-93547D01*
X-51480Y-93514D01*
X-51463Y-93486D01*
X-51452Y-93475D01*
X-51447Y-93469D01*
X-51380Y-93397D01*
X-51302Y-93330D01*
X-51225Y-93275D01*
X-51147Y-93230D01*
X-51064Y-93186D01*
X-50981Y-93153D01*
X-50903Y-93125D01*
X-50825Y-93103D01*
X-50753Y-93086D01*
X-50686Y-93075D01*
X-50625Y-93064D01*
X-50575Y-93058D01*
X-50531Y-93053D01*
X-50470D01*
X-50370Y-93058D01*
D02*
G37*
G36*
X-35368Y-95900D02*
X-36145D01*
Y-92059D01*
X-35368D01*
Y-95900D01*
D02*
G37*
G36*
X-55393D02*
X-56170D01*
Y-94296D01*
X-56419D01*
X-56497Y-94302D01*
X-56564Y-94307D01*
X-56619Y-94318D01*
X-56664Y-94324D01*
X-56691Y-94335D01*
X-56708Y-94340D01*
X-56714D01*
X-56758Y-94363D01*
X-56802Y-94385D01*
X-56841Y-94413D01*
X-56880Y-94435D01*
X-56908Y-94463D01*
X-56930Y-94485D01*
X-56941Y-94496D01*
X-56947Y-94501D01*
X-56969Y-94529D01*
X-56997Y-94557D01*
X-57058Y-94640D01*
X-57124Y-94729D01*
X-57196Y-94829D01*
X-57258Y-94918D01*
X-57285Y-94962D01*
X-57307Y-94995D01*
X-57330Y-95023D01*
X-57346Y-95045D01*
X-57352Y-95062D01*
X-57358Y-95068D01*
X-57912Y-95900D01*
X-58845D01*
X-58373Y-95151D01*
X-58323Y-95073D01*
X-58273Y-94995D01*
X-58229Y-94929D01*
X-58184Y-94868D01*
X-58146Y-94812D01*
X-58112Y-94757D01*
X-58046Y-94674D01*
X-57996Y-94607D01*
X-57962Y-94563D01*
X-57935Y-94535D01*
X-57929Y-94529D01*
X-57868Y-94463D01*
X-57796Y-94402D01*
X-57729Y-94352D01*
X-57663Y-94302D01*
X-57607Y-94263D01*
X-57563Y-94235D01*
X-57529Y-94213D01*
X-57524Y-94207D01*
X-57518D01*
X-57613Y-94191D01*
X-57696Y-94168D01*
X-57774Y-94146D01*
X-57851Y-94118D01*
X-57918Y-94091D01*
X-57979Y-94063D01*
X-58040Y-94035D01*
X-58090Y-94002D01*
X-58135Y-93974D01*
X-58173Y-93946D01*
X-58207Y-93919D01*
X-58229Y-93897D01*
X-58251Y-93880D01*
X-58268Y-93863D01*
X-58273Y-93858D01*
X-58279Y-93852D01*
X-58323Y-93797D01*
X-58362Y-93741D01*
X-58429Y-93619D01*
X-58473Y-93502D01*
X-58501Y-93386D01*
X-58523Y-93286D01*
X-58529Y-93247D01*
Y-93208D01*
X-58534Y-93181D01*
Y-93153D01*
Y-93142D01*
Y-93136D01*
X-58529Y-93014D01*
X-58506Y-92897D01*
X-58479Y-92798D01*
X-58451Y-92709D01*
X-58417Y-92637D01*
X-58390Y-92581D01*
X-58379Y-92564D01*
X-58368Y-92548D01*
X-58362Y-92542D01*
Y-92537D01*
X-58295Y-92442D01*
X-58223Y-92365D01*
X-58151Y-92304D01*
X-58079Y-92248D01*
X-58012Y-92215D01*
X-57962Y-92187D01*
X-57929Y-92170D01*
X-57924Y-92165D01*
X-57918D01*
X-57863Y-92148D01*
X-57802Y-92132D01*
X-57663Y-92104D01*
X-57513Y-92087D01*
X-57369Y-92071D01*
X-57296D01*
X-57235Y-92065D01*
X-57174D01*
X-57124Y-92059D01*
X-55393D01*
Y-95900D01*
D02*
G37*
G36*
X-67447Y-95900D02*
X-68186D01*
Y-95162D01*
X-67447D01*
Y-95900D01*
D02*
G37*
G36*
X-73575D02*
X-74313D01*
Y-95162D01*
X-73575D01*
Y-95900D01*
D02*
G37*
G36*
X-77671D02*
X-78492D01*
X-78808Y-95029D01*
X-80351D01*
X-80684Y-95900D01*
X-81522D01*
X-79979Y-92059D01*
X-79158D01*
X-77671Y-95900D01*
D02*
G37*
G36*
X-47229Y-93064D02*
X-47134Y-93075D01*
X-47046Y-93092D01*
X-46968Y-93108D01*
X-46896Y-93131D01*
X-46829Y-93153D01*
X-46768Y-93175D01*
X-46718Y-93203D01*
X-46674Y-93225D01*
X-46635Y-93247D01*
X-46607Y-93264D01*
X-46579Y-93280D01*
X-46563Y-93291D01*
X-46557Y-93297D01*
X-46552Y-93303D01*
X-46502Y-93347D01*
X-46457Y-93397D01*
X-46418Y-93447D01*
X-46391Y-93502D01*
X-46335Y-93602D01*
X-46302Y-93697D01*
X-46285Y-93780D01*
X-46280Y-93819D01*
X-46274Y-93846D01*
X-46269Y-93874D01*
Y-93891D01*
Y-93902D01*
Y-93908D01*
X-46274Y-93980D01*
X-46285Y-94046D01*
X-46296Y-94113D01*
X-46319Y-94174D01*
X-46374Y-94279D01*
X-46435Y-94368D01*
X-46491Y-94440D01*
X-46546Y-94490D01*
X-46568Y-94512D01*
X-46579Y-94524D01*
X-46591Y-94529D01*
X-46596Y-94535D01*
X-46646Y-94563D01*
X-46713Y-94596D01*
X-46790Y-94629D01*
X-46874Y-94657D01*
X-46962Y-94690D01*
X-47057Y-94718D01*
X-47251Y-94773D01*
X-47345Y-94801D01*
X-47434Y-94823D01*
X-47512Y-94845D01*
X-47584Y-94862D01*
X-47645Y-94873D01*
X-47689Y-94884D01*
X-47717Y-94895D01*
X-47728D01*
X-47795Y-94912D01*
X-47845Y-94929D01*
X-47889Y-94945D01*
X-47923Y-94956D01*
X-47945Y-94973D01*
X-47961Y-94979D01*
X-47972Y-94990D01*
X-48006Y-95034D01*
X-48022Y-95079D01*
X-48028Y-95112D01*
Y-95123D01*
Y-95129D01*
X-48022Y-95173D01*
X-48011Y-95212D01*
X-47995Y-95245D01*
X-47978Y-95273D01*
X-47961Y-95295D01*
X-47945Y-95312D01*
X-47934Y-95323D01*
X-47928Y-95328D01*
X-47867Y-95362D01*
X-47800Y-95384D01*
X-47728Y-95406D01*
X-47662Y-95417D01*
X-47601Y-95423D01*
X-47545Y-95428D01*
X-47501D01*
X-47406Y-95423D01*
X-47329Y-95412D01*
X-47256Y-95395D01*
X-47201Y-95373D01*
X-47157Y-95356D01*
X-47123Y-95339D01*
X-47101Y-95328D01*
X-47096Y-95323D01*
X-47046Y-95278D01*
X-47007Y-95223D01*
X-46973Y-95173D01*
X-46946Y-95117D01*
X-46929Y-95068D01*
X-46918Y-95029D01*
X-46907Y-95006D01*
Y-94995D01*
X-46169Y-95106D01*
X-46219Y-95245D01*
X-46280Y-95373D01*
X-46346Y-95478D01*
X-46418Y-95567D01*
X-46485Y-95639D01*
X-46546Y-95689D01*
X-46563Y-95711D01*
X-46579Y-95722D01*
X-46591Y-95728D01*
X-46596Y-95733D01*
X-46663Y-95772D01*
X-46729Y-95811D01*
X-46879Y-95867D01*
X-47029Y-95906D01*
X-47173Y-95933D01*
X-47240Y-95944D01*
X-47301Y-95950D01*
X-47356Y-95955D01*
X-47406D01*
X-47445Y-95961D01*
X-47501D01*
X-47612Y-95955D01*
X-47717Y-95950D01*
X-47817Y-95933D01*
X-47911Y-95917D01*
X-47995Y-95900D01*
X-48072Y-95872D01*
X-48145Y-95850D01*
X-48206Y-95822D01*
X-48261Y-95800D01*
X-48311Y-95772D01*
X-48350Y-95750D01*
X-48383Y-95733D01*
X-48411Y-95711D01*
X-48428Y-95700D01*
X-48439Y-95695D01*
X-48444Y-95689D01*
X-48500Y-95634D01*
X-48550Y-95578D01*
X-48594Y-95523D01*
X-48633Y-95467D01*
X-48661Y-95412D01*
X-48688Y-95356D01*
X-48727Y-95256D01*
X-48749Y-95162D01*
X-48755Y-95123D01*
X-48761Y-95095D01*
X-48766Y-95068D01*
Y-95045D01*
Y-95034D01*
Y-95029D01*
X-48755Y-94907D01*
X-48727Y-94796D01*
X-48694Y-94701D01*
X-48649Y-94624D01*
X-48605Y-94563D01*
X-48572Y-94518D01*
X-48544Y-94496D01*
X-48533Y-94485D01*
X-48483Y-94451D01*
X-48433Y-94413D01*
X-48372Y-94385D01*
X-48305Y-94352D01*
X-48172Y-94296D01*
X-48033Y-94246D01*
X-47911Y-94207D01*
X-47856Y-94196D01*
X-47806Y-94179D01*
X-47767Y-94168D01*
X-47739Y-94163D01*
X-47717Y-94157D01*
X-47712D01*
X-47606Y-94130D01*
X-47512Y-94107D01*
X-47429Y-94085D01*
X-47356Y-94063D01*
X-47290Y-94046D01*
X-47234Y-94030D01*
X-47190Y-94013D01*
X-47146Y-94002D01*
X-47112Y-93985D01*
X-47084Y-93974D01*
X-47062Y-93969D01*
X-47051Y-93958D01*
X-47029Y-93952D01*
X-47023Y-93946D01*
X-47001Y-93924D01*
X-46984Y-93902D01*
X-46962Y-93858D01*
X-46951Y-93824D01*
Y-93819D01*
Y-93813D01*
X-46957Y-93780D01*
X-46962Y-93752D01*
X-46996Y-93702D01*
X-47023Y-93674D01*
X-47029Y-93663D01*
X-47034D01*
X-47090Y-93636D01*
X-47151Y-93613D01*
X-47218Y-93602D01*
X-47290Y-93591D01*
X-47351Y-93586D01*
X-47401Y-93580D01*
X-47451D01*
X-47534Y-93586D01*
X-47606Y-93591D01*
X-47667Y-93608D01*
X-47717Y-93625D01*
X-47756Y-93641D01*
X-47784Y-93652D01*
X-47800Y-93663D01*
X-47806Y-93669D01*
X-47850Y-93702D01*
X-47884Y-93741D01*
X-47917Y-93780D01*
X-47939Y-93824D01*
X-47956Y-93858D01*
X-47967Y-93885D01*
X-47978Y-93908D01*
Y-93913D01*
X-48672Y-93786D01*
X-48627Y-93658D01*
X-48566Y-93547D01*
X-48505Y-93452D01*
X-48439Y-93380D01*
X-48383Y-93319D01*
X-48333Y-93275D01*
X-48300Y-93253D01*
X-48294Y-93242D01*
X-48289D01*
X-48233Y-93208D01*
X-48172Y-93181D01*
X-48039Y-93131D01*
X-47900Y-93097D01*
X-47761Y-93075D01*
X-47695Y-93069D01*
X-47634Y-93064D01*
X-47578Y-93058D01*
X-47534Y-93053D01*
X-47329D01*
X-47229Y-93064D01*
D02*
G37*
G36*
X-64917Y-91993D02*
X-64772Y-92010D01*
X-64645Y-92032D01*
X-64534Y-92054D01*
X-64484Y-92071D01*
X-64439Y-92082D01*
X-64406Y-92093D01*
X-64373Y-92104D01*
X-64350Y-92115D01*
X-64334Y-92120D01*
X-64323Y-92126D01*
X-64317D01*
X-64206Y-92181D01*
X-64112Y-92243D01*
X-64029Y-92309D01*
X-63962Y-92370D01*
X-63907Y-92426D01*
X-63873Y-92470D01*
X-63845Y-92503D01*
X-63840Y-92509D01*
Y-92514D01*
X-63784Y-92609D01*
X-63745Y-92709D01*
X-63718Y-92803D01*
X-63701Y-92886D01*
X-63690Y-92958D01*
X-63679Y-93014D01*
Y-93036D01*
Y-93053D01*
Y-93058D01*
Y-93064D01*
X-63684Y-93147D01*
X-63696Y-93230D01*
X-63712Y-93303D01*
X-63734Y-93375D01*
X-63790Y-93508D01*
X-63857Y-93625D01*
X-63884Y-93674D01*
X-63918Y-93713D01*
X-63945Y-93752D01*
X-63973Y-93786D01*
X-63995Y-93808D01*
X-64012Y-93824D01*
X-64023Y-93835D01*
X-64029Y-93841D01*
X-64078Y-93880D01*
X-64140Y-93919D01*
X-64201Y-93958D01*
X-64273Y-93991D01*
X-64411Y-94057D01*
X-64556Y-94113D01*
X-64628Y-94135D01*
X-64689Y-94157D01*
X-64750Y-94174D01*
X-64800Y-94191D01*
X-64839Y-94202D01*
X-64872Y-94213D01*
X-64894Y-94218D01*
X-64900D01*
X-64989Y-94241D01*
X-65066Y-94263D01*
X-65139Y-94279D01*
X-65205Y-94296D01*
X-65261Y-94313D01*
X-65311Y-94324D01*
X-65355Y-94340D01*
X-65394Y-94352D01*
X-65427Y-94357D01*
X-65455Y-94368D01*
X-65494Y-94379D01*
X-65516Y-94390D01*
X-65522D01*
X-65594Y-94418D01*
X-65649Y-94446D01*
X-65699Y-94474D01*
X-65738Y-94501D01*
X-65766Y-94524D01*
X-65782Y-94540D01*
X-65794Y-94551D01*
X-65799Y-94557D01*
X-65827Y-94596D01*
X-65849Y-94635D01*
X-65860Y-94674D01*
X-65871Y-94707D01*
X-65877Y-94740D01*
X-65882Y-94768D01*
Y-94784D01*
Y-94790D01*
X-65877Y-94868D01*
X-65855Y-94934D01*
X-65821Y-95001D01*
X-65788Y-95056D01*
X-65749Y-95101D01*
X-65721Y-95134D01*
X-65699Y-95156D01*
X-65688Y-95162D01*
X-65610Y-95212D01*
X-65522Y-95251D01*
X-65427Y-95278D01*
X-65338Y-95295D01*
X-65255Y-95306D01*
X-65188Y-95317D01*
X-65127D01*
X-65000Y-95312D01*
X-64889Y-95289D01*
X-64794Y-95262D01*
X-64711Y-95228D01*
X-64645Y-95195D01*
X-64600Y-95167D01*
X-64573Y-95145D01*
X-64561Y-95140D01*
X-64489Y-95062D01*
X-64434Y-94979D01*
X-64384Y-94884D01*
X-64350Y-94790D01*
X-64323Y-94707D01*
X-64301Y-94640D01*
X-64295Y-94618D01*
Y-94596D01*
X-64289Y-94585D01*
Y-94579D01*
X-63535Y-94651D01*
X-63551Y-94768D01*
X-63573Y-94879D01*
X-63607Y-94984D01*
X-63635Y-95079D01*
X-63673Y-95167D01*
X-63712Y-95251D01*
X-63751Y-95323D01*
X-63790Y-95389D01*
X-63829Y-95445D01*
X-63868Y-95495D01*
X-63901Y-95539D01*
X-63934Y-95578D01*
X-63956Y-95606D01*
X-63979Y-95622D01*
X-63990Y-95634D01*
X-63995Y-95639D01*
X-64073Y-95700D01*
X-64156Y-95750D01*
X-64245Y-95795D01*
X-64339Y-95833D01*
X-64428Y-95861D01*
X-64522Y-95889D01*
X-64706Y-95928D01*
X-64789Y-95944D01*
X-64867Y-95955D01*
X-64933Y-95961D01*
X-64994Y-95967D01*
X-65044Y-95972D01*
X-65116D01*
X-65294Y-95967D01*
X-65455Y-95950D01*
X-65599Y-95928D01*
X-65660Y-95917D01*
X-65721Y-95900D01*
X-65771Y-95889D01*
X-65816Y-95878D01*
X-65855Y-95867D01*
X-65888Y-95856D01*
X-65916Y-95845D01*
X-65932Y-95839D01*
X-65943Y-95833D01*
X-65949D01*
X-66071Y-95772D01*
X-66171Y-95706D01*
X-66265Y-95639D01*
X-66337Y-95567D01*
X-66393Y-95506D01*
X-66437Y-95451D01*
X-66460Y-95417D01*
X-66471Y-95412D01*
Y-95406D01*
X-66532Y-95295D01*
X-66582Y-95190D01*
X-66615Y-95084D01*
X-66637Y-94984D01*
X-66648Y-94907D01*
X-66654Y-94868D01*
X-66659Y-94840D01*
Y-94818D01*
Y-94801D01*
Y-94790D01*
Y-94784D01*
X-66654Y-94651D01*
X-66637Y-94535D01*
X-66609Y-94429D01*
X-66582Y-94340D01*
X-66554Y-94268D01*
X-66526Y-94218D01*
X-66509Y-94185D01*
X-66504Y-94174D01*
X-66443Y-94085D01*
X-66371Y-94007D01*
X-66299Y-93941D01*
X-66232Y-93885D01*
X-66171Y-93841D01*
X-66121Y-93808D01*
X-66088Y-93786D01*
X-66082Y-93780D01*
X-66076D01*
X-66021Y-93752D01*
X-65965Y-93724D01*
X-65832Y-93674D01*
X-65694Y-93630D01*
X-65560Y-93586D01*
X-65499Y-93569D01*
X-65438Y-93552D01*
X-65383Y-93536D01*
X-65338Y-93525D01*
X-65299Y-93514D01*
X-65272Y-93508D01*
X-65250Y-93502D01*
X-65244D01*
X-65144Y-93475D01*
X-65055Y-93453D01*
X-64972Y-93430D01*
X-64894Y-93408D01*
X-64833Y-93386D01*
X-64772Y-93364D01*
X-64722Y-93341D01*
X-64678Y-93325D01*
X-64639Y-93308D01*
X-64611Y-93291D01*
X-64584Y-93280D01*
X-64567Y-93269D01*
X-64539Y-93253D01*
X-64534Y-93247D01*
X-64495Y-93208D01*
X-64467Y-93169D01*
X-64450Y-93131D01*
X-64439Y-93092D01*
X-64428Y-93064D01*
X-64423Y-93036D01*
Y-93020D01*
Y-93014D01*
X-64428Y-92958D01*
X-64439Y-92914D01*
X-64461Y-92870D01*
X-64484Y-92836D01*
X-64506Y-92809D01*
X-64528Y-92792D01*
X-64539Y-92781D01*
X-64545Y-92775D01*
X-64622Y-92725D01*
X-64706Y-92692D01*
X-64794Y-92664D01*
X-64878Y-92648D01*
X-64950Y-92637D01*
X-65011Y-92631D01*
X-65066D01*
X-65183Y-92637D01*
X-65283Y-92653D01*
X-65366Y-92676D01*
X-65433Y-92698D01*
X-65488Y-92720D01*
X-65527Y-92742D01*
X-65549Y-92759D01*
X-65555Y-92764D01*
X-65610Y-92820D01*
X-65660Y-92886D01*
X-65699Y-92953D01*
X-65727Y-93025D01*
X-65749Y-93086D01*
X-65760Y-93136D01*
X-65771Y-93175D01*
Y-93181D01*
Y-93186D01*
X-66548Y-93158D01*
X-66543Y-93058D01*
X-66526Y-92970D01*
X-66504Y-92881D01*
X-66476Y-92803D01*
X-66448Y-92725D01*
X-66415Y-92653D01*
X-66382Y-92592D01*
X-66348Y-92531D01*
X-66310Y-92481D01*
X-66276Y-92437D01*
X-66243Y-92398D01*
X-66215Y-92365D01*
X-66193Y-92343D01*
X-66176Y-92326D01*
X-66165Y-92315D01*
X-66160Y-92309D01*
X-66088Y-92254D01*
X-66010Y-92204D01*
X-65927Y-92159D01*
X-65838Y-92120D01*
X-65749Y-92093D01*
X-65660Y-92065D01*
X-65483Y-92026D01*
X-65399Y-92015D01*
X-65327Y-92004D01*
X-65255Y-91998D01*
X-65194Y-91993D01*
X-65144Y-91987D01*
X-65078D01*
X-64917Y-91993D01*
D02*
G37*
G36*
X-76050Y-92043D02*
X-75955Y-92048D01*
X-75867Y-92065D01*
X-75783Y-92082D01*
X-75706Y-92104D01*
X-75634Y-92126D01*
X-75573Y-92154D01*
X-75517Y-92176D01*
X-75462Y-92204D01*
X-75417Y-92232D01*
X-75384Y-92254D01*
X-75351Y-92276D01*
X-75328Y-92292D01*
X-75312Y-92309D01*
X-75301Y-92315D01*
X-75295Y-92320D01*
X-75245Y-92376D01*
X-75195Y-92431D01*
X-75156Y-92492D01*
X-75123Y-92548D01*
X-75068Y-92670D01*
X-75034Y-92781D01*
X-75012Y-92881D01*
X-75007Y-92925D01*
X-75001Y-92958D01*
X-74995Y-92992D01*
Y-93014D01*
Y-93025D01*
Y-93031D01*
X-75001Y-93125D01*
X-75018Y-93208D01*
X-75034Y-93291D01*
X-75062Y-93358D01*
X-75084Y-93419D01*
X-75101Y-93458D01*
X-75117Y-93486D01*
X-75123Y-93497D01*
X-75178Y-93569D01*
X-75245Y-93636D01*
X-75312Y-93691D01*
X-75384Y-93741D01*
X-75445Y-93774D01*
X-75495Y-93802D01*
X-75528Y-93819D01*
X-75534Y-93824D01*
X-75539D01*
X-75423Y-93885D01*
X-75323Y-93946D01*
X-75240Y-94013D01*
X-75173Y-94080D01*
X-75117Y-94141D01*
X-75079Y-94185D01*
X-75056Y-94218D01*
X-75051Y-94224D01*
Y-94230D01*
X-75001Y-94329D01*
X-74962Y-94429D01*
X-74940Y-94529D01*
X-74918Y-94618D01*
X-74907Y-94690D01*
X-74901Y-94751D01*
Y-94773D01*
Y-94790D01*
Y-94801D01*
Y-94807D01*
X-74907Y-94912D01*
X-74918Y-95007D01*
X-74940Y-95101D01*
X-74968Y-95184D01*
X-74995Y-95267D01*
X-75029Y-95340D01*
X-75068Y-95406D01*
X-75106Y-95467D01*
X-75145Y-95517D01*
X-75184Y-95567D01*
X-75217Y-95606D01*
X-75245Y-95639D01*
X-75273Y-95667D01*
X-75295Y-95684D01*
X-75306Y-95695D01*
X-75312Y-95700D01*
X-75378Y-95750D01*
X-75450Y-95789D01*
X-75523Y-95828D01*
X-75595Y-95856D01*
X-75739Y-95906D01*
X-75878Y-95939D01*
X-75944Y-95950D01*
X-76000Y-95955D01*
X-76050Y-95961D01*
X-76094Y-95967D01*
X-76133Y-95972D01*
X-76183D01*
X-76288Y-95967D01*
X-76383Y-95955D01*
X-76477Y-95939D01*
X-76566Y-95922D01*
X-76644Y-95894D01*
X-76716Y-95867D01*
X-76788Y-95839D01*
X-76849Y-95806D01*
X-76905Y-95772D01*
X-76949Y-95745D01*
X-76993Y-95717D01*
X-77027Y-95689D01*
X-77054Y-95673D01*
X-77071Y-95656D01*
X-77082Y-95645D01*
X-77088Y-95639D01*
X-77149Y-95573D01*
X-77199Y-95506D01*
X-77249Y-95434D01*
X-77288Y-95362D01*
X-77321Y-95289D01*
X-77349Y-95217D01*
X-77387Y-95079D01*
X-77404Y-95018D01*
X-77415Y-94962D01*
X-77421Y-94907D01*
X-77426Y-94862D01*
X-77432Y-94823D01*
Y-94796D01*
Y-94779D01*
Y-94773D01*
X-77426Y-94657D01*
X-77404Y-94551D01*
X-77382Y-94451D01*
X-77349Y-94368D01*
X-77321Y-94302D01*
X-77293Y-94252D01*
X-77271Y-94218D01*
X-77265Y-94207D01*
X-77199Y-94118D01*
X-77121Y-94041D01*
X-77038Y-93974D01*
X-76960Y-93924D01*
X-76888Y-93880D01*
X-76832Y-93846D01*
X-76810Y-93835D01*
X-76794Y-93830D01*
X-76783Y-93824D01*
X-76777D01*
X-76866Y-93780D01*
X-76943Y-93730D01*
X-77010Y-93680D01*
X-77065Y-93625D01*
X-77110Y-93580D01*
X-77138Y-93541D01*
X-77160Y-93519D01*
X-77165Y-93508D01*
X-77215Y-93425D01*
X-77249Y-93341D01*
X-77276Y-93264D01*
X-77293Y-93192D01*
X-77304Y-93125D01*
X-77310Y-93075D01*
Y-93042D01*
Y-93036D01*
Y-93031D01*
X-77304Y-92953D01*
X-77299Y-92875D01*
X-77260Y-92737D01*
X-77215Y-92620D01*
X-77160Y-92514D01*
X-77099Y-92431D01*
X-77077Y-92398D01*
X-77054Y-92370D01*
X-77032Y-92348D01*
X-77016Y-92331D01*
X-77010Y-92326D01*
X-77004Y-92320D01*
X-76943Y-92270D01*
X-76882Y-92226D01*
X-76810Y-92187D01*
X-76744Y-92154D01*
X-76599Y-92104D01*
X-76461Y-92071D01*
X-76399Y-92059D01*
X-76338Y-92054D01*
X-76288Y-92048D01*
X-76239Y-92043D01*
X-76205Y-92037D01*
X-76150D01*
X-76050Y-92043D01*
D02*
G37*
G36*
X-52379Y-95900D02*
X-52740D01*
X-52734Y-95978D01*
X-52723Y-96044D01*
X-52707Y-96105D01*
X-52684Y-96155D01*
X-52668Y-96194D01*
X-52651Y-96222D01*
X-52640Y-96238D01*
X-52634Y-96244D01*
X-52596Y-96289D01*
X-52546Y-96327D01*
X-52496Y-96366D01*
X-52440Y-96394D01*
X-52396Y-96416D01*
X-52357Y-96433D01*
X-52329Y-96444D01*
X-52318Y-96450D01*
X-52462Y-96755D01*
X-52546Y-96721D01*
X-52623Y-96683D01*
X-52690Y-96644D01*
X-52745Y-96605D01*
X-52790Y-96572D01*
X-52823Y-96544D01*
X-52845Y-96527D01*
X-52851Y-96522D01*
X-52906Y-96466D01*
X-52951Y-96411D01*
X-52984Y-96355D01*
X-53017Y-96300D01*
X-53034Y-96255D01*
X-53051Y-96222D01*
X-53062Y-96194D01*
Y-96189D01*
X-53078Y-96116D01*
X-53095Y-96033D01*
X-53106Y-95950D01*
X-53112Y-95872D01*
X-53117Y-95800D01*
Y-95739D01*
Y-95717D01*
Y-95700D01*
Y-95695D01*
Y-95689D01*
Y-95162D01*
X-52379D01*
Y-95900D01*
D02*
G37*
G36*
X-38315Y-93058D02*
X-38221Y-93075D01*
X-38132Y-93097D01*
X-38060Y-93119D01*
X-37999Y-93142D01*
X-37949Y-93164D01*
X-37921Y-93181D01*
X-37910Y-93186D01*
X-37827Y-93236D01*
X-37760Y-93291D01*
X-37694Y-93347D01*
X-37644Y-93402D01*
X-37605Y-93452D01*
X-37572Y-93491D01*
X-37555Y-93514D01*
X-37549Y-93525D01*
Y-93114D01*
X-36861D01*
Y-96966D01*
X-37600D01*
Y-95556D01*
X-37677Y-95634D01*
X-37749Y-95700D01*
X-37810Y-95756D01*
X-37871Y-95795D01*
X-37921Y-95828D01*
X-37955Y-95856D01*
X-37982Y-95867D01*
X-37988Y-95872D01*
X-38060Y-95900D01*
X-38132Y-95922D01*
X-38204Y-95939D01*
X-38271Y-95950D01*
X-38326Y-95955D01*
X-38371Y-95961D01*
X-38410D01*
X-38499Y-95955D01*
X-38582Y-95944D01*
X-38665Y-95928D01*
X-38743Y-95900D01*
X-38881Y-95839D01*
X-38943Y-95806D01*
X-39004Y-95767D01*
X-39054Y-95733D01*
X-39098Y-95700D01*
X-39137Y-95667D01*
X-39170Y-95639D01*
X-39198Y-95611D01*
X-39215Y-95595D01*
X-39226Y-95584D01*
X-39231Y-95578D01*
X-39292Y-95500D01*
X-39342Y-95417D01*
X-39392Y-95334D01*
X-39431Y-95245D01*
X-39464Y-95156D01*
X-39492Y-95068D01*
X-39531Y-94890D01*
X-39548Y-94812D01*
X-39559Y-94735D01*
X-39564Y-94668D01*
X-39570Y-94612D01*
X-39575Y-94563D01*
Y-94524D01*
Y-94501D01*
Y-94496D01*
X-39570Y-94374D01*
X-39559Y-94252D01*
X-39542Y-94146D01*
X-39525Y-94041D01*
X-39498Y-93946D01*
X-39470Y-93858D01*
X-39437Y-93780D01*
X-39409Y-93708D01*
X-39375Y-93647D01*
X-39342Y-93591D01*
X-39314Y-93541D01*
X-39292Y-93508D01*
X-39270Y-93475D01*
X-39253Y-93452D01*
X-39242Y-93441D01*
X-39237Y-93436D01*
X-39170Y-93369D01*
X-39103Y-93308D01*
X-39037Y-93258D01*
X-38965Y-93214D01*
X-38898Y-93175D01*
X-38826Y-93147D01*
X-38765Y-93119D01*
X-38698Y-93103D01*
X-38643Y-93086D01*
X-38587Y-93075D01*
X-38537Y-93064D01*
X-38499Y-93058D01*
X-38460Y-93053D01*
X-38415D01*
X-38315Y-93058D01*
D02*
G37*
G36*
X-69801Y-85043D02*
X-69695Y-85054D01*
X-69595Y-85076D01*
X-69512Y-85098D01*
X-69445Y-85120D01*
X-69390Y-85143D01*
X-69357Y-85154D01*
X-69351Y-85159D01*
X-69345D01*
X-69257Y-85209D01*
X-69173Y-85265D01*
X-69107Y-85320D01*
X-69051Y-85370D01*
X-69007Y-85420D01*
X-68974Y-85459D01*
X-68951Y-85481D01*
X-68946Y-85492D01*
X-68896Y-85576D01*
X-68852Y-85664D01*
X-68818Y-85759D01*
X-68785Y-85848D01*
X-68763Y-85931D01*
X-68746Y-85992D01*
X-68740Y-86020D01*
Y-86036D01*
X-68735Y-86047D01*
Y-86053D01*
X-69412Y-86164D01*
X-69429Y-86075D01*
X-69451Y-85997D01*
X-69473Y-85931D01*
X-69501Y-85881D01*
X-69529Y-85836D01*
X-69551Y-85803D01*
X-69568Y-85786D01*
X-69573Y-85781D01*
X-69623Y-85737D01*
X-69678Y-85703D01*
X-69734Y-85681D01*
X-69784Y-85664D01*
X-69828Y-85653D01*
X-69862Y-85648D01*
X-69895D01*
X-69962Y-85653D01*
X-70028Y-85664D01*
X-70078Y-85687D01*
X-70122Y-85703D01*
X-70161Y-85725D01*
X-70183Y-85748D01*
X-70200Y-85759D01*
X-70206Y-85764D01*
X-70245Y-85809D01*
X-70272Y-85864D01*
X-70294Y-85914D01*
X-70306Y-85964D01*
X-70317Y-86009D01*
X-70322Y-86042D01*
Y-86064D01*
Y-86075D01*
X-70317Y-86158D01*
X-70300Y-86230D01*
X-70272Y-86291D01*
X-70245Y-86342D01*
X-70211Y-86386D01*
X-70189Y-86414D01*
X-70167Y-86436D01*
X-70161Y-86441D01*
X-70095Y-86486D01*
X-70023Y-86519D01*
X-69945Y-86541D01*
X-69873Y-86558D01*
X-69806Y-86563D01*
X-69751Y-86569D01*
X-69701D01*
X-69623Y-87163D01*
X-69695Y-87146D01*
X-69756Y-87130D01*
X-69817Y-87119D01*
X-69867Y-87113D01*
X-69906Y-87107D01*
X-69962D01*
X-70039Y-87113D01*
X-70106Y-87135D01*
X-70167Y-87157D01*
X-70222Y-87191D01*
X-70261Y-87218D01*
X-70294Y-87246D01*
X-70317Y-87268D01*
X-70322Y-87274D01*
X-70372Y-87340D01*
X-70411Y-87413D01*
X-70439Y-87485D01*
X-70461Y-87557D01*
X-70472Y-87624D01*
X-70478Y-87673D01*
Y-87707D01*
Y-87712D01*
Y-87718D01*
X-70472Y-87823D01*
X-70455Y-87918D01*
X-70428Y-88001D01*
X-70400Y-88068D01*
X-70367Y-88117D01*
X-70345Y-88156D01*
X-70322Y-88184D01*
X-70317Y-88190D01*
X-70256Y-88245D01*
X-70189Y-88289D01*
X-70128Y-88317D01*
X-70067Y-88340D01*
X-70012Y-88351D01*
X-69973Y-88356D01*
X-69945Y-88362D01*
X-69934D01*
X-69856Y-88356D01*
X-69789Y-88340D01*
X-69728Y-88317D01*
X-69673Y-88289D01*
X-69634Y-88267D01*
X-69601Y-88245D01*
X-69579Y-88228D01*
X-69573Y-88223D01*
X-69523Y-88162D01*
X-69479Y-88095D01*
X-69451Y-88023D01*
X-69423Y-87957D01*
X-69406Y-87896D01*
X-69395Y-87845D01*
X-69390Y-87812D01*
Y-87807D01*
Y-87801D01*
X-68679Y-87890D01*
X-68691Y-87979D01*
X-68713Y-88062D01*
X-68763Y-88217D01*
X-68824Y-88351D01*
X-68863Y-88406D01*
X-68896Y-88462D01*
X-68929Y-88512D01*
X-68963Y-88550D01*
X-68990Y-88589D01*
X-69018Y-88617D01*
X-69040Y-88639D01*
X-69057Y-88656D01*
X-69068Y-88667D01*
X-69073Y-88673D01*
X-69140Y-88722D01*
X-69212Y-88772D01*
X-69279Y-88811D01*
X-69357Y-88845D01*
X-69501Y-88900D01*
X-69634Y-88933D01*
X-69701Y-88944D01*
X-69756Y-88955D01*
X-69806Y-88961D01*
X-69850Y-88967D01*
X-69889Y-88972D01*
X-69939D01*
X-70039Y-88967D01*
X-70139Y-88955D01*
X-70228Y-88939D01*
X-70317Y-88917D01*
X-70394Y-88889D01*
X-70472Y-88861D01*
X-70544Y-88828D01*
X-70605Y-88795D01*
X-70661Y-88761D01*
X-70716Y-88728D01*
X-70755Y-88700D01*
X-70794Y-88673D01*
X-70822Y-88650D01*
X-70844Y-88634D01*
X-70855Y-88622D01*
X-70861Y-88617D01*
X-70927Y-88550D01*
X-70983Y-88478D01*
X-71033Y-88406D01*
X-71077Y-88334D01*
X-71110Y-88256D01*
X-71144Y-88184D01*
X-71188Y-88051D01*
X-71199Y-87990D01*
X-71210Y-87929D01*
X-71221Y-87879D01*
X-71227Y-87834D01*
X-71232Y-87801D01*
Y-87773D01*
Y-87757D01*
Y-87751D01*
X-71221Y-87624D01*
X-71199Y-87512D01*
X-71171Y-87407D01*
X-71133Y-87324D01*
X-71094Y-87252D01*
X-71066Y-87202D01*
X-71044Y-87168D01*
X-71033Y-87157D01*
X-70955Y-87074D01*
X-70866Y-87002D01*
X-70777Y-86946D01*
X-70694Y-86902D01*
X-70622Y-86869D01*
X-70561Y-86852D01*
X-70539Y-86841D01*
X-70522D01*
X-70511Y-86835D01*
X-70505D01*
X-70605Y-86774D01*
X-70689Y-86713D01*
X-70761Y-86647D01*
X-70827Y-86580D01*
X-70883Y-86514D01*
X-70927Y-86447D01*
X-70960Y-86380D01*
X-70994Y-86319D01*
X-71016Y-86258D01*
X-71033Y-86203D01*
X-71044Y-86153D01*
X-71049Y-86108D01*
X-71055Y-86075D01*
X-71060Y-86047D01*
Y-86031D01*
Y-86025D01*
X-71055Y-85958D01*
X-71049Y-85897D01*
X-71016Y-85775D01*
X-70977Y-85664D01*
X-70927Y-85570D01*
X-70877Y-85492D01*
X-70833Y-85437D01*
X-70816Y-85415D01*
X-70800Y-85398D01*
X-70794Y-85392D01*
X-70789Y-85387D01*
X-70727Y-85326D01*
X-70655Y-85270D01*
X-70589Y-85226D01*
X-70517Y-85187D01*
X-70439Y-85148D01*
X-70367Y-85120D01*
X-70228Y-85082D01*
X-70167Y-85065D01*
X-70106Y-85054D01*
X-70056Y-85048D01*
X-70006Y-85043D01*
X-69967Y-85037D01*
X-69917D01*
X-69801Y-85043D01*
D02*
G37*
G36*
X-72981D02*
X-72875Y-85059D01*
X-72770Y-85082D01*
X-72676Y-85109D01*
X-72587Y-85148D01*
X-72498Y-85187D01*
X-72426Y-85232D01*
X-72354Y-85270D01*
X-72293Y-85315D01*
X-72237Y-85359D01*
X-72193Y-85398D01*
X-72154Y-85437D01*
X-72120Y-85465D01*
X-72098Y-85487D01*
X-72087Y-85503D01*
X-72082Y-85509D01*
X-72015Y-85603D01*
X-71954Y-85709D01*
X-71904Y-85825D01*
X-71860Y-85942D01*
X-71821Y-86070D01*
X-71788Y-86197D01*
X-71760Y-86325D01*
X-71743Y-86447D01*
X-71726Y-86563D01*
X-71715Y-86674D01*
X-71704Y-86774D01*
X-71699Y-86863D01*
X-71693Y-86935D01*
Y-86991D01*
Y-87007D01*
Y-87024D01*
Y-87030D01*
Y-87035D01*
X-71699Y-87224D01*
X-71710Y-87396D01*
X-71726Y-87557D01*
X-71754Y-87701D01*
X-71782Y-87840D01*
X-71810Y-87962D01*
X-71843Y-88068D01*
X-71882Y-88167D01*
X-71915Y-88251D01*
X-71948Y-88323D01*
X-71976Y-88384D01*
X-72009Y-88434D01*
X-72032Y-88473D01*
X-72048Y-88500D01*
X-72059Y-88517D01*
X-72065Y-88523D01*
X-72137Y-88600D01*
X-72215Y-88673D01*
X-72293Y-88734D01*
X-72376Y-88784D01*
X-72453Y-88828D01*
X-72537Y-88861D01*
X-72614Y-88894D01*
X-72687Y-88917D01*
X-72759Y-88933D01*
X-72820Y-88950D01*
X-72881Y-88955D01*
X-72931Y-88967D01*
X-72970D01*
X-72997Y-88972D01*
X-73025D01*
X-73125Y-88967D01*
X-73219Y-88955D01*
X-73308Y-88939D01*
X-73391Y-88917D01*
X-73475Y-88889D01*
X-73547Y-88861D01*
X-73613Y-88828D01*
X-73674Y-88795D01*
X-73730Y-88761D01*
X-73774Y-88728D01*
X-73819Y-88700D01*
X-73852Y-88673D01*
X-73880Y-88650D01*
X-73896Y-88634D01*
X-73908Y-88622D01*
X-73913Y-88617D01*
X-73974Y-88550D01*
X-74030Y-88473D01*
X-74074Y-88395D01*
X-74113Y-88317D01*
X-74152Y-88240D01*
X-74180Y-88162D01*
X-74218Y-88007D01*
X-74235Y-87940D01*
X-74246Y-87873D01*
X-74252Y-87818D01*
X-74257Y-87768D01*
X-74263Y-87723D01*
Y-87696D01*
Y-87673D01*
Y-87668D01*
X-74257Y-87563D01*
X-74246Y-87468D01*
X-74230Y-87374D01*
X-74213Y-87291D01*
X-74185Y-87207D01*
X-74157Y-87135D01*
X-74130Y-87063D01*
X-74096Y-87002D01*
X-74063Y-86946D01*
X-74035Y-86897D01*
X-74007Y-86858D01*
X-73980Y-86819D01*
X-73963Y-86791D01*
X-73946Y-86774D01*
X-73935Y-86763D01*
X-73930Y-86758D01*
X-73869Y-86697D01*
X-73802Y-86641D01*
X-73735Y-86591D01*
X-73669Y-86552D01*
X-73602Y-86519D01*
X-73536Y-86491D01*
X-73414Y-86447D01*
X-73358Y-86430D01*
X-73303Y-86419D01*
X-73258Y-86414D01*
X-73219Y-86408D01*
X-73186Y-86402D01*
X-73142D01*
X-73064Y-86408D01*
X-72992Y-86419D01*
X-72925Y-86430D01*
X-72859Y-86453D01*
X-72742Y-86508D01*
X-72642Y-86563D01*
X-72565Y-86624D01*
X-72531Y-86652D01*
X-72503Y-86680D01*
X-72481Y-86702D01*
X-72465Y-86713D01*
X-72459Y-86724D01*
X-72453Y-86730D01*
X-72465Y-86613D01*
X-72476Y-86502D01*
X-72487Y-86402D01*
X-72503Y-86314D01*
X-72520Y-86236D01*
X-72537Y-86164D01*
X-72553Y-86103D01*
X-72576Y-86047D01*
X-72592Y-85997D01*
X-72603Y-85958D01*
X-72620Y-85925D01*
X-72631Y-85903D01*
X-72642Y-85881D01*
X-72653Y-85870D01*
X-72659Y-85859D01*
X-72720Y-85786D01*
X-72786Y-85737D01*
X-72853Y-85698D01*
X-72914Y-85676D01*
X-72970Y-85659D01*
X-73014Y-85653D01*
X-73042Y-85648D01*
X-73053D01*
X-73114Y-85653D01*
X-73175Y-85664D01*
X-73225Y-85681D01*
X-73264Y-85698D01*
X-73297Y-85720D01*
X-73319Y-85737D01*
X-73336Y-85748D01*
X-73342Y-85753D01*
X-73380Y-85798D01*
X-73408Y-85848D01*
X-73436Y-85903D01*
X-73453Y-85953D01*
X-73464Y-86003D01*
X-73475Y-86042D01*
X-73480Y-86064D01*
Y-86075D01*
X-74191Y-85997D01*
X-74152Y-85831D01*
X-74096Y-85692D01*
X-74035Y-85570D01*
X-73974Y-85465D01*
X-73913Y-85387D01*
X-73891Y-85359D01*
X-73863Y-85331D01*
X-73847Y-85315D01*
X-73830Y-85298D01*
X-73824Y-85287D01*
X-73819D01*
X-73763Y-85243D01*
X-73708Y-85204D01*
X-73586Y-85143D01*
X-73464Y-85098D01*
X-73353Y-85071D01*
X-73253Y-85048D01*
X-73208Y-85043D01*
X-73169D01*
X-73142Y-85037D01*
X-73097D01*
X-72981Y-85043D01*
D02*
G37*
G36*
X-57369Y-86852D02*
X-58107D01*
Y-86114D01*
X-57369D01*
Y-86852D01*
D02*
G37*
G36*
X-61426Y-85043D02*
X-61337Y-85054D01*
X-61248Y-85071D01*
X-61165Y-85093D01*
X-61087Y-85120D01*
X-61015Y-85154D01*
X-60943Y-85181D01*
X-60887Y-85215D01*
X-60832Y-85254D01*
X-60782Y-85281D01*
X-60743Y-85315D01*
X-60704Y-85342D01*
X-60676Y-85365D01*
X-60660Y-85381D01*
X-60649Y-85392D01*
X-60643Y-85398D01*
X-60582Y-85470D01*
X-60532Y-85542D01*
X-60482Y-85620D01*
X-60443Y-85698D01*
X-60410Y-85775D01*
X-60382Y-85859D01*
X-60343Y-86009D01*
X-60327Y-86075D01*
X-60316Y-86142D01*
X-60310Y-86197D01*
X-60304Y-86247D01*
X-60299Y-86291D01*
Y-86319D01*
Y-86341D01*
Y-86347D01*
X-60304Y-86447D01*
X-60316Y-86547D01*
X-60327Y-86641D01*
X-60349Y-86724D01*
X-60377Y-86808D01*
X-60404Y-86880D01*
X-60432Y-86952D01*
X-60466Y-87013D01*
X-60493Y-87068D01*
X-60521Y-87118D01*
X-60549Y-87157D01*
X-60576Y-87196D01*
X-60599Y-87218D01*
X-60610Y-87240D01*
X-60621Y-87252D01*
X-60626Y-87257D01*
X-60688Y-87318D01*
X-60754Y-87374D01*
X-60821Y-87418D01*
X-60887Y-87457D01*
X-60954Y-87490D01*
X-61015Y-87524D01*
X-61137Y-87563D01*
X-61243Y-87590D01*
X-61287Y-87596D01*
X-61326Y-87601D01*
X-61359Y-87607D01*
X-61403D01*
X-61481Y-87601D01*
X-61553Y-87590D01*
X-61620Y-87579D01*
X-61686Y-87557D01*
X-61809Y-87507D01*
X-61909Y-87446D01*
X-61986Y-87385D01*
X-62019Y-87357D01*
X-62047Y-87335D01*
X-62069Y-87313D01*
X-62086Y-87296D01*
X-62092Y-87291D01*
X-62097Y-87285D01*
X-62086Y-87401D01*
X-62075Y-87512D01*
X-62064Y-87612D01*
X-62047Y-87701D01*
X-62031Y-87779D01*
X-62014Y-87851D01*
X-61997Y-87912D01*
X-61981Y-87968D01*
X-61958Y-88018D01*
X-61947Y-88056D01*
X-61931Y-88090D01*
X-61920Y-88112D01*
X-61909Y-88134D01*
X-61897Y-88145D01*
X-61892Y-88156D01*
X-61831Y-88223D01*
X-61764Y-88273D01*
X-61703Y-88312D01*
X-61642Y-88334D01*
X-61587Y-88350D01*
X-61548Y-88356D01*
X-61520Y-88362D01*
X-61509D01*
X-61448Y-88356D01*
X-61387Y-88345D01*
X-61342Y-88328D01*
X-61298Y-88312D01*
X-61265Y-88295D01*
X-61243Y-88278D01*
X-61226Y-88267D01*
X-61220Y-88262D01*
X-61181Y-88217D01*
X-61154Y-88167D01*
X-61132Y-88112D01*
X-61115Y-88056D01*
X-61098Y-88012D01*
X-61093Y-87973D01*
X-61087Y-87945D01*
Y-87934D01*
X-60377Y-88018D01*
X-60393Y-88106D01*
X-60416Y-88184D01*
X-60438Y-88262D01*
X-60466Y-88328D01*
X-60493Y-88395D01*
X-60521Y-88456D01*
X-60554Y-88506D01*
X-60582Y-88556D01*
X-60615Y-88595D01*
X-60637Y-88634D01*
X-60665Y-88661D01*
X-60688Y-88689D01*
X-60704Y-88706D01*
X-60721Y-88722D01*
X-60726Y-88728D01*
X-60732Y-88734D01*
X-60787Y-88778D01*
X-60843Y-88811D01*
X-60965Y-88872D01*
X-61081Y-88911D01*
X-61198Y-88944D01*
X-61304Y-88961D01*
X-61348Y-88967D01*
X-61387D01*
X-61414Y-88972D01*
X-61459D01*
X-61576Y-88967D01*
X-61681Y-88950D01*
X-61781Y-88928D01*
X-61881Y-88900D01*
X-61970Y-88861D01*
X-62053Y-88822D01*
X-62130Y-88784D01*
X-62197Y-88739D01*
X-62258Y-88695D01*
X-62314Y-88656D01*
X-62358Y-88611D01*
X-62397Y-88578D01*
X-62430Y-88550D01*
X-62452Y-88528D01*
X-62463Y-88512D01*
X-62469Y-88506D01*
X-62541Y-88412D01*
X-62597Y-88306D01*
X-62652Y-88190D01*
X-62697Y-88073D01*
X-62735Y-87945D01*
X-62769Y-87818D01*
X-62791Y-87696D01*
X-62813Y-87568D01*
X-62830Y-87451D01*
X-62841Y-87346D01*
X-62852Y-87246D01*
X-62858Y-87157D01*
X-62863Y-87085D01*
Y-87030D01*
Y-87013D01*
Y-86996D01*
Y-86991D01*
Y-86985D01*
X-62858Y-86797D01*
X-62846Y-86624D01*
X-62830Y-86463D01*
X-62802Y-86314D01*
X-62774Y-86181D01*
X-62747Y-86058D01*
X-62708Y-85947D01*
X-62674Y-85848D01*
X-62641Y-85764D01*
X-62608Y-85692D01*
X-62574Y-85631D01*
X-62547Y-85581D01*
X-62519Y-85542D01*
X-62502Y-85514D01*
X-62491Y-85498D01*
X-62486Y-85492D01*
X-62414Y-85415D01*
X-62336Y-85342D01*
X-62258Y-85281D01*
X-62180Y-85231D01*
X-62097Y-85187D01*
X-62019Y-85148D01*
X-61942Y-85120D01*
X-61864Y-85093D01*
X-61797Y-85076D01*
X-61731Y-85059D01*
X-61675Y-85048D01*
X-61625Y-85043D01*
X-61581D01*
X-61553Y-85037D01*
X-61525D01*
X-61426Y-85043D01*
D02*
G37*
G36*
X-36745Y-88900D02*
X-37583D01*
X-38948Y-85059D01*
X-38121D01*
X-37183Y-87901D01*
X-36206Y-85059D01*
X-35368D01*
X-36745Y-88900D01*
D02*
G37*
G36*
X-75828Y-88900D02*
X-76666D01*
X-78031Y-85059D01*
X-77204D01*
X-76266Y-87901D01*
X-75289Y-85059D01*
X-74452D01*
X-75828Y-88900D01*
D02*
G37*
G36*
X-54954Y-88906D02*
X-54927Y-88989D01*
X-54899Y-89061D01*
X-54865Y-89127D01*
X-54838Y-89183D01*
X-54810Y-89227D01*
X-54788Y-89261D01*
X-54771Y-89283D01*
X-54766Y-89289D01*
X-54716Y-89338D01*
X-54655Y-89377D01*
X-54594Y-89405D01*
X-54532Y-89422D01*
X-54477Y-89433D01*
X-54433Y-89444D01*
X-54388D01*
X-54283Y-89438D01*
X-54227Y-89433D01*
X-54183Y-89422D01*
X-54138Y-89416D01*
X-54105Y-89411D01*
X-54083Y-89405D01*
X-54077D01*
X-54144Y-89982D01*
X-54294Y-90010D01*
X-54361Y-90021D01*
X-54427Y-90027D01*
X-54477D01*
X-54521Y-90032D01*
X-54632D01*
X-54705Y-90027D01*
X-54766Y-90016D01*
X-54821Y-90004D01*
X-54871Y-89999D01*
X-54904Y-89988D01*
X-54927Y-89982D01*
X-54932D01*
X-54993Y-89966D01*
X-55049Y-89943D01*
X-55093Y-89921D01*
X-55132Y-89904D01*
X-55165Y-89888D01*
X-55187Y-89871D01*
X-55204Y-89866D01*
X-55210Y-89860D01*
X-55293Y-89794D01*
X-55354Y-89727D01*
X-55376Y-89694D01*
X-55393Y-89671D01*
X-55404Y-89655D01*
X-55409Y-89649D01*
X-55443Y-89594D01*
X-55476Y-89538D01*
X-55509Y-89477D01*
X-55537Y-89416D01*
X-55559Y-89361D01*
X-55581Y-89316D01*
X-55593Y-89289D01*
X-55598Y-89277D01*
X-55776Y-88800D01*
X-56758Y-86114D01*
X-55998D01*
X-55343Y-88095D01*
X-54682Y-86114D01*
X-53900D01*
X-54954Y-88906D01*
D02*
G37*
G36*
X-42900Y-87879D02*
X-42905Y-88018D01*
X-42916Y-88140D01*
X-42933Y-88245D01*
X-42950Y-88334D01*
X-42966Y-88406D01*
X-42983Y-88456D01*
X-42994Y-88484D01*
X-43000Y-88495D01*
X-43044Y-88573D01*
X-43094Y-88645D01*
X-43144Y-88700D01*
X-43199Y-88750D01*
X-43244Y-88789D01*
X-43288Y-88817D01*
X-43310Y-88833D01*
X-43321Y-88839D01*
X-43405Y-88878D01*
X-43494Y-88911D01*
X-43577Y-88933D01*
X-43660Y-88944D01*
X-43727Y-88955D01*
X-43777Y-88961D01*
X-43827D01*
X-43927Y-88955D01*
X-44021Y-88944D01*
X-44110Y-88922D01*
X-44187Y-88900D01*
X-44254Y-88878D01*
X-44304Y-88856D01*
X-44337Y-88845D01*
X-44348Y-88839D01*
X-44437Y-88789D01*
X-44515Y-88728D01*
X-44587Y-88673D01*
X-44642Y-88611D01*
X-44692Y-88561D01*
X-44726Y-88523D01*
X-44748Y-88495D01*
X-44753Y-88484D01*
Y-88900D01*
X-45436D01*
Y-86114D01*
X-44698D01*
Y-87291D01*
Y-87396D01*
Y-87490D01*
X-44692Y-87579D01*
X-44687Y-87657D01*
Y-87729D01*
X-44681Y-87790D01*
X-44676Y-87840D01*
X-44670Y-87890D01*
X-44665Y-87929D01*
X-44659Y-87957D01*
X-44653Y-87984D01*
Y-88006D01*
X-44642Y-88034D01*
Y-88040D01*
X-44620Y-88095D01*
X-44587Y-88145D01*
X-44554Y-88184D01*
X-44520Y-88223D01*
X-44487Y-88256D01*
X-44459Y-88278D01*
X-44443Y-88289D01*
X-44437Y-88295D01*
X-44382Y-88328D01*
X-44320Y-88350D01*
X-44265Y-88373D01*
X-44210Y-88384D01*
X-44165Y-88389D01*
X-44132Y-88395D01*
X-44098D01*
X-44038Y-88389D01*
X-43988Y-88384D01*
X-43938Y-88373D01*
X-43899Y-88356D01*
X-43865Y-88345D01*
X-43843Y-88334D01*
X-43827Y-88328D01*
X-43821Y-88323D01*
X-43782Y-88289D01*
X-43754Y-88256D01*
X-43727Y-88223D01*
X-43710Y-88190D01*
X-43693Y-88156D01*
X-43682Y-88134D01*
X-43677Y-88117D01*
Y-88112D01*
X-43671Y-88084D01*
X-43666Y-88045D01*
X-43660Y-87995D01*
X-43655Y-87945D01*
X-43649Y-87829D01*
X-43643Y-87701D01*
X-43638Y-87585D01*
Y-87535D01*
Y-87490D01*
Y-87451D01*
Y-87424D01*
Y-87401D01*
Y-87396D01*
Y-86114D01*
X-42900D01*
Y-87879D01*
D02*
G37*
G36*
X-52751Y-88900D02*
X-53489D01*
Y-85059D01*
X-52751D01*
Y-88900D01*
D02*
G37*
G36*
X-57369D02*
X-58107D01*
Y-88162D01*
X-57369D01*
Y-88900D01*
D02*
G37*
G36*
X-63640D02*
X-64378Y-88900D01*
Y-88162D01*
X-63640Y-88162D01*
Y-88900D01*
D02*
G37*
G36*
X-65427Y-88900D02*
X-66165D01*
Y-88162D01*
X-65427D01*
Y-88900D01*
D02*
G37*
G36*
X-67214D02*
X-67952D01*
Y-88162D01*
X-67214D01*
Y-88900D01*
D02*
G37*
G36*
X-40519Y-84993D02*
X-40374Y-85009D01*
X-40247Y-85032D01*
X-40136Y-85054D01*
X-40086Y-85071D01*
X-40042Y-85082D01*
X-40008Y-85093D01*
X-39975Y-85104D01*
X-39953Y-85115D01*
X-39936Y-85120D01*
X-39925Y-85126D01*
X-39919D01*
X-39808Y-85181D01*
X-39714Y-85243D01*
X-39631Y-85309D01*
X-39564Y-85370D01*
X-39509Y-85426D01*
X-39475Y-85470D01*
X-39448Y-85503D01*
X-39442Y-85509D01*
Y-85514D01*
X-39387Y-85609D01*
X-39348Y-85709D01*
X-39320Y-85803D01*
X-39303Y-85886D01*
X-39292Y-85958D01*
X-39281Y-86014D01*
Y-86036D01*
Y-86053D01*
Y-86058D01*
Y-86064D01*
X-39287Y-86147D01*
X-39298Y-86230D01*
X-39314Y-86303D01*
X-39337Y-86375D01*
X-39392Y-86508D01*
X-39459Y-86624D01*
X-39487Y-86674D01*
X-39520Y-86713D01*
X-39548Y-86752D01*
X-39575Y-86786D01*
X-39597Y-86808D01*
X-39614Y-86824D01*
X-39625Y-86835D01*
X-39631Y-86841D01*
X-39681Y-86880D01*
X-39742Y-86919D01*
X-39803Y-86958D01*
X-39875Y-86991D01*
X-40014Y-87057D01*
X-40158Y-87113D01*
X-40230Y-87135D01*
X-40291Y-87157D01*
X-40352Y-87174D01*
X-40402Y-87191D01*
X-40441Y-87202D01*
X-40474Y-87213D01*
X-40497Y-87218D01*
X-40502D01*
X-40591Y-87240D01*
X-40669Y-87263D01*
X-40741Y-87279D01*
X-40807Y-87296D01*
X-40863Y-87313D01*
X-40913Y-87324D01*
X-40957Y-87340D01*
X-40996Y-87352D01*
X-41029Y-87357D01*
X-41057Y-87368D01*
X-41096Y-87379D01*
X-41118Y-87390D01*
X-41124D01*
X-41196Y-87418D01*
X-41251Y-87446D01*
X-41301Y-87474D01*
X-41340Y-87501D01*
X-41368Y-87524D01*
X-41385Y-87540D01*
X-41396Y-87551D01*
X-41401Y-87557D01*
X-41429Y-87596D01*
X-41451Y-87635D01*
X-41462Y-87673D01*
X-41473Y-87707D01*
X-41479Y-87740D01*
X-41484Y-87768D01*
Y-87784D01*
Y-87790D01*
X-41479Y-87868D01*
X-41457Y-87934D01*
X-41423Y-88001D01*
X-41390Y-88056D01*
X-41351Y-88101D01*
X-41324Y-88134D01*
X-41301Y-88156D01*
X-41290Y-88162D01*
X-41212Y-88212D01*
X-41124Y-88251D01*
X-41029Y-88278D01*
X-40941Y-88295D01*
X-40857Y-88306D01*
X-40791Y-88317D01*
X-40730D01*
X-40602Y-88312D01*
X-40491Y-88289D01*
X-40397Y-88262D01*
X-40313Y-88228D01*
X-40247Y-88195D01*
X-40202Y-88167D01*
X-40175Y-88145D01*
X-40164Y-88140D01*
X-40091Y-88062D01*
X-40036Y-87979D01*
X-39986Y-87884D01*
X-39953Y-87790D01*
X-39925Y-87707D01*
X-39903Y-87640D01*
X-39897Y-87618D01*
Y-87596D01*
X-39892Y-87585D01*
Y-87579D01*
X-39137Y-87651D01*
X-39154Y-87768D01*
X-39176Y-87879D01*
X-39209Y-87984D01*
X-39237Y-88079D01*
X-39276Y-88167D01*
X-39314Y-88251D01*
X-39353Y-88323D01*
X-39392Y-88389D01*
X-39431Y-88445D01*
X-39470Y-88495D01*
X-39503Y-88539D01*
X-39536Y-88578D01*
X-39559Y-88606D01*
X-39581Y-88622D01*
X-39592Y-88634D01*
X-39597Y-88639D01*
X-39675Y-88700D01*
X-39758Y-88750D01*
X-39847Y-88795D01*
X-39942Y-88833D01*
X-40030Y-88861D01*
X-40125Y-88889D01*
X-40308Y-88928D01*
X-40391Y-88944D01*
X-40469Y-88955D01*
X-40535Y-88961D01*
X-40597Y-88967D01*
X-40646Y-88972D01*
X-40719D01*
X-40896Y-88967D01*
X-41057Y-88950D01*
X-41201Y-88928D01*
X-41263Y-88917D01*
X-41324Y-88900D01*
X-41374Y-88889D01*
X-41418Y-88878D01*
X-41457Y-88867D01*
X-41490Y-88856D01*
X-41518Y-88845D01*
X-41534Y-88839D01*
X-41546Y-88833D01*
X-41551D01*
X-41673Y-88772D01*
X-41773Y-88706D01*
X-41867Y-88639D01*
X-41940Y-88567D01*
X-41995Y-88506D01*
X-42039Y-88450D01*
X-42062Y-88417D01*
X-42073Y-88412D01*
Y-88406D01*
X-42134Y-88295D01*
X-42184Y-88190D01*
X-42217Y-88084D01*
X-42239Y-87984D01*
X-42250Y-87907D01*
X-42256Y-87868D01*
X-42261Y-87840D01*
Y-87818D01*
Y-87801D01*
Y-87790D01*
Y-87784D01*
X-42256Y-87651D01*
X-42239Y-87535D01*
X-42211Y-87429D01*
X-42184Y-87340D01*
X-42156Y-87268D01*
X-42128Y-87218D01*
X-42112Y-87185D01*
X-42106Y-87174D01*
X-42045Y-87085D01*
X-41973Y-87007D01*
X-41901Y-86941D01*
X-41834Y-86885D01*
X-41773Y-86841D01*
X-41723Y-86808D01*
X-41690Y-86786D01*
X-41684Y-86780D01*
X-41679D01*
X-41623Y-86752D01*
X-41568Y-86724D01*
X-41434Y-86674D01*
X-41296Y-86630D01*
X-41163Y-86586D01*
X-41102Y-86569D01*
X-41041Y-86552D01*
X-40985Y-86536D01*
X-40941Y-86525D01*
X-40902Y-86514D01*
X-40874Y-86508D01*
X-40852Y-86502D01*
X-40846D01*
X-40746Y-86475D01*
X-40657Y-86452D01*
X-40574Y-86430D01*
X-40497Y-86408D01*
X-40435Y-86386D01*
X-40374Y-86364D01*
X-40325Y-86341D01*
X-40280Y-86325D01*
X-40241Y-86308D01*
X-40214Y-86291D01*
X-40186Y-86280D01*
X-40169Y-86269D01*
X-40141Y-86253D01*
X-40136Y-86247D01*
X-40097Y-86208D01*
X-40069Y-86169D01*
X-40053Y-86131D01*
X-40042Y-86092D01*
X-40030Y-86064D01*
X-40025Y-86036D01*
Y-86020D01*
Y-86014D01*
X-40030Y-85958D01*
X-40042Y-85914D01*
X-40064Y-85870D01*
X-40086Y-85836D01*
X-40108Y-85809D01*
X-40130Y-85792D01*
X-40141Y-85781D01*
X-40147Y-85775D01*
X-40225Y-85725D01*
X-40308Y-85692D01*
X-40397Y-85664D01*
X-40480Y-85648D01*
X-40552Y-85637D01*
X-40613Y-85631D01*
X-40669D01*
X-40785Y-85637D01*
X-40885Y-85653D01*
X-40968Y-85676D01*
X-41035Y-85698D01*
X-41090Y-85720D01*
X-41129Y-85742D01*
X-41151Y-85759D01*
X-41157Y-85764D01*
X-41212Y-85820D01*
X-41263Y-85886D01*
X-41301Y-85953D01*
X-41329Y-86025D01*
X-41351Y-86086D01*
X-41362Y-86136D01*
X-41374Y-86175D01*
Y-86181D01*
Y-86186D01*
X-42151Y-86158D01*
X-42145Y-86058D01*
X-42128Y-85970D01*
X-42106Y-85881D01*
X-42078Y-85803D01*
X-42051Y-85725D01*
X-42017Y-85653D01*
X-41984Y-85592D01*
X-41951Y-85531D01*
X-41912Y-85481D01*
X-41879Y-85437D01*
X-41845Y-85398D01*
X-41818Y-85365D01*
X-41795Y-85342D01*
X-41779Y-85326D01*
X-41767Y-85315D01*
X-41762Y-85309D01*
X-41690Y-85254D01*
X-41612Y-85204D01*
X-41529Y-85159D01*
X-41440Y-85120D01*
X-41351Y-85093D01*
X-41263Y-85065D01*
X-41085Y-85026D01*
X-41002Y-85015D01*
X-40929Y-85004D01*
X-40857Y-84998D01*
X-40796Y-84993D01*
X-40746Y-84987D01*
X-40680D01*
X-40519Y-84993D01*
D02*
G37*
G36*
X-47628Y-86058D02*
X-47534Y-86075D01*
X-47445Y-86097D01*
X-47373Y-86119D01*
X-47312Y-86142D01*
X-47262Y-86164D01*
X-47234Y-86181D01*
X-47223Y-86186D01*
X-47140Y-86236D01*
X-47073Y-86291D01*
X-47007Y-86347D01*
X-46957Y-86402D01*
X-46918Y-86452D01*
X-46885Y-86491D01*
X-46868Y-86514D01*
X-46862Y-86525D01*
Y-86114D01*
X-46174D01*
Y-89966D01*
X-46912D01*
Y-88556D01*
X-46990Y-88634D01*
X-47062Y-88700D01*
X-47123Y-88756D01*
X-47184Y-88795D01*
X-47234Y-88828D01*
X-47268Y-88856D01*
X-47295Y-88867D01*
X-47301Y-88872D01*
X-47373Y-88900D01*
X-47445Y-88922D01*
X-47517Y-88939D01*
X-47584Y-88950D01*
X-47639Y-88955D01*
X-47684Y-88961D01*
X-47723D01*
X-47811Y-88955D01*
X-47895Y-88944D01*
X-47978Y-88928D01*
X-48056Y-88900D01*
X-48194Y-88839D01*
X-48256Y-88806D01*
X-48316Y-88767D01*
X-48366Y-88734D01*
X-48411Y-88700D01*
X-48450Y-88667D01*
X-48483Y-88639D01*
X-48511Y-88611D01*
X-48527Y-88595D01*
X-48539Y-88584D01*
X-48544Y-88578D01*
X-48605Y-88500D01*
X-48655Y-88417D01*
X-48705Y-88334D01*
X-48744Y-88245D01*
X-48777Y-88156D01*
X-48805Y-88068D01*
X-48844Y-87890D01*
X-48860Y-87812D01*
X-48871Y-87735D01*
X-48877Y-87668D01*
X-48883Y-87612D01*
X-48888Y-87563D01*
Y-87524D01*
Y-87501D01*
Y-87496D01*
X-48883Y-87374D01*
X-48871Y-87252D01*
X-48855Y-87146D01*
X-48838Y-87041D01*
X-48810Y-86946D01*
X-48783Y-86858D01*
X-48749Y-86780D01*
X-48722Y-86708D01*
X-48688Y-86647D01*
X-48655Y-86591D01*
X-48627Y-86541D01*
X-48605Y-86508D01*
X-48583Y-86475D01*
X-48566Y-86452D01*
X-48555Y-86441D01*
X-48550Y-86436D01*
X-48483Y-86369D01*
X-48416Y-86308D01*
X-48350Y-86258D01*
X-48278Y-86214D01*
X-48211Y-86175D01*
X-48139Y-86147D01*
X-48078Y-86119D01*
X-48011Y-86103D01*
X-47956Y-86086D01*
X-47900Y-86075D01*
X-47850Y-86064D01*
X-47811Y-86058D01*
X-47773Y-86053D01*
X-47728D01*
X-47628Y-86058D01*
D02*
G37*
G36*
X-50908D02*
X-50814Y-86075D01*
X-50725Y-86097D01*
X-50653Y-86119D01*
X-50592Y-86142D01*
X-50542Y-86164D01*
X-50514Y-86181D01*
X-50503Y-86186D01*
X-50420Y-86236D01*
X-50353Y-86291D01*
X-50287Y-86347D01*
X-50237Y-86402D01*
X-50198Y-86452D01*
X-50165Y-86491D01*
X-50148Y-86514D01*
X-50143Y-86525D01*
Y-86114D01*
X-49454D01*
Y-89966D01*
X-50192D01*
Y-88556D01*
X-50270Y-88634D01*
X-50342Y-88700D01*
X-50403Y-88756D01*
X-50464Y-88795D01*
X-50514Y-88828D01*
X-50548Y-88856D01*
X-50575Y-88867D01*
X-50581Y-88872D01*
X-50653Y-88900D01*
X-50725Y-88922D01*
X-50797Y-88939D01*
X-50864Y-88950D01*
X-50920Y-88955D01*
X-50964Y-88961D01*
X-51003D01*
X-51091Y-88955D01*
X-51175Y-88944D01*
X-51258Y-88928D01*
X-51336Y-88900D01*
X-51474Y-88839D01*
X-51535Y-88806D01*
X-51597Y-88767D01*
X-51647Y-88734D01*
X-51691Y-88700D01*
X-51730Y-88667D01*
X-51763Y-88639D01*
X-51791Y-88611D01*
X-51807Y-88595D01*
X-51819Y-88584D01*
X-51824Y-88578D01*
X-51885Y-88500D01*
X-51935Y-88417D01*
X-51985Y-88334D01*
X-52024Y-88245D01*
X-52057Y-88156D01*
X-52085Y-88068D01*
X-52124Y-87890D01*
X-52140Y-87812D01*
X-52152Y-87735D01*
X-52157Y-87668D01*
X-52163Y-87612D01*
X-52168Y-87563D01*
Y-87524D01*
Y-87501D01*
Y-87496D01*
X-52163Y-87374D01*
X-52152Y-87252D01*
X-52135Y-87146D01*
X-52118Y-87041D01*
X-52091Y-86946D01*
X-52063Y-86858D01*
X-52030Y-86780D01*
X-52002Y-86708D01*
X-51968Y-86647D01*
X-51935Y-86591D01*
X-51907Y-86541D01*
X-51885Y-86508D01*
X-51863Y-86475D01*
X-51846Y-86452D01*
X-51835Y-86441D01*
X-51830Y-86436D01*
X-51763Y-86369D01*
X-51696Y-86308D01*
X-51630Y-86258D01*
X-51558Y-86214D01*
X-51491Y-86175D01*
X-51419Y-86147D01*
X-51358Y-86119D01*
X-51291Y-86103D01*
X-51236Y-86086D01*
X-51180Y-86075D01*
X-51130Y-86064D01*
X-51091Y-86058D01*
X-51053Y-86053D01*
X-51008D01*
X-50908Y-86058D01*
D02*
G37*
G36*
X-42650Y-78742D02*
X-43388D01*
Y-78059D01*
X-42650D01*
Y-78742D01*
D02*
G37*
G36*
X-63346Y-78043D02*
X-63257Y-78048D01*
X-63085Y-78076D01*
X-62941Y-78120D01*
X-62874Y-78143D01*
X-62813Y-78170D01*
X-62758Y-78193D01*
X-62713Y-78220D01*
X-62669Y-78243D01*
X-62635Y-78259D01*
X-62608Y-78281D01*
X-62591Y-78293D01*
X-62580Y-78298D01*
X-62574Y-78304D01*
X-62513Y-78359D01*
X-62458Y-78415D01*
X-62408Y-78481D01*
X-62364Y-78553D01*
X-62297Y-78698D01*
X-62242Y-78836D01*
X-62225Y-78909D01*
X-62208Y-78970D01*
X-62191Y-79025D01*
X-62186Y-79075D01*
X-62175Y-79119D01*
Y-79147D01*
X-62169Y-79169D01*
Y-79175D01*
X-62902Y-79247D01*
X-62913Y-79136D01*
X-62935Y-79042D01*
X-62957Y-78958D01*
X-62985Y-78898D01*
X-63007Y-78847D01*
X-63030Y-78814D01*
X-63046Y-78792D01*
X-63052Y-78786D01*
X-63107Y-78742D01*
X-63168Y-78709D01*
X-63229Y-78681D01*
X-63290Y-78664D01*
X-63340Y-78653D01*
X-63385Y-78648D01*
X-63424D01*
X-63507Y-78653D01*
X-63579Y-78670D01*
X-63640Y-78692D01*
X-63696Y-78714D01*
X-63734Y-78737D01*
X-63768Y-78759D01*
X-63784Y-78775D01*
X-63790Y-78781D01*
X-63834Y-78836D01*
X-63868Y-78898D01*
X-63890Y-78958D01*
X-63907Y-79020D01*
X-63918Y-79075D01*
X-63923Y-79125D01*
Y-79153D01*
Y-79158D01*
Y-79164D01*
X-63918Y-79247D01*
X-63901Y-79325D01*
X-63873Y-79403D01*
X-63845Y-79469D01*
X-63818Y-79530D01*
X-63790Y-79575D01*
X-63773Y-79602D01*
X-63768Y-79613D01*
X-63745Y-79647D01*
X-63712Y-79686D01*
X-63668Y-79735D01*
X-63623Y-79780D01*
X-63524Y-79885D01*
X-63424Y-79991D01*
X-63324Y-80091D01*
X-63279Y-80135D01*
X-63235Y-80168D01*
X-63202Y-80202D01*
X-63179Y-80224D01*
X-63163Y-80240D01*
X-63157Y-80246D01*
X-63046Y-80352D01*
X-62946Y-80451D01*
X-62852Y-80546D01*
X-62769Y-80629D01*
X-62691Y-80712D01*
X-62624Y-80790D01*
X-62563Y-80857D01*
X-62513Y-80923D01*
X-62469Y-80979D01*
X-62430Y-81029D01*
X-62397Y-81068D01*
X-62375Y-81106D01*
X-62353Y-81129D01*
X-62341Y-81151D01*
X-62330Y-81162D01*
Y-81167D01*
X-62258Y-81295D01*
X-62203Y-81428D01*
X-62158Y-81550D01*
X-62125Y-81661D01*
X-62103Y-81761D01*
X-62097Y-81800D01*
X-62092Y-81833D01*
X-62086Y-81861D01*
X-62081Y-81883D01*
Y-81894D01*
Y-81900D01*
X-64661Y-81900D01*
Y-81217D01*
X-63196Y-81217D01*
X-63240Y-81145D01*
X-63290Y-81084D01*
X-63313Y-81056D01*
X-63329Y-81034D01*
X-63340Y-81023D01*
X-63346Y-81018D01*
X-63368Y-80995D01*
X-63390Y-80968D01*
X-63457Y-80907D01*
X-63529Y-80834D01*
X-63601Y-80762D01*
X-63673Y-80696D01*
X-63734Y-80640D01*
X-63757Y-80618D01*
X-63773Y-80601D01*
X-63784Y-80596D01*
X-63790Y-80590D01*
X-63912Y-80474D01*
X-64012Y-80379D01*
X-64095Y-80291D01*
X-64162Y-80224D01*
X-64212Y-80168D01*
X-64245Y-80130D01*
X-64267Y-80102D01*
X-64273Y-80096D01*
X-64345Y-80002D01*
X-64406Y-79913D01*
X-64456Y-79830D01*
X-64495Y-79758D01*
X-64528Y-79697D01*
X-64550Y-79647D01*
X-64561Y-79619D01*
X-64567Y-79608D01*
X-64600Y-79519D01*
X-64622Y-79430D01*
X-64639Y-79347D01*
X-64650Y-79269D01*
X-64656Y-79208D01*
X-64661Y-79158D01*
Y-79125D01*
Y-79114D01*
X-64656Y-79031D01*
X-64645Y-78947D01*
X-64634Y-78870D01*
X-64611Y-78798D01*
X-64556Y-78670D01*
X-64500Y-78559D01*
X-64467Y-78509D01*
X-64439Y-78470D01*
X-64411Y-78431D01*
X-64384Y-78404D01*
X-64362Y-78381D01*
X-64350Y-78359D01*
X-64339Y-78354D01*
X-64334Y-78348D01*
X-64273Y-78293D01*
X-64201Y-78243D01*
X-64134Y-78204D01*
X-64056Y-78170D01*
X-63912Y-78115D01*
X-63768Y-78076D01*
X-63701Y-78065D01*
X-63640Y-78054D01*
X-63585Y-78048D01*
X-63535Y-78043D01*
X-63496Y-78037D01*
X-63440D01*
X-63346Y-78043D01*
D02*
G37*
G36*
X-39364Y-81900D02*
X-40102D01*
Y-80507D01*
X-40108Y-80385D01*
X-40114Y-80279D01*
X-40125Y-80185D01*
X-40136Y-80113D01*
X-40147Y-80052D01*
X-40158Y-80013D01*
X-40169Y-79985D01*
Y-79980D01*
X-40197Y-79919D01*
X-40230Y-79863D01*
X-40264Y-79819D01*
X-40302Y-79780D01*
X-40330Y-79752D01*
X-40358Y-79730D01*
X-40374Y-79719D01*
X-40380Y-79713D01*
X-40435Y-79680D01*
X-40491Y-79658D01*
X-40547Y-79641D01*
X-40597Y-79630D01*
X-40641Y-79624D01*
X-40674Y-79619D01*
X-40707D01*
X-40763Y-79624D01*
X-40819Y-79630D01*
X-40863Y-79641D01*
X-40902Y-79652D01*
X-40929Y-79669D01*
X-40957Y-79680D01*
X-40968Y-79686D01*
X-40974Y-79691D01*
X-41013Y-79719D01*
X-41041Y-79752D01*
X-41090Y-79813D01*
X-41102Y-79841D01*
X-41113Y-79858D01*
X-41124Y-79874D01*
Y-79880D01*
X-41129Y-79908D01*
X-41140Y-79935D01*
X-41151Y-80013D01*
X-41157Y-80107D01*
X-41163Y-80202D01*
X-41168Y-80291D01*
Y-80329D01*
Y-80363D01*
Y-80396D01*
Y-80418D01*
Y-80429D01*
Y-80435D01*
Y-81900D01*
X-41906D01*
Y-80268D01*
Y-80135D01*
X-41901Y-80024D01*
X-41895Y-79930D01*
X-41890Y-79852D01*
X-41879Y-79797D01*
X-41873Y-79752D01*
X-41867Y-79724D01*
Y-79719D01*
X-41851Y-79652D01*
X-41829Y-79591D01*
X-41806Y-79536D01*
X-41779Y-79486D01*
X-41756Y-79447D01*
X-41740Y-79419D01*
X-41729Y-79397D01*
X-41723Y-79391D01*
X-41679Y-79341D01*
X-41629Y-79291D01*
X-41579Y-79253D01*
X-41529Y-79219D01*
X-41484Y-79192D01*
X-41446Y-79169D01*
X-41423Y-79158D01*
X-41412Y-79153D01*
X-41335Y-79119D01*
X-41251Y-79097D01*
X-41179Y-79075D01*
X-41107Y-79064D01*
X-41046Y-79058D01*
X-40996Y-79053D01*
X-40952D01*
X-40863Y-79058D01*
X-40774Y-79070D01*
X-40691Y-79092D01*
X-40613Y-79119D01*
X-40469Y-79186D01*
X-40402Y-79225D01*
X-40341Y-79264D01*
X-40291Y-79308D01*
X-40241Y-79347D01*
X-40202Y-79380D01*
X-40164Y-79414D01*
X-40141Y-79441D01*
X-40119Y-79463D01*
X-40108Y-79475D01*
X-40102Y-79480D01*
Y-78059D01*
X-39364D01*
Y-81900D01*
D02*
G37*
G36*
X-66387Y-78165D02*
X-66315Y-78281D01*
X-66237Y-78392D01*
X-66160Y-78481D01*
X-66093Y-78553D01*
X-66032Y-78609D01*
X-66010Y-78631D01*
X-65993Y-78648D01*
X-65982Y-78653D01*
X-65977Y-78659D01*
X-65855Y-78748D01*
X-65738Y-78825D01*
X-65632Y-78886D01*
X-65538Y-78931D01*
X-65460Y-78964D01*
X-65405Y-78992D01*
X-65383Y-78997D01*
X-65366Y-79003D01*
X-65361Y-79009D01*
X-65355D01*
Y-79675D01*
X-65555Y-79597D01*
X-65732Y-79514D01*
X-65816Y-79469D01*
X-65893Y-79419D01*
X-65965Y-79375D01*
X-66032Y-79330D01*
X-66093Y-79286D01*
X-66149Y-79247D01*
X-66193Y-79214D01*
X-66232Y-79181D01*
X-66265Y-79153D01*
X-66287Y-79136D01*
X-66299Y-79125D01*
X-66304Y-79119D01*
Y-81900D01*
X-67042D01*
Y-78037D01*
X-66443D01*
X-66387Y-78165D01*
D02*
G37*
G36*
X-69434Y-78043D02*
X-69329Y-78059D01*
X-69223Y-78082D01*
X-69129Y-78109D01*
X-69040Y-78148D01*
X-68951Y-78187D01*
X-68879Y-78232D01*
X-68807Y-78270D01*
X-68746Y-78315D01*
X-68691Y-78359D01*
X-68646Y-78398D01*
X-68607Y-78437D01*
X-68574Y-78465D01*
X-68552Y-78487D01*
X-68541Y-78503D01*
X-68535Y-78509D01*
X-68469Y-78603D01*
X-68407Y-78709D01*
X-68358Y-78825D01*
X-68313Y-78942D01*
X-68274Y-79070D01*
X-68241Y-79197D01*
X-68213Y-79325D01*
X-68197Y-79447D01*
X-68180Y-79563D01*
X-68169Y-79675D01*
X-68158Y-79774D01*
X-68152Y-79863D01*
X-68147Y-79935D01*
Y-79991D01*
Y-80007D01*
Y-80024D01*
Y-80030D01*
Y-80035D01*
X-68152Y-80224D01*
X-68163Y-80396D01*
X-68180Y-80557D01*
X-68208Y-80701D01*
X-68235Y-80840D01*
X-68263Y-80962D01*
X-68296Y-81068D01*
X-68335Y-81167D01*
X-68369Y-81251D01*
X-68402Y-81323D01*
X-68430Y-81384D01*
X-68463Y-81434D01*
X-68485Y-81473D01*
X-68502Y-81500D01*
X-68513Y-81517D01*
X-68519Y-81523D01*
X-68591Y-81600D01*
X-68668Y-81673D01*
X-68746Y-81734D01*
X-68829Y-81783D01*
X-68907Y-81828D01*
X-68990Y-81861D01*
X-69068Y-81894D01*
X-69140Y-81917D01*
X-69212Y-81933D01*
X-69273Y-81950D01*
X-69334Y-81955D01*
X-69384Y-81967D01*
X-69423D01*
X-69451Y-81972D01*
X-69479D01*
X-69579Y-81967D01*
X-69673Y-81955D01*
X-69762Y-81939D01*
X-69845Y-81917D01*
X-69928Y-81889D01*
X-70000Y-81861D01*
X-70067Y-81828D01*
X-70128Y-81795D01*
X-70183Y-81761D01*
X-70228Y-81728D01*
X-70272Y-81700D01*
X-70306Y-81673D01*
X-70333Y-81650D01*
X-70350Y-81634D01*
X-70361Y-81622D01*
X-70367Y-81617D01*
X-70428Y-81550D01*
X-70483Y-81473D01*
X-70528Y-81395D01*
X-70566Y-81317D01*
X-70605Y-81240D01*
X-70633Y-81162D01*
X-70672Y-81006D01*
X-70689Y-80940D01*
X-70700Y-80873D01*
X-70705Y-80818D01*
X-70711Y-80768D01*
X-70716Y-80723D01*
Y-80696D01*
Y-80673D01*
Y-80668D01*
X-70711Y-80563D01*
X-70700Y-80468D01*
X-70683Y-80374D01*
X-70666Y-80291D01*
X-70639Y-80207D01*
X-70611Y-80135D01*
X-70583Y-80063D01*
X-70550Y-80002D01*
X-70517Y-79946D01*
X-70489Y-79896D01*
X-70461Y-79858D01*
X-70433Y-79819D01*
X-70417Y-79791D01*
X-70400Y-79774D01*
X-70389Y-79763D01*
X-70383Y-79758D01*
X-70322Y-79697D01*
X-70256Y-79641D01*
X-70189Y-79591D01*
X-70122Y-79552D01*
X-70056Y-79519D01*
X-69989Y-79491D01*
X-69867Y-79447D01*
X-69812Y-79430D01*
X-69756Y-79419D01*
X-69712Y-79414D01*
X-69673Y-79408D01*
X-69640Y-79403D01*
X-69595D01*
X-69517Y-79408D01*
X-69445Y-79419D01*
X-69379Y-79430D01*
X-69312Y-79453D01*
X-69196Y-79508D01*
X-69096Y-79563D01*
X-69018Y-79624D01*
X-68985Y-79652D01*
X-68957Y-79680D01*
X-68935Y-79702D01*
X-68918Y-79713D01*
X-68913Y-79724D01*
X-68907Y-79730D01*
X-68918Y-79613D01*
X-68929Y-79502D01*
X-68940Y-79403D01*
X-68957Y-79314D01*
X-68974Y-79236D01*
X-68990Y-79164D01*
X-69007Y-79103D01*
X-69029Y-79047D01*
X-69046Y-78997D01*
X-69057Y-78958D01*
X-69073Y-78925D01*
X-69085Y-78903D01*
X-69096Y-78881D01*
X-69107Y-78870D01*
X-69112Y-78859D01*
X-69173Y-78786D01*
X-69240Y-78737D01*
X-69307Y-78698D01*
X-69368Y-78676D01*
X-69423Y-78659D01*
X-69468Y-78653D01*
X-69495Y-78648D01*
X-69506D01*
X-69568Y-78653D01*
X-69629Y-78664D01*
X-69678Y-78681D01*
X-69717Y-78698D01*
X-69751Y-78720D01*
X-69773Y-78737D01*
X-69789Y-78748D01*
X-69795Y-78753D01*
X-69834Y-78798D01*
X-69862Y-78847D01*
X-69889Y-78903D01*
X-69906Y-78953D01*
X-69917Y-79003D01*
X-69928Y-79042D01*
X-69934Y-79064D01*
Y-79075D01*
X-70644Y-78997D01*
X-70605Y-78831D01*
X-70550Y-78692D01*
X-70489Y-78570D01*
X-70428Y-78465D01*
X-70367Y-78387D01*
X-70345Y-78359D01*
X-70317Y-78331D01*
X-70300Y-78315D01*
X-70283Y-78298D01*
X-70278Y-78287D01*
X-70272D01*
X-70217Y-78243D01*
X-70161Y-78204D01*
X-70039Y-78143D01*
X-69917Y-78098D01*
X-69806Y-78070D01*
X-69706Y-78048D01*
X-69662Y-78043D01*
X-69623D01*
X-69595Y-78037D01*
X-69551D01*
X-69434Y-78043D01*
D02*
G37*
G36*
X-47562Y-79852D02*
X-48300D01*
Y-79114D01*
X-47562D01*
Y-79852D01*
D02*
G37*
G36*
X-53983Y-81900D02*
X-54699D01*
Y-78881D01*
X-55454Y-81900D01*
X-56203D01*
X-56958Y-78881D01*
X-56963Y-81900D01*
X-57679D01*
Y-78059D01*
X-56514D01*
X-55831Y-80685D01*
X-55143Y-78059D01*
X-53983D01*
Y-81900D01*
D02*
G37*
G36*
X-74191Y-80873D02*
X-75639D01*
Y-80135D01*
X-74191D01*
Y-80873D01*
D02*
G37*
G36*
X-37017Y-77993D02*
X-36872Y-78009D01*
X-36745Y-78037D01*
X-36617Y-78070D01*
X-36506Y-78109D01*
X-36395Y-78154D01*
X-36301Y-78204D01*
X-36212Y-78254D01*
X-36129Y-78304D01*
X-36062Y-78354D01*
X-36001Y-78398D01*
X-35951Y-78437D01*
X-35912Y-78470D01*
X-35884Y-78498D01*
X-35868Y-78514D01*
X-35862Y-78520D01*
X-35774Y-78626D01*
X-35701Y-78737D01*
X-35635Y-78853D01*
X-35579Y-78975D01*
X-35529Y-79103D01*
X-35491Y-79225D01*
X-35457Y-79347D01*
X-35429Y-79463D01*
X-35407Y-79580D01*
X-35396Y-79680D01*
X-35385Y-79774D01*
X-35374Y-79852D01*
Y-79919D01*
X-35368Y-79969D01*
Y-80002D01*
Y-80007D01*
Y-80013D01*
X-35374Y-80180D01*
X-35391Y-80335D01*
X-35413Y-80485D01*
X-35446Y-80618D01*
X-35479Y-80746D01*
X-35524Y-80868D01*
X-35568Y-80973D01*
X-35613Y-81068D01*
X-35657Y-81156D01*
X-35701Y-81234D01*
X-35746Y-81295D01*
X-35779Y-81350D01*
X-35812Y-81389D01*
X-35835Y-81423D01*
X-35851Y-81439D01*
X-35857Y-81445D01*
X-35951Y-81539D01*
X-36051Y-81617D01*
X-36156Y-81689D01*
X-36262Y-81745D01*
X-36367Y-81795D01*
X-36473Y-81839D01*
X-36573Y-81872D01*
X-36667Y-81900D01*
X-36761Y-81922D01*
X-36845Y-81939D01*
X-36922Y-81950D01*
X-36983Y-81955D01*
X-37039Y-81961D01*
X-37078Y-81967D01*
X-37111D01*
X-37228Y-81961D01*
X-37333Y-81955D01*
X-37438Y-81939D01*
X-37533Y-81917D01*
X-37622Y-81894D01*
X-37705Y-81872D01*
X-37783Y-81845D01*
X-37855Y-81811D01*
X-37916Y-81783D01*
X-37971Y-81756D01*
X-38021Y-81734D01*
X-38060Y-81711D01*
X-38093Y-81689D01*
X-38116Y-81673D01*
X-38127Y-81667D01*
X-38132Y-81661D01*
X-38204Y-81600D01*
X-38271Y-81534D01*
X-38393Y-81384D01*
X-38493Y-81228D01*
X-38571Y-81079D01*
X-38604Y-81006D01*
X-38632Y-80940D01*
X-38654Y-80879D01*
X-38676Y-80829D01*
X-38693Y-80784D01*
X-38704Y-80751D01*
X-38710Y-80729D01*
Y-80723D01*
X-37955Y-80490D01*
X-37910Y-80640D01*
X-37860Y-80768D01*
X-37810Y-80873D01*
X-37755Y-80962D01*
X-37710Y-81029D01*
X-37672Y-81073D01*
X-37644Y-81101D01*
X-37633Y-81112D01*
X-37544Y-81178D01*
X-37455Y-81223D01*
X-37366Y-81256D01*
X-37289Y-81284D01*
X-37216Y-81295D01*
X-37156Y-81301D01*
X-37133Y-81306D01*
X-37106D01*
X-37028Y-81301D01*
X-36956Y-81295D01*
X-36823Y-81256D01*
X-36706Y-81212D01*
X-36612Y-81151D01*
X-36534Y-81095D01*
X-36478Y-81051D01*
X-36456Y-81029D01*
X-36439Y-81012D01*
X-36434Y-81006D01*
X-36428Y-81001D01*
X-36384Y-80940D01*
X-36345Y-80868D01*
X-36306Y-80790D01*
X-36279Y-80707D01*
X-36234Y-80535D01*
X-36201Y-80363D01*
X-36190Y-80279D01*
X-36184Y-80207D01*
X-36173Y-80135D01*
Y-80074D01*
X-36168Y-80030D01*
Y-79991D01*
Y-79963D01*
Y-79957D01*
X-36173Y-79830D01*
X-36179Y-79713D01*
X-36190Y-79608D01*
X-36206Y-79508D01*
X-36229Y-79419D01*
X-36251Y-79336D01*
X-36273Y-79264D01*
X-36301Y-79197D01*
X-36323Y-79142D01*
X-36345Y-79092D01*
X-36367Y-79053D01*
X-36390Y-79020D01*
X-36406Y-78992D01*
X-36417Y-78975D01*
X-36428Y-78964D01*
Y-78958D01*
X-36478Y-78903D01*
X-36534Y-78853D01*
X-36589Y-78814D01*
X-36650Y-78781D01*
X-36767Y-78725D01*
X-36878Y-78686D01*
X-36972Y-78664D01*
X-37017Y-78659D01*
X-37050Y-78653D01*
X-37083Y-78648D01*
X-37122D01*
X-37233Y-78653D01*
X-37333Y-78676D01*
X-37422Y-78703D01*
X-37500Y-78737D01*
X-37561Y-78770D01*
X-37605Y-78798D01*
X-37633Y-78820D01*
X-37644Y-78825D01*
X-37716Y-78892D01*
X-37783Y-78970D01*
X-37833Y-79047D01*
X-37871Y-79125D01*
X-37899Y-79192D01*
X-37916Y-79242D01*
X-37927Y-79264D01*
Y-79280D01*
X-37933Y-79286D01*
Y-79291D01*
X-38698Y-79108D01*
X-38643Y-78947D01*
X-38582Y-78809D01*
X-38515Y-78686D01*
X-38454Y-78587D01*
X-38393Y-78509D01*
X-38371Y-78476D01*
X-38349Y-78448D01*
X-38332Y-78431D01*
X-38315Y-78415D01*
X-38310Y-78404D01*
X-38304D01*
X-38221Y-78331D01*
X-38127Y-78265D01*
X-38038Y-78209D01*
X-37944Y-78165D01*
X-37844Y-78120D01*
X-37749Y-78087D01*
X-37655Y-78059D01*
X-37566Y-78037D01*
X-37483Y-78021D01*
X-37405Y-78009D01*
X-37339Y-77998D01*
X-37278Y-77993D01*
X-37228Y-77987D01*
X-37161D01*
X-37017Y-77993D01*
D02*
G37*
G36*
X-59977D02*
X-59833Y-78009D01*
X-59705Y-78037D01*
X-59578Y-78070D01*
X-59466Y-78109D01*
X-59355Y-78154D01*
X-59261Y-78204D01*
X-59172Y-78254D01*
X-59089Y-78304D01*
X-59022Y-78354D01*
X-58961Y-78398D01*
X-58912Y-78437D01*
X-58873Y-78470D01*
X-58845Y-78498D01*
X-58828Y-78514D01*
X-58823Y-78520D01*
X-58734Y-78626D01*
X-58662Y-78737D01*
X-58595Y-78853D01*
X-58540Y-78975D01*
X-58490Y-79103D01*
X-58451Y-79225D01*
X-58417Y-79347D01*
X-58390Y-79463D01*
X-58368Y-79580D01*
X-58356Y-79680D01*
X-58345Y-79774D01*
X-58334Y-79852D01*
Y-79919D01*
X-58329Y-79969D01*
Y-80002D01*
Y-80007D01*
Y-80013D01*
X-58334Y-80180D01*
X-58351Y-80335D01*
X-58373Y-80485D01*
X-58406Y-80618D01*
X-58440Y-80746D01*
X-58484Y-80868D01*
X-58529Y-80973D01*
X-58573Y-81068D01*
X-58617Y-81156D01*
X-58662Y-81234D01*
X-58706Y-81295D01*
X-58739Y-81350D01*
X-58773Y-81389D01*
X-58795Y-81423D01*
X-58812Y-81439D01*
X-58817Y-81445D01*
X-58912Y-81539D01*
X-59011Y-81617D01*
X-59117Y-81689D01*
X-59222Y-81745D01*
X-59328Y-81795D01*
X-59433Y-81839D01*
X-59533Y-81872D01*
X-59627Y-81900D01*
X-59722Y-81922D01*
X-59805Y-81939D01*
X-59883Y-81950D01*
X-59944Y-81955D01*
X-59999Y-81961D01*
X-60038Y-81967D01*
X-60071D01*
X-60188Y-81961D01*
X-60293Y-81955D01*
X-60399Y-81939D01*
X-60493Y-81917D01*
X-60582Y-81894D01*
X-60665Y-81872D01*
X-60743Y-81845D01*
X-60815Y-81811D01*
X-60876Y-81783D01*
X-60932Y-81756D01*
X-60982Y-81734D01*
X-61020Y-81711D01*
X-61054Y-81689D01*
X-61076Y-81673D01*
X-61087Y-81667D01*
X-61093Y-81661D01*
X-61165Y-81600D01*
X-61231Y-81534D01*
X-61353Y-81384D01*
X-61453Y-81228D01*
X-61531Y-81079D01*
X-61564Y-81006D01*
X-61592Y-80940D01*
X-61614Y-80879D01*
X-61637Y-80829D01*
X-61653Y-80784D01*
X-61664Y-80751D01*
X-61670Y-80729D01*
Y-80723D01*
X-60915Y-80490D01*
X-60871Y-80640D01*
X-60821Y-80768D01*
X-60771Y-80873D01*
X-60715Y-80962D01*
X-60671Y-81029D01*
X-60632Y-81073D01*
X-60604Y-81101D01*
X-60593Y-81112D01*
X-60504Y-81178D01*
X-60416Y-81223D01*
X-60327Y-81256D01*
X-60249Y-81284D01*
X-60177Y-81295D01*
X-60116Y-81301D01*
X-60094Y-81306D01*
X-60066D01*
X-59988Y-81301D01*
X-59916Y-81295D01*
X-59783Y-81256D01*
X-59666Y-81212D01*
X-59572Y-81151D01*
X-59494Y-81095D01*
X-59439Y-81051D01*
X-59417Y-81029D01*
X-59400Y-81012D01*
X-59394Y-81006D01*
X-59389Y-81001D01*
X-59344Y-80940D01*
X-59306Y-80868D01*
X-59267Y-80790D01*
X-59239Y-80707D01*
X-59194Y-80535D01*
X-59161Y-80363D01*
X-59150Y-80279D01*
X-59145Y-80207D01*
X-59133Y-80135D01*
Y-80074D01*
X-59128Y-80030D01*
Y-79991D01*
Y-79963D01*
Y-79957D01*
X-59133Y-79830D01*
X-59139Y-79713D01*
X-59150Y-79608D01*
X-59167Y-79508D01*
X-59189Y-79419D01*
X-59211Y-79336D01*
X-59233Y-79264D01*
X-59261Y-79197D01*
X-59283Y-79142D01*
X-59306Y-79092D01*
X-59328Y-79053D01*
X-59350Y-79020D01*
X-59367Y-78992D01*
X-59378Y-78975D01*
X-59389Y-78964D01*
Y-78958D01*
X-59439Y-78903D01*
X-59494Y-78853D01*
X-59550Y-78814D01*
X-59611Y-78781D01*
X-59727Y-78725D01*
X-59838Y-78686D01*
X-59933Y-78664D01*
X-59977Y-78659D01*
X-60010Y-78653D01*
X-60044Y-78648D01*
X-60083D01*
X-60194Y-78653D01*
X-60293Y-78676D01*
X-60382Y-78703D01*
X-60460Y-78737D01*
X-60521Y-78770D01*
X-60565Y-78798D01*
X-60593Y-78820D01*
X-60604Y-78825D01*
X-60676Y-78892D01*
X-60743Y-78970D01*
X-60793Y-79047D01*
X-60832Y-79125D01*
X-60860Y-79192D01*
X-60876Y-79242D01*
X-60887Y-79264D01*
Y-79280D01*
X-60893Y-79286D01*
Y-79291D01*
X-61659Y-79108D01*
X-61603Y-78947D01*
X-61542Y-78809D01*
X-61476Y-78686D01*
X-61414Y-78587D01*
X-61353Y-78509D01*
X-61331Y-78476D01*
X-61309Y-78448D01*
X-61292Y-78431D01*
X-61276Y-78415D01*
X-61270Y-78404D01*
X-61265D01*
X-61181Y-78331D01*
X-61087Y-78265D01*
X-60998Y-78209D01*
X-60904Y-78165D01*
X-60804Y-78120D01*
X-60710Y-78087D01*
X-60615Y-78059D01*
X-60527Y-78037D01*
X-60443Y-78021D01*
X-60366Y-78009D01*
X-60299Y-77998D01*
X-60238Y-77993D01*
X-60188Y-77987D01*
X-60121D01*
X-59977Y-77993D01*
D02*
G37*
G36*
X-42650Y-81900D02*
X-43388D01*
Y-79114D01*
X-42650D01*
Y-81900D01*
D02*
G37*
G36*
X-47562D02*
X-48300D01*
Y-81162D01*
X-47562D01*
Y-81900D01*
D02*
G37*
G36*
X-50442Y-78709D02*
X-51580D01*
Y-81900D01*
X-52357D01*
Y-78709D01*
X-53489D01*
Y-78059D01*
X-50442D01*
Y-78709D01*
D02*
G37*
G36*
X-75800Y-78709D02*
X-76938D01*
Y-81900D01*
X-77715D01*
Y-78709D01*
X-78847D01*
Y-78059D01*
X-75800D01*
Y-78709D01*
D02*
G37*
G36*
X-78958Y-81900D02*
X-79779D01*
X-80096Y-81029D01*
X-81639D01*
X-81972Y-81900D01*
X-82810D01*
X-81267Y-78059D01*
X-80445D01*
X-78958Y-81900D01*
D02*
G37*
G36*
X-72276Y-78043D02*
X-72181Y-78054D01*
X-72087Y-78076D01*
X-72004Y-78098D01*
X-71926Y-78132D01*
X-71854Y-78165D01*
X-71793Y-78198D01*
X-71732Y-78237D01*
X-71682Y-78276D01*
X-71632Y-78309D01*
X-71593Y-78342D01*
X-71566Y-78376D01*
X-71538Y-78398D01*
X-71521Y-78420D01*
X-71510Y-78431D01*
X-71504Y-78437D01*
X-71438Y-78531D01*
X-71382Y-78642D01*
X-71332Y-78759D01*
X-71288Y-78881D01*
X-71255Y-79009D01*
X-71221Y-79142D01*
X-71199Y-79269D01*
X-71177Y-79397D01*
X-71166Y-79519D01*
X-71155Y-79630D01*
X-71144Y-79735D01*
X-71138Y-79824D01*
X-71133Y-79896D01*
Y-79952D01*
Y-79974D01*
Y-79991D01*
Y-79996D01*
Y-80002D01*
X-71138Y-80202D01*
X-71149Y-80385D01*
X-71166Y-80557D01*
X-71188Y-80712D01*
X-71210Y-80851D01*
X-71238Y-80979D01*
X-71271Y-81090D01*
X-71305Y-81190D01*
X-71332Y-81273D01*
X-71366Y-81351D01*
X-71393Y-81412D01*
X-71421Y-81462D01*
X-71438Y-81495D01*
X-71455Y-81523D01*
X-71466Y-81539D01*
X-71471Y-81545D01*
X-71538Y-81622D01*
X-71610Y-81684D01*
X-71682Y-81745D01*
X-71760Y-81789D01*
X-71832Y-81833D01*
X-71910Y-81867D01*
X-71982Y-81894D01*
X-72054Y-81917D01*
X-72120Y-81939D01*
X-72181Y-81950D01*
X-72237Y-81961D01*
X-72281Y-81967D01*
X-72320D01*
X-72354Y-81972D01*
X-72376D01*
X-72476Y-81967D01*
X-72570Y-81955D01*
X-72664Y-81933D01*
X-72748Y-81911D01*
X-72825Y-81883D01*
X-72897Y-81850D01*
X-72958Y-81811D01*
X-73020Y-81772D01*
X-73070Y-81739D01*
X-73119Y-81700D01*
X-73158Y-81667D01*
X-73192Y-81639D01*
X-73214Y-81617D01*
X-73230Y-81595D01*
X-73242Y-81584D01*
X-73247Y-81578D01*
X-73314Y-81484D01*
X-73369Y-81373D01*
X-73425Y-81256D01*
X-73464Y-81129D01*
X-73502Y-81001D01*
X-73530Y-80873D01*
X-73558Y-80740D01*
X-73580Y-80612D01*
X-73591Y-80490D01*
X-73602Y-80379D01*
X-73613Y-80274D01*
X-73619Y-80185D01*
X-73624Y-80113D01*
Y-80057D01*
Y-80035D01*
Y-80019D01*
Y-80013D01*
Y-80007D01*
X-73619Y-79808D01*
X-73608Y-79624D01*
X-73591Y-79458D01*
X-73563Y-79303D01*
X-73536Y-79158D01*
X-73508Y-79031D01*
X-73469Y-78914D01*
X-73436Y-78814D01*
X-73403Y-78720D01*
X-73369Y-78648D01*
X-73336Y-78581D01*
X-73308Y-78526D01*
X-73280Y-78487D01*
X-73264Y-78459D01*
X-73253Y-78442D01*
X-73247Y-78437D01*
X-73186Y-78365D01*
X-73119Y-78304D01*
X-73047Y-78254D01*
X-72975Y-78204D01*
X-72903Y-78165D01*
X-72831Y-78137D01*
X-72764Y-78109D01*
X-72692Y-78087D01*
X-72625Y-78070D01*
X-72570Y-78059D01*
X-72514Y-78048D01*
X-72470Y-78043D01*
X-72431Y-78037D01*
X-72376D01*
X-72276Y-78043D01*
D02*
G37*
G36*
X-45580Y-79058D02*
X-45486Y-79075D01*
X-45397Y-79097D01*
X-45325Y-79119D01*
X-45264Y-79142D01*
X-45214Y-79164D01*
X-45186Y-79181D01*
X-45175Y-79186D01*
X-45092Y-79236D01*
X-45025Y-79291D01*
X-44959Y-79347D01*
X-44909Y-79403D01*
X-44870Y-79452D01*
X-44837Y-79491D01*
X-44820Y-79514D01*
X-44815Y-79525D01*
Y-79114D01*
X-44126D01*
Y-82966D01*
X-44864D01*
Y-81556D01*
X-44942Y-81634D01*
X-45014Y-81700D01*
X-45075Y-81756D01*
X-45136Y-81795D01*
X-45186Y-81828D01*
X-45220Y-81856D01*
X-45247Y-81867D01*
X-45253Y-81872D01*
X-45325Y-81900D01*
X-45397Y-81922D01*
X-45469Y-81939D01*
X-45536Y-81950D01*
X-45592Y-81955D01*
X-45636Y-81961D01*
X-45675D01*
X-45763Y-81955D01*
X-45847Y-81944D01*
X-45930Y-81928D01*
X-46008Y-81900D01*
X-46147Y-81839D01*
X-46207Y-81806D01*
X-46269Y-81767D01*
X-46319Y-81734D01*
X-46363Y-81700D01*
X-46402Y-81667D01*
X-46435Y-81639D01*
X-46463Y-81611D01*
X-46479Y-81595D01*
X-46491Y-81584D01*
X-46496Y-81578D01*
X-46557Y-81500D01*
X-46607Y-81417D01*
X-46657Y-81334D01*
X-46696Y-81245D01*
X-46729Y-81156D01*
X-46757Y-81068D01*
X-46796Y-80890D01*
X-46812Y-80812D01*
X-46824Y-80734D01*
X-46829Y-80668D01*
X-46835Y-80612D01*
X-46840Y-80563D01*
Y-80524D01*
Y-80501D01*
Y-80496D01*
X-46835Y-80374D01*
X-46824Y-80252D01*
X-46807Y-80146D01*
X-46790Y-80041D01*
X-46762Y-79946D01*
X-46735Y-79858D01*
X-46701Y-79780D01*
X-46674Y-79708D01*
X-46640Y-79647D01*
X-46607Y-79591D01*
X-46579Y-79541D01*
X-46557Y-79508D01*
X-46535Y-79475D01*
X-46518Y-79452D01*
X-46507Y-79441D01*
X-46502Y-79436D01*
X-46435Y-79369D01*
X-46369Y-79308D01*
X-46302Y-79258D01*
X-46230Y-79214D01*
X-46163Y-79175D01*
X-46091Y-79147D01*
X-46030Y-79119D01*
X-45963Y-79103D01*
X-45908Y-79086D01*
X-45852Y-79075D01*
X-45802Y-79064D01*
X-45763Y-79058D01*
X-45725Y-79053D01*
X-45680D01*
X-45580Y-79058D01*
D02*
G37*
%LPC*%
G36*
X-44970Y-94568D02*
X-44975D01*
Y-94718D01*
Y-94807D01*
X-44970Y-94884D01*
X-44964Y-94945D01*
X-44959Y-94995D01*
X-44953Y-95029D01*
X-44948Y-95056D01*
X-44942Y-95068D01*
Y-95073D01*
X-44925Y-95123D01*
X-44898Y-95173D01*
X-44870Y-95212D01*
X-44842Y-95251D01*
X-44815Y-95278D01*
X-44792Y-95301D01*
X-44776Y-95312D01*
X-44770Y-95317D01*
X-44704Y-95362D01*
X-44631Y-95389D01*
X-44570Y-95412D01*
X-44509Y-95428D01*
X-44459Y-95439D01*
X-44420Y-95445D01*
X-44387D01*
X-44326Y-95439D01*
X-44265Y-95428D01*
X-44215Y-95412D01*
X-44176Y-95389D01*
X-44137Y-95367D01*
X-44115Y-95350D01*
X-44098Y-95339D01*
X-44093Y-95334D01*
X-44054Y-95289D01*
X-44026Y-95245D01*
X-44010Y-95201D01*
X-43999Y-95156D01*
X-43988Y-95123D01*
X-43982Y-95095D01*
Y-95073D01*
Y-95068D01*
X-43988Y-95012D01*
X-44004Y-94962D01*
X-44026Y-94918D01*
X-44054Y-94879D01*
X-44076Y-94851D01*
X-44098Y-94829D01*
X-44115Y-94818D01*
X-44121Y-94812D01*
X-44165Y-94790D01*
X-44221Y-94762D01*
X-44287Y-94740D01*
X-44354Y-94723D01*
X-44420Y-94707D01*
X-44470Y-94696D01*
X-44493Y-94690D01*
X-44509Y-94685D01*
X-44520D01*
X-44631Y-94662D01*
X-44720Y-94640D01*
X-44803Y-94618D01*
X-44864Y-94601D01*
X-44914Y-94585D01*
X-44948Y-94579D01*
X-44970Y-94568D01*
D02*
G37*
G36*
X-50476Y-93619D02*
X-50514D01*
X-50598Y-93625D01*
X-50670Y-93647D01*
X-50736Y-93674D01*
X-50792Y-93702D01*
X-50836Y-93735D01*
X-50870Y-93763D01*
X-50892Y-93786D01*
X-50897Y-93791D01*
X-50947Y-93858D01*
X-50992Y-93935D01*
X-51019Y-94019D01*
X-51042Y-94096D01*
X-51053Y-94163D01*
X-51058Y-94224D01*
X-51064Y-94246D01*
Y-94257D01*
Y-94268D01*
Y-94274D01*
X-49965D01*
X-49970Y-94168D01*
X-49987Y-94074D01*
X-50009Y-93991D01*
X-50043Y-93924D01*
X-50070Y-93869D01*
X-50098Y-93830D01*
X-50115Y-93802D01*
X-50120Y-93797D01*
X-50181Y-93735D01*
X-50248Y-93691D01*
X-50314Y-93663D01*
X-50376Y-93641D01*
X-50431Y-93630D01*
X-50476Y-93619D01*
D02*
G37*
G36*
X-56170Y-92709D02*
X-57058D01*
X-57108Y-92714D01*
X-57230D01*
X-57280Y-92720D01*
X-57313D01*
X-57330Y-92725D01*
X-57335D01*
X-57402Y-92742D01*
X-57463Y-92764D01*
X-57513Y-92787D01*
X-57552Y-92814D01*
X-57585Y-92842D01*
X-57613Y-92859D01*
X-57624Y-92875D01*
X-57629Y-92881D01*
X-57663Y-92925D01*
X-57691Y-92981D01*
X-57707Y-93031D01*
X-57724Y-93081D01*
X-57729Y-93125D01*
X-57735Y-93158D01*
Y-93181D01*
Y-93192D01*
X-57729Y-93253D01*
X-57724Y-93308D01*
X-57707Y-93358D01*
X-57696Y-93402D01*
X-57679Y-93436D01*
X-57663Y-93458D01*
X-57657Y-93475D01*
X-57652Y-93480D01*
X-57618Y-93519D01*
X-57585Y-93552D01*
X-57513Y-93602D01*
X-57485Y-93619D01*
X-57457Y-93630D01*
X-57441Y-93641D01*
X-57435D01*
X-57407Y-93647D01*
X-57363Y-93658D01*
X-57319Y-93663D01*
X-57269Y-93669D01*
X-57152Y-93674D01*
X-57036Y-93680D01*
X-56925Y-93686D01*
X-56170D01*
Y-92709D01*
D02*
G37*
G36*
X-79563Y-92953D02*
X-80101Y-94379D01*
X-79041D01*
X-79563Y-92953D01*
D02*
G37*
G36*
X-76122Y-92620D02*
X-76155D01*
X-76227Y-92625D01*
X-76294Y-92642D01*
X-76350Y-92659D01*
X-76399Y-92681D01*
X-76438Y-92709D01*
X-76466Y-92725D01*
X-76483Y-92742D01*
X-76488Y-92748D01*
X-76533Y-92798D01*
X-76560Y-92853D01*
X-76583Y-92909D01*
X-76599Y-92964D01*
X-76610Y-93009D01*
X-76616Y-93047D01*
Y-93069D01*
Y-93081D01*
X-76610Y-93158D01*
X-76594Y-93230D01*
X-76577Y-93286D01*
X-76555Y-93336D01*
X-76527Y-93380D01*
X-76511Y-93408D01*
X-76494Y-93425D01*
X-76488Y-93430D01*
X-76438Y-93469D01*
X-76383Y-93502D01*
X-76327Y-93525D01*
X-76272Y-93536D01*
X-76222Y-93547D01*
X-76183Y-93552D01*
X-76150D01*
X-76078Y-93547D01*
X-76011Y-93536D01*
X-75955Y-93514D01*
X-75906Y-93491D01*
X-75867Y-93469D01*
X-75839Y-93447D01*
X-75822Y-93436D01*
X-75817Y-93430D01*
X-75778Y-93380D01*
X-75745Y-93325D01*
X-75722Y-93269D01*
X-75711Y-93214D01*
X-75700Y-93164D01*
X-75695Y-93125D01*
Y-93097D01*
Y-93086D01*
X-75700Y-93009D01*
X-75711Y-92942D01*
X-75734Y-92886D01*
X-75756Y-92836D01*
X-75778Y-92798D01*
X-75800Y-92770D01*
X-75811Y-92753D01*
X-75817Y-92748D01*
X-75867Y-92703D01*
X-75922Y-92676D01*
X-75978Y-92653D01*
X-76033Y-92637D01*
X-76083Y-92625D01*
X-76122Y-92620D01*
D02*
G37*
G36*
X-76117Y-94135D02*
X-76161D01*
X-76244Y-94141D01*
X-76322Y-94163D01*
X-76388Y-94185D01*
X-76444Y-94218D01*
X-76488Y-94246D01*
X-76522Y-94274D01*
X-76544Y-94296D01*
X-76549Y-94302D01*
X-76599Y-94368D01*
X-76638Y-94440D01*
X-76666Y-94512D01*
X-76688Y-94585D01*
X-76699Y-94646D01*
X-76705Y-94696D01*
Y-94729D01*
Y-94735D01*
Y-94740D01*
X-76699Y-94851D01*
X-76683Y-94945D01*
X-76655Y-95029D01*
X-76627Y-95095D01*
X-76599Y-95151D01*
X-76572Y-95184D01*
X-76555Y-95212D01*
X-76549Y-95217D01*
X-76488Y-95273D01*
X-76427Y-95312D01*
X-76366Y-95340D01*
X-76305Y-95356D01*
X-76250Y-95367D01*
X-76211Y-95378D01*
X-76172D01*
X-76089Y-95373D01*
X-76011Y-95351D01*
X-75944Y-95323D01*
X-75889Y-95295D01*
X-75845Y-95262D01*
X-75811Y-95240D01*
X-75789Y-95217D01*
X-75783Y-95212D01*
X-75734Y-95140D01*
X-75695Y-95062D01*
X-75667Y-94984D01*
X-75650Y-94907D01*
X-75639Y-94834D01*
X-75628Y-94779D01*
Y-94757D01*
Y-94740D01*
Y-94735D01*
Y-94729D01*
X-75634Y-94651D01*
X-75650Y-94574D01*
X-75667Y-94507D01*
X-75695Y-94446D01*
X-75717Y-94396D01*
X-75734Y-94357D01*
X-75750Y-94335D01*
X-75756Y-94324D01*
X-75811Y-94263D01*
X-75878Y-94213D01*
X-75944Y-94179D01*
X-76011Y-94157D01*
X-76066Y-94146D01*
X-76117Y-94135D01*
D02*
G37*
G36*
X-38199Y-93636D02*
X-38210D01*
X-38304Y-93647D01*
X-38388Y-93669D01*
X-38460Y-93702D01*
X-38521Y-93741D01*
X-38571Y-93786D01*
X-38610Y-93819D01*
X-38637Y-93841D01*
X-38643Y-93852D01*
X-38704Y-93941D01*
X-38748Y-94041D01*
X-38776Y-94152D01*
X-38798Y-94257D01*
X-38809Y-94352D01*
X-38815Y-94390D01*
X-38820Y-94429D01*
Y-94457D01*
Y-94479D01*
Y-94496D01*
Y-94501D01*
Y-94585D01*
X-38815Y-94662D01*
X-38804Y-94735D01*
X-38793Y-94801D01*
X-38782Y-94862D01*
X-38765Y-94918D01*
X-38748Y-94968D01*
X-38737Y-95012D01*
X-38704Y-95084D01*
X-38676Y-95134D01*
X-38654Y-95162D01*
X-38648Y-95173D01*
X-38582Y-95240D01*
X-38510Y-95289D01*
X-38438Y-95328D01*
X-38371Y-95350D01*
X-38310Y-95367D01*
X-38265Y-95373D01*
X-38232Y-95378D01*
X-38221D01*
X-38127Y-95367D01*
X-38038Y-95345D01*
X-37960Y-95306D01*
X-37899Y-95267D01*
X-37844Y-95228D01*
X-37805Y-95190D01*
X-37783Y-95167D01*
X-37771Y-95156D01*
X-37738Y-95112D01*
X-37710Y-95062D01*
X-37666Y-94956D01*
X-37633Y-94840D01*
X-37611Y-94723D01*
X-37600Y-94624D01*
X-37594Y-94579D01*
Y-94540D01*
X-37588Y-94507D01*
Y-94485D01*
Y-94468D01*
Y-94463D01*
X-37594Y-94318D01*
X-37616Y-94196D01*
X-37644Y-94091D01*
X-37677Y-94002D01*
X-37705Y-93935D01*
X-37733Y-93885D01*
X-37755Y-93858D01*
X-37760Y-93846D01*
X-37833Y-93774D01*
X-37905Y-93724D01*
X-37982Y-93686D01*
X-38055Y-93663D01*
X-38116Y-93647D01*
X-38166Y-93641D01*
X-38199Y-93636D01*
D02*
G37*
G36*
X-72992Y-86946D02*
X-73025D01*
X-73103Y-86952D01*
X-73175Y-86974D01*
X-73236Y-87002D01*
X-73291Y-87035D01*
X-73336Y-87068D01*
X-73364Y-87096D01*
X-73386Y-87119D01*
X-73391Y-87124D01*
X-73441Y-87196D01*
X-73480Y-87285D01*
X-73502Y-87379D01*
X-73525Y-87468D01*
X-73536Y-87551D01*
X-73541Y-87618D01*
Y-87640D01*
Y-87662D01*
Y-87673D01*
Y-87679D01*
X-73536Y-87807D01*
X-73519Y-87918D01*
X-73497Y-88007D01*
X-73475Y-88079D01*
X-73447Y-88134D01*
X-73425Y-88173D01*
X-73408Y-88201D01*
X-73403Y-88206D01*
X-73347Y-88256D01*
X-73291Y-88295D01*
X-73230Y-88323D01*
X-73181Y-88340D01*
X-73131Y-88351D01*
X-73092Y-88362D01*
X-73058D01*
X-72981Y-88351D01*
X-72909Y-88328D01*
X-72847Y-88301D01*
X-72792Y-88262D01*
X-72748Y-88228D01*
X-72709Y-88195D01*
X-72687Y-88173D01*
X-72681Y-88167D01*
X-72625Y-88090D01*
X-72587Y-88001D01*
X-72559Y-87907D01*
X-72542Y-87818D01*
X-72531Y-87735D01*
X-72520Y-87673D01*
Y-87646D01*
Y-87629D01*
Y-87618D01*
Y-87612D01*
X-72526Y-87496D01*
X-72542Y-87396D01*
X-72565Y-87313D01*
X-72592Y-87241D01*
X-72620Y-87191D01*
X-72642Y-87152D01*
X-72659Y-87124D01*
X-72664Y-87119D01*
X-72720Y-87063D01*
X-72781Y-87019D01*
X-72842Y-86991D01*
X-72897Y-86969D01*
X-72947Y-86958D01*
X-72992Y-86946D01*
D02*
G37*
G36*
X-61459Y-85648D02*
X-61492D01*
X-61570Y-85659D01*
X-61642Y-85681D01*
X-61709Y-85709D01*
X-61764Y-85748D01*
X-61809Y-85786D01*
X-61842Y-85814D01*
X-61864Y-85836D01*
X-61870Y-85848D01*
X-61925Y-85931D01*
X-61964Y-86020D01*
X-61997Y-86114D01*
X-62014Y-86203D01*
X-62025Y-86286D01*
X-62036Y-86347D01*
Y-86375D01*
Y-86391D01*
Y-86402D01*
Y-86408D01*
X-62031Y-86525D01*
X-62014Y-86624D01*
X-61986Y-86708D01*
X-61964Y-86780D01*
X-61936Y-86830D01*
X-61909Y-86869D01*
X-61892Y-86897D01*
X-61886Y-86902D01*
X-61831Y-86958D01*
X-61770Y-86996D01*
X-61709Y-87030D01*
X-61653Y-87046D01*
X-61603Y-87057D01*
X-61564Y-87063D01*
X-61542Y-87068D01*
X-61531D01*
X-61453Y-87063D01*
X-61381Y-87041D01*
X-61320Y-87013D01*
X-61265Y-86980D01*
X-61220Y-86952D01*
X-61193Y-86924D01*
X-61170Y-86902D01*
X-61165Y-86897D01*
X-61115Y-86824D01*
X-61081Y-86735D01*
X-61054Y-86647D01*
X-61037Y-86552D01*
X-61026Y-86475D01*
X-61020Y-86408D01*
Y-86380D01*
Y-86364D01*
Y-86352D01*
Y-86347D01*
X-61026Y-86219D01*
X-61043Y-86108D01*
X-61065Y-86014D01*
X-61087Y-85942D01*
X-61109Y-85886D01*
X-61132Y-85848D01*
X-61148Y-85820D01*
X-61154Y-85814D01*
X-61209Y-85759D01*
X-61265Y-85720D01*
X-61320Y-85686D01*
X-61376Y-85670D01*
X-61420Y-85659D01*
X-61459Y-85648D01*
D02*
G37*
G36*
X-47512Y-86636D02*
X-47523D01*
X-47617Y-86647D01*
X-47701Y-86669D01*
X-47773Y-86702D01*
X-47834Y-86741D01*
X-47884Y-86786D01*
X-47923Y-86819D01*
X-47950Y-86841D01*
X-47956Y-86852D01*
X-48017Y-86941D01*
X-48061Y-87041D01*
X-48089Y-87152D01*
X-48111Y-87257D01*
X-48122Y-87352D01*
X-48128Y-87390D01*
X-48133Y-87429D01*
Y-87457D01*
Y-87479D01*
Y-87496D01*
Y-87501D01*
Y-87585D01*
X-48128Y-87662D01*
X-48117Y-87735D01*
X-48106Y-87801D01*
X-48094Y-87862D01*
X-48078Y-87918D01*
X-48061Y-87968D01*
X-48050Y-88012D01*
X-48017Y-88084D01*
X-47989Y-88134D01*
X-47967Y-88162D01*
X-47961Y-88173D01*
X-47895Y-88240D01*
X-47823Y-88289D01*
X-47750Y-88328D01*
X-47684Y-88350D01*
X-47623Y-88367D01*
X-47578Y-88373D01*
X-47545Y-88378D01*
X-47534D01*
X-47440Y-88367D01*
X-47351Y-88345D01*
X-47273Y-88306D01*
X-47212Y-88267D01*
X-47157Y-88228D01*
X-47118Y-88190D01*
X-47096Y-88167D01*
X-47084Y-88156D01*
X-47051Y-88112D01*
X-47023Y-88062D01*
X-46979Y-87957D01*
X-46946Y-87840D01*
X-46924Y-87723D01*
X-46912Y-87624D01*
X-46907Y-87579D01*
Y-87540D01*
X-46901Y-87507D01*
Y-87485D01*
Y-87468D01*
Y-87463D01*
X-46907Y-87318D01*
X-46929Y-87196D01*
X-46957Y-87091D01*
X-46990Y-87002D01*
X-47018Y-86935D01*
X-47046Y-86885D01*
X-47068Y-86858D01*
X-47073Y-86847D01*
X-47146Y-86774D01*
X-47218Y-86724D01*
X-47295Y-86686D01*
X-47368Y-86663D01*
X-47429Y-86647D01*
X-47479Y-86641D01*
X-47512Y-86636D01*
D02*
G37*
G36*
X-50792D02*
X-50803D01*
X-50897Y-86647D01*
X-50981Y-86669D01*
X-51053Y-86702D01*
X-51114Y-86741D01*
X-51164Y-86786D01*
X-51202Y-86819D01*
X-51230Y-86841D01*
X-51236Y-86852D01*
X-51297Y-86941D01*
X-51341Y-87041D01*
X-51369Y-87152D01*
X-51391Y-87257D01*
X-51402Y-87352D01*
X-51408Y-87390D01*
X-51413Y-87429D01*
Y-87457D01*
Y-87479D01*
Y-87496D01*
Y-87501D01*
Y-87585D01*
X-51408Y-87662D01*
X-51397Y-87735D01*
X-51386Y-87801D01*
X-51375Y-87862D01*
X-51358Y-87918D01*
X-51341Y-87968D01*
X-51330Y-88012D01*
X-51297Y-88084D01*
X-51269Y-88134D01*
X-51247Y-88162D01*
X-51241Y-88173D01*
X-51175Y-88240D01*
X-51103Y-88289D01*
X-51030Y-88328D01*
X-50964Y-88350D01*
X-50903Y-88367D01*
X-50858Y-88373D01*
X-50825Y-88378D01*
X-50814D01*
X-50720Y-88367D01*
X-50631Y-88345D01*
X-50553Y-88306D01*
X-50492Y-88267D01*
X-50437Y-88228D01*
X-50398Y-88190D01*
X-50376Y-88167D01*
X-50365Y-88156D01*
X-50331Y-88112D01*
X-50303Y-88062D01*
X-50259Y-87957D01*
X-50226Y-87840D01*
X-50204Y-87723D01*
X-50192Y-87624D01*
X-50187Y-87579D01*
Y-87540D01*
X-50181Y-87507D01*
Y-87485D01*
Y-87468D01*
Y-87463D01*
X-50187Y-87318D01*
X-50209Y-87196D01*
X-50237Y-87091D01*
X-50270Y-87002D01*
X-50298Y-86935D01*
X-50326Y-86885D01*
X-50348Y-86858D01*
X-50353Y-86847D01*
X-50425Y-86774D01*
X-50498Y-86724D01*
X-50575Y-86686D01*
X-50647Y-86663D01*
X-50709Y-86647D01*
X-50758Y-86641D01*
X-50792Y-86636D01*
D02*
G37*
G36*
X-69445Y-79946D02*
X-69479D01*
X-69556Y-79952D01*
X-69629Y-79974D01*
X-69690Y-80002D01*
X-69745Y-80035D01*
X-69789Y-80068D01*
X-69817Y-80096D01*
X-69839Y-80119D01*
X-69845Y-80124D01*
X-69895Y-80196D01*
X-69934Y-80285D01*
X-69956Y-80379D01*
X-69978Y-80468D01*
X-69989Y-80551D01*
X-69995Y-80618D01*
Y-80640D01*
Y-80662D01*
Y-80673D01*
Y-80679D01*
X-69989Y-80807D01*
X-69973Y-80918D01*
X-69950Y-81006D01*
X-69928Y-81079D01*
X-69901Y-81134D01*
X-69878Y-81173D01*
X-69862Y-81201D01*
X-69856Y-81206D01*
X-69801Y-81256D01*
X-69745Y-81295D01*
X-69684Y-81323D01*
X-69634Y-81340D01*
X-69584Y-81351D01*
X-69545Y-81362D01*
X-69512D01*
X-69434Y-81351D01*
X-69362Y-81328D01*
X-69301Y-81301D01*
X-69246Y-81262D01*
X-69201Y-81229D01*
X-69162Y-81195D01*
X-69140Y-81173D01*
X-69135Y-81167D01*
X-69079Y-81090D01*
X-69040Y-81001D01*
X-69012Y-80907D01*
X-68996Y-80818D01*
X-68985Y-80734D01*
X-68974Y-80673D01*
Y-80646D01*
Y-80629D01*
Y-80618D01*
Y-80612D01*
X-68979Y-80496D01*
X-68996Y-80396D01*
X-69018Y-80313D01*
X-69046Y-80241D01*
X-69073Y-80191D01*
X-69096Y-80152D01*
X-69112Y-80124D01*
X-69118Y-80119D01*
X-69173Y-80063D01*
X-69235Y-80019D01*
X-69296Y-79991D01*
X-69351Y-79969D01*
X-69401Y-79957D01*
X-69445Y-79946D01*
D02*
G37*
G36*
X-80851Y-78953D02*
X-81389Y-80379D01*
X-80329D01*
X-80851Y-78953D01*
D02*
G37*
G36*
X-72354Y-78648D02*
X-72376D01*
X-72426Y-78653D01*
X-72470Y-78659D01*
X-72509Y-78676D01*
X-72542Y-78692D01*
X-72570Y-78709D01*
X-72592Y-78720D01*
X-72603Y-78731D01*
X-72609Y-78737D01*
X-72642Y-78775D01*
X-72676Y-78825D01*
X-72703Y-78881D01*
X-72731Y-78936D01*
X-72748Y-78992D01*
X-72764Y-79036D01*
X-72770Y-79064D01*
X-72775Y-79070D01*
Y-79075D01*
X-72786Y-79125D01*
X-72798Y-79186D01*
X-72809Y-79258D01*
X-72820Y-79330D01*
X-72831Y-79480D01*
X-72836Y-79636D01*
X-72842Y-79708D01*
Y-79780D01*
X-72847Y-79841D01*
Y-79896D01*
Y-79941D01*
Y-79980D01*
Y-80002D01*
Y-80007D01*
Y-80130D01*
X-72842Y-80246D01*
Y-80352D01*
X-72836Y-80446D01*
X-72831Y-80535D01*
X-72825Y-80612D01*
X-72814Y-80685D01*
X-72809Y-80746D01*
X-72803Y-80801D01*
X-72792Y-80845D01*
X-72786Y-80884D01*
X-72781Y-80918D01*
X-72775Y-80940D01*
Y-80962D01*
X-72770Y-80968D01*
Y-80973D01*
X-72748Y-81051D01*
X-72720Y-81112D01*
X-72692Y-81167D01*
X-72670Y-81206D01*
X-72648Y-81240D01*
X-72625Y-81262D01*
X-72614Y-81273D01*
X-72609Y-81278D01*
X-72570Y-81306D01*
X-72531Y-81328D01*
X-72492Y-81340D01*
X-72453Y-81351D01*
X-72426Y-81356D01*
X-72398Y-81362D01*
X-72376D01*
X-72326Y-81356D01*
X-72281Y-81351D01*
X-72243Y-81334D01*
X-72209Y-81317D01*
X-72181Y-81306D01*
X-72159Y-81289D01*
X-72148Y-81284D01*
X-72143Y-81278D01*
X-72109Y-81240D01*
X-72076Y-81190D01*
X-72048Y-81134D01*
X-72021Y-81079D01*
X-72004Y-81029D01*
X-71987Y-80984D01*
X-71982Y-80957D01*
X-71976Y-80945D01*
X-71965Y-80890D01*
X-71954Y-80829D01*
X-71943Y-80762D01*
X-71937Y-80690D01*
X-71926Y-80535D01*
X-71921Y-80379D01*
X-71915Y-80307D01*
Y-80235D01*
X-71910Y-80174D01*
Y-80119D01*
Y-80074D01*
Y-80035D01*
Y-80013D01*
Y-80007D01*
Y-79885D01*
X-71915Y-79769D01*
Y-79669D01*
X-71921Y-79569D01*
X-71926Y-79486D01*
X-71932Y-79403D01*
X-71937Y-79336D01*
X-71948Y-79269D01*
X-71954Y-79214D01*
X-71960Y-79169D01*
X-71965Y-79131D01*
X-71971Y-79097D01*
X-71976Y-79075D01*
Y-79053D01*
X-71982Y-79047D01*
Y-79042D01*
X-72004Y-78964D01*
X-72032Y-78898D01*
X-72054Y-78847D01*
X-72082Y-78803D01*
X-72104Y-78775D01*
X-72120Y-78753D01*
X-72132Y-78742D01*
X-72137Y-78737D01*
X-72176Y-78709D01*
X-72220Y-78687D01*
X-72259Y-78670D01*
X-72298Y-78659D01*
X-72326Y-78653D01*
X-72354Y-78648D01*
D02*
G37*
G36*
X-45464Y-79636D02*
X-45475D01*
X-45569Y-79647D01*
X-45652Y-79669D01*
X-45725Y-79702D01*
X-45786Y-79741D01*
X-45836Y-79786D01*
X-45875Y-79819D01*
X-45902Y-79841D01*
X-45908Y-79852D01*
X-45969Y-79941D01*
X-46013Y-80041D01*
X-46041Y-80152D01*
X-46063Y-80257D01*
X-46074Y-80352D01*
X-46080Y-80390D01*
X-46085Y-80429D01*
Y-80457D01*
Y-80479D01*
Y-80496D01*
Y-80501D01*
Y-80585D01*
X-46080Y-80662D01*
X-46069Y-80734D01*
X-46058Y-80801D01*
X-46047Y-80862D01*
X-46030Y-80918D01*
X-46013Y-80968D01*
X-46002Y-81012D01*
X-45969Y-81084D01*
X-45941Y-81134D01*
X-45919Y-81162D01*
X-45913Y-81173D01*
X-45847Y-81239D01*
X-45775Y-81289D01*
X-45702Y-81328D01*
X-45636Y-81350D01*
X-45575Y-81367D01*
X-45530Y-81373D01*
X-45497Y-81378D01*
X-45486D01*
X-45392Y-81367D01*
X-45303Y-81345D01*
X-45225Y-81306D01*
X-45164Y-81267D01*
X-45109Y-81228D01*
X-45070Y-81190D01*
X-45048Y-81167D01*
X-45037Y-81156D01*
X-45003Y-81112D01*
X-44975Y-81062D01*
X-44931Y-80957D01*
X-44898Y-80840D01*
X-44875Y-80723D01*
X-44864Y-80624D01*
X-44859Y-80579D01*
Y-80540D01*
X-44853Y-80507D01*
Y-80485D01*
Y-80468D01*
Y-80462D01*
X-44859Y-80318D01*
X-44881Y-80196D01*
X-44909Y-80091D01*
X-44942Y-80002D01*
X-44970Y-79935D01*
X-44998Y-79885D01*
X-45020Y-79858D01*
X-45025Y-79847D01*
X-45098Y-79774D01*
X-45170Y-79724D01*
X-45247Y-79686D01*
X-45320Y-79663D01*
X-45381Y-79647D01*
X-45430Y-79641D01*
X-45464Y-79636D01*
D02*
G37*
%LPD*%
D13*
X-5000Y-55000D02*
X5000D01*
Y-15000D01*
X-5000Y-55000D02*
Y-15000D01*
X5000D01*
X-135000Y-105000D02*
Y-55000D01*
X-145000D02*
X-135000D01*
X-145000Y-105000D02*
Y-55000D01*
Y-105000D02*
X-135000D01*
X-145000Y-15000D02*
X-135000D01*
X-145000Y-55000D02*
Y-15000D01*
X-135000Y-55000D02*
Y-15000D01*
X-145000Y-55000D02*
X-135000D01*
X-5000Y-105000D02*
Y-75000D01*
Y-105000D02*
X5000D01*
Y-75000D01*
X-5000D02*
X5000D01*
X-145000Y5000D02*
X-135000D01*
Y-15000D02*
Y5000D01*
X-145000Y-15000D02*
X-135000D01*
X-145000D02*
Y5000D01*
X-5000D02*
X5000D01*
Y-15000D02*
Y5000D01*
X-5000Y-15000D02*
X5000D01*
X-5000D02*
Y5000D01*
Y-55000D02*
X5000D01*
Y-75000D02*
Y-55000D01*
X-5000Y-75000D02*
X5000D01*
X-5000D02*
Y-55000D01*
D15*
X-10266Y-68667D02*
X-9599Y-68001D01*
X-8266D01*
X-7600Y-68667D01*
Y-71333D01*
X-8266Y-71999D01*
X-9599D01*
X-10266Y-71333D01*
Y-70000D01*
X-8933D01*
X-11599Y-71999D02*
Y-68001D01*
X-14265Y-71999D01*
Y-68001D01*
X-15597D02*
Y-71999D01*
X-17597D01*
X-18263Y-71333D01*
Y-68667D01*
X-17597Y-68001D01*
X-15597D01*
X-114506Y-58001D02*
Y-61999D01*
X-116505D01*
X-117172Y-61333D01*
Y-58667D01*
X-116505Y-58001D01*
X-114506D01*
X-118505D02*
X-119837D01*
X-119171D01*
Y-61999D01*
X-118505D01*
X-119837D01*
X-121837D02*
Y-59334D01*
X-123170Y-58001D01*
X-124503Y-59334D01*
Y-61999D01*
Y-60000D01*
X-121837D01*
X-128501Y-58667D02*
X-127835Y-58001D01*
X-126502D01*
X-125836Y-58667D01*
Y-61333D01*
X-126502Y-61999D01*
X-127835D01*
X-128501Y-61333D01*
Y-60000D01*
X-127168D01*
X-129834Y-58667D02*
X-130501Y-58001D01*
X-131834D01*
X-132500Y-58667D01*
Y-61333D01*
X-131834Y-61999D01*
X-130501D01*
X-129834Y-61333D01*
Y-58667D01*
X-36068Y-69902D02*
X-39401D01*
X-37734D01*
Y-74900D01*
X-41067D02*
Y-69902D01*
X-42733Y-71568D01*
X-44399Y-69902D01*
Y-74900D01*
X-49397Y-70735D02*
X-48564Y-69902D01*
X-46898D01*
X-46065Y-70735D01*
Y-74067D01*
X-46898Y-74900D01*
X-48564D01*
X-49397Y-74067D01*
X-54396Y-74900D02*
X-51064D01*
X-54396Y-71568D01*
Y-70735D01*
X-53563Y-69902D01*
X-51897D01*
X-51064Y-70735D01*
X-56062Y-74900D02*
X-57728D01*
X-56895D01*
Y-69902D01*
X-56062Y-70735D01*
X-63560Y-69902D02*
X-61893Y-70735D01*
X-60227Y-72401D01*
Y-74067D01*
X-61060Y-74900D01*
X-62726D01*
X-63560Y-74067D01*
Y-73234D01*
X-62726Y-72401D01*
X-60227D01*
X-65226Y-70735D02*
X-66059Y-69902D01*
X-67725D01*
X-68558Y-70735D01*
Y-74067D01*
X-67725Y-74900D01*
X-66059D01*
X-65226Y-74067D01*
Y-70735D01*
X-70224Y-72401D02*
X-73556D01*
X-75222Y-69902D02*
Y-74900D01*
X-77722D01*
X-78555Y-74067D01*
Y-73234D01*
X-77722Y-72401D01*
X-75222D01*
X-77722D01*
X-78555Y-71568D01*
Y-70735D01*
X-77722Y-69902D01*
X-75222D01*
X-82720D02*
X-81054D01*
X-80221Y-70735D01*
Y-74067D01*
X-81054Y-74900D01*
X-82720D01*
X-83553Y-74067D01*
Y-70735D01*
X-82720Y-69902D01*
X-85219D02*
Y-74900D01*
X-87718D01*
X-88551Y-74067D01*
Y-73234D01*
X-87718Y-72401D01*
X-85219D01*
X-87718D01*
X-88551Y-71568D01*
Y-70735D01*
X-87718Y-69902D01*
X-85219D01*
X-93368D02*
Y-73234D01*
X-95034Y-74900D01*
X-96701Y-73234D01*
Y-69902D01*
X-98367Y-74900D02*
X-100033D01*
X-99200D01*
Y-69902D01*
X-98367Y-70735D01*
X-102532Y-74900D02*
Y-74067D01*
X-103365D01*
Y-74900D01*
X-102532D01*
X-106697Y-70735D02*
X-107530Y-69902D01*
X-109197D01*
X-110030Y-70735D01*
Y-74067D01*
X-109197Y-74900D01*
X-107530D01*
X-106697Y-74067D01*
Y-70735D01*
X-7600Y-98001D02*
Y-101999D01*
X-9599D01*
X-10266Y-101333D01*
Y-98667D01*
X-9599Y-98001D01*
X-7600D01*
X-14265Y-98667D02*
X-13598Y-98001D01*
X-12265D01*
X-11599Y-98667D01*
Y-101333D01*
X-12265Y-101999D01*
X-13598D01*
X-14265Y-101333D01*
X-17597Y-98001D02*
X-16264D01*
X-15597Y-98667D01*
Y-101333D01*
X-16264Y-101999D01*
X-17597D01*
X-18263Y-101333D01*
Y-98667D01*
X-17597Y-98001D01*
X-7600Y-88001D02*
Y-91999D01*
X-9599D01*
X-10266Y-91333D01*
Y-88667D01*
X-9599Y-88001D01*
X-7600D01*
X-14265Y-88667D02*
X-13598Y-88001D01*
X-12265D01*
X-11599Y-88667D01*
Y-91333D01*
X-12265Y-91999D01*
X-13598D01*
X-14265Y-91333D01*
X-18263Y-88001D02*
X-15597D01*
Y-91999D01*
X-18263D01*
X-15597Y-90000D02*
X-16930D01*
X-19596Y-91999D02*
Y-88001D01*
X-22262Y-91999D01*
Y-88001D01*
X-7600Y-78001D02*
Y-81999D01*
X-9599D01*
X-10266Y-81333D01*
Y-78667D01*
X-9599Y-78001D01*
X-7600D01*
X-14265Y-78667D02*
X-13598Y-78001D01*
X-12265D01*
X-11599Y-78667D01*
Y-81333D01*
X-12265Y-81999D01*
X-13598D01*
X-14265Y-81333D01*
X-15597Y-78001D02*
X-16930D01*
X-16264D01*
Y-81999D01*
X-15597D01*
X-16930D01*
X-18930D02*
Y-78001D01*
X-21596Y-81999D01*
Y-78001D01*
X-115839Y-68001D02*
Y-71999D01*
X-117838D01*
X-118505Y-71333D01*
Y-68667D01*
X-117838Y-68001D01*
X-115839D01*
X-119837D02*
X-121170D01*
X-120504D01*
Y-71999D01*
X-119837D01*
X-121170D01*
X-123170D02*
Y-69334D01*
X-124503Y-68001D01*
X-125836Y-69334D01*
Y-71999D01*
Y-70000D01*
X-123170D01*
X-129834Y-68667D02*
X-129168Y-68001D01*
X-127835D01*
X-127168Y-68667D01*
Y-71333D01*
X-127835Y-71999D01*
X-129168D01*
X-129834Y-71333D01*
Y-70000D01*
X-128501D01*
X-131167Y-71999D02*
X-132500D01*
X-131834D01*
Y-68001D01*
X-131167Y-68667D01*
X-6900Y-28001D02*
Y-31999D01*
X-8899D01*
X-9566Y-31333D01*
Y-30666D01*
X-8899Y-30000D01*
X-6900D01*
X-8899D01*
X-9566Y-29334D01*
Y-28667D01*
X-8899Y-28001D01*
X-6900D01*
X-10899Y-31999D02*
X-12232D01*
X-11565D01*
Y-28001D01*
X-10899Y-28667D01*
X-6700Y-18001D02*
Y-21999D01*
X-8699D01*
X-9366Y-21333D01*
Y-20666D01*
X-8699Y-20000D01*
X-6700D01*
X-8699D01*
X-9366Y-19333D01*
Y-18667D01*
X-8699Y-18001D01*
X-6700D01*
X-13364Y-21999D02*
X-10699D01*
X-13364Y-19333D01*
Y-18667D01*
X-12698Y-18001D01*
X-11365D01*
X-10699Y-18667D01*
X-10266Y-58667D02*
X-9599Y-58001D01*
X-8266D01*
X-7600Y-58667D01*
Y-61333D01*
X-8266Y-61999D01*
X-9599D01*
X-10266Y-61333D01*
Y-60000D01*
X-8933D01*
X-11599Y-61999D02*
Y-58001D01*
X-14265Y-61999D01*
Y-58001D01*
X-15597D02*
Y-61999D01*
X-17597D01*
X-18263Y-61333D01*
Y-58667D01*
X-17597Y-58001D01*
X-15597D01*
X-7337Y1999D02*
Y-667D01*
X-8670Y-2000D01*
X-10003Y-667D01*
Y1999D01*
X-14001Y1332D02*
X-13335Y1999D01*
X-12002D01*
X-11336Y1332D01*
Y666D01*
X-12002Y-1D01*
X-13335D01*
X-14001Y-667D01*
Y-1333D01*
X-13335Y-2000D01*
X-12002D01*
X-11336Y-1333D01*
X-10003Y-8668D02*
X-9336Y-8001D01*
X-8003D01*
X-7337Y-8668D01*
Y-11333D01*
X-8003Y-12000D01*
X-9336D01*
X-10003Y-11333D01*
Y-10001D01*
X-8670D01*
X-11336Y-12000D02*
Y-8001D01*
X-14001Y-12000D01*
Y-8001D01*
X-15334D02*
Y-12000D01*
X-17334D01*
X-18000Y-11333D01*
Y-8668D01*
X-17334Y-8001D01*
X-15334D01*
X-7600Y-41999D02*
Y-39334D01*
X-8933Y-38001D01*
X-10266Y-39334D01*
Y-41999D01*
Y-40000D01*
X-7600D01*
X-14265Y-41999D02*
X-11599D01*
X-14265Y-39334D01*
Y-38667D01*
X-13598Y-38001D01*
X-12265D01*
X-11599Y-38667D01*
X-7600Y-51999D02*
Y-49334D01*
X-8933Y-48001D01*
X-10266Y-49334D01*
Y-51999D01*
Y-50000D01*
X-7600D01*
X-11599Y-51999D02*
X-12932D01*
X-12265D01*
Y-48001D01*
X-11599Y-48667D01*
X-120504Y-88667D02*
X-119837Y-88001D01*
X-118505D01*
X-117838Y-88667D01*
Y-89334D01*
X-118505Y-90000D01*
X-119837D01*
X-120504Y-90666D01*
Y-91333D01*
X-119837Y-91999D01*
X-118505D01*
X-117838Y-91333D01*
X-121837Y-88001D02*
X-124503D01*
X-123170D01*
Y-91999D01*
X-128501Y-88001D02*
X-125836D01*
Y-91999D01*
X-128501D01*
X-125836Y-90000D02*
X-127168D01*
X-129834Y-91999D02*
Y-88001D01*
X-131834D01*
X-132500Y-88667D01*
Y-90000D01*
X-131834Y-90666D01*
X-129834D01*
X-105842Y-78001D02*
Y-81999D01*
X-107841D01*
X-108508Y-81333D01*
Y-78667D01*
X-107841Y-78001D01*
X-105842D01*
X-109841Y-81999D02*
Y-78001D01*
X-111840D01*
X-112506Y-78667D01*
Y-80000D01*
X-111840Y-80666D01*
X-109841D01*
X-111174D02*
X-112506Y-81999D01*
X-113839Y-78001D02*
Y-80666D01*
X-115172Y-81999D01*
X-116505Y-80666D01*
Y-78001D01*
X-117838Y-82666D02*
X-120504D01*
X-124503Y-78001D02*
X-121837D01*
Y-81999D01*
X-124503D01*
X-121837Y-80000D02*
X-123170D01*
X-125836Y-81999D02*
Y-78001D01*
X-128501Y-81999D01*
Y-78001D01*
X-129834Y-81999D02*
Y-78001D01*
X-132500Y-81999D01*
Y-78001D01*
X-122503Y-98001D02*
Y-101999D01*
X-124503D01*
X-125169Y-101333D01*
Y-98667D01*
X-124503Y-98001D01*
X-122503D01*
X-126502D02*
X-127835D01*
X-127168D01*
Y-101999D01*
X-126502D01*
X-127835D01*
X-129834D02*
Y-98001D01*
X-131834D01*
X-132500Y-98667D01*
Y-100000D01*
X-131834Y-100666D01*
X-129834D01*
X-131167D02*
X-132500Y-101999D01*
X-124503Y-48667D02*
X-123836Y-48001D01*
X-122503D01*
X-121837Y-48667D01*
Y-49334D01*
X-122503Y-50000D01*
X-123836D01*
X-124503Y-50666D01*
Y-51333D01*
X-123836Y-51999D01*
X-122503D01*
X-121837Y-51333D01*
X-125836Y-48001D02*
Y-51999D01*
X-127835D01*
X-128501Y-51333D01*
Y-48667D01*
X-127835Y-48001D01*
X-125836D01*
X-131834D02*
X-130501D01*
X-129834Y-48667D01*
Y-51333D01*
X-130501Y-51999D01*
X-131834D01*
X-132500Y-51333D01*
Y-48667D01*
X-131834Y-48001D01*
X-124503Y-28667D02*
X-123836Y-28001D01*
X-122503D01*
X-121837Y-28667D01*
Y-29334D01*
X-122503Y-30000D01*
X-123836D01*
X-124503Y-30666D01*
Y-31333D01*
X-123836Y-31999D01*
X-122503D01*
X-121837Y-31333D01*
X-128501Y-28667D02*
X-127835Y-28001D01*
X-126502D01*
X-125836Y-28667D01*
Y-31333D01*
X-126502Y-31999D01*
X-127835D01*
X-128501Y-31333D01*
X-129834Y-28001D02*
Y-31999D01*
Y-30666D01*
X-132500Y-28001D01*
X-130501Y-30000D01*
X-132500Y-31999D01*
X-125836Y-38667D02*
X-125169Y-38001D01*
X-123836D01*
X-123170Y-38667D01*
Y-39334D01*
X-123836Y-40000D01*
X-125169D01*
X-125836Y-40666D01*
Y-41333D01*
X-125169Y-41999D01*
X-123836D01*
X-123170Y-41333D01*
X-127168Y-38001D02*
Y-41999D01*
X-129168D01*
X-129834Y-41333D01*
Y-38667D01*
X-129168Y-38001D01*
X-127168D01*
X-131167D02*
X-132500D01*
X-131834D01*
Y-41999D01*
X-131167D01*
X-132500D01*
X-124503Y-18667D02*
X-123836Y-18001D01*
X-122503D01*
X-121837Y-18667D01*
Y-21333D01*
X-122503Y-21999D01*
X-123836D01*
X-124503Y-21333D01*
X-128501Y-18667D02*
X-127835Y-18001D01*
X-126502D01*
X-125836Y-18667D01*
Y-19333D01*
X-126502Y-20000D01*
X-127835D01*
X-128501Y-20666D01*
Y-21333D01*
X-127835Y-21999D01*
X-126502D01*
X-125836Y-21333D01*
X-129834Y-21999D02*
Y-18001D01*
X-132500Y-21999D01*
Y-18001D01*
X-124503Y-8667D02*
X-123836Y-8001D01*
X-122503D01*
X-121837Y-8667D01*
Y-11333D01*
X-122503Y-11999D01*
X-123836D01*
X-124503Y-11333D01*
Y-10000D01*
X-123170D01*
X-125836Y-11999D02*
Y-8001D01*
X-128501Y-11999D01*
Y-8001D01*
X-129834D02*
Y-11999D01*
X-131834D01*
X-132500Y-11333D01*
Y-8667D01*
X-131834Y-8001D01*
X-129834D01*
X-110407Y1999D02*
Y-667D01*
X-111740Y-1999D01*
X-113073Y-667D01*
Y1999D01*
X-117072Y1333D02*
X-116405Y1999D01*
X-115072D01*
X-114406Y1333D01*
Y-1333D01*
X-115072Y-1999D01*
X-116405D01*
X-117072Y-1333D01*
X-121070Y1333D02*
X-120404Y1999D01*
X-119071D01*
X-118404Y1333D01*
Y-1333D01*
X-119071Y-1999D01*
X-120404D01*
X-121070Y-1333D01*
X-122403Y-2666D02*
X-125069D01*
X-126402Y1999D02*
X-127735D01*
X-127068D01*
Y-1999D01*
X-126402D01*
X-127735D01*
X-131734Y1999D02*
X-130401D01*
X-129734Y1333D01*
Y-1333D01*
X-130401Y-1999D01*
X-131734D01*
X-132400Y-1333D01*
Y1333D01*
X-131734Y1999D01*
D38*
X-5000Y-55000D02*
Y-15000D01*
M02*
