G04*
G04 #@! TF.GenerationSoftware,Altium Limited,Altium Designer,18.0.11 (651)*
G04*
G04 Layer_Color=16711935*
%FSLAX25Y25*%
%MOIN*%
G70*
G01*
G75*
%ADD40C,0.01000*%
%ADD50C,0.00600*%
D40*
X18000Y-99000D02*
X20000Y-105000D01*
X22000Y-99000D01*
X20000Y5000D02*
X22000Y-1000D01*
X18000D02*
X20000Y5000D01*
Y-105000D02*
Y-63197D01*
Y-40003D02*
Y5000D01*
X2263Y-105000D02*
X21000D01*
X2263Y5000D02*
X21000D01*
X-145000Y15000D02*
X-139000Y17000D01*
X-145000Y15000D02*
X-139000Y13000D01*
X-1000D02*
X5000Y15000D01*
X-1000Y17000D02*
X5000Y15000D01*
X-145000D02*
X-83697D01*
X-59503D02*
X5000D01*
X-145000Y2263D02*
Y16000D01*
X5000Y2263D02*
Y16000D01*
D50*
X24599Y-61597D02*
Y-59597D01*
Y-60597D01*
X18601D01*
X19600Y-61597D01*
X25598Y-55599D02*
X24599Y-54599D01*
X23599D01*
Y-55599D01*
X24599D01*
Y-54599D01*
X25598Y-55599D01*
X26598Y-56598D01*
X24599Y-50600D02*
Y-48601D01*
Y-49601D01*
X18601D01*
X19600Y-50600D01*
Y-45602D02*
X18601Y-44602D01*
Y-42603D01*
X19600Y-41603D01*
X23599D01*
X24599Y-42603D01*
Y-44602D01*
X23599Y-45602D01*
X19600D01*
X-82097Y10401D02*
X-80097D01*
X-81097D01*
Y16399D01*
X-82097Y15400D01*
X-76099Y9402D02*
X-75099Y10401D01*
Y11401D01*
X-76099D01*
Y10401D01*
X-75099D01*
X-76099Y9402D01*
X-77098Y8402D01*
X-67102Y16399D02*
X-71100D01*
Y13400D01*
X-69101Y14400D01*
X-68101D01*
X-67102Y13400D01*
Y11401D01*
X-68101Y10401D01*
X-70100D01*
X-71100Y11401D01*
X-65102Y15400D02*
X-64102Y16399D01*
X-62103D01*
X-61103Y15400D01*
Y11401D01*
X-62103Y10401D01*
X-64102D01*
X-65102Y11401D01*
Y15400D01*
M02*
