*
*
G04 PADS VX.2.2 Build Number: 9893964 generated Gerber (RS-274-X) file*
G04 PC Version=2.1*
*
%IN "TMC5160-EVAL_V30.pcb"*%
*
%MOMM*%
*
%FSLAX33Y33*%
*
*
*
*
G04 PC Standard Apertures*
*
*
G04 Thermal Relief Aperture macro.*
%AMTER*
1,1,$1,0,0*
1,0,$1-$2,0,0*
21,0,$3,$4,0,0,45*
21,0,$3,$4,0,0,135*
%
*
*
G04 Annular Aperture macro.*
%AMANN*
1,1,$1,0,0*
1,0,$2,0,0*
%
*
*
G04 Odd Aperture macro.*
%AMODD*
1,1,$1,0,0*
1,0,$1-0.005,0,0*
%
*
*
G04 PC Custom Aperture Macros*
*
*
*
*
*
*
G04 PC Aperture Table*
*
%ADD011C,0.1016*%
%ADD070C,3*%
%ADD075C,0.5*%
%ADD103C,1.8*%
%ADD129R,3X3*%
%ADD146R,1.8X1.8*%
%ADD150R,1.6X1.6*%
%ADD151C,1.6*%
%ADD157C,0.4*%
%ADD166C,0.1*%
%ADD169R,0.4X0.51*%
%ADD170R,1.1X0.9*%
%ADD171R,0.9X1.1*%
%ADD172R,1.4X1.3*%
%ADD173R,1.9X5.5*%
%ADD176R,1.8X1.3*%
%ADD177R,1X0.6*%
%ADD178R,2.55X2.3*%
%ADD180R,0.25X1.45*%
%ADD181R,1.45X0.25*%
%ADD182C,6.7*%
%ADD183C,2*%
%ADD184C,1.3*%
%ADD186C,2.5*%
%ADD187R,5X5*%
%ADD196R,0.635X1.6002*%
%ADD197R,1.65X3.4*%
%ADD198R,1.3X0.62*%
%ADD199R,3.86X5.35*%
%ADD200C,0.01*%
%ADD202R,1X1*%
*
*
*
*
G04 PC Circuitry*
G04 Layer Name TMC5160-EVAL_V30.pcb - circuitry*
%LPD*%
*
*
G04 PC Custom Flashes*
G04 Layer Name TMC5160-EVAL_V30.pcb - flashes*
%LPD*%
*
*
G04 PC Circuitry*
G04 Layer Name TMC5160-EVAL_V30.pcb - circuitry*
%LPD*%
*
G54D11*
G01X110349Y178699D02*
X109641D01*
X109641D02*
X109626Y178704D01*
X109626D02*
X109613Y178713D01*
X109613D02*
X109604Y178726D01*
X109604D02*
X109599Y178741D01*
X109599D02*
Y179449D01*
X109200*
X109200D02*
Y178741D01*
X109200D02*
X109195Y178726D01*
X109195D02*
X109186Y178713D01*
X109186D02*
X109173Y178704D01*
X109158Y178699*
X108450*
X108450D02*
Y178300D01*
X108450D02*
X109158D01*
X109158D02*
X109173Y178295D01*
X109173D02*
X109186Y178286D01*
X109195Y178273*
X109195D02*
X109200Y178258D01*
X109200D02*
Y177550D01*
X109200D02*
X109599D01*
X109599D02*
Y178258D01*
X109604Y178273*
X109613Y178286*
X109613D02*
X109626Y178295D01*
X109626D02*
X109641Y178300D01*
X109641D02*
X110349D01*
X110349D02*
Y178699D01*
X108485Y178300D02*
Y178699D01*
X108536Y178300D02*
Y178699D01*
X108587Y178300D02*
Y178699D01*
X108638Y178300D02*
Y178699D01*
X108688Y178300D02*
Y178699D01*
X108739Y178300D02*
Y178699D01*
X108790Y178300D02*
Y178699D01*
X108841Y178300D02*
Y178699D01*
X108892Y178300D02*
Y178699D01*
X108942Y178300D02*
Y178699D01*
X108993Y178300D02*
Y178699D01*
X109044Y178300D02*
Y178699D01*
X109095Y178300D02*
Y178699D01*
X109146Y178300D02*
Y178699D01*
X109196Y178270D02*
Y178729D01*
X109247Y177550D02*
Y179449D01*
X109298Y177550D02*
Y179449D01*
X109349Y177550D02*
Y179449D01*
X109400Y177550D02*
Y179449D01*
X109450Y177550D02*
Y179449D01*
X109501Y177550D02*
Y179449D01*
X109552Y177550D02*
Y179449D01*
X109603Y178270D02*
Y178729D01*
X109654Y178300D02*
Y178699D01*
X109704Y178300D02*
Y178699D01*
X109755Y178300D02*
Y178699D01*
X109806Y178300D02*
Y178699D01*
X109857Y178300D02*
Y178699D01*
X109908Y178300D02*
Y178699D01*
X109958Y178300D02*
Y178699D01*
X110009Y178300D02*
Y178699D01*
X110060Y178300D02*
Y178699D01*
X110111Y178300D02*
Y178699D01*
X110162Y178300D02*
Y178699D01*
X110212Y178300D02*
Y178699D01*
X110263Y178300D02*
Y178699D01*
X110314Y178300D02*
Y178699D01*
X157449Y112399D02*
X156741D01*
X156741D02*
X156726Y112404D01*
X156726D02*
X156713Y112413D01*
X156713D02*
X156704Y112426D01*
X156704D02*
X156699Y112441D01*
X156699D02*
Y113149D01*
X156300*
X156300D02*
Y112441D01*
X156300D02*
X156295Y112426D01*
X156295D02*
X156286Y112413D01*
X156286D02*
X156273Y112404D01*
X156258Y112399*
X155550*
X155550D02*
Y112000D01*
X155550D02*
X156258D01*
X156258D02*
X156273Y111995D01*
X156273D02*
X156286Y111986D01*
X156295Y111973*
X156295D02*
X156300Y111958D01*
X156300D02*
Y111250D01*
X156300D02*
X156699D01*
X156699D02*
Y111958D01*
X156704Y111973*
X156713Y111986*
X156713D02*
X156726Y111995D01*
X156726D02*
X156741Y112000D01*
X156741D02*
X157449D01*
X157449D02*
Y112399D01*
X155585Y112000D02*
Y112399D01*
X155636Y112000D02*
Y112399D01*
X155687Y112000D02*
Y112399D01*
X155738Y112000D02*
Y112399D01*
X155788Y112000D02*
Y112399D01*
X155839Y112000D02*
Y112399D01*
X155890Y112000D02*
Y112399D01*
X155941Y112000D02*
Y112399D01*
X155992Y112000D02*
Y112399D01*
X156042Y112000D02*
Y112399D01*
X156093Y112000D02*
Y112399D01*
X156144Y112000D02*
Y112399D01*
X156195Y112000D02*
Y112399D01*
X156246Y112000D02*
Y112399D01*
X156296Y111970D02*
Y112429D01*
X156347Y111250D02*
Y113149D01*
X156398Y111250D02*
Y113149D01*
X156449Y111250D02*
Y113149D01*
X156500Y111250D02*
Y113149D01*
X156550Y111250D02*
Y113149D01*
X156601Y111250D02*
Y113149D01*
X156652Y111250D02*
Y113149D01*
X156703Y111970D02*
Y112429D01*
X156754Y112000D02*
Y112399D01*
X156804Y112000D02*
Y112399D01*
X156855Y112000D02*
Y112399D01*
X156906Y112000D02*
Y112399D01*
X156957Y112000D02*
Y112399D01*
X157008Y112000D02*
Y112399D01*
X157058Y112000D02*
Y112399D01*
X157109Y112000D02*
Y112399D01*
X157160Y112000D02*
Y112399D01*
X157211Y112000D02*
Y112399D01*
X157262Y112000D02*
Y112399D01*
X157312Y112000D02*
Y112399D01*
X157363Y112000D02*
Y112399D01*
X157414Y112000D02*
Y112399D01*
G54D70*
X109400Y178500D03*
X156500Y112200D03*
X152500D03*
X177100Y108600D03*
X175000Y171000D03*
X109400Y181800D03*
X162300Y175000D03*
G54D75*
X124600Y148600D03*
Y146600D03*
X123600D03*
X120600Y147600D03*
X122600D03*
X121600D03*
Y145600D03*
X124600Y147600D03*
X120600Y145600D03*
X123600Y147600D03*
X122600Y148600D03*
Y145600D03*
X121600Y146600D03*
Y148600D03*
X120600D03*
X123600D03*
X124600Y145600D03*
X120600Y146600D03*
X123600Y145600D03*
X122600Y146600D03*
X121600Y149600D03*
X122600D03*
X120600D03*
X123600D03*
X124600D03*
G54D103*
X171040Y163900D03*
Y131100D03*
G54D129*
X167300Y175000D03*
G54D146*
X165960Y163900D03*
Y131100D03*
G54D150*
X145040Y182000D03*
X169000Y104000D03*
X104000Y175000D03*
X120320Y182000D03*
G54D151*
X142500D03*
X117780D03*
X115240D03*
X112700D03*
G54D157*
X102272Y98125D02*
X102090Y98375D01*
X102090D02*
X101818Y98500D01*
X101454*
X101454D02*
X101181Y98375D01*
X101181D02*
X101000Y98125D01*
Y97875*
X101090Y97625*
X101090D02*
X101181Y97500D01*
X101181D02*
X101363Y97375D01*
X101363D02*
X101909Y97125D01*
X102090Y97000*
X102090D02*
X102181Y96875D01*
X102181D02*
X102272Y96625D01*
X102272D02*
Y96250D01*
X102272D02*
X102090Y96000D01*
X102090D02*
X101818Y95875D01*
X101454*
X101454D02*
X101181Y96000D01*
X101181D02*
X101000Y96250D01*
X103545Y97625D02*
X103363Y97500D01*
X103363D02*
X103181Y97250D01*
X103181D02*
X103090Y96875D01*
X103090D02*
Y96625D01*
X103090D02*
X103181Y96250D01*
X103181D02*
X103363Y96000D01*
X103363D02*
X103545Y95875D01*
X103818*
X104000Y96000*
X104181Y96250*
X104181D02*
X104272Y96625D01*
X104272D02*
Y96875D01*
X104272D02*
X104181Y97250D01*
X104181D02*
X104000Y97500D01*
X103818Y97625*
X103545*
X105090Y98500D02*
Y95875D01*
X107000Y98500D02*
Y95875D01*
Y97250D02*
X106818Y97500D01*
X106636Y97625*
X106363*
X106363D02*
X106181Y97500D01*
X106181D02*
X106000Y97250D01*
X105909Y96875*
Y96625*
X106000Y96250*
X106181Y96000*
X106181D02*
X106363Y95875D01*
X106363D02*
X106636D01*
X106818Y96000*
X107000Y96250*
X107818Y96875D02*
X108909D01*
Y97125*
X108818Y97375*
X108727Y97500*
X108545Y97625*
X108272*
X108272D02*
X108090Y97500D01*
X108090D02*
X107909Y97250D01*
X107818Y96875*
Y96625*
X107909Y96250*
X108090Y96000*
X108090D02*
X108272Y95875D01*
X108272D02*
X108545D01*
X108727Y96000*
X108909Y96250*
X109727Y97625D02*
Y95875D01*
Y96875D02*
X109818Y97250D01*
X110000Y97500*
X110181Y97625*
X110181D02*
X110454D01*
X113363Y98500D02*
Y95875D01*
Y98500D02*
X114090Y95875D01*
X114818Y98500D02*
X114090Y95875D01*
X114818Y98500D02*
Y95875D01*
X116727Y97625D02*
Y95875D01*
Y97250D02*
X116545Y97500D01*
X116363Y97625*
X116363D02*
X116090D01*
X116090D02*
X115909Y97500D01*
X115727Y97250*
X115636Y96875*
Y96625*
X115727Y96250*
X115909Y96000*
X116090Y95875*
X116090D02*
X116363D01*
X116363D02*
X116545Y96000D01*
X116727Y96250*
X118545Y97250D02*
X118454Y97500D01*
X118454D02*
X118181Y97625D01*
X118181D02*
X117909D01*
X117636Y97500*
X117545Y97250*
X117636Y97000*
X117818Y96875*
X118272Y96750*
X118272D02*
X118454Y96625D01*
X118454D02*
X118545Y96375D01*
Y96250*
X118454Y96000*
X118454D02*
X118181Y95875D01*
X118181D02*
X117909D01*
X117636Y96000*
X117545Y96250*
X119363Y98500D02*
Y95875D01*
X120272Y97625D02*
X119363Y96375D01*
X119727Y96875D02*
X120363Y95875D01*
X123909Y98500D02*
Y95875D01*
X123272Y98500D02*
X124545D01*
X125818Y97625D02*
X125636Y97500D01*
X125454Y97250*
X125454D02*
X125363Y96875D01*
X125363D02*
Y96625D01*
X125363D02*
X125454Y96250D01*
X125454D02*
X125636Y96000D01*
X125818Y95875*
X126090*
X126090D02*
X126272Y96000D01*
X126272D02*
X126454Y96250D01*
X126454D02*
X126545Y96625D01*
Y96875*
X126454Y97250*
X126454D02*
X126272Y97500D01*
X126272D02*
X126090Y97625D01*
X126090D02*
X125818D01*
X127363D02*
Y95000D01*
Y97250D02*
X127545Y97500D01*
X127727Y97625*
X128000*
X128181Y97500*
X128181D02*
X128363Y97250D01*
X128363D02*
X128454Y96875D01*
X128454D02*
Y96625D01*
X128454D02*
X128363Y96250D01*
X128363D02*
X128181Y96000D01*
X128181D02*
X128000Y95875D01*
X127727*
X127545Y96000*
X127363Y96250*
X101636Y92500D02*
Y89875D01*
X101000Y92500D02*
X102272D01*
X103090D02*
Y89875D01*
Y92500D02*
X103818Y89875D01*
X104545Y92500D02*
X103818Y89875D01*
X104545Y92500D02*
Y89875D01*
X106727Y91875D02*
X106636Y92125D01*
X106454Y92375*
X106454D02*
X106272Y92500D01*
X106272D02*
X105909D01*
X105727Y92375*
X105545Y92125*
X105454Y91875*
X105454D02*
X105363Y91500D01*
X105363D02*
Y90875D01*
X105363D02*
X105454Y90500D01*
X105454D02*
X105545Y90250D01*
X105727Y90000*
X105909Y89875*
X106272*
X106272D02*
X106454Y90000D01*
X106454D02*
X106636Y90250D01*
X106727Y90500*
X107636Y91875D02*
Y92000D01*
X107727Y92250*
X107818Y92375*
X108000Y92500*
X108363*
X108363D02*
X108545Y92375D01*
X108636Y92250*
X108727Y92000*
Y91750*
X108636Y91500*
X108454Y91125*
X108454D02*
X107545Y89875D01*
X108818*
X109636Y92000D02*
X109818Y92125D01*
X110090Y92500*
X110090D02*
Y89875D01*
X112000Y92125D02*
X111909Y92375D01*
X111636Y92500*
X111454*
X111454D02*
X111181Y92375D01*
X111181D02*
X111000Y92000D01*
X110909Y91375*
Y90750*
X111000Y90250*
X111181Y90000*
X111181D02*
X111454Y89875D01*
X111454D02*
X111545D01*
X111818Y90000*
X112000Y90250*
X112090Y90625*
X112090D02*
Y90750D01*
X112090D02*
X112000Y91125D01*
X111818Y91375*
X111545Y91500*
X111454*
X111454D02*
X111181Y91375D01*
X111181D02*
X111000Y91125D01*
X110909Y90750*
X113454Y92500D02*
X113181Y92375D01*
X113181D02*
X113000Y92000D01*
X112909Y91375*
Y91000*
X113000Y90375*
X113181Y90000*
X113181D02*
X113454Y89875D01*
X113454D02*
X113636D01*
X113909Y90000*
X114090Y90375*
X114090D02*
X114181Y91000D01*
X114181D02*
Y91375D01*
X114181D02*
X114090Y92000D01*
X114090D02*
X113909Y92375D01*
X113636Y92500*
X113454*
X115000Y91000D02*
X116636D01*
X117454Y92500D02*
Y89875D01*
Y92500D02*
X118636D01*
X117454Y91250D02*
X118181D01*
X117454Y89875D02*
X118636D01*
X119454Y92500D02*
X120181Y89875D01*
X120909Y92500D02*
X120181Y89875D01*
X122454Y92500D02*
X121727Y89875D01*
X122454Y92500D02*
X123181Y89875D01*
X122000Y90750D02*
X122909D01*
X124000Y92500D02*
Y89875D01*
X125090*
X128000Y92500D02*
X128727Y89875D01*
X129454Y92500D02*
X128727Y89875D01*
X130272Y92000D02*
X130454Y92125D01*
X130454D02*
X130727Y92500D01*
Y89875*
X131636Y90125D02*
X131545Y90000D01*
X131636Y89875*
X131727Y90000*
X131636Y90125*
X132545Y92000D02*
X132727Y92125D01*
X133000Y92500*
Y89875*
X142181Y92000D02*
X142363Y92125D01*
X142363D02*
X142636Y92500D01*
Y89875*
X144000Y92500D02*
X143727Y92375D01*
X143545Y92000*
X143454Y91375*
X143454D02*
Y91000D01*
X143454D02*
X143545Y90375D01*
X143727Y90000*
X144000Y89875*
X144181*
X144181D02*
X144454Y90000D01*
X144454D02*
X144636Y90375D01*
X144727Y91000*
Y91375*
X144636Y92000*
X144454Y92375*
X144454D02*
X144181Y92500D01*
X144181D02*
X144000D01*
X145636Y90125D02*
X145545Y90000D01*
X145636Y89875*
X145727Y90000*
X145636Y90125*
X147090Y92500D02*
X146818Y92375D01*
X146636Y92000*
X146545Y91375*
Y91000*
X146636Y90375*
X146818Y90000*
X147090Y89875*
X147090D02*
X147272D01*
X147272D02*
X147545Y90000D01*
X147727Y90375*
X147818Y91000*
Y91375*
X147727Y92000*
X147545Y92375*
X147272Y92500*
X147272D02*
X147090D01*
X149818Y91625D02*
X149727Y91250D01*
X149545Y91000*
X149272Y90875*
X149272D02*
X149181D01*
X149181D02*
X148909Y91000D01*
X148727Y91250*
X148636Y91625*
Y91750*
X148727Y92125*
X148909Y92375*
X149181Y92500*
X149181D02*
X149272D01*
X149272D02*
X149545Y92375D01*
X149727Y92125*
X149818Y91625*
Y91000*
X149727Y90375*
X149545Y90000*
X149272Y89875*
X149272D02*
X149090D01*
X149090D02*
X148818Y90000D01*
X148727Y90250*
X150727Y90125D02*
X150636Y90000D01*
X150727Y89875*
X150818Y90000*
X150727Y90125*
X151727Y91875D02*
Y92000D01*
X151818Y92250*
X151909Y92375*
X152090Y92500*
X152090D02*
X152454D01*
X152454D02*
X152636Y92375D01*
X152727Y92250*
X152818Y92000*
Y91750*
X152727Y91500*
X152545Y91125*
X151636Y89875*
X152909*
X154272Y92500D02*
X154000Y92375D01*
X153818Y92000*
X153727Y91375*
Y91000*
X153818Y90375*
X154000Y90000*
X154272Y89875*
X154272D02*
X154454D01*
X154454D02*
X154727Y90000D01*
X154909Y90375*
X155000Y91000*
Y91375*
X154909Y92000*
X154727Y92375*
X154454Y92500*
X154454D02*
X154272D01*
X155818Y92000D02*
X156000Y92125D01*
X156272Y92500*
X156272D02*
Y89875D01*
X157545Y92500D02*
X157272Y92375D01*
X157272D02*
X157181Y92125D01*
X157181D02*
Y91875D01*
X157181D02*
X157272Y91625D01*
X157272D02*
X157454Y91500D01*
X157454D02*
X157818Y91375D01*
X158090Y91250*
X158090D02*
X158272Y91000D01*
X158272D02*
X158363Y90750D01*
X158363D02*
Y90375D01*
X158363D02*
X158272Y90125D01*
X158272D02*
X158181Y90000D01*
X158181D02*
X157909Y89875D01*
X157545*
X157272Y90000*
X157272D02*
X157181Y90125D01*
X157181D02*
X157090Y90375D01*
X157090D02*
Y90750D01*
X157090D02*
X157181Y91000D01*
X157181D02*
X157363Y91250D01*
X157363D02*
X157636Y91375D01*
X158000Y91500*
X158181Y91625*
X158181D02*
X158272Y91875D01*
X158272D02*
Y92125D01*
X158272D02*
X158181Y92375D01*
X158181D02*
X157909Y92500D01*
X157545*
G54D166*
X100000Y104000D02*
G75*
G03X104000Y100000I4000J0D01*
G01X175000*
G03X179000Y104000I0J4000*
G01Y181000*
G03X175000Y185000I-4000J0*
G01X104000*
G03X100000Y181000I0J-4000*
G01Y104000*
X99350Y93000D02*
X86650D01*
X93000Y99350D02*
Y86650D01*
X94905Y93000D02*
X93000Y94905D01*
X91095Y93000*
X93000Y91095*
X94905Y93000*
X96175D02*
X93000Y96175D01*
X89825Y93000*
X93000Y89825*
X96175Y93000*
X97445D02*
X93000Y97445D01*
X88555Y93000*
X93000Y88555*
X97445Y93000*
X99350Y192000D02*
X86650D01*
X93000Y198350D02*
Y185650D01*
X94905Y192000D02*
X93000Y193905D01*
X91095Y192000*
X93000Y190095*
X94905Y192000*
X96175D02*
X93000Y195175D01*
X89825Y192000*
X93000Y188825*
X96175Y192000*
X97445D02*
X93000Y196445D01*
X88555Y192000*
X93000Y187555*
X97445Y192000*
X192350D02*
X179650D01*
X186000Y198350D02*
Y185650D01*
X187905Y192000D02*
X186000Y193905D01*
X184095Y192000*
X186000Y190095*
X187905Y192000*
X189175D02*
X186000Y195175D01*
X182825Y192000*
X186000Y188825*
X189175Y192000*
X190445D02*
X186000Y196445D01*
X181555Y192000*
X186000Y187555*
X190445Y192000*
G54D169*
X118500Y176050D03*
X117500D03*
X118000Y174750D03*
X115500Y176050D03*
X114500D03*
X115000Y174750D03*
G54D170*
X116100Y122962D03*
Y121438D03*
X115500Y147862D03*
Y146338D03*
X125600Y156362D03*
Y154838D03*
X121700Y156362D03*
Y154838D03*
X103100Y111038D03*
Y112562D03*
X108900Y111038D03*
Y112562D03*
X130300Y148338D03*
Y149862D03*
Y152862D03*
Y151338D03*
Y142338D03*
Y143862D03*
Y146862D03*
Y145338D03*
X142500Y177962D03*
Y176438D03*
X112350Y146362D03*
Y144838D03*
G54D171*
X150038Y129600D03*
X151562D03*
X150038Y152300D03*
X151562D03*
X117238Y173500D03*
X118762D03*
Y171800D03*
X117238D03*
X114238Y173500D03*
X115762D03*
Y171800D03*
X114238D03*
X121762Y173500D03*
X120238D03*
X105638Y108900D03*
X107162D03*
X118462Y140050D03*
X116938D03*
X121762Y171800D03*
X120238D03*
X121362Y140050D03*
X119838D03*
X111038Y115800D03*
X112562D03*
X111038Y119700D03*
X112562D03*
X150038Y161700D03*
X151562D03*
X137038Y159500D03*
X138562D03*
X137038Y150100D03*
X138562D03*
X150038Y139000D03*
X151562D03*
X137038Y136800D03*
X138562D03*
X137038Y127400D03*
X138562D03*
X129338Y159600D03*
X130862D03*
X128062D03*
X126538D03*
X129338Y135600D03*
X130862D03*
X128062D03*
X126538D03*
X165238Y152700D03*
X166762D03*
X165238Y149300D03*
X166762D03*
X165238Y145800D03*
X166762D03*
X165238Y142300D03*
X166762D03*
G54D172*
X126800Y140565D03*
Y138634D03*
X123300D03*
Y140565D03*
X128600D03*
Y138634D03*
X123850Y157765D03*
Y155834D03*
G54D173*
X153625Y147600D03*
X158775D03*
G54D176*
X102800Y115830D03*
X109200D03*
X102800Y118370D03*
X109200D03*
X102800Y120910D03*
X109200D03*
X102800Y123450D03*
X109200D03*
X102800Y125990D03*
X109200D03*
X102800Y128530D03*
X109200D03*
X102800Y131070D03*
X109200D03*
X102800Y133610D03*
X109200D03*
X102800Y136150D03*
X109200D03*
X102800Y138690D03*
X109200D03*
X102800Y141230D03*
X109200D03*
X102800Y143770D03*
X109200D03*
X102800Y146310D03*
X109200D03*
X102800Y148850D03*
X109200D03*
X102800Y151390D03*
X109200D03*
X102800Y153930D03*
X109200D03*
X102800Y156470D03*
X109200D03*
X102800Y159010D03*
X109200D03*
X102800Y161550D03*
X109200D03*
X102800Y164090D03*
X109200D03*
X102800Y166630D03*
X109200D03*
X102800Y169170D03*
X109200D03*
G54D177*
X104750Y112450D03*
Y111500D03*
Y110550D03*
X107250D03*
Y112450D03*
G54D178*
X156600Y175100D03*
Y179300D03*
G54D180*
X125350Y151775D03*
X124850D03*
X124350D03*
X123850D03*
X123350D03*
X122850D03*
X122350D03*
X121850D03*
X121350D03*
X120850D03*
X120350D03*
X119850D03*
Y143425D03*
X120350D03*
X120850D03*
X121350D03*
X121850D03*
X122350D03*
X122850D03*
X123350D03*
X123850D03*
X124350D03*
X124850D03*
X125350D03*
G54D181*
X118425Y150350D03*
Y149850D03*
Y149350D03*
Y148850D03*
Y148350D03*
Y147850D03*
Y147350D03*
Y146850D03*
Y146350D03*
Y145850D03*
Y145350D03*
Y144850D03*
X126775D03*
Y145350D03*
Y145850D03*
Y146350D03*
Y146850D03*
Y147350D03*
Y147850D03*
Y148350D03*
Y148850D03*
Y149350D03*
Y149850D03*
Y150350D03*
G54D182*
X103999Y103999D03*
Y180999D03*
X175000Y181000D03*
Y104000D03*
G54D183*
X106000Y117100D03*
Y167900D03*
G54D184*
X104730Y115830D03*
X107270D03*
X104730Y118370D03*
X107270D03*
X104730Y120910D03*
X107270D03*
X104730Y123450D03*
X107270D03*
X104730Y125990D03*
X107270D03*
X104730Y128530D03*
X107270D03*
X104730Y131070D03*
X107270D03*
X104730Y133610D03*
X107270D03*
X104730Y136150D03*
X107270D03*
X104730Y138690D03*
X107270D03*
X104730Y141230D03*
X107270D03*
X104730Y143770D03*
X107270D03*
X104730Y146310D03*
X107270D03*
X104730Y148850D03*
X107270D03*
X104730Y151390D03*
X107270D03*
X104730Y153930D03*
X107270D03*
X104730Y156470D03*
X107270D03*
X104730Y159010D03*
X107270D03*
X104730Y161550D03*
X107270D03*
X104730Y164090D03*
X107270D03*
X104730Y166630D03*
X107270D03*
X104730Y169170D03*
X107270D03*
G54D186*
X169300Y142250D03*
Y145750D03*
Y149250D03*
Y152750D03*
G54D187*
X122600Y147600D03*
G54D196*
X116095Y114000D03*
X117365D03*
X118635D03*
X119905D03*
Y119600D03*
X118635D03*
X117365D03*
X116095D03*
G54D197*
X126700Y162400D03*
X133100D03*
X126700Y132800D03*
X133100D03*
X126700Y166400D03*
X133100D03*
X126700Y128800D03*
X133100D03*
G54D198*
X153350Y165505D03*
Y164235D03*
Y162965D03*
Y161695D03*
X158850D03*
Y162965D03*
Y164235D03*
Y165505D03*
X153350Y156105D03*
Y154835D03*
Y153565D03*
Y152295D03*
X158850D03*
Y153565D03*
Y154835D03*
Y156105D03*
X138550Y165505D03*
Y164235D03*
Y162965D03*
Y161695D03*
X144050D03*
Y162965D03*
Y164235D03*
Y165505D03*
X138550Y156105D03*
Y154835D03*
Y153565D03*
Y152295D03*
X144050D03*
Y153565D03*
Y154835D03*
Y156105D03*
X153350Y142805D03*
Y141535D03*
Y140265D03*
Y138995D03*
X158850D03*
Y140265D03*
Y141535D03*
Y142805D03*
X153350Y133405D03*
Y132135D03*
Y130865D03*
Y129595D03*
X158850D03*
Y130865D03*
Y132135D03*
Y133405D03*
X138550Y142805D03*
Y141535D03*
Y140265D03*
Y138995D03*
X144050D03*
Y140265D03*
Y141535D03*
Y142805D03*
X138550Y133405D03*
Y132135D03*
Y130865D03*
Y129595D03*
X144050D03*
Y130865D03*
Y132135D03*
Y133405D03*
G54D199*
X156900Y163600D03*
Y154200D03*
X142100Y163600D03*
Y154200D03*
X156900Y140900D03*
Y131500D03*
X142100Y140900D03*
Y131500D03*
G54D200*
G54D202*
X117000Y135600D03*
X118500D03*
X120000D03*
G74*
X0Y0D02*
M02*
