*
*
G04 PADS VX.2.2 Build Number: 9893964 generated Gerber (RS-274-X) file*
G04 PC Version=2.1*
*
%IN "TMC5160-EVAL_V30.pcb"*%
*
%MOMM*%
*
%FSLAX33Y33*%
*
*
*
*
G04 PC Standard Apertures*
*
*
G04 Thermal Relief Aperture macro.*
%AMTER*
1,1,$1,0,0*
1,0,$1-$2,0,0*
21,0,$3,$4,0,0,45*
21,0,$3,$4,0,0,135*
%
*
*
G04 Annular Aperture macro.*
%AMANN*
1,1,$1,0,0*
1,0,$2,0,0*
%
*
*
G04 Odd Aperture macro.*
%AMODD*
1,1,$1,0,0*
1,0,$1-0.005,0,0*
%
*
*
G04 PC Custom Aperture Macros*
*
*
*
*
*
*
G04 PC Aperture Table*
*
%ADD058C,1*%
%ADD080C,1.5*%
%ADD103C,1.8*%
%ADD128C,0.3*%
%ADD157C,0.4*%
%ADD166C,0.1*%
%ADD184C,1.3*%
%ADD192C,3.2*%
%ADD193C,1.1*%
%ADD200C,0.01*%
*
*
*
*
G04 PC Circuitry*
G04 Layer Name TMC5160-EVAL_V30.pcb - circuitry*
%LPD*%
*
*
G04 PC Custom Flashes*
G04 Layer Name TMC5160-EVAL_V30.pcb - flashes*
%LPD*%
*
*
G04 PC Circuitry*
G04 Layer Name TMC5160-EVAL_V30.pcb - circuitry*
%LPD*%
*
G54D58*
G01X169000Y104000D03*
X104000Y175000D03*
X120320Y182000D03*
X117780D03*
X115240D03*
X112700D03*
X165960Y163900D03*
X171040D03*
X165960Y131100D03*
X171040D03*
X145040Y182000D03*
X142500D03*
G54D80*
X167300Y175000D03*
X162300D03*
G54D103*
X106000Y117100D03*
Y167900D03*
G54D128*
X106700Y101150D03*
X101150Y107250D03*
X105600Y107750D03*
X116700Y101150D03*
X114200D03*
X111700D03*
X109200D03*
X126700D03*
X124200D03*
X121700D03*
X119200D03*
X136700D03*
X134200D03*
X131700D03*
X129200D03*
X133860Y106171D03*
X146700Y101150D03*
X144200D03*
X141700D03*
X139200D03*
X159200D03*
X156700D03*
X154200D03*
X151700D03*
X149200D03*
X169200D03*
X166700D03*
X164200D03*
X161700D03*
X175050Y107950D03*
X171700Y101150D03*
X102800Y114250D03*
X104100D03*
X101150Y111600D03*
X101950Y111050D03*
X103200Y117100D03*
X102150D03*
X105900Y111500D03*
X111196Y112569D03*
X118450Y118150D03*
X112600Y114700D03*
Y116900D03*
X113600Y115800D03*
X112600Y118600D03*
X108550Y117100D03*
Y114600D03*
X109850Y117100D03*
Y114600D03*
X108900Y110000D03*
X118635Y112395D03*
X119750Y118150D03*
X120800Y114000D03*
X177850Y117850D03*
Y115350D03*
Y112850D03*
X176550Y110700D03*
X101150Y127250D03*
Y124750D03*
X102150Y119600D03*
X103200D03*
X110650Y123450D03*
X113350Y122950D03*
X114950Y121700D03*
X113600Y119700D03*
X112400Y120800D03*
X115000Y123000D03*
X125300Y128800D03*
Y127850D03*
X137038Y128607D03*
X147650Y128100D03*
Y126600D03*
X140500D03*
X142300D03*
X144050D03*
X145850D03*
Y128100D03*
X144050D03*
X142300D03*
X140500D03*
X149400Y126600D03*
X152900Y128100D03*
X149400D03*
X151150D03*
X157750Y127800D03*
X155500D03*
X150356Y126028D03*
X160050Y127800D03*
X162350D03*
X177850Y127850D03*
Y125350D03*
Y122850D03*
Y120350D03*
X101150Y132350D03*
Y134900D03*
Y129800D03*
Y137450D03*
X111100Y138650D03*
X118500Y134440D03*
X110650Y137200D03*
Y136150D03*
X119850Y138850D03*
Y137550D03*
X121350Y138850D03*
X128050Y136700D03*
X125300Y131850D03*
Y132800D03*
Y133750D03*
Y129750D03*
X121240Y135600D03*
X137038Y135519D03*
X129850Y138650D03*
X129300Y136700D03*
X136550Y132650D03*
X134900Y130900D03*
X136500D03*
X136550Y134550D03*
X133350Y134600D03*
X134950Y134550D03*
Y136400D03*
X133350D03*
X134950Y132650D03*
X140500Y137100D03*
X145850D03*
X147700Y129800D03*
X142300Y137100D03*
X144050D03*
X145900Y129800D03*
X142300Y134900D03*
X140500D03*
X145900Y138800D03*
X147650Y133200D03*
X145850D03*
X147650Y134900D03*
Y131500D03*
X145850Y134900D03*
X144050D03*
X145850Y131500D03*
X147650Y137100D03*
X147700Y138800D03*
X149400Y137100D03*
X151150Y133200D03*
X152900Y134900D03*
X149400Y133200D03*
X151150Y131500D03*
X157750Y134750D03*
X155500Y137200D03*
X149400Y134900D03*
X155500Y134750D03*
X157750Y137200D03*
X151150Y134900D03*
X149400Y131500D03*
X151150Y137100D03*
X150368Y136488D03*
X162350Y131350D03*
Y134750D03*
X160050Y137200D03*
X162350D03*
X160050Y134750D03*
Y131300D03*
X177850Y137850D03*
Y135350D03*
Y132850D03*
Y130350D03*
X101150Y142500D03*
Y139950D03*
Y145050D03*
Y147600D03*
X114200Y146350D03*
X112150Y148800D03*
X111350Y143300D03*
X115450Y144750D03*
X116950Y144250D03*
X111750Y147800D03*
X110950Y141200D03*
X114000Y147850D03*
X116750Y147100D03*
X114550Y143550D03*
X115900Y140050D03*
X116200Y143400D03*
X116700Y148100D03*
X111300Y142200D03*
X128118Y144767D03*
X128250Y142819D03*
X124600Y148600D03*
Y146600D03*
X123600D03*
X120600Y147600D03*
X122600D03*
X121600D03*
Y145600D03*
X124600Y147600D03*
X120600Y145600D03*
X123600Y147600D03*
X125550Y140550D03*
X122600Y148600D03*
Y145600D03*
X121600Y146600D03*
Y148600D03*
X120600D03*
X123600D03*
X124600Y145600D03*
X120600Y146600D03*
X123600Y145600D03*
X122600Y146600D03*
X138200Y144600D03*
X136600Y139100D03*
X134900Y144600D03*
X128950Y148900D03*
Y146900D03*
X129145Y145166D03*
X129875Y140833D03*
X133300Y144600D03*
X134950Y140850D03*
X133350Y142650D03*
Y140850D03*
X136550D03*
Y142650D03*
X134950D03*
X135000Y139100D03*
X136500Y144600D03*
X145850Y148600D03*
X147650D03*
Y144200D03*
X144050Y148600D03*
X142300D03*
X140500Y144200D03*
X142300D03*
X144050D03*
X145850D03*
X147650Y145900D03*
X145850D03*
X144050D03*
X142300D03*
X140500D03*
X145850Y142500D03*
X147650D03*
Y140800D03*
X145850D03*
X140500Y148600D03*
X150358Y148143D03*
X152100Y147600D03*
Y146400D03*
X149400Y148600D03*
X152100Y148800D03*
X157750Y144150D03*
X155500D03*
X152100Y145200D03*
X149400Y144200D03*
X151150D03*
X152900D03*
X149400Y145900D03*
Y142500D03*
X151150D03*
Y140800D03*
X149400D03*
X165250Y141200D03*
Y144700D03*
X160050Y140700D03*
Y144150D03*
X162350Y140750D03*
Y144150D03*
X160300Y148800D03*
Y146400D03*
X162400Y147600D03*
X160300Y145200D03*
Y147600D03*
X177850Y147850D03*
Y145350D03*
Y142850D03*
Y140350D03*
X101150Y155250D03*
Y150150D03*
Y152700D03*
Y157750D03*
X112450Y159000D03*
X113450Y151050D03*
X112450Y157700D03*
X112200Y153000D03*
X112900Y149900D03*
X114900Y157700D03*
X111800Y151050D03*
X114000Y149550D03*
X118300Y154400D03*
X122300Y153450D03*
X121350Y153550D03*
X119050D03*
X121600Y149600D03*
X121700Y157400D03*
X128150Y150700D03*
X128050Y158500D03*
X123850Y159050D03*
X125600Y157450D03*
X118850Y151450D03*
X123850Y154550D03*
X122600Y149600D03*
X120600D03*
X123600D03*
X124600D03*
X127400Y154850D03*
X120000Y153550D03*
X137038Y158352D03*
X133400Y152000D03*
X135000D03*
X130150Y153950D03*
X129150Y150450D03*
X129350Y158500D03*
X136600Y153650D03*
X134950D03*
Y155250D03*
Y156800D03*
X133350Y153650D03*
Y155250D03*
X136600D03*
X133350Y156800D03*
X136650D03*
X137038Y151268D03*
X142300Y150300D03*
X145850D03*
X140500Y157500D03*
X147700Y152200D03*
X145900D03*
X147650Y157500D03*
X145850D03*
X144050D03*
X142300D03*
X147650Y155800D03*
X145850D03*
Y154100D03*
X147650D03*
Y150300D03*
X144050D03*
X140500D03*
X150347Y159224D03*
X152100Y150000D03*
X151150Y157500D03*
X149400D03*
X157750D03*
X155500D03*
X149400Y154100D03*
X151150D03*
Y155800D03*
X149400D03*
X152900Y157500D03*
X149400Y150300D03*
X165250Y153800D03*
Y150400D03*
X160100Y151250D03*
X162350D03*
Y157500D03*
Y154100D03*
X160050Y157500D03*
Y154050D03*
X160300Y150000D03*
X177850Y157850D03*
Y155350D03*
Y152850D03*
Y150350D03*
X101150Y160300D03*
Y162850D03*
X103450Y167940D03*
X102150D03*
X111350Y161550D03*
X109850Y167940D03*
X108550D03*
X110950Y162600D03*
X111281Y166600D03*
X125300Y162400D03*
Y167350D03*
Y165450D03*
Y163350D03*
Y166400D03*
Y161450D03*
X136300Y160950D03*
X134700D03*
Y163050D03*
Y165000D03*
X134650Y168900D03*
Y166950D03*
X136300Y163050D03*
Y165000D03*
X137900Y168900D03*
X136250D03*
X137900Y166950D03*
X136250D03*
X142300Y166900D03*
X140500D03*
X147600Y165100D03*
X147650Y159800D03*
X142350D03*
X140500Y168600D03*
X145850Y166900D03*
X144100Y159800D03*
X144050Y168600D03*
X147600Y166900D03*
X140550Y159800D03*
X144050Y166900D03*
X145850Y168600D03*
Y163500D03*
X147600D03*
Y168600D03*
X142300D03*
X145850Y165100D03*
X147650Y161600D03*
X145900Y159800D03*
Y161600D03*
X149400Y168600D03*
X152900Y166900D03*
X155500Y159950D03*
X157750Y166900D03*
X155500D03*
X149400Y163500D03*
X151150D03*
X149400Y165100D03*
X151150D03*
X152900Y168600D03*
X151150D03*
X149400Y166900D03*
X151150D03*
X149450Y159800D03*
X151200D03*
X157750Y159950D03*
X162350Y163500D03*
X160050Y163450D03*
X162350Y159950D03*
X160050D03*
X162350Y166900D03*
X160050D03*
X175350Y167150D03*
Y164650D03*
X176350Y162350D03*
X177850Y160350D03*
X101150Y175800D03*
Y178300D03*
Y173300D03*
X102150Y170440D03*
X103450D03*
X117500Y176888D03*
X114250Y170650D03*
X114500Y176888D03*
X108550Y170440D03*
X109850D03*
X117250Y170650D03*
X115750D03*
X121800Y174700D03*
X121750Y170650D03*
X118750D03*
X120250D03*
X129300Y175100D03*
X130300D03*
X152400Y173700D03*
Y178000D03*
X154100Y175100D03*
Y179300D03*
Y173700D03*
X152400Y179300D03*
Y175100D03*
X154100Y178000D03*
X177850Y176900D03*
Y174400D03*
Y171900D03*
X176700Y169650D03*
X107050Y183800D03*
X112050Y183850D03*
X114700D03*
X117300D03*
X109550D03*
X119800D03*
X122300D03*
X124800D03*
X127300D03*
X132300D03*
X129800D03*
X137300D03*
X134800D03*
X142300D03*
X139800D03*
X144800D03*
X147300D03*
X152300D03*
X154800D03*
X157300D03*
X149800D03*
X164800D03*
X162300D03*
X167300D03*
X159800D03*
X169800D03*
X172300D03*
G54D157*
X101000Y98500D02*
Y95875D01*
Y98500D02*
X101636D01*
X101909Y98375*
X102090Y98125*
X102090D02*
X102181Y97875D01*
X102181D02*
X102272Y97500D01*
X102272D02*
Y96875D01*
X102272D02*
X102181Y96500D01*
X102181D02*
X102090Y96250D01*
X102090D02*
X101909Y96000D01*
X101636Y95875*
X101000*
X103090Y97625D02*
Y95875D01*
Y96875D02*
X103181Y97250D01*
X103181D02*
X103363Y97500D01*
X103363D02*
X103545Y97625D01*
X103818*
X104636Y98500D02*
X104727Y98375D01*
X104818Y98500*
X104727Y98625*
X104636Y98500*
X104727Y97625D02*
Y95875D01*
X105636Y98500D02*
Y95875D01*
X106454Y98500D02*
Y95875D01*
X110727Y97875D02*
X110636Y98125D01*
X110454Y98375*
X110454D02*
X110272Y98500D01*
X110272D02*
X109909D01*
X109727Y98375*
X109545Y98125*
X109454Y97875*
X109454D02*
X109363Y97500D01*
X109363D02*
Y96875D01*
X109363D02*
X109454Y96500D01*
X109454D02*
X109545Y96250D01*
X109727Y96000*
X109909Y95875*
X110272*
X110272D02*
X110454Y96000D01*
X110454D02*
X110636Y96250D01*
X110727Y96500*
X112000Y97625D02*
X111818Y97500D01*
X111636Y97250*
X111545Y96875*
Y96625*
X111636Y96250*
X111818Y96000*
X112000Y95875*
X112272*
X112272D02*
X112454Y96000D01*
X112454D02*
X112636Y96250D01*
X112727Y96625*
Y96875*
X112636Y97250*
X112454Y97500*
X112454D02*
X112272Y97625D01*
X112272D02*
X112000D01*
X113545D02*
Y95875D01*
Y97125D02*
X113818Y97500D01*
X114000Y97625*
X114272*
X114272D02*
X114454Y97500D01*
X114454D02*
X114545Y97125D01*
Y95875*
X115636Y98500D02*
Y96375D01*
X115727Y96000*
X115909Y95875*
X116090*
X115363Y97625D02*
X116000D01*
X116909D02*
Y95875D01*
Y96875D02*
X117000Y97250D01*
X117181Y97500*
X117181D02*
X117363Y97625D01*
X117363D02*
X117636D01*
X118909D02*
X118727Y97500D01*
X118545Y97250*
X118454Y96875*
X118454D02*
Y96625D01*
X118454D02*
X118545Y96250D01*
X118727Y96000*
X118909Y95875*
X119181*
X119181D02*
X119363Y96000D01*
X119363D02*
X119545Y96250D01*
X119636Y96625*
Y96875*
X119545Y97250*
X119363Y97500*
X119363D02*
X119181Y97625D01*
X119181D02*
X118909D01*
X120454Y98500D02*
Y95875D01*
X121272Y98500D02*
Y95875D01*
X124181Y98500D02*
Y95875D01*
Y98500D02*
X125363D01*
X124181Y97250D02*
X124909D01*
X126181Y98500D02*
X126272Y98375D01*
X126272D02*
X126363Y98500D01*
X126363D02*
X126272Y98625D01*
X126272D02*
X126181Y98500D01*
X126272Y97625D02*
Y95875D01*
X127181Y98500D02*
Y95875D01*
X128000Y97625D02*
Y95875D01*
Y97125D02*
X128272Y97500D01*
X128272D02*
X128454Y97625D01*
X128454D02*
X128727D01*
X128909Y97500*
X129000Y97125*
Y95875*
Y97125D02*
X129272Y97500D01*
X129272D02*
X129454Y97625D01*
X129454D02*
X129727D01*
X129909Y97500*
X130000Y97125*
Y95875*
X101636Y92500D02*
Y89875D01*
X101000Y92500D02*
X102272D01*
X103090D02*
Y89875D01*
Y92500D02*
X103818Y89875D01*
X104545Y92500D02*
X103818Y89875D01*
X104545Y92500D02*
Y89875D01*
X106727Y91875D02*
X106636Y92125D01*
X106454Y92375*
X106454D02*
X106272Y92500D01*
X106272D02*
X105909D01*
X105727Y92375*
X105545Y92125*
X105454Y91875*
X105454D02*
X105363Y91500D01*
X105363D02*
Y90875D01*
X105363D02*
X105454Y90500D01*
X105454D02*
X105545Y90250D01*
X105727Y90000*
X105909Y89875*
X106272*
X106272D02*
X106454Y90000D01*
X106454D02*
X106636Y90250D01*
X106727Y90500*
X107636Y91875D02*
Y92000D01*
X107727Y92250*
X107818Y92375*
X108000Y92500*
X108363*
X108363D02*
X108545Y92375D01*
X108636Y92250*
X108727Y92000*
Y91750*
X108636Y91500*
X108454Y91125*
X108454D02*
X107545Y89875D01*
X108818*
X109636Y92000D02*
X109818Y92125D01*
X110090Y92500*
X110090D02*
Y89875D01*
X112000Y92125D02*
X111909Y92375D01*
X111636Y92500*
X111454*
X111454D02*
X111181Y92375D01*
X111181D02*
X111000Y92000D01*
X110909Y91375*
Y90750*
X111000Y90250*
X111181Y90000*
X111181D02*
X111454Y89875D01*
X111454D02*
X111545D01*
X111818Y90000*
X112000Y90250*
X112090Y90625*
X112090D02*
Y90750D01*
X112090D02*
X112000Y91125D01*
X111818Y91375*
X111545Y91500*
X111454*
X111454D02*
X111181Y91375D01*
X111181D02*
X111000Y91125D01*
X110909Y90750*
X113454Y92500D02*
X113181Y92375D01*
X113181D02*
X113000Y92000D01*
X112909Y91375*
Y91000*
X113000Y90375*
X113181Y90000*
X113181D02*
X113454Y89875D01*
X113454D02*
X113636D01*
X113909Y90000*
X114090Y90375*
X114090D02*
X114181Y91000D01*
X114181D02*
Y91375D01*
X114181D02*
X114090Y92000D01*
X114090D02*
X113909Y92375D01*
X113636Y92500*
X113454*
X115000Y91000D02*
X116636D01*
X117454Y92500D02*
Y89875D01*
Y92500D02*
X118636D01*
X117454Y91250D02*
X118181D01*
X117454Y89875D02*
X118636D01*
X119454Y92500D02*
X120181Y89875D01*
X120909Y92500D02*
X120181Y89875D01*
X122454Y92500D02*
X121727Y89875D01*
X122454Y92500D02*
X123181Y89875D01*
X122000Y90750D02*
X122909D01*
X124000Y92500D02*
Y89875D01*
X125090*
X128000Y92500D02*
X128727Y89875D01*
X129454Y92500D02*
X128727Y89875D01*
X130272Y92000D02*
X130454Y92125D01*
X130454D02*
X130727Y92500D01*
Y89875*
X131636Y90125D02*
X131545Y90000D01*
X131636Y89875*
X131727Y90000*
X131636Y90125*
X132545Y92000D02*
X132727Y92125D01*
X133000Y92500*
Y89875*
X142181Y92000D02*
X142363Y92125D01*
X142363D02*
X142636Y92500D01*
Y89875*
X144000Y92500D02*
X143727Y92375D01*
X143545Y92000*
X143454Y91375*
X143454D02*
Y91000D01*
X143454D02*
X143545Y90375D01*
X143727Y90000*
X144000Y89875*
X144181*
X144181D02*
X144454Y90000D01*
X144454D02*
X144636Y90375D01*
X144727Y91000*
Y91375*
X144636Y92000*
X144454Y92375*
X144454D02*
X144181Y92500D01*
X144181D02*
X144000D01*
X145636Y90125D02*
X145545Y90000D01*
X145636Y89875*
X145727Y90000*
X145636Y90125*
X147090Y92500D02*
X146818Y92375D01*
X146636Y92000*
X146545Y91375*
Y91000*
X146636Y90375*
X146818Y90000*
X147090Y89875*
X147090D02*
X147272D01*
X147272D02*
X147545Y90000D01*
X147727Y90375*
X147818Y91000*
Y91375*
X147727Y92000*
X147545Y92375*
X147272Y92500*
X147272D02*
X147090D01*
X149818Y91625D02*
X149727Y91250D01*
X149545Y91000*
X149272Y90875*
X149272D02*
X149181D01*
X149181D02*
X148909Y91000D01*
X148727Y91250*
X148636Y91625*
Y91750*
X148727Y92125*
X148909Y92375*
X149181Y92500*
X149181D02*
X149272D01*
X149272D02*
X149545Y92375D01*
X149727Y92125*
X149818Y91625*
Y91000*
X149727Y90375*
X149545Y90000*
X149272Y89875*
X149272D02*
X149090D01*
X149090D02*
X148818Y90000D01*
X148727Y90250*
X150727Y90125D02*
X150636Y90000D01*
X150727Y89875*
X150818Y90000*
X150727Y90125*
X151727Y91875D02*
Y92000D01*
X151818Y92250*
X151909Y92375*
X152090Y92500*
X152090D02*
X152454D01*
X152454D02*
X152636Y92375D01*
X152727Y92250*
X152818Y92000*
Y91750*
X152727Y91500*
X152545Y91125*
X151636Y89875*
X152909*
X154272Y92500D02*
X154000Y92375D01*
X153818Y92000*
X153727Y91375*
Y91000*
X153818Y90375*
X154000Y90000*
X154272Y89875*
X154272D02*
X154454D01*
X154454D02*
X154727Y90000D01*
X154909Y90375*
X155000Y91000*
Y91375*
X154909Y92000*
X154727Y92375*
X154454Y92500*
X154454D02*
X154272D01*
X155818Y92000D02*
X156000Y92125D01*
X156272Y92500*
X156272D02*
Y89875D01*
X157545Y92500D02*
X157272Y92375D01*
X157272D02*
X157181Y92125D01*
X157181D02*
Y91875D01*
X157181D02*
X157272Y91625D01*
X157272D02*
X157454Y91500D01*
X157454D02*
X157818Y91375D01*
X158090Y91250*
X158090D02*
X158272Y91000D01*
X158272D02*
X158363Y90750D01*
X158363D02*
Y90375D01*
X158363D02*
X158272Y90125D01*
X158272D02*
X158181Y90000D01*
X158181D02*
X157909Y89875D01*
X157545*
X157272Y90000*
X157272D02*
X157181Y90125D01*
X157181D02*
X157090Y90375D01*
X157090D02*
Y90750D01*
X157090D02*
X157181Y91000D01*
X157181D02*
X157363Y91250D01*
X157363D02*
X157636Y91375D01*
X158000Y91500*
X158181Y91625*
X158181D02*
X158272Y91875D01*
X158272D02*
Y92125D01*
X158272D02*
X158181Y92375D01*
X158181D02*
X157909Y92500D01*
X157545*
G54D166*
X100000Y104000D02*
G75*
G03X104000Y100000I4000J0D01*
G01X175000*
G03X179000Y104000I0J4000*
G01Y181000*
G03X175000Y185000I-4000J0*
G01X104000*
G03X100000Y181000I0J-4000*
G01Y104000*
X99350Y93000D02*
X86650D01*
X93000Y99350D02*
Y86650D01*
X94905Y93000D02*
X93000Y94905D01*
X91095Y93000*
X93000Y91095*
X94905Y93000*
X96175D02*
X93000Y96175D01*
X89825Y93000*
X93000Y89825*
X96175Y93000*
X97445D02*
X93000Y97445D01*
X88555Y93000*
X93000Y88555*
X97445Y93000*
X99350Y192000D02*
X86650D01*
X93000Y198350D02*
Y185650D01*
X94905Y192000D02*
X93000Y193905D01*
X91095Y192000*
X93000Y190095*
X94905Y192000*
X96175D02*
X93000Y195175D01*
X89825Y192000*
X93000Y188825*
X96175Y192000*
X97445D02*
X93000Y196445D01*
X88555Y192000*
X93000Y187555*
X97445Y192000*
X192350D02*
X179650D01*
X186000Y198350D02*
Y185650D01*
X187905Y192000D02*
X186000Y193905D01*
X184095Y192000*
X186000Y190095*
X187905Y192000*
X189175D02*
X186000Y195175D01*
X182825Y192000*
X186000Y188825*
X189175Y192000*
X190445D02*
X186000Y196445D01*
X181555Y192000*
X186000Y187555*
X190445Y192000*
G54D184*
X169300Y142250D03*
Y145750D03*
Y149250D03*
Y152750D03*
G54D192*
X103999Y103999D03*
Y180999D03*
X175000Y181000D03*
Y104000D03*
G54D193*
X104730Y115830D03*
X107270D03*
X104730Y118370D03*
X107270D03*
X104730Y120910D03*
X107270D03*
X104730Y123450D03*
X107270D03*
X104730Y125990D03*
X107270D03*
X104730Y128530D03*
X107270D03*
X104730Y131070D03*
X107270D03*
X104730Y133610D03*
X107270D03*
X104730Y136150D03*
X107270D03*
X104730Y138690D03*
X107270D03*
X104730Y141230D03*
X107270D03*
X104730Y143770D03*
X107270D03*
X104730Y146310D03*
X107270D03*
X104730Y148850D03*
X107270D03*
X104730Y151390D03*
X107270D03*
X104730Y153930D03*
X107270D03*
X104730Y156470D03*
X107270D03*
X104730Y159010D03*
X107270D03*
X104730Y161550D03*
X107270D03*
X104730Y164090D03*
X107270D03*
X104730Y166630D03*
X107270D03*
X104730Y169170D03*
X107270D03*
G54D200*
G74*
X0Y0D02*
M02*
