M48
;FILE_FORMAT=3:3
METRIC,LZ
FMAT,2
ICI,OFF
;TYPE=PLATED
T1C.3
T2C1.
T4C1.3
T5C1.5
T7C3.2
;TYPE=NON_PLATED
T3C1.1
T6C1.8
%
M71
G90
G93X0Y0
T1C.3F095S3
X10115Y10725
X1067Y10115
X1092Y10115
X1117Y10115
X1142Y10115
X1167Y10115
X1192Y10115
X1217Y10115
X1242Y10115
X1267Y10115
X1292Y10115
X1317Y10115
X13386Y106171
X1342Y10115
X1367Y10115
X1392Y10115
X1417Y10115
X1442Y10115
X1467Y10115
X1492Y10115
X1517Y10115
X1542Y10115
X1567Y10115
X1592Y10115
X1617Y10115
X1642Y10115
X1667Y10115
X1692Y10115
X1717Y10115
X17785Y11285
X17785Y11785
X17785Y11535
X17655Y1107
X17505Y10795
X1208Y114
X11975Y11815
X118635Y112395
X11845Y11815
X1136Y1158
X1136Y1197
X1126Y1147
X1126Y1169
X1126Y1186
X111196Y112569
X10985Y1171
X10985Y1146
X1089Y11
X10855Y1146
X10855Y1171
X1059Y1115
X1056Y10775
X1041Y11425
X1032Y1171
X1032Y1196
X1028Y11425
X10215Y1196
X10215Y1171
X10195Y11105
X10115Y1116
X10115Y12475
X10115Y12725
X10115Y13235
X10115Y1298
X11065Y12345
X1124Y1208
X11335Y12295
X11495Y1217
X115Y123
X1253Y1288
X1253Y12785
X1253Y13185
X1253Y1328
X1253Y12975
X1349Y1309
X13495Y13265
X1365Y1309
X13655Y13265
X137038Y128607
X1405Y1281
X1405Y1266
X1423Y1281
X1423Y1266
X14405Y1281
X14405Y1266
X14585Y1281
X14585Y1266
X14585Y1315
X1459Y1298
X14765Y1281
X14765Y1266
X14765Y1315
X1477Y1298
X1494Y1266
X1494Y1281
X1494Y1315
X150356Y126028
X15115Y1281
X15115Y1315
X1529Y1281
X1555Y1278
X15775Y1278
X16005Y1278
X16005Y1313
X16235Y13135
X16235Y1278
X17785Y12535
X17785Y12035
X17785Y12785
X17785Y12285
X17785Y13285
X17785Y13035
X17785Y13785
X17785Y13535
X16235Y13475
X16235Y1372
X16005Y1372
X16005Y13475
X15775Y13475
X15775Y1372
X1555Y1372
X1555Y13475
X1529Y1349
X15115Y1332
X15115Y1349
X15115Y1371
X150368Y136488
X1494Y1371
X1494Y1332
X1494Y1349
X1477Y1388
X14765Y1332
X14765Y1349
X14765Y1371
X1459Y1388
X14585Y1349
X14585Y1332
X14585Y1371
X14405Y1349
X14405Y1371
X1423Y1349
X1423Y1371
X1405Y1371
X1405Y1349
X137038Y135519
X1366Y1391
X13655Y13455
X135Y1391
X13495Y1364
X13495Y13455
X13335Y1364
X13335Y1346
X12985Y13865
X1293Y1367
X12805Y1367
X1253Y13375
X12135Y13885
X12124Y1356
X11985Y13885
X11985Y13755
X1185Y13444
X1111Y13865
X11065Y1372
X11065Y13615
X10115Y13745
X10115Y1349
X10115Y14505
X10115Y1425
X10115Y13995
X11095Y1412
X1113Y1422
X11135Y1433
X11455Y14355
X11545Y14475
X1159Y14005
X1162Y1434
X11695Y14425
X12555Y14055
X128118Y144767
X12825Y142819
X129145Y145166
X129875Y140833
X1333Y1446
X13335Y14265
X13335Y14085
X1349Y1446
X13495Y14085
X13495Y14265
X1365Y1446
X13655Y14085
X13655Y14265
X1382Y1446
X1405Y1442
X1423Y1442
X14405Y1442
X14585Y1442
X14585Y1425
X14585Y1408
X14765Y1425
X14765Y1408
X14765Y1442
X1494Y1442
X1494Y1425
X1494Y1408
X15115Y1442
X15115Y1425
X15115Y1408
X1521Y1452
X1529Y1442
X1555Y14415
X15775Y14415
X16005Y1407
X16005Y14415
X1603Y1452
X16235Y14075
X16235Y14415
X16525Y1447
X16525Y1412
X17785Y14535
X17785Y14285
X17785Y14035
X17785Y14785
X17785Y15035
X16525Y1504
X1624Y1476
X16235Y15125
X1603Y1488
X1603Y1464
X1603Y1476
X1603Y15
X1601Y15125
X1521Y1476
X1521Y1464
X1521Y1488
X1521Y15
X150358Y148143
X1494Y1486
X1494Y1459
X1494Y1503
X14765Y1503
X14765Y1459
X14765Y1486
X14585Y1486
X14585Y1503
X14585Y1459
X14405Y1486
X14405Y1459
X14405Y1503
X1423Y1503
X1423Y1486
X1423Y1459
X1405Y1486
X1405Y1503
X1405Y1459
X137038Y151268
X12915Y15045
X12895Y1469
X12895Y1489
X12815Y1507
X1246Y1466
X1246Y1456
X1246Y1476
X1246Y1486
X1246Y1496
X1236Y1466
X1236Y1476
X1236Y1496
X1236Y1456
X1236Y1486
X1226Y1476
X1226Y1496
X1226Y1486
X1226Y1466
X1226Y1456
X1216Y1496
X1216Y1456
X1216Y1486
X1216Y1476
X1216Y1466
X1206Y1476
X1206Y1496
X1206Y1486
X1206Y1466
X1206Y1456
X11885Y15145
X11675Y1471
X1167Y1481
X1142Y14635
X114Y14955
X114Y14785
X11345Y15105
X1129Y1499
X11215Y1488
X1118Y15105
X11175Y1478
X10115Y15015
X10115Y1476
X10115Y15775
X10115Y15525
X10115Y1527
X1122Y153
X11245Y1577
X1149Y1577
X1183Y1544
X11905Y15355
X12Y15355
X12135Y15355
X1217Y1574
X1223Y15345
X12385Y15455
X1256Y15745
X1274Y15485
X13015Y15395
X13335Y15365
X13335Y1568
X13335Y15525
X1334Y152
X13495Y15525
X13495Y1568
X13495Y15365
X135Y152
X1366Y15525
X1366Y15365
X13665Y1568
X1405Y1575
X1423Y1575
X14405Y1575
X14585Y1575
X14585Y1558
X14585Y1541
X1459Y1522
X14765Y1541
X14765Y1575
X14765Y1558
X1477Y1522
X1494Y1558
X1494Y1575
X1494Y1541
X15115Y1558
X15115Y1575
X15115Y1541
X1529Y1575
X1555Y1575
X15775Y1575
X16005Y1575
X16005Y15405
X16235Y1541
X16235Y1575
X16525Y1538
X17785Y15535
X17785Y15285
X17785Y15785
X17785Y16035
X17635Y16235
X16235Y1635
X16235Y15995
X16005Y16345
X16005Y15995
X15775Y15995
X1555Y15995
X1512Y1598
X15115Y1635
X150347Y159224
X14945Y1598
X1494Y1635
X14765Y1598
X14765Y1616
X1476Y1635
X1459Y1598
X1459Y1616
X14585Y1635
X1441Y1598
X14235Y1598
X14055Y1598
X137038Y158352
X1363Y16305
X1363Y16095
X1347Y16095
X1347Y16305
X12935Y1585
X12805Y1585
X1253Y16335
X1253Y1624
X1253Y16145
X12385Y15905
X11245Y159
X11135Y16155
X11095Y1626
X10115Y16285
X10115Y1603
X10215Y16794
X10215Y17044
X10345Y16794
X10345Y17044
X10855Y16794
X10855Y17044
X10985Y16794
X10985Y17044
X111281Y1666
X11425Y17065
X11575Y17065
X11725Y17065
X11875Y17065
X12025Y17065
X12175Y17065
X1253Y16735
X1253Y16545
X1253Y1664
X13465Y16695
X13465Y1689
X1347Y165
X13625Y1689
X13625Y16695
X1363Y165
X1379Y1689
X1379Y16695
X1405Y1669
X1405Y1686
X1423Y1669
X1423Y1686
X14405Y1669
X14405Y1686
X14585Y1669
X14585Y1686
X14585Y1651
X1476Y1651
X1476Y1669
X1476Y1686
X1494Y1686
X1494Y1651
X1494Y1669
X15115Y1669
X15115Y1651
X15115Y1686
X1529Y1686
X1529Y1669
X1555Y1669
X15775Y1669
X16005Y1669
X16235Y1669
X17535Y16715
X17535Y16465
X1767Y16965
X17785Y1769
X17785Y1744
X17785Y1719
X1541Y1751
X1541Y1737
X1524Y1737
X1524Y1751
X1303Y1751
X1293Y1751
X1218Y1747
X1175Y176888
X1145Y176888
X10115Y1758
X10115Y1733
X10115Y1783
X10705Y1838
X10955Y18385
X11205Y18385
X1147Y18385
X1173Y18385
X1198Y18385
X1223Y18385
X1248Y18385
X1273Y18385
X1298Y18385
X1323Y18385
X1348Y18385
X1373Y18385
X1398Y18385
X1423Y18385
X1448Y18385
X1473Y18385
X1498Y18385
X1523Y18385
X1524Y178
X1524Y1793
X1541Y178
X1541Y1793
X1548Y18385
X1573Y18385
X1598Y18385
X1623Y18385
X1648Y18385
X1673Y18385
X1698Y18385
X1723Y18385
T2C1.F197S55
X16596Y1311
X169Y104
X17104Y1311
X17104Y1639
X16596Y1639
X104Y175
X1127Y182
X11524Y182
X11778Y182
X12032Y182
X1425Y182
X14504Y182
T3C1.1F139S55
X10473Y11583
X10473Y11837
X10473Y12091
X10473Y12345
X10473Y12599
X10727Y12091
X10727Y11837
X10727Y12345
X10727Y11583
X10727Y12599
X10727Y12853
X10727Y13107
X10727Y13361
X10727Y13615
X10727Y13869
X10473Y13107
X10473Y13615
X10473Y12853
X10473Y13869
X10473Y13361
X10473Y14123
X10473Y14377
X10473Y14631
X10473Y14885
X10473Y15139
X10727Y14631
X10727Y14377
X10727Y14885
X10727Y14123
X10727Y15139
X10727Y15393
X10727Y15647
X10727Y15901
X10727Y16155
X10727Y16409
X10473Y15647
X10473Y16155
X10473Y15393
X10473Y16409
X10473Y15901
X10473Y16663
X10473Y16917
X10727Y16663
X10727Y16917
T4C1.3F107S55
X1693Y14225
X1693Y14575
X1693Y14925
X1693Y15275
T5C1.5F107S55
X1623Y175
X1673Y175
T6C1.8F081S55
X106Y1171
X106Y1679
T7C3.2F035S794
X103999Y103999
X175Y104
X175Y181
X103999Y180999
M30
