*
*
G04 PADS VX.2.2 Build Number: 9893964 generated Gerber (RS-274-X) file*
G04 PC Version=2.1*
*
%IN "TMC5160-EVAL_V30.pcb"*%
*
%MOMM*%
*
%FSLAX33Y33*%
*
*
*
*
G04 PC Standard Apertures*
*
*
G04 Thermal Relief Aperture macro.*
%AMTER*
1,1,$1,0,0*
1,0,$1-$2,0,0*
21,0,$3,$4,0,0,45*
21,0,$3,$4,0,0,135*
%
*
*
G04 Annular Aperture macro.*
%AMANN*
1,1,$1,0,0*
1,0,$2,0,0*
%
*
*
G04 Odd Aperture macro.*
%AMODD*
1,1,$1,0,0*
1,0,$1-0.005,0,0*
%
*
*
G04 PC Custom Aperture Macros*
*
*
*
*
*
*
G04 PC Aperture Table*
*
%ADD075C,0.5*%
%ADD100C,0.2*%
%ADD157C,0.4*%
%ADD165C,0.15*%
%ADD166C,0.1*%
%ADD200C,0.01*%
%ADD201C,0.011*%
*
*
*
*
G04 PC Circuitry*
G04 Layer Name TMC5160-EVAL_V30.pcb - circuitry*
%LPD*%
*
*
G04 PC Custom Flashes*
G04 Layer Name TMC5160-EVAL_V30.pcb - flashes*
%LPD*%
*
*
G04 PC Circuitry*
G04 Layer Name TMC5160-EVAL_V30.pcb - circuitry*
%LPD*%
*
G54D75*
G01X152250Y167100D02*
G75*
G03X152250I-250J0D01*
G01Y157700D02*
G03X152250I-250J0D01*
G01X137450Y167100D02*
G03X137450I-250J0D01*
G01Y157700D02*
G03X137450I-250J0D01*
G01X152250Y144400D02*
G03X152250I-250J0D01*
G01Y135000D02*
G03X152250I-250J0D01*
G01X137450Y144400D02*
G03X137450I-250J0D01*
G01Y135000D02*
G03X137450I-250J0D01*
G01X152250Y167100D02*
G03X152250I-250J0D01*
G01Y157700D02*
G03X152250I-250J0D01*
G01X137450Y167100D02*
G03X137450I-250J0D01*
G01Y157700D02*
G03X137450I-250J0D01*
G01X152250Y144400D02*
G03X152250I-250J0D01*
G01Y135000D02*
G03X152250I-250J0D01*
G01X137450Y144400D02*
G03X137450I-250J0D01*
G01Y135000D02*
G03X137450I-250J0D01*
G01X151849Y167299D02*
X152150D01*
X151849Y157899D02*
X152150D01*
X137049Y167299D02*
X137350D01*
X137049Y157899D02*
X137350D01*
X151849Y144599D02*
X152150D01*
X151849Y135199D02*
X152150D01*
X137049Y144599D02*
X137350D01*
X137049Y135199D02*
X137350D01*
G54D100*
X110627Y102631D02*
Y101318D01*
X110309Y102631D02*
X110945D01*
X111354D02*
Y101318D01*
Y102631D02*
X111718Y101318D01*
X112081Y102631D02*
X111718Y101318D01*
X112081Y102631D02*
Y101318D01*
X113172Y102318D02*
X113127Y102443D01*
X113127D02*
X113036Y102568D01*
X113036D02*
X112945Y102631D01*
X112763*
X112763D02*
X112672Y102568D01*
X112672D02*
X112581Y102443D01*
X112581D02*
X112536Y102318D01*
X112536D02*
X112490Y102131D01*
X112490D02*
Y101818D01*
X112490D02*
X112536Y101631D01*
X112581Y101506*
X112581D02*
X112672Y101381D01*
X112672D02*
X112763Y101318D01*
X112763D02*
X112945D01*
X112945D02*
X113036Y101381D01*
X113127Y101506*
X113172Y101631*
X113627Y102318D02*
Y102381D01*
X113672Y102506*
X113672D02*
X113718Y102568D01*
X113718D02*
X113809Y102631D01*
X113990*
X113990D02*
X114081Y102568D01*
X114081D02*
X114127Y102506D01*
X114172Y102381*
X114172D02*
Y102256D01*
X114172D02*
X114127Y102131D01*
X114036Y101943*
X114036D02*
X113581Y101318D01*
X113581D02*
X114218D01*
X114627Y102381D02*
X114718Y102443D01*
X114718D02*
X114854Y102631D01*
X114854D02*
Y101318D01*
X115809Y102443D02*
X115763Y102568D01*
X115763D02*
X115627Y102631D01*
X115536*
X115400Y102568*
X115400D02*
X115309Y102381D01*
X115263Y102068*
X115263D02*
Y101756D01*
X115263D02*
X115309Y101506D01*
X115400Y101381*
X115536Y101318*
X115536D02*
X115581D01*
X115581D02*
X115718Y101381D01*
X115809Y101506*
X115854Y101693*
X115854D02*
Y101756D01*
X115854D02*
X115809Y101943D01*
X115809D02*
X115718Y102068D01*
X115718D02*
X115581Y102131D01*
X115581D02*
X115536D01*
X115400Y102068*
X115400D02*
X115309Y101943D01*
X115309D02*
X115263Y101756D01*
X116536Y102631D02*
X116400Y102568D01*
X116400D02*
X116309Y102381D01*
X116263Y102068*
X116263D02*
Y101881D01*
X116263D02*
X116309Y101568D01*
X116309D02*
X116400Y101381D01*
X116536Y101318*
X116536D02*
X116627D01*
X116627D02*
X116763Y101381D01*
X116763D02*
X116854Y101568D01*
X116854D02*
X116900Y101881D01*
Y102068*
X116900D02*
X116854Y102381D01*
X116854D02*
X116763Y102568D01*
X116763D02*
X116627Y102631D01*
X116536*
X117309Y101881D02*
X118127D01*
X118536Y102631D02*
Y101318D01*
Y102631D02*
X119127D01*
X118536Y102006D02*
X118900D01*
X118536Y101318D02*
X119127D01*
X119536Y102631D02*
X119900Y101318D01*
X120263Y102631D02*
X119900Y101318D01*
X121036Y102631D02*
X120672Y101318D01*
X121036Y102631D02*
X121400Y101318D01*
X120809Y101756D02*
X121263D01*
X121809Y102631D02*
Y101318D01*
X121809D02*
X122354D01*
X123809Y102631D02*
X124172Y101318D01*
X124536Y102631D02*
X124172Y101318D01*
X124945Y102381D02*
X125036Y102443D01*
X125036D02*
X125172Y102631D01*
X125172D02*
Y101318D01*
X125627Y101443D02*
X125581Y101381D01*
X125581D02*
X125627Y101318D01*
X125627D02*
X125672Y101381D01*
X125672D02*
X125627Y101443D01*
X126081Y102381D02*
X126172Y102443D01*
X126172D02*
X126309Y102631D01*
Y101318*
X158359Y182068D02*
Y183381D01*
Y182068D02*
X157950D01*
X157950D02*
X157813Y182131D01*
X157813D02*
X157768Y182193D01*
X157768D02*
X157722Y182318D01*
X157722D02*
Y182506D01*
X157722D02*
X157768Y182631D01*
X157813Y182693*
X157813D02*
X157950Y182756D01*
X158359*
X157040Y182068D02*
X157131Y182131D01*
X157131D02*
X157222Y182256D01*
X157222D02*
X157268Y182381D01*
X157313Y182568*
X157313D02*
Y182881D01*
X157313D02*
X157268Y183068D01*
X157268D02*
X157222Y183193D01*
X157222D02*
X157131Y183318D01*
X157131D02*
X157040Y183381D01*
X157040D02*
X156859D01*
X156768Y183318*
X156768D02*
X156677Y183193D01*
X156677D02*
X156631Y183068D01*
X156631D02*
X156586Y182881D01*
Y182568*
X156586D02*
X156631Y182381D01*
X156631D02*
X156677Y182256D01*
X156768Y182131*
X156859Y182068*
X156859D02*
X157040D01*
X156177D02*
X155950Y183381D01*
X155722Y182068D02*
X155950Y183381D01*
X155722Y182068D02*
X155495Y183381D01*
X155268Y182068D02*
X155495Y183381D01*
X154859Y182068D02*
Y183381D01*
Y182068D02*
X154268D01*
X154859Y182693D02*
X154495D01*
X154859Y183381D02*
X154268D01*
X153859Y182068D02*
Y183381D01*
Y182068D02*
X153450D01*
X153450D02*
X153313Y182131D01*
X153313D02*
X153268Y182193D01*
X153268D02*
X153222Y182318D01*
X153222D02*
Y182443D01*
X153222D02*
X153268Y182568D01*
X153268D02*
X153313Y182631D01*
X153313D02*
X153450Y182693D01*
X153450D02*
X153859D01*
X153540D02*
X153222Y183381D01*
X175968Y133700D02*
X177281D01*
X175968D02*
X177281Y134063D01*
X175968Y134427D02*
X177281Y134063D01*
X175968Y134427D02*
X177281D01*
X175968Y135109D02*
X176031Y135018D01*
X176156Y134927*
X176281Y134881*
X176281D02*
X176468Y134836D01*
X176468D02*
X176781D01*
X176968Y134881*
X176968D02*
X177093Y134927D01*
X177093D02*
X177218Y135018D01*
X177218D02*
X177281Y135109D01*
Y135290*
X177281D02*
X177218Y135381D01*
X177218D02*
X177093Y135472D01*
X177093D02*
X176968Y135518D01*
X176968D02*
X176781Y135563D01*
X176781D02*
X176468D01*
X176468D02*
X176281Y135518D01*
X176156Y135472*
X176156D02*
X176031Y135381D01*
X176031D02*
X175968Y135290D01*
X175968D02*
Y135109D01*
Y136290D02*
X177281D01*
X175968Y135972D02*
Y136609D01*
Y137290D02*
X176031Y137200D01*
X176156Y137109*
X176281Y137063*
X176281D02*
X176468Y137018D01*
X176468D02*
X176781D01*
X176968Y137063*
X176968D02*
X177093Y137109D01*
X177093D02*
X177218Y137200D01*
X177218D02*
X177281Y137290D01*
X177281D02*
Y137472D01*
X177281D02*
X177218Y137563D01*
X177218D02*
X177093Y137654D01*
X177093D02*
X176968Y137700D01*
X176968D02*
X176781Y137745D01*
X176468*
X176468D02*
X176281Y137700D01*
X176156Y137654*
X176156D02*
X176031Y137563D01*
X176031D02*
X175968Y137472D01*
X175968D02*
Y137290D01*
Y138154D02*
X177281D01*
X175968D02*
Y138563D01*
X175968D02*
X176031Y138700D01*
X176093Y138745*
X176093D02*
X176218Y138790D01*
X176218D02*
X176343D01*
X176343D02*
X176468Y138745D01*
X176468D02*
X176531Y138700D01*
X176593Y138563*
X176593D02*
Y138154D01*
Y138472D02*
X177281Y138790D01*
X113600Y159200D02*
X124800D01*
Y168900*
X160600*
Y126300*
X124800*
Y136800*
X113600*
Y159200*
G54D157*
X102272Y98125D02*
X102090Y98375D01*
X102090D02*
X101818Y98500D01*
X101454*
X101454D02*
X101181Y98375D01*
X101181D02*
X101000Y98125D01*
Y97875*
X101090Y97625*
X101090D02*
X101181Y97500D01*
X101181D02*
X101363Y97375D01*
X101363D02*
X101909Y97125D01*
X102090Y97000*
X102090D02*
X102181Y96875D01*
X102181D02*
X102272Y96625D01*
X102272D02*
Y96250D01*
X102272D02*
X102090Y96000D01*
X102090D02*
X101818Y95875D01*
X101454*
X101454D02*
X101181Y96000D01*
X101181D02*
X101000Y96250D01*
X103090Y98500D02*
X103181Y98375D01*
X103181D02*
X103272Y98500D01*
X103272D02*
X103181Y98625D01*
X103181D02*
X103090Y98500D01*
X103181Y97625D02*
Y95875D01*
X104090Y98500D02*
Y95875D01*
X104909Y98500D02*
Y95875D01*
X105818Y97625D02*
X104909Y96375D01*
X105272Y96875D02*
X105909Y95875D01*
X107727Y97250D02*
X107636Y97500D01*
X107363Y97625*
X107363D02*
X107090D01*
X107090D02*
X106818Y97500D01*
X106727Y97250*
X106818Y97000*
X107000Y96875*
X107454Y96750*
X107454D02*
X107636Y96625D01*
X107727Y96375*
Y96250*
X107636Y96000*
X107363Y95875*
X107363D02*
X107090D01*
X107090D02*
X106818Y96000D01*
X106727Y96250*
X109636Y97250D02*
X109454Y97500D01*
X109454D02*
X109272Y97625D01*
X109272D02*
X109000D01*
X108818Y97500*
X108636Y97250*
X108545Y96875*
Y96625*
X108636Y96250*
X108818Y96000*
X109000Y95875*
X109272*
X109272D02*
X109454Y96000D01*
X109454D02*
X109636Y96250D01*
X110454Y97625D02*
Y95875D01*
Y96875D02*
X110545Y97250D01*
X110727Y97500*
X110909Y97625*
X111181*
X112000Y96875D02*
X113090D01*
X113090D02*
Y97125D01*
X113090D02*
X113000Y97375D01*
X112909Y97500*
X112727Y97625*
X112454*
X112454D02*
X112272Y97500D01*
X112272D02*
X112090Y97250D01*
X112090D02*
X112000Y96875D01*
Y96625*
X112090Y96250*
X112090D02*
X112272Y96000D01*
X112272D02*
X112454Y95875D01*
X112454D02*
X112727D01*
X112909Y96000*
X113090Y96250*
X113909Y96875D02*
X115000D01*
Y97125*
X114909Y97375*
X114818Y97500*
X114636Y97625*
X114363*
X114363D02*
X114181Y97500D01*
X114181D02*
X114000Y97250D01*
X113909Y96875*
Y96625*
X114000Y96250*
X114181Y96000*
X114181D02*
X114363Y95875D01*
X114363D02*
X114636D01*
X114818Y96000*
X115000Y96250*
X115818Y97625D02*
Y95875D01*
Y97125D02*
X116090Y97500D01*
X116090D02*
X116272Y97625D01*
X116272D02*
X116545D01*
X116727Y97500*
X116818Y97125*
Y95875*
X120363Y98500D02*
Y95875D01*
X119727Y98500D02*
X121000D01*
X122272Y97625D02*
X122090Y97500D01*
X122090D02*
X121909Y97250D01*
X121818Y96875*
Y96625*
X121909Y96250*
X122090Y96000*
X122090D02*
X122272Y95875D01*
X122272D02*
X122545D01*
X122727Y96000*
X122909Y96250*
X123000Y96625*
Y96875*
X122909Y97250*
X122727Y97500*
X122545Y97625*
X122272*
X123818D02*
Y95000D01*
Y97250D02*
X124000Y97500D01*
X124181Y97625*
X124181D02*
X124454D01*
X124454D02*
X124636Y97500D01*
X124818Y97250*
X124909Y96875*
Y96625*
X124818Y96250*
X124636Y96000*
X124454Y95875*
X124454D02*
X124181D01*
X124181D02*
X124000Y96000D01*
X123818Y96250*
X101636Y92500D02*
Y89875D01*
X101000Y92500D02*
X102272D01*
X103090D02*
Y89875D01*
Y92500D02*
X103818Y89875D01*
X104545Y92500D02*
X103818Y89875D01*
X104545Y92500D02*
Y89875D01*
X106727Y91875D02*
X106636Y92125D01*
X106454Y92375*
X106454D02*
X106272Y92500D01*
X106272D02*
X105909D01*
X105727Y92375*
X105545Y92125*
X105454Y91875*
X105454D02*
X105363Y91500D01*
X105363D02*
Y90875D01*
X105363D02*
X105454Y90500D01*
X105454D02*
X105545Y90250D01*
X105727Y90000*
X105909Y89875*
X106272*
X106272D02*
X106454Y90000D01*
X106454D02*
X106636Y90250D01*
X106727Y90500*
X107636Y91875D02*
Y92000D01*
X107727Y92250*
X107818Y92375*
X108000Y92500*
X108363*
X108363D02*
X108545Y92375D01*
X108636Y92250*
X108727Y92000*
Y91750*
X108636Y91500*
X108454Y91125*
X108454D02*
X107545Y89875D01*
X108818*
X109636Y92000D02*
X109818Y92125D01*
X110090Y92500*
X110090D02*
Y89875D01*
X112000Y92125D02*
X111909Y92375D01*
X111636Y92500*
X111454*
X111454D02*
X111181Y92375D01*
X111181D02*
X111000Y92000D01*
X110909Y91375*
Y90750*
X111000Y90250*
X111181Y90000*
X111181D02*
X111454Y89875D01*
X111454D02*
X111545D01*
X111818Y90000*
X112000Y90250*
X112090Y90625*
X112090D02*
Y90750D01*
X112090D02*
X112000Y91125D01*
X111818Y91375*
X111545Y91500*
X111454*
X111454D02*
X111181Y91375D01*
X111181D02*
X111000Y91125D01*
X110909Y90750*
X113454Y92500D02*
X113181Y92375D01*
X113181D02*
X113000Y92000D01*
X112909Y91375*
Y91000*
X113000Y90375*
X113181Y90000*
X113181D02*
X113454Y89875D01*
X113454D02*
X113636D01*
X113909Y90000*
X114090Y90375*
X114090D02*
X114181Y91000D01*
X114181D02*
Y91375D01*
X114181D02*
X114090Y92000D01*
X114090D02*
X113909Y92375D01*
X113636Y92500*
X113454*
X115000Y91000D02*
X116636D01*
X117454Y92500D02*
Y89875D01*
Y92500D02*
X118636D01*
X117454Y91250D02*
X118181D01*
X117454Y89875D02*
X118636D01*
X119454Y92500D02*
X120181Y89875D01*
X120909Y92500D02*
X120181Y89875D01*
X122454Y92500D02*
X121727Y89875D01*
X122454Y92500D02*
X123181Y89875D01*
X122000Y90750D02*
X122909D01*
X124000Y92500D02*
Y89875D01*
X125090*
X128000Y92500D02*
X128727Y89875D01*
X129454Y92500D02*
X128727Y89875D01*
X130272Y92000D02*
X130454Y92125D01*
X130454D02*
X130727Y92500D01*
Y89875*
X131636Y90125D02*
X131545Y90000D01*
X131636Y89875*
X131727Y90000*
X131636Y90125*
X132545Y92000D02*
X132727Y92125D01*
X133000Y92500*
Y89875*
X142181Y92000D02*
X142363Y92125D01*
X142363D02*
X142636Y92500D01*
Y89875*
X144000Y92500D02*
X143727Y92375D01*
X143545Y92000*
X143454Y91375*
X143454D02*
Y91000D01*
X143454D02*
X143545Y90375D01*
X143727Y90000*
X144000Y89875*
X144181*
X144181D02*
X144454Y90000D01*
X144454D02*
X144636Y90375D01*
X144727Y91000*
Y91375*
X144636Y92000*
X144454Y92375*
X144454D02*
X144181Y92500D01*
X144181D02*
X144000D01*
X145636Y90125D02*
X145545Y90000D01*
X145636Y89875*
X145727Y90000*
X145636Y90125*
X147090Y92500D02*
X146818Y92375D01*
X146636Y92000*
X146545Y91375*
Y91000*
X146636Y90375*
X146818Y90000*
X147090Y89875*
X147090D02*
X147272D01*
X147272D02*
X147545Y90000D01*
X147727Y90375*
X147818Y91000*
Y91375*
X147727Y92000*
X147545Y92375*
X147272Y92500*
X147272D02*
X147090D01*
X149818Y91625D02*
X149727Y91250D01*
X149545Y91000*
X149272Y90875*
X149272D02*
X149181D01*
X149181D02*
X148909Y91000D01*
X148727Y91250*
X148636Y91625*
Y91750*
X148727Y92125*
X148909Y92375*
X149181Y92500*
X149181D02*
X149272D01*
X149272D02*
X149545Y92375D01*
X149727Y92125*
X149818Y91625*
Y91000*
X149727Y90375*
X149545Y90000*
X149272Y89875*
X149272D02*
X149090D01*
X149090D02*
X148818Y90000D01*
X148727Y90250*
X150727Y90125D02*
X150636Y90000D01*
X150727Y89875*
X150818Y90000*
X150727Y90125*
X151727Y91875D02*
Y92000D01*
X151818Y92250*
X151909Y92375*
X152090Y92500*
X152090D02*
X152454D01*
X152454D02*
X152636Y92375D01*
X152727Y92250*
X152818Y92000*
Y91750*
X152727Y91500*
X152545Y91125*
X151636Y89875*
X152909*
X154272Y92500D02*
X154000Y92375D01*
X153818Y92000*
X153727Y91375*
Y91000*
X153818Y90375*
X154000Y90000*
X154272Y89875*
X154272D02*
X154454D01*
X154454D02*
X154727Y90000D01*
X154909Y90375*
X155000Y91000*
Y91375*
X154909Y92000*
X154727Y92375*
X154454Y92500*
X154454D02*
X154272D01*
X155818Y92000D02*
X156000Y92125D01*
X156272Y92500*
X156272D02*
Y89875D01*
X157545Y92500D02*
X157272Y92375D01*
X157272D02*
X157181Y92125D01*
X157181D02*
Y91875D01*
X157181D02*
X157272Y91625D01*
X157272D02*
X157454Y91500D01*
X157454D02*
X157818Y91375D01*
X158090Y91250*
X158090D02*
X158272Y91000D01*
X158272D02*
X158363Y90750D01*
X158363D02*
Y90375D01*
X158363D02*
X158272Y90125D01*
X158272D02*
X158181Y90000D01*
X158181D02*
X157909Y89875D01*
X157545*
X157272Y90000*
X157272D02*
X157181Y90125D01*
X157181D02*
X157090Y90375D01*
X157090D02*
Y90750D01*
X157090D02*
X157181Y91000D01*
X157181D02*
X157363Y91250D01*
X157363D02*
X157636Y91375D01*
X158000Y91500*
X158181Y91625*
X158181D02*
X158272Y91875D01*
X158272D02*
Y92125D01*
X158272D02*
X158181Y92375D01*
X158181D02*
X157909Y92500D01*
X157545*
G54D165*
X168046Y171735D02*
X168080Y171642D01*
X168080D02*
X168148Y171548D01*
X168148D02*
X168217Y171501D01*
X168217D02*
X168353D01*
X168353D02*
X168421Y171548D01*
X168421D02*
X168489Y171642D01*
X168489D02*
X168523Y171735D01*
X168523D02*
X168557Y171876D01*
X168557D02*
Y172110D01*
X168557D02*
X168523Y172251D01*
X168523D02*
X168489Y172345D01*
X168489D02*
X168421Y172439D01*
X168421D02*
X168353Y172485D01*
X168353D02*
X168217D01*
X168217D02*
X168148Y172439D01*
X168148D02*
X168080Y172345D01*
X168080D02*
X168046Y172251D01*
X168046D02*
Y172110D01*
X168217D02*
X168046D01*
X167739Y171501D02*
Y172485D01*
Y171501D02*
X167262Y172485D01*
Y171501D02*
Y172485D01*
X166955Y171501D02*
Y172485D01*
Y171501D02*
X166717D01*
X166717D02*
X166614Y171548D01*
X166614D02*
X166546Y171642D01*
X166546D02*
X166512Y171735D01*
X166512D02*
X166478Y171876D01*
X166478D02*
Y172110D01*
X166478D02*
X166512Y172251D01*
X166512D02*
X166546Y172345D01*
X166546D02*
X166614Y172439D01*
X166614D02*
X166717Y172485D01*
X166717D02*
X166955D01*
X163270Y171642D02*
Y172485D01*
X163577Y172064D02*
X162963D01*
X162656Y171501D02*
X162384Y172485D01*
X162111Y171501D02*
X162384Y172485D01*
X161804Y171501D02*
Y172485D01*
Y171501D02*
X161531Y172485D01*
X161259Y171501D02*
X161531Y172485D01*
X161259Y171501D02*
Y172485D01*
X163390Y141253D02*
X164375D01*
X163390D02*
X164375Y141526D01*
X163390Y141798D02*
X164375Y141526D01*
X163390Y141798D02*
X164375D01*
X163390Y142105D02*
X164375D01*
X163390D02*
Y142412D01*
X163390D02*
X163437Y142514D01*
X163437D02*
X163484Y142548D01*
X163484D02*
X163578Y142582D01*
X163578D02*
X163671D01*
X163671D02*
X163765Y142548D01*
X163765D02*
X163812Y142514D01*
X163812D02*
X163859Y142412D01*
Y142105D02*
Y142412D01*
X163859D02*
X163906Y142514D01*
X163906D02*
X163953Y142548D01*
X163953D02*
X164046Y142582D01*
X164046D02*
X164187D01*
X164187D02*
X164281Y142548D01*
X164281D02*
X164328Y142514D01*
X164328D02*
X164375Y142412D01*
X164375D02*
Y142105D01*
X163578Y142889D02*
X163531Y142957D01*
X163531D02*
X163390Y143060D01*
X163390D02*
X164375D01*
X163390Y144800D02*
X164375D01*
X163390D02*
X164375Y145072D01*
X163390Y145345D02*
X164375Y145072D01*
X163390Y145345D02*
X164375D01*
X163390Y145652D02*
X164375D01*
X163390D02*
Y145959D01*
X163390D02*
X163437Y146061D01*
X163437D02*
X163484Y146095D01*
X163578Y146129*
X163578D02*
X163671D01*
X163671D02*
X163765Y146095D01*
X163765D02*
X163812Y146061D01*
X163812D02*
X163859Y145959D01*
Y145652D02*
Y145959D01*
X163906Y146061*
X163953Y146095*
X164046Y146129*
X164046D02*
X164187D01*
X164187D02*
X164281Y146095D01*
X164328Y146061*
X164375Y145959*
Y145652*
X163625Y146470D02*
X163578D01*
X163484Y146504*
X163484D02*
X163437Y146538D01*
X163437D02*
X163390Y146606D01*
X163390D02*
Y146743D01*
X163390D02*
X163437Y146811D01*
X163437D02*
X163484Y146845D01*
X163578Y146879*
X163578D02*
X163671D01*
X163671D02*
X163765Y146845D01*
X163765D02*
X163906Y146777D01*
X164375Y146436*
Y146913*
X163390Y148319D02*
X164375D01*
X163390D02*
X164375Y148592D01*
X163390Y148864D02*
X164375Y148592D01*
X163390Y148864D02*
X164375D01*
X163390Y149444D02*
X164375Y149171D01*
X163390Y149444D02*
X164375Y149717D01*
X164046Y149273D02*
Y149614D01*
X163578Y150023D02*
X163531Y150092D01*
X163390Y150194*
X163390D02*
X164375D01*
X163390Y151565D02*
X164375D01*
X163390D02*
X164375Y151838D01*
X163390Y152111D02*
X164375Y151838D01*
X163390Y152111D02*
X164375D01*
X163390Y152690D02*
X164375Y152418D01*
X163390Y152690D02*
X164375Y152963D01*
X164046Y152520D02*
Y152861D01*
X163625Y153304D02*
X163578D01*
X163578D02*
X163484Y153338D01*
X163484D02*
X163437Y153372D01*
X163437D02*
X163390Y153440D01*
X163390D02*
Y153577D01*
X163390D02*
X163437Y153645D01*
X163437D02*
X163484Y153679D01*
X163484D02*
X163578Y153713D01*
X163578D02*
X163671D01*
X163671D02*
X163765Y153679D01*
X163765D02*
X163906Y153611D01*
X164375Y153270*
Y153747*
X121978Y179156D02*
Y180000D01*
X122285Y179578D02*
X121671D01*
X120921Y179015D02*
X121262D01*
X121262D02*
X121296Y179437D01*
X121296D02*
X121262Y179390D01*
X121262D02*
X121160Y179343D01*
X121160D02*
X121057D01*
X121057D02*
X120955Y179390D01*
X120955D02*
X120887Y179484D01*
X120887D02*
X120853Y179625D01*
X120887Y179718*
X120887D02*
X120921Y179859D01*
X120921D02*
X120989Y179953D01*
X120989D02*
X121092Y180000D01*
X121194*
X121296Y179953*
X121296D02*
X121330Y179906D01*
X121330D02*
X121364Y179812D01*
X120546Y179015D02*
X120273Y180000D01*
X120001Y179015D02*
X120273Y180000D01*
X104588Y172535D02*
X104622Y172442D01*
X104622D02*
X104690Y172348D01*
X104690D02*
X104759Y172301D01*
X104759D02*
X104895D01*
X104895D02*
X104963Y172348D01*
X104963D02*
X105031Y172442D01*
X105031D02*
X105065Y172535D01*
X105065D02*
X105100Y172676D01*
X105100D02*
Y172910D01*
X105100D02*
X105065Y173051D01*
X105065D02*
X105031Y173145D01*
X105031D02*
X104963Y173239D01*
X104963D02*
X104895Y173285D01*
X104895D02*
X104759D01*
X104759D02*
X104690Y173239D01*
X104690D02*
X104622Y173145D01*
X104622D02*
X104588Y173051D01*
X104588D02*
Y172910D01*
X104759D02*
X104588D01*
X104281Y172301D02*
Y173285D01*
Y172301D02*
X103804Y173285D01*
Y172301D02*
Y173285D01*
X103497Y172301D02*
Y173285D01*
Y172301D02*
X103259D01*
X103259D02*
X103156Y172348D01*
X103156D02*
X103088Y172442D01*
X103088D02*
X103054Y172535D01*
X103054D02*
X103020Y172676D01*
X103020D02*
Y172910D01*
X103020D02*
X103054Y173051D01*
X103054D02*
X103088Y173145D01*
X103088D02*
X103156Y173239D01*
X103156D02*
X103259Y173285D01*
X103259D02*
X103497D01*
X113071Y179250D02*
X113105Y179156D01*
X113105D02*
X113173Y179062D01*
X113173D02*
X113242Y179015D01*
X113242D02*
X113378D01*
X113378D02*
X113446Y179062D01*
X113446D02*
X113514Y179156D01*
X113514D02*
X113548Y179250D01*
X113548D02*
X113582Y179390D01*
X113582D02*
Y179625D01*
X113582D02*
X113548Y179765D01*
X113548D02*
X113514Y179859D01*
X113514D02*
X113446Y179953D01*
X113446D02*
X113378Y180000D01*
X113242*
X113173Y179953*
X113173D02*
X113105Y179859D01*
X113105D02*
X113071Y179765D01*
X113071D02*
Y179625D01*
X113242D02*
X113071D01*
X112764Y179015D02*
Y180000D01*
Y179015D02*
X112287Y180000D01*
Y179015D02*
Y180000D01*
X111980Y179015D02*
Y180000D01*
Y179015D02*
X111742D01*
X111742D02*
X111639Y179062D01*
X111639D02*
X111571Y179156D01*
X111571D02*
X111537Y179250D01*
X111537D02*
X111503Y179390D01*
X111503D02*
Y179625D01*
X111537Y179765*
X111537D02*
X111571Y179859D01*
X111571D02*
X111639Y179953D01*
X111639D02*
X111742Y180000D01*
X111980*
X115827Y179015D02*
Y180000D01*
Y179015D02*
X115588D01*
X115588D02*
X115486Y179062D01*
X115486D02*
X115418Y179156D01*
X115384Y179250*
X115350Y179390*
X115350D02*
Y179625D01*
X115384Y179765*
X115384D02*
X115418Y179859D01*
X115486Y179953*
X115588Y180000*
X115588D02*
X115827D01*
X115043Y179015D02*
Y180000D01*
X114736Y179015D02*
Y180000D01*
Y179015D02*
X114429D01*
X114429D02*
X114327Y179062D01*
X114327D02*
X114293Y179109D01*
X114259Y179203*
Y179296*
X114259D02*
X114293Y179390D01*
X114293D02*
X114327Y179437D01*
X114327D02*
X114429Y179484D01*
X114429D02*
X114736D01*
X114497D02*
X114259Y180000D01*
X118963Y179156D02*
X119031Y179062D01*
X119031D02*
X119134Y179015D01*
X119134D02*
X119270D01*
X119270D02*
X119372Y179062D01*
X119372D02*
X119440Y179156D01*
X119440D02*
Y179250D01*
X119440D02*
X119406Y179343D01*
X119406D02*
X119372Y179390D01*
X119372D02*
X119304Y179437D01*
X119304D02*
X119100Y179531D01*
X119031Y179578*
X119031D02*
X118997Y179625D01*
X118997D02*
X118963Y179718D01*
X118963D02*
Y179859D01*
X118963D02*
X119031Y179953D01*
X119031D02*
X119134Y180000D01*
X119270*
X119372Y179953*
X119372D02*
X119440Y179859D01*
X118418Y179015D02*
Y180000D01*
X118656Y179015D02*
X118179D01*
X117872D02*
Y180000D01*
Y179015D02*
X117429D01*
X117872Y179484D02*
X117600D01*
X117872Y180000D02*
X117429D01*
X117122Y179015D02*
Y180000D01*
Y179015D02*
X116815D01*
X116815D02*
X116713Y179062D01*
X116713D02*
X116679Y179109D01*
X116679D02*
X116645Y179203D01*
Y179343*
X116645D02*
X116679Y179437D01*
X116679D02*
X116713Y179484D01*
X116713D02*
X116815Y179531D01*
X116815D02*
X117122D01*
X168311Y106564D02*
X168277Y106657D01*
X168277D02*
X168209Y106751D01*
X168209D02*
X168140Y106798D01*
X168140D02*
X168004D01*
X168004D02*
X167936Y106751D01*
X167936D02*
X167868Y106657D01*
X167868D02*
X167834Y106564D01*
X167800Y106423*
Y106189*
X167834Y106048*
X167868Y105954*
X167868D02*
X167936Y105860D01*
X167936D02*
X168004Y105814D01*
X168004D02*
X168140D01*
X168140D02*
X168209Y105860D01*
X168209D02*
X168277Y105954D01*
X168277D02*
X168311Y106048D01*
Y106189*
X168140D02*
X168311D01*
X168618Y106798D02*
Y105814D01*
Y106798D02*
X169095Y105814D01*
Y106798D02*
Y105814D01*
X169402Y106798D02*
Y105814D01*
Y106798D02*
X169640D01*
X169640D02*
X169743Y106751D01*
X169743D02*
X169811Y106657D01*
X169811D02*
X169845Y106564D01*
X169879Y106423*
X169879D02*
Y106189D01*
X169879D02*
X169845Y106048D01*
X169811Y105954*
X169811D02*
X169743Y105860D01*
X169743D02*
X169640Y105814D01*
X169640D02*
X169402D01*
X145946Y179450D02*
X145980Y179356D01*
X145980D02*
X146048Y179262D01*
X146048D02*
X146117Y179215D01*
X146117D02*
X146253D01*
X146253D02*
X146321Y179262D01*
X146321D02*
X146389Y179356D01*
X146389D02*
X146423Y179450D01*
X146423D02*
X146457Y179590D01*
X146457D02*
Y179825D01*
X146457D02*
X146423Y179965D01*
X146423D02*
X146389Y180059D01*
X146389D02*
X146321Y180153D01*
X146321D02*
X146253Y180200D01*
X146117*
X146048Y180153*
X146048D02*
X145980Y180059D01*
X145980D02*
X145946Y179965D01*
X145946D02*
Y179825D01*
X146117D02*
X145946D01*
X145639Y179215D02*
Y180200D01*
Y179215D02*
X145162Y180200D01*
Y179215D02*
Y180200D01*
X144855Y179215D02*
Y180200D01*
Y179215D02*
X144617D01*
X144617D02*
X144514Y179262D01*
X144514D02*
X144446Y179356D01*
X144446D02*
X144412Y179450D01*
X144412D02*
X144378Y179590D01*
X144378D02*
Y179825D01*
X144412Y179965*
X144412D02*
X144446Y180059D01*
X144446D02*
X144514Y180153D01*
X144514D02*
X144617Y180200D01*
X144855*
X143309Y179215D02*
X143036Y180200D01*
X142763Y179215D02*
X143036Y180200D01*
X141979Y179356D02*
X142047Y179262D01*
X142047D02*
X142150Y179215D01*
X142150D02*
X142286D01*
X142286D02*
X142388Y179262D01*
X142388D02*
X142456Y179356D01*
X142456D02*
Y179450D01*
X142456D02*
X142422Y179543D01*
X142422D02*
X142388Y179590D01*
X142388D02*
X142320Y179637D01*
X142320D02*
X142115Y179731D01*
X142115D02*
X142047Y179778D01*
X142047D02*
X142013Y179825D01*
X142013D02*
X141979Y179918D01*
X141979D02*
Y180059D01*
X141979D02*
X142047Y180153D01*
X142047D02*
X142150Y180200D01*
X142286*
X142388Y180153*
X142388D02*
X142456Y180059D01*
X141400Y179215D02*
X141672Y180200D01*
X141400Y179215D02*
X141127Y180200D01*
X141570Y179871D02*
X141229D01*
X100025Y105673D02*
Y104056D01*
X100163Y103225*
X100163D02*
X155825Y104073D01*
X155825D02*
Y104826D01*
X100025Y105673*
Y104710D02*
X155825D01*
X100025Y104575D02*
X155825D01*
X100025Y104440D02*
X155825D01*
X100025Y104305D02*
X155825D01*
X100025Y104170D02*
X155825D01*
X100025Y104845D02*
X154540D01*
X100028Y104035D02*
X153315D01*
X100025Y104980D02*
X145654D01*
X100050Y103900D02*
X144453D01*
X100025Y105115D02*
X136768D01*
X100073Y103765D02*
X135590D01*
X100025Y105250D02*
X127882D01*
X100095Y103630D02*
X126728D01*
X100025Y105385D02*
X118996D01*
X100118Y103495D02*
X117866D01*
X100025Y105520D02*
X110109D01*
X100140Y103360D02*
X109003D01*
X100025Y105655D02*
X101223D01*
G54D166*
X100000Y104000D02*
G03X104000Y100000I4000J0D01*
G01X175000*
G03X179000Y104000I0J4000*
G01Y181000*
G03X175000Y185000I-4000J0*
G01X104000*
G03X100000Y181000I0J-4000*
G01Y104000*
X99350Y93000D02*
X86650D01*
X93000Y99350D02*
Y86650D01*
X94905Y93000D02*
X93000Y94905D01*
X91095Y93000*
X93000Y91095*
X94905Y93000*
X96175D02*
X93000Y96175D01*
X89825Y93000*
X93000Y89825*
X96175Y93000*
X97445D02*
X93000Y97445D01*
X88555Y93000*
X93000Y88555*
X97445Y93000*
X99350Y192000D02*
X86650D01*
X93000Y198350D02*
Y185650D01*
X94905Y192000D02*
X93000Y193905D01*
X91095Y192000*
X93000Y190095*
X94905Y192000*
X96175D02*
X93000Y195175D01*
X89825Y192000*
X93000Y188825*
X96175Y192000*
X97445D02*
X93000Y196445D01*
X88555Y192000*
X93000Y187555*
X97445Y192000*
X192350D02*
X179650D01*
X186000Y198350D02*
Y185650D01*
X187905Y192000D02*
X186000Y193905D01*
X184095Y192000*
X186000Y190095*
X187905Y192000*
X189175D02*
X186000Y195175D01*
X182825Y192000*
X186000Y188825*
X189175Y192000*
X190445D02*
X186000Y196445D01*
X181555Y192000*
X186000Y187555*
X190445Y192000*
G54D200*
G54D201*
X157300Y106050D02*
X158303D01*
X157300Y106042D02*
X158303D01*
X157300Y106034D02*
X158303D01*
X157300Y106027D02*
X158303D01*
X157300Y106020D02*
X158303D01*
X157300Y106012D02*
X158303D01*
X157300Y106005D02*
X158303D01*
X157300Y105998D02*
X158303D01*
X157300Y105990D02*
X158303D01*
X157300Y105983D02*
X158303D01*
X157300Y105976D02*
X158303D01*
X157300Y105968D02*
X158303D01*
X157300Y105960D02*
X158303D01*
X157300Y105954D02*
X158303D01*
X157300Y105946D02*
X158303D01*
X157300Y105938D02*
X158303D01*
X157300Y105931D02*
X158303D01*
X157300Y105924D02*
X158303D01*
X157300Y105916D02*
X158303D01*
X157300Y105909D02*
X158303D01*
X157300Y105902D02*
X158303D01*
X157300Y105894D02*
X158303D01*
X157300Y105886D02*
X158303D01*
X157300Y105880D02*
X158303D01*
X157300Y105872D02*
X158303D01*
X157300Y105864D02*
X158303D01*
X157300Y105858D02*
X158303D01*
X157300Y105850D02*
X158303D01*
X157300Y105842D02*
X158303D01*
X157300Y105836D02*
X158303D01*
X157300Y105828D02*
X158303D01*
X157300Y105820D02*
X158303D01*
X157300Y105813D02*
X158303D01*
X157668Y105806D02*
X157934D01*
X157668Y105798D02*
X157934D01*
X157668Y105790D02*
X157934D01*
X157668Y105784D02*
X157934D01*
X157668Y105776D02*
X157934D01*
X157668Y105768D02*
X157934D01*
X157668Y105762D02*
X157934D01*
X157668Y105754D02*
X157934D01*
X157668Y105746D02*
X157934D01*
X157668Y105740D02*
X157934D01*
X157668Y105732D02*
X157934D01*
X157668Y105724D02*
X157934D01*
X157668Y105718D02*
X157934D01*
X157668Y105710D02*
X157934D01*
X157668Y105702D02*
X157934D01*
X157668Y105696D02*
X157934D01*
X157668Y105688D02*
X157934D01*
X157668Y105680D02*
X157934D01*
X157668Y105673D02*
X157934D01*
X157668Y105666D02*
X157934D01*
X157668Y105658D02*
X157934D01*
X157668Y105651D02*
X157934D01*
X157668Y105644D02*
X157934D01*
X157668Y105636D02*
X157934D01*
X157668Y105628D02*
X157934D01*
X157668Y105622D02*
X157934D01*
X157668Y105614D02*
X157934D01*
X157668Y105606D02*
X157934D01*
X157668Y105600D02*
X157934D01*
X157668Y105592D02*
X157934D01*
X157668Y105584D02*
X157934D01*
X157668Y105578D02*
X157934D01*
X157668Y105570D02*
X157934D01*
X157668Y105562D02*
X157934D01*
X157668Y105555D02*
X157934D01*
X157668Y105548D02*
X157934D01*
X157668Y105540D02*
X157934D01*
X157668Y105532D02*
X157934D01*
X157668Y105526D02*
X157934D01*
X157668Y105518D02*
X157934D01*
X157668Y105510D02*
X157934D01*
X157668Y105504D02*
X157934D01*
X157668Y105496D02*
X157934D01*
X157668Y105488D02*
X157934D01*
X157668Y105482D02*
X157934D01*
X157668Y105474D02*
X157934D01*
X157668Y105466D02*
X157934D01*
X157668Y105459D02*
X157934D01*
X157668Y105452D02*
X157934D01*
X157668Y105444D02*
X157934D01*
X157668Y105436D02*
X157934D01*
X157668Y105430D02*
X157934D01*
X157668Y105422D02*
X157934D01*
X157668Y105414D02*
X157934D01*
X157668Y105408D02*
X157934D01*
X157668Y105400D02*
X157934D01*
X157668Y105392D02*
X157934D01*
X157668Y105386D02*
X157934D01*
X157668Y105378D02*
X157934D01*
X157668Y105370D02*
X157934D01*
X157668Y105363D02*
X157934D01*
X157668Y105356D02*
X157934D01*
X157668Y105348D02*
X157934D01*
X157668Y105341D02*
X157934D01*
X157668Y105334D02*
X157934D01*
X157668Y105326D02*
X157934D01*
X157668Y105318D02*
X157934D01*
X157668Y105312D02*
X157934D01*
X157668Y105304D02*
X157934D01*
X157668Y105296D02*
X157934D01*
X157668Y105290D02*
X157934D01*
X157668Y105282D02*
X157934D01*
X157668Y105274D02*
X157934D01*
X157668Y105268D02*
X157934D01*
X157668Y105260D02*
X157934D01*
X157668Y105252D02*
X157934D01*
X157668Y105246D02*
X157934D01*
X157668Y105238D02*
X157934D01*
X157668Y105230D02*
X157934D01*
X157668Y105224D02*
X157934D01*
X157668Y105216D02*
X157934D01*
X157668Y105208D02*
X157934D01*
X157668Y105201D02*
X157934D01*
X157668Y105194D02*
X157934D01*
X157668Y105186D02*
X157934D01*
X157668Y105179D02*
X157934D01*
X157668Y105172D02*
X157934D01*
X157668Y105164D02*
X157934D01*
X157668Y105156D02*
X157934D01*
X157668Y105150D02*
X157934D01*
X157668Y105142D02*
X157934D01*
X157668Y105134D02*
X157934D01*
X157668Y105128D02*
X157934D01*
X157668Y105120D02*
X157934D01*
X157668Y105112D02*
X157934D01*
X157668Y105105D02*
X157934D01*
X157668Y105098D02*
X157934D01*
X157668Y105090D02*
X157934D01*
X157668Y105083D02*
X157934D01*
X157668Y105076D02*
X157934D01*
X157668Y105068D02*
X157934D01*
X157668Y105060D02*
X157934D01*
X157668Y105054D02*
X157934D01*
X157668Y105046D02*
X157934D01*
X157668Y105038D02*
X157934D01*
X157668Y105032D02*
X157934D01*
X157668Y105024D02*
X157934D01*
X157668Y105016D02*
X157934D01*
X157668Y105009D02*
X157934D01*
X157668Y105002D02*
X157934D01*
X157668Y104994D02*
X157934D01*
X157668Y104987D02*
X157934D01*
X157668Y104980D02*
X157934D01*
X157668Y104972D02*
X157934D01*
X157668Y104965D02*
X157934D01*
X157668Y104958D02*
X157934D01*
X157668Y104950D02*
X157934D01*
X157668Y104942D02*
X157934D01*
X157668Y104936D02*
X157934D01*
X157668Y104928D02*
X157934D01*
X157668Y104921D02*
X157934D01*
X157668Y104914D02*
X157934D01*
X157668Y104906D02*
X157934D01*
X157668Y104898D02*
X157934D01*
X157668Y104892D02*
X157934D01*
X157668Y104884D02*
X157934D01*
X157668Y104876D02*
X157934D01*
X157668Y104870D02*
X157934D01*
X157668Y104862D02*
X157934D01*
X157668Y104854D02*
X157934D01*
X157668Y104847D02*
X157934D01*
X157668Y104840D02*
X157934D01*
X157668Y104832D02*
X157934D01*
X157668Y104825D02*
X157934D01*
X157668Y104818D02*
X157934D01*
X157668Y104810D02*
X157934D01*
X157668Y104802D02*
X157934D01*
X157668Y104796D02*
X157934D01*
X157668Y104788D02*
X157934D01*
X157668Y104780D02*
X157934D01*
X157668Y104774D02*
X157934D01*
X157668Y104766D02*
X157934D01*
X157668Y104759D02*
X157934D01*
X157668Y104751D02*
X157934D01*
X157668Y104744D02*
X157934D01*
X157668Y104736D02*
X157934D01*
X157668Y104729D02*
X157934D01*
X157668Y104722D02*
X157934D01*
X157668Y104714D02*
X157934D01*
X157668Y104707D02*
X157934D01*
X157668Y104700D02*
X157934D01*
X157668Y104692D02*
X157934D01*
X157668Y104684D02*
X157934D01*
X157668Y104678D02*
X157934D01*
X157668Y104670D02*
X157934D01*
X157668Y104663D02*
X157934D01*
X157668Y104655D02*
X157934D01*
X157668Y104648D02*
X157934D01*
X157668Y104640D02*
X157934D01*
X157668Y104633D02*
X157934D01*
X157668Y104626D02*
X157934D01*
X157668Y104618D02*
X157934D01*
X157668Y104611D02*
X157934D01*
X157668Y104604D02*
X157934D01*
X157668Y104596D02*
X157934D01*
X157668Y104588D02*
X157934D01*
X157668Y104581D02*
X157934D01*
X157668Y104574D02*
X157934D01*
X157668Y104567D02*
X157934D01*
X157668Y104559D02*
X157934D01*
X157668Y104552D02*
X157934D01*
X157668Y104545D02*
X157934D01*
X157668Y104537D02*
X157934D01*
X157668Y104530D02*
X157934D01*
X157668Y104522D02*
X157934D01*
X157668Y104515D02*
X157934D01*
X157668Y104508D02*
X157934D01*
X157668Y104501D02*
X157934D01*
X157668Y104493D02*
X157934D01*
X157668Y104486D02*
X157934D01*
X157668Y104478D02*
X157934D01*
X157668Y104471D02*
X157934D01*
X157668Y104464D02*
X157934D01*
X157668Y104456D02*
X157934D01*
X157668Y104449D02*
X157934D01*
X157668Y104442D02*
X157934D01*
X157668Y104434D02*
X157934D01*
X157668Y104426D02*
X157934D01*
X157668Y104420D02*
X157934D01*
X157668Y104412D02*
X157934D01*
X157668Y104405D02*
X157934D01*
X157668Y104397D02*
X157934D01*
X157668Y104390D02*
X157934D01*
X157668Y104382D02*
X157934D01*
X157668Y104375D02*
X157934D01*
X157668Y104368D02*
X157934D01*
X157668Y104360D02*
X157934D01*
X157668Y104353D02*
X157934D01*
X157668Y104346D02*
X157934D01*
X157668Y104338D02*
X157934D01*
X157668Y104330D02*
X157934D01*
X157668Y104323D02*
X157934D01*
X157668Y104316D02*
X157934D01*
X157668Y104309D02*
X157934D01*
X157668Y104301D02*
X157934D01*
X157668Y104294D02*
X157934D01*
X157668Y104287D02*
X157934D01*
X157668Y104279D02*
X157934D01*
X157668Y104272D02*
X157934D01*
X157668Y104264D02*
X157934D01*
X157668Y104257D02*
X157934D01*
X157668Y104250D02*
X157934D01*
X157668Y104242D02*
X157934D01*
X157668Y104235D02*
X157934D01*
X157668Y104227D02*
X157934D01*
X157668Y104220D02*
X157934D01*
X157668Y104213D02*
X157934D01*
X157668Y104205D02*
X157934D01*
X157668Y104198D02*
X157934D01*
X157668Y104191D02*
X157934D01*
X157668Y104183D02*
X157934D01*
X157668Y104176D02*
X157934D01*
X157668Y104168D02*
X157934D01*
X157668Y104161D02*
X157934D01*
X157668Y104154D02*
X157934D01*
X157668Y104147D02*
X157934D01*
X157668Y104139D02*
X157934D01*
X157668Y104132D02*
X157934D01*
X157668Y104125D02*
X157934D01*
X157668Y104117D02*
X157934D01*
X157668Y104110D02*
X157934D01*
X157668Y104102D02*
X157934D01*
X157668Y104095D02*
X157934D01*
X157668Y104088D02*
X157934D01*
X157668Y104080D02*
X157934D01*
X157668Y104073D02*
X157934D01*
X157668Y104066D02*
X157934D01*
X157668Y104058D02*
X157934D01*
X157668Y104051D02*
X157934D01*
X157668Y104043D02*
X157934D01*
X157668Y104036D02*
X157934D01*
X157668Y104029D02*
X157934D01*
X157668Y104021D02*
X157934D01*
X157668Y104014D02*
X157934D01*
X157668Y104006D02*
X157934D01*
X157668Y103999D02*
X157934D01*
X157668Y103992D02*
X157934D01*
X157668Y103984D02*
X157934D01*
X157668Y103977D02*
X157934D01*
X157668Y103969D02*
X157934D01*
X157668Y103962D02*
X157934D01*
X157668Y103955D02*
X157934D01*
X157668Y103947D02*
X157934D01*
X157668Y103940D02*
X157934D01*
X157668Y103933D02*
X157934D01*
X157668Y103925D02*
X157934D01*
X157668Y103918D02*
X157934D01*
X157668Y103910D02*
X157934D01*
X157668Y103903D02*
X157934D01*
X157668Y103896D02*
X157934D01*
X157668Y103889D02*
X157934D01*
X157668Y103881D02*
X157934D01*
X157668Y103873D02*
X157934D01*
X158789Y102679D02*
X158899D01*
X159143D02*
X159247D01*
X159556D02*
X159711D01*
X160087D02*
X160190D01*
X160448D02*
X160728D01*
X160994D02*
X161148D01*
X161452D02*
X161562D01*
X161724D02*
X161835D01*
X162373D02*
X162558D01*
X162845D02*
X163000D01*
X163309D02*
X163413D01*
X163583D02*
X163693D01*
X163966D02*
X164069D01*
X164349D02*
X164453D01*
X164600D02*
X164719D01*
X164976D02*
X165131D01*
X165441D02*
X165706D01*
X159585Y102671D02*
X159681D01*
X161024D02*
X161120D01*
X162402D02*
X162521D01*
X162875D02*
X162971D01*
X165006D02*
X165101D01*
X162138Y109109D02*
X162255D01*
X162100Y109102D02*
X162300D01*
X162071Y109095D02*
X162328D01*
X162048Y109087D02*
X162351D01*
X162026Y109080D02*
X162373D01*
X162012Y109073D02*
X162388D01*
X161997Y109065D02*
X162402D01*
X161982Y109058D02*
X162417D01*
X161968Y109050D02*
X162425D01*
X161960Y109043D02*
X162440D01*
X161946Y109036D02*
X162454D01*
X161938Y109029D02*
X162462D01*
X161924Y109021D02*
X162469D01*
X161916Y109013D02*
X162484D01*
X161908Y109006D02*
X162492D01*
X161901Y108999D02*
X162498D01*
X161894Y108991D02*
X162506D01*
X161886Y108984D02*
X162513D01*
X161880Y108977D02*
X162521D01*
X161872Y108969D02*
X162528D01*
X161864Y108962D02*
X162196D01*
X162204D02*
X162535D01*
X161857Y108954D02*
X162189D01*
X162204D02*
X162543D01*
X161850Y108947D02*
X162189D01*
X162211D02*
X162543D01*
X161850Y108939D02*
X162182D01*
X162218D02*
X162550D01*
X161842Y108933D02*
X162182D01*
X162218D02*
X162558D01*
X161835Y108925D02*
X162174D01*
X162226D02*
X162565D01*
X161828Y108917D02*
X162167D01*
X162226D02*
X162565D01*
X161828Y108911D02*
X162167D01*
X162234D02*
X162572D01*
X161820Y108903D02*
X162159D01*
X162234D02*
X162580D01*
X161820Y108895D02*
X162159D01*
X162240D02*
X162580D01*
X161813Y108888D02*
X162152D01*
X162248D02*
X162587D01*
X161806Y108881D02*
X162152D01*
X162248D02*
X162587D01*
X161806Y108873D02*
X162144D01*
X162255D02*
X162595D01*
X161798Y108866D02*
X162138D01*
X162255D02*
X162595D01*
X161798Y108859D02*
X162138D01*
X162262D02*
X162602D01*
X161798Y108851D02*
X162130D01*
X162270D02*
X162602D01*
X161790Y108844D02*
X162130D01*
X162270D02*
X162609D01*
X161790Y108837D02*
X162122D01*
X162277D02*
X162609D01*
X161784Y108829D02*
X162122D01*
X162277D02*
X162609D01*
X161784Y108822D02*
X162115D01*
X162284D02*
X162617D01*
X161784Y108815D02*
X162108D01*
X162284D02*
X162617D01*
X161776Y108807D02*
X162108D01*
X162292D02*
X162617D01*
X161776Y108800D02*
X162100D01*
X162300D02*
X162624D01*
X161776Y108792D02*
X162100D01*
X162300D02*
X162624D01*
X161768Y108785D02*
X162093D01*
X162306D02*
X162624D01*
X161768Y108778D02*
X162093D01*
X162306D02*
X162631D01*
X161768Y108770D02*
X162086D01*
X162314D02*
X162631D01*
X161768Y108763D02*
X162078D01*
X162314D02*
X162631D01*
X161768Y108755D02*
X162078D01*
X162322D02*
X162631D01*
X161762Y108748D02*
X162071D01*
X162328D02*
X162631D01*
X161762Y108741D02*
X162071D01*
X162328D02*
X162639D01*
X161762Y108733D02*
X162064D01*
X162336D02*
X162639D01*
X161762Y108726D02*
X162056D01*
X162152D02*
X162159D01*
X162240D02*
X162248D01*
X162336D02*
X162639D01*
X161762Y108719D02*
X162056D01*
X162144D02*
X162159D01*
X162240D02*
X162255D01*
X162344D02*
X162639D01*
X161762Y108711D02*
X162048D01*
X162138D02*
X162159D01*
X162240D02*
X162255D01*
X162351D02*
X162639D01*
X161762Y108704D02*
X162048D01*
X162138D02*
X162159D01*
X162240D02*
X162262D01*
X162351D02*
X162639D01*
X161762Y108697D02*
X162042D01*
X162130D02*
X162159D01*
X162240D02*
X162270D01*
X162358D02*
X162639D01*
X161762Y108689D02*
X162042D01*
X162130D02*
X162159D01*
X162240D02*
X162270D01*
X162358D02*
X162639D01*
X161762Y108682D02*
X162034D01*
X162122D02*
X162159D01*
X162240D02*
X162277D01*
X162366D02*
X162639D01*
X161762Y108675D02*
X162026D01*
X162122D02*
X162159D01*
X162240D02*
X162277D01*
X162366D02*
X162639D01*
X161762Y108667D02*
X162026D01*
X162115D02*
X162159D01*
X162240D02*
X162284D01*
X162373D02*
X162639D01*
X161762Y108659D02*
X162019D01*
X162108D02*
X162159D01*
X162240D02*
X162284D01*
X162380D02*
X162639D01*
X161762Y108653D02*
X162019D01*
X162108D02*
X162159D01*
X162240D02*
X162292D01*
X162380D02*
X162639D01*
X161762Y108645D02*
X162012D01*
X162100D02*
X162159D01*
X162240D02*
X162300D01*
X162388D02*
X162639D01*
X161762Y108637D02*
X162012D01*
X162100D02*
X162159D01*
X162240D02*
X162300D01*
X162388D02*
X162639D01*
X161762Y108630D02*
X162004D01*
X162093D02*
X162159D01*
X162240D02*
X162306D01*
X162396D02*
X162639D01*
X161762Y108623D02*
X161997D01*
X162093D02*
X162159D01*
X162240D02*
X162306D01*
X162396D02*
X162639D01*
X161762Y108615D02*
X161997D01*
X162086D02*
X162159D01*
X162240D02*
X162314D01*
X162402D02*
X162639D01*
X161762Y108608D02*
X161990D01*
X162078D02*
X162159D01*
X162240D02*
X162314D01*
X162410D02*
X162639D01*
X161762Y108601D02*
X161990D01*
X162078D02*
X162159D01*
X162240D02*
X162322D01*
X162410D02*
X162639D01*
X161762Y108593D02*
X161982D01*
X162071D02*
X162159D01*
X162240D02*
X162328D01*
X162417D02*
X162631D01*
X161768Y108585D02*
X161982D01*
X162071D02*
X162159D01*
X162240D02*
X162328D01*
X162417D02*
X162631D01*
X161768Y108579D02*
X161974D01*
X162064D02*
X162159D01*
X162240D02*
X162336D01*
X162425D02*
X162631D01*
X161768Y108571D02*
X161968D01*
X162056D02*
X162159D01*
X162240D02*
X162336D01*
X162425D02*
X162631D01*
X161768Y108563D02*
X161968D01*
X162056D02*
X162159D01*
X162240D02*
X162344D01*
X162432D02*
X162631D01*
X161776Y108557D02*
X161960D01*
X162048D02*
X162159D01*
X162240D02*
X162351D01*
X162440D02*
X162624D01*
X161776Y108549D02*
X161960D01*
X162048D02*
X162159D01*
X162240D02*
X162351D01*
X162440D02*
X162624D01*
X161776Y108541D02*
X161952D01*
X162042D02*
X162159D01*
X162240D02*
X162358D01*
X162447D02*
X162624D01*
X161776Y108534D02*
X161946D01*
X162042D02*
X162159D01*
X162240D02*
X162358D01*
X162447D02*
X162617D01*
X161784Y108527D02*
X161946D01*
X162034D02*
X162159D01*
X162240D02*
X162366D01*
X162454D02*
X162617D01*
X161784Y108519D02*
X161938D01*
X162026D02*
X162159D01*
X162240D02*
X162366D01*
X162462D02*
X162617D01*
X161784Y108512D02*
X161938D01*
X162026D02*
X162159D01*
X162240D02*
X162373D01*
X162462D02*
X162609D01*
X161790Y108505D02*
X161930D01*
X162019D02*
X162159D01*
X162240D02*
X162380D01*
X162469D02*
X162609D01*
X161790Y108497D02*
X161930D01*
X162019D02*
X162159D01*
X162240D02*
X162380D01*
X162469D02*
X162609D01*
X161798Y108491D02*
X161924D01*
X162012D02*
X162159D01*
X162240D02*
X162388D01*
X162476D02*
X162602D01*
X161798Y108483D02*
X161916D01*
X162012D02*
X162159D01*
X162240D02*
X162388D01*
X162476D02*
X162602D01*
X161806Y108475D02*
X161916D01*
X162004D02*
X162159D01*
X162240D02*
X162396D01*
X162484D02*
X162595D01*
X161806Y108468D02*
X161908D01*
X161997D02*
X162159D01*
X162240D02*
X162396D01*
X162492D02*
X162595D01*
X161813Y108461D02*
X161908D01*
X161997D02*
X162159D01*
X162240D02*
X162402D01*
X162492D02*
X162587D01*
X161813Y108453D02*
X161901D01*
X161990D02*
X162159D01*
X162240D02*
X162410D01*
X162498D02*
X162587D01*
X161820Y108446D02*
X161901D01*
X161990D02*
X162159D01*
X162240D02*
X162410D01*
X162498D02*
X162580D01*
X161820Y108439D02*
X161894D01*
X161982D02*
X162159D01*
X162240D02*
X162417D01*
X162506D02*
X162572D01*
X161828Y108431D02*
X161886D01*
X161982D02*
X162159D01*
X162240D02*
X162417D01*
X162506D02*
X162572D01*
X161835Y108424D02*
X161886D01*
X161974D02*
X162159D01*
X162240D02*
X162425D01*
X162513D02*
X162565D01*
X161835Y108417D02*
X161880D01*
X161968D02*
X162159D01*
X162240D02*
X162425D01*
X162521D02*
X162558D01*
X161842Y108409D02*
X161880D01*
X161968D02*
X162159D01*
X162240D02*
X162432D01*
X162521D02*
X162558D01*
X161850Y108401D02*
X161872D01*
X161960D02*
X162159D01*
X162240D02*
X162440D01*
X162528D02*
X162550D01*
X161857Y108395D02*
X161864D01*
X161960D02*
X162159D01*
X162240D02*
X162440D01*
X162528D02*
X162543D01*
X161952Y108387D02*
X162159D01*
X162240D02*
X162447D01*
X161946Y108379D02*
X162159D01*
X162240D02*
X162447D01*
X161946Y108372D02*
X162159D01*
X162240D02*
X162454D01*
X161938Y108365D02*
X162159D01*
X162240D02*
X162462D01*
X161938Y108357D02*
X162159D01*
X162240D02*
X162462D01*
X161930Y108350D02*
X162159D01*
X162240D02*
X162469D01*
X161930Y108343D02*
X162159D01*
X162240D02*
X162469D01*
X161924Y108335D02*
X162159D01*
X162240D02*
X162476D01*
X161916Y108327D02*
X162159D01*
X162240D02*
X162476D01*
X161916Y108321D02*
X162159D01*
X162240D02*
X162484D01*
X161908Y108313D02*
X162159D01*
X162240D02*
X162492D01*
X161908Y108305D02*
X162159D01*
X162240D02*
X162492D01*
X161901Y108299D02*
X162159D01*
X162240D02*
X162498D01*
X161901Y108291D02*
X162159D01*
X162240D02*
X162498D01*
X161894Y108283D02*
X162159D01*
X162240D02*
X162506D01*
X161886Y108276D02*
X162159D01*
X162240D02*
X162506D01*
X161886Y108269D02*
X162159D01*
X162240D02*
X162513D01*
X161880Y108261D02*
X162159D01*
X162240D02*
X162521D01*
X161880Y108254D02*
X162159D01*
X162240D02*
X162521D01*
X161872Y108247D02*
X162159D01*
X162240D02*
X162528D01*
X161864Y108239D02*
X162159D01*
X162240D02*
X162528D01*
X161864Y108231D02*
X162159D01*
X162240D02*
X162535D01*
X161857Y108225D02*
X162159D01*
X162240D02*
X162535D01*
X161857Y108217D02*
X162159D01*
X162240D02*
X162543D01*
X161850Y108209D02*
X162159D01*
X162240D02*
X162550D01*
X161850Y108203D02*
X162159D01*
X162240D02*
X162550D01*
X161842Y108195D02*
X162159D01*
X162240D02*
X162558D01*
X161835Y108187D02*
X162159D01*
X162240D02*
X162558D01*
X161835Y108181D02*
X162159D01*
X162240D02*
X162565D01*
X161828Y108173D02*
X162159D01*
X162240D02*
X162572D01*
X161828Y108165D02*
X162159D01*
X162240D02*
X162572D01*
X161820Y108158D02*
X162159D01*
X162240D02*
X162580D01*
X161820Y108151D02*
X162159D01*
X162240D02*
X162580D01*
X161813Y108143D02*
X162159D01*
X162240D02*
X162587D01*
X161806Y108135D02*
X162159D01*
X162240D02*
X162587D01*
X161806Y108129D02*
X162159D01*
X162240D02*
X162595D01*
X161798Y108121D02*
X162159D01*
X162240D02*
X162602D01*
X161798Y108113D02*
X162159D01*
X162240D02*
X162602D01*
X161790Y108107D02*
X162159D01*
X162240D02*
X162609D01*
X161790Y108099D02*
X162159D01*
X162240D02*
X162609D01*
X161784Y108091D02*
X162159D01*
X162240D02*
X162617D01*
X161776Y108085D02*
X162159D01*
X162240D02*
X162617D01*
X161776Y108077D02*
X162159D01*
X162240D02*
X162624D01*
X161768Y108069D02*
X162159D01*
X162240D02*
X162631D01*
X161768Y108063D02*
X162159D01*
X162240D02*
X162631D01*
X161762Y108055D02*
X162159D01*
X162240D02*
X162639D01*
X161754Y108047D02*
X162159D01*
X162240D02*
X162639D01*
X161754Y108041D02*
X162159D01*
X162240D02*
X162646D01*
X161746Y108033D02*
X162159D01*
X162240D02*
X162646D01*
X161746Y108025D02*
X162159D01*
X162240D02*
X162654D01*
X161739Y108018D02*
X162159D01*
X162240D02*
X162661D01*
X161739Y108011D02*
X162159D01*
X162240D02*
X162661D01*
X161732Y108003D02*
X162159D01*
X162240D02*
X162668D01*
X161724Y107996D02*
X162159D01*
X162240D02*
X162668D01*
X161724Y107989D02*
X162159D01*
X162240D02*
X162676D01*
X161716Y107981D02*
X162159D01*
X162240D02*
X162683D01*
X161716Y107973D02*
X162159D01*
X162240D02*
X162683D01*
X161710Y107967D02*
X162159D01*
X162240D02*
X162690D01*
X161710Y107959D02*
X162159D01*
X162240D02*
X162690D01*
X161702Y107951D02*
X162159D01*
X162240D02*
X162698D01*
X161694Y107945D02*
X162159D01*
X162240D02*
X162698D01*
X161694Y107937D02*
X162159D01*
X162240D02*
X162705D01*
X161688Y107929D02*
X162159D01*
X162240D02*
X162712D01*
X161688Y107923D02*
X162159D01*
X162240D02*
X162712D01*
X161680Y107915D02*
X162159D01*
X162240D02*
X162720D01*
X161680Y107907D02*
X162159D01*
X162240D02*
X162720D01*
X161672Y107900D02*
X162159D01*
X162240D02*
X162727D01*
X161666Y107893D02*
X162159D01*
X162240D02*
X162727D01*
X161666Y107885D02*
X162159D01*
X162240D02*
X162734D01*
X161658Y107877D02*
X162159D01*
X162240D02*
X162742D01*
X161658Y107871D02*
X162159D01*
X162240D02*
X162742D01*
X161650Y107863D02*
X162159D01*
X162240D02*
X162750D01*
X161643Y107855D02*
X162159D01*
X162240D02*
X162750D01*
X161643Y107849D02*
X162159D01*
X162240D02*
X162756D01*
X161636Y107841D02*
X162159D01*
X162240D02*
X162764D01*
X161636Y107833D02*
X162159D01*
X162240D02*
X162764D01*
X161628Y107827D02*
X162159D01*
X162240D02*
X162771D01*
X161628Y107819D02*
X162159D01*
X162240D02*
X162771D01*
X161621Y107811D02*
X162159D01*
X162240D02*
X162779D01*
X161614Y107804D02*
X162159D01*
X162240D02*
X162779D01*
X161614Y107797D02*
X162159D01*
X162240D02*
X162786D01*
X161606Y107789D02*
X162159D01*
X162240D02*
X162793D01*
X161606Y107782D02*
X162159D01*
X162240D02*
X162793D01*
X161598Y107775D02*
X162159D01*
X162240D02*
X162801D01*
X161598Y107767D02*
X162159D01*
X162240D02*
X162801D01*
X161592Y107759D02*
X162159D01*
X162240D02*
X162808D01*
X161584Y107753D02*
X162159D01*
X162240D02*
X162808D01*
X161584Y107745D02*
X162159D01*
X162240D02*
X162816D01*
X161576Y107737D02*
X162159D01*
X162240D02*
X162823D01*
X161576Y107731D02*
X162159D01*
X162240D02*
X162823D01*
X161570Y107723D02*
X162159D01*
X162240D02*
X162830D01*
X161562Y107715D02*
X162159D01*
X162240D02*
X162830D01*
X161562Y107709D02*
X162159D01*
X162240D02*
X162838D01*
X161554Y107701D02*
X162159D01*
X162240D02*
X162838D01*
X161554Y107693D02*
X162159D01*
X162240D02*
X162845D01*
X161547Y107687D02*
X162159D01*
X162240D02*
X162853D01*
X161547Y107679D02*
X162159D01*
X162240D02*
X162853D01*
X161540Y107671D02*
X162159D01*
X162240D02*
X162860D01*
X161532Y107665D02*
X162159D01*
X162240D02*
X162860D01*
X161532Y107657D02*
X162159D01*
X162240D02*
X162867D01*
X161525Y107649D02*
X162159D01*
X162240D02*
X162875D01*
X161525Y107642D02*
X162159D01*
X162240D02*
X162875D01*
X161518Y107635D02*
X162159D01*
X162240D02*
X162882D01*
X161518Y107627D02*
X162159D01*
X162240D02*
X162882D01*
X161510Y107620D02*
X162159D01*
X162240D02*
X162889D01*
X161502Y107613D02*
X162159D01*
X162240D02*
X162889D01*
X161502Y107605D02*
X162159D01*
X162240D02*
X162897D01*
X161496Y107597D02*
X162159D01*
X162240D02*
X162904D01*
X161496Y107591D02*
X162144D01*
X162255D02*
X162904D01*
X161488Y107583D02*
X162130D01*
X162270D02*
X162912D01*
X161488Y107575D02*
X162115D01*
X162277D02*
X162912D01*
X161480Y107569D02*
X162108D01*
X162292D02*
X162919D01*
X161474Y107561D02*
X162093D01*
X162306D02*
X162919D01*
X161474Y107553D02*
X162078D01*
X162322D02*
X162926D01*
X161466Y107546D02*
X162064D01*
X162328D02*
X162934D01*
X161466Y107539D02*
X162056D01*
X162344D02*
X162934D01*
X161458Y107531D02*
X162042D01*
X162358D02*
X162941D01*
X161452Y107524D02*
X162026D01*
X162182D02*
X162218D01*
X162373D02*
X162941D01*
X161452Y107517D02*
X162019D01*
X162174D02*
X162226D01*
X162380D02*
X162949D01*
X161444Y107509D02*
X162004D01*
X162159D02*
X162240D01*
X162396D02*
X162949D01*
X161444Y107501D02*
X161990D01*
X162144D02*
X162255D01*
X162410D02*
X162955D01*
X161436Y107495D02*
X161974D01*
X162130D02*
X162270D01*
X162425D02*
X162963D01*
X161436Y107487D02*
X161968D01*
X162122D02*
X162277D01*
X162432D02*
X162963D01*
X161430Y107479D02*
X161952D01*
X162108D02*
X162292D01*
X162447D02*
X162971D01*
X161422Y107473D02*
X161938D01*
X162093D02*
X162306D01*
X162462D02*
X162971D01*
X161171Y107465D02*
X161326D01*
X161422D02*
X161924D01*
X162078D02*
X162314D01*
X162469D02*
X162978D01*
X163074D02*
X163229D01*
X161134Y107457D02*
X161326D01*
X161414D02*
X161916D01*
X162071D02*
X162328D01*
X162484D02*
X162985D01*
X163074D02*
X163265D01*
X161112Y107450D02*
X161326D01*
X161414D02*
X161901D01*
X162056D02*
X162344D01*
X162498D02*
X162985D01*
X163074D02*
X163287D01*
X161090Y107443D02*
X161318D01*
X161408D02*
X161886D01*
X162042D02*
X162358D01*
X162513D02*
X162993D01*
X163081D02*
X163309D01*
X161076Y107435D02*
X161312D01*
X161408D02*
X161872D01*
X162026D02*
X162366D01*
X162521D02*
X162993D01*
X163081D02*
X163325D01*
X161054Y107428D02*
X161312D01*
X161400D02*
X161864D01*
X162019D02*
X162380D01*
X162535D02*
X163000D01*
X163088D02*
X163339D01*
X161046Y107421D02*
X161304D01*
X161392D02*
X161850D01*
X162004D02*
X162396D01*
X162550D02*
X163000D01*
X163096D02*
X163354D01*
X161032Y107413D02*
X161304D01*
X161392D02*
X161835D01*
X161990D02*
X162410D01*
X162565D02*
X163007D01*
X163096D02*
X163369D01*
X161016Y107405D02*
X161296D01*
X161385D02*
X161828D01*
X161982D02*
X162417D01*
X162572D02*
X163015D01*
X163103D02*
X163383D01*
X161009Y107399D02*
X161296D01*
X161385D02*
X161813D01*
X161968D02*
X162432D01*
X162587D02*
X163015D01*
X163103D02*
X163391D01*
X160994Y107391D02*
X161289D01*
X161378D02*
X161798D01*
X161952D02*
X162447D01*
X162602D02*
X163022D01*
X163110D02*
X163405D01*
X160986Y107383D02*
X161282D01*
X161378D02*
X161784D01*
X161938D02*
X162454D01*
X162609D02*
X163022D01*
X163110D02*
X163413D01*
X160972Y107377D02*
X161282D01*
X161370D02*
X161776D01*
X161930D02*
X162469D01*
X162624D02*
X163029D01*
X163118D02*
X163421D01*
X160964Y107369D02*
X161274D01*
X161363D02*
X161762D01*
X161916D02*
X162484D01*
X162639D02*
X163029D01*
X163125D02*
X163435D01*
X160958Y107362D02*
X161274D01*
X161363D02*
X161746D01*
X161901D02*
X162498D01*
X162654D02*
X163037D01*
X163125D02*
X163443D01*
X160950Y107354D02*
X161267D01*
X161356D02*
X161732D01*
X161886D02*
X162506D01*
X162661D02*
X163044D01*
X163133D02*
X163450D01*
X160942Y107347D02*
X161260D01*
X161356D02*
X161724D01*
X161880D02*
X162521D01*
X162676D02*
X163044D01*
X163133D02*
X163457D01*
X160935Y107339D02*
X161260D01*
X161348D02*
X161710D01*
X161864D02*
X162535D01*
X162690D02*
X163051D01*
X163140D02*
X163465D01*
X160928Y107332D02*
X161252D01*
X161340D02*
X161694D01*
X161850D02*
X162550D01*
X162705D02*
X163051D01*
X163140D02*
X163471D01*
X160920Y107325D02*
X161252D01*
X161340D02*
X161680D01*
X161835D02*
X162558D01*
X162712D02*
X163059D01*
X163147D02*
X163479D01*
X160913Y107317D02*
X161244D01*
X161334D02*
X161672D01*
X161828D02*
X162572D01*
X162727D02*
X163066D01*
X163155D02*
X163487D01*
X160906Y107310D02*
X161244D01*
X161334D02*
X161658D01*
X161813D02*
X162587D01*
X162742D02*
X163066D01*
X163155D02*
X163487D01*
X160906Y107303D02*
X161238D01*
X161326D02*
X161643D01*
X161798D02*
X162602D01*
X162756D02*
X163074D01*
X163162D02*
X163494D01*
X160898Y107295D02*
X161230D01*
X161326D02*
X161636D01*
X161790D02*
X162609D01*
X162764D02*
X163074D01*
X163162D02*
X163501D01*
X160891Y107287D02*
X161230D01*
X161318D02*
X161621D01*
X161776D02*
X162624D01*
X162779D02*
X163081D01*
X163170D02*
X163509D01*
X160884Y107281D02*
X161222D01*
X161312D02*
X161606D01*
X161762D02*
X162639D01*
X162793D02*
X163081D01*
X163177D02*
X163509D01*
X160884Y107273D02*
X161222D01*
X161312D02*
X161592D01*
X161746D02*
X162646D01*
X162801D02*
X163088D01*
X163177D02*
X163516D01*
X160876Y107266D02*
X161216D01*
X161304D02*
X161584D01*
X161739D02*
X162661D01*
X162816D02*
X163096D01*
X163184D02*
X163523D01*
X160868Y107259D02*
X161216D01*
X161304D02*
X161570D01*
X161724D02*
X162676D01*
X162830D02*
X163096D01*
X163184D02*
X163523D01*
X160868Y107251D02*
X161208D01*
X161296D02*
X161554D01*
X161710D02*
X162690D01*
X162845D02*
X163103D01*
X163192D02*
X163531D01*
X160862Y107243D02*
X161200D01*
X161296D02*
X161540D01*
X161694D02*
X162698D01*
X162853D02*
X163103D01*
X163192D02*
X163531D01*
X160862Y107237D02*
X161200D01*
X161289D02*
X161532D01*
X161688D02*
X162712D01*
X162867D02*
X163110D01*
X163199D02*
X163538D01*
X160854Y107229D02*
X161193D01*
X161282D02*
X161518D01*
X161672D02*
X162727D01*
X162882D02*
X163110D01*
X163207D02*
X163546D01*
X160854Y107221D02*
X161193D01*
X161282D02*
X161502D01*
X161658D02*
X162742D01*
X162897D02*
X163118D01*
X163207D02*
X163546D01*
X160847Y107215D02*
X161186D01*
X161274D02*
X161488D01*
X161643D02*
X162750D01*
X162904D02*
X163125D01*
X163213D02*
X163546D01*
X160847Y107207D02*
X161186D01*
X161274D02*
X161480D01*
X161636D02*
X162764D01*
X162919D02*
X163125D01*
X163213D02*
X163553D01*
X160839Y107199D02*
X161178D01*
X161267D02*
X161466D01*
X161621D02*
X162779D01*
X162934D02*
X163133D01*
X163221D02*
X163553D01*
X160839Y107192D02*
X161171D01*
X161267D02*
X161452D01*
X161606D02*
X162793D01*
X162949D02*
X163133D01*
X163221D02*
X163561D01*
X160839Y107185D02*
X161171D01*
X161260D02*
X161444D01*
X161598D02*
X162801D01*
X162955D02*
X163140D01*
X163229D02*
X163561D01*
X160832Y107177D02*
X161164D01*
X161252D02*
X161430D01*
X161584D02*
X162816D01*
X162971D02*
X163140D01*
X163236D02*
X163561D01*
X160832Y107170D02*
X161164D01*
X161252D02*
X161414D01*
X161570D02*
X162830D01*
X162985D02*
X163147D01*
X163236D02*
X163567D01*
X160832Y107163D02*
X161156D01*
X161244D02*
X161400D01*
X161554D02*
X162838D01*
X162993D02*
X163155D01*
X163243D02*
X163567D01*
X160824Y107155D02*
X161148D01*
X161244D02*
X161392D01*
X161547D02*
X162853D01*
X163007D02*
X163155D01*
X163243D02*
X163567D01*
X160824Y107147D02*
X161148D01*
X161238D02*
X161378D01*
X161532D02*
X162867D01*
X163022D02*
X163162D01*
X163251D02*
X163575D01*
X160824Y107141D02*
X161142D01*
X161230D02*
X161363D01*
X161518D02*
X162882D01*
X163037D02*
X163162D01*
X163251D02*
X163575D01*
X160824Y107133D02*
X161142D01*
X161230D02*
X161348D01*
X161502D02*
X162889D01*
X163044D02*
X163170D01*
X163258D02*
X163575D01*
X160817Y107125D02*
X161134D01*
X161222D02*
X161340D01*
X161496D02*
X162904D01*
X163059D02*
X163177D01*
X163265D02*
X163575D01*
X160817Y107119D02*
X161134D01*
X161222D02*
X161326D01*
X161480D02*
X162919D01*
X163074D02*
X163177D01*
X163265D02*
X163583D01*
X160817Y107111D02*
X161126D01*
X161216D02*
X161312D01*
X161466D02*
X162934D01*
X163088D02*
X163184D01*
X163273D02*
X163583D01*
X160817Y107104D02*
X161120D01*
X161216D02*
X161304D01*
X161458D02*
X162941D01*
X163096D02*
X163184D01*
X163273D02*
X163583D01*
X160817Y107096D02*
X161120D01*
X161208D02*
X161289D01*
X161444D02*
X162955D01*
X163110D02*
X163192D01*
X163280D02*
X163583D01*
X160817Y107089D02*
X161112D01*
X161200D02*
X161274D01*
X161430D02*
X162971D01*
X163125D02*
X163192D01*
X163287D02*
X163583D01*
X160810Y107081D02*
X161112D01*
X161200D02*
X161260D01*
X161414D02*
X162985D01*
X163140D02*
X163199D01*
X163287D02*
X163583D01*
X160810Y107074D02*
X161105D01*
X161193D02*
X161252D01*
X161408D02*
X162993D01*
X163147D02*
X163207D01*
X163295D02*
X163583D01*
X160810Y107067D02*
X161105D01*
X161193D02*
X161238D01*
X161392D02*
X163007D01*
X163162D02*
X163207D01*
X163295D02*
X163590D01*
X160810Y107059D02*
X161098D01*
X161186D02*
X161222D01*
X161378D02*
X163022D01*
X163177D02*
X163213D01*
X163303D02*
X163590D01*
X160810Y107052D02*
X161090D01*
X161186D02*
X161208D01*
X161363D02*
X163029D01*
X163184D02*
X163213D01*
X163303D02*
X163590D01*
X160810Y107045D02*
X161090D01*
X161178D02*
X161200D01*
X161356D02*
X163044D01*
X163199D02*
X163221D01*
X163309D02*
X163590D01*
X160810Y107037D02*
X161082D01*
X161340D02*
X163059D01*
X163317D02*
X163590D01*
X160810Y107029D02*
X161082D01*
X161326D02*
X163074D01*
X163317D02*
X163590D01*
X160810Y107022D02*
X161076D01*
X161312D02*
X163081D01*
X163325D02*
X163590D01*
X160810Y107015D02*
X161076D01*
X161304D02*
X163096D01*
X163325D02*
X163590D01*
X160810Y107008D02*
X161068D01*
X161289D02*
X163110D01*
X163332D02*
X163590D01*
X160810Y107000D02*
X161060D01*
X161274D02*
X163125D01*
X163332D02*
X163590D01*
X160810Y106993D02*
X161060D01*
X161267D02*
X163133D01*
X163339D02*
X163590D01*
X160810Y106985D02*
X161054D01*
X161252D02*
X163147D01*
X163347D02*
X163583D01*
X160810Y106978D02*
X161054D01*
X161238D02*
X163162D01*
X163347D02*
X163583D01*
X160817Y106971D02*
X161046D01*
X161222D02*
X163170D01*
X163354D02*
X163583D01*
X160817Y106963D02*
X161038D01*
X161222D02*
X163177D01*
X163354D02*
X163583D01*
X160817Y106956D02*
X161038D01*
X163361D02*
X163583D01*
X160817Y106949D02*
X161032D01*
X163361D02*
X163583D01*
X160817Y106941D02*
X161032D01*
X163369D02*
X163583D01*
X160817Y106934D02*
X161024D01*
X163377D02*
X163575D01*
X160824Y106927D02*
X161024D01*
X163377D02*
X163575D01*
X160824Y106919D02*
X161016D01*
X163383D02*
X163575D01*
X160824Y106912D02*
X161009D01*
X163383D02*
X163575D01*
X160824Y106905D02*
X161009D01*
X163391D02*
X163567D01*
X160832Y106897D02*
X161002D01*
X163399D02*
X163567D01*
X160832Y106890D02*
X161002D01*
X163399D02*
X163567D01*
X160832Y106883D02*
X160994D01*
X163405D02*
X163561D01*
X160839Y106875D02*
X161666D01*
X162734D02*
X163561D01*
X160839Y106867D02*
X161666D01*
X162734D02*
X163561D01*
X160847Y106861D02*
X161658D01*
X162742D02*
X163553D01*
X160847Y106853D02*
X161658D01*
X162742D02*
X163553D01*
X160847Y106846D02*
X161650D01*
X162742D02*
X163546D01*
X160854Y106838D02*
X161650D01*
X162750D02*
X163546D01*
X160854Y106831D02*
X161643D01*
X162750D02*
X163538D01*
X160862Y106823D02*
X161643D01*
X162756D02*
X163538D01*
X160862Y106816D02*
X161636D01*
X162756D02*
X163531D01*
X160868Y106809D02*
X161636D01*
X162764D02*
X163531D01*
X160876Y106801D02*
X161628D01*
X162771D02*
X163523D01*
X160876Y106794D02*
X161628D01*
X162771D02*
X163523D01*
X160884Y106787D02*
X161621D01*
X162779D02*
X163516D01*
X160891Y106779D02*
X161614D01*
X162779D02*
X163509D01*
X160891Y106771D02*
X161614D01*
X162786D02*
X163509D01*
X160898Y106764D02*
X161606D01*
X162793D02*
X163501D01*
X160906Y106757D02*
X161598D01*
X162801D02*
X163494D01*
X160913Y106750D02*
X161592D01*
X162801D02*
X163487D01*
X160913Y106742D02*
X161584D01*
X162808D02*
X163479D01*
X160920Y106735D02*
X161584D01*
X162816D02*
X163479D01*
X160928Y106727D02*
X161576D01*
X162823D02*
X163471D01*
X160935Y106720D02*
X161570D01*
X162830D02*
X163465D01*
X160942Y106713D02*
X161562D01*
X162838D02*
X163457D01*
X160950Y106705D02*
X161554D01*
X162845D02*
X163450D01*
X160958Y106698D02*
X161547D01*
X162853D02*
X163435D01*
X160972Y106691D02*
X161532D01*
X162860D02*
X163428D01*
X160980Y106683D02*
X161525D01*
X162875D02*
X163421D01*
X160986Y106676D02*
X161518D01*
X162882D02*
X163413D01*
X160994Y106668D02*
X161502D01*
X162889D02*
X163399D01*
X161009Y106661D02*
X161496D01*
X162904D02*
X163391D01*
X161024Y106654D02*
X161480D01*
X162912D02*
X163377D01*
X161032Y106646D02*
X161474D01*
X162926D02*
X163369D01*
X161046Y106639D02*
X161458D01*
X162941D02*
X163354D01*
X161060Y106632D02*
X161444D01*
X162955D02*
X163339D01*
X161076Y106624D02*
X161430D01*
X162971D02*
X163317D01*
X161098Y106617D02*
X161408D01*
X162993D02*
X163303D01*
X161120Y106609D02*
X161385D01*
X163015D02*
X163280D01*
X161142Y106602D02*
X161363D01*
X163037D02*
X163251D01*
X161186Y106595D02*
X161318D01*
X163074D02*
X163213D01*
X166526Y106071D02*
X166664D01*
X166473Y106064D02*
X166716D01*
X166444Y106056D02*
X166746D01*
X158517Y106050D02*
X159069D01*
X159947D02*
X160213D01*
X160692D02*
X160942D01*
X161496D02*
X161762D01*
X162528D02*
X162793D01*
X163553D02*
X163804D01*
X164673D02*
X164925D01*
X165404D02*
X165677D01*
X166414D02*
X166769D01*
X158517Y106042D02*
X159143D01*
X159947D02*
X160213D01*
X160692D02*
X160950D01*
X161496D02*
X161762D01*
X162528D02*
X162793D01*
X163553D02*
X163811D01*
X164673D02*
X164925D01*
X165404D02*
X165677D01*
X166392D02*
X166790D01*
X158517Y106034D02*
X159187D01*
X159947D02*
X160213D01*
X160692D02*
X160950D01*
X161496D02*
X161762D01*
X162528D02*
X162793D01*
X163553D02*
X163811D01*
X164667D02*
X164925D01*
X165404D02*
X165677D01*
X166378D02*
X166812D01*
X158517Y106027D02*
X159217D01*
X159947D02*
X160213D01*
X160692D02*
X160950D01*
X161496D02*
X161762D01*
X162521D02*
X162793D01*
X163553D02*
X163811D01*
X164667D02*
X164925D01*
X165404D02*
X165677D01*
X166362D02*
X166828D01*
X158517Y106020D02*
X159239D01*
X159947D02*
X160213D01*
X160692D02*
X160958D01*
X161496D02*
X161762D01*
X162521D02*
X162793D01*
X163553D02*
X163819D01*
X164659D02*
X164925D01*
X165404D02*
X165677D01*
X166348D02*
X166842D01*
X158517Y106012D02*
X159261D01*
X159947D02*
X160213D01*
X160692D02*
X160958D01*
X161496D02*
X161762D01*
X162521D02*
X162801D01*
X163553D02*
X163819D01*
X164659D02*
X164925D01*
X165404D02*
X165677D01*
X166333D02*
X166857D01*
X158517Y106005D02*
X159275D01*
X159947D02*
X160213D01*
X160692D02*
X160964D01*
X161496D02*
X161762D01*
X162521D02*
X162801D01*
X163553D02*
X163819D01*
X164659D02*
X164925D01*
X165404D02*
X165677D01*
X166318D02*
X166864D01*
X158517Y105998D02*
X159291D01*
X159947D02*
X160213D01*
X160692D02*
X160964D01*
X161496D02*
X161762D01*
X162521D02*
X162801D01*
X163553D02*
X163825D01*
X164651D02*
X164925D01*
X165404D02*
X165677D01*
X166304D02*
X166879D01*
X158517Y105990D02*
X159305D01*
X159947D02*
X160213D01*
X160692D02*
X160964D01*
X161496D02*
X161762D01*
X162513D02*
X162801D01*
X163553D02*
X163825D01*
X164651D02*
X164925D01*
X165404D02*
X165677D01*
X166297D02*
X166886D01*
X158517Y105983D02*
X159320D01*
X159947D02*
X160213D01*
X160692D02*
X160972D01*
X161496D02*
X161762D01*
X162513D02*
X162808D01*
X163553D02*
X163825D01*
X164651D02*
X164925D01*
X165404D02*
X165677D01*
X166289D02*
X166902D01*
X158517Y105976D02*
X159335D01*
X159947D02*
X160213D01*
X160692D02*
X160972D01*
X161496D02*
X161762D01*
X162513D02*
X162808D01*
X163553D02*
X163833D01*
X164645D02*
X164925D01*
X165404D02*
X165677D01*
X166274D02*
X166908D01*
X158517Y105968D02*
X159343D01*
X159947D02*
X160213D01*
X160692D02*
X160972D01*
X161496D02*
X161762D01*
X162513D02*
X162808D01*
X163553D02*
X163833D01*
X164645D02*
X164925D01*
X165404D02*
X165677D01*
X166266D02*
X166916D01*
X158517Y105960D02*
X159349D01*
X159947D02*
X160213D01*
X160692D02*
X160980D01*
X161496D02*
X161762D01*
X162506D02*
X162808D01*
X163553D02*
X163841D01*
X164645D02*
X164925D01*
X165404D02*
X165677D01*
X166260D02*
X166924D01*
X158517Y105954D02*
X159365D01*
X159947D02*
X160213D01*
X160692D02*
X160980D01*
X161496D02*
X161762D01*
X162506D02*
X162816D01*
X163553D02*
X163841D01*
X164637D02*
X164925D01*
X165404D02*
X165677D01*
X166252D02*
X166931D01*
X158517Y105946D02*
X159372D01*
X159947D02*
X160213D01*
X160692D02*
X160986D01*
X161496D02*
X161762D01*
X162506D02*
X162816D01*
X163553D02*
X163841D01*
X164637D02*
X164925D01*
X165404D02*
X165677D01*
X166244D02*
X166938D01*
X158517Y105938D02*
X159379D01*
X159947D02*
X160213D01*
X160692D02*
X160986D01*
X161496D02*
X161762D01*
X162506D02*
X162816D01*
X163553D02*
X163848D01*
X164629D02*
X164925D01*
X165404D02*
X165677D01*
X166238D02*
X166945D01*
X158517Y105931D02*
X159387D01*
X159947D02*
X160213D01*
X160692D02*
X160986D01*
X161496D02*
X161762D01*
X162498D02*
X162816D01*
X163553D02*
X163848D01*
X164629D02*
X164925D01*
X165404D02*
X165677D01*
X166230D02*
X166953D01*
X158517Y105924D02*
X159394D01*
X159947D02*
X160213D01*
X160692D02*
X160994D01*
X161496D02*
X161762D01*
X162498D02*
X162816D01*
X163553D02*
X163848D01*
X164629D02*
X164925D01*
X165404D02*
X165677D01*
X166223D02*
X166960D01*
X158517Y105916D02*
X159401D01*
X159947D02*
X160213D01*
X160692D02*
X160994D01*
X161496D02*
X161762D01*
X162498D02*
X162823D01*
X163553D02*
X163855D01*
X164623D02*
X164925D01*
X165404D02*
X165677D01*
X166216D02*
X166967D01*
X158517Y105909D02*
X159409D01*
X159947D02*
X160213D01*
X160692D02*
X160994D01*
X161496D02*
X161762D01*
X162498D02*
X162823D01*
X163553D02*
X163855D01*
X164623D02*
X164925D01*
X165404D02*
X165677D01*
X166208D02*
X166975D01*
X158517Y105902D02*
X159416D01*
X159947D02*
X160213D01*
X160692D02*
X161002D01*
X161496D02*
X161762D01*
X162492D02*
X162823D01*
X163553D02*
X163855D01*
X164623D02*
X164925D01*
X165404D02*
X165677D01*
X166200D02*
X166982D01*
X158517Y105894D02*
X159416D01*
X159947D02*
X160213D01*
X160692D02*
X161002D01*
X161496D02*
X161762D01*
X162492D02*
X162823D01*
X163553D02*
X163863D01*
X164615D02*
X164925D01*
X165404D02*
X165677D01*
X166194D02*
X166990D01*
X158517Y105886D02*
X159423D01*
X159947D02*
X160213D01*
X160692D02*
X161009D01*
X161496D02*
X161762D01*
X162492D02*
X162830D01*
X163553D02*
X163863D01*
X164615D02*
X164925D01*
X165404D02*
X165677D01*
X166194D02*
X166990D01*
X158517Y105880D02*
X159431D01*
X159947D02*
X160213D01*
X160692D02*
X161009D01*
X161496D02*
X161762D01*
X162492D02*
X162830D01*
X163553D02*
X163870D01*
X164615D02*
X164925D01*
X165404D02*
X165677D01*
X166186D02*
X166998D01*
X158517Y105872D02*
X159439D01*
X159947D02*
X160213D01*
X160692D02*
X161009D01*
X161496D02*
X161762D01*
X162492D02*
X162830D01*
X163553D02*
X163870D01*
X164607D02*
X164925D01*
X165404D02*
X165677D01*
X166178D02*
X167004D01*
X158517Y105864D02*
X159439D01*
X159947D02*
X160213D01*
X160692D02*
X161016D01*
X161496D02*
X161762D01*
X162484D02*
X162830D01*
X163553D02*
X163870D01*
X164607D02*
X164925D01*
X165404D02*
X165677D01*
X166171D02*
X167004D01*
X158517Y105858D02*
X159445D01*
X159947D02*
X160213D01*
X160692D02*
X161016D01*
X161496D02*
X161762D01*
X162484D02*
X162838D01*
X163553D02*
X163877D01*
X164600D02*
X164925D01*
X165404D02*
X165677D01*
X166171D02*
X167012D01*
X158517Y105850D02*
X159445D01*
X159947D02*
X160213D01*
X160692D02*
X161024D01*
X161496D02*
X161762D01*
X162484D02*
X162838D01*
X163553D02*
X163877D01*
X164600D02*
X164925D01*
X165404D02*
X165677D01*
X166164D02*
X167012D01*
X158517Y105842D02*
X159453D01*
X159947D02*
X160213D01*
X160692D02*
X161024D01*
X161496D02*
X161762D01*
X162484D02*
X162838D01*
X163553D02*
X163877D01*
X164600D02*
X164925D01*
X165404D02*
X165677D01*
X166164D02*
X167020D01*
X158517Y105836D02*
X159453D01*
X159947D02*
X160213D01*
X160692D02*
X161024D01*
X161496D02*
X161762D01*
X162476D02*
X162838D01*
X163553D02*
X163885D01*
X164593D02*
X164925D01*
X165404D02*
X165677D01*
X166156D02*
X167026D01*
X158517Y105828D02*
X159460D01*
X159947D02*
X160213D01*
X160692D02*
X161032D01*
X161496D02*
X161762D01*
X162476D02*
X162845D01*
X163553D02*
X163885D01*
X164593D02*
X164925D01*
X165404D02*
X165677D01*
X166149D02*
X166547D01*
X166642D02*
X167026D01*
X158517Y105820D02*
X159460D01*
X159947D02*
X160213D01*
X160692D02*
X161032D01*
X161496D02*
X161762D01*
X162476D02*
X162845D01*
X163553D02*
X163885D01*
X164593D02*
X164925D01*
X165404D02*
X165677D01*
X166149D02*
X166518D01*
X166664D02*
X167033D01*
X158517Y105813D02*
X159467D01*
X159947D02*
X160213D01*
X160692D02*
X161032D01*
X161496D02*
X161762D01*
X162476D02*
X162845D01*
X163553D02*
X163892D01*
X164585D02*
X164925D01*
X165404D02*
X165677D01*
X166142D02*
X166496D01*
X166688D02*
X167033D01*
X158517Y105806D02*
X158789D01*
X159055D02*
X159467D01*
X159947D02*
X160213D01*
X160692D02*
X161038D01*
X161496D02*
X161762D01*
X162469D02*
X162845D01*
X163553D02*
X163892D01*
X164585D02*
X164925D01*
X165404D02*
X165677D01*
X166142D02*
X166480D01*
X166702D02*
X167033D01*
X158517Y105798D02*
X158789D01*
X159091D02*
X159475D01*
X159947D02*
X160213D01*
X160692D02*
X161038D01*
X161496D02*
X161762D01*
X162469D02*
X162845D01*
X163553D02*
X163899D01*
X164585D02*
X164925D01*
X165404D02*
X165677D01*
X166142D02*
X166473D01*
X166716D02*
X167041D01*
X158517Y105790D02*
X158789D01*
X159113D02*
X159475D01*
X159947D02*
X160213D01*
X160692D02*
X161046D01*
X161496D02*
X161762D01*
X162469D02*
X162853D01*
X163553D02*
X163899D01*
X164579D02*
X164925D01*
X165404D02*
X165677D01*
X166135D02*
X166459D01*
X166724D02*
X167041D01*
X158517Y105784D02*
X158789D01*
X159129D02*
X159482D01*
X159947D02*
X160213D01*
X160692D02*
X161046D01*
X161496D02*
X161762D01*
X162469D02*
X162853D01*
X163553D02*
X163899D01*
X164579D02*
X164925D01*
X165404D02*
X165677D01*
X166135D02*
X166452D01*
X166732D02*
X167048D01*
X158517Y105776D02*
X158789D01*
X159143D02*
X159482D01*
X159947D02*
X160213D01*
X160692D02*
X161046D01*
X161496D02*
X161762D01*
X162469D02*
X162853D01*
X163553D02*
X163907D01*
X164579D02*
X164925D01*
X165404D02*
X165677D01*
X166127D02*
X166444D01*
X166738D02*
X167048D01*
X158517Y105768D02*
X158789D01*
X159157D02*
X159482D01*
X159947D02*
X160213D01*
X160692D02*
X161054D01*
X161496D02*
X161762D01*
X162462D02*
X162853D01*
X163553D02*
X163907D01*
X164571D02*
X164925D01*
X165404D02*
X165677D01*
X166127D02*
X166436D01*
X166746D02*
X167056D01*
X158517Y105762D02*
X158789D01*
X159165D02*
X159489D01*
X159947D02*
X160213D01*
X160692D02*
X161054D01*
X161496D02*
X161762D01*
X162462D02*
X162860D01*
X163553D02*
X163907D01*
X164571D02*
X164925D01*
X165404D02*
X165677D01*
X166120D02*
X166430D01*
X166754D02*
X167056D01*
X158517Y105754D02*
X158789D01*
X159173D02*
X159489D01*
X159947D02*
X160213D01*
X160692D02*
X161054D01*
X161496D02*
X161762D01*
X162462D02*
X162860D01*
X163553D02*
X163915D01*
X164563D02*
X164925D01*
X165404D02*
X165677D01*
X166120D02*
X166422D01*
X166761D02*
X167056D01*
X158517Y105746D02*
X158789D01*
X159179D02*
X159489D01*
X159947D02*
X160213D01*
X160692D02*
X161060D01*
X161496D02*
X161762D01*
X162462D02*
X162860D01*
X163553D02*
X163915D01*
X164563D02*
X164925D01*
X165404D02*
X165677D01*
X166120D02*
X166414D01*
X166769D02*
X167064D01*
X158517Y105740D02*
X158789D01*
X159187D02*
X159497D01*
X159947D02*
X160213D01*
X160692D02*
X161060D01*
X161496D02*
X161762D01*
X162454D02*
X162860D01*
X163553D02*
X163915D01*
X164563D02*
X164925D01*
X165404D02*
X165677D01*
X166112D02*
X166414D01*
X166769D02*
X167064D01*
X158517Y105732D02*
X158789D01*
X159195D02*
X159497D01*
X159947D02*
X160213D01*
X160692D02*
X161068D01*
X161496D02*
X161762D01*
X162454D02*
X162867D01*
X163553D02*
X163921D01*
X164557D02*
X164925D01*
X165404D02*
X165677D01*
X166112D02*
X166406D01*
X166776D02*
X167064D01*
X158517Y105724D02*
X158789D01*
X159202D02*
X159497D01*
X159947D02*
X160213D01*
X160692D02*
X161068D01*
X161496D02*
X161762D01*
X162454D02*
X162867D01*
X163553D02*
X163921D01*
X164557D02*
X164925D01*
X165404D02*
X165677D01*
X166112D02*
X166400D01*
X166783D02*
X167064D01*
X158517Y105718D02*
X158789D01*
X159202D02*
X159497D01*
X159947D02*
X160213D01*
X160692D02*
X161068D01*
X161496D02*
X161762D01*
X162454D02*
X162867D01*
X163553D02*
X163929D01*
X164557D02*
X164925D01*
X165404D02*
X165677D01*
X166112D02*
X166400D01*
X166783D02*
X167070D01*
X158517Y105710D02*
X158789D01*
X159209D02*
X159505D01*
X159947D02*
X160213D01*
X160692D02*
X161076D01*
X161496D02*
X161762D01*
X162447D02*
X162867D01*
X163553D02*
X163929D01*
X164549D02*
X164925D01*
X165404D02*
X165677D01*
X166104D02*
X166392D01*
X166790D02*
X167070D01*
X158517Y105702D02*
X158789D01*
X159209D02*
X159505D01*
X159947D02*
X160213D01*
X160692D02*
X161076D01*
X161496D02*
X161762D01*
X162447D02*
X162867D01*
X163553D02*
X163929D01*
X164549D02*
X164925D01*
X165404D02*
X165677D01*
X166104D02*
X166392D01*
X166790D02*
X167070D01*
X158517Y105696D02*
X158789D01*
X159217D02*
X159505D01*
X159947D02*
X160213D01*
X160692D02*
X161076D01*
X161496D02*
X161762D01*
X162447D02*
X162875D01*
X163553D02*
X163937D01*
X164549D02*
X164925D01*
X165404D02*
X165677D01*
X166104D02*
X166385D01*
X166797D02*
X167078D01*
X158517Y105688D02*
X158789D01*
X159217D02*
X159505D01*
X159947D02*
X160213D01*
X160692D02*
X161082D01*
X161496D02*
X161762D01*
X162447D02*
X162875D01*
X163553D02*
X163937D01*
X164541D02*
X164925D01*
X165404D02*
X165677D01*
X166098D02*
X166385D01*
X166797D02*
X167078D01*
X158517Y105680D02*
X158789D01*
X159225D02*
X159511D01*
X159947D02*
X160213D01*
X160692D02*
X161082D01*
X161496D02*
X161762D01*
X162440D02*
X162875D01*
X163553D02*
X163937D01*
X164541D02*
X164925D01*
X165404D02*
X165677D01*
X166098D02*
X166385D01*
X166797D02*
X167078D01*
X158517Y105673D02*
X158789D01*
X159225D02*
X159511D01*
X159947D02*
X160213D01*
X160692D02*
X161090D01*
X161496D02*
X161762D01*
X162440D02*
X162875D01*
X163553D02*
X163943D01*
X164534D02*
X164925D01*
X165404D02*
X165677D01*
X166098D02*
X166378D01*
X166805D02*
X167078D01*
X158517Y105666D02*
X158789D01*
X159231D02*
X159511D01*
X159947D02*
X160213D01*
X160692D02*
X161090D01*
X161496D02*
X161762D01*
X162440D02*
X162882D01*
X163553D02*
X163943D01*
X164534D02*
X164925D01*
X165404D02*
X165677D01*
X166098D02*
X166378D01*
X166805D02*
X167078D01*
X158517Y105658D02*
X158789D01*
X159231D02*
X159511D01*
X159947D02*
X160213D01*
X160692D02*
X161090D01*
X161496D02*
X161762D01*
X162440D02*
X162882D01*
X163553D02*
X163943D01*
X164534D02*
X164925D01*
X165404D02*
X165677D01*
X166098D02*
X166378D01*
X166805D02*
X167086D01*
X158517Y105651D02*
X158789D01*
X159231D02*
X159511D01*
X159947D02*
X160213D01*
X160692D02*
X161098D01*
X161496D02*
X161762D01*
X162440D02*
X162882D01*
X163553D02*
X163951D01*
X164527D02*
X164925D01*
X165404D02*
X165677D01*
X166090D02*
X166370D01*
X166812D02*
X167086D01*
X158517Y105644D02*
X158789D01*
X159239D02*
X159519D01*
X159947D02*
X160213D01*
X160692D02*
X161098D01*
X161496D02*
X161762D01*
X162432D02*
X162882D01*
X163553D02*
X163951D01*
X164527D02*
X164925D01*
X165404D02*
X165677D01*
X166090D02*
X166370D01*
X166812D02*
X167086D01*
X158517Y105636D02*
X158789D01*
X159239D02*
X159519D01*
X159947D02*
X160213D01*
X160692D02*
X161098D01*
X161496D02*
X161762D01*
X162432D02*
X162889D01*
X163553D02*
X163959D01*
X164527D02*
X164925D01*
X165404D02*
X165677D01*
X166090D02*
X166370D01*
X166812D02*
X167086D01*
X158517Y105628D02*
X158789D01*
X159239D02*
X159519D01*
X159947D02*
X160213D01*
X160692D02*
X161105D01*
X161496D02*
X161762D01*
X162432D02*
X162889D01*
X163553D02*
X163959D01*
X164519D02*
X164925D01*
X165404D02*
X165677D01*
X166090D02*
X166362D01*
X166812D02*
X167086D01*
X158517Y105622D02*
X158789D01*
X159247D02*
X159519D01*
X159947D02*
X160213D01*
X160692D02*
X161105D01*
X161496D02*
X161762D01*
X162432D02*
X162889D01*
X163553D02*
X163959D01*
X164519D02*
X164925D01*
X165404D02*
X165677D01*
X166090D02*
X166362D01*
X166820D02*
X167086D01*
X158517Y105614D02*
X158789D01*
X159247D02*
X159519D01*
X159947D02*
X160213D01*
X160692D02*
X161112D01*
X161496D02*
X161762D01*
X162425D02*
X162889D01*
X163553D02*
X163966D01*
X164519D02*
X164925D01*
X165404D02*
X165677D01*
X166082D02*
X166362D01*
X166820D02*
X167093D01*
X158517Y105606D02*
X158789D01*
X159247D02*
X159519D01*
X159947D02*
X160213D01*
X160692D02*
X161112D01*
X161496D02*
X161762D01*
X162425D02*
X162889D01*
X163553D02*
X163966D01*
X164512D02*
X164925D01*
X165404D02*
X165677D01*
X166082D02*
X166362D01*
X166820D02*
X167093D01*
X158517Y105600D02*
X158789D01*
X159247D02*
X159519D01*
X159947D02*
X160213D01*
X160692D02*
X161112D01*
X161496D02*
X161762D01*
X162425D02*
X162897D01*
X163553D02*
X163966D01*
X164512D02*
X164925D01*
X165404D02*
X165677D01*
X166082D02*
X166356D01*
X166820D02*
X167093D01*
X158517Y105592D02*
X158789D01*
X159247D02*
X159519D01*
X159947D02*
X160213D01*
X160692D02*
X161120D01*
X161496D02*
X161762D01*
X162425D02*
X162654D01*
X162661D02*
X162897D01*
X163553D02*
X163973D01*
X164505D02*
X164925D01*
X165404D02*
X165677D01*
X166082D02*
X166356D01*
X166820D02*
X167093D01*
X158517Y105584D02*
X158789D01*
X159253D02*
X159527D01*
X159947D02*
X160213D01*
X160692D02*
X161120D01*
X161496D02*
X161762D01*
X162417D02*
X162654D01*
X162661D02*
X162897D01*
X163553D02*
X163973D01*
X164505D02*
X164925D01*
X165404D02*
X165677D01*
X166082D02*
X166356D01*
X166820D02*
X167093D01*
X158517Y105578D02*
X158789D01*
X159253D02*
X159527D01*
X159947D02*
X160213D01*
X160692D02*
X161120D01*
X161496D02*
X161762D01*
X162417D02*
X162654D01*
X162661D02*
X162897D01*
X163553D02*
X163973D01*
X164505D02*
X164925D01*
X165404D02*
X165677D01*
X166082D02*
X166356D01*
X166820D02*
X167093D01*
X158517Y105570D02*
X158789D01*
X159253D02*
X159527D01*
X159947D02*
X160213D01*
X160692D02*
X161126D01*
X161496D02*
X161762D01*
X162417D02*
X162654D01*
X162661D02*
X162904D01*
X163553D02*
X163981D01*
X164497D02*
X164925D01*
X165404D02*
X165677D01*
X166082D02*
X166356D01*
X166828D02*
X167093D01*
X158517Y105562D02*
X158789D01*
X159253D02*
X159527D01*
X159947D02*
X160213D01*
X160692D02*
X161126D01*
X161496D02*
X161762D01*
X162417D02*
X162654D01*
X162668D02*
X162904D01*
X163553D02*
X163981D01*
X164497D02*
X164925D01*
X165404D02*
X165677D01*
X166075D02*
X166356D01*
X166828D02*
X167093D01*
X158517Y105555D02*
X158789D01*
X159253D02*
X159527D01*
X159947D02*
X160213D01*
X160692D02*
X161134D01*
X161496D02*
X161762D01*
X162417D02*
X162646D01*
X162668D02*
X162904D01*
X163553D02*
X163989D01*
X164497D02*
X164925D01*
X165404D02*
X165677D01*
X166075D02*
X166348D01*
X166828D02*
X167093D01*
X158517Y105548D02*
X158789D01*
X159253D02*
X159527D01*
X159947D02*
X160213D01*
X160692D02*
X161134D01*
X161496D02*
X161762D01*
X162410D02*
X162646D01*
X162668D02*
X162904D01*
X163553D02*
X163989D01*
X164489D02*
X164925D01*
X165404D02*
X165677D01*
X166075D02*
X166348D01*
X166828D02*
X167093D01*
X158517Y105540D02*
X158789D01*
X159253D02*
X159527D01*
X159947D02*
X160213D01*
X160692D02*
X161134D01*
X161496D02*
X161762D01*
X162410D02*
X162646D01*
X162668D02*
X162912D01*
X163553D02*
X163989D01*
X164489D02*
X164925D01*
X165404D02*
X165677D01*
X166075D02*
X166348D01*
X166828D02*
X167093D01*
X158517Y105532D02*
X158789D01*
X159253D02*
X159527D01*
X159947D02*
X160213D01*
X160692D02*
X161142D01*
X161496D02*
X161762D01*
X162410D02*
X162646D01*
X162668D02*
X162912D01*
X163553D02*
X163995D01*
X164489D02*
X164925D01*
X165404D02*
X165677D01*
X166075D02*
X166348D01*
X166828D02*
X167093D01*
X158517Y105526D02*
X158789D01*
X159261D02*
X159527D01*
X159947D02*
X160213D01*
X160692D02*
X161142D01*
X161496D02*
X161762D01*
X162410D02*
X162646D01*
X162676D02*
X162912D01*
X163553D02*
X163995D01*
X164483D02*
X164925D01*
X165404D02*
X165677D01*
X166075D02*
X166348D01*
X166828D02*
X167093D01*
X158517Y105518D02*
X158789D01*
X159261D02*
X159527D01*
X159947D02*
X160213D01*
X160692D02*
X161142D01*
X161496D02*
X161762D01*
X162402D02*
X162639D01*
X162676D02*
X162912D01*
X163553D02*
X163995D01*
X164483D02*
X164925D01*
X165404D02*
X165677D01*
X166075D02*
X166348D01*
X166828D02*
X167100D01*
X158517Y105510D02*
X158789D01*
X159261D02*
X159527D01*
X159947D02*
X160213D01*
X160692D02*
X161148D01*
X161496D02*
X161762D01*
X162402D02*
X162639D01*
X162676D02*
X162912D01*
X163553D02*
X164003D01*
X164483D02*
X164925D01*
X165404D02*
X165677D01*
X166075D02*
X166348D01*
X166828D02*
X167100D01*
X158517Y105504D02*
X158789D01*
X159261D02*
X159527D01*
X159947D02*
X160213D01*
X160692D02*
X161148D01*
X161496D02*
X161762D01*
X162402D02*
X162639D01*
X162676D02*
X162919D01*
X163553D02*
X164003D01*
X164475D02*
X164925D01*
X165404D02*
X165677D01*
X166075D02*
X166348D01*
X158517Y105496D02*
X158789D01*
X159261D02*
X159527D01*
X159947D02*
X160213D01*
X160692D02*
X161156D01*
X161496D02*
X161762D01*
X162402D02*
X162639D01*
X162676D02*
X162919D01*
X163553D02*
X164003D01*
X164475D02*
X164925D01*
X165404D02*
X165677D01*
X166068D02*
X166340D01*
X158517Y105488D02*
X158789D01*
X159261D02*
X159527D01*
X159947D02*
X160213D01*
X160692D02*
X161156D01*
X161496D02*
X161762D01*
X162396D02*
X162639D01*
X162683D02*
X162919D01*
X163553D02*
X164011D01*
X164467D02*
X164925D01*
X165404D02*
X165677D01*
X166068D02*
X166340D01*
X158517Y105482D02*
X158789D01*
X159261D02*
X159527D01*
X159947D02*
X160213D01*
X160692D02*
X161156D01*
X161496D02*
X161762D01*
X162396D02*
X162631D01*
X162683D02*
X162919D01*
X163553D02*
X164011D01*
X164467D02*
X164925D01*
X165404D02*
X165677D01*
X166068D02*
X166340D01*
X158517Y105474D02*
X158789D01*
X159261D02*
X159533D01*
X159947D02*
X160213D01*
X160692D02*
X161164D01*
X161496D02*
X161762D01*
X162396D02*
X162631D01*
X162683D02*
X162926D01*
X163553D02*
X164017D01*
X164467D02*
X164925D01*
X165404D02*
X165677D01*
X166068D02*
X166340D01*
X158517Y105466D02*
X158789D01*
X159261D02*
X159533D01*
X159947D02*
X160213D01*
X160692D02*
X161164D01*
X161496D02*
X161762D01*
X162396D02*
X162631D01*
X162683D02*
X162926D01*
X163553D02*
X164017D01*
X164461D02*
X164925D01*
X165404D02*
X165677D01*
X166068D02*
X166340D01*
X158517Y105459D02*
X158789D01*
X159261D02*
X159533D01*
X159947D02*
X160213D01*
X160692D02*
X161164D01*
X161496D02*
X161762D01*
X162388D02*
X162631D01*
X162683D02*
X162926D01*
X163553D02*
X164017D01*
X164461D02*
X164925D01*
X165404D02*
X165677D01*
X166068D02*
X166340D01*
X158517Y105452D02*
X158789D01*
X159261D02*
X159533D01*
X159947D02*
X160213D01*
X160692D02*
X161171D01*
X161496D02*
X161762D01*
X162388D02*
X162631D01*
X162690D02*
X162926D01*
X163553D02*
X164025D01*
X164461D02*
X164925D01*
X165404D02*
X165677D01*
X166068D02*
X166340D01*
X158517Y105444D02*
X158789D01*
X159261D02*
X159533D01*
X159947D02*
X160213D01*
X160692D02*
X161171D01*
X161496D02*
X161762D01*
X162388D02*
X162624D01*
X162690D02*
X162934D01*
X163553D02*
X164025D01*
X164453D02*
X164925D01*
X165404D02*
X165677D01*
X166068D02*
X166340D01*
X158517Y105436D02*
X158789D01*
X159261D02*
X159533D01*
X159947D02*
X160213D01*
X160692D02*
X161178D01*
X161496D02*
X161762D01*
X162388D02*
X162624D01*
X162690D02*
X162934D01*
X163553D02*
X164025D01*
X164453D02*
X164925D01*
X165404D02*
X165677D01*
X166068D02*
X166340D01*
X158517Y105430D02*
X158789D01*
X159261D02*
X159533D01*
X159947D02*
X160213D01*
X160692D02*
X161178D01*
X161496D02*
X161762D01*
X162388D02*
X162624D01*
X162690D02*
X162934D01*
X163553D02*
X164033D01*
X164453D02*
X164925D01*
X165404D02*
X165677D01*
X166068D02*
X166340D01*
X158517Y105422D02*
X158789D01*
X159261D02*
X159533D01*
X159947D02*
X160213D01*
X160692D02*
X161178D01*
X161496D02*
X161762D01*
X162380D02*
X162624D01*
X162690D02*
X162934D01*
X163553D02*
X164033D01*
X164445D02*
X164925D01*
X165404D02*
X165677D01*
X166068D02*
X166340D01*
X158517Y105414D02*
X158789D01*
X159261D02*
X159533D01*
X159947D02*
X160213D01*
X160692D02*
X161186D01*
X161496D02*
X161762D01*
X162380D02*
X162617D01*
X162698D02*
X162934D01*
X163553D02*
X164033D01*
X164445D02*
X164925D01*
X165404D02*
X165677D01*
X166068D02*
X166333D01*
X158517Y105408D02*
X158789D01*
X159261D02*
X159533D01*
X159947D02*
X160213D01*
X160692D02*
X161186D01*
X161496D02*
X161762D01*
X162380D02*
X162617D01*
X162698D02*
X162941D01*
X163553D02*
X164039D01*
X164438D02*
X164925D01*
X165404D02*
X165677D01*
X166068D02*
X166333D01*
X158517Y105400D02*
X158789D01*
X159261D02*
X159533D01*
X159947D02*
X160213D01*
X160692D02*
X161186D01*
X161496D02*
X161762D01*
X162380D02*
X162617D01*
X162698D02*
X162941D01*
X163553D02*
X164039D01*
X164438D02*
X164925D01*
X165404D02*
X165677D01*
X166068D02*
X166333D01*
X158517Y105392D02*
X158789D01*
X159261D02*
X159533D01*
X159947D02*
X160213D01*
X160692D02*
X161193D01*
X161496D02*
X161762D01*
X162373D02*
X162617D01*
X162698D02*
X162941D01*
X163553D02*
X164047D01*
X164438D02*
X164925D01*
X165404D02*
X165677D01*
X166068D02*
X166333D01*
X158517Y105386D02*
X158789D01*
X159261D02*
X159533D01*
X159947D02*
X160213D01*
X160692D02*
X161193D01*
X161496D02*
X161762D01*
X162373D02*
X162617D01*
X162698D02*
X162941D01*
X163553D02*
X164047D01*
X164431D02*
X164651D01*
X164659D02*
X164925D01*
X165404D02*
X165677D01*
X166068D02*
X166333D01*
X158517Y105378D02*
X158789D01*
X159261D02*
X159533D01*
X159947D02*
X160213D01*
X160692D02*
X161200D01*
X161496D02*
X161762D01*
X162373D02*
X162609D01*
X162705D02*
X162949D01*
X163553D02*
X164047D01*
X164431D02*
X164651D01*
X164659D02*
X164925D01*
X165404D02*
X165677D01*
X166061D02*
X166333D01*
X158517Y105370D02*
X158789D01*
X159261D02*
X159527D01*
X159947D02*
X160213D01*
X160692D02*
X161200D01*
X161496D02*
X161762D01*
X162373D02*
X162609D01*
X162705D02*
X162949D01*
X163553D02*
X164055D01*
X164431D02*
X164651D01*
X164659D02*
X164925D01*
X165404D02*
X165677D01*
X166061D02*
X166333D01*
X158517Y105363D02*
X158789D01*
X159261D02*
X159527D01*
X159947D02*
X160213D01*
X160692D02*
X161200D01*
X161496D02*
X161762D01*
X162366D02*
X162609D01*
X162705D02*
X162949D01*
X163553D02*
X163819D01*
X163825D02*
X164055D01*
X164423D02*
X164645D01*
X164659D02*
X164925D01*
X165404D02*
X165677D01*
X166061D02*
X166333D01*
X158517Y105356D02*
X158789D01*
X159261D02*
X159527D01*
X159947D02*
X160213D01*
X160692D02*
X161208D01*
X161496D02*
X161762D01*
X162366D02*
X162609D01*
X162705D02*
X162949D01*
X163553D02*
X163819D01*
X163825D02*
X164055D01*
X164423D02*
X164645D01*
X164659D02*
X164925D01*
X165404D02*
X165677D01*
X166061D02*
X166333D01*
X158517Y105348D02*
X158789D01*
X159261D02*
X159527D01*
X159947D02*
X160213D01*
X160692D02*
X161208D01*
X161496D02*
X161762D01*
X162366D02*
X162609D01*
X162705D02*
X162955D01*
X163553D02*
X163819D01*
X163825D02*
X164062D01*
X164423D02*
X164645D01*
X164659D02*
X164925D01*
X165404D02*
X165677D01*
X166061D02*
X166333D01*
X158517Y105341D02*
X158789D01*
X159261D02*
X159527D01*
X159947D02*
X160213D01*
X160692D02*
X161208D01*
X161496D02*
X161762D01*
X162366D02*
X162602D01*
X162712D02*
X162955D01*
X163553D02*
X163819D01*
X163833D02*
X164062D01*
X164415D02*
X164637D01*
X164659D02*
X164925D01*
X165404D02*
X165677D01*
X166061D02*
X166333D01*
X158517Y105334D02*
X158789D01*
X159261D02*
X159527D01*
X159947D02*
X160213D01*
X160692D02*
X161216D01*
X161496D02*
X161762D01*
X162366D02*
X162602D01*
X162712D02*
X162955D01*
X163553D02*
X163819D01*
X163833D02*
X164062D01*
X164415D02*
X164637D01*
X164659D02*
X164925D01*
X165404D02*
X165677D01*
X166061D02*
X166333D01*
X158517Y105326D02*
X158789D01*
X159253D02*
X159527D01*
X159947D02*
X160213D01*
X160692D02*
X161216D01*
X161496D02*
X161762D01*
X162358D02*
X162602D01*
X162712D02*
X162955D01*
X163553D02*
X163819D01*
X163833D02*
X164069D01*
X164409D02*
X164637D01*
X164659D02*
X164925D01*
X165404D02*
X165677D01*
X166061D02*
X166333D01*
X158517Y105318D02*
X158789D01*
X159253D02*
X159527D01*
X159947D02*
X160213D01*
X160692D02*
X160964D01*
X160972D02*
X161222D01*
X161496D02*
X161762D01*
X162358D02*
X162602D01*
X162712D02*
X162955D01*
X163553D02*
X163819D01*
X163841D02*
X164069D01*
X164409D02*
X164629D01*
X164659D02*
X164925D01*
X165404D02*
X165677D01*
X166061D02*
X166333D01*
X158517Y105312D02*
X158789D01*
X159253D02*
X159527D01*
X159947D02*
X160213D01*
X160692D02*
X160964D01*
X160972D02*
X161222D01*
X161496D02*
X161762D01*
X162358D02*
X162602D01*
X162720D02*
X162963D01*
X163553D02*
X163819D01*
X163841D02*
X164077D01*
X164409D02*
X164629D01*
X164659D02*
X164925D01*
X165404D02*
X165677D01*
X166061D02*
X166333D01*
X158517Y105304D02*
X158789D01*
X159253D02*
X159527D01*
X159947D02*
X160213D01*
X160692D02*
X160964D01*
X160972D02*
X161222D01*
X161496D02*
X161762D01*
X162358D02*
X162595D01*
X162720D02*
X162963D01*
X163553D02*
X163819D01*
X163841D02*
X164077D01*
X164401D02*
X164629D01*
X164659D02*
X164925D01*
X165404D02*
X165677D01*
X166061D02*
X166333D01*
X158517Y105296D02*
X158789D01*
X159253D02*
X159527D01*
X159947D02*
X160213D01*
X160692D02*
X160964D01*
X160980D02*
X161230D01*
X161496D02*
X161762D01*
X162351D02*
X162595D01*
X162720D02*
X162963D01*
X163553D02*
X163819D01*
X163848D02*
X164077D01*
X164401D02*
X164623D01*
X164659D02*
X164925D01*
X165404D02*
X165677D01*
X166061D02*
X166333D01*
X158517Y105290D02*
X158789D01*
X159253D02*
X159527D01*
X159947D02*
X160213D01*
X160692D02*
X160964D01*
X160980D02*
X161230D01*
X161496D02*
X161762D01*
X162351D02*
X162595D01*
X162720D02*
X162963D01*
X163553D02*
X163819D01*
X163848D02*
X164084D01*
X164401D02*
X164623D01*
X164659D02*
X164925D01*
X165404D02*
X165677D01*
X166061D02*
X166333D01*
X158517Y105282D02*
X158789D01*
X159253D02*
X159527D01*
X159947D02*
X160213D01*
X160692D02*
X160964D01*
X160986D02*
X161230D01*
X161496D02*
X161762D01*
X162351D02*
X162595D01*
X162720D02*
X162971D01*
X163553D02*
X163819D01*
X163848D02*
X164084D01*
X164393D02*
X164623D01*
X164659D02*
X164925D01*
X165404D02*
X165677D01*
X166061D02*
X166333D01*
X158517Y105274D02*
X158789D01*
X159253D02*
X159527D01*
X159947D02*
X160213D01*
X160692D02*
X160964D01*
X160986D02*
X161238D01*
X161496D02*
X161762D01*
X162351D02*
X162595D01*
X162727D02*
X162971D01*
X163553D02*
X163819D01*
X163855D02*
X164084D01*
X164393D02*
X164615D01*
X164659D02*
X164925D01*
X165404D02*
X165677D01*
X166061D02*
X166333D01*
X158517Y105268D02*
X158789D01*
X159253D02*
X159527D01*
X159947D02*
X160213D01*
X160692D02*
X160964D01*
X160986D02*
X161238D01*
X161496D02*
X161762D01*
X162344D02*
X162587D01*
X162727D02*
X162971D01*
X163553D02*
X163819D01*
X163855D02*
X164091D01*
X164393D02*
X164615D01*
X164659D02*
X164925D01*
X165404D02*
X165677D01*
X166061D02*
X166333D01*
X158517Y105260D02*
X158789D01*
X159247D02*
X159519D01*
X159947D02*
X160213D01*
X160692D02*
X160964D01*
X160994D02*
X161244D01*
X161496D02*
X161762D01*
X162344D02*
X162587D01*
X162727D02*
X162971D01*
X163553D02*
X163819D01*
X163855D02*
X164091D01*
X164387D02*
X164615D01*
X164659D02*
X164925D01*
X165404D02*
X165677D01*
X166061D02*
X166333D01*
X158517Y105252D02*
X158789D01*
X159247D02*
X159519D01*
X159947D02*
X160213D01*
X160692D02*
X160964D01*
X160994D02*
X161244D01*
X161496D02*
X161762D01*
X162344D02*
X162587D01*
X162727D02*
X162978D01*
X163553D02*
X163819D01*
X163863D02*
X164091D01*
X164387D02*
X164607D01*
X164659D02*
X164925D01*
X165404D02*
X165677D01*
X166061D02*
X166333D01*
X158517Y105246D02*
X158789D01*
X159247D02*
X159519D01*
X159947D02*
X160213D01*
X160692D02*
X160964D01*
X160994D02*
X161244D01*
X161496D02*
X161762D01*
X162344D02*
X162587D01*
X162727D02*
X162978D01*
X163553D02*
X163819D01*
X163863D02*
X164099D01*
X164387D02*
X164607D01*
X164659D02*
X164925D01*
X165404D02*
X165677D01*
X166061D02*
X166333D01*
X158517Y105238D02*
X158789D01*
X159247D02*
X159519D01*
X159947D02*
X160213D01*
X160692D02*
X160964D01*
X161002D02*
X161252D01*
X161496D02*
X161762D01*
X162336D02*
X162587D01*
X162734D02*
X162978D01*
X163553D02*
X163819D01*
X163863D02*
X164099D01*
X164379D02*
X164607D01*
X164659D02*
X164925D01*
X165404D02*
X165677D01*
X166061D02*
X166333D01*
X158517Y105230D02*
X158789D01*
X159247D02*
X159519D01*
X159947D02*
X160213D01*
X160692D02*
X160964D01*
X161002D02*
X161252D01*
X161496D02*
X161762D01*
X162336D02*
X162580D01*
X162734D02*
X162978D01*
X163553D02*
X163819D01*
X163870D02*
X164107D01*
X164379D02*
X164600D01*
X164659D02*
X164925D01*
X165404D02*
X165677D01*
X166061D02*
X166333D01*
X158517Y105224D02*
X158789D01*
X159239D02*
X159519D01*
X159947D02*
X160213D01*
X160692D02*
X160964D01*
X161009D02*
X161252D01*
X161496D02*
X161762D01*
X162336D02*
X162580D01*
X162734D02*
X162985D01*
X163553D02*
X163819D01*
X163870D02*
X164107D01*
X164371D02*
X164600D01*
X164659D02*
X164925D01*
X165404D02*
X165677D01*
X166061D02*
X166333D01*
X158517Y105216D02*
X158789D01*
X159239D02*
X159519D01*
X159947D02*
X160213D01*
X160692D02*
X160964D01*
X161009D02*
X161260D01*
X161496D02*
X161762D01*
X162336D02*
X162580D01*
X162734D02*
X162985D01*
X163553D02*
X163819D01*
X163870D02*
X164107D01*
X164371D02*
X164600D01*
X164659D02*
X164925D01*
X165404D02*
X165677D01*
X166061D02*
X166326D01*
X158517Y105208D02*
X158789D01*
X159239D02*
X159511D01*
X159947D02*
X160213D01*
X160692D02*
X160964D01*
X161009D02*
X161260D01*
X161496D02*
X161762D01*
X162336D02*
X162580D01*
X162734D02*
X162985D01*
X163553D02*
X163819D01*
X163877D02*
X164113D01*
X164371D02*
X164593D01*
X164659D02*
X164925D01*
X165404D02*
X165677D01*
X166061D02*
X166326D01*
X158517Y105201D02*
X158789D01*
X159231D02*
X159511D01*
X159947D02*
X160213D01*
X160692D02*
X160964D01*
X161016D02*
X161267D01*
X161496D02*
X161762D01*
X162328D02*
X162580D01*
X162742D02*
X162985D01*
X163553D02*
X163819D01*
X163877D02*
X164113D01*
X164365D02*
X164593D01*
X164659D02*
X164925D01*
X165404D02*
X165677D01*
X166061D02*
X166326D01*
X158517Y105194D02*
X158789D01*
X159231D02*
X159511D01*
X159947D02*
X160213D01*
X160692D02*
X160964D01*
X161016D02*
X161267D01*
X161496D02*
X161762D01*
X162328D02*
X162572D01*
X162742D02*
X162985D01*
X163553D02*
X163819D01*
X163877D02*
X164113D01*
X164365D02*
X164593D01*
X164659D02*
X164925D01*
X165404D02*
X165677D01*
X166061D02*
X166326D01*
X158517Y105186D02*
X158789D01*
X159231D02*
X159511D01*
X159947D02*
X160213D01*
X160692D02*
X160964D01*
X161016D02*
X161267D01*
X161496D02*
X161762D01*
X162328D02*
X162572D01*
X162742D02*
X162993D01*
X163553D02*
X163819D01*
X163885D02*
X164121D01*
X164365D02*
X164585D01*
X164659D02*
X164925D01*
X165404D02*
X165677D01*
X166061D02*
X166326D01*
X158517Y105179D02*
X158789D01*
X159225D02*
X159511D01*
X159947D02*
X160213D01*
X160692D02*
X160964D01*
X161024D02*
X161274D01*
X161496D02*
X161762D01*
X162328D02*
X162572D01*
X162742D02*
X162993D01*
X163553D02*
X163819D01*
X163885D02*
X164121D01*
X164357D02*
X164585D01*
X164659D02*
X164925D01*
X165404D02*
X165677D01*
X166061D02*
X166326D01*
X158517Y105172D02*
X158789D01*
X159225D02*
X159505D01*
X159947D02*
X160213D01*
X160692D02*
X160964D01*
X161024D02*
X161274D01*
X161496D02*
X161762D01*
X162322D02*
X162572D01*
X162742D02*
X162993D01*
X163553D02*
X163819D01*
X163885D02*
X164121D01*
X164357D02*
X164585D01*
X164659D02*
X164925D01*
X165404D02*
X165677D01*
X166061D02*
X166326D01*
X158517Y105164D02*
X158789D01*
X159217D02*
X159505D01*
X159947D02*
X160213D01*
X160692D02*
X160964D01*
X161032D02*
X161274D01*
X161496D02*
X161762D01*
X162322D02*
X162572D01*
X162750D02*
X162993D01*
X163553D02*
X163819D01*
X163892D02*
X164129D01*
X164357D02*
X164579D01*
X164659D02*
X164925D01*
X165404D02*
X165677D01*
X166061D02*
X166326D01*
X158517Y105156D02*
X158789D01*
X159217D02*
X159505D01*
X159947D02*
X160213D01*
X160692D02*
X160964D01*
X161032D02*
X161282D01*
X161496D02*
X161762D01*
X162322D02*
X162565D01*
X162750D02*
X163000D01*
X163553D02*
X163819D01*
X163892D02*
X164129D01*
X164349D02*
X164579D01*
X164659D02*
X164925D01*
X165404D02*
X165677D01*
X166061D02*
X166326D01*
X158517Y105150D02*
X158789D01*
X159209D02*
X159505D01*
X159947D02*
X160213D01*
X160692D02*
X160964D01*
X161032D02*
X161282D01*
X161496D02*
X161762D01*
X162322D02*
X162565D01*
X162750D02*
X163000D01*
X163553D02*
X163819D01*
X163892D02*
X164135D01*
X164349D02*
X164579D01*
X164659D02*
X164925D01*
X165404D02*
X165677D01*
X166061D02*
X166326D01*
X158517Y105142D02*
X158789D01*
X159209D02*
X159497D01*
X159947D02*
X160213D01*
X160692D02*
X160964D01*
X161038D02*
X161289D01*
X161496D02*
X161762D01*
X162314D02*
X162565D01*
X162750D02*
X163000D01*
X163553D02*
X163819D01*
X163899D02*
X164135D01*
X164342D02*
X164571D01*
X164659D02*
X164925D01*
X165404D02*
X165677D01*
X166061D02*
X166326D01*
X158517Y105134D02*
X158789D01*
X159202D02*
X159497D01*
X159947D02*
X160213D01*
X160692D02*
X160964D01*
X161038D02*
X161289D01*
X161496D02*
X161762D01*
X162314D02*
X162565D01*
X162750D02*
X163000D01*
X163553D02*
X163819D01*
X163899D02*
X164135D01*
X164342D02*
X164571D01*
X164659D02*
X164925D01*
X165404D02*
X165677D01*
X166061D02*
X166326D01*
X158517Y105128D02*
X158789D01*
X159202D02*
X159497D01*
X159947D02*
X160213D01*
X160692D02*
X160964D01*
X161046D02*
X161289D01*
X161496D02*
X161762D01*
X162314D02*
X162565D01*
X162756D02*
X163007D01*
X163553D02*
X163819D01*
X163907D02*
X164143D01*
X164342D02*
X164571D01*
X164659D02*
X164925D01*
X165404D02*
X165677D01*
X166061D02*
X166326D01*
X158517Y105120D02*
X158789D01*
X159195D02*
X159497D01*
X159947D02*
X160213D01*
X160692D02*
X160964D01*
X161046D02*
X161296D01*
X161496D02*
X161762D01*
X162314D02*
X162558D01*
X162756D02*
X163007D01*
X163553D02*
X163819D01*
X163907D02*
X164143D01*
X164335D02*
X164563D01*
X164659D02*
X164925D01*
X165404D02*
X165677D01*
X166061D02*
X166326D01*
X158517Y105112D02*
X158789D01*
X159187D02*
X159489D01*
X159947D02*
X160213D01*
X160692D02*
X160964D01*
X161046D02*
X161296D01*
X161496D02*
X161762D01*
X162314D02*
X162558D01*
X162756D02*
X163007D01*
X163553D02*
X163819D01*
X163907D02*
X164143D01*
X164335D02*
X164563D01*
X164659D02*
X164925D01*
X165404D02*
X165677D01*
X166061D02*
X166326D01*
X158517Y105105D02*
X158789D01*
X159179D02*
X159489D01*
X159947D02*
X160213D01*
X160692D02*
X160964D01*
X161054D02*
X161296D01*
X161496D02*
X161762D01*
X162306D02*
X162558D01*
X162756D02*
X163007D01*
X163553D02*
X163819D01*
X163915D02*
X164151D01*
X164335D02*
X164557D01*
X164659D02*
X164925D01*
X165404D02*
X165677D01*
X166061D02*
X166326D01*
X158517Y105098D02*
X158789D01*
X159173D02*
X159489D01*
X159947D02*
X160213D01*
X160692D02*
X160964D01*
X161054D02*
X161304D01*
X161496D02*
X161762D01*
X162306D02*
X162558D01*
X162756D02*
X163007D01*
X163553D02*
X163819D01*
X163915D02*
X164151D01*
X164327D02*
X164557D01*
X164659D02*
X164925D01*
X165404D02*
X165677D01*
X166061D02*
X166326D01*
X158517Y105090D02*
X158789D01*
X159165D02*
X159482D01*
X159947D02*
X160213D01*
X160692D02*
X160964D01*
X161054D02*
X161304D01*
X161496D02*
X161762D01*
X162306D02*
X162558D01*
X162764D02*
X163015D01*
X163553D02*
X163819D01*
X163915D02*
X164151D01*
X164327D02*
X164557D01*
X164659D02*
X164925D01*
X165404D02*
X165677D01*
X166061D02*
X166326D01*
X158517Y105083D02*
X158789D01*
X159157D02*
X159482D01*
X159947D02*
X160213D01*
X160692D02*
X160964D01*
X161060D02*
X161312D01*
X161496D02*
X161762D01*
X162306D02*
X162550D01*
X162764D02*
X163015D01*
X163553D02*
X163819D01*
X163921D02*
X164157D01*
X164327D02*
X164549D01*
X164659D02*
X164925D01*
X165404D02*
X165677D01*
X166061D02*
X166326D01*
X158517Y105076D02*
X158789D01*
X159143D02*
X159475D01*
X159947D02*
X160213D01*
X160692D02*
X160964D01*
X161060D02*
X161312D01*
X161496D02*
X161762D01*
X162300D02*
X162550D01*
X162764D02*
X163015D01*
X163553D02*
X163819D01*
X163921D02*
X164157D01*
X164320D02*
X164549D01*
X164659D02*
X164925D01*
X165404D02*
X165677D01*
X166061D02*
X166326D01*
X158517Y105068D02*
X158789D01*
X159135D02*
X159475D01*
X159947D02*
X160213D01*
X160692D02*
X160964D01*
X161068D02*
X161312D01*
X161496D02*
X161762D01*
X162300D02*
X162550D01*
X162764D02*
X163015D01*
X163553D02*
X163819D01*
X163921D02*
X164165D01*
X164320D02*
X164549D01*
X164659D02*
X164925D01*
X165404D02*
X165677D01*
X166061D02*
X166326D01*
X158517Y105060D02*
X158789D01*
X159113D02*
X159475D01*
X159947D02*
X160213D01*
X160692D02*
X160964D01*
X161068D02*
X161318D01*
X161496D02*
X161762D01*
X162300D02*
X162550D01*
X162764D02*
X163022D01*
X163553D02*
X163819D01*
X163929D02*
X164165D01*
X164313D02*
X164541D01*
X164659D02*
X164925D01*
X165404D02*
X165677D01*
X166061D02*
X166326D01*
X158517Y105054D02*
X158789D01*
X159099D02*
X159467D01*
X159947D02*
X160213D01*
X160692D02*
X160964D01*
X161068D02*
X161318D01*
X161496D02*
X161762D01*
X162300D02*
X162543D01*
X162771D02*
X163022D01*
X163553D02*
X163819D01*
X163929D02*
X164165D01*
X164313D02*
X164541D01*
X164659D02*
X164925D01*
X165404D02*
X165677D01*
X166061D02*
X166326D01*
X158517Y105046D02*
X158789D01*
X159062D02*
X159467D01*
X159947D02*
X160213D01*
X160692D02*
X160964D01*
X161076D02*
X161318D01*
X161496D02*
X161762D01*
X162292D02*
X162543D01*
X162771D02*
X163022D01*
X163553D02*
X163819D01*
X163929D02*
X164173D01*
X164313D02*
X164541D01*
X164659D02*
X164925D01*
X165404D02*
X165677D01*
X166061D02*
X166326D01*
X158517Y105038D02*
X159460D01*
X159947D02*
X160213D01*
X160692D02*
X160964D01*
X161076D02*
X161326D01*
X161496D02*
X161762D01*
X162292D02*
X162543D01*
X162771D02*
X163022D01*
X163553D02*
X163819D01*
X163937D02*
X164173D01*
X164305D02*
X164534D01*
X164659D02*
X164925D01*
X165404D02*
X165677D01*
X166061D02*
X166326D01*
X158517Y105032D02*
X159460D01*
X159947D02*
X160213D01*
X160692D02*
X160964D01*
X161076D02*
X161326D01*
X161496D02*
X161762D01*
X162292D02*
X162543D01*
X162771D02*
X163029D01*
X163553D02*
X163819D01*
X163937D02*
X164173D01*
X164305D02*
X164534D01*
X164659D02*
X164925D01*
X165404D02*
X165677D01*
X166061D02*
X166326D01*
X158517Y105024D02*
X159453D01*
X159947D02*
X160213D01*
X160692D02*
X160964D01*
X161082D02*
X161334D01*
X161496D02*
X161762D01*
X162292D02*
X162543D01*
X162771D02*
X163029D01*
X163553D02*
X163819D01*
X163937D02*
X164180D01*
X164305D02*
X164534D01*
X164659D02*
X164925D01*
X165404D02*
X165677D01*
X166061D02*
X166326D01*
X158517Y105016D02*
X159445D01*
X159947D02*
X160213D01*
X160692D02*
X160964D01*
X161082D02*
X161334D01*
X161496D02*
X161762D01*
X162284D02*
X162535D01*
X162779D02*
X163029D01*
X163553D02*
X163819D01*
X163943D02*
X164180D01*
X164297D02*
X164527D01*
X164659D02*
X164925D01*
X165404D02*
X165677D01*
X166061D02*
X166326D01*
X158517Y105009D02*
X159445D01*
X159947D02*
X160213D01*
X160692D02*
X160964D01*
X161090D02*
X161334D01*
X161496D02*
X161762D01*
X162284D02*
X162535D01*
X162779D02*
X163029D01*
X163553D02*
X163819D01*
X163943D02*
X164180D01*
X164297D02*
X164527D01*
X164659D02*
X164925D01*
X165404D02*
X165677D01*
X166061D02*
X166326D01*
X158517Y105002D02*
X159439D01*
X159947D02*
X160213D01*
X160692D02*
X160964D01*
X161090D02*
X161340D01*
X161496D02*
X161762D01*
X162284D02*
X162535D01*
X162779D02*
X163029D01*
X163553D02*
X163819D01*
X163943D02*
X164187D01*
X164297D02*
X164527D01*
X164659D02*
X164925D01*
X165404D02*
X165677D01*
X166061D02*
X166326D01*
X158517Y104994D02*
X159439D01*
X159947D02*
X160213D01*
X160692D02*
X160964D01*
X161090D02*
X161340D01*
X161496D02*
X161762D01*
X162284D02*
X162535D01*
X162779D02*
X163037D01*
X163553D02*
X163819D01*
X163951D02*
X164187D01*
X164291D02*
X164519D01*
X164659D02*
X164925D01*
X165404D02*
X165677D01*
X166061D02*
X166326D01*
X158517Y104987D02*
X159431D01*
X159947D02*
X160213D01*
X160692D02*
X160964D01*
X161098D02*
X161340D01*
X161496D02*
X161762D01*
X162284D02*
X162535D01*
X162779D02*
X163037D01*
X163553D02*
X163819D01*
X163951D02*
X164195D01*
X164291D02*
X164519D01*
X164659D02*
X164925D01*
X165404D02*
X165677D01*
X166061D02*
X166326D01*
X158517Y104980D02*
X159423D01*
X159947D02*
X160213D01*
X160692D02*
X160964D01*
X161098D02*
X161348D01*
X161496D02*
X161762D01*
X162277D02*
X162528D01*
X162786D02*
X163037D01*
X163553D02*
X163819D01*
X163951D02*
X164195D01*
X164291D02*
X164519D01*
X164659D02*
X164925D01*
X165404D02*
X165677D01*
X166061D02*
X166326D01*
X158517Y104972D02*
X159416D01*
X159947D02*
X160213D01*
X160692D02*
X160964D01*
X161098D02*
X161348D01*
X161496D02*
X161762D01*
X162277D02*
X162528D01*
X162786D02*
X163037D01*
X163553D02*
X163819D01*
X163959D02*
X164195D01*
X164283D02*
X164512D01*
X164659D02*
X164925D01*
X165404D02*
X165677D01*
X166061D02*
X166326D01*
X158517Y104965D02*
X159416D01*
X159947D02*
X160213D01*
X160692D02*
X160964D01*
X161105D02*
X161356D01*
X161496D02*
X161762D01*
X162277D02*
X162528D01*
X162786D02*
X163044D01*
X163553D02*
X163819D01*
X163959D02*
X164203D01*
X164283D02*
X164512D01*
X164659D02*
X164925D01*
X165404D02*
X165677D01*
X166061D02*
X166326D01*
X158517Y104958D02*
X159409D01*
X159947D02*
X160213D01*
X160692D02*
X160964D01*
X161105D02*
X161356D01*
X161496D02*
X161762D01*
X162277D02*
X162528D01*
X162786D02*
X163044D01*
X163553D02*
X163819D01*
X163959D02*
X164203D01*
X164275D02*
X164512D01*
X164659D02*
X164925D01*
X165404D02*
X165677D01*
X166061D02*
X166326D01*
X158517Y104950D02*
X159401D01*
X159947D02*
X160213D01*
X160692D02*
X160964D01*
X161112D02*
X161356D01*
X161496D02*
X161762D01*
X162270D02*
X162528D01*
X162786D02*
X163044D01*
X163553D02*
X163819D01*
X163966D02*
X164203D01*
X164275D02*
X164505D01*
X164659D02*
X164925D01*
X165404D02*
X165677D01*
X166061D02*
X166326D01*
X158517Y104942D02*
X159394D01*
X159947D02*
X160213D01*
X160692D02*
X160964D01*
X161112D02*
X161363D01*
X161496D02*
X161762D01*
X162270D02*
X162521D01*
X162793D02*
X163044D01*
X163553D02*
X163819D01*
X163966D02*
X164209D01*
X164275D02*
X164505D01*
X164659D02*
X164925D01*
X165404D02*
X165677D01*
X166061D02*
X166326D01*
X158517Y104936D02*
X159387D01*
X159947D02*
X160213D01*
X160692D02*
X160964D01*
X161112D02*
X161363D01*
X161496D02*
X161762D01*
X162270D02*
X162521D01*
X162793D02*
X163051D01*
X163553D02*
X163819D01*
X163966D02*
X164209D01*
X164269D02*
X164505D01*
X164659D02*
X164925D01*
X165404D02*
X165677D01*
X166061D02*
X166326D01*
X158517Y104928D02*
X159379D01*
X159947D02*
X160213D01*
X160692D02*
X160964D01*
X161120D02*
X161363D01*
X161496D02*
X161762D01*
X162270D02*
X162521D01*
X162793D02*
X163051D01*
X163553D02*
X163819D01*
X163973D02*
X164209D01*
X164269D02*
X164497D01*
X164659D02*
X164925D01*
X165404D02*
X165677D01*
X166061D02*
X166326D01*
X158517Y104921D02*
X159372D01*
X159947D02*
X160213D01*
X160692D02*
X160964D01*
X161120D02*
X161370D01*
X161496D02*
X161762D01*
X162262D02*
X162521D01*
X162793D02*
X163051D01*
X163553D02*
X163819D01*
X163973D02*
X164217D01*
X164269D02*
X164497D01*
X164659D02*
X164925D01*
X165404D02*
X165677D01*
X166061D02*
X166326D01*
X158517Y104914D02*
X159365D01*
X159947D02*
X160213D01*
X160692D02*
X160964D01*
X161120D02*
X161370D01*
X161496D02*
X161762D01*
X162262D02*
X162521D01*
X162793D02*
X163051D01*
X163553D02*
X163819D01*
X163973D02*
X164217D01*
X164261D02*
X164497D01*
X164659D02*
X164925D01*
X165404D02*
X165677D01*
X166061D02*
X166326D01*
X158517Y104906D02*
X159349D01*
X159947D02*
X160213D01*
X160692D02*
X160964D01*
X161126D02*
X161378D01*
X161496D02*
X161762D01*
X162262D02*
X162513D01*
X162801D02*
X163051D01*
X163553D02*
X163819D01*
X163981D02*
X164225D01*
X164261D02*
X164489D01*
X164659D02*
X164925D01*
X165404D02*
X165677D01*
X166061D02*
X166326D01*
X158517Y104898D02*
X159343D01*
X159947D02*
X160213D01*
X160692D02*
X160964D01*
X161126D02*
X161378D01*
X161496D02*
X161762D01*
X162262D02*
X162513D01*
X162801D02*
X163059D01*
X163553D02*
X163819D01*
X163981D02*
X164225D01*
X164261D02*
X164489D01*
X164659D02*
X164925D01*
X165404D02*
X165677D01*
X166061D02*
X166326D01*
X158517Y104892D02*
X159335D01*
X159947D02*
X160213D01*
X160692D02*
X160964D01*
X161134D02*
X161378D01*
X161496D02*
X161762D01*
X162262D02*
X162513D01*
X162801D02*
X163059D01*
X163553D02*
X163819D01*
X163981D02*
X164225D01*
X164253D02*
X164489D01*
X164659D02*
X164925D01*
X165404D02*
X165677D01*
X166061D02*
X166326D01*
X158517Y104884D02*
X159320D01*
X159947D02*
X160213D01*
X160692D02*
X160964D01*
X161134D02*
X161385D01*
X161496D02*
X161762D01*
X162255D02*
X162513D01*
X162801D02*
X163059D01*
X163553D02*
X163819D01*
X163989D02*
X164231D01*
X164253D02*
X164483D01*
X164659D02*
X164925D01*
X165404D02*
X165677D01*
X166061D02*
X166326D01*
X158517Y104876D02*
X159305D01*
X159947D02*
X160213D01*
X160692D02*
X160964D01*
X161134D02*
X161385D01*
X161496D02*
X161762D01*
X162255D02*
X162513D01*
X162801D02*
X163059D01*
X163553D02*
X163819D01*
X163989D02*
X164231D01*
X164247D02*
X164483D01*
X164659D02*
X164925D01*
X165404D02*
X165677D01*
X166061D02*
X166326D01*
X158517Y104870D02*
X159298D01*
X159947D02*
X160213D01*
X160692D02*
X160964D01*
X161142D02*
X161385D01*
X161496D02*
X161762D01*
X162255D02*
X162506D01*
X162808D02*
X163066D01*
X163553D02*
X163819D01*
X163989D02*
X164231D01*
X164247D02*
X164483D01*
X164659D02*
X164925D01*
X165404D02*
X165677D01*
X166061D02*
X166326D01*
X158517Y104862D02*
X159283D01*
X159947D02*
X160213D01*
X160692D02*
X160964D01*
X161142D02*
X161392D01*
X161496D02*
X161762D01*
X162255D02*
X162506D01*
X162808D02*
X163066D01*
X163553D02*
X163819D01*
X163995D02*
X164239D01*
X164247D02*
X164475D01*
X164659D02*
X164925D01*
X165404D02*
X165677D01*
X166061D02*
X166326D01*
X158517Y104854D02*
X159269D01*
X159947D02*
X160213D01*
X160692D02*
X160964D01*
X161142D02*
X161392D01*
X161496D02*
X161762D01*
X162248D02*
X162506D01*
X162808D02*
X163066D01*
X163553D02*
X163819D01*
X163995D02*
X164475D01*
X164659D02*
X164925D01*
X165404D02*
X165677D01*
X166061D02*
X166326D01*
X158517Y104847D02*
X159275D01*
X159947D02*
X160213D01*
X160692D02*
X160964D01*
X161148D02*
X161400D01*
X161496D02*
X161762D01*
X162248D02*
X162506D01*
X162808D02*
X163066D01*
X163553D02*
X163819D01*
X163995D02*
X164475D01*
X164659D02*
X164925D01*
X165404D02*
X165677D01*
X166061D02*
X166326D01*
X158517Y104840D02*
X159275D01*
X159947D02*
X160213D01*
X160692D02*
X160964D01*
X161148D02*
X161400D01*
X161496D02*
X161762D01*
X162248D02*
X162506D01*
X162808D02*
X163074D01*
X163553D02*
X163819D01*
X164003D02*
X164467D01*
X164659D02*
X164925D01*
X165404D02*
X165677D01*
X166061D02*
X166326D01*
X158517Y104832D02*
X159275D01*
X159947D02*
X160213D01*
X160692D02*
X160964D01*
X161156D02*
X161400D01*
X161496D02*
X161762D01*
X162248D02*
X162498D01*
X162816D02*
X163074D01*
X163553D02*
X163819D01*
X164003D02*
X164467D01*
X164659D02*
X164925D01*
X165404D02*
X165677D01*
X166061D02*
X166326D01*
X158517Y104825D02*
X159283D01*
X159947D02*
X160213D01*
X160692D02*
X160964D01*
X161156D02*
X161408D01*
X161496D02*
X161762D01*
X162240D02*
X162498D01*
X162816D02*
X163074D01*
X163553D02*
X163819D01*
X164011D02*
X164467D01*
X164659D02*
X164925D01*
X165404D02*
X165677D01*
X166061D02*
X166326D01*
X158517Y104818D02*
X159283D01*
X159947D02*
X160213D01*
X160692D02*
X160964D01*
X161156D02*
X161408D01*
X161496D02*
X161762D01*
X162240D02*
X162498D01*
X162816D02*
X163074D01*
X163553D02*
X163819D01*
X164011D02*
X164461D01*
X164659D02*
X164925D01*
X165404D02*
X165677D01*
X166061D02*
X166326D01*
X158517Y104810D02*
X159283D01*
X159947D02*
X160213D01*
X160692D02*
X160964D01*
X161164D02*
X161408D01*
X161496D02*
X161762D01*
X162240D02*
X162498D01*
X162816D02*
X163074D01*
X163553D02*
X163819D01*
X164011D02*
X164461D01*
X164659D02*
X164925D01*
X165404D02*
X165677D01*
X166061D02*
X166326D01*
X158517Y104802D02*
X158789D01*
X159017D02*
X159291D01*
X159947D02*
X160213D01*
X160692D02*
X160964D01*
X161164D02*
X161414D01*
X161496D02*
X161762D01*
X162240D02*
X162498D01*
X162816D02*
X163081D01*
X163553D02*
X163819D01*
X164017D02*
X164461D01*
X164659D02*
X164925D01*
X165404D02*
X165677D01*
X166061D02*
X166326D01*
X158517Y104796D02*
X158789D01*
X159025D02*
X159291D01*
X159947D02*
X160213D01*
X160692D02*
X160964D01*
X161171D02*
X161414D01*
X161496D02*
X161762D01*
X162240D02*
X162492D01*
X162823D02*
X163081D01*
X163553D02*
X163819D01*
X164017D02*
X164453D01*
X164659D02*
X164925D01*
X165404D02*
X165677D01*
X166061D02*
X166326D01*
X158517Y104788D02*
X158789D01*
X159025D02*
X159291D01*
X159947D02*
X160213D01*
X160692D02*
X160964D01*
X161171D02*
X161422D01*
X161496D02*
X161762D01*
X162234D02*
X162492D01*
X162823D02*
X163081D01*
X163553D02*
X163819D01*
X164017D02*
X164453D01*
X164659D02*
X164925D01*
X165404D02*
X165677D01*
X166061D02*
X166326D01*
X158517Y104780D02*
X158789D01*
X159025D02*
X159298D01*
X159947D02*
X160213D01*
X160692D02*
X160964D01*
X161171D02*
X161422D01*
X161496D02*
X161762D01*
X162234D02*
X162492D01*
X162823D02*
X163081D01*
X163553D02*
X163819D01*
X164025D02*
X164453D01*
X164659D02*
X164925D01*
X165404D02*
X165677D01*
X166061D02*
X166326D01*
X158517Y104774D02*
X158789D01*
X159033D02*
X159298D01*
X159947D02*
X160213D01*
X160692D02*
X160964D01*
X161178D02*
X161422D01*
X161496D02*
X161762D01*
X162234D02*
X162492D01*
X162823D02*
X163088D01*
X163553D02*
X163819D01*
X164025D02*
X164445D01*
X164659D02*
X164925D01*
X165404D02*
X165677D01*
X166061D02*
X166326D01*
X158517Y104766D02*
X158789D01*
X159033D02*
X159298D01*
X159947D02*
X160213D01*
X160692D02*
X160964D01*
X161178D02*
X161430D01*
X161496D02*
X161762D01*
X162234D02*
X162492D01*
X162823D02*
X163088D01*
X163553D02*
X163819D01*
X164025D02*
X164445D01*
X164659D02*
X164925D01*
X165404D02*
X165677D01*
X166061D02*
X166326D01*
X158517Y104759D02*
X158789D01*
X159033D02*
X159305D01*
X159947D02*
X160213D01*
X160692D02*
X160964D01*
X161178D02*
X161430D01*
X161496D02*
X161762D01*
X162226D02*
X162484D01*
X162830D02*
X163088D01*
X163553D02*
X163819D01*
X164033D02*
X164445D01*
X164659D02*
X164925D01*
X165404D02*
X165677D01*
X166061D02*
X166326D01*
X158517Y104751D02*
X158789D01*
X159040D02*
X159305D01*
X159947D02*
X160213D01*
X160692D02*
X160964D01*
X161186D02*
X161430D01*
X161496D02*
X161762D01*
X162226D02*
X162484D01*
X162830D02*
X163088D01*
X163553D02*
X163819D01*
X164033D02*
X164438D01*
X164659D02*
X164925D01*
X165404D02*
X165677D01*
X166061D02*
X166326D01*
X158517Y104744D02*
X158789D01*
X159040D02*
X159305D01*
X159947D02*
X160213D01*
X160692D02*
X160964D01*
X161186D02*
X161436D01*
X161496D02*
X161762D01*
X162226D02*
X162484D01*
X162830D02*
X163096D01*
X163553D02*
X163819D01*
X164033D02*
X164438D01*
X164659D02*
X164925D01*
X165404D02*
X165677D01*
X166061D02*
X166326D01*
X158517Y104736D02*
X158789D01*
X159040D02*
X159313D01*
X159947D02*
X160213D01*
X160692D02*
X160964D01*
X161193D02*
X161436D01*
X161496D02*
X161762D01*
X162226D02*
X162484D01*
X162830D02*
X163096D01*
X163553D02*
X163819D01*
X164039D02*
X164438D01*
X164659D02*
X164925D01*
X165404D02*
X165677D01*
X166061D02*
X166326D01*
X158517Y104729D02*
X158789D01*
X159047D02*
X159313D01*
X159947D02*
X160213D01*
X160692D02*
X160964D01*
X161193D02*
X161444D01*
X161496D02*
X161762D01*
X162218D02*
X162476D01*
X162830D02*
X163096D01*
X163553D02*
X163819D01*
X164039D02*
X164431D01*
X164659D02*
X164925D01*
X165404D02*
X165677D01*
X166061D02*
X166326D01*
X158517Y104722D02*
X158789D01*
X159047D02*
X159313D01*
X159947D02*
X160213D01*
X160692D02*
X160964D01*
X161193D02*
X161444D01*
X161496D02*
X161762D01*
X162218D02*
X162476D01*
X162838D02*
X163096D01*
X163553D02*
X163819D01*
X164039D02*
X164431D01*
X164659D02*
X164925D01*
X165404D02*
X165677D01*
X166061D02*
X166326D01*
X158517Y104714D02*
X158789D01*
X159047D02*
X159320D01*
X159947D02*
X160213D01*
X160692D02*
X160964D01*
X161200D02*
X161444D01*
X161496D02*
X161762D01*
X162218D02*
X162476D01*
X162838D02*
X163096D01*
X163553D02*
X163819D01*
X164047D02*
X164431D01*
X164659D02*
X164925D01*
X165404D02*
X165677D01*
X166061D02*
X166326D01*
X158517Y104707D02*
X158789D01*
X159055D02*
X159320D01*
X159947D02*
X160213D01*
X160692D02*
X160964D01*
X161200D02*
X161452D01*
X161496D02*
X161762D01*
X162218D02*
X162476D01*
X162838D02*
X163103D01*
X163553D02*
X163819D01*
X164047D02*
X164423D01*
X164659D02*
X164925D01*
X165404D02*
X165677D01*
X166061D02*
X166326D01*
X158517Y104700D02*
X158789D01*
X159055D02*
X159327D01*
X159947D02*
X160213D01*
X160692D02*
X160964D01*
X161200D02*
X161452D01*
X161496D02*
X161762D01*
X162211D02*
X162476D01*
X162838D02*
X163103D01*
X163553D02*
X163819D01*
X164047D02*
X164423D01*
X164659D02*
X164925D01*
X165404D02*
X165677D01*
X166061D02*
X166333D01*
X158517Y104692D02*
X158789D01*
X159055D02*
X159327D01*
X159947D02*
X160213D01*
X160692D02*
X160964D01*
X161208D02*
X161452D01*
X161496D02*
X161762D01*
X162211D02*
X162469D01*
X162838D02*
X163103D01*
X163553D02*
X163819D01*
X164055D02*
X164415D01*
X164659D02*
X164925D01*
X165404D02*
X165677D01*
X166061D02*
X166333D01*
X158517Y104684D02*
X158789D01*
X159055D02*
X159327D01*
X159947D02*
X160213D01*
X160692D02*
X160964D01*
X161208D02*
X161458D01*
X161496D02*
X161762D01*
X162211D02*
X162469D01*
X162845D02*
X163103D01*
X163553D02*
X163819D01*
X164055D02*
X164415D01*
X164659D02*
X164925D01*
X165404D02*
X165677D01*
X166061D02*
X166333D01*
X158517Y104678D02*
X158789D01*
X159062D02*
X159335D01*
X159947D02*
X160213D01*
X160692D02*
X160964D01*
X161216D02*
X161458D01*
X161496D02*
X161762D01*
X162211D02*
X162469D01*
X162845D02*
X163110D01*
X163553D02*
X163819D01*
X164055D02*
X164415D01*
X164659D02*
X164925D01*
X165404D02*
X165677D01*
X166061D02*
X166333D01*
X158517Y104670D02*
X158789D01*
X159062D02*
X159335D01*
X159947D02*
X160213D01*
X160692D02*
X160964D01*
X161216D02*
X161466D01*
X161496D02*
X161762D01*
X162211D02*
X162469D01*
X162845D02*
X163110D01*
X163553D02*
X163819D01*
X164062D02*
X164409D01*
X164659D02*
X164925D01*
X165404D02*
X165677D01*
X166061D02*
X166333D01*
X158517Y104663D02*
X158789D01*
X159062D02*
X159335D01*
X159947D02*
X160213D01*
X160692D02*
X160964D01*
X161216D02*
X161466D01*
X161496D02*
X161762D01*
X162204D02*
X162469D01*
X162845D02*
X163110D01*
X163553D02*
X163819D01*
X164062D02*
X164409D01*
X164659D02*
X164925D01*
X165404D02*
X165677D01*
X166061D02*
X166333D01*
X158517Y104655D02*
X158789D01*
X159069D02*
X159343D01*
X159947D02*
X160213D01*
X160692D02*
X160964D01*
X161222D02*
X161466D01*
X161496D02*
X161762D01*
X162204D02*
X162462D01*
X162845D02*
X163110D01*
X163553D02*
X163819D01*
X164062D02*
X164409D01*
X164659D02*
X164925D01*
X165404D02*
X165677D01*
X166061D02*
X166333D01*
X158517Y104648D02*
X158789D01*
X159069D02*
X159343D01*
X159947D02*
X160213D01*
X160692D02*
X160964D01*
X161222D02*
X161474D01*
X161496D02*
X161762D01*
X162204D02*
X162462D01*
X162853D02*
X163118D01*
X163553D02*
X163819D01*
X164069D02*
X164401D01*
X164659D02*
X164925D01*
X165404D02*
X165677D01*
X166061D02*
X166333D01*
X158517Y104640D02*
X158789D01*
X159069D02*
X159343D01*
X159947D02*
X160213D01*
X160692D02*
X160964D01*
X161222D02*
X161474D01*
X161496D02*
X161762D01*
X162204D02*
X162462D01*
X162853D02*
X163118D01*
X163553D02*
X163819D01*
X164069D02*
X164401D01*
X164659D02*
X164925D01*
X165404D02*
X165677D01*
X166061D02*
X166333D01*
X158517Y104633D02*
X158789D01*
X159077D02*
X159349D01*
X159947D02*
X160213D01*
X160692D02*
X160964D01*
X161230D02*
X161474D01*
X161496D02*
X161762D01*
X162196D02*
X162462D01*
X162853D02*
X163118D01*
X163553D02*
X163819D01*
X164069D02*
X164401D01*
X164659D02*
X164925D01*
X165404D02*
X165677D01*
X166061D02*
X166333D01*
X158517Y104626D02*
X158789D01*
X159077D02*
X159349D01*
X159947D02*
X160213D01*
X160692D02*
X160964D01*
X161230D02*
X161480D01*
X161496D02*
X161762D01*
X162196D02*
X162462D01*
X162853D02*
X163118D01*
X163553D02*
X163819D01*
X164077D02*
X164393D01*
X164659D02*
X164925D01*
X165404D02*
X165677D01*
X166061D02*
X166333D01*
X158517Y104618D02*
X158789D01*
X159077D02*
X159349D01*
X159947D02*
X160213D01*
X160692D02*
X160964D01*
X161238D02*
X161480D01*
X161496D02*
X161762D01*
X162196D02*
X163125D01*
X163553D02*
X163819D01*
X164077D02*
X164393D01*
X164659D02*
X164925D01*
X165404D02*
X165677D01*
X166061D02*
X166333D01*
X158517Y104611D02*
X158789D01*
X159085D02*
X159357D01*
X159947D02*
X160213D01*
X160692D02*
X160964D01*
X161238D02*
X161488D01*
X161496D02*
X161762D01*
X162196D02*
X163125D01*
X163553D02*
X163819D01*
X164077D02*
X164393D01*
X164659D02*
X164925D01*
X165404D02*
X165677D01*
X166061D02*
X166333D01*
X158517Y104604D02*
X158789D01*
X159085D02*
X159357D01*
X159947D02*
X160213D01*
X160692D02*
X160964D01*
X161238D02*
X161488D01*
X161496D02*
X161762D01*
X162189D02*
X163125D01*
X163553D02*
X163819D01*
X164084D02*
X164387D01*
X164659D02*
X164925D01*
X165404D02*
X165677D01*
X166061D02*
X166333D01*
X158517Y104596D02*
X158789D01*
X159085D02*
X159357D01*
X159947D02*
X160213D01*
X160692D02*
X160964D01*
X161244D02*
X161488D01*
X161496D02*
X161762D01*
X162189D02*
X163125D01*
X163553D02*
X163819D01*
X164084D02*
X164387D01*
X164659D02*
X164925D01*
X165404D02*
X165677D01*
X166061D02*
X166333D01*
X158517Y104588D02*
X158789D01*
X159091D02*
X159365D01*
X159947D02*
X160213D01*
X160692D02*
X160964D01*
X161244D02*
X161762D01*
X162189D02*
X163125D01*
X163553D02*
X163819D01*
X164084D02*
X164387D01*
X164659D02*
X164925D01*
X165404D02*
X165677D01*
X166061D02*
X166333D01*
X158517Y104581D02*
X158789D01*
X159091D02*
X159365D01*
X159947D02*
X160213D01*
X160692D02*
X160964D01*
X161244D02*
X161762D01*
X162189D02*
X163133D01*
X163553D02*
X163819D01*
X164091D02*
X164379D01*
X164659D02*
X164925D01*
X165404D02*
X165677D01*
X166061D02*
X166333D01*
X158517Y104574D02*
X158789D01*
X159091D02*
X159365D01*
X159947D02*
X160213D01*
X160692D02*
X160964D01*
X161252D02*
X161762D01*
X162189D02*
X163133D01*
X163553D02*
X163819D01*
X164091D02*
X164379D01*
X164659D02*
X164925D01*
X165404D02*
X165677D01*
X166061D02*
X166333D01*
X158517Y104567D02*
X158789D01*
X159099D02*
X159372D01*
X159947D02*
X160213D01*
X160692D02*
X160964D01*
X161252D02*
X161762D01*
X162182D02*
X163133D01*
X163553D02*
X163819D01*
X164091D02*
X164379D01*
X164659D02*
X164925D01*
X165404D02*
X165677D01*
X166061D02*
X166333D01*
X158517Y104559D02*
X158789D01*
X159099D02*
X159372D01*
X159947D02*
X160213D01*
X160692D02*
X160964D01*
X161260D02*
X161762D01*
X162182D02*
X163133D01*
X163553D02*
X163819D01*
X164099D02*
X164371D01*
X164659D02*
X164925D01*
X165404D02*
X165677D01*
X166061D02*
X166333D01*
X158517Y104552D02*
X158789D01*
X159099D02*
X159372D01*
X159947D02*
X160213D01*
X160692D02*
X160964D01*
X161260D02*
X161762D01*
X162182D02*
X163140D01*
X163553D02*
X163819D01*
X164099D02*
X164371D01*
X164659D02*
X164925D01*
X165404D02*
X165677D01*
X166061D02*
X166333D01*
X158517Y104545D02*
X158789D01*
X159107D02*
X159379D01*
X159947D02*
X160213D01*
X160692D02*
X160964D01*
X161260D02*
X161762D01*
X162182D02*
X163140D01*
X163553D02*
X163819D01*
X164099D02*
X164371D01*
X164659D02*
X164925D01*
X165404D02*
X165677D01*
X166061D02*
X166333D01*
X158517Y104537D02*
X158789D01*
X159107D02*
X159379D01*
X159947D02*
X160213D01*
X160692D02*
X160964D01*
X161267D02*
X161762D01*
X162174D02*
X163140D01*
X163553D02*
X163819D01*
X164107D02*
X164365D01*
X164659D02*
X164925D01*
X165404D02*
X165677D01*
X166061D02*
X166333D01*
X158517Y104530D02*
X158789D01*
X159107D02*
X159379D01*
X159947D02*
X160213D01*
X160692D02*
X160964D01*
X161267D02*
X161762D01*
X162174D02*
X163140D01*
X163553D02*
X163819D01*
X164107D02*
X164365D01*
X164659D02*
X164925D01*
X165404D02*
X165677D01*
X166068D02*
X166333D01*
X158517Y104522D02*
X158789D01*
X159113D02*
X159387D01*
X159947D02*
X160213D01*
X160692D02*
X160964D01*
X161267D02*
X161762D01*
X162174D02*
X163147D01*
X163553D02*
X163819D01*
X164113D02*
X164365D01*
X164659D02*
X164925D01*
X165404D02*
X165677D01*
X166068D02*
X166333D01*
X158517Y104515D02*
X158789D01*
X159113D02*
X159387D01*
X159947D02*
X160213D01*
X160692D02*
X160964D01*
X161274D02*
X161762D01*
X162174D02*
X163147D01*
X163553D02*
X163819D01*
X164113D02*
X164357D01*
X164659D02*
X164925D01*
X165404D02*
X165677D01*
X166068D02*
X166333D01*
X158517Y104508D02*
X158789D01*
X159113D02*
X159387D01*
X159947D02*
X160213D01*
X160692D02*
X160964D01*
X161274D02*
X161762D01*
X162167D02*
X163147D01*
X163553D02*
X163819D01*
X164113D02*
X164357D01*
X164659D02*
X164925D01*
X165404D02*
X165677D01*
X166068D02*
X166333D01*
X158517Y104501D02*
X158789D01*
X159113D02*
X159394D01*
X159947D02*
X160213D01*
X160692D02*
X160964D01*
X161282D02*
X161762D01*
X162167D02*
X163147D01*
X163553D02*
X163819D01*
X164121D02*
X164357D01*
X164659D02*
X164925D01*
X165404D02*
X165677D01*
X166068D02*
X166340D01*
X158517Y104493D02*
X158789D01*
X159121D02*
X159394D01*
X159947D02*
X160213D01*
X160692D02*
X160964D01*
X161282D02*
X161762D01*
X162167D02*
X163147D01*
X163553D02*
X163819D01*
X164121D02*
X164349D01*
X164659D02*
X164925D01*
X165404D02*
X165677D01*
X166068D02*
X166340D01*
X158517Y104486D02*
X158789D01*
X159121D02*
X159394D01*
X159947D02*
X160213D01*
X160692D02*
X160964D01*
X161282D02*
X161762D01*
X162167D02*
X163155D01*
X163553D02*
X163819D01*
X164121D02*
X164349D01*
X164659D02*
X164925D01*
X165404D02*
X165677D01*
X166068D02*
X166340D01*
X158517Y104478D02*
X158789D01*
X159121D02*
X159401D01*
X159947D02*
X160213D01*
X160692D02*
X160964D01*
X161289D02*
X161762D01*
X162159D02*
X163155D01*
X163553D02*
X163819D01*
X164129D02*
X164349D01*
X164659D02*
X164925D01*
X165404D02*
X165677D01*
X166068D02*
X166340D01*
X158517Y104471D02*
X158789D01*
X159129D02*
X159401D01*
X159947D02*
X160213D01*
X160692D02*
X160964D01*
X161289D02*
X161762D01*
X162159D02*
X163155D01*
X163553D02*
X163819D01*
X164129D02*
X164342D01*
X164659D02*
X164925D01*
X165404D02*
X165677D01*
X166068D02*
X166340D01*
X158517Y104464D02*
X158789D01*
X159129D02*
X159401D01*
X159947D02*
X160213D01*
X160692D02*
X160964D01*
X161296D02*
X161762D01*
X162159D02*
X163155D01*
X163553D02*
X163819D01*
X164129D02*
X164342D01*
X164659D02*
X164925D01*
X165404D02*
X165677D01*
X166068D02*
X166340D01*
X158517Y104456D02*
X158789D01*
X159129D02*
X159409D01*
X159947D02*
X160213D01*
X160692D02*
X160964D01*
X161296D02*
X161762D01*
X162159D02*
X163162D01*
X163553D02*
X163819D01*
X164135D02*
X164342D01*
X164659D02*
X164925D01*
X165404D02*
X165677D01*
X166068D02*
X166340D01*
X158517Y104449D02*
X158789D01*
X159135D02*
X159409D01*
X159947D02*
X160213D01*
X160692D02*
X160964D01*
X161296D02*
X161762D01*
X162159D02*
X163162D01*
X163553D02*
X163819D01*
X164135D02*
X164335D01*
X164659D02*
X164925D01*
X165404D02*
X165677D01*
X166068D02*
X166340D01*
X158517Y104442D02*
X158789D01*
X159135D02*
X159409D01*
X159947D02*
X160213D01*
X160692D02*
X160964D01*
X161304D02*
X161762D01*
X162152D02*
X163162D01*
X163553D02*
X163819D01*
X164135D02*
X164335D01*
X164659D02*
X164925D01*
X165404D02*
X165677D01*
X166068D02*
X166340D01*
X158517Y104434D02*
X158789D01*
X159135D02*
X159416D01*
X159947D02*
X160213D01*
X160692D02*
X160964D01*
X161304D02*
X161762D01*
X162152D02*
X163162D01*
X163553D02*
X163819D01*
X164143D02*
X164335D01*
X164659D02*
X164925D01*
X165404D02*
X165677D01*
X166068D02*
X166340D01*
X158517Y104426D02*
X158789D01*
X159143D02*
X159416D01*
X159947D02*
X160213D01*
X160692D02*
X160964D01*
X161304D02*
X161762D01*
X162152D02*
X163170D01*
X163553D02*
X163819D01*
X164143D02*
X164327D01*
X164659D02*
X164925D01*
X165404D02*
X165677D01*
X166068D02*
X166340D01*
X158517Y104420D02*
X158789D01*
X159143D02*
X159416D01*
X159947D02*
X160213D01*
X160692D02*
X160964D01*
X161312D02*
X161762D01*
X162152D02*
X163170D01*
X163553D02*
X163819D01*
X164143D02*
X164327D01*
X164659D02*
X164925D01*
X165404D02*
X165677D01*
X166075D02*
X166340D01*
X158517Y104412D02*
X158789D01*
X159143D02*
X159423D01*
X159947D02*
X160213D01*
X160692D02*
X160964D01*
X161312D02*
X161762D01*
X162144D02*
X163170D01*
X163553D02*
X163819D01*
X164151D02*
X164327D01*
X164659D02*
X164925D01*
X165404D02*
X165677D01*
X166075D02*
X166348D01*
X166828D02*
X167100D01*
X158517Y104405D02*
X158789D01*
X159151D02*
X159423D01*
X159947D02*
X160213D01*
X160692D02*
X160964D01*
X161318D02*
X161762D01*
X162144D02*
X163170D01*
X163553D02*
X163819D01*
X164151D02*
X164320D01*
X164659D02*
X164925D01*
X165404D02*
X165677D01*
X166075D02*
X166348D01*
X166828D02*
X167100D01*
X158517Y104397D02*
X158789D01*
X159151D02*
X159423D01*
X159947D02*
X160213D01*
X160692D02*
X160964D01*
X161318D02*
X161762D01*
X162144D02*
X163170D01*
X163553D02*
X163819D01*
X164659D02*
X164925D01*
X165404D02*
X165677D01*
X166075D02*
X166348D01*
X166828D02*
X167100D01*
X158517Y104390D02*
X158789D01*
X159151D02*
X159431D01*
X159947D02*
X160213D01*
X160692D02*
X160964D01*
X161318D02*
X161762D01*
X162144D02*
X163177D01*
X163553D02*
X163819D01*
X164659D02*
X164925D01*
X165404D02*
X165677D01*
X166075D02*
X166348D01*
X166828D02*
X167100D01*
X158517Y104382D02*
X158789D01*
X159157D02*
X159431D01*
X159947D02*
X160213D01*
X160692D02*
X160964D01*
X161326D02*
X161762D01*
X162138D02*
X162410D01*
X162904D02*
X163177D01*
X163553D02*
X163819D01*
X164659D02*
X164925D01*
X165404D02*
X165677D01*
X166075D02*
X166348D01*
X166828D02*
X167100D01*
X158517Y104375D02*
X158789D01*
X159157D02*
X159431D01*
X159947D02*
X160213D01*
X160692D02*
X160964D01*
X161326D02*
X161762D01*
X162138D02*
X162410D01*
X162904D02*
X163177D01*
X163553D02*
X163819D01*
X164659D02*
X164925D01*
X165404D02*
X165677D01*
X166075D02*
X166348D01*
X166828D02*
X167100D01*
X158517Y104368D02*
X158789D01*
X159157D02*
X159439D01*
X159947D02*
X160213D01*
X160692D02*
X160964D01*
X161326D02*
X161762D01*
X162138D02*
X162402D01*
X162904D02*
X163177D01*
X163553D02*
X163819D01*
X164659D02*
X164925D01*
X165404D02*
X165677D01*
X166075D02*
X166348D01*
X166828D02*
X167100D01*
X158517Y104360D02*
X158789D01*
X159165D02*
X159439D01*
X159947D02*
X160213D01*
X160692D02*
X160964D01*
X161334D02*
X161762D01*
X162138D02*
X162402D01*
X162912D02*
X163184D01*
X163553D02*
X163819D01*
X164659D02*
X164925D01*
X165404D02*
X165677D01*
X166075D02*
X166348D01*
X166828D02*
X167100D01*
X158517Y104353D02*
X158789D01*
X159165D02*
X159439D01*
X159947D02*
X160213D01*
X160692D02*
X160964D01*
X161334D02*
X161762D01*
X162138D02*
X162402D01*
X162912D02*
X163184D01*
X163553D02*
X163819D01*
X164659D02*
X164925D01*
X165404D02*
X165677D01*
X166082D02*
X166356D01*
X166828D02*
X167100D01*
X158517Y104346D02*
X158789D01*
X159165D02*
X159445D01*
X159947D02*
X160213D01*
X160692D02*
X160964D01*
X161340D02*
X161762D01*
X162130D02*
X162402D01*
X162912D02*
X163184D01*
X163553D02*
X163819D01*
X164659D02*
X164925D01*
X165404D02*
X165677D01*
X166082D02*
X166356D01*
X166828D02*
X167100D01*
X158517Y104338D02*
X158789D01*
X159173D02*
X159445D01*
X159947D02*
X160213D01*
X160692D02*
X160964D01*
X161340D02*
X161762D01*
X162130D02*
X162402D01*
X162912D02*
X163184D01*
X163553D02*
X163819D01*
X164659D02*
X164925D01*
X165404D02*
X165677D01*
X166082D02*
X166356D01*
X166828D02*
X167093D01*
X158517Y104330D02*
X158789D01*
X159173D02*
X159445D01*
X159947D02*
X160213D01*
X160692D02*
X160964D01*
X161340D02*
X161762D01*
X162130D02*
X162396D01*
X162912D02*
X163192D01*
X163553D02*
X163819D01*
X164659D02*
X164925D01*
X165404D02*
X165677D01*
X166082D02*
X166356D01*
X166828D02*
X167093D01*
X158517Y104323D02*
X158789D01*
X159173D02*
X159453D01*
X159947D02*
X160213D01*
X160692D02*
X160964D01*
X161348D02*
X161762D01*
X162130D02*
X162396D01*
X162919D02*
X163192D01*
X163553D02*
X163819D01*
X164659D02*
X164925D01*
X165404D02*
X165677D01*
X166082D02*
X166356D01*
X166820D02*
X167093D01*
X158517Y104316D02*
X158789D01*
X159173D02*
X159453D01*
X159947D02*
X160213D01*
X160692D02*
X160964D01*
X161348D02*
X161762D01*
X162122D02*
X162396D01*
X162919D02*
X163192D01*
X163553D02*
X163819D01*
X164659D02*
X164925D01*
X165404D02*
X165677D01*
X166082D02*
X166362D01*
X166820D02*
X167093D01*
X158517Y104309D02*
X158789D01*
X159179D02*
X159453D01*
X159947D02*
X160213D01*
X160692D02*
X160964D01*
X161348D02*
X161762D01*
X162122D02*
X162396D01*
X162919D02*
X163192D01*
X163553D02*
X163819D01*
X164659D02*
X164925D01*
X165404D02*
X165677D01*
X166082D02*
X166362D01*
X166820D02*
X167093D01*
X158517Y104301D02*
X158789D01*
X159179D02*
X159460D01*
X159947D02*
X160213D01*
X160692D02*
X160964D01*
X161356D02*
X161762D01*
X162122D02*
X162396D01*
X162919D02*
X163192D01*
X163553D02*
X163819D01*
X164659D02*
X164925D01*
X165404D02*
X165677D01*
X166090D02*
X166362D01*
X166820D02*
X167093D01*
X158517Y104294D02*
X158789D01*
X159179D02*
X159460D01*
X159947D02*
X160213D01*
X160692D02*
X160964D01*
X161356D02*
X161762D01*
X162122D02*
X162388D01*
X162926D02*
X163199D01*
X163553D02*
X163819D01*
X164659D02*
X164925D01*
X165404D02*
X165677D01*
X166090D02*
X166362D01*
X166820D02*
X167093D01*
X158517Y104287D02*
X158789D01*
X159187D02*
X159460D01*
X159947D02*
X160213D01*
X160692D02*
X160964D01*
X161363D02*
X161762D01*
X162115D02*
X162388D01*
X162926D02*
X163199D01*
X163553D02*
X163819D01*
X164659D02*
X164925D01*
X165404D02*
X165677D01*
X166090D02*
X166370D01*
X166812D02*
X167093D01*
X158517Y104279D02*
X158789D01*
X159187D02*
X159467D01*
X159947D02*
X160213D01*
X160692D02*
X160964D01*
X161363D02*
X161762D01*
X162115D02*
X162388D01*
X162926D02*
X163199D01*
X163553D02*
X163819D01*
X164659D02*
X164925D01*
X165404D02*
X165677D01*
X166090D02*
X166370D01*
X166812D02*
X167086D01*
X158517Y104272D02*
X158789D01*
X159187D02*
X159467D01*
X159947D02*
X160213D01*
X160692D02*
X160964D01*
X161363D02*
X161762D01*
X162115D02*
X162388D01*
X162926D02*
X163199D01*
X163553D02*
X163819D01*
X164659D02*
X164925D01*
X165404D02*
X165677D01*
X166090D02*
X166370D01*
X166812D02*
X167086D01*
X158517Y104264D02*
X158789D01*
X159195D02*
X159467D01*
X159947D02*
X160213D01*
X160692D02*
X160964D01*
X161370D02*
X161762D01*
X162115D02*
X162388D01*
X162926D02*
X163207D01*
X163553D02*
X163819D01*
X164659D02*
X164925D01*
X165404D02*
X165677D01*
X166090D02*
X166370D01*
X166812D02*
X167086D01*
X158517Y104257D02*
X158789D01*
X159195D02*
X159475D01*
X159947D02*
X160213D01*
X160692D02*
X160964D01*
X161370D02*
X161762D01*
X162108D02*
X162380D01*
X162934D02*
X163207D01*
X163553D02*
X163819D01*
X164659D02*
X164925D01*
X165404D02*
X165677D01*
X166098D02*
X166378D01*
X166805D02*
X167086D01*
X158517Y104250D02*
X158789D01*
X159195D02*
X159475D01*
X159947D02*
X160213D01*
X160692D02*
X160964D01*
X161370D02*
X161762D01*
X162108D02*
X162380D01*
X162934D02*
X163207D01*
X163553D02*
X163819D01*
X164659D02*
X164925D01*
X165404D02*
X165677D01*
X166098D02*
X166378D01*
X166805D02*
X167086D01*
X158517Y104242D02*
X158789D01*
X159202D02*
X159475D01*
X159947D02*
X160213D01*
X160692D02*
X160964D01*
X161378D02*
X161762D01*
X162108D02*
X162380D01*
X162934D02*
X163207D01*
X163553D02*
X163819D01*
X164659D02*
X164925D01*
X165404D02*
X165677D01*
X166098D02*
X166378D01*
X166797D02*
X167078D01*
X158517Y104235D02*
X158789D01*
X159202D02*
X159482D01*
X159947D02*
X160213D01*
X160692D02*
X160964D01*
X161378D02*
X161762D01*
X162108D02*
X162380D01*
X162934D02*
X163213D01*
X163553D02*
X163819D01*
X164659D02*
X164925D01*
X165404D02*
X165677D01*
X166098D02*
X166385D01*
X166797D02*
X167078D01*
X158517Y104227D02*
X158789D01*
X159202D02*
X159482D01*
X159947D02*
X160213D01*
X160692D02*
X160964D01*
X161385D02*
X161762D01*
X162108D02*
X162380D01*
X162934D02*
X163213D01*
X163553D02*
X163819D01*
X164659D02*
X164925D01*
X165404D02*
X165677D01*
X166104D02*
X166385D01*
X166797D02*
X167078D01*
X158517Y104220D02*
X158789D01*
X159209D02*
X159482D01*
X159947D02*
X160213D01*
X160692D02*
X160964D01*
X161385D02*
X161762D01*
X162100D02*
X162373D01*
X162941D02*
X163213D01*
X163553D02*
X163819D01*
X164659D02*
X164925D01*
X165404D02*
X165677D01*
X166104D02*
X166392D01*
X166790D02*
X167078D01*
X158517Y104213D02*
X158789D01*
X159209D02*
X159489D01*
X159947D02*
X160213D01*
X160692D02*
X160964D01*
X161385D02*
X161762D01*
X162100D02*
X162373D01*
X162941D02*
X163213D01*
X163553D02*
X163819D01*
X164659D02*
X164925D01*
X165404D02*
X165677D01*
X166104D02*
X166392D01*
X166790D02*
X167070D01*
X158517Y104205D02*
X158789D01*
X159209D02*
X159489D01*
X159947D02*
X160213D01*
X160692D02*
X160964D01*
X161392D02*
X161762D01*
X162100D02*
X162373D01*
X162941D02*
X163213D01*
X163553D02*
X163819D01*
X164659D02*
X164925D01*
X165404D02*
X165677D01*
X166104D02*
X166400D01*
X166783D02*
X167070D01*
X158517Y104198D02*
X158789D01*
X159217D02*
X159489D01*
X159947D02*
X160213D01*
X160692D02*
X160964D01*
X161392D02*
X161762D01*
X162100D02*
X162373D01*
X162941D02*
X163221D01*
X163553D02*
X163819D01*
X164659D02*
X164925D01*
X165404D02*
X165677D01*
X166112D02*
X166400D01*
X166783D02*
X167070D01*
X158517Y104191D02*
X158789D01*
X159217D02*
X159497D01*
X159947D02*
X160213D01*
X160692D02*
X160964D01*
X161392D02*
X161762D01*
X162093D02*
X162373D01*
X162941D02*
X163221D01*
X163553D02*
X163819D01*
X164659D02*
X164925D01*
X165404D02*
X165677D01*
X166112D02*
X166406D01*
X166776D02*
X167070D01*
X158517Y104183D02*
X158789D01*
X159217D02*
X159497D01*
X159947D02*
X160213D01*
X160692D02*
X160964D01*
X161400D02*
X161762D01*
X162093D02*
X162366D01*
X162949D02*
X163221D01*
X163553D02*
X163819D01*
X164659D02*
X164925D01*
X165404D02*
X165677D01*
X166112D02*
X166406D01*
X166769D02*
X167064D01*
X158517Y104176D02*
X158789D01*
X159225D02*
X159497D01*
X159947D02*
X160213D01*
X160692D02*
X160964D01*
X161400D02*
X161762D01*
X162093D02*
X162366D01*
X162949D02*
X163221D01*
X163553D02*
X163819D01*
X164659D02*
X164925D01*
X165404D02*
X165677D01*
X166120D02*
X166414D01*
X166769D02*
X167064D01*
X158517Y104168D02*
X158789D01*
X159225D02*
X159505D01*
X159947D02*
X160213D01*
X160692D02*
X160964D01*
X161408D02*
X161762D01*
X162093D02*
X162366D01*
X162949D02*
X163229D01*
X163553D02*
X163819D01*
X164659D02*
X164925D01*
X165404D02*
X165677D01*
X166120D02*
X166422D01*
X166761D02*
X167064D01*
X158517Y104161D02*
X158789D01*
X159225D02*
X159505D01*
X159947D02*
X160213D01*
X160692D02*
X160964D01*
X161408D02*
X161762D01*
X162086D02*
X162366D01*
X162949D02*
X163229D01*
X163553D02*
X163819D01*
X164659D02*
X164925D01*
X165404D02*
X165677D01*
X166120D02*
X166430D01*
X166754D02*
X167056D01*
X158517Y104154D02*
X158789D01*
X159231D02*
X159505D01*
X159947D02*
X160213D01*
X160692D02*
X160964D01*
X161408D02*
X161762D01*
X162086D02*
X162366D01*
X162949D02*
X163229D01*
X163553D02*
X163819D01*
X164659D02*
X164925D01*
X165404D02*
X165677D01*
X166127D02*
X166436D01*
X166746D02*
X167056D01*
X158517Y104147D02*
X158789D01*
X159231D02*
X159511D01*
X159947D02*
X160213D01*
X160692D02*
X160964D01*
X161414D02*
X161762D01*
X162086D02*
X162358D01*
X162955D02*
X163229D01*
X163553D02*
X163819D01*
X164659D02*
X164925D01*
X165404D02*
X165677D01*
X166127D02*
X166436D01*
X166738D02*
X167048D01*
X158517Y104139D02*
X158789D01*
X159231D02*
X159511D01*
X159947D02*
X160213D01*
X160692D02*
X160964D01*
X161414D02*
X161762D01*
X162086D02*
X162358D01*
X162955D02*
X163236D01*
X163553D02*
X163819D01*
X164659D02*
X164925D01*
X165404D02*
X165677D01*
X166127D02*
X166452D01*
X166732D02*
X167048D01*
X158517Y104132D02*
X158789D01*
X159231D02*
X159511D01*
X159947D02*
X160213D01*
X160692D02*
X160964D01*
X161422D02*
X161762D01*
X162086D02*
X162358D01*
X162955D02*
X163236D01*
X163553D02*
X163819D01*
X164659D02*
X164925D01*
X165404D02*
X165677D01*
X166135D02*
X166459D01*
X166724D02*
X167048D01*
X158517Y104125D02*
X158789D01*
X159239D02*
X159519D01*
X159947D02*
X160213D01*
X160692D02*
X160964D01*
X161422D02*
X161762D01*
X162078D02*
X162358D01*
X162955D02*
X163236D01*
X163553D02*
X163819D01*
X164659D02*
X164925D01*
X165404D02*
X165677D01*
X166135D02*
X166466D01*
X166716D02*
X167041D01*
X158517Y104117D02*
X158789D01*
X159239D02*
X159519D01*
X159947D02*
X160213D01*
X160692D02*
X160964D01*
X161422D02*
X161762D01*
X162078D02*
X162351D01*
X162955D02*
X163236D01*
X163553D02*
X163819D01*
X164659D02*
X164925D01*
X165404D02*
X165677D01*
X166142D02*
X166480D01*
X166702D02*
X167041D01*
X158517Y104110D02*
X158789D01*
X159239D02*
X159519D01*
X159947D02*
X160213D01*
X160692D02*
X160964D01*
X161430D02*
X161762D01*
X162078D02*
X162351D01*
X162963D02*
X163236D01*
X163553D02*
X163819D01*
X164659D02*
X164925D01*
X165404D02*
X165677D01*
X166142D02*
X166496D01*
X166688D02*
X167033D01*
X158517Y104102D02*
X158789D01*
X159247D02*
X159527D01*
X159947D02*
X160213D01*
X160692D02*
X160964D01*
X161430D02*
X161762D01*
X162078D02*
X162351D01*
X162963D02*
X163243D01*
X163553D02*
X163819D01*
X164659D02*
X164925D01*
X165404D02*
X165677D01*
X166149D02*
X166510D01*
X166672D02*
X167033D01*
X158517Y104095D02*
X158789D01*
X159247D02*
X159527D01*
X159947D02*
X160213D01*
X160692D02*
X160964D01*
X161430D02*
X161762D01*
X162071D02*
X162351D01*
X162963D02*
X163243D01*
X163553D02*
X163819D01*
X164659D02*
X164925D01*
X165404D02*
X165677D01*
X166149D02*
X166532D01*
X166650D02*
X167026D01*
X158517Y104088D02*
X158789D01*
X159247D02*
X159527D01*
X159947D02*
X160213D01*
X160692D02*
X160964D01*
X161436D02*
X161762D01*
X162071D02*
X162351D01*
X162963D02*
X163243D01*
X163553D02*
X163819D01*
X164659D02*
X164925D01*
X165404D02*
X165677D01*
X166156D02*
X167026D01*
X158517Y104080D02*
X158789D01*
X159253D02*
X159533D01*
X159947D02*
X160213D01*
X160692D02*
X160964D01*
X161436D02*
X161762D01*
X162071D02*
X162344D01*
X162963D02*
X163243D01*
X163553D02*
X163819D01*
X164659D02*
X164925D01*
X165404D02*
X165677D01*
X166156D02*
X167020D01*
X158517Y104073D02*
X158789D01*
X159253D02*
X159533D01*
X159947D02*
X160213D01*
X160692D02*
X160964D01*
X161444D02*
X161762D01*
X162071D02*
X162344D01*
X162971D02*
X163251D01*
X163553D02*
X163819D01*
X164659D02*
X164925D01*
X165404D02*
X165677D01*
X166164D02*
X167020D01*
X158517Y104066D02*
X158789D01*
X159253D02*
X159541D01*
X159947D02*
X160213D01*
X160692D02*
X160964D01*
X161444D02*
X161762D01*
X162064D02*
X162344D01*
X162971D02*
X163251D01*
X163553D02*
X163819D01*
X164659D02*
X164925D01*
X165404D02*
X165677D01*
X166171D02*
X167012D01*
X158517Y104058D02*
X158789D01*
X159261D02*
X159541D01*
X159947D02*
X160213D01*
X160692D02*
X160964D01*
X161444D02*
X161762D01*
X162064D02*
X162344D01*
X162971D02*
X163251D01*
X163553D02*
X163819D01*
X164659D02*
X164925D01*
X165404D02*
X165677D01*
X166171D02*
X167012D01*
X158517Y104051D02*
X158789D01*
X159261D02*
X159541D01*
X159947D02*
X160213D01*
X160692D02*
X160964D01*
X161452D02*
X161762D01*
X162064D02*
X162344D01*
X162971D02*
X163251D01*
X163553D02*
X163819D01*
X164659D02*
X164925D01*
X165404D02*
X165677D01*
X166178D02*
X167004D01*
X158517Y104043D02*
X158789D01*
X159261D02*
X159549D01*
X159947D02*
X160213D01*
X160692D02*
X160964D01*
X161452D02*
X161762D01*
X162064D02*
X162336D01*
X162971D02*
X163258D01*
X163553D02*
X163819D01*
X164659D02*
X164925D01*
X165404D02*
X165677D01*
X166186D02*
X166998D01*
X158517Y104036D02*
X158789D01*
X159269D02*
X159549D01*
X159947D02*
X160213D01*
X160692D02*
X160964D01*
X161452D02*
X161762D01*
X162056D02*
X162336D01*
X162978D02*
X163258D01*
X163553D02*
X163819D01*
X164659D02*
X164925D01*
X165404D02*
X165677D01*
X166186D02*
X166998D01*
X158517Y104029D02*
X158789D01*
X159269D02*
X159549D01*
X159947D02*
X160213D01*
X160692D02*
X160964D01*
X161458D02*
X161762D01*
X162056D02*
X162336D01*
X162978D02*
X163258D01*
X163553D02*
X163819D01*
X164659D02*
X164925D01*
X165404D02*
X165677D01*
X166194D02*
X166990D01*
X158517Y104021D02*
X158789D01*
X159269D02*
X159556D01*
X159947D02*
X160213D01*
X160692D02*
X160964D01*
X161458D02*
X161762D01*
X162056D02*
X162336D01*
X162978D02*
X163258D01*
X163553D02*
X163819D01*
X164659D02*
X164925D01*
X165404D02*
X165677D01*
X166200D02*
X166982D01*
X158517Y104014D02*
X158789D01*
X159275D02*
X159556D01*
X159947D02*
X160213D01*
X160692D02*
X160964D01*
X161466D02*
X161762D01*
X162056D02*
X162336D01*
X162978D02*
X163258D01*
X163553D02*
X163819D01*
X164659D02*
X164925D01*
X165404D02*
X165677D01*
X166208D02*
X166975D01*
X158517Y104006D02*
X158789D01*
X159275D02*
X159556D01*
X159947D02*
X160213D01*
X160692D02*
X160964D01*
X161466D02*
X161762D01*
X162056D02*
X162328D01*
X162978D02*
X163265D01*
X163553D02*
X163819D01*
X164659D02*
X164925D01*
X165404D02*
X165677D01*
X166216D02*
X166975D01*
X158517Y103999D02*
X158789D01*
X159275D02*
X159563D01*
X159947D02*
X160213D01*
X160692D02*
X160964D01*
X161466D02*
X161762D01*
X162048D02*
X162328D01*
X162985D02*
X163265D01*
X163553D02*
X163819D01*
X164659D02*
X164925D01*
X165404D02*
X165677D01*
X166216D02*
X166967D01*
X158517Y103992D02*
X158789D01*
X159283D02*
X159563D01*
X159947D02*
X160213D01*
X160692D02*
X160964D01*
X161474D02*
X161762D01*
X162048D02*
X162328D01*
X162985D02*
X163265D01*
X163553D02*
X163819D01*
X164659D02*
X164925D01*
X165404D02*
X165677D01*
X166223D02*
X166960D01*
X158517Y103984D02*
X158789D01*
X159283D02*
X159563D01*
X159947D02*
X160213D01*
X160692D02*
X160964D01*
X161474D02*
X161762D01*
X162048D02*
X162328D01*
X162985D02*
X163265D01*
X163553D02*
X163819D01*
X164659D02*
X164925D01*
X165404D02*
X165677D01*
X166230D02*
X166953D01*
X158517Y103977D02*
X158789D01*
X159283D02*
X159571D01*
X159947D02*
X160213D01*
X160692D02*
X160964D01*
X161474D02*
X161762D01*
X162048D02*
X162328D01*
X162985D02*
X163273D01*
X163553D02*
X163819D01*
X164659D02*
X164925D01*
X165404D02*
X165677D01*
X166238D02*
X166945D01*
X158517Y103969D02*
X158789D01*
X159291D02*
X159571D01*
X159947D02*
X160213D01*
X160692D02*
X160964D01*
X161480D02*
X161762D01*
X162042D02*
X162322D01*
X162985D02*
X163273D01*
X163553D02*
X163819D01*
X164659D02*
X164925D01*
X165404D02*
X165677D01*
X166244D02*
X166938D01*
X158517Y103962D02*
X158789D01*
X159291D02*
X159571D01*
X159947D02*
X160213D01*
X160692D02*
X160964D01*
X161480D02*
X161762D01*
X162042D02*
X162322D01*
X162993D02*
X163273D01*
X163553D02*
X163819D01*
X164659D02*
X164925D01*
X165404D02*
X165677D01*
X166252D02*
X166931D01*
X158517Y103955D02*
X158789D01*
X159291D02*
X159578D01*
X159947D02*
X160213D01*
X160692D02*
X160964D01*
X161488D02*
X161762D01*
X162042D02*
X162322D01*
X162993D02*
X163273D01*
X163553D02*
X163819D01*
X164659D02*
X164925D01*
X165404D02*
X165677D01*
X166266D02*
X166924D01*
X158517Y103947D02*
X158789D01*
X159298D02*
X159578D01*
X159947D02*
X160213D01*
X160692D02*
X160964D01*
X161488D02*
X161762D01*
X162042D02*
X162322D01*
X162993D02*
X163280D01*
X163553D02*
X163819D01*
X164659D02*
X164925D01*
X165404D02*
X165677D01*
X166274D02*
X166916D01*
X158517Y103940D02*
X158789D01*
X159298D02*
X159578D01*
X159947D02*
X160213D01*
X160692D02*
X160964D01*
X161488D02*
X161762D01*
X162034D02*
X162322D01*
X162993D02*
X163280D01*
X163553D02*
X163819D01*
X164659D02*
X164925D01*
X165404D02*
X165677D01*
X166282D02*
X166902D01*
X158517Y103933D02*
X158789D01*
X159298D02*
X159585D01*
X159947D02*
X160213D01*
X160692D02*
X160964D01*
X161496D02*
X161762D01*
X162034D02*
X162314D01*
X162993D02*
X163280D01*
X163553D02*
X163819D01*
X164659D02*
X164925D01*
X165404D02*
X165677D01*
X166289D02*
X166894D01*
X158517Y103925D02*
X158789D01*
X159298D02*
X159585D01*
X159947D02*
X160213D01*
X160692D02*
X160964D01*
X161496D02*
X161762D01*
X162034D02*
X162314D01*
X163000D02*
X163280D01*
X163553D02*
X163819D01*
X164659D02*
X164925D01*
X165404D02*
X165677D01*
X166304D02*
X166886D01*
X158517Y103918D02*
X158789D01*
X159305D02*
X159585D01*
X159947D02*
X160213D01*
X160692D02*
X160964D01*
X161496D02*
X161762D01*
X162034D02*
X162314D01*
X163000D02*
X163287D01*
X163553D02*
X163819D01*
X164659D02*
X164925D01*
X165404D02*
X165677D01*
X166311D02*
X166871D01*
X158517Y103910D02*
X158789D01*
X159305D02*
X159593D01*
X159947D02*
X160213D01*
X160692D02*
X160964D01*
X161502D02*
X161762D01*
X162034D02*
X162314D01*
X163000D02*
X163287D01*
X163553D02*
X163819D01*
X164659D02*
X164925D01*
X165404D02*
X165677D01*
X166326D02*
X166864D01*
X158517Y103903D02*
X158789D01*
X159305D02*
X159593D01*
X159947D02*
X160213D01*
X160692D02*
X160964D01*
X161502D02*
X161762D01*
X162026D02*
X162314D01*
X163000D02*
X163287D01*
X163553D02*
X163819D01*
X164659D02*
X164925D01*
X165404D02*
X165677D01*
X166340D02*
X166850D01*
X158517Y103896D02*
X158789D01*
X159313D02*
X159593D01*
X159947D02*
X160213D01*
X160692D02*
X160964D01*
X161510D02*
X161762D01*
X162026D02*
X162306D01*
X163000D02*
X163287D01*
X163553D02*
X163819D01*
X164659D02*
X164925D01*
X165404D02*
X165677D01*
X166356D02*
X166834D01*
X158517Y103889D02*
X158789D01*
X159313D02*
X159601D01*
X159947D02*
X160213D01*
X160692D02*
X160964D01*
X161510D02*
X161762D01*
X162026D02*
X162306D01*
X163007D02*
X163287D01*
X163553D02*
X163819D01*
X164659D02*
X164925D01*
X165404D02*
X165677D01*
X166370D02*
X166820D01*
X158517Y103881D02*
X158789D01*
X159313D02*
X159601D01*
X159947D02*
X160213D01*
X160692D02*
X160964D01*
X161510D02*
X161762D01*
X162026D02*
X162306D01*
X163007D02*
X163295D01*
X163553D02*
X163819D01*
X164659D02*
X164925D01*
X165404D02*
X165677D01*
X166385D02*
X166805D01*
X158517Y103873D02*
X158789D01*
X159320D02*
X159601D01*
X159947D02*
X160213D01*
X160692D02*
X160964D01*
X161518D02*
X161762D01*
X162019D02*
X162306D01*
X163007D02*
X163295D01*
X163553D02*
X163819D01*
X164659D02*
X164925D01*
X165404D02*
X165677D01*
X166406D02*
X166783D01*
X166430Y103867D02*
X166761D01*
X166459Y103859D02*
X166732D01*
X166502Y103851D02*
X166688D01*
X159578Y103210D02*
X159681D01*
X161024D02*
X161120D01*
X162402D02*
X162521D01*
X162875D02*
X162978D01*
X165006D02*
X165101D01*
X158789Y103203D02*
X158899D01*
X159143D02*
X159247D01*
X159549D02*
X159711D01*
X159955D02*
X160323D01*
X160448D02*
X160728D01*
X160994D02*
X161148D01*
X161452D02*
X161562D01*
X161732D02*
X161835D01*
X162373D02*
X162558D01*
X162845D02*
X163007D01*
X163309D02*
X163413D01*
X163583D02*
X163693D01*
X163833D02*
X164203D01*
X164349D02*
X164585D01*
X164976D02*
X165131D01*
X165441D02*
X165544D01*
X158789Y103195D02*
X158907D01*
X159135D02*
X159247D01*
X159533D02*
X159726D01*
X159955D02*
X160323D01*
X160448D02*
X160728D01*
X160972D02*
X161171D01*
X161452D02*
X161562D01*
X161732D02*
X161835D01*
X162351D02*
X162580D01*
X162830D02*
X163022D01*
X163309D02*
X163421D01*
X163583D02*
X163693D01*
X163833D02*
X164203D01*
X164349D02*
X164607D01*
X164954D02*
X165153D01*
X165441D02*
X165544D01*
X158789Y103187D02*
X158907D01*
X159135D02*
X159247D01*
X159519D02*
X159740D01*
X159955D02*
X160323D01*
X160448D02*
X160728D01*
X160958D02*
X161186D01*
X161452D02*
X161570D01*
X161732D02*
X161835D01*
X162336D02*
X162580D01*
X162816D02*
X163037D01*
X163309D02*
X163421D01*
X163583D02*
X163693D01*
X163833D02*
X164203D01*
X164349D02*
X164629D01*
X164947D02*
X165168D01*
X165441D02*
X165544D01*
X158789Y103181D02*
X158915D01*
X159129D02*
X159247D01*
X159505D02*
X159755D01*
X159955D02*
X160323D01*
X160448D02*
X160728D01*
X160950D02*
X161193D01*
X161452D02*
X161576D01*
X161732D02*
X161835D01*
X162322D02*
X162580D01*
X162801D02*
X163051D01*
X163309D02*
X163428D01*
X163583D02*
X163693D01*
X163833D02*
X164203D01*
X164349D02*
X164637D01*
X164933D02*
X165175D01*
X165441D02*
X165544D01*
X158789Y103173D02*
X158915D01*
X159129D02*
X159247D01*
X159497D02*
X159763D01*
X159955D02*
X160323D01*
X160448D02*
X160728D01*
X160935D02*
X161208D01*
X161452D02*
X161576D01*
X161732D02*
X161835D01*
X162314D02*
X162580D01*
X162793D02*
X163059D01*
X163309D02*
X163435D01*
X163583D02*
X163693D01*
X163833D02*
X164203D01*
X164349D02*
X164651D01*
X164925D02*
X165191D01*
X165441D02*
X165544D01*
X158789Y103165D02*
X158921D01*
X159121D02*
X159247D01*
X159489D02*
X159770D01*
X159955D02*
X160323D01*
X160448D02*
X160728D01*
X160928D02*
X161216D01*
X161452D02*
X161584D01*
X161732D02*
X161835D01*
X162306D02*
X162580D01*
X162786D02*
X163066D01*
X163309D02*
X163435D01*
X163583D02*
X163693D01*
X163833D02*
X164203D01*
X164349D02*
X164659D01*
X164910D02*
X165197D01*
X165441D02*
X165544D01*
X158789Y103159D02*
X158921D01*
X159121D02*
X159247D01*
X159482D02*
X159777D01*
X159955D02*
X160323D01*
X160448D02*
X160728D01*
X160920D02*
X161222D01*
X161452D02*
X161584D01*
X161732D02*
X161835D01*
X162300D02*
X162580D01*
X162779D02*
X163074D01*
X163309D02*
X163443D01*
X163583D02*
X163693D01*
X163833D02*
X164203D01*
X164349D02*
X164667D01*
X164903D02*
X165205D01*
X165441D02*
X165544D01*
X158789Y103151D02*
X158929D01*
X159113D02*
X159247D01*
X159475D02*
X159785D01*
X159955D02*
X160323D01*
X160448D02*
X160728D01*
X160913D02*
X161230D01*
X161452D02*
X161592D01*
X161732D02*
X161835D01*
X162292D02*
X162580D01*
X162771D02*
X163081D01*
X163309D02*
X163443D01*
X163583D02*
X163693D01*
X163833D02*
X164203D01*
X164349D02*
X164673D01*
X164895D02*
X165212D01*
X165441D02*
X165544D01*
X158789Y103143D02*
X158929D01*
X159113D02*
X159247D01*
X159467D02*
X159792D01*
X159955D02*
X160323D01*
X160448D02*
X160728D01*
X160906D02*
X161238D01*
X161452D02*
X161592D01*
X161732D02*
X161835D01*
X162284D02*
X162580D01*
X162764D02*
X163088D01*
X163309D02*
X163450D01*
X163583D02*
X163693D01*
X163833D02*
X164203D01*
X164349D02*
X164673D01*
X164895D02*
X165220D01*
X165441D02*
X165544D01*
X158789Y103137D02*
X158937D01*
X159107D02*
X159247D01*
X159460D02*
X159799D01*
X159955D02*
X160323D01*
X160530D02*
X160640D01*
X160906D02*
X161238D01*
X161452D02*
X161598D01*
X161732D02*
X161835D01*
X162277D02*
X162580D01*
X162756D02*
X163096D01*
X163309D02*
X163450D01*
X163583D02*
X163693D01*
X163833D02*
X164203D01*
X164349D02*
X164681D01*
X164888D02*
X165227D01*
X165441D02*
X165544D01*
X158789Y103129D02*
X158937D01*
X159107D02*
X159247D01*
X159460D02*
X159807D01*
X159955D02*
X160323D01*
X160530D02*
X160640D01*
X160898D02*
X161244D01*
X161452D02*
X161606D01*
X161732D02*
X161835D01*
X162270D02*
X162580D01*
X162750D02*
X163096D01*
X163309D02*
X163457D01*
X163583D02*
X163693D01*
X163833D02*
X164203D01*
X164349D02*
X164681D01*
X164881D02*
X165227D01*
X165441D02*
X165544D01*
X158789Y103121D02*
X158937D01*
X159099D02*
X159247D01*
X159453D02*
X159615D01*
X159645D02*
X159807D01*
X159955D02*
X160323D01*
X160530D02*
X160640D01*
X160891D02*
X161054D01*
X161090D02*
X161252D01*
X161452D02*
X161606D01*
X161732D02*
X161835D01*
X162262D02*
X162580D01*
X162750D02*
X162912D01*
X162941D02*
X163103D01*
X163309D02*
X163465D01*
X163583D02*
X163693D01*
X163833D02*
X164203D01*
X164349D02*
X164681D01*
X164873D02*
X165043D01*
X165072D02*
X165234D01*
X165441D02*
X165544D01*
X158789Y103114D02*
X158944D01*
X159099D02*
X159247D01*
X159445D02*
X159593D01*
X159674D02*
X159814D01*
X159955D02*
X160323D01*
X160530D02*
X160640D01*
X160891D02*
X161032D01*
X161112D02*
X161252D01*
X161452D02*
X161614D01*
X161732D02*
X161835D01*
X162262D02*
X162425D01*
X162528D02*
X162580D01*
X162742D02*
X162882D01*
X162963D02*
X163110D01*
X163309D02*
X163465D01*
X163583D02*
X163693D01*
X163833D02*
X164203D01*
X164349D02*
X164453D01*
X164527D02*
X164689D01*
X164873D02*
X165013D01*
X165095D02*
X165234D01*
X165441D02*
X165544D01*
X158789Y103107D02*
X158944D01*
X159091D02*
X159247D01*
X159445D02*
X159578D01*
X159681D02*
X159814D01*
X160087D02*
X160190D01*
X160530D02*
X160640D01*
X160884D02*
X161016D01*
X161126D02*
X161260D01*
X161452D02*
X161614D01*
X161732D02*
X161835D01*
X162255D02*
X162402D01*
X162572D02*
X162580D01*
X162742D02*
X162875D01*
X162978D02*
X163110D01*
X163309D02*
X163471D01*
X163583D02*
X163693D01*
X163966D02*
X164069D01*
X164349D02*
X164453D01*
X164557D02*
X164689D01*
X164866D02*
X164999D01*
X165109D02*
X165242D01*
X165441D02*
X165544D01*
X158789Y103099D02*
X158951D01*
X159091D02*
X159247D01*
X159439D02*
X159571D01*
X159697D02*
X159822D01*
X160087D02*
X160190D01*
X160530D02*
X160640D01*
X160884D02*
X161009D01*
X161134D02*
X161260D01*
X161452D02*
X161621D01*
X161732D02*
X161835D01*
X162255D02*
X162396D01*
X162734D02*
X162860D01*
X162985D02*
X163118D01*
X163309D02*
X163471D01*
X163583D02*
X163693D01*
X163966D02*
X164069D01*
X164349D02*
X164453D01*
X164571D02*
X164689D01*
X164866D02*
X164991D01*
X165116D02*
X165242D01*
X165441D02*
X165544D01*
X158789Y103091D02*
X158951D01*
X159085D02*
X159247D01*
X159439D02*
X159563D01*
X159703D02*
X159822D01*
X160087D02*
X160190D01*
X160530D02*
X160640D01*
X160876D02*
X161002D01*
X161142D02*
X161267D01*
X161452D02*
X161621D01*
X161732D02*
X161835D01*
X162248D02*
X162388D01*
X162734D02*
X162853D01*
X162993D02*
X163118D01*
X163309D02*
X163479D01*
X163583D02*
X163693D01*
X163966D02*
X164069D01*
X164349D02*
X164453D01*
X164571D02*
X164689D01*
X164858D02*
X164984D01*
X165124D02*
X165249D01*
X165441D02*
X165544D01*
X158789Y103085D02*
X158959D01*
X159085D02*
X159247D01*
X159439D02*
X159556D01*
X159703D02*
X159829D01*
X160087D02*
X160190D01*
X160530D02*
X160640D01*
X160876D02*
X160994D01*
X161148D02*
X161267D01*
X161452D02*
X161628D01*
X161732D02*
X161835D01*
X162248D02*
X162380D01*
X162727D02*
X162853D01*
X163000D02*
X163118D01*
X163309D02*
X163479D01*
X163583D02*
X163693D01*
X163966D02*
X164069D01*
X164349D02*
X164453D01*
X164579D02*
X164689D01*
X164858D02*
X164976D01*
X165131D02*
X165249D01*
X165441D02*
X165544D01*
X158789Y103077D02*
X158959D01*
X159077D02*
X159247D01*
X159431D02*
X159549D01*
X159711D02*
X159829D01*
X160087D02*
X160190D01*
X160530D02*
X160640D01*
X160868D02*
X160994D01*
X161148D02*
X161267D01*
X161452D02*
X161628D01*
X161732D02*
X161835D01*
X162240D02*
X162373D01*
X162727D02*
X162845D01*
X163007D02*
X163125D01*
X163309D02*
X163487D01*
X163583D02*
X163693D01*
X163966D02*
X164069D01*
X164349D02*
X164453D01*
X164579D02*
X164696D01*
X164858D02*
X164976D01*
X165139D02*
X165257D01*
X165441D02*
X165544D01*
X158789Y103069D02*
X158967D01*
X159077D02*
X159247D01*
X159431D02*
X159549D01*
X159718D02*
X159829D01*
X160087D02*
X160190D01*
X160530D02*
X160640D01*
X160868D02*
X160986D01*
X161156D02*
X161274D01*
X161452D02*
X161636D01*
X161732D02*
X161835D01*
X162240D02*
X162366D01*
X162727D02*
X162838D01*
X163007D02*
X163125D01*
X163309D02*
X163487D01*
X163583D02*
X163693D01*
X163966D02*
X164069D01*
X164349D02*
X164453D01*
X164585D02*
X164696D01*
X164851D02*
X164969D01*
X165139D02*
X165257D01*
X165441D02*
X165544D01*
X158789Y103063D02*
X158967D01*
X159069D02*
X159247D01*
X159423D02*
X159541D01*
X159718D02*
X159836D01*
X160087D02*
X160190D01*
X160530D02*
X160640D01*
X160868D02*
X160980D01*
X161156D02*
X161274D01*
X161452D02*
X161643D01*
X161732D02*
X161835D01*
X162240D02*
X162358D01*
X162720D02*
X162838D01*
X163015D02*
X163125D01*
X163309D02*
X163494D01*
X163583D02*
X163693D01*
X163966D02*
X164069D01*
X164349D02*
X164453D01*
X164585D02*
X164696D01*
X164851D02*
X164969D01*
X165146D02*
X165257D01*
X165441D02*
X165544D01*
X158789Y103055D02*
X158973D01*
X159069D02*
X159247D01*
X159423D02*
X159541D01*
X159718D02*
X159836D01*
X160087D02*
X160190D01*
X160530D02*
X160640D01*
X160868D02*
X160980D01*
X161164D02*
X161274D01*
X161452D02*
X161643D01*
X161732D02*
X161835D01*
X162234D02*
X162358D01*
X162720D02*
X162830D01*
X163015D02*
X163133D01*
X163309D02*
X163501D01*
X163583D02*
X163693D01*
X163966D02*
X164069D01*
X164349D02*
X164453D01*
X164585D02*
X164696D01*
X164851D02*
X164962D01*
X165146D02*
X165264D01*
X165441D02*
X165544D01*
X158789Y103047D02*
X158973D01*
X159062D02*
X159247D01*
X159423D02*
X159533D01*
X159726D02*
X159836D01*
X160087D02*
X160190D01*
X160530D02*
X160640D01*
X160862D02*
X160980D01*
X161164D02*
X161282D01*
X161452D02*
X161650D01*
X161732D02*
X161835D01*
X162234D02*
X162351D01*
X162720D02*
X162830D01*
X163022D02*
X163133D01*
X163309D02*
X163501D01*
X163583D02*
X163693D01*
X163966D02*
X164069D01*
X164349D02*
X164453D01*
X164585D02*
X164696D01*
X164851D02*
X164962D01*
X165146D02*
X165264D01*
X165441D02*
X165544D01*
X158789Y103041D02*
X158981D01*
X159062D02*
X159247D01*
X159423D02*
X159533D01*
X159726D02*
X159836D01*
X160087D02*
X160190D01*
X160530D02*
X160640D01*
X160862D02*
X160972D01*
X161164D02*
X161282D01*
X161452D02*
X161650D01*
X161732D02*
X161835D01*
X162234D02*
X162351D01*
X162712D02*
X162830D01*
X163022D02*
X163133D01*
X163309D02*
X163509D01*
X163583D02*
X163693D01*
X163966D02*
X164069D01*
X164349D02*
X164453D01*
X164579D02*
X164696D01*
X164843D02*
X164962D01*
X165153D02*
X165264D01*
X165441D02*
X165544D01*
X158789Y103033D02*
X158981D01*
X159055D02*
X159247D01*
X159423D02*
X159533D01*
X159726D02*
X159844D01*
X160087D02*
X160190D01*
X160530D02*
X160640D01*
X160862D02*
X160972D01*
X161171D02*
X161282D01*
X161452D02*
X161658D01*
X161732D02*
X161835D01*
X162234D02*
X162351D01*
X162712D02*
X162830D01*
X163022D02*
X163133D01*
X163309D02*
X163509D01*
X163583D02*
X163693D01*
X163966D02*
X164069D01*
X164349D02*
X164453D01*
X164579D02*
X164689D01*
X164843D02*
X164954D01*
X165153D02*
X165264D01*
X165441D02*
X165544D01*
X158789Y103025D02*
X158989D01*
X159055D02*
X159247D01*
X159416D02*
X159527D01*
X159733D02*
X159844D01*
X160087D02*
X160190D01*
X160530D02*
X160640D01*
X160862D02*
X160972D01*
X161171D02*
X161282D01*
X161452D02*
X161658D01*
X161732D02*
X161835D01*
X162226D02*
X162344D01*
X162712D02*
X162823D01*
X163022D02*
X163140D01*
X163309D02*
X163516D01*
X163583D02*
X163693D01*
X163966D02*
X164069D01*
X164349D02*
X164453D01*
X164579D02*
X164689D01*
X164843D02*
X164954D01*
X165153D02*
X165264D01*
X165441D02*
X165544D01*
X158789Y103018D02*
X158989D01*
X159047D02*
X159247D01*
X159416D02*
X159527D01*
X159733D02*
X159844D01*
X160087D02*
X160190D01*
X160530D02*
X160640D01*
X160854D02*
X160972D01*
X161171D02*
X161282D01*
X161452D02*
X161666D01*
X161732D02*
X161835D01*
X162226D02*
X162344D01*
X162712D02*
X162823D01*
X163029D02*
X163140D01*
X163309D02*
X163516D01*
X163583D02*
X163693D01*
X163966D02*
X164069D01*
X164349D02*
X164453D01*
X164571D02*
X164689D01*
X164843D02*
X164954D01*
X165153D02*
X165271D01*
X165441D02*
X165544D01*
X158789Y103011D02*
X158995D01*
X159047D02*
X159247D01*
X159416D02*
X159527D01*
X159733D02*
X159844D01*
X160087D02*
X160190D01*
X160530D02*
X160640D01*
X160854D02*
X160964D01*
X161171D02*
X161282D01*
X161452D02*
X161666D01*
X161732D02*
X161835D01*
X162226D02*
X162344D01*
X162712D02*
X162823D01*
X163029D02*
X163140D01*
X163309D02*
X163523D01*
X163583D02*
X163693D01*
X163966D02*
X164069D01*
X164349D02*
X164453D01*
X164563D02*
X164689D01*
X164843D02*
X164954D01*
X165161D02*
X165271D01*
X165441D02*
X165544D01*
X158789Y103003D02*
X158995D01*
X159047D02*
X159247D01*
X159416D02*
X159527D01*
X159733D02*
X159844D01*
X160087D02*
X160190D01*
X160530D02*
X160640D01*
X160854D02*
X160964D01*
X161178D02*
X161289D01*
X161452D02*
X161672D01*
X161732D02*
X161835D01*
X162226D02*
X162336D01*
X162712D02*
X162823D01*
X163029D02*
X163140D01*
X163309D02*
X163523D01*
X163583D02*
X163693D01*
X163966D02*
X164069D01*
X164349D02*
X164453D01*
X164557D02*
X164689D01*
X164837D02*
X164954D01*
X165161D02*
X165271D01*
X165441D02*
X165544D01*
X158789Y102996D02*
X159003D01*
X159040D02*
X159247D01*
X159416D02*
X159527D01*
X159733D02*
X159844D01*
X160087D02*
X160190D01*
X160530D02*
X160640D01*
X160854D02*
X160964D01*
X161178D02*
X161289D01*
X161452D02*
X161680D01*
X161732D02*
X161835D01*
X162226D02*
X162336D01*
X162712D02*
X162823D01*
X163029D02*
X163140D01*
X163309D02*
X163531D01*
X163583D02*
X163693D01*
X163966D02*
X164069D01*
X164349D02*
X164453D01*
X164527D02*
X164681D01*
X164837D02*
X164947D01*
X165161D02*
X165271D01*
X165441D02*
X165544D01*
X158789Y102989D02*
X159003D01*
X159040D02*
X159247D01*
X159416D02*
X159527D01*
X159740D02*
X159844D01*
X160087D02*
X160190D01*
X160530D02*
X160640D01*
X160854D02*
X160964D01*
X161178D02*
X161289D01*
X161452D02*
X161680D01*
X161732D02*
X161835D01*
X162226D02*
X162336D01*
X162705D02*
X162816D01*
X163029D02*
X163140D01*
X163309D02*
X163538D01*
X163583D02*
X163693D01*
X163966D02*
X164069D01*
X164349D02*
X164681D01*
X164837D02*
X164947D01*
X165161D02*
X165271D01*
X165441D02*
X165544D01*
X158789Y102981D02*
X159011D01*
X159033D02*
X159247D01*
X159416D02*
X159527D01*
X159740D02*
X159851D01*
X160087D02*
X160190D01*
X160530D02*
X160640D01*
X160854D02*
X160964D01*
X161178D02*
X161289D01*
X161452D02*
X161688D01*
X161732D02*
X161835D01*
X162226D02*
X162336D01*
X162705D02*
X162816D01*
X163029D02*
X163140D01*
X163309D02*
X163538D01*
X163583D02*
X163693D01*
X163966D02*
X164069D01*
X164349D02*
X164681D01*
X164837D02*
X164947D01*
X165161D02*
X165271D01*
X165441D02*
X165544D01*
X158789Y102973D02*
X159011D01*
X159033D02*
X159135D01*
X159143D02*
X159247D01*
X159416D02*
X159519D01*
X159740D02*
X159851D01*
X160087D02*
X160190D01*
X160530D02*
X160640D01*
X160854D02*
X160964D01*
X161178D02*
X161289D01*
X161452D02*
X161688D01*
X161732D02*
X161835D01*
X162226D02*
X162336D01*
X162705D02*
X162816D01*
X163029D02*
X163140D01*
X163309D02*
X163413D01*
X163421D02*
X163546D01*
X163583D02*
X163693D01*
X163966D02*
X164069D01*
X164349D02*
X164673D01*
X164837D02*
X164947D01*
X165161D02*
X165271D01*
X165441D02*
X165544D01*
X158789Y102967D02*
X158899D01*
X158907D02*
X159017D01*
X159025D02*
X159135D01*
X159143D02*
X159247D01*
X159416D02*
X159519D01*
X159740D02*
X159851D01*
X160087D02*
X160190D01*
X160530D02*
X160640D01*
X160854D02*
X160964D01*
X161178D02*
X161289D01*
X161452D02*
X161562D01*
X161570D02*
X161694D01*
X161732D02*
X161835D01*
X162226D02*
X162336D01*
X162705D02*
X162816D01*
X163037D02*
X163140D01*
X163309D02*
X163413D01*
X163421D02*
X163546D01*
X163583D02*
X163693D01*
X163966D02*
X164069D01*
X164349D02*
X164673D01*
X164837D02*
X164947D01*
X165161D02*
X165271D01*
X165441D02*
X165544D01*
X158789Y102959D02*
X158899D01*
X158907D02*
X159017D01*
X159025D02*
X159129D01*
X159143D02*
X159247D01*
X159409D02*
X159519D01*
X159740D02*
X159851D01*
X160087D02*
X160190D01*
X160530D02*
X160640D01*
X160854D02*
X160964D01*
X161178D02*
X161289D01*
X161452D02*
X161562D01*
X161570D02*
X161694D01*
X161732D02*
X161835D01*
X162226D02*
X162336D01*
X162705D02*
X162816D01*
X163037D02*
X163140D01*
X163309D02*
X163413D01*
X163428D02*
X163553D01*
X163583D02*
X163693D01*
X163966D02*
X164069D01*
X164349D02*
X164667D01*
X164837D02*
X164947D01*
X165161D02*
X165271D01*
X165441D02*
X165544D01*
X158789Y102951D02*
X158899D01*
X158915D02*
X159129D01*
X159143D02*
X159247D01*
X159409D02*
X159519D01*
X159740D02*
X159851D01*
X160087D02*
X160190D01*
X160530D02*
X160640D01*
X160854D02*
X160964D01*
X161178D02*
X161289D01*
X161452D02*
X161562D01*
X161576D02*
X161702D01*
X161732D02*
X161835D01*
X162226D02*
X162336D01*
X162705D02*
X162816D01*
X163037D02*
X163140D01*
X163309D02*
X163413D01*
X163428D02*
X163553D01*
X163583D02*
X163693D01*
X163966D02*
X164069D01*
X164349D02*
X164659D01*
X164837D02*
X164947D01*
X165161D02*
X165271D01*
X165441D02*
X165544D01*
X158789Y102945D02*
X158899D01*
X158915D02*
X159121D01*
X159143D02*
X159247D01*
X159409D02*
X159519D01*
X159740D02*
X159851D01*
X160087D02*
X160190D01*
X160530D02*
X160640D01*
X160854D02*
X160964D01*
X161178D02*
X161289D01*
X161452D02*
X161562D01*
X161576D02*
X161702D01*
X161732D02*
X161835D01*
X162218D02*
X162336D01*
X162705D02*
X162816D01*
X163037D02*
X163140D01*
X163309D02*
X163413D01*
X163435D02*
X163561D01*
X163583D02*
X163693D01*
X163966D02*
X164069D01*
X164349D02*
X164651D01*
X164837D02*
X164947D01*
X165161D02*
X165271D01*
X165441D02*
X165544D01*
X158789Y102937D02*
X158899D01*
X158921D02*
X159121D01*
X159143D02*
X159247D01*
X159409D02*
X159519D01*
X159740D02*
X159851D01*
X160087D02*
X160190D01*
X160530D02*
X160640D01*
X160854D02*
X160964D01*
X161178D02*
X161289D01*
X161452D02*
X161562D01*
X161584D02*
X161710D01*
X161732D02*
X161835D01*
X162218D02*
X162336D01*
X162705D02*
X162816D01*
X163037D02*
X163140D01*
X163309D02*
X163413D01*
X163435D02*
X163561D01*
X163583D02*
X163693D01*
X163966D02*
X164069D01*
X164349D02*
X164645D01*
X164837D02*
X164947D01*
X165161D02*
X165271D01*
X165441D02*
X165544D01*
X158789Y102929D02*
X158899D01*
X158921D02*
X159113D01*
X159143D02*
X159247D01*
X159409D02*
X159519D01*
X159740D02*
X159851D01*
X160087D02*
X160190D01*
X160530D02*
X160640D01*
X160854D02*
X160964D01*
X161178D02*
X161289D01*
X161452D02*
X161562D01*
X161584D02*
X161716D01*
X161732D02*
X161835D01*
X162218D02*
X162336D01*
X162705D02*
X162816D01*
X163037D02*
X163140D01*
X163309D02*
X163413D01*
X163443D02*
X163567D01*
X163583D02*
X163693D01*
X163966D02*
X164069D01*
X164349D02*
X164629D01*
X164837D02*
X164947D01*
X165161D02*
X165271D01*
X165441D02*
X165544D01*
X158789Y102923D02*
X158899D01*
X158929D02*
X159113D01*
X159143D02*
X159247D01*
X159409D02*
X159519D01*
X159740D02*
X159851D01*
X160087D02*
X160190D01*
X160530D02*
X160640D01*
X160854D02*
X160964D01*
X161178D02*
X161289D01*
X161452D02*
X161562D01*
X161592D02*
X161716D01*
X161732D02*
X161835D01*
X162226D02*
X162336D01*
X162705D02*
X162816D01*
X163037D02*
X163140D01*
X163309D02*
X163413D01*
X163443D02*
X163575D01*
X163583D02*
X163693D01*
X163966D02*
X164069D01*
X164349D02*
X164615D01*
X164837D02*
X164947D01*
X165161D02*
X165271D01*
X165441D02*
X165544D01*
X158789Y102915D02*
X158899D01*
X158929D02*
X159113D01*
X159143D02*
X159247D01*
X159416D02*
X159519D01*
X159740D02*
X159851D01*
X160087D02*
X160190D01*
X160530D02*
X160640D01*
X160854D02*
X160964D01*
X161178D02*
X161289D01*
X161452D02*
X161562D01*
X161598D02*
X161724D01*
X161732D02*
X161835D01*
X162226D02*
X162336D01*
X162705D02*
X162816D01*
X163037D02*
X163140D01*
X163309D02*
X163413D01*
X163450D02*
X163575D01*
X163583D02*
X163693D01*
X163966D02*
X164069D01*
X164349D02*
X164600D01*
X164837D02*
X164947D01*
X165161D02*
X165271D01*
X165441D02*
X165544D01*
X158789Y102907D02*
X158899D01*
X158937D02*
X159107D01*
X159143D02*
X159247D01*
X159416D02*
X159519D01*
X159740D02*
X159851D01*
X160087D02*
X160190D01*
X160530D02*
X160640D01*
X160854D02*
X160964D01*
X161178D02*
X161289D01*
X161452D02*
X161562D01*
X161598D02*
X161724D01*
X161732D02*
X161835D01*
X162226D02*
X162336D01*
X162705D02*
X162816D01*
X163029D02*
X163140D01*
X163309D02*
X163413D01*
X163457D02*
X163693D01*
X163966D02*
X164069D01*
X164349D02*
X164600D01*
X164837D02*
X164947D01*
X165161D02*
X165271D01*
X165441D02*
X165544D01*
X158789Y102901D02*
X158899D01*
X158937D02*
X159107D01*
X159143D02*
X159247D01*
X159416D02*
X159527D01*
X159740D02*
X159851D01*
X160087D02*
X160190D01*
X160530D02*
X160640D01*
X160854D02*
X160964D01*
X161178D02*
X161289D01*
X161452D02*
X161562D01*
X161606D02*
X161835D01*
X162226D02*
X162336D01*
X162705D02*
X162816D01*
X163029D02*
X163140D01*
X163309D02*
X163413D01*
X163457D02*
X163693D01*
X163966D02*
X164069D01*
X164349D02*
X164453D01*
X164483D02*
X164600D01*
X164837D02*
X164947D01*
X165161D02*
X165271D01*
X165441D02*
X165544D01*
X158789Y102893D02*
X158899D01*
X158944D02*
X159099D01*
X159143D02*
X159247D01*
X159416D02*
X159527D01*
X159740D02*
X159844D01*
X160087D02*
X160190D01*
X160530D02*
X160640D01*
X160854D02*
X160964D01*
X161178D02*
X161289D01*
X161452D02*
X161562D01*
X161606D02*
X161835D01*
X162226D02*
X162336D01*
X162705D02*
X162816D01*
X163029D02*
X163140D01*
X163309D02*
X163413D01*
X163465D02*
X163693D01*
X163966D02*
X164069D01*
X164349D02*
X164453D01*
X164489D02*
X164607D01*
X164837D02*
X164947D01*
X165161D02*
X165271D01*
X165441D02*
X165544D01*
X158789Y102885D02*
X158899D01*
X158944D02*
X159099D01*
X159143D02*
X159247D01*
X159416D02*
X159527D01*
X159733D02*
X159844D01*
X160087D02*
X160190D01*
X160530D02*
X160640D01*
X160854D02*
X160964D01*
X161178D02*
X161289D01*
X161452D02*
X161562D01*
X161614D02*
X161835D01*
X162226D02*
X162336D01*
X162712D02*
X162823D01*
X163029D02*
X163140D01*
X163309D02*
X163413D01*
X163465D02*
X163693D01*
X163966D02*
X164069D01*
X164349D02*
X164453D01*
X164489D02*
X164607D01*
X164837D02*
X164947D01*
X165161D02*
X165271D01*
X165441D02*
X165544D01*
X158789Y102879D02*
X158899D01*
X158951D02*
X159091D01*
X159143D02*
X159247D01*
X159416D02*
X159527D01*
X159733D02*
X159844D01*
X160087D02*
X160190D01*
X160530D02*
X160640D01*
X160854D02*
X160964D01*
X161178D02*
X161289D01*
X161452D02*
X161562D01*
X161614D02*
X161835D01*
X162226D02*
X162336D01*
X162712D02*
X162823D01*
X163029D02*
X163140D01*
X163309D02*
X163413D01*
X163471D02*
X163693D01*
X163966D02*
X164069D01*
X164349D02*
X164453D01*
X164497D02*
X164615D01*
X164837D02*
X164954D01*
X165161D02*
X165271D01*
X165441D02*
X165544D01*
X158789Y102871D02*
X158899D01*
X158951D02*
X159091D01*
X159143D02*
X159247D01*
X159416D02*
X159527D01*
X159733D02*
X159844D01*
X160087D02*
X160190D01*
X160530D02*
X160640D01*
X160854D02*
X160964D01*
X161171D02*
X161282D01*
X161452D02*
X161562D01*
X161621D02*
X161835D01*
X162226D02*
X162344D01*
X162712D02*
X162823D01*
X163029D02*
X163140D01*
X163309D02*
X163413D01*
X163471D02*
X163693D01*
X163966D02*
X164069D01*
X164349D02*
X164453D01*
X164497D02*
X164615D01*
X164843D02*
X164954D01*
X165161D02*
X165271D01*
X165441D02*
X165544D01*
X158789Y102863D02*
X158899D01*
X158959D02*
X159085D01*
X159143D02*
X159247D01*
X159416D02*
X159527D01*
X159733D02*
X159844D01*
X160087D02*
X160190D01*
X160530D02*
X160640D01*
X160862D02*
X160972D01*
X161171D02*
X161282D01*
X161452D02*
X161562D01*
X161628D02*
X161835D01*
X162226D02*
X162344D01*
X162712D02*
X162823D01*
X163029D02*
X163140D01*
X163309D02*
X163413D01*
X163479D02*
X163693D01*
X163966D02*
X164069D01*
X164349D02*
X164453D01*
X164505D02*
X164623D01*
X164843D02*
X164954D01*
X165153D02*
X165271D01*
X165441D02*
X165544D01*
X158789Y102856D02*
X158899D01*
X158959D02*
X159085D01*
X159143D02*
X159247D01*
X159416D02*
X159527D01*
X159733D02*
X159844D01*
X160087D02*
X160190D01*
X160530D02*
X160640D01*
X160862D02*
X160972D01*
X161171D02*
X161282D01*
X161452D02*
X161562D01*
X161628D02*
X161835D01*
X162226D02*
X162344D01*
X162712D02*
X162823D01*
X163022D02*
X163140D01*
X163309D02*
X163413D01*
X163479D02*
X163693D01*
X163966D02*
X164069D01*
X164349D02*
X164453D01*
X164505D02*
X164623D01*
X164843D02*
X164954D01*
X165153D02*
X165264D01*
X165441D02*
X165544D01*
X158789Y102849D02*
X158899D01*
X158967D02*
X159077D01*
X159143D02*
X159247D01*
X159423D02*
X159533D01*
X159726D02*
X159844D01*
X160087D02*
X160190D01*
X160530D02*
X160640D01*
X160862D02*
X160972D01*
X161171D02*
X161282D01*
X161452D02*
X161562D01*
X161636D02*
X161835D01*
X162234D02*
X162351D01*
X162712D02*
X162830D01*
X163022D02*
X163133D01*
X163309D02*
X163413D01*
X163487D02*
X163693D01*
X163966D02*
X164069D01*
X164349D02*
X164453D01*
X164512D02*
X164629D01*
X164843D02*
X164954D01*
X165153D02*
X165264D01*
X165441D02*
X165544D01*
X158789Y102841D02*
X158899D01*
X158967D02*
X159077D01*
X159143D02*
X159247D01*
X159423D02*
X159533D01*
X159726D02*
X159836D01*
X160087D02*
X160190D01*
X160530D02*
X160640D01*
X160862D02*
X160972D01*
X161164D02*
X161282D01*
X161452D02*
X161562D01*
X161636D02*
X161835D01*
X162234D02*
X162351D01*
X162712D02*
X162830D01*
X163022D02*
X163133D01*
X163309D02*
X163413D01*
X163494D02*
X163693D01*
X163966D02*
X164069D01*
X164349D02*
X164453D01*
X164512D02*
X164629D01*
X164843D02*
X164962D01*
X165153D02*
X165264D01*
X165441D02*
X165544D01*
X158789Y102833D02*
X158899D01*
X159143D02*
X159247D01*
X159423D02*
X159533D01*
X159726D02*
X159836D01*
X160087D02*
X160190D01*
X160530D02*
X160640D01*
X160862D02*
X160980D01*
X161164D02*
X161282D01*
X161452D02*
X161562D01*
X161643D02*
X161835D01*
X162234D02*
X162351D01*
X162720D02*
X162830D01*
X163022D02*
X163133D01*
X163309D02*
X163413D01*
X163494D02*
X163693D01*
X163966D02*
X164069D01*
X164349D02*
X164453D01*
X164519D02*
X164637D01*
X164851D02*
X164962D01*
X165146D02*
X165264D01*
X165441D02*
X165544D01*
X158789Y102827D02*
X158899D01*
X159143D02*
X159247D01*
X159423D02*
X159541D01*
X159718D02*
X159836D01*
X160087D02*
X160190D01*
X160530D02*
X160640D01*
X160868D02*
X160980D01*
X161164D02*
X161274D01*
X161452D02*
X161562D01*
X161643D02*
X161835D01*
X162234D02*
X162358D01*
X162720D02*
X162838D01*
X163015D02*
X163133D01*
X163309D02*
X163413D01*
X163501D02*
X163693D01*
X163966D02*
X164069D01*
X164349D02*
X164453D01*
X164519D02*
X164637D01*
X164851D02*
X164962D01*
X165146D02*
X165264D01*
X165441D02*
X165544D01*
X158789Y102819D02*
X158899D01*
X159143D02*
X159247D01*
X159431D02*
X159541D01*
X159718D02*
X159836D01*
X160087D02*
X160190D01*
X160530D02*
X160640D01*
X160868D02*
X160980D01*
X161156D02*
X161274D01*
X161452D02*
X161562D01*
X161650D02*
X161835D01*
X162240D02*
X162358D01*
X162720D02*
X162838D01*
X163015D02*
X163125D01*
X163309D02*
X163413D01*
X163501D02*
X163693D01*
X163966D02*
X164069D01*
X164349D02*
X164453D01*
X164527D02*
X164645D01*
X164851D02*
X164969D01*
X165146D02*
X165257D01*
X165441D02*
X165544D01*
X158789Y102811D02*
X158899D01*
X159143D02*
X159247D01*
X159431D02*
X159549D01*
X159718D02*
X159829D01*
X160087D02*
X160190D01*
X160530D02*
X160640D01*
X160868D02*
X160986D01*
X161156D02*
X161274D01*
X161452D02*
X161562D01*
X161650D02*
X161835D01*
X162240D02*
X162366D01*
X162727D02*
X162838D01*
X163007D02*
X163125D01*
X163309D02*
X163413D01*
X163509D02*
X163693D01*
X163966D02*
X164069D01*
X164349D02*
X164453D01*
X164527D02*
X164645D01*
X164851D02*
X164969D01*
X165139D02*
X165257D01*
X165441D02*
X165544D01*
X158789Y102805D02*
X158899D01*
X159143D02*
X159247D01*
X159431D02*
X159549D01*
X159711D02*
X159829D01*
X160087D02*
X160190D01*
X160530D02*
X160640D01*
X160868D02*
X160994D01*
X161148D02*
X161267D01*
X161452D02*
X161562D01*
X161658D02*
X161835D01*
X162240D02*
X162373D01*
X162727D02*
X162845D01*
X163007D02*
X163125D01*
X163309D02*
X163413D01*
X163509D02*
X163693D01*
X163966D02*
X164069D01*
X164349D02*
X164453D01*
X164534D02*
X164651D01*
X164858D02*
X164976D01*
X165139D02*
X165257D01*
X165441D02*
X165544D01*
X158789Y102797D02*
X158899D01*
X159143D02*
X159247D01*
X159439D02*
X159556D01*
X159703D02*
X159829D01*
X160087D02*
X160190D01*
X160530D02*
X160640D01*
X160876D02*
X160994D01*
X161148D02*
X161267D01*
X161452D02*
X161562D01*
X161666D02*
X161835D01*
X162248D02*
X162380D01*
X162727D02*
X162853D01*
X163000D02*
X163118D01*
X163309D02*
X163413D01*
X163516D02*
X163693D01*
X163966D02*
X164069D01*
X164349D02*
X164453D01*
X164534D02*
X164651D01*
X164858D02*
X164976D01*
X165131D02*
X165249D01*
X165441D02*
X165544D01*
X158789Y102789D02*
X158899D01*
X159143D02*
X159247D01*
X159439D02*
X159563D01*
X159697D02*
X159822D01*
X160087D02*
X160190D01*
X160530D02*
X160640D01*
X160876D02*
X161002D01*
X161142D02*
X161267D01*
X161452D02*
X161562D01*
X161666D02*
X161835D01*
X162248D02*
X162388D01*
X162734D02*
X162853D01*
X162993D02*
X163118D01*
X163309D02*
X163413D01*
X163523D02*
X163693D01*
X163966D02*
X164069D01*
X164349D02*
X164453D01*
X164541D02*
X164659D01*
X164866D02*
X164984D01*
X165124D02*
X165249D01*
X165441D02*
X165544D01*
X158789Y102783D02*
X158899D01*
X159143D02*
X159247D01*
X159439D02*
X159571D01*
X159689D02*
X159822D01*
X160087D02*
X160190D01*
X160530D02*
X160640D01*
X160884D02*
X161009D01*
X161134D02*
X161260D01*
X161452D02*
X161562D01*
X161672D02*
X161835D01*
X162255D02*
X162396D01*
X162734D02*
X162860D01*
X162985D02*
X163118D01*
X163309D02*
X163413D01*
X163523D02*
X163693D01*
X163966D02*
X164069D01*
X164349D02*
X164453D01*
X164541D02*
X164659D01*
X164866D02*
X164991D01*
X165116D02*
X165242D01*
X165441D02*
X165544D01*
X158789Y102775D02*
X158899D01*
X159143D02*
X159247D01*
X159445D02*
X159578D01*
X159681D02*
X159814D01*
X160087D02*
X160190D01*
X160530D02*
X160640D01*
X160884D02*
X161016D01*
X161126D02*
X161260D01*
X161452D02*
X161562D01*
X161672D02*
X161835D01*
X162255D02*
X162410D01*
X162558D02*
X162580D01*
X162742D02*
X162875D01*
X162978D02*
X163110D01*
X163309D02*
X163413D01*
X163531D02*
X163693D01*
X163966D02*
X164069D01*
X164349D02*
X164453D01*
X164549D02*
X164667D01*
X164866D02*
X165006D01*
X165109D02*
X165242D01*
X165441D02*
X165544D01*
X158789Y102767D02*
X158899D01*
X159143D02*
X159247D01*
X159445D02*
X159593D01*
X159667D02*
X159814D01*
X160087D02*
X160190D01*
X160530D02*
X160640D01*
X160891D02*
X161032D01*
X161112D02*
X161252D01*
X161452D02*
X161562D01*
X161680D02*
X161835D01*
X162262D02*
X162432D01*
X162506D02*
X162580D01*
X162742D02*
X162889D01*
X162963D02*
X163110D01*
X163309D02*
X163413D01*
X163531D02*
X163693D01*
X163966D02*
X164069D01*
X164349D02*
X164453D01*
X164549D02*
X164673D01*
X164873D02*
X165013D01*
X165095D02*
X165234D01*
X165441D02*
X165544D01*
X158789Y102760D02*
X158899D01*
X159143D02*
X159247D01*
X159453D02*
X159615D01*
X159645D02*
X159807D01*
X160087D02*
X160190D01*
X160530D02*
X160640D01*
X160891D02*
X161060D01*
X161082D02*
X161252D01*
X161452D02*
X161562D01*
X161680D02*
X161835D01*
X162270D02*
X162580D01*
X162750D02*
X162912D01*
X162941D02*
X163103D01*
X163309D02*
X163413D01*
X163538D02*
X163693D01*
X163966D02*
X164069D01*
X164349D02*
X164453D01*
X164557D02*
X164673D01*
X164881D02*
X165043D01*
X165065D02*
X165234D01*
X165441D02*
X165706D01*
X158789Y102753D02*
X158899D01*
X159143D02*
X159247D01*
X159460D02*
X159807D01*
X160087D02*
X160190D01*
X160530D02*
X160640D01*
X160898D02*
X161244D01*
X161452D02*
X161562D01*
X161688D02*
X161835D01*
X162270D02*
X162580D01*
X162750D02*
X163096D01*
X163309D02*
X163413D01*
X163538D02*
X163693D01*
X163966D02*
X164069D01*
X164349D02*
X164453D01*
X164557D02*
X164681D01*
X164881D02*
X165227D01*
X165441D02*
X165706D01*
X158789Y102745D02*
X158899D01*
X159143D02*
X159247D01*
X159460D02*
X159799D01*
X160087D02*
X160190D01*
X160530D02*
X160640D01*
X160906D02*
X161238D01*
X161452D02*
X161562D01*
X161688D02*
X161835D01*
X162277D02*
X162580D01*
X162756D02*
X163096D01*
X163309D02*
X163413D01*
X163546D02*
X163693D01*
X163966D02*
X164069D01*
X164349D02*
X164453D01*
X164563D02*
X164681D01*
X164888D02*
X165220D01*
X165441D02*
X165706D01*
X158789Y102738D02*
X158899D01*
X159143D02*
X159247D01*
X159467D02*
X159792D01*
X160087D02*
X160190D01*
X160448D02*
X160728D01*
X160906D02*
X161230D01*
X161452D02*
X161562D01*
X161694D02*
X161835D01*
X162284D02*
X162580D01*
X162764D02*
X163088D01*
X163309D02*
X163413D01*
X163546D02*
X163693D01*
X163966D02*
X164069D01*
X164349D02*
X164453D01*
X164563D02*
X164689D01*
X164895D02*
X165220D01*
X165441D02*
X165706D01*
X158789Y102731D02*
X158899D01*
X159143D02*
X159247D01*
X159475D02*
X159785D01*
X160087D02*
X160190D01*
X160448D02*
X160728D01*
X160913D02*
X161230D01*
X161452D02*
X161562D01*
X161702D02*
X161835D01*
X162292D02*
X162580D01*
X162771D02*
X163081D01*
X163309D02*
X163413D01*
X163553D02*
X163693D01*
X163966D02*
X164069D01*
X164349D02*
X164453D01*
X164571D02*
X164689D01*
X164895D02*
X165212D01*
X165441D02*
X165706D01*
X158789Y102723D02*
X158899D01*
X159143D02*
X159247D01*
X159482D02*
X159777D01*
X160087D02*
X160190D01*
X160448D02*
X160728D01*
X160920D02*
X161222D01*
X161452D02*
X161562D01*
X161702D02*
X161835D01*
X162300D02*
X162580D01*
X162779D02*
X163074D01*
X163309D02*
X163413D01*
X163561D02*
X163693D01*
X163966D02*
X164069D01*
X164349D02*
X164453D01*
X164579D02*
X164696D01*
X164903D02*
X165205D01*
X165441D02*
X165706D01*
X158789Y102715D02*
X158899D01*
X159143D02*
X159247D01*
X159489D02*
X159770D01*
X160087D02*
X160190D01*
X160448D02*
X160728D01*
X160928D02*
X161216D01*
X161452D02*
X161562D01*
X161710D02*
X161835D01*
X162306D02*
X162580D01*
X162786D02*
X163066D01*
X163309D02*
X163413D01*
X163561D02*
X163693D01*
X163966D02*
X164069D01*
X164349D02*
X164453D01*
X164579D02*
X164696D01*
X164910D02*
X165197D01*
X165441D02*
X165706D01*
X158789Y102709D02*
X158899D01*
X159143D02*
X159247D01*
X159497D02*
X159763D01*
X160087D02*
X160190D01*
X160448D02*
X160728D01*
X160935D02*
X161200D01*
X161452D02*
X161562D01*
X161710D02*
X161835D01*
X162314D02*
X162580D01*
X162793D02*
X163059D01*
X163309D02*
X163413D01*
X163567D02*
X163693D01*
X163966D02*
X164069D01*
X164349D02*
X164453D01*
X164585D02*
X164703D01*
X164925D02*
X165191D01*
X165441D02*
X165706D01*
X158789Y102701D02*
X158899D01*
X159143D02*
X159247D01*
X159505D02*
X159755D01*
X160087D02*
X160190D01*
X160448D02*
X160728D01*
X160950D02*
X161193D01*
X161452D02*
X161562D01*
X161716D02*
X161835D01*
X162322D02*
X162580D01*
X162801D02*
X163051D01*
X163309D02*
X163413D01*
X163567D02*
X163693D01*
X163966D02*
X164069D01*
X164349D02*
X164453D01*
X164585D02*
X164703D01*
X164933D02*
X165175D01*
X165441D02*
X165706D01*
X158789Y102693D02*
X158899D01*
X159143D02*
X159247D01*
X159519D02*
X159740D01*
X160087D02*
X160190D01*
X160448D02*
X160728D01*
X160958D02*
X161178D01*
X161452D02*
X161562D01*
X161716D02*
X161835D01*
X162336D02*
X162580D01*
X162816D02*
X163037D01*
X163309D02*
X163413D01*
X163575D02*
X163693D01*
X163966D02*
X164069D01*
X164349D02*
X164453D01*
X164593D02*
X164711D01*
X164947D02*
X165168D01*
X165441D02*
X165706D01*
X158789Y102687D02*
X158899D01*
X159143D02*
X159247D01*
X159533D02*
X159726D01*
X160087D02*
X160190D01*
X160448D02*
X160728D01*
X160972D02*
X161164D01*
X161452D02*
X161562D01*
X161724D02*
X161835D01*
X162351D02*
X162580D01*
X162830D02*
X163022D01*
X163309D02*
X163413D01*
X163575D02*
X163693D01*
X163966D02*
X164069D01*
X164349D02*
X164453D01*
X164593D02*
X164711D01*
X164962D02*
X165153D01*
X165441D02*
X165706D01*
G74*
X0Y0D02*
M02*
