*
*
G04 PADS VX.2.2 Build Number: 9893964 generated Gerber (RS-274-X) file*
G04 PC Version=2.1*
*
%IN "TMC5160-EVAL_V30.pcb"*%
*
%MOMM*%
*
%FSLAX33Y33*%
*
*
*
*
G04 PC Standard Apertures*
*
*
G04 Thermal Relief Aperture macro.*
%AMTER*
1,1,$1,0,0*
1,0,$1-$2,0,0*
21,0,$3,$4,0,0,45*
21,0,$3,$4,0,0,135*
%
*
*
G04 Annular Aperture macro.*
%AMANN*
1,1,$1,0,0*
1,0,$2,0,0*
%
*
*
G04 Odd Aperture macro.*
%AMODD*
1,1,$1,0,0*
1,0,$1-0.005,0,0*
%
*
*
G04 PC Custom Aperture Macros*
*
*
*
*
*
*
G04 PC Aperture Table*
*
%ADD075C,0.5*%
%ADD100C,0.2*%
%ADD103C,1.8*%
%ADD137C,0.75*%
%ADD151C,1.6*%
%ADD157C,0.4*%
%ADD165C,0.15*%
%ADD166C,0.1*%
%ADD189C,4.5*%
%ADD200C,0.01*%
*
*
*
*
G04 PC Circuitry*
G04 Layer Name TMC5160-EVAL_V30.pcb - circuitry*
%LPD*%
*
*
G04 PC Custom Flashes*
G04 Layer Name TMC5160-EVAL_V30.pcb - flashes*
%LPD*%
*
*
G04 PC Circuitry*
G04 Layer Name TMC5160-EVAL_V30.pcb - circuitry*
%LPD*%
*
G54D75*
G01X171941Y164801D02*
X171676Y164536D01*
X170138Y164801D02*
X170403Y164536D01*
X170138Y162998D02*
X170403Y163263D01*
X171941Y162998D02*
X171676Y163263D01*
X111869Y181169D02*
X112134Y181434D01*
X113530Y181169D02*
X113265Y181434D01*
X113530Y182830D02*
X113265Y182565D01*
X111869Y182830D02*
X112134Y182565D01*
X169830Y104830D02*
X169565Y104565D01*
X168169Y104830D02*
X168434Y104565D01*
X168169Y103169D02*
X168434Y103434D01*
X169830Y103169D02*
X169565Y103434D01*
X104830Y175830D02*
X104565Y175565D01*
X103169Y175830D02*
X103434Y175565D01*
X103169Y174169D02*
X103434Y174434D01*
X104830Y174169D02*
X104565Y174434D01*
X171941Y132001D02*
X171676Y131736D01*
X170138Y132001D02*
X170403Y131736D01*
X170138Y130198D02*
X170403Y130463D01*
X171941Y130198D02*
X171676Y130463D01*
G54D100*
X177100Y165036D02*
X177037D01*
X177037D02*
X176912Y165081D01*
X176912D02*
X176850Y165127D01*
X176787Y165218*
X176787D02*
Y165400D01*
X176787D02*
X176850Y165490D01*
X176850D02*
X176912Y165536D01*
X176912D02*
X177037Y165581D01*
X177037D02*
X177162D01*
X177162D02*
X177287Y165536D01*
X177287D02*
X177475Y165445D01*
X178100Y164990*
X178100D02*
Y165627D01*
G54D103*
X171040Y163900D03*
Y131100D03*
G54D137*
X106700Y101150D03*
X101150Y107250D03*
X105600Y107750D03*
X116700Y101150D03*
X114200D03*
X111700D03*
X109200D03*
X126700D03*
X124200D03*
X121700D03*
X119200D03*
X136700D03*
X134200D03*
X131700D03*
X129200D03*
X133860Y106171D03*
X146700Y101150D03*
X144200D03*
X141700D03*
X139200D03*
X159200D03*
X156700D03*
X154200D03*
X151700D03*
X149200D03*
X169200D03*
X166700D03*
X164200D03*
X161700D03*
X175050Y107950D03*
X171700Y101150D03*
X101150Y111600D03*
X101950Y111050D03*
X103200Y117100D03*
X102150D03*
X108550D03*
Y114600D03*
X109850Y117100D03*
Y114600D03*
X108900Y110000D03*
X120800Y114000D03*
X177850Y117850D03*
Y115350D03*
Y112850D03*
X176550Y110700D03*
X101150Y127250D03*
Y124750D03*
X102150Y119600D03*
X103200D03*
X115000Y123000D03*
X125300Y128800D03*
Y127850D03*
X177850D03*
Y125350D03*
Y122850D03*
Y120350D03*
X101150Y132350D03*
Y134900D03*
Y129800D03*
Y137450D03*
X111100Y138650D03*
X121350Y138850D03*
X125300Y131850D03*
Y132800D03*
Y133750D03*
Y129750D03*
X121240Y135600D03*
X177850Y137850D03*
Y135350D03*
Y132850D03*
Y130350D03*
X101150Y142500D03*
Y139950D03*
Y145050D03*
Y147600D03*
X114000Y147850D03*
X114550Y143550D03*
X124600Y148600D03*
Y146600D03*
X123600D03*
X120600Y147600D03*
X122600D03*
X121600D03*
Y145600D03*
X124600Y147600D03*
X120600Y145600D03*
X123600Y147600D03*
X122600Y148600D03*
Y145600D03*
X121600Y146600D03*
Y148600D03*
X120600D03*
X123600D03*
X124600Y145600D03*
X120600Y146600D03*
X123600Y145600D03*
X122600Y146600D03*
X129875Y140833D03*
X152100Y147600D03*
Y146400D03*
Y148800D03*
Y145200D03*
X165250Y141200D03*
Y144700D03*
X177850Y147850D03*
Y145350D03*
Y142850D03*
Y140350D03*
X101150Y155250D03*
Y150150D03*
Y152700D03*
Y157750D03*
X112200Y153000D03*
X121600Y149600D03*
X121700Y157400D03*
X123850Y159050D03*
X125600Y157450D03*
X122600Y149600D03*
X120600D03*
X123600D03*
X124600D03*
X152100Y150000D03*
X165250Y153800D03*
Y150400D03*
X177850Y157850D03*
Y155350D03*
Y152850D03*
Y150350D03*
X101150Y160300D03*
Y162850D03*
X103450Y167940D03*
X102150D03*
X109850D03*
X108550D03*
X125300Y162400D03*
Y167350D03*
Y165450D03*
Y163350D03*
Y166400D03*
Y161450D03*
X175350Y167150D03*
Y164650D03*
X176350Y162350D03*
X177850Y160350D03*
X101150Y175800D03*
Y178300D03*
Y173300D03*
X102150Y170440D03*
X103450D03*
X108550D03*
X109850D03*
X121800Y174700D03*
X121750Y170650D03*
X152400Y178000D03*
X154100Y179300D03*
X152400D03*
X154100Y178000D03*
X177850Y176900D03*
Y174400D03*
Y171900D03*
X176700Y169650D03*
X107050Y183800D03*
X112050Y183850D03*
X114700D03*
X117300D03*
X109550D03*
X119800D03*
X122300D03*
X124800D03*
X127300D03*
X132300D03*
X129800D03*
X137300D03*
X134800D03*
X142300D03*
X139800D03*
X144800D03*
X147300D03*
X152300D03*
X154800D03*
X157300D03*
X149800D03*
X164800D03*
X162300D03*
X167300D03*
X159800D03*
X169800D03*
X172300D03*
G54D151*
X169000Y104000D03*
X104000Y175000D03*
X112700Y182000D03*
X145040D03*
G54D157*
X102363Y97875D02*
X102272Y98125D01*
X102272D02*
X102090Y98375D01*
X102090D02*
X101909Y98500D01*
X101545*
X101363Y98375*
X101363D02*
X101181Y98125D01*
X101181D02*
X101090Y97875D01*
X101090D02*
X101000Y97500D01*
Y96875*
X101090Y96500*
X101090D02*
X101181Y96250D01*
X101181D02*
X101363Y96000D01*
X101363D02*
X101545Y95875D01*
X101909*
X102090Y96000*
X102090D02*
X102272Y96250D01*
X102272D02*
X102363Y96500D01*
X102363D02*
Y96875D01*
X101909D02*
X102363D01*
X103181Y98500D02*
Y95875D01*
Y98500D02*
X104454Y95875D01*
Y98500D02*
Y95875D01*
X105272Y98500D02*
Y95875D01*
Y98500D02*
X105909D01*
X106181Y98375*
X106181D02*
X106363Y98125D01*
X106363D02*
X106454Y97875D01*
X106454D02*
X106545Y97500D01*
Y96875*
X106454Y96500*
X106454D02*
X106363Y96250D01*
X106363D02*
X106181Y96000D01*
X106181D02*
X105909Y95875D01*
X105272*
X107363Y97000D02*
X109000D01*
X109818Y98500D02*
Y95875D01*
Y98500D02*
X110636D01*
X110909Y98375*
X111000Y98250*
X111090Y98000*
X111090D02*
Y97625D01*
X111090D02*
X111000Y97375D01*
X110909Y97250*
X110636Y97125*
X109818*
X111909Y98500D02*
Y95875D01*
X113818Y97625D02*
Y95875D01*
Y97250D02*
X113636Y97500D01*
X113454Y97625*
X113454D02*
X113181D01*
X113181D02*
X113000Y97500D01*
X112818Y97250*
X112727Y96875*
Y96625*
X112818Y96250*
X113000Y96000*
X113181Y95875*
X113181D02*
X113454D01*
X113454D02*
X113636Y96000D01*
X113818Y96250*
X114636Y97625D02*
Y95875D01*
Y97125D02*
X114909Y97500D01*
X115090Y97625*
X115090D02*
X115363D01*
X115363D02*
X115545Y97500D01*
X115636Y97125*
Y95875*
X116454Y96875D02*
X117545D01*
Y97125*
X117454Y97375*
X117454D02*
X117363Y97500D01*
X117363D02*
X117181Y97625D01*
X117181D02*
X116909D01*
X116727Y97500*
X116545Y97250*
X116454Y96875*
X116454D02*
Y96625D01*
X116454D02*
X116545Y96250D01*
X116727Y96000*
X116909Y95875*
X117181*
X117181D02*
X117363Y96000D01*
X117363D02*
X117545Y96250D01*
X120454Y98500D02*
Y95875D01*
X120454D02*
X121545D01*
X123454Y97625D02*
Y95875D01*
Y97250D02*
X123272Y97500D01*
X123272D02*
X123090Y97625D01*
X123090D02*
X122818D01*
X122636Y97500*
X122454Y97250*
X122454D02*
X122363Y96875D01*
X122363D02*
Y96625D01*
X122363D02*
X122454Y96250D01*
X122454D02*
X122636Y96000D01*
X122818Y95875*
X123090*
X123090D02*
X123272Y96000D01*
X123272D02*
X123454Y96250D01*
X124363Y97625D02*
X124909Y95875D01*
X125454Y97625D02*
X124909Y95875D01*
X124727Y95375*
X124545Y95125*
X124363Y95000*
X124363D02*
X124272D01*
X126272Y96875D02*
X127363D01*
X127363D02*
Y97125D01*
X127363D02*
X127272Y97375D01*
X127272D02*
X127181Y97500D01*
X127181D02*
X127000Y97625D01*
X126727*
X126545Y97500*
X126363Y97250*
X126363D02*
X126272Y96875D01*
X126272D02*
Y96625D01*
X126272D02*
X126363Y96250D01*
X126363D02*
X126545Y96000D01*
X126727Y95875*
X127000*
X127181Y96000*
X127181D02*
X127363Y96250D01*
X128181Y97625D02*
Y95875D01*
Y96875D02*
X128272Y97250D01*
X128272D02*
X128454Y97500D01*
X128454D02*
X128636Y97625D01*
X128909*
X131909Y97875D02*
Y98000D01*
X132000Y98250*
X132090Y98375*
X132090D02*
X132272Y98500D01*
X132272D02*
X132636D01*
X132818Y98375*
X132909Y98250*
X133000Y98000*
Y97750*
X132909Y97500*
X132727Y97125*
X131818Y95875*
X133090*
X101636Y92500D02*
Y89875D01*
X101000Y92500D02*
X102272D01*
X103090D02*
Y89875D01*
Y92500D02*
X103818Y89875D01*
X104545Y92500D02*
X103818Y89875D01*
X104545Y92500D02*
Y89875D01*
X106727Y91875D02*
X106636Y92125D01*
X106454Y92375*
X106454D02*
X106272Y92500D01*
X106272D02*
X105909D01*
X105727Y92375*
X105545Y92125*
X105454Y91875*
X105454D02*
X105363Y91500D01*
X105363D02*
Y90875D01*
X105363D02*
X105454Y90500D01*
X105454D02*
X105545Y90250D01*
X105727Y90000*
X105909Y89875*
X106272*
X106272D02*
X106454Y90000D01*
X106454D02*
X106636Y90250D01*
X106727Y90500*
X107636Y91875D02*
Y92000D01*
X107727Y92250*
X107818Y92375*
X108000Y92500*
X108363*
X108363D02*
X108545Y92375D01*
X108636Y92250*
X108727Y92000*
Y91750*
X108636Y91500*
X108454Y91125*
X108454D02*
X107545Y89875D01*
X108818*
X109636Y92000D02*
X109818Y92125D01*
X110090Y92500*
X110090D02*
Y89875D01*
X112000Y92125D02*
X111909Y92375D01*
X111636Y92500*
X111454*
X111454D02*
X111181Y92375D01*
X111181D02*
X111000Y92000D01*
X110909Y91375*
Y90750*
X111000Y90250*
X111181Y90000*
X111181D02*
X111454Y89875D01*
X111454D02*
X111545D01*
X111818Y90000*
X112000Y90250*
X112090Y90625*
X112090D02*
Y90750D01*
X112090D02*
X112000Y91125D01*
X111818Y91375*
X111545Y91500*
X111454*
X111454D02*
X111181Y91375D01*
X111181D02*
X111000Y91125D01*
X110909Y90750*
X113454Y92500D02*
X113181Y92375D01*
X113181D02*
X113000Y92000D01*
X112909Y91375*
Y91000*
X113000Y90375*
X113181Y90000*
X113181D02*
X113454Y89875D01*
X113454D02*
X113636D01*
X113909Y90000*
X114090Y90375*
X114090D02*
X114181Y91000D01*
X114181D02*
Y91375D01*
X114181D02*
X114090Y92000D01*
X114090D02*
X113909Y92375D01*
X113636Y92500*
X113454*
X115000Y91000D02*
X116636D01*
X117454Y92500D02*
Y89875D01*
Y92500D02*
X118636D01*
X117454Y91250D02*
X118181D01*
X117454Y89875D02*
X118636D01*
X119454Y92500D02*
X120181Y89875D01*
X120909Y92500D02*
X120181Y89875D01*
X122454Y92500D02*
X121727Y89875D01*
X122454Y92500D02*
X123181Y89875D01*
X122000Y90750D02*
X122909D01*
X124000Y92500D02*
Y89875D01*
X125090*
X128000Y92500D02*
X128727Y89875D01*
X129454Y92500D02*
X128727Y89875D01*
X130272Y92000D02*
X130454Y92125D01*
X130454D02*
X130727Y92500D01*
Y89875*
X131636Y90125D02*
X131545Y90000D01*
X131636Y89875*
X131727Y90000*
X131636Y90125*
X132545Y92000D02*
X132727Y92125D01*
X133000Y92500*
Y89875*
X142181Y92000D02*
X142363Y92125D01*
X142363D02*
X142636Y92500D01*
Y89875*
X144000Y92500D02*
X143727Y92375D01*
X143545Y92000*
X143454Y91375*
X143454D02*
Y91000D01*
X143454D02*
X143545Y90375D01*
X143727Y90000*
X144000Y89875*
X144181*
X144181D02*
X144454Y90000D01*
X144454D02*
X144636Y90375D01*
X144727Y91000*
Y91375*
X144636Y92000*
X144454Y92375*
X144454D02*
X144181Y92500D01*
X144181D02*
X144000D01*
X145636Y90125D02*
X145545Y90000D01*
X145636Y89875*
X145727Y90000*
X145636Y90125*
X147090Y92500D02*
X146818Y92375D01*
X146636Y92000*
X146545Y91375*
Y91000*
X146636Y90375*
X146818Y90000*
X147090Y89875*
X147090D02*
X147272D01*
X147272D02*
X147545Y90000D01*
X147727Y90375*
X147818Y91000*
Y91375*
X147727Y92000*
X147545Y92375*
X147272Y92500*
X147272D02*
X147090D01*
X149818Y91625D02*
X149727Y91250D01*
X149545Y91000*
X149272Y90875*
X149272D02*
X149181D01*
X149181D02*
X148909Y91000D01*
X148727Y91250*
X148636Y91625*
Y91750*
X148727Y92125*
X148909Y92375*
X149181Y92500*
X149181D02*
X149272D01*
X149272D02*
X149545Y92375D01*
X149727Y92125*
X149818Y91625*
Y91000*
X149727Y90375*
X149545Y90000*
X149272Y89875*
X149272D02*
X149090D01*
X149090D02*
X148818Y90000D01*
X148727Y90250*
X150727Y90125D02*
X150636Y90000D01*
X150727Y89875*
X150818Y90000*
X150727Y90125*
X151727Y91875D02*
Y92000D01*
X151818Y92250*
X151909Y92375*
X152090Y92500*
X152090D02*
X152454D01*
X152454D02*
X152636Y92375D01*
X152727Y92250*
X152818Y92000*
Y91750*
X152727Y91500*
X152545Y91125*
X151636Y89875*
X152909*
X154272Y92500D02*
X154000Y92375D01*
X153818Y92000*
X153727Y91375*
Y91000*
X153818Y90375*
X154000Y90000*
X154272Y89875*
X154272D02*
X154454D01*
X154454D02*
X154727Y90000D01*
X154909Y90375*
X155000Y91000*
Y91375*
X154909Y92000*
X154727Y92375*
X154454Y92500*
X154454D02*
X154272D01*
X155818Y92000D02*
X156000Y92125D01*
X156272Y92500*
X156272D02*
Y89875D01*
X157545Y92500D02*
X157272Y92375D01*
X157272D02*
X157181Y92125D01*
X157181D02*
Y91875D01*
X157181D02*
X157272Y91625D01*
X157272D02*
X157454Y91500D01*
X157454D02*
X157818Y91375D01*
X158090Y91250*
X158090D02*
X158272Y91000D01*
X158272D02*
X158363Y90750D01*
X158363D02*
Y90375D01*
X158363D02*
X158272Y90125D01*
X158272D02*
X158181Y90000D01*
X158181D02*
X157909Y89875D01*
X157545*
X157272Y90000*
X157272D02*
X157181Y90125D01*
X157181D02*
X157090Y90375D01*
X157090D02*
Y90750D01*
X157090D02*
X157181Y91000D01*
X157181D02*
X157363Y91250D01*
X157363D02*
X157636Y91375D01*
X158000Y91500*
X158181Y91625*
X158181D02*
X158272Y91875D01*
X158272D02*
Y92125D01*
X158272D02*
X158181Y92375D01*
X158181D02*
X157909Y92500D01*
X157545*
X143865Y182000D02*
X144240D01*
X145040Y180825D02*
Y181200D01*
X146215Y182000D02*
X145840D01*
X145040Y183175D02*
Y182800D01*
G54D165*
X170175Y104000D02*
G75*
G03X170175I-1175J0D01*
G01X172315Y131100D02*
G03X172315I-1275J0D01*
G01X170525Y142250D02*
G03X170525I-1225J0D01*
G01Y145750D02*
G03X170525I-1225J0D01*
G01Y149250D02*
G03X170525I-1225J0D01*
G01Y152750D02*
G03X170525I-1225J0D01*
G01X172315Y163900D02*
G03X172315I-1275J0D01*
G01X167035Y131100D02*
G03X167035I-1075J0D01*
G01Y163900D02*
G03X167035I-1075J0D01*
G01X168425Y175000D02*
G03X168425I-1125J0D01*
G01X163075Y127800D02*
G03X163075I-725J0D01*
G01Y131350D02*
G03X163075I-725J0D01*
G01Y134750D02*
G03X163075I-725J0D01*
G01Y137200D02*
G03X163075I-725J0D01*
G01Y140750D02*
G03X163075I-725J0D01*
G01Y144150D02*
G03X163075I-725J0D01*
G01X163125Y147600D02*
G03X163125I-725J0D01*
G01X163075Y151250D02*
G03X163075I-725J0D01*
G01Y154100D02*
G03X163075I-725J0D01*
G01Y157500D02*
G03X163075I-725J0D01*
G01Y159950D02*
G03X163075I-725J0D01*
G01Y163500D02*
G03X163075I-725J0D01*
G01Y166900D02*
G03X163075I-725J0D01*
G01X160775Y127800D02*
G03X160775I-725J0D01*
G01Y131300D02*
G03X160775I-725J0D01*
G01Y134750D02*
G03X160775I-725J0D01*
G01Y137200D02*
G03X160775I-725J0D01*
G01Y140700D02*
G03X160775I-725J0D01*
G01X163625Y175000D02*
G03X163625I-1325J0D01*
G01X160775Y154050D02*
G03X160775I-725J0D01*
G01Y157500D02*
G03X160775I-725J0D01*
G01Y159950D02*
G03X160775I-725J0D01*
G01Y163450D02*
G03X160775I-725J0D01*
G01Y166900D02*
G03X160775I-725J0D01*
G01X158475Y127800D02*
G03X158475I-725J0D01*
G01Y134750D02*
G03X158475I-725J0D01*
G01Y137200D02*
G03X158475I-725J0D01*
G01Y144150D02*
G03X158475I-725J0D01*
G01Y157500D02*
G03X158475I-725J0D01*
G01Y159950D02*
G03X158475I-725J0D01*
G01Y166900D02*
G03X158475I-725J0D01*
G01X156225Y127800D02*
G03X156225I-725J0D01*
G01Y134750D02*
G03X156225I-725J0D01*
G01Y137200D02*
G03X156225I-725J0D01*
G01Y144150D02*
G03X156225I-725J0D01*
G01Y157500D02*
G03X156225I-725J0D01*
G01Y159950D02*
G03X156225I-725J0D01*
G01Y166900D02*
G03X156225I-725J0D01*
G01X153625Y128100D02*
G03X153625I-725J0D01*
G01Y134900D02*
G03X153625I-725J0D01*
G01Y144200D02*
G03X153625I-725J0D01*
G01Y157500D02*
G03X153625I-725J0D01*
G01Y166900D02*
G03X153625I-725J0D01*
G01Y168600D02*
G03X153625I-725J0D01*
G01X151875Y128100D02*
G03X151875I-725J0D01*
G01Y131500D02*
G03X151875I-725J0D01*
G01Y133200D02*
G03X151875I-725J0D01*
G01Y134900D02*
G03X151875I-725J0D01*
G01X150125Y128100D02*
G03X150125I-725J0D01*
G01Y131500D02*
G03X150125I-725J0D01*
G01Y133200D02*
G03X150125I-725J0D01*
G01Y134900D02*
G03X150125I-725J0D01*
G01X151875Y140800D02*
G03X151875I-725J0D01*
G01Y142500D02*
G03X151875I-725J0D01*
G01Y144200D02*
G03X151875I-725J0D01*
G01X150125Y140800D02*
G03X150125I-725J0D01*
G01Y142500D02*
G03X150125I-725J0D01*
G01Y144200D02*
G03X150125I-725J0D01*
G01Y145900D02*
G03X150125I-725J0D01*
G01X151875Y154100D02*
G03X151875I-725J0D01*
G01Y155800D02*
G03X151875I-725J0D01*
G01Y157500D02*
G03X151875I-725J0D01*
G01X150125Y150300D02*
G03X150125I-725J0D01*
G01Y154100D02*
G03X150125I-725J0D01*
G01Y155800D02*
G03X150125I-725J0D01*
G01Y157500D02*
G03X150125I-725J0D01*
G01X151875Y163500D02*
G03X151875I-725J0D01*
G01Y165100D02*
G03X151875I-725J0D01*
G01Y166900D02*
G03X151875I-725J0D01*
G01Y168600D02*
G03X151875I-725J0D01*
G01X150125Y163500D02*
G03X150125I-725J0D01*
G01Y165100D02*
G03X150125I-725J0D01*
G01Y166900D02*
G03X150125I-725J0D01*
G01Y168600D02*
G03X150125I-725J0D01*
G01X148375Y126600D02*
G03X148375I-725J0D01*
G01Y128100D02*
G03X148375I-725J0D01*
G01X148425Y129800D02*
G03X148425I-725J0D01*
G01X148375Y131500D02*
G03X148375I-725J0D01*
G01Y133200D02*
G03X148375I-725J0D01*
G01Y134900D02*
G03X148375I-725J0D01*
G01Y137100D02*
G03X148375I-725J0D01*
G01X148425Y138800D02*
G03X148425I-725J0D01*
G01X148375Y140800D02*
G03X148375I-725J0D01*
G01Y142500D02*
G03X148375I-725J0D01*
G01Y144200D02*
G03X148375I-725J0D01*
G01Y145900D02*
G03X148375I-725J0D01*
G01Y148600D02*
G03X148375I-725J0D01*
G01Y150300D02*
G03X148375I-725J0D01*
G01X148425Y152200D02*
G03X148425I-725J0D01*
G01X148375Y154100D02*
G03X148375I-725J0D01*
G01Y155800D02*
G03X148375I-725J0D01*
G01Y157500D02*
G03X148375I-725J0D01*
G01Y159800D02*
G03X148375I-725J0D01*
G01Y161600D02*
G03X148375I-725J0D01*
G01X148325Y163500D02*
G03X148325I-725J0D01*
G01Y165100D02*
G03X148325I-725J0D01*
G01Y166900D02*
G03X148325I-725J0D01*
G01Y168600D02*
G03X148325I-725J0D01*
G01X146575Y126600D02*
G03X146575I-725J0D01*
G01Y128100D02*
G03X146575I-725J0D01*
G01X146625Y129800D02*
G03X146625I-725J0D01*
G01X146575Y131500D02*
G03X146575I-725J0D01*
G01Y133200D02*
G03X146575I-725J0D01*
G01Y134900D02*
G03X146575I-725J0D01*
G01Y137100D02*
G03X146575I-725J0D01*
G01X146625Y138800D02*
G03X146625I-725J0D01*
G01X146575Y140800D02*
G03X146575I-725J0D01*
G01Y142500D02*
G03X146575I-725J0D01*
G01Y144200D02*
G03X146575I-725J0D01*
G01Y145900D02*
G03X146575I-725J0D01*
G01Y148600D02*
G03X146575I-725J0D01*
G01Y150300D02*
G03X146575I-725J0D01*
G01X146625Y152200D02*
G03X146625I-725J0D01*
G01X146575Y154100D02*
G03X146575I-725J0D01*
G01Y155800D02*
G03X146575I-725J0D01*
G01Y157500D02*
G03X146575I-725J0D01*
G01X146625Y159800D02*
G03X146625I-725J0D01*
G01Y161600D02*
G03X146625I-725J0D01*
G01X146575Y163500D02*
G03X146575I-725J0D01*
G01Y165100D02*
G03X146575I-725J0D01*
G01Y166900D02*
G03X146575I-725J0D01*
G01Y168600D02*
G03X146575I-725J0D01*
G01X144775Y126600D02*
G03X144775I-725J0D01*
G01Y128100D02*
G03X144775I-725J0D01*
G01Y134900D02*
G03X144775I-725J0D01*
G01Y137100D02*
G03X144775I-725J0D01*
G01Y144200D02*
G03X144775I-725J0D01*
G01Y145900D02*
G03X144775I-725J0D01*
G01Y148600D02*
G03X144775I-725J0D01*
G01Y150300D02*
G03X144775I-725J0D01*
G01Y157500D02*
G03X144775I-725J0D01*
G01X144825Y159800D02*
G03X144825I-725J0D01*
G01X144775Y166900D02*
G03X144775I-725J0D01*
G01Y168600D02*
G03X144775I-725J0D01*
G01X146215Y182000D02*
G03X146215I-1175J0D01*
G01X143025Y126600D02*
G03X143025I-725J0D01*
G01Y128100D02*
G03X143025I-725J0D01*
G01Y134900D02*
G03X143025I-725J0D01*
G01Y137100D02*
G03X143025I-725J0D01*
G01Y144200D02*
G03X143025I-725J0D01*
G01Y145900D02*
G03X143025I-725J0D01*
G01Y148600D02*
G03X143025I-725J0D01*
G01Y150300D02*
G03X143025I-725J0D01*
G01Y157500D02*
G03X143025I-725J0D01*
G01X143075Y159800D02*
G03X143075I-725J0D01*
G01X143025Y166900D02*
G03X143025I-725J0D01*
G01Y168600D02*
G03X143025I-725J0D01*
G01X143375Y182000D02*
G03X143375I-875J0D01*
G01X141225Y126600D02*
G03X141225I-725J0D01*
G01Y128100D02*
G03X141225I-725J0D01*
G01Y134900D02*
G03X141225I-725J0D01*
G01Y137100D02*
G03X141225I-725J0D01*
G01Y144200D02*
G03X141225I-725J0D01*
G01Y145900D02*
G03X141225I-725J0D01*
G01Y148600D02*
G03X141225I-725J0D01*
G01Y150300D02*
G03X141225I-725J0D01*
G01Y157500D02*
G03X141225I-725J0D01*
G01X141275Y159800D02*
G03X141275I-725J0D01*
G01X141225Y166900D02*
G03X141225I-725J0D01*
G01Y168600D02*
G03X141225I-725J0D01*
G01X137763Y128607D02*
G03X137763I-725J0D01*
G01X137225Y130900D02*
G03X137225I-725J0D01*
G01X137275Y132650D02*
G03X137275I-725J0D01*
G01X138925Y144600D02*
G03X138925I-725J0D01*
G01X137325Y139100D02*
G03X137325I-725J0D01*
G01X137275Y140850D02*
G03X137275I-725J0D01*
G01Y142650D02*
G03X137275I-725J0D01*
G01X137225Y144600D02*
G03X137225I-725J0D01*
G01X137763Y151268D02*
G03X137763I-725J0D01*
G01X137325Y153650D02*
G03X137325I-725J0D01*
G01Y155250D02*
G03X137325I-725J0D01*
G01X137375Y156800D02*
G03X137375I-725J0D01*
G01X137763Y158352D02*
G03X137763I-725J0D01*
G01X138625Y166950D02*
G03X138625I-725J0D01*
G01Y168900D02*
G03X138625I-725J0D01*
G01X135625Y130900D02*
G03X135625I-725J0D01*
G01X135675Y132650D02*
G03X135675I-725J0D01*
G01Y134550D02*
G03X135675I-725J0D01*
G01Y136400D02*
G03X135675I-725J0D01*
G01X135725Y139100D02*
G03X135725I-725J0D01*
G01X135675Y140850D02*
G03X135675I-725J0D01*
G01Y142650D02*
G03X135675I-725J0D01*
G01X135625Y144600D02*
G03X135625I-725J0D01*
G01X135725Y152000D02*
G03X135725I-725J0D01*
G01X135675Y153650D02*
G03X135675I-725J0D01*
G01Y155250D02*
G03X135675I-725J0D01*
G01Y156800D02*
G03X135675I-725J0D01*
G01X137025Y160950D02*
G03X137025I-725J0D01*
G01Y163050D02*
G03X137025I-725J0D01*
G01Y165000D02*
G03X137025I-725J0D01*
G01X136975Y166950D02*
G03X136975I-725J0D01*
G01Y168900D02*
G03X136975I-725J0D01*
G01X134075Y134600D02*
G03X134075I-725J0D01*
G01Y136400D02*
G03X134075I-725J0D01*
G01Y140850D02*
G03X134075I-725J0D01*
G01Y142650D02*
G03X134075I-725J0D01*
G01X134025Y144600D02*
G03X134025I-725J0D01*
G01X134125Y152000D02*
G03X134125I-725J0D01*
G01X134075Y153650D02*
G03X134075I-725J0D01*
G01Y155250D02*
G03X134075I-725J0D01*
G01Y156800D02*
G03X134075I-725J0D01*
G01X135425Y160950D02*
G03X135425I-725J0D01*
G01Y163050D02*
G03X135425I-725J0D01*
G01Y165000D02*
G03X135425I-725J0D01*
G01X135375Y166950D02*
G03X135375I-725J0D01*
G01Y168900D02*
G03X135375I-725J0D01*
G01X129825Y136700D02*
G03X129825I-525J0D01*
G01X130575Y138650D02*
G03X130575I-725J0D01*
G01X128575Y136700D02*
G03X128575I-525J0D01*
G01X128975Y142819D02*
G03X128975I-725J0D01*
G01X129675Y146900D02*
G03X129675I-725J0D01*
G01Y148900D02*
G03X129675I-725J0D01*
G01X130875Y153950D02*
G03X130875I-725J0D01*
G01X129875Y158500D02*
G03X129875I-525J0D01*
G01X127925Y154850D02*
G03X127925I-525J0D01*
G01X128575Y158500D02*
G03X128575I-525J0D01*
G01X126075Y140550D02*
G03X126075I-525J0D01*
G01X124375Y154550D02*
G03X124375I-525J0D01*
G01X120275Y118150D02*
G03X120275I-525J0D01*
G01X120375Y137550D02*
G03X120375I-525J0D01*
G01Y138850D02*
G03X120375I-525J0D01*
G01X119160Y112395D02*
G03X119160I-525J0D01*
G01X118975Y118150D02*
G03X118975I-525J0D01*
G01X119025Y134440D02*
G03X119025I-525J0D01*
G01X119375Y151450D02*
G03X119375I-525J0D01*
G01X120775Y170650D02*
G03X120775I-525J0D01*
G01X121195Y182000D02*
G03X121195I-875J0D01*
G01X118825Y154400D02*
G03X118825I-525J0D01*
G01X119275Y170650D02*
G03X119275I-525J0D01*
G01X115475Y121700D02*
G03X115475I-525J0D01*
G01X116425Y140050D02*
G03X116425I-525J0D01*
G01X116725Y143400D02*
G03X116725I-525J0D01*
G01X117475Y144250D02*
G03X117475I-525J0D01*
G01X117775Y170650D02*
G03X117775I-525J0D01*
G01X118025Y176888D02*
G03X118025I-525J0D01*
G01X118655Y182000D02*
G03X118655I-875J0D01*
G01X115975Y144750D02*
G03X115975I-525J0D01*
G01X113125Y114700D02*
G03X113125I-525J0D01*
G01X114125Y115800D02*
G03X114125I-525J0D01*
G01X113125Y116900D02*
G03X113125I-525J0D01*
G01Y118600D02*
G03X113125I-525J0D01*
G01X114125Y119700D02*
G03X114125I-525J0D01*
G01X112925Y120800D02*
G03X112925I-525J0D01*
G01X113875Y122950D02*
G03X113875I-525J0D01*
G01X114725Y146350D02*
G03X114725I-525J0D01*
G01X114525Y149550D02*
G03X114525I-525J0D01*
G01X115425Y157700D02*
G03X115425I-525J0D01*
G01X116275Y170650D02*
G03X116275I-525J0D01*
G01X111721Y112569D02*
G03X111721I-525J0D01*
G01X111175Y123450D02*
G03X111175I-525J0D01*
G01X111475Y141200D02*
G03X111475I-525J0D01*
G01X111825Y142200D02*
G03X111825I-525J0D01*
G01X111875Y143300D02*
G03X111875I-525J0D01*
G01X112275Y147800D02*
G03X112275I-525J0D01*
G01X112675Y148800D02*
G03X112675I-525J0D01*
G01X113425Y149900D02*
G03X113425I-525J0D01*
G01X113975Y151050D02*
G03X113975I-525J0D01*
G01X114775Y170650D02*
G03X114775I-525J0D01*
G01X115025Y176888D02*
G03X115025I-525J0D01*
G01X116115Y182000D02*
G03X116115I-875J0D01*
G01X112325Y151050D02*
G03X112325I-525J0D01*
G01X112975Y157700D02*
G03X112975I-525J0D01*
G01Y159000D02*
G03X112975I-525J0D01*
G01X111875Y161550D02*
G03X111875I-525J0D01*
G01X111475Y162600D02*
G03X111475I-525J0D01*
G01X111806Y166600D02*
G03X111806I-525J0D01*
G01X113875Y182000D02*
G03X113875I-1175J0D01*
G01X106425Y111500D02*
G03X106425I-525J0D01*
G01X108195Y120910D02*
G03X108195I-925J0D01*
G01Y123450D02*
G03X108195I-925J0D01*
G01Y125990D02*
G03X108195I-925J0D01*
G01Y128530D02*
G03X108195I-925J0D01*
G01Y131070D02*
G03X108195I-925J0D01*
G01Y133610D02*
G03X108195I-925J0D01*
G01Y136150D02*
G03X108195I-925J0D01*
G01Y138690D02*
G03X108195I-925J0D01*
G01Y141230D02*
G03X108195I-925J0D01*
G01Y143770D02*
G03X108195I-925J0D01*
G01Y146310D02*
G03X108195I-925J0D01*
G01Y148850D02*
G03X108195I-925J0D01*
G01Y151390D02*
G03X108195I-925J0D01*
G01Y153930D02*
G03X108195I-925J0D01*
G01Y156470D02*
G03X108195I-925J0D01*
G01Y159010D02*
G03X108195I-925J0D01*
G01Y161550D02*
G03X108195I-925J0D01*
G01Y164090D02*
G03X108195I-925J0D01*
G01X105655Y120910D02*
G03X105655I-925J0D01*
G01Y123450D02*
G03X105655I-925J0D01*
G01Y125990D02*
G03X105655I-925J0D01*
G01Y128530D02*
G03X105655I-925J0D01*
G01Y131070D02*
G03X105655I-925J0D01*
G01Y133610D02*
G03X105655I-925J0D01*
G01Y136150D02*
G03X105655I-925J0D01*
G01Y138690D02*
G03X105655I-925J0D01*
G01Y141230D02*
G03X105655I-925J0D01*
G01Y143770D02*
G03X105655I-925J0D01*
G01Y146310D02*
G03X105655I-925J0D01*
G01Y148850D02*
G03X105655I-925J0D01*
G01Y151390D02*
G03X105655I-925J0D01*
G01Y153930D02*
G03X105655I-925J0D01*
G01Y156470D02*
G03X105655I-925J0D01*
G01Y159010D02*
G03X105655I-925J0D01*
G01Y161550D02*
G03X105655I-925J0D01*
G01Y164090D02*
G03X105655I-925J0D01*
G01X105175Y175000D02*
G03X105175I-1175J0D01*
G01X178375Y181000D02*
G03X175000Y184375I-3375J0D01*
G01X104000*
G03X100625Y181000I0J-3375*
G01Y104000*
G03X104000Y100625I3375J0*
G01X175000*
G03X178375Y104000I0J3375*
G01Y162924*
X178375D02*
X176000D01*
X175924Y163000D02*
G03X176000Y162924I76J0D01*
G01X175924Y163000D02*
Y169000D01*
X176000Y169075D02*
G03X175924Y169000I0J-75D01*
G01X176000Y169075D02*
X178375D01*
Y181000*
X170175Y104000D02*
G03X170175I-1175J0D01*
G01X172315Y131100D02*
G03X172315I-1275J0D01*
G01X170525Y142250D02*
G03X170525I-1225J0D01*
G01Y145750D02*
G03X170525I-1225J0D01*
G01Y149250D02*
G03X170525I-1225J0D01*
G01Y152750D02*
G03X170525I-1225J0D01*
G01X172315Y163900D02*
G03X172315I-1275J0D01*
G01X167035Y131100D02*
G03X167035I-1075J0D01*
G01Y163900D02*
G03X167035I-1075J0D01*
G01X168425Y175000D02*
G03X168425I-1125J0D01*
G01X163075Y127800D02*
G03X163075I-725J0D01*
G01Y131350D02*
G03X163075I-725J0D01*
G01Y134750D02*
G03X163075I-725J0D01*
G01Y137200D02*
G03X163075I-725J0D01*
G01Y140750D02*
G03X163075I-725J0D01*
G01Y144150D02*
G03X163075I-725J0D01*
G01X163125Y147600D02*
G03X163125I-725J0D01*
G01X163075Y151250D02*
G03X163075I-725J0D01*
G01Y154100D02*
G03X163075I-725J0D01*
G01Y157500D02*
G03X163075I-725J0D01*
G01Y159950D02*
G03X163075I-725J0D01*
G01Y163500D02*
G03X163075I-725J0D01*
G01Y166900D02*
G03X163075I-725J0D01*
G01X160775Y127800D02*
G03X160775I-725J0D01*
G01Y131300D02*
G03X160775I-725J0D01*
G01Y134750D02*
G03X160775I-725J0D01*
G01Y137200D02*
G03X160775I-725J0D01*
G01Y140700D02*
G03X160775I-725J0D01*
G01X160706Y148200D02*
G03Y149400I-406J600D01*
G01Y147000D02*
G03Y148200I-406J600D01*
G01Y145800D02*
G03Y147000I-406J600D01*
G01X160645Y144562D02*
G03X160706Y145800I-345J638D01*
G01X159704Y144787D02*
G03X160645Y144562I346J-637D01*
G01X159893Y145800D02*
G03X159704Y144787I407J-600D01*
G01X159893Y147000D02*
G03Y145800I407J-600D01*
G01Y148200D02*
G03Y147000I407J-600D01*
G01Y149400D02*
G03Y148200I407J-600D01*
G01X159850Y150569D02*
G03X159893Y149400I450J-569D01*
G01X160549Y150680D02*
G03X159850Y150569I-449J570D01*
G01X160706Y149400D02*
G03X160549Y150680I-406J600D01*
G01X163625Y175000D02*
G03X163625I-1325J0D01*
G01X160775Y154050D02*
G03X160775I-725J0D01*
G01Y157500D02*
G03X160775I-725J0D01*
G01Y159950D02*
G03X160775I-725J0D01*
G01Y163450D02*
G03X160775I-725J0D01*
G01Y166900D02*
G03X160775I-725J0D01*
G01X158475Y127800D02*
G03X158475I-725J0D01*
G01Y134750D02*
G03X158475I-725J0D01*
G01Y137200D02*
G03X158475I-725J0D01*
G01Y144150D02*
G03X158475I-725J0D01*
G01Y157500D02*
G03X158475I-725J0D01*
G01Y159950D02*
G03X158475I-725J0D01*
G01Y166900D02*
G03X158475I-725J0D01*
G01X156225Y127800D02*
G03X156225I-725J0D01*
G01Y134750D02*
G03X156225I-725J0D01*
G01Y137200D02*
G03X156225I-725J0D01*
G01Y144150D02*
G03X156225I-725J0D01*
G01Y157500D02*
G03X156225I-725J0D01*
G01Y159950D02*
G03X156225I-725J0D01*
G01Y166900D02*
G03X156225I-725J0D01*
G01X153625Y128100D02*
G03X153625I-725J0D01*
G01Y134900D02*
G03X153625I-725J0D01*
G01Y144200D02*
G03X153625I-725J0D01*
G01Y157500D02*
G03X153625I-725J0D01*
G01Y166900D02*
G03X153625I-725J0D01*
G01Y168600D02*
G03X153625I-725J0D01*
G01X153911Y174400D02*
G03X154288I189J-700D01*
G01X154288D02*
G03X153911I-188J700D01*
G01X150116Y126712D02*
G03X149639Y125915I-716J-112D01*
G01X149639D02*
G03X150116Y126712I717J113D01*
G01X151875Y128100D02*
G03X151875I-725J0D01*
G01Y131500D02*
G03X151875I-725J0D01*
G01Y133200D02*
G03X151875I-725J0D01*
G01Y134900D02*
G03X151875I-725J0D01*
G01X150125Y128100D02*
G03X150125I-725J0D01*
G01Y131500D02*
G03X150125I-725J0D01*
G01Y133200D02*
G03X150125I-725J0D01*
G01Y134900D02*
G03X150125I-725J0D01*
G01X149646Y136418D02*
G03X151084Y136377I722J70D01*
G01X150121Y137169D02*
G03X149646Y136418I-721J-69D01*
G01X150433Y137210D02*
G03X150121Y137169I-65J-722D01*
G01X151084Y136377D02*
G03X150433Y137210I66J723D01*
G01X151875Y140800D02*
G03X151875I-725J0D01*
G01Y142500D02*
G03X151875I-725J0D01*
G01Y144200D02*
G03X151875I-725J0D01*
G01X150125Y140800D02*
G03X150125I-725J0D01*
G01Y142500D02*
G03X150125I-725J0D01*
G01Y144200D02*
G03X150125I-725J0D01*
G01Y145900D02*
G03X150125I-725J0D01*
G01X150091Y148817D02*
G03X149666Y147925I-691J-217D01*
G01X149666D02*
G03X150091Y148817I692J218D01*
G01X151875Y154100D02*
G03X151875I-725J0D01*
G01Y155800D02*
G03X151875I-725J0D01*
G01Y157500D02*
G03X151875I-725J0D01*
G01X150125Y150300D02*
G03X150125I-725J0D01*
G01Y154100D02*
G03X150125I-725J0D01*
G01Y155800D02*
G03X150125I-725J0D01*
G01Y157500D02*
G03X150125I-725J0D01*
G01X149632Y159098D02*
G03X151059Y159088I715J126D01*
G01X150164Y159925D02*
G03X149632Y159098I-714J-125D01*
G01X150487Y159935D02*
G03X150164Y159925I-140J-711D01*
G01X151059Y159088D02*
G03X150487Y159935I141J712D01*
G01X151875Y163500D02*
G03X151875I-725J0D01*
G01Y165100D02*
G03X151875I-725J0D01*
G01Y166900D02*
G03X151875I-725J0D01*
G01Y168600D02*
G03X151875I-725J0D01*
G01X152211Y174400D02*
G03X152588I189J-700D01*
G01X152588D02*
G03X152211I-188J700D01*
G01X150125Y163500D02*
G03X150125I-725J0D01*
G01Y165100D02*
G03X150125I-725J0D01*
G01Y166900D02*
G03X150125I-725J0D01*
G01Y168600D02*
G03X150125I-725J0D01*
G01X148375Y126600D02*
G03X148375I-725J0D01*
G01Y128100D02*
G03X148375I-725J0D01*
G01X148425Y129800D02*
G03X148425I-725J0D01*
G01X148375Y131500D02*
G03X148375I-725J0D01*
G01Y133200D02*
G03X148375I-725J0D01*
G01Y134900D02*
G03X148375I-725J0D01*
G01Y137100D02*
G03X148375I-725J0D01*
G01X148425Y138800D02*
G03X148425I-725J0D01*
G01X148375Y140800D02*
G03X148375I-725J0D01*
G01Y142500D02*
G03X148375I-725J0D01*
G01Y144200D02*
G03X148375I-725J0D01*
G01Y145900D02*
G03X148375I-725J0D01*
G01Y148600D02*
G03X148375I-725J0D01*
G01Y150300D02*
G03X148375I-725J0D01*
G01X148425Y152200D02*
G03X148425I-725J0D01*
G01X148375Y154100D02*
G03X148375I-725J0D01*
G01Y155800D02*
G03X148375I-725J0D01*
G01Y157500D02*
G03X148375I-725J0D01*
G01Y159800D02*
G03X148375I-725J0D01*
G01Y161600D02*
G03X148375I-725J0D01*
G01X148325Y163500D02*
G03X148325I-725J0D01*
G01Y165100D02*
G03X148325I-725J0D01*
G01Y166900D02*
G03X148325I-725J0D01*
G01Y168600D02*
G03X148325I-725J0D01*
G01X146575Y126600D02*
G03X146575I-725J0D01*
G01Y128100D02*
G03X146575I-725J0D01*
G01X146625Y129800D02*
G03X146625I-725J0D01*
G01X146575Y131500D02*
G03X146575I-725J0D01*
G01Y133200D02*
G03X146575I-725J0D01*
G01Y134900D02*
G03X146575I-725J0D01*
G01Y137100D02*
G03X146575I-725J0D01*
G01X146625Y138800D02*
G03X146625I-725J0D01*
G01X146575Y140800D02*
G03X146575I-725J0D01*
G01Y142500D02*
G03X146575I-725J0D01*
G01Y144200D02*
G03X146575I-725J0D01*
G01Y145900D02*
G03X146575I-725J0D01*
G01Y148600D02*
G03X146575I-725J0D01*
G01Y150300D02*
G03X146575I-725J0D01*
G01X146625Y152200D02*
G03X146625I-725J0D01*
G01X146575Y154100D02*
G03X146575I-725J0D01*
G01Y155800D02*
G03X146575I-725J0D01*
G01Y157500D02*
G03X146575I-725J0D01*
G01X146625Y159800D02*
G03X146625I-725J0D01*
G01Y161600D02*
G03X146625I-725J0D01*
G01X146575Y163500D02*
G03X146575I-725J0D01*
G01Y165100D02*
G03X146575I-725J0D01*
G01Y166900D02*
G03X146575I-725J0D01*
G01Y168600D02*
G03X146575I-725J0D01*
G01X144775Y126600D02*
G03X144775I-725J0D01*
G01Y128100D02*
G03X144775I-725J0D01*
G01Y134900D02*
G03X144775I-725J0D01*
G01Y137100D02*
G03X144775I-725J0D01*
G01Y144200D02*
G03X144775I-725J0D01*
G01Y145900D02*
G03X144775I-725J0D01*
G01Y148600D02*
G03X144775I-725J0D01*
G01Y150300D02*
G03X144775I-725J0D01*
G01Y157500D02*
G03X144775I-725J0D01*
G01X144825Y159800D02*
G03X144825I-725J0D01*
G01X144775Y166900D02*
G03X144775I-725J0D01*
G01Y168600D02*
G03X144775I-725J0D01*
G01X146215Y182000D02*
G03X146215I-1175J0D01*
G01X143025Y126600D02*
G03X143025I-725J0D01*
G01Y128100D02*
G03X143025I-725J0D01*
G01Y134900D02*
G03X143025I-725J0D01*
G01Y137100D02*
G03X143025I-725J0D01*
G01Y144200D02*
G03X143025I-725J0D01*
G01Y145900D02*
G03X143025I-725J0D01*
G01Y148600D02*
G03X143025I-725J0D01*
G01Y150300D02*
G03X143025I-725J0D01*
G01Y157500D02*
G03X143025I-725J0D01*
G01X143075Y159800D02*
G03X143075I-725J0D01*
G01X143025Y166900D02*
G03X143025I-725J0D01*
G01Y168600D02*
G03X143025I-725J0D01*
G01X143375Y182000D02*
G03X143375I-875J0D01*
G01X141225Y126600D02*
G03X141225I-725J0D01*
G01Y128100D02*
G03X141225I-725J0D01*
G01Y134900D02*
G03X141225I-725J0D01*
G01Y137100D02*
G03X141225I-725J0D01*
G01Y144200D02*
G03X141225I-725J0D01*
G01Y145900D02*
G03X141225I-725J0D01*
G01Y148600D02*
G03X141225I-725J0D01*
G01Y150300D02*
G03X141225I-725J0D01*
G01Y157500D02*
G03X141225I-725J0D01*
G01X141275Y159800D02*
G03X141275I-725J0D01*
G01X141225Y166900D02*
G03X141225I-725J0D01*
G01Y168600D02*
G03X141225I-725J0D01*
G01X137763Y128607D02*
G03X137763I-725J0D01*
G01X137225Y130900D02*
G03X137225I-725J0D01*
G01X137275Y132650D02*
G03X137275I-725J0D01*
G01X136364Y135250D02*
G03X137223Y134818I186J-700D01*
G01X137223D02*
G03X136364Y135250I-185J701D01*
G01X138925Y144600D02*
G03X138925I-725J0D01*
G01X137325Y139100D02*
G03X137325I-725J0D01*
G01X137275Y140850D02*
G03X137275I-725J0D01*
G01Y142650D02*
G03X137275I-725J0D01*
G01X137225Y144600D02*
G03X137225I-725J0D01*
G01X137763Y151268D02*
G03X137763I-725J0D01*
G01X137325Y153650D02*
G03X137325I-725J0D01*
G01Y155250D02*
G03X137325I-725J0D01*
G01X137375Y156800D02*
G03X137375I-725J0D01*
G01X137763Y158352D02*
G03X137763I-725J0D01*
G01X138625Y166950D02*
G03X138625I-725J0D01*
G01Y168900D02*
G03X138625I-725J0D01*
G01X135625Y130900D02*
G03X135625I-725J0D01*
G01X135675Y132650D02*
G03X135675I-725J0D01*
G01Y134550D02*
G03X135675I-725J0D01*
G01Y136400D02*
G03X135675I-725J0D01*
G01X135725Y139100D02*
G03X135725I-725J0D01*
G01X135675Y140850D02*
G03X135675I-725J0D01*
G01Y142650D02*
G03X135675I-725J0D01*
G01X135625Y144600D02*
G03X135625I-725J0D01*
G01X135725Y152000D02*
G03X135725I-725J0D01*
G01X135675Y153650D02*
G03X135675I-725J0D01*
G01Y155250D02*
G03X135675I-725J0D01*
G01Y156800D02*
G03X135675I-725J0D01*
G01X137025Y160950D02*
G03X137025I-725J0D01*
G01Y163050D02*
G03X137025I-725J0D01*
G01Y165000D02*
G03X137025I-725J0D01*
G01X136975Y166950D02*
G03X136975I-725J0D01*
G01Y168900D02*
G03X136975I-725J0D01*
G01X134075Y134600D02*
G03X134075I-725J0D01*
G01Y136400D02*
G03X134075I-725J0D01*
G01Y140850D02*
G03X134075I-725J0D01*
G01Y142650D02*
G03X134075I-725J0D01*
G01X134025Y144600D02*
G03X134025I-725J0D01*
G01X134125Y152000D02*
G03X134125I-725J0D01*
G01X134075Y153650D02*
G03X134075I-725J0D01*
G01Y155250D02*
G03X134075I-725J0D01*
G01Y156800D02*
G03X134075I-725J0D01*
G01X135425Y160950D02*
G03X135425I-725J0D01*
G01Y163050D02*
G03X135425I-725J0D01*
G01Y165000D02*
G03X135425I-725J0D01*
G01X135375Y166950D02*
G03X135375I-725J0D01*
G01Y168900D02*
G03X135375I-725J0D01*
G01X129825Y136700D02*
G03X129825I-525J0D01*
G01X130575Y138650D02*
G03X130575I-725J0D01*
G01X128575Y136700D02*
G03X128575I-525J0D01*
G01X128975Y142819D02*
G03X128975I-725J0D01*
G01X128460Y145405D02*
G03X128802Y144527I-342J-638D01*
X128460Y145405I343J639*
G01X129675Y146900D02*
G03X129675I-725J0D01*
G01Y148900D02*
G03X129675I-725J0D01*
G01X128773Y151069D02*
G03X128526Y150080I-623J-369D01*
X128773Y151069I624J370*
G01X130875Y153950D02*
G03X130875I-725J0D01*
G01X129875Y158500D02*
G03X129875I-525J0D01*
G01X127925Y154850D02*
G03X127925I-525J0D01*
G01X128575Y158500D02*
G03X128575I-525J0D01*
G01X129800Y175625D02*
G03Y174574I-500J-525D01*
G01X129800D02*
G03Y175625I500J526D01*
G01X126075Y140550D02*
G03X126075I-525J0D01*
G01X124375Y154550D02*
G03X124375I-525J0D01*
G01X121847Y153716D02*
G03X121802Y153283I-497J-166D01*
X121847Y153716I498J167*
G01X120275Y118150D02*
G03X120275I-525J0D01*
G01X120375Y137550D02*
G03X120375I-525J0D01*
G01Y138850D02*
G03X120375I-525J0D01*
G01X119160Y112395D02*
G03X119160I-525J0D01*
G01X118975Y118150D02*
G03X118975I-525J0D01*
G01X119025Y134440D02*
G03X119025I-525J0D01*
G01X119375Y151450D02*
G03X119375I-525J0D01*
G01X119525Y153773D02*
G03Y153326I-475J-223D01*
Y153773I475J224*
G01X120775Y170650D02*
G03X120775I-525J0D01*
G01X121195Y182000D02*
G03X121195I-875J0D01*
G01X118825Y154400D02*
G03X118825I-525J0D01*
G01X119275Y170650D02*
G03X119275I-525J0D01*
G01X115475Y121700D02*
G03X115475I-525J0D01*
G01X116425Y140050D02*
G03X116425I-525J0D01*
G01X116725Y143400D02*
G03X116725I-525J0D01*
G01X117475Y144250D02*
G03X117475I-525J0D01*
G01X116882Y147607D02*
G03X116567Y147592I-182J493D01*
X116882Y147607I183J-492*
G01X117775Y170650D02*
G03X117775I-525J0D01*
G01X118025Y176888D02*
G03X118025I-525J0D01*
G01X118655Y182000D02*
G03X118655I-875J0D01*
G01X115975Y144750D02*
G03X115975I-525J0D01*
G01X113125Y114700D02*
G03X113125I-525J0D01*
G01X114125Y115800D02*
G03X114125I-525J0D01*
G01X113125Y116900D02*
G03X113125I-525J0D01*
G01Y118600D02*
G03X113125I-525J0D01*
G01X114125Y119700D02*
G03X114125I-525J0D01*
G01X112925Y120800D02*
G03X112925I-525J0D01*
G01X113875Y122950D02*
G03X113875I-525J0D01*
G01X114725Y146350D02*
G03X114725I-525J0D01*
G01X114525Y149550D02*
G03X114525I-525J0D01*
G01X115425Y157700D02*
G03X115425I-525J0D01*
G01X116275Y170650D02*
G03X116275I-525J0D01*
G01X111721Y112569D02*
G03X111721I-525J0D01*
G01X111175Y123450D02*
G03X111175I-525J0D01*
G01X110647Y136675D02*
G03X110652I3J-525D01*
X110647I-2J525*
G01X111475Y141200D02*
G03X111475I-525J0D01*
G01X111825Y142200D02*
G03X111825I-525J0D01*
G01X111875Y143300D02*
G03X111875I-525J0D01*
G01X112275Y147800D02*
G03X112275I-525J0D01*
G01X112675Y148800D02*
G03X112675I-525J0D01*
G01X113425Y149900D02*
G03X113425I-525J0D01*
G01X113975Y151050D02*
G03X113975I-525J0D01*
G01X114775Y170650D02*
G03X114775I-525J0D01*
G01X115025Y176888D02*
G03X115025I-525J0D01*
G01X116115Y182000D02*
G03X116115I-875J0D01*
G01X112325Y151050D02*
G03X112325I-525J0D01*
G01X112975Y157700D02*
G03X112975I-525J0D01*
G01Y159000D02*
G03X112975I-525J0D01*
G01X111875Y161550D02*
G03X111875I-525J0D01*
G01X111475Y162600D02*
G03X111475I-525J0D01*
G01X111806Y166600D02*
G03X111806I-525J0D01*
G01X113875Y182000D02*
G03X113875I-1175J0D01*
G01X106425Y111500D02*
G03X106425I-525J0D01*
G01X107227Y116754D02*
G03Y117445I-1227J346D01*
G01X106345Y115830D02*
G03X107227Y116754I925J0D01*
G01X106345Y115872D02*
G03Y115830I925J-42D01*
G01X105654Y115872D02*
G03X106345I346J1228D01*
G01X105655Y115830D02*
G03X105654Y115872I-925J-0D01*
G01X104772Y116754D02*
G03X105655Y115830I-42J-924D01*
G01X104772Y117445D02*
G03Y116754I1228J-345D01*
G01X105655Y118370D02*
G03X104772Y117445I-925J0D01*
G01X105654Y118327D02*
G03X105655Y118370I-924J43D01*
G01X106345Y118327D02*
G03X105654I-345J-1227D01*
G01X106345Y118370D02*
G03Y118327I925J0D01*
G01X107227Y117445D02*
G03X106344Y118370I43J925D01*
G01X103450Y114571D02*
G03Y113928I-650J-321D01*
G01X103450D02*
G03Y114571I650J322D01*
G01X108195Y120910D02*
G03X108195I-925J0D01*
G01Y123450D02*
G03X108195I-925J0D01*
G01Y125990D02*
G03X108195I-925J0D01*
G01Y128530D02*
G03X108195I-925J0D01*
G01Y131070D02*
G03X108195I-925J0D01*
G01Y133610D02*
G03X108195I-925J0D01*
G01Y136150D02*
G03X108195I-925J0D01*
G01Y138690D02*
G03X108195I-925J0D01*
G01Y141230D02*
G03X108195I-925J0D01*
G01Y143770D02*
G03X108195I-925J0D01*
G01Y146310D02*
G03X108195I-925J0D01*
G01Y148850D02*
G03X108195I-925J0D01*
G01Y151390D02*
G03X108195I-925J0D01*
G01Y153930D02*
G03X108195I-925J0D01*
G01Y156470D02*
G03X108195I-925J0D01*
G01Y159010D02*
G03X108195I-925J0D01*
G01Y161550D02*
G03X108195I-925J0D01*
G01Y164090D02*
G03X108195I-925J0D01*
G01X107227Y167554D02*
G03Y168245I-1227J346D01*
G01X106345Y166630D02*
G03X107227Y167554I925J0D01*
G01X106345Y166672D02*
G03Y166630I925J-42D01*
G01X105654Y166672D02*
G03X106345I346J1228D01*
G01X105655Y166630D02*
G03X105654Y166672I-925J-0D01*
G01X104772Y167554D02*
G03X105655Y166630I-42J-924D01*
G01X104772Y168245D02*
G03Y167554I1228J-345D01*
G01X105655Y169170D02*
G03X104772Y168245I-925J0D01*
G01X105654Y169127D02*
G03X105655Y169170I-924J43D01*
G01X106345Y169127D02*
G03X105654I-345J-1227D01*
G01X106345Y169170D02*
G03Y169127I925J0D01*
G01X107227Y168245D02*
G03X106344Y169170I43J925D01*
G01X105655Y120910D02*
G03X105655I-925J0D01*
G01Y123450D02*
G03X105655I-925J0D01*
G01Y125990D02*
G03X105655I-925J0D01*
G01Y128530D02*
G03X105655I-925J0D01*
G01Y131070D02*
G03X105655I-925J0D01*
G01Y133610D02*
G03X105655I-925J0D01*
G01Y136150D02*
G03X105655I-925J0D01*
G01Y138690D02*
G03X105655I-925J0D01*
G01Y141230D02*
G03X105655I-925J0D01*
G01Y143770D02*
G03X105655I-925J0D01*
G01Y146310D02*
G03X105655I-925J0D01*
G01Y148850D02*
G03X105655I-925J0D01*
G01Y151390D02*
G03X105655I-925J0D01*
G01Y153930D02*
G03X105655I-925J0D01*
G01Y156470D02*
G03X105655I-925J0D01*
G01Y159010D02*
G03X105655I-925J0D01*
G01Y161550D02*
G03X105655I-925J0D01*
G01Y164090D02*
G03X105655I-925J0D01*
G01X105175Y175000D02*
G03X105175I-1175J0D01*
G01X145566Y180949D02*
X178375D01*
X100625Y180814D02*
X178375D01*
X100625Y180679D02*
X178375D01*
X100625Y180544D02*
X178375D01*
X100625Y180409D02*
X178375D01*
X100625Y180274D02*
X178375D01*
X100625Y180139D02*
X178375D01*
X100625Y180004D02*
X178375D01*
X100625Y179869D02*
X178375D01*
X100625Y179734D02*
X178375D01*
X100625Y179599D02*
X178375D01*
X100625Y179464D02*
X178375D01*
X100625Y179329D02*
X178375D01*
X100625Y179194D02*
X178375D01*
X100625Y179059D02*
X178375D01*
X100625Y178924D02*
X178375D01*
X100625Y178789D02*
X178375D01*
X100625Y178654D02*
X178375D01*
X100625Y178519D02*
X178375D01*
X100625Y178384D02*
X178375D01*
X100625Y178249D02*
X178375D01*
X100625Y178114D02*
X178375D01*
X100625Y177979D02*
X178375D01*
X100625Y177844D02*
X178375D01*
X100625Y177709D02*
X178375D01*
X100625Y177574D02*
X178375D01*
X100625Y177439D02*
X178375D01*
X117819Y177304D02*
X178375D01*
X117943Y177169D02*
X178375D01*
X118004Y177034D02*
X178375D01*
X118024Y176899D02*
X178375D01*
X118010Y176764D02*
X178375D01*
X117957Y176629D02*
X178375D01*
X117847Y176494D02*
X178375D01*
X100625Y176359D02*
X178375D01*
X162805Y176224D02*
X178375D01*
X167579Y176089D02*
X178375D01*
X167895Y175954D02*
X178375D01*
X168070Y175819D02*
X178375D01*
X168192Y175684D02*
X178375D01*
X168281Y175549D02*
X178375D01*
X168345Y175414D02*
X178375D01*
X168389Y175279D02*
X178375D01*
X168415Y175144D02*
X178375D01*
X168424Y175009D02*
X178375D01*
X168418Y174874D02*
X178375D01*
X168394Y174739D02*
X178375D01*
X168353Y174604D02*
X178375D01*
X168292Y174469D02*
X178375D01*
X168207Y174334D02*
X178375D01*
X168090Y174199D02*
X178375D01*
X167925Y174064D02*
X178375D01*
X167646Y173929D02*
X178375D01*
X162850Y173794D02*
X178375D01*
X154823Y173659D02*
X178375D01*
X154803Y173524D02*
X178375D01*
X154755Y173389D02*
X178375D01*
X154672Y173254D02*
X178375D01*
X154534Y173119D02*
X178375D01*
X154218Y172984D02*
X178375D01*
X100625Y172849D02*
X178375D01*
X100625Y172714D02*
X178375D01*
X100625Y172579D02*
X178375D01*
X100625Y172444D02*
X178375D01*
X100625Y172309D02*
X178375D01*
X100625Y172174D02*
X178375D01*
X100625Y172039D02*
X178375D01*
X100625Y171904D02*
X178375D01*
X100625Y171769D02*
X178375D01*
X100625Y171634D02*
X178375D01*
X100625Y171499D02*
X178375D01*
X100625Y171364D02*
X178375D01*
X100625Y171229D02*
X178375D01*
X120529Y171094D02*
X178375D01*
X120673Y170959D02*
X178375D01*
X120745Y170824D02*
X178375D01*
X120773Y170689D02*
X178375D01*
X120766Y170554D02*
X178375D01*
X120721Y170419D02*
X178375D01*
X120627Y170284D02*
X178375D01*
X120409Y170149D02*
X178375D01*
X107647Y170014D02*
X178375D01*
X107863Y169879D02*
X178375D01*
X107994Y169744D02*
X178375D01*
X138048Y169609D02*
X178375D01*
X138342Y169474D02*
X178375D01*
X138476Y169339D02*
X178375D01*
X153300Y169204D02*
X178375D01*
X171777Y162859D02*
X178375D01*
X171534Y162724D02*
X178375D01*
X136860Y162589D02*
X178375D01*
X136713Y162454D02*
X178375D01*
X147737Y162319D02*
X178375D01*
X148078Y162184D02*
X178375D01*
X148218Y162049D02*
X178375D01*
X148303Y161914D02*
X178375D01*
X148352Y161779D02*
X178375D01*
X148373Y161644D02*
X178375D01*
X148369Y161509D02*
X178375D01*
X148339Y161374D02*
X178375D01*
X148279Y161239D02*
X178375D01*
X148179Y161104D02*
X178375D01*
X148008Y160969D02*
X178375D01*
X137015Y160834D02*
X178375D01*
X136980Y160699D02*
X178375D01*
X162734Y160564D02*
X178375D01*
X162893Y160429D02*
X178375D01*
X162987Y160294D02*
X178375D01*
X163044Y160159D02*
X178375D01*
X163071Y160024D02*
X178375D01*
X163072Y159889D02*
X178375D01*
X163048Y159754D02*
X178375D01*
X162995Y159619D02*
X178375D01*
X162905Y159484D02*
X178375D01*
X162756Y159349D02*
X178375D01*
X151627Y159214D02*
X178375D01*
X151282Y159079D02*
X178375D01*
X151016Y158944D02*
X178375D01*
X150941Y158809D02*
X178375D01*
X150820Y158674D02*
X178375D01*
X150586Y158539D02*
X178375D01*
X137761Y158404D02*
X178375D01*
X137758Y158269D02*
X178375D01*
X162700Y158134D02*
X178375D01*
X162875Y157999D02*
X178375D01*
X162976Y157864D02*
X178375D01*
X163037Y157729D02*
X178375D01*
X163068Y157594D02*
X178375D01*
X163073Y157459D02*
X178375D01*
X163053Y157324D02*
X178375D01*
X163005Y157189D02*
X178375D01*
X162922Y157054D02*
X178375D01*
X162784Y156919D02*
X178375D01*
X162468Y156784D02*
X178375D01*
X137359Y156649D02*
X178375D01*
X151272Y156514D02*
X178375D01*
X151585Y156379D02*
X178375D01*
X151722Y156244D02*
X178375D01*
X151805Y156109D02*
X178375D01*
X151853Y155974D02*
X178375D01*
X151873Y155839D02*
X178375D01*
X151868Y155704D02*
X178375D01*
X151837Y155569D02*
X178375D01*
X151776Y155434D02*
X178375D01*
X151674Y155299D02*
X178375D01*
X151499Y155164D02*
X178375D01*
X137290Y155029D02*
X178375D01*
X137231Y154894D02*
X178375D01*
X162650Y154759D02*
X178375D01*
X162850Y154624D02*
X178375D01*
X162961Y154489D02*
X178375D01*
X163028Y154354D02*
X178375D01*
X163065Y154219D02*
X178375D01*
X163074Y154084D02*
X178375D01*
X169547Y153949D02*
X178375D01*
X169905Y153814D02*
X178375D01*
X170097Y153679D02*
X178375D01*
X170232Y153544D02*
X178375D01*
X170332Y153409D02*
X178375D01*
X170406Y153274D02*
X178375D01*
X170461Y153139D02*
X178375D01*
X170498Y153004D02*
X178375D01*
X170519Y152869D02*
X178375D01*
X170524Y152734D02*
X178375D01*
X170515Y152599D02*
X178375D01*
X170491Y152464D02*
X178375D01*
X170450Y152329D02*
X178375D01*
X170391Y152194D02*
X178375D01*
X170311Y152059D02*
X178375D01*
X170205Y151924D02*
X178375D01*
X170060Y151789D02*
X178375D01*
X169848Y151654D02*
X178375D01*
X163022Y151519D02*
X178375D01*
X163062Y151384D02*
X178375D01*
X163075Y151249D02*
X178375D01*
X163062Y151114D02*
X178375D01*
X163022Y150979D02*
X178375D01*
X162951Y150844D02*
X178375D01*
X162833Y150709D02*
X178375D01*
X162613Y150574D02*
X178375D01*
X169592Y150439D02*
X178375D01*
X169923Y150304D02*
X178375D01*
X170109Y150169D02*
X178375D01*
X170240Y150034D02*
X178375D01*
X170338Y149899D02*
X178375D01*
X170411Y149764D02*
X178375D01*
X170464Y149629D02*
X178375D01*
X170500Y149494D02*
X178375D01*
X170520Y149359D02*
X178375D01*
X170524Y149224D02*
X178375D01*
X170514Y149089D02*
X178375D01*
X170488Y148954D02*
X178375D01*
X170446Y148819D02*
X178375D01*
X170386Y148684D02*
X178375D01*
X170305Y148549D02*
X178375D01*
X170196Y148414D02*
X178375D01*
X170047Y148279D02*
X178375D01*
X169828Y148144D02*
X178375D01*
X162998Y148009D02*
X178375D01*
X163070Y147874D02*
X178375D01*
X163111Y147739D02*
X178375D01*
X163124Y147604D02*
X178375D01*
X163113Y147469D02*
X178375D01*
X163074Y147334D02*
X178375D01*
X163004Y147199D02*
X178375D01*
X162888Y147064D02*
X178375D01*
X169630Y146929D02*
X178375D01*
X169939Y146794D02*
X178375D01*
X170120Y146659D02*
X178375D01*
X170248Y146524D02*
X178375D01*
X170344Y146389D02*
X178375D01*
X170416Y146254D02*
X178375D01*
X170467Y146119D02*
X178375D01*
X170502Y145984D02*
X178375D01*
X170520Y145849D02*
X178375D01*
X170524Y145714D02*
X178375D01*
X170513Y145579D02*
X178375D01*
X170486Y145444D02*
X178375D01*
X170443Y145309D02*
X178375D01*
X170381Y145174D02*
X178375D01*
X170298Y145039D02*
X178375D01*
X170186Y144904D02*
X178375D01*
X170034Y144769D02*
X178375D01*
X169806Y144634D02*
X178375D01*
X162985Y144499D02*
X178375D01*
X163042Y144364D02*
X178375D01*
X163070Y144229D02*
X178375D01*
X163072Y144094D02*
X178375D01*
X163049Y143959D02*
X178375D01*
X162997Y143824D02*
X178375D01*
X162910Y143689D02*
X178375D01*
X162763Y143554D02*
X178375D01*
X169664Y143419D02*
X178375D01*
X169955Y143284D02*
X178375D01*
X170131Y143149D02*
X178375D01*
X170257Y143014D02*
X178375D01*
X170350Y142879D02*
X178375D01*
X170420Y142744D02*
X178375D01*
X170471Y142609D02*
X178375D01*
X170504Y142474D02*
X178375D01*
X170521Y142339D02*
X178375D01*
X170524Y142204D02*
X178375D01*
X170511Y142069D02*
X178375D01*
X170483Y141934D02*
X178375D01*
X170439Y141799D02*
X178375D01*
X170376Y141664D02*
X178375D01*
X170290Y141529D02*
X178375D01*
X170176Y141394D02*
X178375D01*
X170021Y141259D02*
X178375D01*
X169784Y141124D02*
X178375D01*
X163034Y140989D02*
X178375D01*
X163067Y140854D02*
X178375D01*
X163074Y140719D02*
X178375D01*
X163055Y140584D02*
X178375D01*
X163009Y140449D02*
X178375D01*
X162929Y140314D02*
X178375D01*
X162797Y140179D02*
X178375D01*
X162517Y140044D02*
X178375D01*
X116405Y139909D02*
X178375D01*
X136865Y139774D02*
X178375D01*
X137084Y139639D02*
X178375D01*
X147870Y139504D02*
X178375D01*
X148148Y139369D02*
X178375D01*
X148280Y139234D02*
X178375D01*
X148360Y139099D02*
X178375D01*
X148406Y138964D02*
X178375D01*
X148424Y138829D02*
X178375D01*
X148417Y138694D02*
X178375D01*
X148384Y138559D02*
X178375D01*
X148320Y138424D02*
X178375D01*
X148214Y138289D02*
X178375D01*
X148030Y138154D02*
X178375D01*
X130208Y138019D02*
X178375D01*
X162588Y137884D02*
X178375D01*
X162822Y137749D02*
X178375D01*
X162944Y137614D02*
X178375D01*
X163018Y137479D02*
X178375D01*
X163060Y137344D02*
X178375D01*
X163074Y137209D02*
X178375D01*
X163064Y137074D02*
X178375D01*
X163026Y136939D02*
X178375D01*
X162957Y136804D02*
X178375D01*
X162844Y136669D02*
X178375D01*
X162638Y136534D02*
X178375D01*
X151337Y136399D02*
X178375D01*
X151057Y136264D02*
X178375D01*
X150998Y136129D02*
X178375D01*
X150899Y135994D02*
X178375D01*
X150729Y135859D02*
X178375D01*
X137733Y135724D02*
X178375D01*
X153123Y135589D02*
X178375D01*
X162520Y135454D02*
X178375D01*
X162798Y135319D02*
X178375D01*
X162930Y135184D02*
X178375D01*
X163010Y135049D02*
X178375D01*
X163056Y134914D02*
X178375D01*
X163074Y134779D02*
X178375D01*
X163067Y134644D02*
X178375D01*
X163034Y134509D02*
X178375D01*
X162970Y134374D02*
X178375D01*
X162864Y134239D02*
X178375D01*
X162680Y134104D02*
X178375D01*
X136984Y133969D02*
X178375D01*
X151500Y133834D02*
X178375D01*
X151675Y133699D02*
X178375D01*
X151776Y133564D02*
X178375D01*
X151837Y133429D02*
X178375D01*
X151868Y133294D02*
X178375D01*
X151873Y133159D02*
X178375D01*
X151853Y133024D02*
X178375D01*
X151805Y132889D02*
X178375D01*
X151722Y132754D02*
X178375D01*
X151584Y132619D02*
X178375D01*
X151268Y132484D02*
X178375D01*
X171292Y132349D02*
X178375D01*
X171659Y132214D02*
X178375D01*
X171856Y132079D02*
X178375D01*
X171995Y131944D02*
X178375D01*
X172099Y131809D02*
X178375D01*
X172178Y131674D02*
X178375D01*
X172236Y131539D02*
X178375D01*
X172278Y131404D02*
X178375D01*
X172303Y131269D02*
X178375D01*
X172314Y131134D02*
X178375D01*
X172311Y130999D02*
X178375D01*
X172293Y130864D02*
X178375D01*
X172260Y130729D02*
X178375D01*
X172210Y130594D02*
X178375D01*
X172142Y130459D02*
X178375D01*
X172052Y130324D02*
X178375D01*
X171932Y130189D02*
X178375D01*
X171770Y130054D02*
X178375D01*
X171522Y129919D02*
X178375D01*
X148424Y129784D02*
X178375D01*
X148409Y129649D02*
X178375D01*
X148366Y129514D02*
X178375D01*
X148290Y129379D02*
X178375D01*
X148166Y129244D02*
X178375D01*
X147921Y129109D02*
X178375D01*
X137662Y128974D02*
X178375D01*
X137724Y128839D02*
X178375D01*
X153300Y128704D02*
X178375D01*
X153452Y128569D02*
X178375D01*
X162700Y128434D02*
X178375D01*
X162875Y128299D02*
X178375D01*
X162976Y128164D02*
X178375D01*
X163037Y128029D02*
X178375D01*
X163068Y127894D02*
X178375D01*
X163073Y127759D02*
X178375D01*
X163053Y127624D02*
X178375D01*
X163005Y127489D02*
X178375D01*
X162922Y127354D02*
X178375D01*
X162784Y127219D02*
X178375D01*
X162468Y127084D02*
X178375D01*
X150035Y126949D02*
X178375D01*
X150092Y126814D02*
X178375D01*
X150673Y126679D02*
X178375D01*
X150864Y126544D02*
X178375D01*
X150972Y126409D02*
X178375D01*
X151037Y126274D02*
X178375D01*
X151072Y126139D02*
X178375D01*
X151080Y126004D02*
X178375D01*
X151063Y125869D02*
X178375D01*
X151019Y125734D02*
X178375D01*
X150940Y125599D02*
X178375D01*
X150812Y125464D02*
X178375D01*
X150550Y125329D02*
X178375D01*
X107742Y125194D02*
X178375D01*
X100625Y125059D02*
X178375D01*
X100625Y124924D02*
X178375D01*
X100625Y124789D02*
X178375D01*
X100625Y124654D02*
X178375D01*
X100625Y124519D02*
X178375D01*
X100625Y124384D02*
X178375D01*
X107734Y124249D02*
X178375D01*
X107913Y124114D02*
X178375D01*
X108028Y123979D02*
X178375D01*
X110996Y123844D02*
X178375D01*
X111106Y123709D02*
X178375D01*
X111159Y123574D02*
X178375D01*
X113539Y123439D02*
X178375D01*
X113737Y123304D02*
X178375D01*
X113826Y123169D02*
X178375D01*
X113868Y123034D02*
X178375D01*
X113872Y122899D02*
X178375D01*
X113841Y122764D02*
X178375D01*
X113765Y122629D02*
X178375D01*
X113611Y122494D02*
X178375D01*
X100625Y122359D02*
X178375D01*
X114968Y122224D02*
X178375D01*
X115301Y122089D02*
X178375D01*
X115409Y121954D02*
X178375D01*
X115461Y121819D02*
X178375D01*
X115474Y121684D02*
X178375D01*
X115453Y121549D02*
X178375D01*
X115390Y121414D02*
X178375D01*
X115264Y121279D02*
X178375D01*
X112796Y121144D02*
X178375D01*
X112881Y121009D02*
X178375D01*
X112919Y120874D02*
X178375D01*
X112921Y120739D02*
X178375D01*
X112887Y120604D02*
X178375D01*
X112808Y120469D02*
X178375D01*
X112643Y120334D02*
X178375D01*
X113761Y120199D02*
X178375D01*
X113977Y120064D02*
X178375D01*
X114072Y119929D02*
X178375D01*
X114116Y119794D02*
X178375D01*
X114123Y119659D02*
X178375D01*
X114094Y119524D02*
X178375D01*
X114023Y119389D02*
X178375D01*
X113878Y119254D02*
X178375D01*
X112674Y119119D02*
X178375D01*
X112957Y118984D02*
X178375D01*
X113061Y118849D02*
X178375D01*
X113112Y118714D02*
X178375D01*
X120051Y118579D02*
X178375D01*
X120184Y118444D02*
X178375D01*
X120250Y118309D02*
X178375D01*
X120274Y118174D02*
X178375D01*
X120263Y118039D02*
X178375D01*
X120214Y117904D02*
X178375D01*
X120111Y117769D02*
X178375D01*
X119850Y117634D02*
X178375D01*
X107583Y117499D02*
X178375D01*
X112844Y117364D02*
X178375D01*
X113008Y117229D02*
X178375D01*
X113087Y117094D02*
X178375D01*
X113121Y116959D02*
X178375D01*
X113119Y116824D02*
X178375D01*
X113081Y116689D02*
X178375D01*
X112995Y116554D02*
X178375D01*
X112811Y116419D02*
X178375D01*
X113801Y116284D02*
X178375D01*
X113991Y116149D02*
X178375D01*
X114079Y116014D02*
X178375D01*
X114118Y115879D02*
X178375D01*
X114122Y115744D02*
X178375D01*
X114089Y115609D02*
X178375D01*
X114012Y115474D02*
X178375D01*
X113852Y115339D02*
X178375D01*
X112744Y115204D02*
X178375D01*
X112972Y115069D02*
X178375D01*
X113069Y114934D02*
X178375D01*
X113115Y114799D02*
X178375D01*
X113123Y114664D02*
X178375D01*
X113096Y114529D02*
X178375D01*
X113027Y114394D02*
X178375D01*
X112885Y114259D02*
X178375D01*
X104814Y114124D02*
X178375D01*
X104776Y113989D02*
X178375D01*
X104707Y113854D02*
X178375D01*
X104594Y113719D02*
X178375D01*
X104388Y113584D02*
X178375D01*
X100625Y113449D02*
X178375D01*
X100625Y113314D02*
X178375D01*
X100625Y113179D02*
X178375D01*
X111418Y113044D02*
X178375D01*
X118738Y112909D02*
X178375D01*
X118997Y112774D02*
X178375D01*
X119099Y112639D02*
X178375D01*
X119148Y112504D02*
X178375D01*
X119159Y112369D02*
X178375D01*
X119134Y112234D02*
X178375D01*
X119069Y112099D02*
X178375D01*
X118935Y111964D02*
X178375D01*
X106308Y111829D02*
X178375D01*
X106387Y111694D02*
X178375D01*
X106421Y111559D02*
X178375D01*
X106419Y111424D02*
X178375D01*
X106381Y111289D02*
X178375D01*
X106295Y111154D02*
X178375D01*
X106111Y111019D02*
X178375D01*
X100625Y110884D02*
X178375D01*
X100625Y110749D02*
X178375D01*
X100625Y110614D02*
X178375D01*
X100625Y110479D02*
X178375D01*
X100625Y110344D02*
X178375D01*
X100625Y110209D02*
X178375D01*
X100625Y110074D02*
X178375D01*
X100625Y109939D02*
X178375D01*
X100625Y109804D02*
X178375D01*
X100625Y109669D02*
X178375D01*
X100625Y109534D02*
X178375D01*
X100625Y109399D02*
X178375D01*
X100625Y109264D02*
X178375D01*
X100625Y109129D02*
X178375D01*
X100625Y108994D02*
X178375D01*
X100625Y108859D02*
X178375D01*
X100625Y108724D02*
X178375D01*
X100625Y108589D02*
X178375D01*
X100625Y108454D02*
X178375D01*
X100625Y108319D02*
X178375D01*
X100625Y108184D02*
X178375D01*
X100625Y108049D02*
X178375D01*
X100625Y107914D02*
X178375D01*
X100625Y107779D02*
X178375D01*
X100625Y107644D02*
X178375D01*
X100625Y107509D02*
X178375D01*
X100625Y107374D02*
X178375D01*
X100625Y107239D02*
X178375D01*
X100625Y107104D02*
X178375D01*
X100625Y106969D02*
X178375D01*
X100625Y106834D02*
X178375D01*
X100625Y106699D02*
X178375D01*
X100625Y106564D02*
X178375D01*
X100625Y106429D02*
X178375D01*
X100625Y106294D02*
X178375D01*
X100625Y106159D02*
X178375D01*
X100625Y106024D02*
X178375D01*
X100625Y105889D02*
X178375D01*
X100625Y105754D02*
X178375D01*
X100625Y105619D02*
X178375D01*
X100625Y105484D02*
X178375D01*
X100625Y105349D02*
X178375D01*
X100625Y105214D02*
X178375D01*
X169463Y105079D02*
X178375D01*
X169698Y104944D02*
X178375D01*
X169851Y104809D02*
X178375D01*
X169962Y104674D02*
X178375D01*
X170043Y104539D02*
X178375D01*
X170103Y104404D02*
X178375D01*
X170143Y104269D02*
X178375D01*
X170167Y104134D02*
X178375D01*
X170175Y103999D02*
X178375D01*
X145776Y181084D02*
X178373D01*
X170167Y103864D02*
X178372D01*
X145918Y181219D02*
X178367D01*
X170143Y103729D02*
X178364D01*
X146021Y181354D02*
X178356D01*
X170102Y103594D02*
X178350D01*
X146098Y181489D02*
X178339D01*
X170043Y103459D02*
X178331D01*
X146153Y181624D02*
X178316D01*
X169961Y103324D02*
X178306D01*
X146190Y181759D02*
X178288D01*
X169850Y103189D02*
X178276D01*
X146210Y181894D02*
X178254D01*
X169697Y103054D02*
X178239D01*
X146214Y182029D02*
X178214D01*
X169462Y102919D02*
X178197D01*
X146203Y182164D02*
X178167D01*
X100851Y102784D02*
X178148D01*
X146176Y182299D02*
X178114D01*
X100906Y102649D02*
X178093D01*
X146131Y182434D02*
X178054D01*
X100969Y102514D02*
X178030D01*
X146067Y182569D02*
X177987D01*
X101039Y102379D02*
X177960D01*
X145980Y182704D02*
X177912D01*
X101117Y102244D02*
X177882D01*
X145861Y182839D02*
X177829D01*
X101204Y102109D02*
X177795D01*
X145696Y182974D02*
X177737D01*
X101300Y101974D02*
X177699D01*
X145426Y183109D02*
X177634D01*
X101407Y101839D02*
X177592D01*
X101479Y183244D02*
X177520D01*
X101525Y101704D02*
X177474D01*
X101606Y183379D02*
X177393D01*
X101658Y101569D02*
X177341D01*
X101748Y183514D02*
X177251D01*
X101806Y101434D02*
X177193D01*
X101909Y183649D02*
X177090D01*
X101975Y101299D02*
X177024D01*
X102093Y183784D02*
X176906D01*
X102169Y101164D02*
X176830D01*
X102307Y183919D02*
X176692D01*
X102397Y101029D02*
X176602D01*
X102564Y184054D02*
X176435D01*
X102678Y100894D02*
X176321D01*
X102896Y184189D02*
X176103D01*
X153452Y169069D02*
X175972D01*
X103056Y100759D02*
X175943D01*
X171937Y162994D02*
X175925D01*
X153543Y168934D02*
X175924D01*
X153596Y168799D02*
X175924D01*
X153622Y168664D02*
X175924D01*
X153621Y168529D02*
X175924D01*
X153595Y168394D02*
X175924D01*
X153540Y168259D02*
X175924D01*
X153447Y168124D02*
X175924D01*
X153291Y167989D02*
X175924D01*
X107274Y167854D02*
X175924D01*
X107262Y167719D02*
X175924D01*
X162588Y167584D02*
X175924D01*
X162822Y167449D02*
X175924D01*
X162944Y167314D02*
X175924D01*
X163018Y167179D02*
X175924D01*
X163060Y167044D02*
X175924D01*
X163074Y166909D02*
X175924D01*
X163064Y166774D02*
X175924D01*
X163026Y166639D02*
X175924D01*
X162957Y166504D02*
X175924D01*
X162844Y166369D02*
X175924D01*
X162638Y166234D02*
X175924D01*
X111440Y166099D02*
X175924D01*
X107912Y165964D02*
X175924D01*
X107733Y165829D02*
X175924D01*
X151564Y165694D02*
X175924D01*
X151710Y165559D02*
X175924D01*
X151798Y165424D02*
X175924D01*
X151849Y165289D02*
X175924D01*
X171266Y165154D02*
X175924D01*
X171649Y165019D02*
X175924D01*
X171849Y164884D02*
X175924D01*
X171990Y164749D02*
X175924D01*
X172095Y164614D02*
X175924D01*
X172175Y164479D02*
X175924D01*
X172234Y164344D02*
X175924D01*
X172276Y164209D02*
X175924D01*
X172302Y164074D02*
X175924D01*
X172314Y163939D02*
X175924D01*
X172311Y163804D02*
X175924D01*
X172294Y163669D02*
X175924D01*
X172261Y163534D02*
X175924D01*
X172212Y163399D02*
X175924D01*
X172145Y163264D02*
X175924D01*
X172055Y163129D02*
X175924D01*
X103419Y184324D02*
X175580D01*
X151872Y165154D02*
X170813D01*
X137209Y132349D02*
X170787D01*
X148415Y129919D02*
X170557D01*
X136947Y162724D02*
X170545D01*
X151870Y165019D02*
X170430D01*
X151272Y132214D02*
X170421D01*
X166210Y130054D02*
X170309D01*
X166230Y162859D02*
X170302D01*
X166391Y164884D02*
X170230D01*
X166402Y132079D02*
X170223D01*
X166531Y130189D02*
X170147D01*
X166539Y162994D02*
X170142D01*
X166618Y164749D02*
X170089D01*
X166624Y131944D02*
X170084D01*
X166704Y130324D02*
X170027D01*
X166709Y163129D02*
X170024D01*
X166763Y164614D02*
X169984D01*
X166767Y131809D02*
X169980D01*
X166823Y130459D02*
X169937D01*
X166827Y163264D02*
X169934D01*
X166865Y164479D02*
X169904D01*
X166868Y131674D02*
X169901D01*
X166908Y130594D02*
X169869D01*
X166911Y163399D02*
X169867D01*
X166938Y164344D02*
X169845D01*
X166940Y131539D02*
X169843D01*
X166969Y130729D02*
X169819D01*
X166971Y163534D02*
X169818D01*
X166989Y164209D02*
X169803D01*
X166990Y131404D02*
X169801D01*
X167008Y130864D02*
X169786D01*
X167010Y163669D02*
X169785D01*
X167020Y164074D02*
X169777D01*
X167021Y131269D02*
X169776D01*
X167030Y130999D02*
X169768D01*
X167030Y163804D02*
X169768D01*
X167034Y163939D02*
X169765D01*
X167034Y131134D02*
X169765D01*
X163059Y153949D02*
X169052D01*
X160876Y150439D02*
X169007D01*
X162676Y146929D02*
X168969D01*
X128656Y143419D02*
X168935D01*
X162970Y141124D02*
X168815D01*
X162889Y144634D02*
X168793D01*
X162878Y148144D02*
X168771D01*
X162951Y151654D02*
X168751D01*
X163016Y153814D02*
X168694D01*
X160957Y150304D02*
X168676D01*
X160908Y146794D02*
X168660D01*
X136900Y143284D02*
X168644D01*
X162865Y141259D02*
X168578D01*
X162726Y144769D02*
X168565D01*
X162652Y148279D02*
X168552D01*
X162834Y151789D02*
X168539D01*
X100802Y102919D02*
X168537D01*
X100625Y105079D02*
X168536D01*
X162940Y153679D02*
X168502D01*
X161004Y150169D02*
X168490D01*
X160976Y146659D02*
X168479D01*
X151471Y143149D02*
X168468D01*
X162681Y141394D02*
X168423D01*
X160962Y144904D02*
X168413D01*
X160914Y148414D02*
X168403D01*
X162615Y151924D02*
X168394D01*
X162816Y153544D02*
X168367D01*
X161024Y150034D02*
X168359D01*
X161014Y146524D02*
X168351D01*
X151660Y143014D02*
X168342D01*
X136802Y141529D02*
X168309D01*
X100760Y103054D02*
X168302D01*
X161007Y145039D02*
X168301D01*
X100625Y104944D02*
X168301D01*
X160980Y148549D02*
X168294D01*
X148411Y152059D02*
X168288D01*
X162571Y153409D02*
X168267D01*
X161018Y149899D02*
X168261D01*
X161024Y146389D02*
X168255D01*
X151767Y142879D02*
X168249D01*
X111194Y141664D02*
X168223D01*
X161024Y145174D02*
X168218D01*
X161015Y148684D02*
X168213D01*
X148424Y152194D02*
X168208D01*
X137220Y153274D02*
X168193D01*
X160985Y149764D02*
X168188D01*
X161010Y146254D02*
X168183D01*
X151832Y142744D02*
X168179D01*
X151337Y141799D02*
X168160D01*
X161016Y145309D02*
X168156D01*
X161024Y148819D02*
X168153D01*
X148413Y152329D02*
X168149D01*
X100723Y103189D02*
X168149D01*
X100625Y104809D02*
X168148D01*
X137114Y153139D02*
X168138D01*
X160923Y149629D02*
X168135D01*
X160968Y146119D02*
X168132D01*
X151866Y142609D02*
X168128D01*
X151603Y141934D02*
X168116D01*
X160982Y145444D02*
X168113D01*
X161008Y148954D02*
X168111D01*
X148374Y152464D02*
X168108D01*
X136930Y153004D02*
X168101D01*
X160819Y149494D02*
X168099D01*
X160894Y145984D02*
X168097D01*
X151874Y142474D02*
X168095D01*
X151733Y142069D02*
X168088D01*
X160917Y145579D02*
X168086D01*
X160964Y149089D02*
X168085D01*
X148304Y152599D02*
X168084D01*
X147977Y152869D02*
X168080D01*
X160760Y149359D02*
X168079D01*
X160771Y145849D02*
X168079D01*
X151857Y142339D02*
X168078D01*
X151812Y142204D02*
X168075D01*
X160810Y145714D02*
X168075D01*
X160887Y149224D02*
X168075D01*
X148189Y152734D02*
X168075D01*
X100693Y103324D02*
X168038D01*
X100625Y104674D02*
X168037D01*
X100668Y103459D02*
X167956D01*
X100625Y104539D02*
X167956D01*
X100649Y103594D02*
X167897D01*
X100625Y104404D02*
X167896D01*
X100635Y103729D02*
X167856D01*
X100625Y104269D02*
X167856D01*
X100627Y103864D02*
X167832D01*
X100625Y104134D02*
X167832D01*
X100625Y103999D02*
X167824D01*
X163053Y176089D02*
X167020D01*
X163081Y173929D02*
X166953D01*
X163218Y175954D02*
X166704D01*
X163238Y174064D02*
X166674D01*
X163341Y175819D02*
X166529D01*
X163355Y174199D02*
X166509D01*
X163434Y175684D02*
X166407D01*
X163445Y174334D02*
X166392D01*
X163505Y175549D02*
X166318D01*
X163514Y174469D02*
X166307D01*
X163558Y175414D02*
X166254D01*
X163564Y174604D02*
X166246D01*
X163595Y175279D02*
X166210D01*
X163599Y174739D02*
X166205D01*
X163617Y175144D02*
X166184D01*
X163619Y174874D02*
X166182D01*
X163624Y175009D02*
X166175D01*
X148378Y130054D02*
X165709D01*
X162690Y162859D02*
X165689D01*
X151842Y164884D02*
X165528D01*
X151585Y132079D02*
X165517D01*
X148311Y130189D02*
X165388D01*
X162869Y162994D02*
X165380D01*
X151784Y164749D02*
X165301D01*
X162764Y131944D02*
X165295D01*
X148200Y130324D02*
X165215D01*
X162973Y163129D02*
X165210D01*
X151688Y164614D02*
X165156D01*
X162910Y131809D02*
X165152D01*
X148000Y130459D02*
X165096D01*
X163035Y163264D02*
X165092D01*
X151525Y164479D02*
X165054D01*
X162998Y131674D02*
X165051D01*
X160217Y130594D02*
X165011D01*
X163068Y163399D02*
X165008D01*
X136610Y164344D02*
X164981D01*
X163049Y131539D02*
X164979D01*
X162725Y130729D02*
X164950D01*
X163074Y163534D02*
X164948D01*
X162498Y164209D02*
X164930D01*
X163072Y131404D02*
X164929D01*
X162888Y130864D02*
X164911D01*
X163054Y163669D02*
X164909D01*
X162792Y164074D02*
X164899D01*
X163070Y131269D02*
X164898D01*
X162984Y130999D02*
X164889D01*
X163007Y163804D02*
X164889D01*
X162926Y163939D02*
X164885D01*
X163042Y131134D02*
X164885D01*
X160168Y156784D02*
X162231D01*
X160168Y127084D02*
X162231D01*
X151298Y164209D02*
X162201D01*
X160360Y140044D02*
X162182D01*
X160220Y135454D02*
X162179D01*
X160804Y148279D02*
X162147D01*
X160390Y153409D02*
X162128D01*
X160795Y146929D02*
X162123D01*
X160288Y167584D02*
X162111D01*
X160288Y137884D02*
X162111D01*
X160742Y150574D02*
X162086D01*
X160365Y151924D02*
X162084D01*
X160338Y166234D02*
X162061D01*
X160338Y136534D02*
X162061D01*
X160198Y154759D02*
X162049D01*
X160380Y134104D02*
X162019D01*
X160257Y141394D02*
X162018D01*
X160470Y162859D02*
X162009D01*
X160400Y158134D02*
X161999D01*
X160400Y128434D02*
X161999D01*
X160497Y130729D02*
X161974D01*
X160883Y144769D02*
X161973D01*
X160434Y160564D02*
X161965D01*
X160456Y159349D02*
X161943D01*
X160463Y143554D02*
X161936D01*
X160381Y131944D02*
X161935D01*
X160778Y148144D02*
X161921D01*
X160484Y156919D02*
X161915D01*
X160484Y127219D02*
X161915D01*
X160788Y147064D02*
X161911D01*
X160418Y164074D02*
X161907D01*
X160554Y140179D02*
X161902D01*
X160498Y135319D02*
X161901D01*
X160569Y153544D02*
X161883D01*
X160522Y167449D02*
X161877D01*
X160522Y137749D02*
X161877D01*
X160583Y150709D02*
X161866D01*
X160584Y151789D02*
X161865D01*
X160544Y166369D02*
X161855D01*
X160544Y136669D02*
X161855D01*
X160492Y154624D02*
X161849D01*
X160564Y134239D02*
X161835D01*
X160510Y141259D02*
X161834D01*
X160614Y162994D02*
X161830D01*
X160575Y157999D02*
X161824D01*
X160575Y128299D02*
X161824D01*
X160629Y130864D02*
X161811D01*
X160753Y144634D02*
X161810D01*
X160593Y160429D02*
X161806D01*
X160898Y148009D02*
X161801D01*
X160904Y147199D02*
X161795D01*
X100625Y176224D02*
X161794D01*
X160605Y159484D02*
X161794D01*
X160610Y143689D02*
X161789D01*
X160565Y131809D02*
X161789D01*
X160622Y157054D02*
X161777D01*
X160622Y127354D02*
X161777D01*
X160584Y163939D02*
X161773D01*
X160664Y140314D02*
X161770D01*
X160630Y135184D02*
X161769D01*
X160673Y153679D02*
X161759D01*
X160644Y167314D02*
X161755D01*
X160644Y137614D02*
X161755D01*
X154818Y173794D02*
X161749D01*
X160701Y150844D02*
X161748D01*
X160701Y151654D02*
X161748D01*
X160657Y166504D02*
X161742D01*
X160657Y136804D02*
X161742D01*
X160626Y154489D02*
X161738D01*
X160670Y134374D02*
X161729D01*
X160637Y141124D02*
X161729D01*
X160970Y147874D02*
X161729D01*
X160700Y163129D02*
X161726D01*
X160974Y147334D02*
X161725D01*
X160676Y157864D02*
X161723D01*
X160676Y128164D02*
X161723D01*
X160709Y130999D02*
X161715D01*
X160685Y144499D02*
X161714D01*
X160687Y160294D02*
X161712D01*
X160695Y159619D02*
X161704D01*
X160697Y143824D02*
X161702D01*
X160670Y131674D02*
X161701D01*
X160705Y157189D02*
X161694D01*
X160705Y127489D02*
X161694D01*
X160682Y163804D02*
X161692D01*
X160730Y140449D02*
X161690D01*
X160710Y135049D02*
X161689D01*
X161011Y147739D02*
X161688D01*
X161013Y147469D02*
X161686D01*
X160735Y153814D02*
X161683D01*
X160718Y167179D02*
X161681D01*
X160718Y137479D02*
X161681D01*
X160772Y150979D02*
X161677D01*
X160772Y151519D02*
X161677D01*
X161024Y147604D02*
X161675D01*
X160726Y166639D02*
X161673D01*
X160726Y136939D02*
X161673D01*
X160707Y154354D02*
X161671D01*
X160734Y134509D02*
X161665D01*
X160714Y140989D02*
X161665D01*
X160750Y163264D02*
X161664D01*
X160737Y157729D02*
X161662D01*
X160737Y128029D02*
X161662D01*
X160755Y131134D02*
X161657D01*
X160742Y144364D02*
X161657D01*
X160744Y160159D02*
X161655D01*
X160748Y159754D02*
X161651D01*
X160749Y143959D02*
X161650D01*
X160734Y131539D02*
X161650D01*
X160753Y157324D02*
X161646D01*
X160753Y127624D02*
X161646D01*
X160740Y163669D02*
X161645D01*
X160765Y140584D02*
X161644D01*
X160756Y134914D02*
X161643D01*
X160768Y153949D02*
X161640D01*
X160760Y167044D02*
X161639D01*
X160760Y137344D02*
X161639D01*
X160812Y151114D02*
X161637D01*
X160812Y151384D02*
X161637D01*
X160764Y166774D02*
X161635D01*
X160764Y137074D02*
X161635D01*
X160754Y154219D02*
X161634D01*
X160767Y134644D02*
X161632D01*
X160758Y140854D02*
X161632D01*
X160773Y163399D02*
X161631D01*
X160768Y157594D02*
X161631D01*
X160768Y127894D02*
X161631D01*
X160774Y131269D02*
X161629D01*
X160770Y144229D02*
X161629D01*
X160771Y160024D02*
X161628D01*
X160772Y159889D02*
X161627D01*
X160772Y144094D02*
X161627D01*
X160767Y131404D02*
X161627D01*
X160773Y157459D02*
X161626D01*
X160773Y127759D02*
X161626D01*
X160770Y163534D02*
X161625D01*
X160774Y140719D02*
X161625D01*
X160774Y134779D02*
X161625D01*
X160774Y154084D02*
X161625D01*
X160774Y166909D02*
X161625D01*
X160774Y137209D02*
X161625D01*
X160825Y151249D02*
X161624D01*
X104439Y176089D02*
X161546D01*
X154787Y173929D02*
X161518D01*
X104685Y175954D02*
X161381D01*
X154726Y174064D02*
X161361D01*
X154187Y175819D02*
X161258D01*
X154625Y174199D02*
X161244D01*
X154528Y175684D02*
X161165D01*
X154450Y174334D02*
X161154D01*
X154668Y175549D02*
X161094D01*
X154458Y174469D02*
X161085D01*
X154753Y175414D02*
X161041D01*
X154629Y174604D02*
X161035D01*
X154802Y175279D02*
X161004D01*
X154729Y174739D02*
X161000D01*
X154823Y175144D02*
X160982D01*
X154789Y174874D02*
X160980D01*
X154819Y175009D02*
X160975D01*
X157868Y156784D02*
X159931D01*
X157868Y127084D02*
X159931D01*
X151450Y154759D02*
X159901D01*
X137157Y130594D02*
X159882D01*
X157920Y135454D02*
X159879D01*
X151564Y141394D02*
X159842D01*
X129510Y149359D02*
X159839D01*
X150070Y150574D02*
X159836D01*
X148370Y151924D02*
X159834D01*
X150123Y145849D02*
X159828D01*
X151083Y148144D02*
X159821D01*
X157988Y167584D02*
X159811D01*
X157988Y137884D02*
X159811D01*
X129656Y147064D02*
X159811D01*
X129674Y146929D02*
X159804D01*
X151070Y148279D02*
X159795D01*
X150100Y145714D02*
X159789D01*
X129364Y149494D02*
X159780D01*
X158038Y166234D02*
X159761D01*
X158038Y136534D02*
X159761D01*
X125692Y140044D02*
X159739D01*
X150111Y150439D02*
X159723D01*
X158080Y134104D02*
X159719D01*
X151722Y131944D02*
X159718D01*
X149768Y149224D02*
X159712D01*
X151371Y153409D02*
X159709D01*
X150120Y145984D02*
X159705D01*
X151070Y148009D02*
X159701D01*
X158100Y158134D02*
X159699D01*
X158100Y128434D02*
X159699D01*
X129610Y147199D02*
X159695D01*
X129667Y146794D02*
X159691D01*
X151030Y148414D02*
X159685D01*
X150050Y145579D02*
X159682D01*
X151592Y164074D02*
X159682D01*
X149676Y149629D02*
X159676D01*
X158126Y144769D02*
X159673D01*
X158134Y160564D02*
X159665D01*
X158156Y159349D02*
X159643D01*
X150124Y150304D02*
X159642D01*
X153070Y144904D02*
X159637D01*
X158163Y143554D02*
X159636D01*
X149934Y149089D02*
X159635D01*
X150090Y146119D02*
X159631D01*
X151490Y162859D02*
X159629D01*
X151031Y147874D02*
X159629D01*
X129530Y147334D02*
X159625D01*
X129634Y146659D02*
X159623D01*
X150958Y148549D02*
X159619D01*
X149964Y145444D02*
X159617D01*
X149998Y150709D02*
X159616D01*
X148297Y151789D02*
X159615D01*
X158184Y156919D02*
X159615D01*
X158184Y127219D02*
X159615D01*
X149888Y149764D02*
X159614D01*
X151650Y154624D02*
X159607D01*
X137204Y130729D02*
X159602D01*
X158198Y135319D02*
X159601D01*
X150113Y150169D02*
X159595D01*
X138776Y145039D02*
X159592D01*
X150032Y148954D02*
X159591D01*
X150032Y146254D02*
X159589D01*
X151710Y141259D02*
X159589D01*
X150960Y147739D02*
X159588D01*
X150626Y147469D02*
X159586D01*
X149768Y146524D02*
X159585D01*
X150839Y148684D02*
X159584D01*
X149820Y145309D02*
X159583D01*
X150004Y149899D02*
X159581D01*
X158222Y167449D02*
X159577D01*
X158222Y137749D02*
X159577D01*
X150074Y150034D02*
X159575D01*
X138642Y145174D02*
X159575D01*
X150618Y148819D02*
X159575D01*
X149934Y146389D02*
X159575D01*
X150843Y147604D02*
X159575D01*
X158244Y166369D02*
X159555D01*
X158244Y136669D02*
X159555D01*
X151525Y140179D02*
X159545D01*
X158264Y134239D02*
X159535D01*
X151805Y131809D02*
X159534D01*
X151616Y153544D02*
X159530D01*
X158275Y157999D02*
X159524D01*
X158275Y128299D02*
X159524D01*
X151726Y163939D02*
X159515D01*
X158289Y144634D02*
X159510D01*
X158293Y160429D02*
X159506D01*
X149878Y150844D02*
X159498D01*
X148177Y151654D02*
X159498D01*
X158305Y159484D02*
X159494D01*
X158310Y143689D02*
X159489D01*
X151669Y162994D02*
X159485D01*
X158322Y157054D02*
X159477D01*
X158322Y127354D02*
X159477D01*
X151761Y154489D02*
X159473D01*
X151499Y130864D02*
X159470D01*
X158330Y135184D02*
X159469D01*
X151798Y141124D02*
X159462D01*
X158344Y167314D02*
X159455D01*
X158344Y137614D02*
X159455D01*
X158357Y166504D02*
X159442D01*
X158357Y136804D02*
X159442D01*
X151688Y140314D02*
X159435D01*
X158370Y134374D02*
X159429D01*
X151853Y131674D02*
X159429D01*
X149652Y150979D02*
X159427D01*
X147950Y151519D02*
X159427D01*
X151740Y153679D02*
X159426D01*
X158376Y157864D02*
X159423D01*
X158376Y128164D02*
X159423D01*
X151807Y163804D02*
X159417D01*
X158385Y144499D02*
X159414D01*
X158387Y160294D02*
X159412D01*
X158395Y159619D02*
X159404D01*
X158397Y143824D02*
X159402D01*
X151773Y163129D02*
X159399D01*
X158405Y157189D02*
X159394D01*
X158405Y127489D02*
X159394D01*
X151828Y154354D02*
X159392D01*
X151674Y130999D02*
X159390D01*
X158410Y135049D02*
X159389D01*
X137746Y151114D02*
X159387D01*
X137753Y151384D02*
X159387D01*
X151849Y140989D02*
X159385D01*
X158418Y167179D02*
X159381D01*
X158418Y137479D02*
X159381D01*
X137762Y151249D02*
X159374D01*
X158426Y166639D02*
X159373D01*
X158426Y136939D02*
X159373D01*
X151784Y140449D02*
X159369D01*
X158434Y134509D02*
X159365D01*
X151873Y131539D02*
X159365D01*
X151816Y153814D02*
X159364D01*
X158437Y157729D02*
X159362D01*
X158437Y128029D02*
X159362D01*
X151854Y163669D02*
X159359D01*
X158442Y144364D02*
X159357D01*
X158444Y160159D02*
X159355D01*
X158448Y159754D02*
X159351D01*
X158449Y143959D02*
X159350D01*
X151835Y163264D02*
X159349D01*
X158453Y157324D02*
X159346D01*
X158453Y127624D02*
X159346D01*
X151865Y154219D02*
X159345D01*
X151776Y131134D02*
X159344D01*
X158456Y134914D02*
X159343D01*
X151872Y140854D02*
X159341D01*
X158460Y167044D02*
X159339D01*
X158460Y137344D02*
X159339D01*
X158464Y166774D02*
X159335D01*
X158464Y137074D02*
X159335D01*
X151842Y140584D02*
X159334D01*
X158467Y134644D02*
X159332D01*
X151868Y131404D02*
X159332D01*
X151859Y153949D02*
X159331D01*
X158468Y157594D02*
X159331D01*
X158468Y127894D02*
X159331D01*
X151874Y163534D02*
X159329D01*
X158470Y144229D02*
X159329D01*
X158471Y160024D02*
X159328D01*
X158472Y159889D02*
X159327D01*
X158472Y144094D02*
X159327D01*
X151868Y163399D02*
X159326D01*
X158473Y157459D02*
X159326D01*
X158473Y127759D02*
X159326D01*
X151874Y154084D02*
X159325D01*
X151837Y131269D02*
X159325D01*
X158474Y134779D02*
X159325D01*
X151870Y140719D02*
X159325D01*
X158474Y166909D02*
X159325D01*
X158474Y137209D02*
X159325D01*
X155618Y156784D02*
X157631D01*
X155618Y127084D02*
X157631D01*
X155670Y135454D02*
X157579D01*
X155738Y167584D02*
X157511D01*
X155738Y137884D02*
X157511D01*
X155788Y166234D02*
X157461D01*
X155788Y136534D02*
X157461D01*
X155830Y134104D02*
X157419D01*
X155850Y158134D02*
X157399D01*
X155850Y128434D02*
X157399D01*
X155876Y144769D02*
X157373D01*
X155884Y160564D02*
X157365D01*
X155906Y159349D02*
X157343D01*
X155913Y143554D02*
X157336D01*
X155934Y156919D02*
X157315D01*
X155934Y127219D02*
X157315D01*
X155948Y135319D02*
X157301D01*
X155972Y167449D02*
X157277D01*
X155972Y137749D02*
X157277D01*
X155994Y166369D02*
X157255D01*
X155994Y136669D02*
X157255D01*
X156014Y134239D02*
X157235D01*
X156025Y157999D02*
X157224D01*
X156025Y128299D02*
X157224D01*
X156039Y144634D02*
X157210D01*
X156043Y160429D02*
X157206D01*
X156055Y159484D02*
X157194D01*
X156060Y143689D02*
X157189D01*
X156072Y157054D02*
X157177D01*
X156072Y127354D02*
X157177D01*
X156080Y135184D02*
X157169D01*
X156094Y167314D02*
X157155D01*
X156094Y137614D02*
X157155D01*
X156107Y166504D02*
X157142D01*
X156107Y136804D02*
X157142D01*
X156120Y134374D02*
X157129D01*
X156126Y157864D02*
X157123D01*
X156126Y128164D02*
X157123D01*
X156135Y144499D02*
X157114D01*
X156137Y160294D02*
X157112D01*
X156145Y159619D02*
X157104D01*
X156147Y143824D02*
X157102D01*
X156155Y157189D02*
X157094D01*
X156155Y127489D02*
X157094D01*
X156160Y135049D02*
X157089D01*
X156168Y167179D02*
X157081D01*
X156168Y137479D02*
X157081D01*
X156176Y166639D02*
X157073D01*
X156176Y136939D02*
X157073D01*
X156184Y134509D02*
X157065D01*
X156187Y157729D02*
X157062D01*
X156187Y128029D02*
X157062D01*
X156192Y144364D02*
X157057D01*
X156194Y160159D02*
X157055D01*
X156198Y159754D02*
X157051D01*
X156199Y143959D02*
X157050D01*
X156203Y157324D02*
X157046D01*
X156203Y127624D02*
X157046D01*
X156206Y134914D02*
X157043D01*
X156210Y167044D02*
X157039D01*
X156210Y137344D02*
X157039D01*
X156214Y166774D02*
X157035D01*
X156214Y137074D02*
X157035D01*
X156217Y134644D02*
X157032D01*
X156218Y157594D02*
X157031D01*
X156218Y127894D02*
X157031D01*
X156220Y144229D02*
X157029D01*
X156221Y160024D02*
X157028D01*
X156222Y159889D02*
X157027D01*
X156222Y144094D02*
X157027D01*
X156223Y157459D02*
X157026D01*
X156223Y127759D02*
X157026D01*
X156224Y134779D02*
X157025D01*
X156224Y166909D02*
X157025D01*
X156224Y137209D02*
X157025D01*
X153018Y156784D02*
X155381D01*
X149939Y127084D02*
X155381D01*
X153366Y135454D02*
X155329D01*
X153138Y167584D02*
X155261D01*
X120254Y137884D02*
X155261D01*
X153188Y166234D02*
X155211D01*
X151603Y136534D02*
X155211D01*
X137122Y134104D02*
X155169D01*
X153250Y158134D02*
X155149D01*
X153543Y128434D02*
X155149D01*
X153348Y144769D02*
X155123D01*
X136914Y160564D02*
X155115D01*
X151768Y159349D02*
X155093D01*
X153230Y143554D02*
X155086D01*
X153334Y156919D02*
X155065D01*
X149776Y127219D02*
X155065D01*
X153491Y135319D02*
X155051D01*
X153372Y167449D02*
X155027D01*
X151471Y137749D02*
X155027D01*
X153394Y166369D02*
X155005D01*
X151733Y136669D02*
X155005D01*
X153199Y134239D02*
X154985D01*
X153425Y157999D02*
X154974D01*
X153596Y128299D02*
X154974D01*
X153480Y144634D02*
X154960D01*
X151559Y160429D02*
X154956D01*
X151852Y159484D02*
X154944D01*
X153414Y143689D02*
X154939D01*
X153472Y157054D02*
X154927D01*
X100625Y127354D02*
X154927D01*
X153566Y135184D02*
X154919D01*
X153494Y167314D02*
X154905D01*
X151660Y137614D02*
X154905D01*
X153507Y166504D02*
X154892D01*
X151812Y136804D02*
X154892D01*
X153399Y134374D02*
X154879D01*
X153526Y157864D02*
X154873D01*
X153622Y128164D02*
X154873D01*
X153560Y144499D02*
X154864D01*
X151730Y160294D02*
X154862D01*
X151902Y159619D02*
X154854D01*
X153520Y143824D02*
X154852D01*
X153555Y157189D02*
X154844D01*
X153291Y127489D02*
X154844D01*
X153609Y135049D02*
X154839D01*
X153568Y167179D02*
X154831D01*
X151767Y137479D02*
X154831D01*
X153576Y166639D02*
X154823D01*
X151857Y136939D02*
X154823D01*
X153510Y134509D02*
X154815D01*
X153587Y157729D02*
X154812D01*
X153621Y128029D02*
X154812D01*
X153606Y144364D02*
X154807D01*
X151829Y160159D02*
X154805D01*
X151923Y159754D02*
X154801D01*
X153584Y143959D02*
X154800D01*
X153603Y157324D02*
X154796D01*
X153447Y127624D02*
X154796D01*
X153624Y134914D02*
X154793D01*
X153610Y167044D02*
X154789D01*
X151832Y137344D02*
X154789D01*
X153614Y166774D02*
X154785D01*
X151874Y137074D02*
X154785D01*
X153578Y134644D02*
X154782D01*
X153618Y157594D02*
X154781D01*
X153595Y127894D02*
X154781D01*
X153624Y144229D02*
X154779D01*
X151889Y160024D02*
X154778D01*
X151919Y159889D02*
X154777D01*
X153617Y144094D02*
X154777D01*
X153623Y157459D02*
X154776D01*
X153540Y127759D02*
X154776D01*
X153614Y134779D02*
X154775D01*
X153624Y166909D02*
X154775D01*
X151866Y137209D02*
X154775D01*
X152487Y175819D02*
X154012D01*
X152518Y172984D02*
X153981D01*
X152750Y174334D02*
X153749D01*
X152758Y174469D02*
X153741D01*
X152828Y175684D02*
X153671D01*
X152834Y173119D02*
X153665D01*
X152925Y174199D02*
X153574D01*
X152929Y174604D02*
X153570D01*
X152968Y175549D02*
X153531D01*
X152972Y173254D02*
X153527D01*
X153026Y174064D02*
X153473D01*
X153029Y174739D02*
X153470D01*
X153053Y175414D02*
X153446D01*
X153055Y173389D02*
X153444D01*
X153087Y173929D02*
X153412D01*
X153089Y174874D02*
X153410D01*
X153102Y175279D02*
X153397D01*
X153103Y173524D02*
X153396D01*
X153118Y173794D02*
X153381D01*
X153119Y175009D02*
X153380D01*
X153123Y175144D02*
X153376D01*
X153123Y173659D02*
X153376D01*
X151268Y156784D02*
X152781D01*
X151320Y144904D02*
X152729D01*
X151373Y135589D02*
X152676D01*
X151388Y167584D02*
X152661D01*
X151438Y166234D02*
X152611D01*
X151449Y134239D02*
X152600D01*
X151480Y143554D02*
X152569D01*
X151500Y158134D02*
X152549D01*
X151541Y167989D02*
X152508D01*
X151541Y127489D02*
X152508D01*
X151550Y169204D02*
X152499D01*
X151550Y128704D02*
X152499D01*
X151584Y156919D02*
X152465D01*
X151598Y144769D02*
X152451D01*
X151616Y135454D02*
X152433D01*
X151622Y167449D02*
X152427D01*
X151644Y166369D02*
X152405D01*
X151649Y134374D02*
X152400D01*
X151664Y143689D02*
X152385D01*
X151675Y157999D02*
X152374D01*
X151697Y168124D02*
X152352D01*
X151697Y127624D02*
X152352D01*
X151702Y169069D02*
X152347D01*
X151702Y128569D02*
X152347D01*
X151722Y157054D02*
X152327D01*
X151730Y144634D02*
X152319D01*
X130387Y175819D02*
X152312D01*
X151741Y135319D02*
X152308D01*
X151744Y167314D02*
X152305D01*
X151757Y166504D02*
X152292D01*
X151760Y134509D02*
X152289D01*
X100625Y172984D02*
X152281D01*
X151770Y143824D02*
X152279D01*
X151776Y157864D02*
X152273D01*
X151790Y168259D02*
X152259D01*
X151790Y127759D02*
X152259D01*
X151793Y168934D02*
X152256D01*
X151793Y128434D02*
X152256D01*
X151805Y157189D02*
X152244D01*
X151810Y144499D02*
X152239D01*
X151816Y135184D02*
X152233D01*
X151818Y167179D02*
X152231D01*
X151826Y166639D02*
X152223D01*
X151828Y134644D02*
X152221D01*
X151834Y143959D02*
X152215D01*
X151837Y157729D02*
X152212D01*
X151845Y168394D02*
X152204D01*
X151845Y127894D02*
X152204D01*
X151846Y168799D02*
X152203D01*
X151846Y128299D02*
X152203D01*
X151853Y157324D02*
X152196D01*
X151856Y144364D02*
X152193D01*
X151859Y135049D02*
X152190D01*
X151860Y167044D02*
X152189D01*
X151864Y166774D02*
X152185D01*
X151864Y134779D02*
X152185D01*
X151867Y144094D02*
X152182D01*
X151868Y157594D02*
X152181D01*
X151871Y168529D02*
X152178D01*
X151871Y128029D02*
X152178D01*
X151872Y168664D02*
X152177D01*
X151872Y128164D02*
X152177D01*
X151873Y157459D02*
X152176D01*
X151874Y144229D02*
X152175D01*
X151874Y134914D02*
X152175D01*
X151874Y166909D02*
X152175D01*
X104968Y174334D02*
X152049D01*
X130658Y174469D02*
X152041D01*
X130728Y175684D02*
X151971D01*
X100625Y173119D02*
X151965D01*
X104860Y174199D02*
X151874D01*
X130829Y174604D02*
X151870D01*
X130868Y175549D02*
X151831D01*
X100625Y173254D02*
X151827D01*
X104711Y174064D02*
X151773D01*
X130929Y174739D02*
X151770D01*
X130953Y175414D02*
X151746D01*
X100625Y173389D02*
X151744D01*
X104484Y173929D02*
X151712D01*
X130989Y174874D02*
X151710D01*
X131002Y175279D02*
X151697D01*
X100625Y173524D02*
X151696D01*
X100625Y173794D02*
X151681D01*
X131019Y175009D02*
X151680D01*
X131023Y175144D02*
X151676D01*
X100625Y173659D02*
X151676D01*
X151057Y159079D02*
X151117D01*
X149518Y156784D02*
X151031D01*
X149518Y132484D02*
X151031D01*
X149522Y156514D02*
X151028D01*
X149522Y132214D02*
X151028D01*
X149548Y164209D02*
X151001D01*
X149570Y144904D02*
X150979D01*
X149587Y141799D02*
X150962D01*
X149621Y153409D02*
X150928D01*
X149623Y135589D02*
X150926D01*
X149638Y167584D02*
X150911D01*
X149688Y166234D02*
X150861D01*
X149699Y134239D02*
X150850D01*
X149700Y154759D02*
X150849D01*
X149809Y160429D02*
X150840D01*
X149721Y143149D02*
X150828D01*
X149721Y137749D02*
X150828D01*
X149730Y143554D02*
X150819D01*
X149740Y162859D02*
X150809D01*
X149749Y155164D02*
X150800D01*
X149749Y130864D02*
X150800D01*
X149750Y158134D02*
X150799D01*
X149750Y133834D02*
X150799D01*
X149775Y164479D02*
X150774D01*
X149775Y140179D02*
X150774D01*
X149791Y167989D02*
X150758D01*
X149791Y127489D02*
X150758D01*
X149800Y169204D02*
X150749D01*
X149800Y128704D02*
X150749D01*
X149814Y165694D02*
X150735D01*
X149814Y141394D02*
X150735D01*
X149834Y156919D02*
X150715D01*
X149834Y132619D02*
X150715D01*
X149835Y156379D02*
X150714D01*
X149835Y132079D02*
X150714D01*
X149842Y164074D02*
X150707D01*
X149848Y144769D02*
X150701D01*
X149853Y141934D02*
X150696D01*
X149866Y153544D02*
X150683D01*
X149866Y135454D02*
X150683D01*
X149872Y167449D02*
X150677D01*
X149980Y160294D02*
X150669D01*
X149894Y166369D02*
X150655D01*
X149899Y134374D02*
X150650D01*
X149900Y154624D02*
X150649D01*
X149910Y143014D02*
X150639D01*
X149910Y137614D02*
X150639D01*
X149914Y143689D02*
X150635D01*
X149919Y162994D02*
X150630D01*
X149924Y155299D02*
X150625D01*
X149924Y130999D02*
X150625D01*
X149925Y157999D02*
X150624D01*
X149925Y133699D02*
X150624D01*
X149938Y164614D02*
X150611D01*
X149938Y140314D02*
X150611D01*
X149947Y168124D02*
X150602D01*
X149947Y127624D02*
X150602D01*
X149952Y169069D02*
X150597D01*
X149952Y128569D02*
X150597D01*
X149960Y165559D02*
X150589D01*
X149960Y141259D02*
X150589D01*
X149972Y157054D02*
X150577D01*
X149972Y132754D02*
X150577D01*
X149972Y156244D02*
X150577D01*
X149972Y131944D02*
X150577D01*
X149976Y163939D02*
X150573D01*
X150079Y160159D02*
X150570D01*
X149980Y144634D02*
X150569D01*
X149983Y142069D02*
X150566D01*
X149990Y153679D02*
X150559D01*
X149991Y135319D02*
X150558D01*
X149994Y167314D02*
X150555D01*
X150007Y166504D02*
X150542D01*
X150010Y134509D02*
X150539D01*
X150011Y154489D02*
X150538D01*
X150017Y142879D02*
X150532D01*
X150017Y137479D02*
X150532D01*
X150020Y143824D02*
X150529D01*
X150023Y163129D02*
X150526D01*
X150026Y155434D02*
X150523D01*
X150026Y131134D02*
X150523D01*
X150026Y157864D02*
X150523D01*
X150026Y133564D02*
X150523D01*
X150034Y164749D02*
X150515D01*
X150034Y140449D02*
X150515D01*
X150139Y160024D02*
X150510D01*
X150040Y168259D02*
X150509D01*
X150040Y127759D02*
X150509D01*
X150043Y168934D02*
X150506D01*
X150043Y128434D02*
X150506D01*
X150048Y165424D02*
X150501D01*
X150048Y141124D02*
X150501D01*
X150055Y157189D02*
X150494D01*
X150055Y132889D02*
X150494D01*
X150055Y156109D02*
X150494D01*
X150055Y131809D02*
X150494D01*
X150057Y163804D02*
X150492D01*
X150060Y144499D02*
X150489D01*
X150062Y142204D02*
X150487D01*
X150066Y153814D02*
X150483D01*
X150066Y135184D02*
X150483D01*
X150068Y167179D02*
X150481D01*
X150076Y166639D02*
X150473D01*
X150078Y134644D02*
X150471D01*
X150078Y154354D02*
X150471D01*
X150082Y142744D02*
X150467D01*
X150082Y137344D02*
X150467D01*
X150084Y143959D02*
X150465D01*
X150085Y163264D02*
X150464D01*
X150087Y155569D02*
X150462D01*
X150087Y131269D02*
X150462D01*
X150087Y157729D02*
X150462D01*
X150087Y133429D02*
X150462D01*
X150092Y164884D02*
X150457D01*
X150092Y140584D02*
X150457D01*
X150095Y168394D02*
X150454D01*
X150095Y127894D02*
X150454D01*
X150096Y168799D02*
X150453D01*
X150096Y128299D02*
X150453D01*
X150099Y165289D02*
X150450D01*
X150099Y140989D02*
X150450D01*
X150103Y157324D02*
X150446D01*
X150103Y133024D02*
X150446D01*
X150103Y155974D02*
X150446D01*
X150103Y131674D02*
X150446D01*
X150104Y163669D02*
X150445D01*
X150106Y144364D02*
X150443D01*
X150107Y142339D02*
X150442D01*
X150109Y153949D02*
X150440D01*
X150109Y135049D02*
X150440D01*
X150110Y167044D02*
X150439D01*
X150114Y166774D02*
X150435D01*
X150114Y134779D02*
X150435D01*
X150115Y154219D02*
X150434D01*
X150116Y142609D02*
X150433D01*
X150117Y144094D02*
X150432D01*
X150118Y163399D02*
X150431D01*
X150118Y155704D02*
X150431D01*
X150118Y131404D02*
X150431D01*
X150118Y157594D02*
X150431D01*
X150118Y133294D02*
X150431D01*
X150120Y165019D02*
X150429D01*
X150120Y140719D02*
X150429D01*
X150121Y168529D02*
X150428D01*
X150121Y128029D02*
X150428D01*
X150122Y168664D02*
X150427D01*
X150122Y128164D02*
X150427D01*
X150122Y165154D02*
X150427D01*
X150122Y140854D02*
X150427D01*
X150123Y157459D02*
X150426D01*
X150123Y133159D02*
X150426D01*
X150123Y155839D02*
X150426D01*
X150123Y131539D02*
X150426D01*
X150124Y163534D02*
X150425D01*
X150124Y144229D02*
X150425D01*
X150124Y142474D02*
X150425D01*
X150124Y154084D02*
X150425D01*
X150124Y134914D02*
X150425D01*
X150124Y166909D02*
X150425D01*
X150116Y137209D02*
X150298D01*
X107917Y125329D02*
X150161D01*
X137738Y158539D02*
X150107D01*
X150090Y148819D02*
X150097D01*
X129398Y147469D02*
X150089D01*
X137677Y135859D02*
X150006D01*
X108031Y125464D02*
X149899D01*
X137687Y158674D02*
X149873D01*
X129120Y147604D02*
X149872D01*
X137585Y135994D02*
X149836D01*
X108108Y125599D02*
X149771D01*
X117081Y147739D02*
X149755D01*
X137600Y158809D02*
X149752D01*
X137428Y136129D02*
X149737D01*
X108159Y125734D02*
X149692D01*
X117174Y147874D02*
X149684D01*
X135662Y136264D02*
X149678D01*
X137455Y158944D02*
X149677D01*
X108187Y125869D02*
X149648D01*
X149587Y136399D02*
X149648D01*
X149532Y159079D02*
X149636D01*
X147732D02*
X149367D01*
X147768Y156784D02*
X149281D01*
X147768Y132484D02*
X149281D01*
X147772Y156514D02*
X149278D01*
X147772Y132214D02*
X149278D01*
X147748Y164209D02*
X149251D01*
X147820Y144904D02*
X149229D01*
X147837Y141799D02*
X149212D01*
X147837Y136399D02*
X149212D01*
X147871Y153409D02*
X149178D01*
X147873Y135589D02*
X149176D01*
X147838Y167584D02*
X149161D01*
X147902Y150979D02*
X149147D01*
X147926Y149629D02*
X149123D01*
X147888Y166234D02*
X149111D01*
X147949Y134239D02*
X149100D01*
X147950Y154759D02*
X149099D01*
X148009Y160429D02*
X149090D01*
X147971Y143149D02*
X149078D01*
X147971Y137749D02*
X149078D01*
X147980Y143554D02*
X149069D01*
X147940Y162859D02*
X149059D01*
X147999Y155164D02*
X149050D01*
X147999Y130864D02*
X149050D01*
X148000Y158134D02*
X149049D01*
X148000Y133834D02*
X149049D01*
X148018Y149224D02*
X149032D01*
X148018Y146524D02*
X149032D01*
X147975Y164479D02*
X149024D01*
X148025Y140179D02*
X149024D01*
X148026Y127219D02*
X149023D01*
X148077Y159214D02*
X149022D01*
X147991Y167989D02*
X149008D01*
X148041Y127489D02*
X149008D01*
X148000Y169204D02*
X148999D01*
X148050Y128704D02*
X148999D01*
X148063Y126004D02*
X148986D01*
X148014Y165694D02*
X148985D01*
X148064Y141394D02*
X148985D01*
X148070Y148009D02*
X148979D01*
X148070Y145309D02*
X148979D01*
X148084Y156919D02*
X148965D01*
X148084Y132619D02*
X148965D01*
X148085Y156379D02*
X148964D01*
X148085Y132079D02*
X148964D01*
X148042Y164074D02*
X148957D01*
X148098Y144769D02*
X148951D01*
X148103Y141934D02*
X148946D01*
X148103Y136534D02*
X148946D01*
X148116Y153544D02*
X148933D01*
X148116Y135454D02*
X148933D01*
X148072Y167449D02*
X148927D01*
X148128Y150844D02*
X148921D01*
X148180Y160294D02*
X148919D01*
X148138Y149764D02*
X148911D01*
X148094Y166369D02*
X148905D01*
X148149Y134374D02*
X148900D01*
X148150Y154624D02*
X148899D01*
X148160Y143014D02*
X148889D01*
X148160Y137614D02*
X148889D01*
X148164Y143689D02*
X148885D01*
X148218Y159349D02*
X148881D01*
X148119Y162994D02*
X148880D01*
X148174Y155299D02*
X148875D01*
X148174Y130999D02*
X148875D01*
X148175Y157999D02*
X148874D01*
X148175Y133699D02*
X148874D01*
X148184Y149089D02*
X148865D01*
X148184Y146389D02*
X148865D01*
X148138Y164614D02*
X148861D01*
X148188Y140314D02*
X148861D01*
X148189Y127084D02*
X148860D01*
X148147Y168124D02*
X148852D01*
X148197Y127624D02*
X148852D01*
X148152Y169069D02*
X148847D01*
X148202Y128569D02*
X148847D01*
X148210Y126139D02*
X148839D01*
X148160Y165559D02*
X148839D01*
X148210Y141259D02*
X148839D01*
X148214Y148144D02*
X148835D01*
X148214Y145444D02*
X148835D01*
X148222Y157054D02*
X148827D01*
X148222Y132754D02*
X148827D01*
X148222Y156244D02*
X148827D01*
X148222Y131944D02*
X148827D01*
X148176Y163939D02*
X148823D01*
X148279Y160159D02*
X148820D01*
X148230Y144634D02*
X148819D01*
X148233Y142069D02*
X148816D01*
X148233Y136669D02*
X148816D01*
X148240Y153679D02*
X148809D01*
X148241Y135319D02*
X148808D01*
X148194Y167314D02*
X148805D01*
X148248Y150709D02*
X148801D01*
X148302Y159484D02*
X148797D01*
X148254Y149899D02*
X148795D01*
X148207Y166504D02*
X148792D01*
X148260Y134509D02*
X148789D01*
X148261Y154489D02*
X148788D01*
X148267Y142879D02*
X148782D01*
X148267Y137479D02*
X148782D01*
X148270Y143824D02*
X148779D01*
X148223Y163129D02*
X148776D01*
X148276Y155434D02*
X148773D01*
X148276Y131134D02*
X148773D01*
X148276Y157864D02*
X148773D01*
X148276Y133564D02*
X148773D01*
X148282Y148954D02*
X148767D01*
X148282Y146254D02*
X148767D01*
X148234Y164749D02*
X148765D01*
X148284Y140449D02*
X148765D01*
X148285Y126949D02*
X148764D01*
X148339Y160024D02*
X148760D01*
X148240Y168259D02*
X148759D01*
X148290Y127759D02*
X148759D01*
X148243Y168934D02*
X148756D01*
X148293Y128434D02*
X148756D01*
X148297Y126274D02*
X148752D01*
X148248Y165424D02*
X148751D01*
X148298Y141124D02*
X148751D01*
X148300Y148279D02*
X148749D01*
X148300Y145579D02*
X148749D01*
X148352Y159619D02*
X148747D01*
X148305Y157189D02*
X148744D01*
X148305Y132889D02*
X148744D01*
X148305Y156109D02*
X148744D01*
X148305Y131809D02*
X148744D01*
X148257Y163804D02*
X148742D01*
X148310Y144499D02*
X148739D01*
X148312Y142204D02*
X148737D01*
X148312Y136804D02*
X148737D01*
X148316Y153814D02*
X148733D01*
X148316Y135184D02*
X148733D01*
X148268Y167179D02*
X148731D01*
X148369Y159889D02*
X148730D01*
X148320Y150574D02*
X148729D01*
X148373Y159754D02*
X148726D01*
X148324Y150034D02*
X148725D01*
X148276Y166639D02*
X148723D01*
X148328Y134644D02*
X148721D01*
X148328Y154354D02*
X148721D01*
X148332Y142744D02*
X148717D01*
X148332Y137344D02*
X148717D01*
X148334Y143959D02*
X148715D01*
X148285Y163264D02*
X148714D01*
X148337Y155569D02*
X148712D01*
X148337Y131269D02*
X148712D01*
X148337Y157729D02*
X148712D01*
X148337Y133429D02*
X148712D01*
X148340Y148819D02*
X148709D01*
X148340Y146119D02*
X148709D01*
X148292Y164884D02*
X148707D01*
X148342Y140584D02*
X148707D01*
X148342Y126814D02*
X148707D01*
X148295Y168394D02*
X148704D01*
X148345Y127894D02*
X148704D01*
X148296Y168799D02*
X148703D01*
X148346Y128299D02*
X148703D01*
X148349Y126409D02*
X148700D01*
X148299Y165289D02*
X148700D01*
X148349Y140989D02*
X148700D01*
X148350Y148414D02*
X148699D01*
X148350Y145714D02*
X148699D01*
X148353Y157324D02*
X148696D01*
X148353Y133024D02*
X148696D01*
X148353Y155974D02*
X148696D01*
X148353Y131674D02*
X148696D01*
X148304Y163669D02*
X148695D01*
X148356Y144364D02*
X148693D01*
X148357Y142339D02*
X148692D01*
X148357Y136939D02*
X148692D01*
X148359Y153949D02*
X148690D01*
X148359Y135049D02*
X148690D01*
X148310Y167044D02*
X148689D01*
X148361Y150439D02*
X148688D01*
X148363Y150169D02*
X148686D01*
X148314Y166774D02*
X148685D01*
X148364Y134779D02*
X148685D01*
X148365Y154219D02*
X148684D01*
X148366Y142609D02*
X148683D01*
X148366Y137209D02*
X148683D01*
X148367Y144094D02*
X148682D01*
X148318Y163399D02*
X148681D01*
X148368Y155704D02*
X148681D01*
X148368Y131404D02*
X148681D01*
X148368Y157594D02*
X148681D01*
X148368Y133294D02*
X148681D01*
X148370Y148684D02*
X148679D01*
X148370Y145984D02*
X148679D01*
X148320Y165019D02*
X148679D01*
X148370Y140719D02*
X148679D01*
X148370Y126679D02*
X148679D01*
X148321Y168529D02*
X148678D01*
X148371Y128029D02*
X148678D01*
X148322Y168664D02*
X148677D01*
X148372Y128164D02*
X148677D01*
X148372Y126544D02*
X148677D01*
X148322Y165154D02*
X148677D01*
X148372Y140854D02*
X148677D01*
X148373Y148549D02*
X148676D01*
X148373Y145849D02*
X148676D01*
X148373Y157459D02*
X148676D01*
X148373Y133159D02*
X148676D01*
X148373Y155839D02*
X148676D01*
X148373Y131539D02*
X148676D01*
X148324Y163534D02*
X148675D01*
X148374Y144229D02*
X148675D01*
X148374Y142474D02*
X148675D01*
X148374Y137074D02*
X148675D01*
X148374Y154084D02*
X148675D01*
X148374Y134914D02*
X148675D01*
X148324Y166909D02*
X148675D01*
X148374Y150304D02*
X148675D01*
X145982Y159079D02*
X147567D01*
X145987Y162319D02*
X147562D01*
X145968Y156784D02*
X147531D01*
X145968Y132484D02*
X147531D01*
X146070Y139504D02*
X147529D01*
X145972Y156514D02*
X147528D01*
X145972Y132214D02*
X147528D01*
X146020Y144904D02*
X147479D01*
X146121Y129109D02*
X147478D01*
X146037Y141799D02*
X147462D01*
X146037Y136399D02*
X147462D01*
X145998Y164209D02*
X147451D01*
X146150Y151519D02*
X147449D01*
X146071Y153409D02*
X147428D01*
X146073Y135589D02*
X147426D01*
X146177Y152869D02*
X147422D01*
X146200Y130459D02*
X147399D01*
X146102Y150979D02*
X147397D01*
X146126Y149629D02*
X147373D01*
X146230Y138154D02*
X147369D01*
X146088Y167584D02*
X147361D01*
X146149Y134239D02*
X147350D01*
X146150Y154759D02*
X147349D01*
X146171Y143149D02*
X147328D01*
X146171Y137749D02*
X147328D01*
X146180Y143554D02*
X147319D01*
X146138Y166234D02*
X147311D01*
X146199Y155164D02*
X147300D01*
X146199Y130864D02*
X147300D01*
X146200Y158134D02*
X147299D01*
X146200Y133834D02*
X147299D01*
X146258Y160969D02*
X147291D01*
X146259Y160429D02*
X147290D01*
X146218Y149224D02*
X147282D01*
X146218Y146524D02*
X147282D01*
X146225Y140179D02*
X147274D01*
X146226Y127219D02*
X147273D01*
X146190Y162859D02*
X147259D01*
X146241Y127489D02*
X147258D01*
X146348Y139369D02*
X147251D01*
X146250Y128704D02*
X147249D01*
X146263Y126004D02*
X147236D01*
X146264Y141394D02*
X147235D01*
X146366Y129244D02*
X147233D01*
X146270Y148009D02*
X147229D01*
X146270Y145309D02*
X147229D01*
X146225Y164479D02*
X147224D01*
X146377Y151654D02*
X147222D01*
X146327Y159214D02*
X147222D01*
X146328Y162184D02*
X147221D01*
X146284Y156919D02*
X147215D01*
X146284Y132619D02*
X147215D01*
X146285Y156379D02*
X147214D01*
X146285Y132079D02*
X147214D01*
X146389Y152734D02*
X147210D01*
X146241Y167989D02*
X147208D01*
X146298Y144769D02*
X147201D01*
X146250Y169204D02*
X147199D01*
X146400Y130324D02*
X147199D01*
X146303Y141934D02*
X147196D01*
X146303Y136534D02*
X147196D01*
X146264Y165694D02*
X147185D01*
X146414Y138289D02*
X147185D01*
X146316Y153544D02*
X147183D01*
X146316Y135454D02*
X147183D01*
X146328Y150844D02*
X147171D01*
X146338Y149764D02*
X147161D01*
X146292Y164074D02*
X147157D01*
X146349Y134374D02*
X147150D01*
X146350Y154624D02*
X147149D01*
X146360Y143014D02*
X147139D01*
X146360Y137614D02*
X147139D01*
X146364Y143689D02*
X147135D01*
X146322Y167449D02*
X147127D01*
X146374Y155299D02*
X147125D01*
X146374Y130999D02*
X147125D01*
X146375Y157999D02*
X147124D01*
X146375Y133699D02*
X147124D01*
X146429Y161104D02*
X147120D01*
X146430Y160294D02*
X147119D01*
X146480Y139234D02*
X147119D01*
X146384Y149089D02*
X147115D01*
X146384Y146389D02*
X147115D01*
X146388Y140314D02*
X147111D01*
X146389Y127084D02*
X147110D01*
X146490Y129379D02*
X147109D01*
X146344Y166369D02*
X147105D01*
X146397Y127624D02*
X147102D01*
X146497Y151789D02*
X147102D01*
X146402Y128569D02*
X147097D01*
X146504Y152599D02*
X147095D01*
X146410Y126139D02*
X147089D01*
X146410Y141259D02*
X147089D01*
X146511Y130189D02*
X147088D01*
X146414Y148144D02*
X147085D01*
X146414Y145444D02*
X147085D01*
X146468Y159349D02*
X147081D01*
X146468Y162049D02*
X147081D01*
X146369Y162994D02*
X147080D01*
X146520Y138424D02*
X147079D01*
X146422Y157054D02*
X147077D01*
X146422Y132754D02*
X147077D01*
X146422Y156244D02*
X147077D01*
X146422Y131944D02*
X147077D01*
X146430Y144634D02*
X147069D01*
X146433Y142069D02*
X147066D01*
X146433Y136669D02*
X147066D01*
X146388Y164614D02*
X147061D01*
X146440Y153679D02*
X147059D01*
X146441Y135319D02*
X147058D01*
X146397Y168124D02*
X147052D01*
X146448Y150709D02*
X147051D01*
X146402Y169069D02*
X147047D01*
X146454Y149899D02*
X147045D01*
X146560Y139099D02*
X147039D01*
X146410Y165559D02*
X147039D01*
X146460Y134509D02*
X147039D01*
X146461Y154489D02*
X147038D01*
X146566Y129514D02*
X147033D01*
X146467Y142879D02*
X147032D01*
X146467Y137479D02*
X147032D01*
X146470Y143824D02*
X147029D01*
X146570Y151924D02*
X147029D01*
X146574Y152464D02*
X147025D01*
X146476Y155434D02*
X147023D01*
X146476Y131134D02*
X147023D01*
X146426Y163939D02*
X147023D01*
X146476Y157864D02*
X147023D01*
X146476Y133564D02*
X147023D01*
X146578Y130054D02*
X147021D01*
X146529Y161239D02*
X147020D01*
X146529Y160159D02*
X147020D01*
X146482Y148954D02*
X147017D01*
X146482Y146254D02*
X147017D01*
X146584Y138559D02*
X147015D01*
X146484Y140449D02*
X147015D01*
X146485Y126949D02*
X147014D01*
X146490Y127759D02*
X147009D01*
X146493Y128434D02*
X147006D01*
X146444Y167314D02*
X147005D01*
X146497Y126274D02*
X147002D01*
X146498Y141124D02*
X147001D01*
X146500Y148279D02*
X146999D01*
X146500Y145579D02*
X146999D01*
X146552Y159484D02*
X146997D01*
X146553Y161914D02*
X146996D01*
X146505Y157189D02*
X146994D01*
X146505Y132889D02*
X146994D01*
X146505Y156109D02*
X146994D01*
X146505Y131809D02*
X146994D01*
X146606Y138964D02*
X146993D01*
X146457Y166504D02*
X146992D01*
X146609Y129649D02*
X146990D01*
X146510Y144499D02*
X146989D01*
X146611Y152059D02*
X146988D01*
X146512Y142204D02*
X146987D01*
X146512Y136804D02*
X146987D01*
X146613Y152329D02*
X146986D01*
X146615Y129919D02*
X146984D01*
X146516Y153814D02*
X146983D01*
X146516Y135184D02*
X146983D01*
X146617Y138694D02*
X146982D01*
X146520Y150574D02*
X146979D01*
X146473Y163129D02*
X146976D01*
X146624Y138829D02*
X146975D01*
X146524Y150034D02*
X146975D01*
X146624Y129784D02*
X146975D01*
X146624Y152194D02*
X146975D01*
X146528Y134644D02*
X146971D01*
X146528Y154354D02*
X146971D01*
X146532Y142744D02*
X146967D01*
X146532Y137344D02*
X146967D01*
X146534Y143959D02*
X146965D01*
X146484Y164749D02*
X146965D01*
X146537Y155569D02*
X146962D01*
X146537Y131269D02*
X146962D01*
X146537Y157729D02*
X146962D01*
X146537Y133429D02*
X146962D01*
X146589Y161374D02*
X146960D01*
X146589Y160024D02*
X146960D01*
X146490Y168259D02*
X146959D01*
X146540Y148819D02*
X146959D01*
X146540Y146119D02*
X146959D01*
X146542Y140584D02*
X146957D01*
X146542Y126814D02*
X146957D01*
X146493Y168934D02*
X146956D01*
X146545Y127894D02*
X146954D01*
X146546Y128299D02*
X146953D01*
X146498Y165424D02*
X146951D01*
X146549Y126409D02*
X146950D01*
X146549Y140989D02*
X146950D01*
X146550Y148414D02*
X146949D01*
X146550Y145714D02*
X146949D01*
X146602Y159619D02*
X146947D01*
X146602Y161779D02*
X146947D01*
X146553Y157324D02*
X146946D01*
X146553Y133024D02*
X146946D01*
X146553Y155974D02*
X146946D01*
X146553Y131674D02*
X146946D01*
X146556Y144364D02*
X146943D01*
X146557Y142339D02*
X146942D01*
X146557Y136939D02*
X146942D01*
X146507Y163804D02*
X146942D01*
X146559Y153949D02*
X146940D01*
X146559Y135049D02*
X146940D01*
X146561Y150439D02*
X146938D01*
X146563Y150169D02*
X146936D01*
X146564Y134779D02*
X146935D01*
X146565Y154219D02*
X146934D01*
X146566Y142609D02*
X146933D01*
X146566Y137209D02*
X146933D01*
X146567Y144094D02*
X146932D01*
X146568Y155704D02*
X146931D01*
X146568Y131404D02*
X146931D01*
X146568Y157594D02*
X146931D01*
X146568Y133294D02*
X146931D01*
X146518Y167179D02*
X146931D01*
X146619Y161509D02*
X146930D01*
X146619Y159889D02*
X146930D01*
X146570Y148684D02*
X146929D01*
X146570Y145984D02*
X146929D01*
X146570Y140719D02*
X146929D01*
X146570Y126679D02*
X146929D01*
X146571Y128029D02*
X146928D01*
X146572Y128164D02*
X146927D01*
X146572Y126544D02*
X146927D01*
X146572Y140854D02*
X146927D01*
X146573Y148549D02*
X146926D01*
X146573Y145849D02*
X146926D01*
X146623Y159754D02*
X146926D01*
X146623Y161644D02*
X146926D01*
X146573Y157459D02*
X146926D01*
X146573Y133159D02*
X146926D01*
X146573Y155839D02*
X146926D01*
X146573Y131539D02*
X146926D01*
X146574Y144229D02*
X146925D01*
X146574Y142474D02*
X146925D01*
X146574Y137074D02*
X146925D01*
X146574Y154084D02*
X146925D01*
X146574Y134914D02*
X146925D01*
X146574Y150304D02*
X146925D01*
X146526Y166639D02*
X146923D01*
X146535Y163264D02*
X146914D01*
X146542Y164884D02*
X146907D01*
X146545Y168394D02*
X146904D01*
X146546Y168799D02*
X146903D01*
X146549Y165289D02*
X146900D01*
X146554Y163669D02*
X146895D01*
X146560Y167044D02*
X146889D01*
X146564Y166774D02*
X146885D01*
X146568Y163399D02*
X146881D01*
X146570Y165019D02*
X146879D01*
X146571Y168529D02*
X146878D01*
X146572Y168664D02*
X146877D01*
X146572Y165154D02*
X146877D01*
X146574Y163534D02*
X146875D01*
X146574Y166909D02*
X146875D01*
X144182Y159079D02*
X145817D01*
X111393Y162319D02*
X145812D01*
X144168Y156784D02*
X145731D01*
X137255Y132484D02*
X145731D01*
X137201Y139504D02*
X145729D01*
X137316Y156514D02*
X145728D01*
X137129Y132214D02*
X145728D01*
X108187Y164209D02*
X145701D01*
X144220Y144904D02*
X145679D01*
X137560Y129109D02*
X145678D01*
X111639Y141799D02*
X145662D01*
X144237Y136399D02*
X145662D01*
X137717Y151519D02*
X145649D01*
X137284Y153409D02*
X145628D01*
X144273Y135589D02*
X145626D01*
X100625Y152869D02*
X145622D01*
X144288Y167584D02*
X145611D01*
X137075Y130459D02*
X145599D01*
X144302Y150979D02*
X145597D01*
X144326Y149629D02*
X145573D01*
X130379Y138154D02*
X145569D01*
X144338Y166234D02*
X145561D01*
X144349Y134239D02*
X145550D01*
X137134Y154759D02*
X145549D01*
X137024Y160969D02*
X145541D01*
X144459Y160429D02*
X145540D01*
X137075Y143149D02*
X145528D01*
X144371Y137749D02*
X145528D01*
X144380Y143554D02*
X145519D01*
X136999Y162859D02*
X145509D01*
X137319Y155164D02*
X145500D01*
X137224Y130864D02*
X145500D01*
X144400Y158134D02*
X145499D01*
X136668Y133834D02*
X145499D01*
X144418Y149224D02*
X145482D01*
X144418Y146524D02*
X145482D01*
X136804Y164479D02*
X145474D01*
X136826Y140179D02*
X145474D01*
X144426Y127219D02*
X145473D01*
X144527Y159214D02*
X145472D01*
X111271Y162184D02*
X145471D01*
X144441Y167989D02*
X145458D01*
X144441Y127489D02*
X145458D01*
X137272Y139369D02*
X145451D01*
X144450Y169204D02*
X145449D01*
X144450Y128704D02*
X145449D01*
X144463Y126004D02*
X145436D01*
X136507Y165694D02*
X145435D01*
X137028Y141394D02*
X145435D01*
X137382Y129244D02*
X145433D01*
X144470Y148009D02*
X145429D01*
X144470Y145309D02*
X145429D01*
X137651Y151654D02*
X145422D01*
X144484Y156919D02*
X145415D01*
X137274Y132619D02*
X145415D01*
X137240Y156379D02*
X145414D01*
X136997Y132079D02*
X145414D01*
X100625Y152734D02*
X145410D01*
X108194Y164074D02*
X145407D01*
X144498Y144769D02*
X145401D01*
X136941Y130324D02*
X145399D01*
X136668Y141934D02*
X145396D01*
X144503Y136534D02*
X145396D01*
X130479Y138289D02*
X145385D01*
X137317Y153544D02*
X145383D01*
X144516Y135454D02*
X145383D01*
X144522Y167449D02*
X145377D01*
X144528Y150844D02*
X145371D01*
X137008Y161104D02*
X145370D01*
X144630Y160294D02*
X145369D01*
X144538Y149764D02*
X145361D01*
X144544Y166369D02*
X145355D01*
X144549Y134374D02*
X145350D01*
X136966Y154624D02*
X145349D01*
X137176Y143014D02*
X145339D01*
X144560Y137614D02*
X145339D01*
X144564Y143689D02*
X145335D01*
X144668Y159349D02*
X145331D01*
X111511Y162049D02*
X145331D01*
X137022Y162994D02*
X145330D01*
X137323Y155299D02*
X145325D01*
X137218Y130999D02*
X145325D01*
X144575Y157999D02*
X145324D01*
X108190Y133699D02*
X145324D01*
X137312Y139234D02*
X145319D01*
X144584Y149089D02*
X145315D01*
X144584Y146389D02*
X145315D01*
X136914Y164614D02*
X145311D01*
X137038Y140314D02*
X145311D01*
X144589Y127084D02*
X145310D01*
X107635Y129379D02*
X145309D01*
X144597Y168124D02*
X145302D01*
X144597Y127624D02*
X145302D01*
X137541Y151789D02*
X145302D01*
X144602Y169069D02*
X145297D01*
X144602Y128569D02*
X145297D01*
X135407Y152599D02*
X145295D01*
X144610Y126139D02*
X145289D01*
X136760Y165559D02*
X145289D01*
X137148Y141259D02*
X145289D01*
X136645Y130189D02*
X145288D01*
X144614Y148144D02*
X145285D01*
X144614Y145444D02*
X145285D01*
X136863Y138424D02*
X145279D01*
X144622Y157054D02*
X145277D01*
X137267Y132754D02*
X145277D01*
X137116Y156244D02*
X145277D01*
X136717Y131944D02*
X145277D01*
X108182Y163939D02*
X145273D01*
X136964Y161239D02*
X145270D01*
X144729Y160159D02*
X145270D01*
X144630Y144634D02*
X145269D01*
X136984Y142069D02*
X145266D01*
X144633Y136669D02*
X145266D01*
X137324Y153679D02*
X145259D01*
X144641Y135319D02*
X145258D01*
X144644Y167314D02*
X145255D01*
X144648Y150709D02*
X145251D01*
X144752Y159484D02*
X145247D01*
X111727Y161914D02*
X145246D01*
X144654Y149899D02*
X145245D01*
X144657Y166504D02*
X145242D01*
X137325Y139099D02*
X145239D01*
X144660Y134509D02*
X145239D01*
X130634Y154489D02*
X145238D01*
X100625Y129514D02*
X145233D01*
X137237Y142879D02*
X145232D01*
X144667Y137479D02*
X145232D01*
X144670Y143824D02*
X145229D01*
X137345Y151924D02*
X145229D01*
X137020Y163129D02*
X145226D01*
X135556Y152464D02*
X145225D01*
X137301Y155434D02*
X145223D01*
X137185Y131134D02*
X145223D01*
X144676Y157864D02*
X145223D01*
X108193Y133564D02*
X145223D01*
X100625Y130054D02*
X145221D01*
X144682Y148954D02*
X145217D01*
X144682Y146254D02*
X145217D01*
X137083Y138559D02*
X145215D01*
X136980Y164749D02*
X145215D01*
X137154Y140449D02*
X145215D01*
X144685Y126949D02*
X145214D01*
X136887Y161374D02*
X145210D01*
X144789Y160024D02*
X145210D01*
X144690Y168259D02*
X145209D01*
X144690Y127759D02*
X145209D01*
X144693Y168934D02*
X145206D01*
X144693Y128434D02*
X145206D01*
X144697Y126274D02*
X145202D01*
X136887Y165424D02*
X145201D01*
X137220Y141124D02*
X145201D01*
X144700Y148279D02*
X145199D01*
X144700Y145579D02*
X145199D01*
X144802Y159619D02*
X145197D01*
X111822Y161779D02*
X145197D01*
X144705Y157189D02*
X145194D01*
X137234Y132889D02*
X145194D01*
X136871Y156109D02*
X145194D01*
X107825Y131809D02*
X145194D01*
X137312Y138964D02*
X145193D01*
X108149Y163804D02*
X145192D01*
X100625Y129649D02*
X145190D01*
X144710Y144499D02*
X145189D01*
X135722Y152059D02*
X145188D01*
X137122Y142204D02*
X145187D01*
X144712Y136804D02*
X145187D01*
X135645Y152329D02*
X145186D01*
X100625Y129919D02*
X145184D01*
X137306Y153814D02*
X145183D01*
X144716Y135184D02*
X145183D01*
X137201Y138694D02*
X145182D01*
X144718Y167179D02*
X145181D01*
X136760Y161509D02*
X145180D01*
X144819Y159889D02*
X145180D01*
X144720Y150574D02*
X145179D01*
X144823Y159754D02*
X145176D01*
X136507Y161644D02*
X145176D01*
X137272Y138829D02*
X145175D01*
X144724Y150034D02*
X145175D01*
X100625Y129784D02*
X145175D01*
X135698Y152194D02*
X145175D01*
X144726Y166639D02*
X145173D01*
X144728Y134644D02*
X145171D01*
X136770Y154354D02*
X145171D01*
X137268Y142744D02*
X145167D01*
X144732Y137344D02*
X145167D01*
X144734Y143959D02*
X145165D01*
X136992Y163264D02*
X145164D01*
X137250Y155569D02*
X145162D01*
X137123Y131269D02*
X145162D01*
X144737Y157729D02*
X145162D01*
X108177Y133429D02*
X145162D01*
X144740Y148819D02*
X145159D01*
X144740Y146119D02*
X145159D01*
X137015Y164884D02*
X145157D01*
X137224Y140584D02*
X145157D01*
X144742Y126814D02*
X145157D01*
X144745Y168394D02*
X145154D01*
X144745Y127894D02*
X145154D01*
X144746Y168799D02*
X145153D01*
X144746Y128299D02*
X145153D01*
X144749Y126409D02*
X145150D01*
X136964Y165289D02*
X145150D01*
X137261Y140989D02*
X145150D01*
X144750Y148414D02*
X145149D01*
X144750Y145714D02*
X145149D01*
X144753Y157324D02*
X145146D01*
X137170Y133024D02*
X145146D01*
X136622Y155974D02*
X145146D01*
X107970Y131674D02*
X145146D01*
X136676Y163669D02*
X145145D01*
X144756Y144364D02*
X145143D01*
X137205Y142339D02*
X145142D01*
X144757Y136939D02*
X145142D01*
X137260Y153949D02*
X145140D01*
X144759Y135049D02*
X145140D01*
X144760Y167044D02*
X145139D01*
X144761Y150439D02*
X145138D01*
X144763Y150169D02*
X145136D01*
X144764Y166774D02*
X145135D01*
X144764Y134779D02*
X145135D01*
X137048Y154219D02*
X145134D01*
X137273Y142609D02*
X145133D01*
X144766Y137209D02*
X145133D01*
X144767Y144094D02*
X145132D01*
X136935Y163399D02*
X145131D01*
X137164Y155704D02*
X145131D01*
X137020Y131404D02*
X145131D01*
X144768Y157594D02*
X145131D01*
X136881Y133294D02*
X145131D01*
X144770Y148684D02*
X145129D01*
X144770Y145984D02*
X145129D01*
X137024Y165019D02*
X145129D01*
X137263Y140719D02*
X145129D01*
X144770Y126679D02*
X145129D01*
X144771Y168529D02*
X145128D01*
X144771Y128029D02*
X145128D01*
X144772Y168664D02*
X145127D01*
X144772Y128164D02*
X145127D01*
X144772Y126544D02*
X145127D01*
X137008Y165154D02*
X145127D01*
X137274Y140854D02*
X145127D01*
X144773Y148549D02*
X145126D01*
X144773Y145849D02*
X145126D01*
X144773Y157459D02*
X145126D01*
X137065Y133159D02*
X145126D01*
X137021Y155839D02*
X145126D01*
X136841Y131539D02*
X145126D01*
X136839Y163534D02*
X145125D01*
X144774Y144229D02*
X145125D01*
X137253Y142474D02*
X145125D01*
X144774Y137074D02*
X145125D01*
X137180Y154084D02*
X145125D01*
X144774Y134914D02*
X145125D01*
X144774Y166909D02*
X145125D01*
X144774Y150304D02*
X145125D01*
X113086Y183109D02*
X144653D01*
X113226Y180949D02*
X144513D01*
X113356Y182974D02*
X144383D01*
X113436Y181084D02*
X144303D01*
X142746Y182839D02*
X144218D01*
X142895Y181219D02*
X144161D01*
X143018Y182704D02*
X144099D01*
X143090Y181354D02*
X144058D01*
X142432Y159079D02*
X144017D01*
X143164Y182569D02*
X144012D01*
X143210Y181489D02*
X143981D01*
X143259Y182434D02*
X143948D01*
X142418Y156784D02*
X143931D01*
X143290Y181624D02*
X143926D01*
X143322Y182299D02*
X143903D01*
X143341Y181759D02*
X143889D01*
X142470Y144904D02*
X143879D01*
X143359Y182164D02*
X143876D01*
X143368Y181894D02*
X143869D01*
X143374Y182029D02*
X143865D01*
X142487Y136399D02*
X143862D01*
X142523Y135589D02*
X143826D01*
X142538Y167584D02*
X143811D01*
X142552Y150979D02*
X143797D01*
X142576Y149629D02*
X143773D01*
X142588Y166234D02*
X143761D01*
X142599Y134239D02*
X143750D01*
X142709Y160429D02*
X143740D01*
X142621Y137749D02*
X143728D01*
X142630Y143554D02*
X143719D01*
X142650Y158134D02*
X143699D01*
X142668Y149224D02*
X143682D01*
X142668Y146524D02*
X143682D01*
X142676Y127219D02*
X143673D01*
X142777Y159214D02*
X143672D01*
X142691Y167989D02*
X143658D01*
X142691Y127489D02*
X143658D01*
X142700Y169204D02*
X143649D01*
X142700Y128704D02*
X143649D01*
X142713Y126004D02*
X143636D01*
X142720Y148009D02*
X143629D01*
X142720Y145309D02*
X143629D01*
X142734Y156919D02*
X143615D01*
X142748Y144769D02*
X143601D01*
X142753Y136534D02*
X143596D01*
X142766Y135454D02*
X143583D01*
X142772Y167449D02*
X143577D01*
X142778Y150844D02*
X143571D01*
X142880Y160294D02*
X143569D01*
X142788Y149764D02*
X143561D01*
X142794Y166369D02*
X143555D01*
X142799Y134374D02*
X143550D01*
X142810Y137614D02*
X143539D01*
X142814Y143689D02*
X143535D01*
X142918Y159349D02*
X143531D01*
X142825Y157999D02*
X143524D01*
X142834Y149089D02*
X143515D01*
X142834Y146389D02*
X143515D01*
X142839Y127084D02*
X143510D01*
X142847Y168124D02*
X143502D01*
X142847Y127624D02*
X143502D01*
X142852Y169069D02*
X143497D01*
X142852Y128569D02*
X143497D01*
X142860Y126139D02*
X143489D01*
X142864Y148144D02*
X143485D01*
X142864Y145444D02*
X143485D01*
X142872Y157054D02*
X143477D01*
X142979Y160159D02*
X143470D01*
X142880Y144634D02*
X143469D01*
X142883Y136669D02*
X143466D01*
X142891Y135319D02*
X143458D01*
X142894Y167314D02*
X143455D01*
X142898Y150709D02*
X143451D01*
X143002Y159484D02*
X143447D01*
X142904Y149899D02*
X143445D01*
X142907Y166504D02*
X143442D01*
X142910Y134509D02*
X143439D01*
X142917Y137479D02*
X143432D01*
X142920Y143824D02*
X143429D01*
X142926Y157864D02*
X143423D01*
X142932Y148954D02*
X143417D01*
X142932Y146254D02*
X143417D01*
X142935Y126949D02*
X143414D01*
X143039Y160024D02*
X143410D01*
X142940Y168259D02*
X143409D01*
X142940Y127759D02*
X143409D01*
X142943Y168934D02*
X143406D01*
X142943Y128434D02*
X143406D01*
X142947Y126274D02*
X143402D01*
X142950Y148279D02*
X143399D01*
X142950Y145579D02*
X143399D01*
X143052Y159619D02*
X143397D01*
X142955Y157189D02*
X143394D01*
X142960Y144499D02*
X143389D01*
X142962Y136804D02*
X143387D01*
X142966Y135184D02*
X143383D01*
X142968Y167179D02*
X143381D01*
X143069Y159889D02*
X143380D01*
X142970Y150574D02*
X143379D01*
X143073Y159754D02*
X143376D01*
X142974Y150034D02*
X143375D01*
X142976Y166639D02*
X143373D01*
X142978Y134644D02*
X143371D01*
X142982Y137344D02*
X143367D01*
X142984Y143959D02*
X143365D01*
X142987Y157729D02*
X143362D01*
X142990Y148819D02*
X143359D01*
X142990Y146119D02*
X143359D01*
X142992Y126814D02*
X143357D01*
X142995Y168394D02*
X143354D01*
X142995Y127894D02*
X143354D01*
X142996Y168799D02*
X143353D01*
X142996Y128299D02*
X143353D01*
X142999Y126409D02*
X143350D01*
X143000Y148414D02*
X143349D01*
X143000Y145714D02*
X143349D01*
X143003Y157324D02*
X143346D01*
X143006Y144364D02*
X143343D01*
X143007Y136939D02*
X143342D01*
X143009Y135049D02*
X143340D01*
X143010Y167044D02*
X143339D01*
X143011Y150439D02*
X143338D01*
X143013Y150169D02*
X143336D01*
X143014Y166774D02*
X143335D01*
X143014Y134779D02*
X143335D01*
X143016Y137209D02*
X143333D01*
X143017Y144094D02*
X143332D01*
X143018Y157594D02*
X143331D01*
X143020Y148684D02*
X143329D01*
X143020Y145984D02*
X143329D01*
X143020Y126679D02*
X143329D01*
X143021Y168529D02*
X143328D01*
X143021Y128029D02*
X143328D01*
X143022Y168664D02*
X143327D01*
X143022Y128164D02*
X143327D01*
X143022Y126544D02*
X143327D01*
X143023Y148549D02*
X143326D01*
X143023Y145849D02*
X143326D01*
X143023Y157459D02*
X143326D01*
X143024Y144229D02*
X143325D01*
X143024Y137074D02*
X143325D01*
X143024Y134914D02*
X143325D01*
X143024Y166909D02*
X143325D01*
X143024Y150304D02*
X143325D01*
X140632Y159079D02*
X142267D01*
X120566Y182839D02*
X142253D01*
X140618Y156784D02*
X142181D01*
X140670Y144904D02*
X142129D01*
X140687Y136399D02*
X142112D01*
X120715Y181219D02*
X142104D01*
X140723Y135589D02*
X142076D01*
X140738Y167584D02*
X142061D01*
X140752Y150979D02*
X142047D01*
X140776Y149629D02*
X142023D01*
X140788Y166234D02*
X142011D01*
X140799Y134239D02*
X142000D01*
X140909Y160429D02*
X141990D01*
X120838Y182704D02*
X141981D01*
X140821Y137749D02*
X141978D01*
X140830Y143554D02*
X141969D01*
X140850Y158134D02*
X141949D01*
X140868Y149224D02*
X141932D01*
X140868Y146524D02*
X141932D01*
X140876Y127219D02*
X141923D01*
X140977Y159214D02*
X141922D01*
X120910Y181354D02*
X141909D01*
X140891Y167989D02*
X141908D01*
X140891Y127489D02*
X141908D01*
X140900Y169204D02*
X141899D01*
X140900Y128704D02*
X141899D01*
X140913Y126004D02*
X141886D01*
X140920Y148009D02*
X141879D01*
X140920Y145309D02*
X141879D01*
X140934Y156919D02*
X141865D01*
X140948Y144769D02*
X141851D01*
X140953Y136534D02*
X141846D01*
X120984Y182569D02*
X141835D01*
X140966Y135454D02*
X141833D01*
X140972Y167449D02*
X141827D01*
X140978Y150844D02*
X141821D01*
X141080Y160294D02*
X141819D01*
X140988Y149764D02*
X141811D01*
X140994Y166369D02*
X141805D01*
X140999Y134374D02*
X141800D01*
X141010Y137614D02*
X141789D01*
X121030Y181489D02*
X141789D01*
X141014Y143689D02*
X141785D01*
X141118Y159349D02*
X141781D01*
X141025Y157999D02*
X141774D01*
X141034Y149089D02*
X141765D01*
X141034Y146389D02*
X141765D01*
X141039Y127084D02*
X141760D01*
X141047Y168124D02*
X141752D01*
X141047Y127624D02*
X141752D01*
X141052Y169069D02*
X141747D01*
X141052Y128569D02*
X141747D01*
X121079Y182434D02*
X141740D01*
X141060Y126139D02*
X141739D01*
X141064Y148144D02*
X141735D01*
X141064Y145444D02*
X141735D01*
X141072Y157054D02*
X141727D01*
X141179Y160159D02*
X141720D01*
X141080Y144634D02*
X141719D01*
X141083Y136669D02*
X141716D01*
X121110Y181624D02*
X141709D01*
X141091Y135319D02*
X141708D01*
X141094Y167314D02*
X141705D01*
X141098Y150709D02*
X141701D01*
X141202Y159484D02*
X141697D01*
X141104Y149899D02*
X141695D01*
X141107Y166504D02*
X141692D01*
X141110Y134509D02*
X141689D01*
X141117Y137479D02*
X141682D01*
X141120Y143824D02*
X141679D01*
X121142Y182299D02*
X141677D01*
X141126Y157864D02*
X141673D01*
X141132Y148954D02*
X141667D01*
X141132Y146254D02*
X141667D01*
X141135Y126949D02*
X141664D01*
X141239Y160024D02*
X141660D01*
X141140Y168259D02*
X141659D01*
X141140Y127759D02*
X141659D01*
X121161Y181759D02*
X141658D01*
X141143Y168934D02*
X141656D01*
X141143Y128434D02*
X141656D01*
X141147Y126274D02*
X141652D01*
X141150Y148279D02*
X141649D01*
X141150Y145579D02*
X141649D01*
X141252Y159619D02*
X141647D01*
X141155Y157189D02*
X141644D01*
X121179Y182164D02*
X141640D01*
X141160Y144499D02*
X141639D01*
X141162Y136804D02*
X141637D01*
X141166Y135184D02*
X141633D01*
X121188Y181894D02*
X141631D01*
X141168Y167179D02*
X141631D01*
X141269Y159889D02*
X141630D01*
X141170Y150574D02*
X141629D01*
X141273Y159754D02*
X141626D01*
X121194Y182029D02*
X141625D01*
X141174Y150034D02*
X141625D01*
X141176Y166639D02*
X141623D01*
X141178Y134644D02*
X141621D01*
X141182Y137344D02*
X141617D01*
X141184Y143959D02*
X141615D01*
X141187Y157729D02*
X141612D01*
X141190Y148819D02*
X141609D01*
X141190Y146119D02*
X141609D01*
X141192Y126814D02*
X141607D01*
X141195Y168394D02*
X141604D01*
X141195Y127894D02*
X141604D01*
X141196Y168799D02*
X141603D01*
X141196Y128299D02*
X141603D01*
X141199Y126409D02*
X141600D01*
X141200Y148414D02*
X141599D01*
X141200Y145714D02*
X141599D01*
X141203Y157324D02*
X141596D01*
X141206Y144364D02*
X141593D01*
X141207Y136939D02*
X141592D01*
X141209Y135049D02*
X141590D01*
X141210Y167044D02*
X141589D01*
X141211Y150439D02*
X141588D01*
X141213Y150169D02*
X141586D01*
X141214Y166774D02*
X141585D01*
X141214Y134779D02*
X141585D01*
X141216Y137209D02*
X141583D01*
X141217Y144094D02*
X141582D01*
X141218Y157594D02*
X141581D01*
X141220Y148684D02*
X141579D01*
X141220Y145984D02*
X141579D01*
X141220Y126679D02*
X141579D01*
X141221Y168529D02*
X141578D01*
X141221Y128029D02*
X141578D01*
X141222Y168664D02*
X141577D01*
X141222Y128164D02*
X141577D01*
X141222Y126544D02*
X141577D01*
X141223Y148549D02*
X141576D01*
X141223Y145849D02*
X141576D01*
X141223Y157459D02*
X141576D01*
X141224Y144229D02*
X141575D01*
X141224Y137074D02*
X141575D01*
X141224Y134914D02*
X141575D01*
X141224Y166909D02*
X141575D01*
X141224Y150304D02*
X141575D01*
X112968Y159079D02*
X140467D01*
X137374Y156784D02*
X140381D01*
X138857Y144904D02*
X140329D01*
X135675Y136399D02*
X140312D01*
X137759Y135589D02*
X140276D01*
X138250Y167584D02*
X140261D01*
X137703Y150979D02*
X140247D01*
X114518Y149629D02*
X140223D01*
X138018Y166234D02*
X140211D01*
X137205Y134239D02*
X140200D01*
X136804Y160429D02*
X140190D01*
X120335Y137749D02*
X140178D01*
X116701Y143554D02*
X140169D01*
X137729Y158134D02*
X140149D01*
X129598Y149224D02*
X140132D01*
X129570Y146524D02*
X140132D01*
X100625Y127219D02*
X140123D01*
X112929Y159214D02*
X140122D01*
X107271Y167989D02*
X140108D01*
X100625Y127489D02*
X140108D01*
X138557Y169204D02*
X140099D01*
X137756Y128704D02*
X140099D01*
X108194Y126004D02*
X140086D01*
X117217Y148009D02*
X140079D01*
X138348Y145309D02*
X140079D01*
X137365Y156919D02*
X140065D01*
X138904Y144769D02*
X140051D01*
X135662Y136534D02*
X140046D01*
X137760Y135454D02*
X140033D01*
X138425Y167449D02*
X140027D01*
X137626Y150844D02*
X140021D01*
X136610Y160294D02*
X140019D01*
X129386Y149764D02*
X140011D01*
X138334Y166369D02*
X140005D01*
X137253Y134374D02*
X140000D01*
X120371Y137614D02*
X139989D01*
X116637Y143689D02*
X139985D01*
X112841Y159349D02*
X139981D01*
X137671Y157999D02*
X139974D01*
X129649Y149089D02*
X139965D01*
X129464Y146389D02*
X139965D01*
X100625Y127084D02*
X139960D01*
X107255Y168124D02*
X139952D01*
X107459Y127624D02*
X139952D01*
X138604Y169069D02*
X139947D01*
X137762Y128569D02*
X139947D01*
X108182Y126139D02*
X139939D01*
X117223Y148144D02*
X139935D01*
X129814Y145444D02*
X139935D01*
X137328Y157054D02*
X139927D01*
X100625Y160159D02*
X139920D01*
X138924Y144634D02*
X139919D01*
X135622Y136669D02*
X139916D01*
X137735Y135319D02*
X139908D01*
X138526Y167314D02*
X139905D01*
X137500Y150709D02*
X139901D01*
X112651Y159484D02*
X139897D01*
X129621Y149899D02*
X139895D01*
X138472Y166504D02*
X139892D01*
X137273Y134509D02*
X139889D01*
X120370Y137479D02*
X139882D01*
X117257Y143824D02*
X139879D01*
X137574Y157864D02*
X139873D01*
X129672Y148954D02*
X139867D01*
X129280Y146254D02*
X139867D01*
X100625Y126949D02*
X139864D01*
X100625Y160024D02*
X139860D01*
X138240Y168259D02*
X139859D01*
X107782Y127759D02*
X139859D01*
X138624Y168934D02*
X139856D01*
X137742Y128434D02*
X139856D01*
X108150Y126274D02*
X139852D01*
X129325Y148279D02*
X139849D01*
X129740Y145579D02*
X139849D01*
X107965Y159619D02*
X139847D01*
X137261Y157189D02*
X139844D01*
X138918Y144499D02*
X139839D01*
X135551Y136804D02*
X139837D01*
X137681Y135184D02*
X139833D01*
X138587Y167179D02*
X139831D01*
X107556Y159889D02*
X139830D01*
X137249Y150574D02*
X139829D01*
X107818Y159754D02*
X139826D01*
X129744Y150034D02*
X139825D01*
X138555Y166639D02*
X139823D01*
X137268Y134644D02*
X139821D01*
X120333Y137344D02*
X139817D01*
X138540Y143959D02*
X139815D01*
X137409Y157729D02*
X139812D01*
X129670Y148819D02*
X139809D01*
X114671Y146119D02*
X139809D01*
X107689Y126814D02*
X139807D01*
X138419Y168394D02*
X139804D01*
X137172Y127894D02*
X139804D01*
X138618Y168799D02*
X139803D01*
X137694Y128299D02*
X139803D01*
X108094Y126409D02*
X139800D01*
X129488Y148414D02*
X139799D01*
X129618Y145714D02*
X139799D01*
X137150Y157324D02*
X139796D01*
X138885Y144364D02*
X139793D01*
X135434Y136939D02*
X139792D01*
X137590Y135049D02*
X139790D01*
X138618Y167044D02*
X139789D01*
X129874Y150439D02*
X139788D01*
X129818Y150169D02*
X139786D01*
X138603Y166774D02*
X139785D01*
X137237Y134779D02*
X139785D01*
X129425Y137209D02*
X139783D01*
X138719Y144094D02*
X139782D01*
X115414Y157594D02*
X139781D01*
X129642Y148684D02*
X139779D01*
X114577Y145984D02*
X139779D01*
X107886Y126679D02*
X139779D01*
X138523Y168529D02*
X139778D01*
X137476Y128029D02*
X139778D01*
X138585Y168664D02*
X139777D01*
X137612Y128164D02*
X139777D01*
X108010Y126544D02*
X139777D01*
X129584Y148549D02*
X139776D01*
X129386Y145849D02*
X139776D01*
X136950Y157459D02*
X139776D01*
X138823Y144229D02*
X139775D01*
X135215Y137074D02*
X139775D01*
X137438Y134914D02*
X139775D01*
X138623Y166909D02*
X139775D01*
X129860Y150304D02*
X139775D01*
X136648Y145309D02*
X138051D01*
X136840Y143959D02*
X137859D01*
X136368Y166234D02*
X137781D01*
X136942Y145174D02*
X137757D01*
X136398Y169609D02*
X137751D01*
X137019Y144094D02*
X137680D01*
X137076Y145039D02*
X137623D01*
X137123Y144229D02*
X137576D01*
X136590Y168259D02*
X137559D01*
X136600Y167584D02*
X137549D01*
X137157Y144904D02*
X137542D01*
X137185Y144364D02*
X137514D01*
X137204Y144769D02*
X137495D01*
X137218Y144499D02*
X137481D01*
X137224Y144634D02*
X137475D01*
X136684Y166369D02*
X137465D01*
X136692Y169474D02*
X137457D01*
X136769Y168394D02*
X137380D01*
X136775Y167449D02*
X137374D01*
X136822Y166504D02*
X137327D01*
X136826Y169339D02*
X137323D01*
X136873Y168529D02*
X137276D01*
X136876Y167314D02*
X137273D01*
X136905Y166639D02*
X137244D01*
X136907Y169204D02*
X137242D01*
X136935Y168664D02*
X137214D01*
X136937Y167179D02*
X137212D01*
X136953Y166774D02*
X137196D01*
X136954Y169069D02*
X137195D01*
X136968Y168799D02*
X137181D01*
X136968Y167044D02*
X137181D01*
X136973Y166909D02*
X137176D01*
X136974Y168934D02*
X137175D01*
X107942Y127894D02*
X136903D01*
X129864Y150574D02*
X136826D01*
X135721Y151924D02*
X136730D01*
X107857Y129244D02*
X136693D01*
X115424Y157729D02*
X136666D01*
X135622Y136129D02*
X136647D01*
X129629Y158944D02*
X136620D01*
X108048Y128029D02*
X136599D01*
X134972Y155974D02*
X136577D01*
X129826Y150709D02*
X136575D01*
X135693Y151789D02*
X136534D01*
X107990Y129109D02*
X136515D01*
X115398Y157864D02*
X136501D01*
X135551Y135994D02*
X136490D01*
X129773Y158809D02*
X136475D01*
X108119Y128164D02*
X136463D01*
X129758Y150844D02*
X136449D01*
X135068Y141934D02*
X136431D01*
X135068Y133834D02*
X136431D01*
X135120Y154354D02*
X136429D01*
X135171Y156109D02*
X136428D01*
X135637Y151654D02*
X136424D01*
X108081Y128974D02*
X136413D01*
X129509Y157999D02*
X136404D01*
X135433Y135859D02*
X136398D01*
X129845Y158674D02*
X136388D01*
X135117Y131944D02*
X136382D01*
X108165Y128299D02*
X136381D01*
X129645Y150979D02*
X136372D01*
X135543Y151519D02*
X136358D01*
X135045Y130189D02*
X136354D01*
X135048Y145309D02*
X136351D01*
X108141Y128839D02*
X136351D01*
X135250Y157459D02*
X136349D01*
X129727Y158134D02*
X136346D01*
X135213Y135724D02*
X136342D01*
X133437Y135319D02*
X136340D01*
X129873Y158539D02*
X136337D01*
X135263Y138424D02*
X136336D01*
X135265Y139774D02*
X136334D01*
X108190Y128434D02*
X136333D01*
X129439Y151114D02*
X136329D01*
X135383Y151384D02*
X136322D01*
X108178Y128704D02*
X136319D01*
X129821Y158269D02*
X136317D01*
X108005Y135589D02*
X136316D01*
X107880Y135454D02*
X136315D01*
X129866Y158404D02*
X136314D01*
X108194Y128569D02*
X136313D01*
X128622Y151249D02*
X136313D01*
X135202Y141529D02*
X136297D01*
X135226Y140179D02*
X136273D01*
X135280Y153004D02*
X136269D01*
X135316Y154624D02*
X136233D01*
X135281Y133294D02*
X136218D01*
X135300Y143284D02*
X136199D01*
X135300Y135184D02*
X136199D01*
X135416Y156244D02*
X136183D01*
X135371Y155839D02*
X136178D01*
X135240Y143959D02*
X136159D01*
X135241Y131539D02*
X136158D01*
X135398Y154219D02*
X136151D01*
X135450Y157324D02*
X136149D01*
X134768Y166234D02*
X136131D01*
X135483Y138559D02*
X136116D01*
X135484Y139639D02*
X136115D01*
X135384Y142069D02*
X136115D01*
X135384Y133969D02*
X136115D01*
X135397Y132079D02*
X136102D01*
X134798Y169609D02*
X136101D01*
X134907Y165694D02*
X136092D01*
X134907Y161644D02*
X136092D01*
X135464Y153139D02*
X136085D01*
X135428Y141394D02*
X136071D01*
X135484Y154759D02*
X136065D01*
X135438Y140314D02*
X136061D01*
X135540Y156379D02*
X136059D01*
X135341Y130324D02*
X136058D01*
X135342Y145174D02*
X136057D01*
X135561Y157189D02*
X136038D01*
X135514Y155704D02*
X136035D01*
X135465Y133159D02*
X136034D01*
X135475Y143149D02*
X136024D01*
X135475Y135049D02*
X136024D01*
X135530Y154084D02*
X136019D01*
X135601Y138694D02*
X135998D01*
X135601Y139504D02*
X135998D01*
X135010Y164344D02*
X135989D01*
X135010Y160294D02*
X135989D01*
X135616Y156514D02*
X135983D01*
X135419Y144094D02*
X135980D01*
X135570Y153274D02*
X135979D01*
X135420Y131404D02*
X135979D01*
X135522Y142204D02*
X135977D01*
X135522Y134104D02*
X135977D01*
X135628Y157054D02*
X135971D01*
X135529Y132214D02*
X135970D01*
X135581Y154894D02*
X135968D01*
X135548Y141259D02*
X135951D01*
X135600Y155569D02*
X135949D01*
X135554Y140449D02*
X135945D01*
X135659Y156649D02*
X135940D01*
X135610Y153949D02*
X135939D01*
X135665Y156919D02*
X135934D01*
X135570Y133024D02*
X135929D01*
X135672Y138829D02*
X135927D01*
X135672Y139369D02*
X135927D01*
X135674Y156784D02*
X135925D01*
X135475Y130459D02*
X135924D01*
X135076Y163669D02*
X135923D01*
X135476Y145039D02*
X135923D01*
X135576Y143014D02*
X135923D01*
X135576Y134914D02*
X135923D01*
X135634Y153409D02*
X135915D01*
X134990Y168259D02*
X135909D01*
X135640Y155029D02*
X135909D01*
X135000Y167584D02*
X135899D01*
X135651Y155434D02*
X135898D01*
X135605Y142339D02*
X135894D01*
X135605Y134239D02*
X135894D01*
X135656Y153814D02*
X135893D01*
X135609Y132349D02*
X135890D01*
X135712Y138964D02*
X135887D01*
X135712Y139234D02*
X135887D01*
X135113Y162454D02*
X135886D01*
X135667Y153544D02*
X135882D01*
X135669Y155164D02*
X135880D01*
X135620Y141124D02*
X135879D01*
X135523Y144229D02*
X135876D01*
X135673Y155299D02*
X135876D01*
X135523Y131269D02*
X135876D01*
X135674Y153679D02*
X135875D01*
X135624Y140584D02*
X135875D01*
X135725Y139099D02*
X135874D01*
X135634Y132889D02*
X135865D01*
X135637Y142879D02*
X135862D01*
X135637Y134779D02*
X135862D01*
X135653Y142474D02*
X135846D01*
X135653Y134374D02*
X135846D01*
X135655Y132484D02*
X135844D01*
X135557Y130594D02*
X135842D01*
X135557Y144904D02*
X135842D01*
X135160Y165559D02*
X135839D01*
X135160Y161509D02*
X135839D01*
X135661Y140989D02*
X135838D01*
X135663Y140719D02*
X135836D01*
X135667Y132754D02*
X135832D01*
X135668Y142744D02*
X135831D01*
X135668Y134644D02*
X135831D01*
X135673Y142609D02*
X135826D01*
X135673Y134509D02*
X135826D01*
X135674Y132619D02*
X135825D01*
X135674Y140854D02*
X135825D01*
X135084Y166369D02*
X135815D01*
X135585Y144364D02*
X135814D01*
X135585Y131134D02*
X135814D01*
X135092Y169474D02*
X135807D01*
X135604Y130729D02*
X135795D01*
X135204Y164479D02*
X135795D01*
X135204Y160429D02*
X135795D01*
X135604Y144769D02*
X135795D01*
X135618Y144499D02*
X135781D01*
X135618Y130999D02*
X135781D01*
X135624Y130864D02*
X135775D01*
X135624Y144634D02*
X135775D01*
X135239Y163534D02*
X135760D01*
X135260Y162589D02*
X135739D01*
X135169Y168394D02*
X135730D01*
X135175Y167449D02*
X135724D01*
X135287Y165424D02*
X135712D01*
X135287Y161374D02*
X135712D01*
X135314Y164614D02*
X135685D01*
X135314Y160564D02*
X135685D01*
X135222Y166504D02*
X135677D01*
X135226Y169339D02*
X135673D01*
X135335Y163399D02*
X135664D01*
X135347Y162724D02*
X135652D01*
X135364Y165289D02*
X135635D01*
X135364Y161239D02*
X135635D01*
X135273Y168529D02*
X135626D01*
X135276Y167314D02*
X135623D01*
X135380Y164749D02*
X135619D01*
X135380Y160699D02*
X135619D01*
X135392Y163264D02*
X135607D01*
X135399Y162859D02*
X135600D01*
X135305Y166639D02*
X135594D01*
X135307Y169204D02*
X135592D01*
X135408Y165154D02*
X135591D01*
X135408Y161104D02*
X135591D01*
X135415Y164884D02*
X135584D01*
X135415Y160834D02*
X135584D01*
X135420Y163129D02*
X135579D01*
X135422Y162994D02*
X135577D01*
X135424Y165019D02*
X135575D01*
X135424Y160969D02*
X135575D01*
X135335Y168664D02*
X135564D01*
X135337Y167179D02*
X135562D01*
X135353Y166774D02*
X135546D01*
X135354Y169069D02*
X135545D01*
X135368Y168799D02*
X135531D01*
X135368Y167044D02*
X135531D01*
X135373Y166909D02*
X135526D01*
X135374Y168934D02*
X135525D01*
X133372Y155974D02*
X134927D01*
X133468Y141934D02*
X134831D01*
X108167Y133834D02*
X134831D01*
X107570Y131944D02*
X134782D01*
X133520Y154354D02*
X134779D01*
X107553Y130189D02*
X134754D01*
X133448Y145309D02*
X134751D01*
X130539Y138424D02*
X134736D01*
X116347Y139774D02*
X134734D01*
X133571Y156109D02*
X134728D01*
X133602Y141529D02*
X134697D01*
X133613Y135724D02*
X134686D01*
X133615Y137074D02*
X134684D01*
X133626Y140179D02*
X134673D01*
X133650Y157459D02*
X134649D01*
X133680Y153004D02*
X134619D01*
X108139Y133294D02*
X134618D01*
X133783Y151384D02*
X134616D01*
X133700Y143284D02*
X134599D01*
X133778Y135184D02*
X134599D01*
X133807Y152599D02*
X134592D01*
X133716Y154624D02*
X134583D01*
X133640Y143959D02*
X134559D01*
X108066Y131539D02*
X134558D01*
X111658Y166234D02*
X134531D01*
X133771Y155839D02*
X134528D01*
X130569Y138559D02*
X134516D01*
X116227Y139639D02*
X134515D01*
X133784Y142069D02*
X134515D01*
X133708Y133969D02*
X134515D01*
X100625Y132079D02*
X134502D01*
X108083Y169609D02*
X134501D01*
X133798Y154219D02*
X134501D01*
X100625Y165694D02*
X134492D01*
X111866Y161644D02*
X134492D01*
X133816Y156244D02*
X134483D01*
X133828Y141394D02*
X134471D01*
X133833Y135859D02*
X134466D01*
X133834Y136939D02*
X134465D01*
X133838Y140314D02*
X134461D01*
X107817Y130324D02*
X134458D01*
X133742Y145174D02*
X134457D01*
X133943Y151519D02*
X134456D01*
X133850Y157324D02*
X134449D01*
X133956Y152464D02*
X134443D01*
X133864Y153139D02*
X134435D01*
X108077Y133159D02*
X134434D01*
X133875Y143149D02*
X134424D01*
X133918Y135049D02*
X134424D01*
X133884Y154759D02*
X134415D01*
X130573Y138694D02*
X134398D01*
X107708Y139504D02*
X134398D01*
X108159Y164344D02*
X134389D01*
X100625Y160294D02*
X134389D01*
X133914Y155704D02*
X134385D01*
X133819Y144094D02*
X134380D01*
X108132Y131404D02*
X134379D01*
X133922Y142204D02*
X134377D01*
X133879Y134104D02*
X134377D01*
X100625Y132214D02*
X134370D01*
X133930Y154084D02*
X134369D01*
X134037Y151654D02*
X134362D01*
X133940Y156379D02*
X134359D01*
X134045Y152329D02*
X134354D01*
X133948Y141259D02*
X134351D01*
X133951Y135994D02*
X134348D01*
X133951Y136804D02*
X134348D01*
X133954Y140449D02*
X134345D01*
X133961Y157189D02*
X134338D01*
X133970Y153274D02*
X134329D01*
X107986Y133024D02*
X134329D01*
X130552Y138829D02*
X134327D01*
X129937Y139369D02*
X134327D01*
X107965Y130459D02*
X134324D01*
X108093Y163669D02*
X134323D01*
X133876Y145039D02*
X134323D01*
X133976Y143014D02*
X134323D01*
X134003Y134914D02*
X134323D01*
X133981Y154894D02*
X134318D01*
X107434Y168259D02*
X134309D01*
X134093Y151789D02*
X134306D01*
X134098Y152194D02*
X134301D01*
X107235Y167584D02*
X134299D01*
X134000Y155569D02*
X134299D01*
X134005Y142339D02*
X134294D01*
X133979Y134239D02*
X134294D01*
X100625Y132349D02*
X134290D01*
X134010Y153949D02*
X134289D01*
X130503Y138964D02*
X134287D01*
X130278Y139234D02*
X134287D01*
X111454Y162454D02*
X134286D01*
X134016Y156514D02*
X134283D01*
X134020Y141124D02*
X134279D01*
X134121Y151924D02*
X134278D01*
X134122Y152059D02*
X134277D01*
X134022Y136129D02*
X134277D01*
X134022Y136669D02*
X134277D01*
X133923Y144229D02*
X134276D01*
X108173Y131269D02*
X134276D01*
X134024Y140584D02*
X134275D01*
X130418Y139099D02*
X134274D01*
X134028Y157054D02*
X134271D01*
X134034Y153409D02*
X134265D01*
X107850Y132889D02*
X134265D01*
X134037Y142879D02*
X134262D01*
X134052Y134779D02*
X134262D01*
X134040Y155029D02*
X134259D01*
X134051Y155434D02*
X134248D01*
X134053Y142474D02*
X134246D01*
X134039Y134374D02*
X134246D01*
X100625Y132484D02*
X134244D01*
X134056Y153814D02*
X134243D01*
X108063Y130594D02*
X134242D01*
X133957Y144904D02*
X134242D01*
X134059Y156649D02*
X134240D01*
X100625Y165559D02*
X134239D01*
X111873Y161509D02*
X134239D01*
X134061Y140989D02*
X134238D01*
X134062Y136264D02*
X134237D01*
X134062Y136534D02*
X134237D01*
X134063Y140719D02*
X134236D01*
X134065Y156919D02*
X134234D01*
X134067Y153544D02*
X134232D01*
X107622Y132754D02*
X134232D01*
X134068Y142744D02*
X134231D01*
X134073Y134644D02*
X134231D01*
X134069Y155164D02*
X134230D01*
X134073Y155299D02*
X134226D01*
X134073Y142609D02*
X134226D01*
X134069Y134509D02*
X134226D01*
X100625Y132619D02*
X134225D01*
X134074Y153679D02*
X134225D01*
X134074Y156784D02*
X134225D01*
X134074Y140854D02*
X134225D01*
X134075Y136399D02*
X134224D01*
X111752Y166369D02*
X134215D01*
X133985Y144364D02*
X134214D01*
X108192Y131134D02*
X134214D01*
X108143Y169474D02*
X134207D01*
X108130Y130729D02*
X134195D01*
X108108Y164479D02*
X134195D01*
X100625Y160429D02*
X134195D01*
X134004Y144769D02*
X134195D01*
X134018Y144499D02*
X134181D01*
X108192Y130999D02*
X134181D01*
X108171Y130864D02*
X134175D01*
X134024Y144634D02*
X134175D01*
X108009Y163534D02*
X134160D01*
X111474Y162589D02*
X134139D01*
X107774Y168394D02*
X134130D01*
X107698Y167449D02*
X134124D01*
X100625Y165424D02*
X134112D01*
X111844Y161374D02*
X134112D01*
X108031Y164614D02*
X134085D01*
X100625Y160564D02*
X134085D01*
X111797Y166504D02*
X134077D01*
X108179Y169339D02*
X134073D01*
X107885Y163399D02*
X134064D01*
X111459Y162724D02*
X134052D01*
X100625Y165289D02*
X134035D01*
X111773Y161239D02*
X134035D01*
X107937Y168529D02*
X134026D01*
X107891Y167314D02*
X134023D01*
X107918Y164749D02*
X134019D01*
X107634Y160699D02*
X134019D01*
X107687Y163264D02*
X134007D01*
X111406Y162859D02*
X134000D01*
X111804Y166639D02*
X133994D01*
X108194Y169204D02*
X133992D01*
X100625Y165154D02*
X133991D01*
X111628Y161104D02*
X133991D01*
X107743Y164884D02*
X133984D01*
X107856Y160834D02*
X133984D01*
X100625Y163129D02*
X133979D01*
X111296Y162994D02*
X133977D01*
X100625Y165019D02*
X133975D01*
X107990Y160969D02*
X133975D01*
X108044Y168664D02*
X133964D01*
X108013Y167179D02*
X133962D01*
X111776Y166774D02*
X133946D01*
X108189Y169069D02*
X133945D01*
X108117Y168799D02*
X133931D01*
X111560Y167044D02*
X133931D01*
X111704Y166909D02*
X133926D01*
X108164Y168934D02*
X133925D01*
X108051Y155974D02*
X133327D01*
X107677Y135319D02*
X133262D01*
X111753Y141934D02*
X133231D01*
X130751Y154354D02*
X133179D01*
X129855Y145309D02*
X133151D01*
X108121Y156109D02*
X133128D01*
X111358Y141529D02*
X133097D01*
X110957Y135724D02*
X133086D01*
X129667Y137074D02*
X133084D01*
X125922Y140179D02*
X133073D01*
X115366Y157459D02*
X133049D01*
X122578Y153004D02*
X133019D01*
X128388Y151384D02*
X133016D01*
X128805Y143284D02*
X132999D01*
X100625Y152599D02*
X132992D01*
X118733Y133969D02*
X132991D01*
X130415Y154624D02*
X132983D01*
X117387Y143959D02*
X132959D01*
X107946Y155839D02*
X132928D01*
X100625Y135184D02*
X132921D01*
X111808Y142069D02*
X132915D01*
X130822Y154219D02*
X132901D01*
X108167Y156244D02*
X132883D01*
X111437Y141394D02*
X132871D01*
X111087Y135859D02*
X132866D01*
X129767Y136939D02*
X132865D01*
X126019Y140314D02*
X132861D01*
X129869Y145174D02*
X132857D01*
X119370Y151519D02*
X132856D01*
X115267Y157324D02*
X132849D01*
X100625Y152464D02*
X132843D01*
X122723Y153139D02*
X132835D01*
X128895Y143149D02*
X132824D01*
X118903Y134104D02*
X132820D01*
X127917Y154759D02*
X132815D01*
X107789Y155704D02*
X132785D01*
X100625Y135049D02*
X132781D01*
X128389Y144094D02*
X132780D01*
X128635Y142204D02*
X132777D01*
X130862Y154084D02*
X132769D01*
X119333Y151654D02*
X132762D01*
X108190Y156379D02*
X132759D01*
X100625Y152329D02*
X132754D01*
X111471Y141259D02*
X132751D01*
X111151Y135994D02*
X132748D01*
X129814Y136804D02*
X132748D01*
X126065Y140449D02*
X132745D01*
X115023Y157189D02*
X132738D01*
X130413Y153274D02*
X132729D01*
X129858Y145039D02*
X132723D01*
X128948Y143014D02*
X132723D01*
X118985Y134239D02*
X132720D01*
X127923Y154894D02*
X132718D01*
X119250Y151789D02*
X132706D01*
X107726Y152194D02*
X132701D01*
X107482Y155569D02*
X132699D01*
X118724Y134914D02*
X132696D01*
X128793Y142339D02*
X132694D01*
X130875Y153949D02*
X132689D01*
X108193Y156514D02*
X132683D01*
X111469Y141124D02*
X132679D01*
X119074Y151924D02*
X132678D01*
X107908Y152059D02*
X132677D01*
X111174Y136129D02*
X132677D01*
X129824Y136669D02*
X132677D01*
X128604Y144229D02*
X132676D01*
X126073Y140584D02*
X132675D01*
X107986Y157054D02*
X132671D01*
X130633Y153409D02*
X132665D01*
X128972Y142879D02*
X132662D01*
X119020Y134374D02*
X132660D01*
X127893Y155029D02*
X132659D01*
X100625Y155434D02*
X132648D01*
X118900Y134779D02*
X132647D01*
X128888Y142474D02*
X132646D01*
X130862Y153814D02*
X132643D01*
X129821Y144904D02*
X132642D01*
X108177Y156649D02*
X132640D01*
X125836Y140989D02*
X132638D01*
X129593Y136264D02*
X132637D01*
X129798Y136534D02*
X132637D01*
X126046Y140719D02*
X132636D01*
X108078Y156919D02*
X132634D01*
X130751Y153544D02*
X132632D01*
X128971Y142744D02*
X132631D01*
X119020Y134509D02*
X132630D01*
X127820Y155164D02*
X132630D01*
X127670Y155299D02*
X132626D01*
X118983Y134644D02*
X132626D01*
X128944Y142609D02*
X132626D01*
X130822Y153679D02*
X132625D01*
X108139Y156784D02*
X132625D01*
X125977Y140854D02*
X132625D01*
X129730Y136399D02*
X132624D01*
X128721Y144364D02*
X132614D01*
X129752Y144769D02*
X132595D01*
X129430Y144499D02*
X132581D01*
X129638Y144634D02*
X132575D01*
X129387Y175819D02*
X130212D01*
X129658Y174469D02*
X129941D01*
X122794Y153274D02*
X129886D01*
X127874Y154624D02*
X129884D01*
X129728Y175684D02*
X129871D01*
X119924Y139369D02*
X129762D01*
X122823Y153409D02*
X129666D01*
X127781Y154489D02*
X129665D01*
X122816Y153544D02*
X129548D01*
X127574Y154354D02*
X129548D01*
X120084Y138019D02*
X129491D01*
X122772Y153679D02*
X129477D01*
X124258Y154219D02*
X129477D01*
X122677Y153814D02*
X129437D01*
X124093Y154084D02*
X129437D01*
X122461Y153949D02*
X129424D01*
X120207Y139234D02*
X129421D01*
X108024Y138154D02*
X129320D01*
X120311Y139099D02*
X129281D01*
X108103Y138289D02*
X129220D01*
X104841Y175819D02*
X129212D01*
X120362Y138964D02*
X129196D01*
X128209Y157999D02*
X129190D01*
X128175Y137209D02*
X129174D01*
X120157Y138424D02*
X129160D01*
X120374Y138829D02*
X129147D01*
X120287Y138559D02*
X129130D01*
X120351Y138694D02*
X129126D01*
X128329Y158944D02*
X129070D01*
X128343Y136264D02*
X129006D01*
X128427Y158134D02*
X128972D01*
X105048Y174469D02*
X128941D01*
X128417Y137074D02*
X128932D01*
X128473Y158809D02*
X128926D01*
X114479Y149764D02*
X128913D01*
X114359Y145849D02*
X128903D01*
X128521Y158269D02*
X128878D01*
X104954Y175684D02*
X128871D01*
X128480Y136399D02*
X128869D01*
X128744Y151114D02*
X128860D01*
X128791Y144499D02*
X128859D01*
X128545Y158674D02*
X128854D01*
X128566Y158404D02*
X128833D01*
X128517Y136939D02*
X128832D01*
X128573Y158539D02*
X128826D01*
X128548Y136534D02*
X128801D01*
X128564Y136804D02*
X128785D01*
X116894Y147604D02*
X128779D01*
X128574Y136669D02*
X128775D01*
X105106Y174604D02*
X128770D01*
X105038Y175549D02*
X128731D01*
X114391Y149899D02*
X128678D01*
X107977Y145714D02*
X128671D01*
X105145Y174739D02*
X128670D01*
X105099Y175414D02*
X128646D01*
X114716Y146254D02*
X128619D01*
X105168Y174874D02*
X128610D01*
X105141Y175279D02*
X128597D01*
X105174Y175009D02*
X128580D01*
X105166Y175144D02*
X128576D01*
X117193Y148279D02*
X128574D01*
X128438Y150034D02*
X128555D01*
X107837Y145579D02*
X128549D01*
X114522Y149494D02*
X128535D01*
X117122Y147469D02*
X128501D01*
X128375Y145444D02*
X128475D01*
X114723Y146389D02*
X128435D01*
X117120Y148414D02*
X128411D01*
X114489Y149359D02*
X128389D01*
X117219Y147334D02*
X128369D01*
X114695Y146524D02*
X128329D01*
X116970Y148549D02*
X128315D01*
X114412Y149224D02*
X128301D01*
X117265Y147199D02*
X128289D01*
X117035Y146659D02*
X128265D01*
X112662Y148684D02*
X128257D01*
X114252Y149089D02*
X128250D01*
X117273Y147064D02*
X128243D01*
X117177Y146794D02*
X128232D01*
X112674Y148819D02*
X128229D01*
X112651Y148954D02*
X128227D01*
X117246Y146929D02*
X128225D01*
X120249Y137209D02*
X127924D01*
X119370Y151384D02*
X127911D01*
X115331Y157999D02*
X127890D01*
X111824Y142204D02*
X127865D01*
X114201Y150034D02*
X127861D01*
X107596Y145444D02*
X127860D01*
X117451Y144094D02*
X127846D01*
X116724Y143419D02*
X127844D01*
X112972Y158944D02*
X127770D01*
X111162Y136264D02*
X127756D01*
X111806Y142339D02*
X127706D01*
X116712Y143284D02*
X127694D01*
X120072Y137074D02*
X127682D01*
X119335Y151249D02*
X127677D01*
X115194Y158134D02*
X127672D01*
X113350Y150169D02*
X127655D01*
X100625Y145309D02*
X127637D01*
X117474Y144229D02*
X127631D01*
X112939Y158809D02*
X127626D01*
X111111Y136399D02*
X127619D01*
X111747Y142474D02*
X127611D01*
X116661Y143149D02*
X127604D01*
X111105Y136939D02*
X127582D01*
X107824Y158269D02*
X127578D01*
X111628Y142609D02*
X127555D01*
X119253Y151114D02*
X127555D01*
X112862Y158674D02*
X127554D01*
X116556Y143014D02*
X127551D01*
X111007Y136534D02*
X127551D01*
X113234Y150304D02*
X127542D01*
X110995Y136804D02*
X127535D01*
X107969Y158404D02*
X127533D01*
X100625Y142744D02*
X127528D01*
X116269Y142879D02*
X127527D01*
X112702Y158539D02*
X127526D01*
X110724Y136669D02*
X127525D01*
X115758Y145174D02*
X127518D01*
X117462Y144364D02*
X127514D01*
X119083Y150979D02*
X127481D01*
X100625Y150439D02*
X127473D01*
X115887Y145039D02*
X127446D01*
X117411Y144499D02*
X127444D01*
X113933Y150844D02*
X127439D01*
X113672Y150574D02*
X127435D01*
X113849Y150709D02*
X127425D01*
X115951Y144904D02*
X127406D01*
X117307Y144634D02*
X127405D01*
X117024Y144769D02*
X127393D01*
X124337Y154354D02*
X127226D01*
X100625Y155299D02*
X127129D01*
X124371Y154489D02*
X127018D01*
X100625Y155164D02*
X126979D01*
X124369Y154624D02*
X126925D01*
X124063Y155029D02*
X126906D01*
X124331Y154759D02*
X126882D01*
X124246Y154894D02*
X126876D01*
X116424Y140044D02*
X125407D01*
X111431Y140989D02*
X125263D01*
X116408Y140179D02*
X125177D01*
X111345Y140854D02*
X125122D01*
X116353Y140314D02*
X125080D01*
X111161Y140719D02*
X125053D01*
X116240Y140449D02*
X125034D01*
X107932Y140584D02*
X125026D01*
X100625Y155029D02*
X123636D01*
X118719Y154084D02*
X123606D01*
X118475Y154894D02*
X123453D01*
X118793Y154219D02*
X123441D01*
X118682Y154759D02*
X123368D01*
X118823Y154354D02*
X123362D01*
X118774Y154624D02*
X123330D01*
X118817Y154489D02*
X123328D01*
X121690Y153949D02*
X122138D01*
X100625Y153004D02*
X122021D01*
X121803Y153814D02*
X121922D01*
X121677Y153139D02*
X121876D01*
X121797Y153274D02*
X121805D01*
X120327Y153139D02*
X121022D01*
X120340Y153949D02*
X121009D01*
X120447Y153274D02*
X120902D01*
X120453Y153814D02*
X120896D01*
X120505Y153409D02*
X120844D01*
X120508Y153679D02*
X120841D01*
X120524Y153544D02*
X120825D01*
X118909Y170149D02*
X120090D01*
X118026Y182839D02*
X120073D01*
X119029Y171094D02*
X119970D01*
X118175Y181219D02*
X119924D01*
X119127Y170284D02*
X119872D01*
X119173Y170959D02*
X119826D01*
X118298Y182704D02*
X119801D01*
X119221Y170419D02*
X119778D01*
X107897Y139369D02*
X119775D01*
X119245Y170824D02*
X119754D01*
X119266Y170554D02*
X119733D01*
X118370Y181354D02*
X119729D01*
X119273Y170689D02*
X119726D01*
X119377Y153139D02*
X119672D01*
X119390Y153949D02*
X119659D01*
X118444Y182569D02*
X119655D01*
X118550Y117634D02*
X119649D01*
X111159Y137074D02*
X119627D01*
X107907Y138019D02*
X119615D01*
X118490Y181489D02*
X119609D01*
X118539Y182434D02*
X119560D01*
X119497Y153274D02*
X119552D01*
X119503Y153814D02*
X119546D01*
X108156Y138424D02*
X119542D01*
X118570Y181624D02*
X119529D01*
X118602Y182299D02*
X119497D01*
X108017Y139234D02*
X119492D01*
X118621Y181759D02*
X119478D01*
X118639Y182164D02*
X119460D01*
X118648Y181894D02*
X119451D01*
X111174Y137209D02*
X119450D01*
X118751Y118579D02*
X119448D01*
X118654Y182029D02*
X119445D01*
X107725Y137884D02*
X119445D01*
X108185Y138559D02*
X119412D01*
X108099Y139099D02*
X119388D01*
X118811Y117769D02*
X119388D01*
X111154Y137344D02*
X119366D01*
X100625Y137749D02*
X119364D01*
X108194Y138694D02*
X119348D01*
X108153Y138964D02*
X119337D01*
X111094Y137479D02*
X119329D01*
X110972Y137614D02*
X119328D01*
X108184Y138829D02*
X119325D01*
X118884Y118444D02*
X119315D01*
X118914Y117904D02*
X119285D01*
X118950Y118309D02*
X119249D01*
X118963Y118039D02*
X119236D01*
X118974Y118174D02*
X119225D01*
X107750Y153139D02*
X118722D01*
X118569Y153949D02*
X118709D01*
X108024Y151924D02*
X118625D01*
X113970Y150979D02*
X118616D01*
X107922Y153274D02*
X118602D01*
X108187Y153814D02*
X118596D01*
X117409Y170149D02*
X118590D01*
X108034Y153409D02*
X118544D01*
X108160Y153679D02*
X118541D01*
X111595Y112909D02*
X118531D01*
X108110Y153544D02*
X118525D01*
X117529Y171094D02*
X118470D01*
X108104Y151789D02*
X118449D01*
X113971Y151114D02*
X118446D01*
X117627Y170284D02*
X118372D01*
X108156Y151654D02*
X118366D01*
X113935Y151249D02*
X118364D01*
X107831Y117634D02*
X118349D01*
X106144Y111964D02*
X118334D01*
X113684Y151519D02*
X118329D01*
X113854Y151384D02*
X118329D01*
X117673Y170959D02*
X118326D01*
X117721Y170419D02*
X118278D01*
X100625Y134914D02*
X118275D01*
X111679Y112774D02*
X118272D01*
X108122Y133969D02*
X118266D01*
X117745Y170824D02*
X118254D01*
X117766Y170554D02*
X118233D01*
X117773Y170689D02*
X118226D01*
X111431Y112099D02*
X118200D01*
X111716Y112639D02*
X118170D01*
X113124Y118579D02*
X118148D01*
X111600Y112234D02*
X118135D01*
X100625Y154894D02*
X118124D01*
X111717Y112504D02*
X118121D01*
X111681Y112369D02*
X118110D01*
X100625Y134779D02*
X118099D01*
X108051Y134104D02*
X118096D01*
X107973Y117769D02*
X118088D01*
X108194Y153949D02*
X118030D01*
X100625Y134644D02*
X118016D01*
X113101Y118444D02*
X118015D01*
X107947Y134239D02*
X118014D01*
X108069Y117904D02*
X117985D01*
X107485Y134509D02*
X117979D01*
X107790Y134374D02*
X117979D01*
X113037Y118309D02*
X117949D01*
X108134Y118039D02*
X117936D01*
X112907Y118174D02*
X117925D01*
X107679Y154759D02*
X117917D01*
X108181Y154084D02*
X117880D01*
X107880Y154624D02*
X117825D01*
X108148Y154219D02*
X117806D01*
X108006Y154489D02*
X117782D01*
X108091Y154354D02*
X117776D01*
X115486Y182839D02*
X117533D01*
X115635Y181219D02*
X117384D01*
X115758Y182704D02*
X117261D01*
X115830Y181354D02*
X117189D01*
X114819Y177304D02*
X117180D01*
X114847Y176494D02*
X117152D01*
X115904Y182569D02*
X117115D01*
X115909Y170149D02*
X117090D01*
X115950Y181489D02*
X117069D01*
X114943Y177169D02*
X117056D01*
X114957Y176629D02*
X117042D01*
X115999Y182434D02*
X117020D01*
X115004Y177034D02*
X116995D01*
X115010Y176764D02*
X116989D01*
X116030Y181624D02*
X116989D01*
X115024Y176899D02*
X116975D01*
X116029Y171094D02*
X116970D01*
X116062Y182299D02*
X116957D01*
X116081Y181759D02*
X116938D01*
X116099Y182164D02*
X116920D01*
X116108Y181894D02*
X116911D01*
X116114Y182029D02*
X116905D01*
X115974Y144769D02*
X116875D01*
X116127Y170284D02*
X116872D01*
X116173Y170959D02*
X116826D01*
X116221Y170419D02*
X116778D01*
X116245Y170824D02*
X116754D01*
X116266Y170554D02*
X116733D01*
X116273Y170689D02*
X116726D01*
X116508Y143824D02*
X116642D01*
X115962Y144634D02*
X116592D01*
X112237Y147604D02*
X116526D01*
X108175Y143959D02*
X116512D01*
X115911Y144499D02*
X116488D01*
X114623Y146659D02*
X116464D01*
X108136Y144094D02*
X116448D01*
X115806Y144364D02*
X116437D01*
X112611Y148549D02*
X116429D01*
X115519Y144229D02*
X116425D01*
X112158Y147469D02*
X116377D01*
X114479Y146794D02*
X116322D01*
X112271Y147739D02*
X116318D01*
X111993Y147334D02*
X116280D01*
X112506Y148414D02*
X116279D01*
X107956Y146929D02*
X116253D01*
X107523Y147199D02*
X116234D01*
X107804Y147064D02*
X116226D01*
X112269Y147874D02*
X116225D01*
X112219Y148279D02*
X116206D01*
X112231Y148009D02*
X116182D01*
X112146Y148144D02*
X116176D01*
X111664Y142879D02*
X116130D01*
X111368Y143824D02*
X115891D01*
X111790Y143014D02*
X115843D01*
X111701Y143689D02*
X115762D01*
X111853Y143149D02*
X115738D01*
X111809Y143554D02*
X115698D01*
X111874Y143284D02*
X115687D01*
X111861Y143419D02*
X115675D01*
X114409Y170149D02*
X115590D01*
X100625Y139639D02*
X115572D01*
X107766Y140449D02*
X115559D01*
X114529Y171094D02*
X115470D01*
X100625Y139774D02*
X115452D01*
X107403Y140314D02*
X115446D01*
X100625Y139909D02*
X115394D01*
X100625Y140179D02*
X115391D01*
X108072Y144229D02*
X115380D01*
X100625Y140044D02*
X115375D01*
X114627Y170284D02*
X115372D01*
X114673Y170959D02*
X115326D01*
X114721Y170419D02*
X115278D01*
X114745Y170824D02*
X115254D01*
X114766Y170554D02*
X115233D01*
X114773Y170689D02*
X115226D01*
X100625Y145174D02*
X115141D01*
X107978Y144364D02*
X115093D01*
X100625Y145039D02*
X115012D01*
X113521Y182839D02*
X114993D01*
X107838Y144499D02*
X114988D01*
X100625Y144904D02*
X114948D01*
X107598Y144634D02*
X114937D01*
X100625Y122224D02*
X114931D01*
X100625Y144769D02*
X114925D01*
X113578Y181219D02*
X114844D01*
X112573Y157189D02*
X114776D01*
X113640Y182704D02*
X114721D01*
X113681Y181354D02*
X114649D01*
X112613Y121279D02*
X114635D01*
X112744Y158134D02*
X114605D01*
X100625Y122089D02*
X114598D01*
X113727Y182569D02*
X114575D01*
X112817Y157324D02*
X114532D01*
X113758Y181489D02*
X114529D01*
X108045Y121414D02*
X114509D01*
X100625Y121954D02*
X114490D01*
X113791Y182434D02*
X114480D01*
X112881Y157999D02*
X114468D01*
X113813Y181624D02*
X114449D01*
X107938Y121549D02*
X114446D01*
X107437Y121819D02*
X114438D01*
X112916Y157459D02*
X114433D01*
X107775Y121684D02*
X114425D01*
X113836Y182299D02*
X114417D01*
X112948Y157864D02*
X114401D01*
X113850Y181759D02*
X114398D01*
X112964Y157594D02*
X114385D01*
X113863Y182164D02*
X114380D01*
X112974Y157729D02*
X114375D01*
X113870Y181894D02*
X114371D01*
X113874Y182029D02*
X114365D01*
X100625Y177304D02*
X114180D01*
X100625Y176494D02*
X114152D01*
X100625Y170149D02*
X114090D01*
X100625Y177169D02*
X114056D01*
X100625Y176629D02*
X114042D01*
X108072Y145849D02*
X114040D01*
X100625Y177034D02*
X113995D01*
X100625Y176764D02*
X113989D01*
X100625Y176899D02*
X113975D01*
X100625Y171094D02*
X113970D01*
X108057Y146794D02*
X113920D01*
X100625Y170284D02*
X113872D01*
X100625Y170959D02*
X113826D01*
X108135Y145984D02*
X113822D01*
X113407Y150034D02*
X113798D01*
X100625Y170419D02*
X113778D01*
X108126Y146659D02*
X113776D01*
X100625Y170824D02*
X113754D01*
X112587Y149089D02*
X113747D01*
X100625Y170554D02*
X113733D01*
X108175Y146119D02*
X113728D01*
X100625Y170689D02*
X113726D01*
X108169Y146524D02*
X113704D01*
X108193Y146254D02*
X113683D01*
X108191Y146389D02*
X113676D01*
X113425Y149899D02*
X113608D01*
X112458Y149224D02*
X113587D01*
X113407Y149764D02*
X113520D01*
X108041Y149359D02*
X113510D01*
X113350Y149629D02*
X113481D01*
X113233Y149494D02*
X113477D01*
X107862Y120199D02*
X113438D01*
X108075Y116284D02*
X113398D01*
X108054Y115339D02*
X113347D01*
X107540Y119254D02*
X113321D01*
X112022Y150574D02*
X113227D01*
X107645Y120064D02*
X113222D01*
X112034Y151519D02*
X113215D01*
X108138Y116149D02*
X113208D01*
X108124Y115474D02*
X113187D01*
X100625Y119389D02*
X113176D01*
X111174Y123439D02*
X113160D01*
X100625Y119929D02*
X113127D01*
X108176Y116014D02*
X113120D01*
X108168Y115609D02*
X113110D01*
X100625Y119524D02*
X113105D01*
X100625Y122494D02*
X113088D01*
X100625Y119794D02*
X113083D01*
X108193Y115879D02*
X113081D01*
X108191Y115744D02*
X113077D01*
X100625Y119659D02*
X113076D01*
X112199Y150709D02*
X113050D01*
X112204Y151384D02*
X113045D01*
X112283Y150844D02*
X112966D01*
X112285Y151249D02*
X112964D01*
X111154Y123304D02*
X112962D01*
X107697Y122629D02*
X112934D01*
X112320Y150979D02*
X112929D01*
X112321Y151114D02*
X112928D01*
X111093Y123169D02*
X112873D01*
X107891Y122764D02*
X112858D01*
X110971Y123034D02*
X112831D01*
X108013Y122899D02*
X112827D01*
X107933Y149494D02*
X112566D01*
X100625Y150304D02*
X112565D01*
X107811Y119119D02*
X112525D01*
X107951Y115204D02*
X112455D01*
X107767Y149629D02*
X112449D01*
X100625Y150169D02*
X112449D01*
X107407Y149764D02*
X112392D01*
X100625Y150034D02*
X112392D01*
X107982Y116419D02*
X112388D01*
X100625Y149899D02*
X112374D01*
X107247Y117364D02*
X112355D01*
X107851Y157189D02*
X112326D01*
X104824Y114259D02*
X112314D01*
X101365Y183109D02*
X112313D01*
X108174Y118174D02*
X112292D01*
X108063Y159484D02*
X112248D01*
X107961Y118984D02*
X112242D01*
X107796Y115069D02*
X112227D01*
X107844Y116554D02*
X112204D01*
X108066Y158539D02*
X112197D01*
X107268Y117229D02*
X112191D01*
X108117Y121279D02*
X112186D01*
X100625Y180949D02*
X112173D01*
X104810Y114394D02*
X112172D01*
X108193Y118309D02*
X112162D01*
X107994Y120334D02*
X112156D01*
X107569Y158134D02*
X112155D01*
X108060Y118849D02*
X112138D01*
X107502Y114934D02*
X112130D01*
X107611Y116689D02*
X112118D01*
X107274Y117094D02*
X112112D01*
X104768Y114529D02*
X112103D01*
X108191Y118444D02*
X112098D01*
X108128Y118714D02*
X112087D01*
X104572Y114799D02*
X112084D01*
X107623Y157324D02*
X112082D01*
X107244Y116824D02*
X112080D01*
X111963Y148279D02*
X112080D01*
X107267Y116959D02*
X112078D01*
X104694Y114664D02*
X112076D01*
X108170Y118579D02*
X112075D01*
X108130Y159349D02*
X112058D01*
X101262Y182974D02*
X112043D01*
X108132Y158674D02*
X112037D01*
X100625Y157999D02*
X112018D01*
X108164Y121144D02*
X112003D01*
X108083Y120469D02*
X111991D01*
X100625Y157459D02*
X111983D01*
X108172Y159214D02*
X111970D01*
X100626Y181084D02*
X111963D01*
X108173Y158809D02*
X111960D01*
X100625Y157864D02*
X111951D01*
X100625Y157594D02*
X111935D01*
X108192Y159079D02*
X111931D01*
X108192Y158944D02*
X111927D01*
X100625Y157729D02*
X111925D01*
X108189Y121009D02*
X111918D01*
X108143Y120604D02*
X111912D01*
X108194Y120874D02*
X111880D01*
X108179Y120739D02*
X111878D01*
X101170Y182839D02*
X111878D01*
X108115Y149224D02*
X111841D01*
X100632Y181219D02*
X111821D01*
X108086Y148414D02*
X111793D01*
X101087Y182704D02*
X111759D01*
X100643Y181354D02*
X111718D01*
X108163Y149089D02*
X111712D01*
X108144Y148549D02*
X111688D01*
X101012Y182569D02*
X111672D01*
X108189Y148954D02*
X111648D01*
X100660Y181489D02*
X111641D01*
X108180Y148684D02*
X111637D01*
X108194Y148819D02*
X111625D01*
X100945Y182434D02*
X111608D01*
X100683Y181624D02*
X111586D01*
X107706Y150574D02*
X111577D01*
X108185Y151519D02*
X111565D01*
X100885Y182299D02*
X111563D01*
X100711Y181759D02*
X111549D01*
X100832Y182164D02*
X111536D01*
X107998Y148279D02*
X111536D01*
X100745Y181894D02*
X111529D01*
X100785Y182029D02*
X111525D01*
X100625Y147334D02*
X111506D01*
X107896Y150709D02*
X111400D01*
X108194Y151384D02*
X111395D01*
X107868Y148144D02*
X111353D01*
X100625Y147469D02*
X111341D01*
X108193Y143824D02*
X111331D01*
X108017Y150844D02*
X111316D01*
X108184Y151249D02*
X111314D01*
X108099Y150979D02*
X111279D01*
X108153Y151114D02*
X111278D01*
X107656Y148009D02*
X111268D01*
X100625Y147604D02*
X111262D01*
X100625Y147874D02*
X111230D01*
X100625Y147739D02*
X111228D01*
X108048Y162049D02*
X111188D01*
X108027Y166099D02*
X111121D01*
X108080Y161104D02*
X111071D01*
X107520Y142879D02*
X111035D01*
X108096Y167044D02*
X111001D01*
X108191Y143689D02*
X110998D01*
X100625Y113044D02*
X110973D01*
X108120Y161914D02*
X110972D01*
X100625Y142609D02*
X110971D01*
X100625Y112099D02*
X110960D01*
X107998Y141799D02*
X110960D01*
X108141Y161239D02*
X110926D01*
X107803Y143014D02*
X110909D01*
X108106Y166234D02*
X110903D01*
X108169Y143554D02*
X110890D01*
X108166Y161779D02*
X110877D01*
X108151Y166909D02*
X110857D01*
X108178Y161374D02*
X110855D01*
X100625Y142474D02*
X110852D01*
X107956Y143149D02*
X110846D01*
X107869Y141934D02*
X110846D01*
X108126Y143419D02*
X110838D01*
X108190Y161644D02*
X110833D01*
X108194Y161509D02*
X110826D01*
X108057Y143284D02*
X110825D01*
X108157Y166369D02*
X110809D01*
X100625Y112909D02*
X110796D01*
X100625Y142339D02*
X110793D01*
X107658Y142069D02*
X110791D01*
X100625Y112234D02*
X110791D01*
X108183Y166774D02*
X110785D01*
X100625Y142204D02*
X110775D01*
X108186Y166504D02*
X110764D01*
X108194Y166639D02*
X110757D01*
X108041Y140719D02*
X110738D01*
X100625Y112774D02*
X110712D01*
X100625Y112369D02*
X110710D01*
X108086Y141664D02*
X110705D01*
X100625Y112639D02*
X110675D01*
X100625Y112504D02*
X110674D01*
X107942Y162184D02*
X110628D01*
X100625Y162994D02*
X110603D01*
X108035Y136669D02*
X110575D01*
X108115Y140854D02*
X110554D01*
X108145Y141529D02*
X110541D01*
X107783Y162319D02*
X110506D01*
X100625Y162859D02*
X110493D01*
X108163Y140989D02*
X110468D01*
X108180Y141394D02*
X110462D01*
X107462Y162454D02*
X110445D01*
X100625Y162724D02*
X110440D01*
X108188Y141124D02*
X110430D01*
X108194Y141259D02*
X110428D01*
X100625Y162589D02*
X110425D01*
X108091Y135724D02*
X110342D01*
X108096Y123034D02*
X110328D01*
X100625Y137614D02*
X110328D01*
X107923Y136804D02*
X110304D01*
X108106Y123844D02*
X110303D01*
X108111Y136534D02*
X110292D01*
X108148Y135859D02*
X110212D01*
X108151Y123169D02*
X110206D01*
X100625Y137479D02*
X110205D01*
X107751Y136939D02*
X110194D01*
X108157Y123709D02*
X110193D01*
X108160Y136399D02*
X110188D01*
X108181Y135994D02*
X110148D01*
X108183Y123304D02*
X110145D01*
X100625Y137344D02*
X110145D01*
X107295Y137074D02*
X110140D01*
X108186Y123574D02*
X110140D01*
X108187Y136264D02*
X110137D01*
X108194Y136129D02*
X110125D01*
X108194Y123439D02*
X110125D01*
X100625Y137209D02*
X110125D01*
X104755Y137074D02*
X107244D01*
X104863Y140314D02*
X107136D01*
X104867Y149764D02*
X107132D01*
X104897Y121819D02*
X107102D01*
X104919Y127624D02*
X107080D01*
X104922Y162454D02*
X107077D01*
X104942Y155569D02*
X107057D01*
X104945Y134509D02*
X107054D01*
X104962Y114934D02*
X107037D01*
X104980Y142879D02*
X107019D01*
X104983Y147199D02*
X107016D01*
X105000Y119254D02*
X106999D01*
X105013Y130189D02*
X106986D01*
X105016Y159889D02*
X106983D01*
X105029Y158134D02*
X106970D01*
X105030Y131944D02*
X106969D01*
X105056Y145444D02*
X106943D01*
X105058Y144634D02*
X106941D01*
X105082Y132754D02*
X106917D01*
X105083Y157324D02*
X106916D01*
X105094Y160699D02*
X106905D01*
X105095Y129379D02*
X106904D01*
X105105Y120064D02*
X106894D01*
X105107Y170014D02*
X106892D01*
X105116Y148009D02*
X106883D01*
X105118Y142069D02*
X106881D01*
X105137Y135319D02*
X106862D01*
X105139Y154759D02*
X106860D01*
X105147Y163264D02*
X106852D01*
X105149Y126814D02*
X106851D01*
X105157Y122629D02*
X106842D01*
X105166Y150574D02*
X106833D01*
X105168Y139504D02*
X106831D01*
X105185Y137884D02*
X106814D01*
X105186Y152194D02*
X106813D01*
X105193Y165829D02*
X106806D01*
X105194Y124249D02*
X106805D01*
X105202Y125194D02*
X106797D01*
X105203Y164884D02*
X106796D01*
X105210Y153139D02*
X106789D01*
X105211Y136939D02*
X106788D01*
X105226Y140449D02*
X106773D01*
X105227Y149629D02*
X106772D01*
X105235Y121684D02*
X106764D01*
X105242Y127759D02*
X106757D01*
X105243Y162319D02*
X106756D01*
X105249Y155704D02*
X106750D01*
X105250Y134374D02*
X106749D01*
X105256Y115069D02*
X106743D01*
X105263Y143014D02*
X106736D01*
X105264Y147064D02*
X106735D01*
X105271Y119119D02*
X106728D01*
X105277Y130324D02*
X106722D01*
X105278Y159754D02*
X106721D01*
X105284Y158269D02*
X106715D01*
X105285Y131809D02*
X106714D01*
X105297Y145579D02*
X106702D01*
X105298Y144499D02*
X106701D01*
X105310Y132889D02*
X106689D01*
X105311Y157189D02*
X106688D01*
X105316Y160834D02*
X106683D01*
X105317Y129244D02*
X106682D01*
X105322Y120199D02*
X106677D01*
X105323Y169879D02*
X106676D01*
X105328Y148144D02*
X106671D01*
X105329Y141934D02*
X106670D01*
X105340Y135454D02*
X106659D01*
X105340Y154624D02*
X106659D01*
X105345Y163399D02*
X106654D01*
X105346Y126679D02*
X106653D01*
X105351Y122764D02*
X106648D01*
X105356Y150709D02*
X106643D01*
X105357Y139369D02*
X106642D01*
X105367Y138019D02*
X106632D01*
X105368Y152059D02*
X106631D01*
X105372Y165964D02*
X106627D01*
X105373Y124114D02*
X106626D01*
X105377Y125329D02*
X106622D01*
X105378Y164749D02*
X106621D01*
X105382Y153274D02*
X106617D01*
X105383Y136804D02*
X106616D01*
X105392Y140584D02*
X106607D01*
X105393Y149494D02*
X106606D01*
X105398Y121549D02*
X106601D01*
X105402Y127894D02*
X106597D01*
X105402Y162184D02*
X106597D01*
X105406Y155839D02*
X106593D01*
X105407Y134239D02*
X106592D01*
X105411Y115204D02*
X106588D01*
X105416Y143149D02*
X106583D01*
X105416Y146929D02*
X106583D01*
X105421Y118984D02*
X106578D01*
X105425Y130459D02*
X106574D01*
X105425Y159619D02*
X106574D01*
X105429Y158404D02*
X106570D01*
X105430Y131674D02*
X106569D01*
X105437Y145714D02*
X106562D01*
X105438Y144364D02*
X106561D01*
X105446Y133024D02*
X106553D01*
X105446Y157054D02*
X106553D01*
X105450Y160969D02*
X106549D01*
X105450Y129109D02*
X106549D01*
X105454Y120334D02*
X106545D01*
X105454Y169744D02*
X106545D01*
X105458Y148279D02*
X106541D01*
X105458Y141799D02*
X106541D01*
X105465Y135589D02*
X106534D01*
X105466Y154489D02*
X106533D01*
X105469Y163534D02*
X106530D01*
X105470Y126544D02*
X106529D01*
X105473Y122899D02*
X106526D01*
X105477Y150844D02*
X106522D01*
X105477Y139234D02*
X106522D01*
X105484Y138154D02*
X106515D01*
X105484Y151924D02*
X106515D01*
X105487Y166099D02*
X106512D01*
X105488Y123979D02*
X106511D01*
X105491Y125464D02*
X106508D01*
X105491Y164614D02*
X106508D01*
X105494Y153409D02*
X106505D01*
X105495Y136669D02*
X106504D01*
X105501Y140719D02*
X106498D01*
X105501Y149359D02*
X106498D01*
X105505Y121414D02*
X106494D01*
X105508Y128029D02*
X106491D01*
X105508Y162049D02*
X106491D01*
X105511Y155974D02*
X106488D01*
X105511Y134104D02*
X106488D01*
X105514Y115339D02*
X106485D01*
X105517Y143284D02*
X106482D01*
X105517Y146794D02*
X106482D01*
X105520Y118849D02*
X106479D01*
X105523Y130594D02*
X106476D01*
X105523Y159484D02*
X106476D01*
X105526Y158539D02*
X106473D01*
X105526Y131539D02*
X106473D01*
X105532Y145849D02*
X106467D01*
X105532Y144229D02*
X106467D01*
X105537Y133159D02*
X106462D01*
X105538Y156919D02*
X106461D01*
X105540Y161104D02*
X106459D01*
X105541Y128974D02*
X106458D01*
X105543Y120469D02*
X106456D01*
X105543Y169609D02*
X106456D01*
X105546Y148414D02*
X106453D01*
X105546Y141664D02*
X106453D01*
X105551Y135724D02*
X106448D01*
X105551Y154354D02*
X106448D01*
X105553Y163669D02*
X106446D01*
X105554Y126409D02*
X106445D01*
X105556Y123034D02*
X106443D01*
X105559Y150979D02*
X106440D01*
X105559Y139099D02*
X106440D01*
X105563Y138289D02*
X106436D01*
X105564Y151789D02*
X106435D01*
X105566Y166234D02*
X106433D01*
X105566Y123844D02*
X106433D01*
X105568Y125599D02*
X106431D01*
X105568Y164479D02*
X106431D01*
X105570Y153544D02*
X106429D01*
X105571Y136534D02*
X106428D01*
X105575Y140854D02*
X106424D01*
X105575Y149224D02*
X106424D01*
X105577Y121279D02*
X106422D01*
X105579Y128164D02*
X106420D01*
X105580Y161914D02*
X106419D01*
X105581Y156109D02*
X106418D01*
X105582Y133969D02*
X106417D01*
X105584Y115474D02*
X106415D01*
X105586Y143419D02*
X106413D01*
X105586Y146659D02*
X106413D01*
X105588Y118714D02*
X106411D01*
X105590Y130729D02*
X106409D01*
X105590Y159349D02*
X106409D01*
X105592Y158674D02*
X106407D01*
X105592Y131404D02*
X106407D01*
X105595Y145984D02*
X106404D01*
X105596Y144094D02*
X106403D01*
X105599Y133294D02*
X106400D01*
X105599Y156784D02*
X106400D01*
X105601Y161239D02*
X106398D01*
X105601Y128839D02*
X106398D01*
X105603Y120604D02*
X106396D01*
X105603Y169474D02*
X106396D01*
X105604Y148549D02*
X106395D01*
X105605Y141529D02*
X106394D01*
X105608Y135859D02*
X106391D01*
X105608Y154219D02*
X106391D01*
X105609Y163804D02*
X106390D01*
X105610Y126274D02*
X106389D01*
X105611Y123169D02*
X106388D01*
X105613Y151114D02*
X106386D01*
X105613Y138964D02*
X106386D01*
X105616Y138424D02*
X106383D01*
X105616Y151654D02*
X106383D01*
X105617Y166369D02*
X106382D01*
X105617Y123709D02*
X106382D01*
X105619Y125734D02*
X106380D01*
X105619Y164344D02*
X106380D01*
X105620Y153679D02*
X106379D01*
X105620Y136399D02*
X106379D01*
X105623Y140989D02*
X106376D01*
X105623Y149089D02*
X106376D01*
X105624Y121144D02*
X106375D01*
X105625Y128299D02*
X106374D01*
X105626Y161779D02*
X106373D01*
X105627Y156244D02*
X106372D01*
X105627Y133834D02*
X106372D01*
X105628Y115609D02*
X106371D01*
X105629Y143554D02*
X106370D01*
X105629Y146524D02*
X106370D01*
X105630Y118579D02*
X106369D01*
X105631Y130864D02*
X106368D01*
X105632Y159214D02*
X106367D01*
X105633Y158809D02*
X106366D01*
X105633Y131269D02*
X106366D01*
X105635Y146119D02*
X106364D01*
X105635Y143959D02*
X106364D01*
X105637Y133429D02*
X106362D01*
X105637Y156649D02*
X106362D01*
X105638Y161374D02*
X106361D01*
X105638Y128704D02*
X106361D01*
X105639Y120739D02*
X106360D01*
X105639Y169339D02*
X106360D01*
X105640Y148684D02*
X106359D01*
X105640Y141394D02*
X106359D01*
X105641Y135994D02*
X106358D01*
X105641Y154084D02*
X106358D01*
X105642Y163939D02*
X106357D01*
X105642Y126139D02*
X106357D01*
X105643Y123304D02*
X106356D01*
X105644Y151249D02*
X106355D01*
X105644Y138829D02*
X106355D01*
X105645Y138559D02*
X106354D01*
X105645Y151519D02*
X106354D01*
X105646Y166504D02*
X106353D01*
X105646Y123574D02*
X106353D01*
X105647Y125869D02*
X106352D01*
X105647Y164209D02*
X106352D01*
X105647Y153814D02*
X106352D01*
X105647Y136264D02*
X106352D01*
X105648Y141124D02*
X106351D01*
X105649Y148954D02*
X106350D01*
X105649Y121009D02*
X106350D01*
X105650Y128434D02*
X106349D01*
X105650Y161644D02*
X106349D01*
X105650Y156379D02*
X106349D01*
X105650Y133699D02*
X106349D01*
X105651Y115744D02*
X106348D01*
X105651Y143689D02*
X106348D01*
X105651Y146389D02*
X106348D01*
X105651Y118444D02*
X106348D01*
X105652Y130999D02*
X106347D01*
X105652Y159079D02*
X106347D01*
X105652Y158944D02*
X106347D01*
X105652Y131134D02*
X106347D01*
X105653Y146254D02*
X106346D01*
X105653Y143824D02*
X106346D01*
X105653Y133564D02*
X106346D01*
X105653Y156514D02*
X106346D01*
X105654Y161509D02*
X106345D01*
X105654Y128569D02*
X106345D01*
X105654Y120874D02*
X106345D01*
X105654Y169204D02*
X106345D01*
X105654Y148819D02*
X106345D01*
X105654Y141259D02*
X106345D01*
X105654Y136129D02*
X106345D01*
X105654Y153949D02*
X106345D01*
X105654Y164074D02*
X106345D01*
X105654Y126004D02*
X106345D01*
X105654Y123439D02*
X106345D01*
X106192Y166639D02*
X106345D01*
X105654Y151384D02*
X106345D01*
X105654Y138694D02*
X106345D01*
X105654Y166639D02*
X105807D01*
X100625Y111019D02*
X105688D01*
X100625Y111964D02*
X105655D01*
X100625Y111154D02*
X105504D01*
X100625Y111829D02*
X105491D01*
X100625Y111289D02*
X105418D01*
X100625Y111694D02*
X105412D01*
X100625Y111424D02*
X105380D01*
X100625Y111559D02*
X105378D01*
X100625Y167584D02*
X104764D01*
X100625Y116824D02*
X104755D01*
X100625Y117364D02*
X104752D01*
X100625Y168124D02*
X104744D01*
X100625Y167719D02*
X104737D01*
X100625Y116959D02*
X104732D01*
X100625Y117229D02*
X104731D01*
X100625Y167989D02*
X104728D01*
X100625Y167854D02*
X104725D01*
X100625Y117094D02*
X104725D01*
X100625Y137074D02*
X104704D01*
X100625Y140314D02*
X104596D01*
X100625Y149764D02*
X104592D01*
X100625Y168259D02*
X104565D01*
X100625Y121819D02*
X104562D01*
X100625Y127624D02*
X104540D01*
X100625Y162454D02*
X104537D01*
X100625Y155569D02*
X104517D01*
X100625Y134509D02*
X104514D01*
X104338Y114934D02*
X104497D01*
X100625Y142879D02*
X104479D01*
X100625Y147199D02*
X104476D01*
X100625Y119254D02*
X104459D01*
X100625Y130189D02*
X104446D01*
X100625Y159889D02*
X104443D01*
X100625Y158134D02*
X104430D01*
X100625Y131944D02*
X104429D01*
X100625Y117499D02*
X104416D01*
X100625Y145444D02*
X104403D01*
X100625Y144634D02*
X104401D01*
X100625Y116689D02*
X104388D01*
X100625Y132754D02*
X104377D01*
X100625Y157324D02*
X104376D01*
X100625Y160699D02*
X104365D01*
X100625Y129379D02*
X104364D01*
X100625Y120064D02*
X104354D01*
X100625Y170014D02*
X104352D01*
X100625Y148009D02*
X104343D01*
X100625Y142069D02*
X104341D01*
X100625Y135319D02*
X104322D01*
X100625Y154759D02*
X104320D01*
X100625Y163264D02*
X104312D01*
X100625Y126814D02*
X104311D01*
X100625Y122629D02*
X104302D01*
X100625Y167449D02*
X104301D01*
X100625Y150574D02*
X104293D01*
X100625Y139504D02*
X104291D01*
X100625Y137884D02*
X104274D01*
X100625Y152194D02*
X104273D01*
X100625Y165829D02*
X104266D01*
X100625Y124249D02*
X104265D01*
X100625Y125194D02*
X104257D01*
X100625Y164884D02*
X104256D01*
X100625Y153139D02*
X104249D01*
X100625Y136939D02*
X104248D01*
X100625Y140449D02*
X104233D01*
X100625Y149629D02*
X104232D01*
X100625Y168394D02*
X104225D01*
X100625Y121684D02*
X104224D01*
X100625Y127759D02*
X104217D01*
X100625Y162319D02*
X104216D01*
X100625Y155704D02*
X104210D01*
X100625Y134374D02*
X104209D01*
X100625Y115069D02*
X104203D01*
X100625Y143014D02*
X104196D01*
X100625Y147064D02*
X104195D01*
X100625Y119119D02*
X104188D01*
X100625Y130324D02*
X104182D01*
X100625Y159754D02*
X104181D01*
X100625Y158269D02*
X104175D01*
X100625Y131809D02*
X104174D01*
X100625Y117634D02*
X104168D01*
X100625Y145579D02*
X104162D01*
X100625Y144499D02*
X104161D01*
X100625Y116554D02*
X104155D01*
X100625Y132889D02*
X104149D01*
X100625Y157189D02*
X104148D01*
X100625Y160834D02*
X104143D01*
X100625Y129244D02*
X104142D01*
X100625Y120199D02*
X104137D01*
X100625Y169879D02*
X104136D01*
X100625Y148144D02*
X104131D01*
X100625Y141934D02*
X104130D01*
X100625Y135454D02*
X104119D01*
X100625Y154624D02*
X104119D01*
X100625Y163399D02*
X104114D01*
X100625Y126679D02*
X104113D01*
X100625Y122764D02*
X104108D01*
X100625Y167314D02*
X104108D01*
X100625Y150709D02*
X104103D01*
X100625Y139369D02*
X104102D01*
X100625Y138019D02*
X104092D01*
X100625Y152059D02*
X104091D01*
X100625Y165964D02*
X104087D01*
X100625Y124114D02*
X104086D01*
X100625Y125329D02*
X104082D01*
X100625Y164749D02*
X104081D01*
X100625Y153274D02*
X104077D01*
X100625Y136804D02*
X104076D01*
X100625Y140584D02*
X104067D01*
X100625Y149494D02*
X104066D01*
X100625Y168529D02*
X104062D01*
X100625Y121549D02*
X104061D01*
X100625Y127894D02*
X104057D01*
X100625Y162184D02*
X104057D01*
X100625Y155839D02*
X104053D01*
X100625Y134239D02*
X104052D01*
X100625Y115204D02*
X104048D01*
X100625Y143149D02*
X104043D01*
X100625Y146929D02*
X104043D01*
X100625Y118984D02*
X104038D01*
X100625Y130459D02*
X104034D01*
X100625Y159619D02*
X104034D01*
X100625Y158404D02*
X104030D01*
X100625Y131674D02*
X104029D01*
X100625Y117769D02*
X104026D01*
X100625Y145714D02*
X104022D01*
X100625Y144364D02*
X104021D01*
X100625Y116419D02*
X104017D01*
X100625Y133024D02*
X104013D01*
X100625Y157054D02*
X104013D01*
X100625Y160969D02*
X104009D01*
X100625Y129109D02*
X104009D01*
X100625Y120334D02*
X104005D01*
X100625Y169744D02*
X104005D01*
X100625Y148279D02*
X104001D01*
X100625Y141799D02*
X104001D01*
X100625Y135589D02*
X103994D01*
X100625Y154489D02*
X103993D01*
X100625Y163534D02*
X103990D01*
X100625Y126544D02*
X103989D01*
X100625Y122899D02*
X103986D01*
X100625Y167179D02*
X103986D01*
X100625Y150844D02*
X103982D01*
X100625Y139234D02*
X103982D01*
X100625Y138154D02*
X103975D01*
X100625Y151924D02*
X103975D01*
X100625Y166099D02*
X103972D01*
X100625Y123979D02*
X103971D01*
X100625Y125464D02*
X103968D01*
X100625Y164614D02*
X103968D01*
X100625Y153409D02*
X103965D01*
X100625Y136669D02*
X103964D01*
X100625Y140719D02*
X103958D01*
X100625Y149359D02*
X103958D01*
X100625Y168664D02*
X103955D01*
X100625Y121414D02*
X103954D01*
X100625Y128029D02*
X103951D01*
X100625Y162049D02*
X103951D01*
X100625Y155974D02*
X103948D01*
X100625Y134104D02*
X103948D01*
X100625Y115339D02*
X103945D01*
X100625Y143284D02*
X103942D01*
X100625Y146794D02*
X103942D01*
X100625Y118849D02*
X103939D01*
X100625Y130594D02*
X103936D01*
X100625Y159484D02*
X103936D01*
X100625Y158539D02*
X103933D01*
X100625Y131539D02*
X103933D01*
X100625Y117904D02*
X103930D01*
X100625Y145849D02*
X103927D01*
X100625Y144229D02*
X103927D01*
X100625Y116284D02*
X103924D01*
X100625Y133159D02*
X103922D01*
X100625Y156919D02*
X103921D01*
X100625Y161104D02*
X103919D01*
X100625Y128974D02*
X103918D01*
X100625Y120469D02*
X103916D01*
X100625Y169609D02*
X103916D01*
X100625Y148414D02*
X103913D01*
X100625Y141664D02*
X103913D01*
X100625Y135724D02*
X103908D01*
X100625Y154354D02*
X103908D01*
X100625Y163669D02*
X103906D01*
X100625Y126409D02*
X103905D01*
X100625Y123034D02*
X103903D01*
X100625Y167044D02*
X103903D01*
X100625Y150979D02*
X103900D01*
X100625Y139099D02*
X103900D01*
X100625Y138289D02*
X103896D01*
X100625Y151789D02*
X103895D01*
X100625Y166234D02*
X103893D01*
X100625Y123844D02*
X103893D01*
X100625Y125599D02*
X103891D01*
X100625Y164479D02*
X103891D01*
X100625Y153544D02*
X103889D01*
X100625Y136534D02*
X103888D01*
X100625Y140854D02*
X103884D01*
X100625Y149224D02*
X103884D01*
X100625Y168799D02*
X103882D01*
X100625Y121279D02*
X103882D01*
X100625Y128164D02*
X103880D01*
X100625Y161914D02*
X103879D01*
X100625Y156109D02*
X103878D01*
X100625Y133969D02*
X103877D01*
X100625Y115474D02*
X103875D01*
X100625Y143419D02*
X103873D01*
X100625Y146659D02*
X103873D01*
X100625Y118714D02*
X103871D01*
X100625Y130729D02*
X103869D01*
X100625Y159349D02*
X103869D01*
X100625Y158674D02*
X103867D01*
X100625Y131404D02*
X103867D01*
X100625Y118039D02*
X103865D01*
X100625Y145984D02*
X103864D01*
X100625Y144094D02*
X103863D01*
X100625Y116149D02*
X103861D01*
X103038Y114934D02*
X103861D01*
X100625Y133294D02*
X103860D01*
X100625Y156784D02*
X103860D01*
X100625Y161239D02*
X103858D01*
X100625Y128839D02*
X103858D01*
X100625Y120604D02*
X103856D01*
X100625Y169474D02*
X103856D01*
X100625Y148549D02*
X103855D01*
X100625Y141529D02*
X103854D01*
X100625Y135859D02*
X103851D01*
X100625Y154219D02*
X103851D01*
X100625Y163804D02*
X103850D01*
X100625Y126274D02*
X103849D01*
X100625Y123169D02*
X103848D01*
X100625Y166909D02*
X103848D01*
X100625Y151114D02*
X103846D01*
X100625Y138964D02*
X103846D01*
X100625Y138424D02*
X103843D01*
X100625Y151654D02*
X103843D01*
X100625Y166369D02*
X103842D01*
X100625Y123709D02*
X103842D01*
X100625Y125734D02*
X103840D01*
X100625Y164344D02*
X103840D01*
X100625Y153679D02*
X103839D01*
X100625Y136399D02*
X103839D01*
X100625Y140989D02*
X103836D01*
X100625Y149089D02*
X103836D01*
X100625Y168934D02*
X103835D01*
X100625Y121144D02*
X103835D01*
X100625Y128299D02*
X103834D01*
X100625Y161779D02*
X103833D01*
X100625Y156244D02*
X103832D01*
X100625Y133834D02*
X103832D01*
X100625Y115609D02*
X103831D01*
X100625Y143554D02*
X103830D01*
X100625Y146524D02*
X103830D01*
X100625Y118579D02*
X103829D01*
X100625Y130864D02*
X103828D01*
X100625Y159214D02*
X103827D01*
X100625Y158809D02*
X103826D01*
X100625Y131269D02*
X103826D01*
X100625Y118174D02*
X103825D01*
X100625Y146119D02*
X103824D01*
X100625Y143959D02*
X103824D01*
X100625Y116014D02*
X103823D01*
X100625Y133429D02*
X103822D01*
X100625Y156649D02*
X103822D01*
X100625Y161374D02*
X103821D01*
X100625Y128704D02*
X103821D01*
X100625Y120739D02*
X103820D01*
X100625Y169339D02*
X103820D01*
X100625Y148684D02*
X103819D01*
X100625Y141394D02*
X103819D01*
X100625Y135994D02*
X103818D01*
X100625Y154084D02*
X103818D01*
X100625Y163939D02*
X103817D01*
X100625Y126139D02*
X103817D01*
X100625Y123304D02*
X103816D01*
X100625Y166774D02*
X103816D01*
X100625Y151249D02*
X103815D01*
X100625Y138829D02*
X103815D01*
X100625Y138559D02*
X103814D01*
X100625Y151519D02*
X103814D01*
X100625Y166504D02*
X103813D01*
X100625Y123574D02*
X103813D01*
X100625Y125869D02*
X103812D01*
X100625Y164209D02*
X103812D01*
X100625Y153814D02*
X103812D01*
X100625Y136264D02*
X103812D01*
X103088Y113584D02*
X103811D01*
X100625Y141124D02*
X103811D01*
X100625Y148954D02*
X103810D01*
X100625Y169069D02*
X103810D01*
X100625Y121009D02*
X103810D01*
X100625Y128434D02*
X103809D01*
X100625Y161644D02*
X103809D01*
X100625Y156379D02*
X103809D01*
X100625Y133699D02*
X103809D01*
X100625Y115744D02*
X103808D01*
X100625Y143689D02*
X103808D01*
X100625Y146389D02*
X103808D01*
X100625Y118444D02*
X103808D01*
X100625Y130999D02*
X103807D01*
X100625Y159079D02*
X103807D01*
X100625Y158944D02*
X103807D01*
X100625Y131134D02*
X103807D01*
X100625Y118309D02*
X103806D01*
X100625Y146254D02*
X103806D01*
X100625Y143824D02*
X103806D01*
X100625Y115879D02*
X103806D01*
X100625Y133564D02*
X103806D01*
X100625Y156514D02*
X103806D01*
X100625Y161509D02*
X103805D01*
X100625Y128569D02*
X103805D01*
X100625Y120874D02*
X103805D01*
X100625Y169204D02*
X103805D01*
X100625Y148819D02*
X103805D01*
X100625Y141259D02*
X103805D01*
X100625Y136129D02*
X103805D01*
X100625Y153949D02*
X103805D01*
X100625Y164074D02*
X103805D01*
X100625Y126004D02*
X103805D01*
X100625Y123439D02*
X103805D01*
X100625Y166639D02*
X103805D01*
X100625Y151384D02*
X103805D01*
X100625Y138694D02*
X103805D01*
X103272Y114799D02*
X103627D01*
X103294Y113719D02*
X103605D01*
X100625Y176089D02*
X103560D01*
X100625Y173929D02*
X103515D01*
X103394Y114664D02*
X103505D01*
X103407Y113854D02*
X103492D01*
X100625Y175954D02*
X103314D01*
X100625Y174064D02*
X103288D01*
X100625Y175819D02*
X103158D01*
X100625Y174199D02*
X103139D01*
X100625Y175684D02*
X103045D01*
X100625Y174334D02*
X103031D01*
X100625Y175549D02*
X102961D01*
X100625Y174469D02*
X102951D01*
X100625Y175414D02*
X102900D01*
X100625Y174604D02*
X102893D01*
X100625Y175279D02*
X102858D01*
X100625Y174739D02*
X102854D01*
X100625Y175144D02*
X102833D01*
X100625Y174874D02*
X102831D01*
X100625Y175009D02*
X102825D01*
X100625Y114934D02*
X102561D01*
X100625Y113584D02*
X102511D01*
X100625Y114799D02*
X102327D01*
X100625Y113719D02*
X102305D01*
X100625Y114664D02*
X102205D01*
X100625Y113854D02*
X102192D01*
X100625Y114529D02*
X102131D01*
X100625Y113989D02*
X102123D01*
X100625Y114394D02*
X102089D01*
X100625Y114124D02*
X102085D01*
X100625Y114259D02*
X102075D01*
G54D166*
X100000Y104000D02*
G03X104000Y100000I4000J0D01*
G01X175000*
G03X179000Y104000I0J4000*
G01Y181000*
G03X175000Y185000I-4000J0*
G01X104000*
G03X100000Y181000I0J-4000*
G01Y104000*
X99350Y93000D02*
X86650D01*
X93000Y99350D02*
Y86650D01*
X94905Y93000D02*
X93000Y94905D01*
X91095Y93000*
X93000Y91095*
X94905Y93000*
X96175D02*
X93000Y96175D01*
X89825Y93000*
X93000Y89825*
X96175Y93000*
X97445D02*
X93000Y97445D01*
X88555Y93000*
X93000Y88555*
X97445Y93000*
X99350Y192000D02*
X86650D01*
X93000Y198350D02*
Y185650D01*
X94905Y192000D02*
X93000Y193905D01*
X91095Y192000*
X93000Y190095*
X94905Y192000*
X96175D02*
X93000Y195175D01*
X89825Y192000*
X93000Y188825*
X96175Y192000*
X97445D02*
X93000Y196445D01*
X88555Y192000*
X93000Y187555*
X97445Y192000*
X192350D02*
X179650D01*
X186000Y198350D02*
Y185650D01*
X187905Y192000D02*
X186000Y193905D01*
X184095Y192000*
X186000Y190095*
X187905Y192000*
X189175D02*
X186000Y195175D01*
X182825Y192000*
X186000Y188825*
X189175Y192000*
X190445D02*
X186000Y196445D01*
X181555Y192000*
X186000Y187555*
X190445Y192000*
G54D189*
X103999Y103999D03*
Y180999D03*
X175000Y181000D03*
Y104000D03*
G54D200*
G74*
X0Y0D02*
M02*
