M48
;Layer_Color=9474304
;FILE_FORMAT=2:5
INCH,LZ
;TYPE=PLATED
T1F00S00C0.00787
T2F00S00C0.01200
T3F00S00C0.01400
T4F00S00C0.01600
T5F00S00C0.03543
T6F00S00C0.03937
%
T01
X-0105703Y-0057448
X-0101372
X-0097042
X-0092711
X-008838
Y-0053117
Y-0048787
Y-0044456
Y-0040125
X-0092711
Y-0044456
Y-0048787
Y-0053117
X-0097042
Y-0048787
Y-0044456
Y-0040125
X-0101372
Y-0044456
Y-0048787
Y-0053117
X-0105703
Y-0048787
Y-0044456
Y-0040125
T02
X-0045744Y-00951
X-00377Y-01019
X-0032968Y-0102
X-00328Y-00976
X-00264Y-00975
X-0026568Y-01019
X-00208Y-01012
X-00077Y-01001
X-0055131Y-01001
Y-00951
X-0064406
Y-01001
X-00712Y-01
X-01344Y-01013
X-01415Y-00848
X-01279Y-00731
X-0128Y-007
X-01281Y-00667
X-01247Y-00754
X-01159Y-00786
X-01105Y-00815
X-0111805Y-00877
X-0099705Y-0083046
X-0096905Y-00831
X-0092567Y-0080546
X-00838Y-00649
X-00657Y-00658
X-00682Y-00706
X-0064406Y-00851
Y-00901
X-00712Y-0088
X-0055131Y-00901
Y-00851
X-00495Y-00676
X-00505Y-00647
X-00526Y-00628
X-00545Y-00607
X-0056127Y-0049973
X-0048627
X-0052377Y-0042473
X-0059877
X-00645Y-0036154
X-0066768Y-00264
X-00727Y-0027
X-0078405Y-00166
X-0078268Y-00124
X-00737Y-00082
X-0067905Y-00099
Y-00149
X-0058631
Y-00099
Y-00049
Y00001
X-0067905
Y-00049
X-00728Y00015
X-0049301Y00001
X-0049244Y-00099
Y-00149
X-0085905Y-00177
X-01Y-00183
X-01001Y-00236
X-01004Y-00287
X-00976Y-00289
X-01084Y-00281
X-0109306Y-00172
X-01264Y-00138
X-0126Y-0004
X-01196Y-0032
X-01303Y-00348
X-01304Y-00464
X-01228Y-0057
X-01159Y-00644
X-011
X-01075Y-00607
X-01093Y-00578
X-0084905Y-00401
X-0077Y-0041897
X-0063627Y-0049973
X-01418Y-00248
X-0044877Y-0042473
X-0041127Y-0049973
X-0033627
X-0029877Y-0042473
X-0023806Y-00259
X-0021279Y-00135
Y-00093
X-0021279Y-00045
Y-00003
X-0030237Y-00024
X-0030068Y0002
X-0036468Y00019
X-00402
X-0036637Y-00025
Y-00075
Y-00125
X-0030237Y-00124
Y-00074
X-0008705Y-00097
Y-00139
X-0008705Y-00049
Y-00007
X-00161Y-00785
X-0026432Y-00827
X-00264Y-00875
Y-00925
X-00328Y-00926
Y-00876
X-0032832Y-00828
X-0045801Y-00851
X-0044877Y-0057473
T03
X-0108905Y-01001
X-0104905
Y-00951
X-0108905
X-01232Y-00512
X-0112406Y-00055
X-0108405
Y-00005
X-0112406
T04
X-0092106Y-00694
X-0091505Y-00278
T05
X0Y-01
X-014
Y-009
Y-008
Y-007
Y-006
Y-005
Y-004
Y-003
Y-002
Y-001
Y0
X0
Y-001
Y-006
Y-007
Y-008
Y-009
X-0025268Y-00384
X-0035268
T06
X0Y-005
Y-004
Y-003
Y-002
M30
